<?xml version="1.0" encoding="utf-8" standalone="no"?>
<!DOCTYPE svg PUBLIC "-//W3C//DTD SVG 1.1//EN"
  "http://www.w3.org/Graphics/SVG/1.1/DTD/svg11.dtd">
<svg xmlns:xlink="http://www.w3.org/1999/xlink" width="576pt" height="432pt" viewBox="0 0 576 432" xmlns="http://www.w3.org/2000/svg" version="1.1">
 <metadata>
  <rdf:RDF xmlns:dc="http://purl.org/dc/elements/1.1/" xmlns:cc="http://creativecommons.org/ns#" xmlns:rdf="http://www.w3.org/1999/02/22-rdf-syntax-ns#">
   <cc:Work>
    <dc:type rdf:resource="http://purl.org/dc/dcmitype/StillImage"/>
    <dc:date>2022-01-25T11:11:58.451079</dc:date>
    <dc:format>image/svg+xml</dc:format>
    <dc:creator>
     <cc:Agent>
      <dc:title>Matplotlib v3.5.0, https://matplotlib.org/</dc:title>
     </cc:Agent>
    </dc:creator>
   </cc:Work>
  </rdf:RDF>
 </metadata>
 <defs>
  <style type="text/css">*{stroke-linejoin: round; stroke-linecap: butt}</style>
 </defs>
 <g id="figure_1">
  <g id="patch_1">
   <path d="M 0 432
L 576 432
L 576 0
L 0 0
L 0 432
z
" style="fill: none"/>
  </g>
  <g id="axes_1">
   <g id="patch_2">
    <path d="M 41.066608 392.281821
L 553.06 392.281821
L 553.06 22.94
L 41.066608 22.94
L 41.066608 392.281821
z
" style="fill: none"/>
   </g>
   <g id="matplotlib.axis_1">
    <g id="xtick_1">
     <g id="line2d_1">
      <defs>
       <path id="mf199126253" d="M 0 0
L 0 3.5
" style="stroke: #000000; stroke-width: 0.8"/>
      </defs>
      <g>
       <use xlink:href="#mf199126253" x="85.495786" y="392.281821" style="stroke: #000000; stroke-width: 0.8"/>
      </g>
     </g>
     <g id="line2d_2">
      <defs>
       <path id="m9c2304fc3a" d="M 0 0
L 0 -3.5
" style="stroke: #000000; stroke-width: 0.8"/>
      </defs>
      <g>
       <use xlink:href="#m9c2304fc3a" x="85.495786" y="22.94" style="stroke: #000000; stroke-width: 0.8"/>
      </g>
     </g>
     <g id="text_1">
      <!-- $\mathdefault{0.0}$ -->
      <g transform="translate(76.151008 409.655411)scale(0.14994 -0.14994)">
       <defs>
        <path id="CMR17-30" d="M 2688 2038
C 2688 2430 2682 3099 2413 3613
C 2176 4063 1798 4224 1466 4224
C 1158 4224 768 4082 525 3620
C 269 3137 243 2539 243 2038
C 243 1671 250 1112 448 623
C 723 -39 1216 -128 1466 -128
C 1760 -128 2208 -7 2470 604
C 2662 1048 2688 1568 2688 2038
z
M 1466 -26
C 1056 -26 813 328 723 816
C 653 1196 653 1749 653 2109
C 653 2604 653 3015 736 3407
C 858 3954 1216 4121 1466 4121
C 1728 4121 2067 3947 2189 3420
C 2272 3054 2278 2623 2278 2109
C 2278 1691 2278 1176 2202 797
C 2067 96 1690 -26 1466 -26
z
" transform="scale(0.015625)"/>
        <path id="CMMI12-3a" d="M 1178 307
C 1178 492 1024 620 870 620
C 685 620 557 467 557 313
C 557 128 710 0 864 0
C 1050 0 1178 153 1178 307
z
" transform="scale(0.015625)"/>
       </defs>
       <use xlink:href="#CMR17-30" transform="scale(0.996264)"/>
       <use xlink:href="#CMMI12-3a" transform="translate(45.690477 0)scale(0.996264)"/>
       <use xlink:href="#CMR17-30" transform="translate(72.787654 0)scale(0.996264)"/>
      </g>
     </g>
    </g>
    <g id="xtick_2">
     <g id="line2d_3">
      <g>
       <use xlink:href="#mf199126253" x="170.122793" y="392.281821" style="stroke: #000000; stroke-width: 0.8"/>
      </g>
     </g>
     <g id="line2d_4">
      <g>
       <use xlink:href="#m9c2304fc3a" x="170.122793" y="22.94" style="stroke: #000000; stroke-width: 0.8"/>
      </g>
     </g>
     <g id="text_2">
      <!-- $\mathdefault{0.2}$ -->
      <g transform="translate(160.778015 409.655411)scale(0.14994 -0.14994)">
       <defs>
        <path id="CMR17-32" d="M 2669 990
L 2554 990
C 2490 537 2438 460 2413 422
C 2381 371 1920 371 1830 371
L 602 371
C 832 620 1280 1073 1824 1596
C 2214 1966 2669 2400 2669 3033
C 2669 3788 2067 4224 1395 4224
C 691 4224 262 3603 262 3027
C 262 2777 448 2745 525 2745
C 589 2745 781 2783 781 3007
C 781 3206 614 3264 525 3264
C 486 3264 448 3257 422 3244
C 544 3788 915 4057 1306 4057
C 1862 4057 2227 3616 2227 3033
C 2227 2477 1901 1998 1536 1583
L 262 147
L 262 0
L 2515 0
L 2669 990
z
" transform="scale(0.015625)"/>
       </defs>
       <use xlink:href="#CMR17-30" transform="scale(0.996264)"/>
       <use xlink:href="#CMMI12-3a" transform="translate(45.690477 0)scale(0.996264)"/>
       <use xlink:href="#CMR17-32" transform="translate(72.787654 0)scale(0.996264)"/>
      </g>
     </g>
    </g>
    <g id="xtick_3">
     <g id="line2d_5">
      <g>
       <use xlink:href="#mf199126253" x="254.7498" y="392.281821" style="stroke: #000000; stroke-width: 0.8"/>
      </g>
     </g>
     <g id="line2d_6">
      <g>
       <use xlink:href="#m9c2304fc3a" x="254.7498" y="22.94" style="stroke: #000000; stroke-width: 0.8"/>
      </g>
     </g>
     <g id="text_3">
      <!-- $\mathdefault{0.4}$ -->
      <g transform="translate(245.405022 409.655411)scale(0.14994 -0.14994)">
       <defs>
        <path id="CMR17-34" d="M 2150 4147
C 2150 4281 2144 4288 2029 4288
L 128 1254
L 128 1088
L 1779 1088
L 1779 460
C 1779 230 1766 166 1318 166
L 1197 166
L 1197 0
C 1402 12 1747 12 1965 12
C 2182 12 2528 12 2733 0
L 2733 166
L 2611 166
C 2163 166 2150 230 2150 460
L 2150 1088
L 2803 1088
L 2803 1254
L 2150 1254
L 2150 4147
z
M 1798 3723
L 1798 1254
L 256 1254
L 1798 3723
z
" transform="scale(0.015625)"/>
       </defs>
       <use xlink:href="#CMR17-30" transform="scale(0.996264)"/>
       <use xlink:href="#CMMI12-3a" transform="translate(45.690477 0)scale(0.996264)"/>
       <use xlink:href="#CMR17-34" transform="translate(72.787654 0)scale(0.996264)"/>
      </g>
     </g>
    </g>
    <g id="xtick_4">
     <g id="line2d_7">
      <g>
       <use xlink:href="#mf199126253" x="339.376807" y="392.281821" style="stroke: #000000; stroke-width: 0.8"/>
      </g>
     </g>
     <g id="line2d_8">
      <g>
       <use xlink:href="#m9c2304fc3a" x="339.376807" y="22.94" style="stroke: #000000; stroke-width: 0.8"/>
      </g>
     </g>
     <g id="text_4">
      <!-- $\mathdefault{0.6}$ -->
      <g transform="translate(330.032029 409.655411)scale(0.14994 -0.14994)">
       <defs>
        <path id="CMR17-36" d="M 678 2198
C 678 3712 1395 4076 1811 4076
C 1946 4076 2272 4049 2400 3782
C 2298 3782 2106 3782 2106 3558
C 2106 3385 2246 3328 2336 3328
C 2394 3328 2566 3353 2566 3571
C 2566 3987 2246 4224 1805 4224
C 1043 4224 243 3411 243 2011
C 243 257 966 -128 1478 -128
C 2099 -128 2688 431 2688 1295
C 2688 2101 2170 2688 1517 2688
C 1126 2688 838 2430 678 1979
L 678 2198
z
M 1478 25
C 691 25 691 1212 691 1450
C 691 1914 909 2585 1504 2585
C 1613 2585 1926 2585 2138 2140
C 2253 1889 2253 1624 2253 1302
C 2253 954 2253 696 2118 438
C 1978 173 1773 25 1478 25
z
" transform="scale(0.015625)"/>
       </defs>
       <use xlink:href="#CMR17-30" transform="scale(0.996264)"/>
       <use xlink:href="#CMMI12-3a" transform="translate(45.690477 0)scale(0.996264)"/>
       <use xlink:href="#CMR17-36" transform="translate(72.787654 0)scale(0.996264)"/>
      </g>
     </g>
    </g>
    <g id="xtick_5">
     <g id="line2d_9">
      <g>
       <use xlink:href="#mf199126253" x="424.003814" y="392.281821" style="stroke: #000000; stroke-width: 0.8"/>
      </g>
     </g>
     <g id="line2d_10">
      <g>
       <use xlink:href="#m9c2304fc3a" x="424.003814" y="22.94" style="stroke: #000000; stroke-width: 0.8"/>
      </g>
     </g>
     <g id="text_5">
      <!-- $\mathdefault{0.8}$ -->
      <g transform="translate(414.659035 409.655411)scale(0.14994 -0.14994)">
       <defs>
        <path id="CMR17-38" d="M 1741 2289
C 2144 2494 2554 2803 2554 3298
C 2554 3884 1990 4224 1472 4224
C 890 4224 378 3800 378 3215
C 378 3054 416 2777 666 2533
C 730 2469 998 2276 1171 2154
C 883 2006 211 1652 211 945
C 211 282 838 -128 1459 -128
C 2144 -128 2720 366 2720 1022
C 2720 1607 2330 1877 2074 2051
L 1741 2289
z
M 902 2855
C 851 2887 595 3086 595 3388
C 595 3781 998 4076 1459 4076
C 1965 4076 2336 3716 2336 3298
C 2336 2700 1670 2359 1638 2359
C 1632 2359 1626 2359 1574 2398
L 902 2855
z
M 2080 1536
C 2176 1466 2483 1253 2483 861
C 2483 385 2010 25 1472 25
C 890 25 448 443 448 951
C 448 1459 838 1884 1280 2083
L 2080 1536
z
" transform="scale(0.015625)"/>
       </defs>
       <use xlink:href="#CMR17-30" transform="scale(0.996264)"/>
       <use xlink:href="#CMMI12-3a" transform="translate(45.690477 0)scale(0.996264)"/>
       <use xlink:href="#CMR17-38" transform="translate(72.787654 0)scale(0.996264)"/>
      </g>
     </g>
    </g>
    <g id="xtick_6">
     <g id="line2d_11">
      <g>
       <use xlink:href="#mf199126253" x="508.630821" y="392.281821" style="stroke: #000000; stroke-width: 0.8"/>
      </g>
     </g>
     <g id="line2d_12">
      <g>
       <use xlink:href="#m9c2304fc3a" x="508.630821" y="22.94" style="stroke: #000000; stroke-width: 0.8"/>
      </g>
     </g>
     <g id="text_6">
      <!-- $\mathdefault{1.0}$ -->
      <g transform="translate(499.286042 409.655411)scale(0.14994 -0.14994)">
       <defs>
        <path id="CMR17-31" d="M 1702 4083
C 1702 4217 1696 4224 1606 4224
C 1357 3927 979 3833 621 3820
C 602 3820 570 3820 563 3808
C 557 3795 557 3782 557 3648
C 755 3648 1088 3686 1344 3839
L 1344 467
C 1344 243 1331 166 781 166
L 589 166
L 589 0
C 896 6 1216 12 1523 12
C 1830 12 2150 6 2458 0
L 2458 166
L 2266 166
C 1715 166 1702 236 1702 467
L 1702 4083
z
" transform="scale(0.015625)"/>
       </defs>
       <use xlink:href="#CMR17-31" transform="scale(0.996264)"/>
       <use xlink:href="#CMMI12-3a" transform="translate(45.690477 0)scale(0.996264)"/>
       <use xlink:href="#CMR17-30" transform="translate(72.787654 0)scale(0.996264)"/>
      </g>
     </g>
    </g>
   </g>
   <g id="matplotlib.axis_2">
    <g id="ytick_1">
     <g id="line2d_13">
      <defs>
       <path id="m15db78e050" d="M 0 0
L -3.5 0
" style="stroke: #000000; stroke-width: 0.8"/>
      </defs>
      <g>
       <use xlink:href="#m15db78e050" x="41.066608" y="369.416008" style="stroke: #000000; stroke-width: 0.8"/>
      </g>
     </g>
     <g id="line2d_14">
      <defs>
       <path id="m3b28ffa24e" d="M 0 0
L 3.5 0
" style="stroke: #000000; stroke-width: 0.8"/>
      </defs>
      <g>
       <use xlink:href="#m3b28ffa24e" x="553.06" y="369.416008" style="stroke: #000000; stroke-width: 0.8"/>
      </g>
     </g>
     <g id="text_7">
      <!-- $\mathdefault{10}$ -->
      <g transform="translate(19.44 374.602803)scale(0.14994 -0.14994)">
       <use xlink:href="#CMR17-31" transform="scale(0.996264)"/>
       <use xlink:href="#CMR17-30" transform="translate(45.690477 0)scale(0.996264)"/>
      </g>
     </g>
    </g>
    <g id="ytick_2">
     <g id="line2d_15">
      <g>
       <use xlink:href="#m15db78e050" x="41.066608" y="303.712786" style="stroke: #000000; stroke-width: 0.8"/>
      </g>
     </g>
     <g id="line2d_16">
      <g>
       <use xlink:href="#m3b28ffa24e" x="553.06" y="303.712786" style="stroke: #000000; stroke-width: 0.8"/>
      </g>
     </g>
     <g id="text_8">
      <!-- $\mathdefault{20}$ -->
      <g transform="translate(19.44 308.899581)scale(0.14994 -0.14994)">
       <use xlink:href="#CMR17-32" transform="scale(0.996264)"/>
       <use xlink:href="#CMR17-30" transform="translate(45.690477 0)scale(0.996264)"/>
      </g>
     </g>
    </g>
    <g id="ytick_3">
     <g id="line2d_17">
      <g>
       <use xlink:href="#m15db78e050" x="41.066608" y="238.009564" style="stroke: #000000; stroke-width: 0.8"/>
      </g>
     </g>
     <g id="line2d_18">
      <g>
       <use xlink:href="#m3b28ffa24e" x="553.06" y="238.009564" style="stroke: #000000; stroke-width: 0.8"/>
      </g>
     </g>
     <g id="text_9">
      <!-- $\mathdefault{30}$ -->
      <g transform="translate(19.44 243.196358)scale(0.14994 -0.14994)">
       <defs>
        <path id="CMR17-33" d="M 1414 2176
C 1984 2176 2234 1673 2234 1094
C 2234 322 1824 25 1453 25
C 1114 25 563 193 390 691
C 422 678 454 678 486 678
C 640 678 755 780 755 947
C 755 1132 614 1216 486 1216
C 378 1216 211 1164 211 927
C 211 335 787 -128 1466 -128
C 2176 -128 2720 432 2720 1087
C 2720 1718 2208 2176 1600 2246
C 2086 2347 2554 2776 2554 3353
C 2554 3856 2048 4224 1472 4224
C 890 4224 378 3862 378 3347
C 378 3123 544 3084 627 3084
C 762 3084 877 3167 877 3334
C 877 3500 762 3584 627 3584
C 602 3584 570 3584 544 3571
C 730 3999 1235 4076 1459 4076
C 1683 4076 2106 3966 2106 3347
C 2106 3167 2080 2851 1862 2574
C 1670 2329 1453 2316 1242 2297
C 1210 2297 1062 2284 1037 2284
C 992 2278 966 2272 966 2227
C 966 2182 973 2176 1101 2176
L 1414 2176
z
" transform="scale(0.015625)"/>
       </defs>
       <use xlink:href="#CMR17-33" transform="scale(0.996264)"/>
       <use xlink:href="#CMR17-30" transform="translate(45.690477 0)scale(0.996264)"/>
      </g>
     </g>
    </g>
    <g id="ytick_4">
     <g id="line2d_19">
      <g>
       <use xlink:href="#m15db78e050" x="41.066608" y="172.306341" style="stroke: #000000; stroke-width: 0.8"/>
      </g>
     </g>
     <g id="line2d_20">
      <g>
       <use xlink:href="#m3b28ffa24e" x="553.06" y="172.306341" style="stroke: #000000; stroke-width: 0.8"/>
      </g>
     </g>
     <g id="text_10">
      <!-- $\mathdefault{40}$ -->
      <g transform="translate(19.44 177.493136)scale(0.14994 -0.14994)">
       <use xlink:href="#CMR17-34" transform="scale(0.996264)"/>
       <use xlink:href="#CMR17-30" transform="translate(45.690477 0)scale(0.996264)"/>
      </g>
     </g>
    </g>
    <g id="ytick_5">
     <g id="line2d_21">
      <g>
       <use xlink:href="#m15db78e050" x="41.066608" y="106.603119" style="stroke: #000000; stroke-width: 0.8"/>
      </g>
     </g>
     <g id="line2d_22">
      <g>
       <use xlink:href="#m3b28ffa24e" x="553.06" y="106.603119" style="stroke: #000000; stroke-width: 0.8"/>
      </g>
     </g>
     <g id="text_11">
      <!-- $\mathdefault{50}$ -->
      <g transform="translate(19.44 111.789914)scale(0.14994 -0.14994)">
       <defs>
        <path id="CMR17-35" d="M 730 3750
C 794 3724 1056 3641 1325 3641
C 1920 3641 2246 3961 2432 4140
C 2432 4191 2432 4224 2394 4224
C 2387 4224 2374 4224 2323 4198
C 2099 4102 1837 4032 1517 4032
C 1325 4032 1037 4055 723 4191
C 653 4224 640 4224 634 4224
C 602 4224 595 4217 595 4090
L 595 2231
C 595 2113 595 2080 659 2080
C 691 2080 704 2093 736 2139
C 941 2435 1222 2560 1542 2560
C 1766 2560 2246 2415 2246 1293
C 2246 1087 2246 716 2054 422
C 1894 159 1645 25 1370 25
C 947 25 518 319 403 812
C 429 806 480 793 506 793
C 589 793 749 838 749 1036
C 749 1209 627 1280 506 1280
C 358 1280 262 1190 262 1011
C 262 454 704 -128 1382 -128
C 2042 -128 2669 441 2669 1267
C 2669 2054 2170 2662 1549 2662
C 1222 2662 947 2540 730 2304
L 730 3750
z
" transform="scale(0.015625)"/>
       </defs>
       <use xlink:href="#CMR17-35" transform="scale(0.996264)"/>
       <use xlink:href="#CMR17-30" transform="translate(45.690477 0)scale(0.996264)"/>
      </g>
     </g>
    </g>
    <g id="ytick_6">
     <g id="line2d_23">
      <g>
       <use xlink:href="#m15db78e050" x="41.066608" y="40.899897" style="stroke: #000000; stroke-width: 0.8"/>
      </g>
     </g>
     <g id="line2d_24">
      <g>
       <use xlink:href="#m3b28ffa24e" x="553.06" y="40.899897" style="stroke: #000000; stroke-width: 0.8"/>
      </g>
     </g>
     <g id="text_12">
      <!-- $\mathdefault{60}$ -->
      <g transform="translate(19.44 46.086692)scale(0.14994 -0.14994)">
       <use xlink:href="#CMR17-36" transform="scale(0.996264)"/>
       <use xlink:href="#CMR17-30" transform="translate(45.690477 0)scale(0.996264)"/>
      </g>
     </g>
    </g>
   </g>
   <g id="LineCollection_1">
    <path d="M 85.495786 360.874589
L 85.495786 347.733945
" clip-path="url(#pa99f31cf8c)" style="fill: none; stroke: #000000; stroke-width: 2"/>
    <path d="M 107.766051 345.105816
L 107.766051 331.965171
" clip-path="url(#pa99f31cf8c)" style="fill: none; stroke: #000000; stroke-width: 2"/>
    <path d="M 130.036316 329.337043
L 130.036316 316.196398
" clip-path="url(#pa99f31cf8c)" style="fill: none; stroke: #000000; stroke-width: 2"/>
    <path d="M 152.306581 313.568269
L 152.306581 300.427625
" clip-path="url(#pa99f31cf8c)" style="fill: none; stroke: #000000; stroke-width: 2"/>
    <path d="M 174.576846 297.799496
L 174.576846 284.658851
" clip-path="url(#pa99f31cf8c)" style="fill: none; stroke: #000000; stroke-width: 2"/>
    <path d="M 196.847111 282.030722
L 196.847111 268.890078
" clip-path="url(#pa99f31cf8c)" style="fill: none; stroke: #000000; stroke-width: 2"/>
    <path d="M 219.117376 266.261949
L 219.117376 253.121305
" clip-path="url(#pa99f31cf8c)" style="fill: none; stroke: #000000; stroke-width: 2"/>
    <path d="M 241.387641 250.493176
L 241.387641 237.352531
" clip-path="url(#pa99f31cf8c)" style="fill: none; stroke: #000000; stroke-width: 2"/>
    <path d="M 263.657906 234.724402
L 263.657906 221.583758
" clip-path="url(#pa99f31cf8c)" style="fill: none; stroke: #000000; stroke-width: 2"/>
    <path d="M 285.928171 218.955629
L 285.928171 205.814985
" clip-path="url(#pa99f31cf8c)" style="fill: none; stroke: #000000; stroke-width: 2"/>
    <path d="M 308.198436 375.493556
L 308.198436 136.990859
" clip-path="url(#pa99f31cf8c)" style="fill: none; stroke: #000000; stroke-width: 2"/>
    <path d="M 330.468701 187.418082
L 330.468701 174.277438
" clip-path="url(#pa99f31cf8c)" style="fill: none; stroke: #000000; stroke-width: 2"/>
    <path d="M 352.738966 171.649309
L 352.738966 158.508665
" clip-path="url(#pa99f31cf8c)" style="fill: none; stroke: #000000; stroke-width: 2"/>
    <path d="M 375.009231 155.880536
L 375.009231 142.739891
" clip-path="url(#pa99f31cf8c)" style="fill: none; stroke: #000000; stroke-width: 2"/>
    <path d="M 397.279496 140.111762
L 397.279496 126.971118
" clip-path="url(#pa99f31cf8c)" style="fill: none; stroke: #000000; stroke-width: 2"/>
    <path d="M 419.549761 124.342989
L 419.549761 111.202345
" clip-path="url(#pa99f31cf8c)" style="fill: none; stroke: #000000; stroke-width: 2"/>
    <path d="M 441.820026 108.574216
L 441.820026 95.433571
" clip-path="url(#pa99f31cf8c)" style="fill: none; stroke: #000000; stroke-width: 2"/>
    <path d="M 464.090291 92.805442
L 464.090291 79.664798
" clip-path="url(#pa99f31cf8c)" style="fill: none; stroke: #000000; stroke-width: 2"/>
    <path d="M 486.360556 77.036669
L 486.360556 63.896024
" clip-path="url(#pa99f31cf8c)" style="fill: none; stroke: #000000; stroke-width: 2"/>
    <path d="M 508.630821 61.267896
L 508.630821 48.127251
" clip-path="url(#pa99f31cf8c)" style="fill: none; stroke: #000000; stroke-width: 2"/>
   </g>
   <g id="line2d_25">
    <defs>
     <path id="mff4061ac24" d="M 2 0
L -2 -0
" style="stroke: #000000"/>
    </defs>
    <g clip-path="url(#pa99f31cf8c)">
     <use xlink:href="#mff4061ac24" x="85.495786" y="360.874589" style="stroke: #000000"/>
     <use xlink:href="#mff4061ac24" x="107.766051" y="345.105816" style="stroke: #000000"/>
     <use xlink:href="#mff4061ac24" x="130.036316" y="329.337043" style="stroke: #000000"/>
     <use xlink:href="#mff4061ac24" x="152.306581" y="313.568269" style="stroke: #000000"/>
     <use xlink:href="#mff4061ac24" x="174.576846" y="297.799496" style="stroke: #000000"/>
     <use xlink:href="#mff4061ac24" x="196.847111" y="282.030722" style="stroke: #000000"/>
     <use xlink:href="#mff4061ac24" x="219.117376" y="266.261949" style="stroke: #000000"/>
     <use xlink:href="#mff4061ac24" x="241.387641" y="250.493176" style="stroke: #000000"/>
     <use xlink:href="#mff4061ac24" x="263.657906" y="234.724402" style="stroke: #000000"/>
     <use xlink:href="#mff4061ac24" x="285.928171" y="218.955629" style="stroke: #000000"/>
     <use xlink:href="#mff4061ac24" x="308.198436" y="375.493556" style="stroke: #000000"/>
     <use xlink:href="#mff4061ac24" x="330.468701" y="187.418082" style="stroke: #000000"/>
     <use xlink:href="#mff4061ac24" x="352.738966" y="171.649309" style="stroke: #000000"/>
     <use xlink:href="#mff4061ac24" x="375.009231" y="155.880536" style="stroke: #000000"/>
     <use xlink:href="#mff4061ac24" x="397.279496" y="140.111762" style="stroke: #000000"/>
     <use xlink:href="#mff4061ac24" x="419.549761" y="124.342989" style="stroke: #000000"/>
     <use xlink:href="#mff4061ac24" x="441.820026" y="108.574216" style="stroke: #000000"/>
     <use xlink:href="#mff4061ac24" x="464.090291" y="92.805442" style="stroke: #000000"/>
     <use xlink:href="#mff4061ac24" x="486.360556" y="77.036669" style="stroke: #000000"/>
     <use xlink:href="#mff4061ac24" x="508.630821" y="61.267896" style="stroke: #000000"/>
    </g>
   </g>
   <g id="line2d_26">
    <g clip-path="url(#pa99f31cf8c)">
     <use xlink:href="#mff4061ac24" x="85.495786" y="347.733945" style="stroke: #000000"/>
     <use xlink:href="#mff4061ac24" x="107.766051" y="331.965171" style="stroke: #000000"/>
     <use xlink:href="#mff4061ac24" x="130.036316" y="316.196398" style="stroke: #000000"/>
     <use xlink:href="#mff4061ac24" x="152.306581" y="300.427625" style="stroke: #000000"/>
     <use xlink:href="#mff4061ac24" x="174.576846" y="284.658851" style="stroke: #000000"/>
     <use xlink:href="#mff4061ac24" x="196.847111" y="268.890078" style="stroke: #000000"/>
     <use xlink:href="#mff4061ac24" x="219.117376" y="253.121305" style="stroke: #000000"/>
     <use xlink:href="#mff4061ac24" x="241.387641" y="237.352531" style="stroke: #000000"/>
     <use xlink:href="#mff4061ac24" x="263.657906" y="221.583758" style="stroke: #000000"/>
     <use xlink:href="#mff4061ac24" x="285.928171" y="205.814985" style="stroke: #000000"/>
     <use xlink:href="#mff4061ac24" x="308.198436" y="136.990859" style="stroke: #000000"/>
     <use xlink:href="#mff4061ac24" x="330.468701" y="174.277438" style="stroke: #000000"/>
     <use xlink:href="#mff4061ac24" x="352.738966" y="158.508665" style="stroke: #000000"/>
     <use xlink:href="#mff4061ac24" x="375.009231" y="142.739891" style="stroke: #000000"/>
     <use xlink:href="#mff4061ac24" x="397.279496" y="126.971118" style="stroke: #000000"/>
     <use xlink:href="#mff4061ac24" x="419.549761" y="111.202345" style="stroke: #000000"/>
     <use xlink:href="#mff4061ac24" x="441.820026" y="95.433571" style="stroke: #000000"/>
     <use xlink:href="#mff4061ac24" x="464.090291" y="79.664798" style="stroke: #000000"/>
     <use xlink:href="#mff4061ac24" x="486.360556" y="63.896024" style="stroke: #000000"/>
     <use xlink:href="#mff4061ac24" x="508.630821" y="48.127251" style="stroke: #000000"/>
    </g>
   </g>
   <g id="line2d_27">
    <path d="M 85.495786 354.312434
L 508.630821 54.708463
" clip-path="url(#pa99f31cf8c)" style="fill: none; stroke: #ff0000; stroke-width: 2; stroke-linecap: square"/>
   </g>
   <g id="line2d_28">
    <path d="M 64.339035 369.292633
L 85.495786 354.312434
" clip-path="url(#pa99f31cf8c)" style="fill: none; stroke-dasharray: 7.4,3.2; stroke-dashoffset: 0; stroke: #ff0000; stroke-width: 2"/>
   </g>
   <g id="line2d_29">
    <path d="M 508.630821 54.708463
L 529.787573 39.728265
" clip-path="url(#pa99f31cf8c)" style="fill: none; stroke-dasharray: 7.4,3.2; stroke-dashoffset: 0; stroke: #ff0000; stroke-width: 2"/>
   </g>
   <g id="line2d_30">
    <path d="M 85.495786 354.304267
L 107.766051 338.535494
L 130.036316 322.76672
L 152.306581 306.997947
L 174.576846 291.229174
L 196.847111 275.4604
L 219.117376 259.691627
L 241.387641 243.922854
L 263.657906 228.15408
L 285.928171 212.385307
L 308.198436 256.242208
L 330.468701 180.84776
L 352.738966 165.078987
L 375.009231 149.310213
L 397.279496 133.54144
L 419.549761 117.772667
L 441.820026 102.003893
L 464.090291 86.23512
L 486.360556 70.466347
L 508.630821 54.697573
" clip-path="url(#pa99f31cf8c)" style="fill: none; stroke: #000000; stroke-width: 2; stroke-linecap: square"/>
    <defs>
     <path id="m29cb35ec51" d="M 0 3
C 0.795609 3 1.55874 2.683901 2.12132 2.12132
C 2.683901 1.55874 3 0.795609 3 0
C 3 -0.795609 2.683901 -1.55874 2.12132 -2.12132
C 1.55874 -2.683901 0.795609 -3 0 -3
C -0.795609 -3 -1.55874 -2.683901 -2.12132 -2.12132
C -2.683901 -1.55874 -3 -0.795609 -3 0
C -3 0.795609 -2.683901 1.55874 -2.12132 2.12132
C -1.55874 2.683901 -0.795609 3 0 3
z
" style="stroke: #000000"/>
    </defs>
    <g clip-path="url(#pa99f31cf8c)">
     <use xlink:href="#m29cb35ec51" x="85.495786" y="354.304267" style="stroke: #000000"/>
     <use xlink:href="#m29cb35ec51" x="107.766051" y="338.535494" style="stroke: #000000"/>
     <use xlink:href="#m29cb35ec51" x="130.036316" y="322.76672" style="stroke: #000000"/>
     <use xlink:href="#m29cb35ec51" x="152.306581" y="306.997947" style="stroke: #000000"/>
     <use xlink:href="#m29cb35ec51" x="174.576846" y="291.229174" style="stroke: #000000"/>
     <use xlink:href="#m29cb35ec51" x="196.847111" y="275.4604" style="stroke: #000000"/>
     <use xlink:href="#m29cb35ec51" x="219.117376" y="259.691627" style="stroke: #000000"/>
     <use xlink:href="#m29cb35ec51" x="241.387641" y="243.922854" style="stroke: #000000"/>
     <use xlink:href="#m29cb35ec51" x="263.657906" y="228.15408" style="stroke: #000000"/>
     <use xlink:href="#m29cb35ec51" x="285.928171" y="212.385307" style="stroke: #000000"/>
     <use xlink:href="#m29cb35ec51" x="308.198436" y="256.242208" style="stroke: #000000"/>
     <use xlink:href="#m29cb35ec51" x="330.468701" y="180.84776" style="stroke: #000000"/>
     <use xlink:href="#m29cb35ec51" x="352.738966" y="165.078987" style="stroke: #000000"/>
     <use xlink:href="#m29cb35ec51" x="375.009231" y="149.310213" style="stroke: #000000"/>
     <use xlink:href="#m29cb35ec51" x="397.279496" y="133.54144" style="stroke: #000000"/>
     <use xlink:href="#m29cb35ec51" x="419.549761" y="117.772667" style="stroke: #000000"/>
     <use xlink:href="#m29cb35ec51" x="441.820026" y="102.003893" style="stroke: #000000"/>
     <use xlink:href="#m29cb35ec51" x="464.090291" y="86.23512" style="stroke: #000000"/>
     <use xlink:href="#m29cb35ec51" x="486.360556" y="70.466347" style="stroke: #000000"/>
     <use xlink:href="#m29cb35ec51" x="508.630821" y="54.697573" style="stroke: #000000"/>
    </g>
   </g>
   <g id="patch_3">
    <path d="M 41.066608 392.281821
L 41.066608 22.94
" style="fill: none; stroke: #000000; stroke-width: 0.8; stroke-linejoin: miter; stroke-linecap: square"/>
   </g>
   <g id="patch_4">
    <path d="M 553.06 392.281821
L 553.06 22.94
" style="fill: none; stroke: #000000; stroke-width: 0.8; stroke-linejoin: miter; stroke-linecap: square"/>
   </g>
   <g id="patch_5">
    <path d="M 41.066608 392.281821
L 553.06 392.281821
" style="fill: none; stroke: #000000; stroke-width: 0.8; stroke-linejoin: miter; stroke-linecap: square"/>
   </g>
   <g id="patch_6">
    <path d="M 41.066608 22.94
L 553.06 22.94
" style="fill: none; stroke: #000000; stroke-width: 0.8; stroke-linejoin: miter; stroke-linecap: square"/>
   </g>
  </g>
 </g>
 <defs>
  <clipPath id="pa99f31cf8c">
   <rect x="41.066608" y="22.94" width="511.993392" height="369.341821"/>
  </clipPath>
 </defs>
</svg>
