<?xml version="1.0" encoding="utf-8" standalone="no"?>
<!DOCTYPE svg PUBLIC "-//W3C//DTD SVG 1.1//EN"
  "http://www.w3.org/Graphics/SVG/1.1/DTD/svg11.dtd">
<!-- Created with matplotlib (https://matplotlib.org/) -->
<svg height="432pt" version="1.1" viewBox="0 0 1152 432" width="1152pt" xmlns="http://www.w3.org/2000/svg" xmlns:xlink="http://www.w3.org/1999/xlink">
 <defs>
  <style type="text/css">
*{stroke-linecap:butt;stroke-linejoin:round;}
  </style>
 </defs>
 <g id="figure_1">
  <g id="patch_1">
   <path d="M 0 432
L 1152 432
L 1152 0
L 0 0
z
" style="fill:none;"/>
  </g>
  <g id="axes_1">
   <g id="patch_2">
    <path d="M 65.070922 372.340456
L 562.78 372.340456
L 562.78 22.94
L 65.070922 22.94
z
" style="fill:none;"/>
   </g>
   <g id="matplotlib.axis_1">
    <g id="xtick_1">
     <g id="line2d_1">
      <defs>
       <path d="M 0 0
L 0 3.5
" id="mb09f15d08e" style="stroke:#000000;stroke-width:0.8;"/>
      </defs>
      <g>
       <use style="stroke:#000000;stroke-width:0.8;" x="132.940342" xlink:href="#mb09f15d08e" y="372.340456"/>
      </g>
     </g>
     <g id="line2d_2">
      <defs>
       <path d="M 0 0
L 0 -3.5
" id="m29a8113572" style="stroke:#000000;stroke-width:0.8;"/>
      </defs>
      <g>
       <use style="stroke:#000000;stroke-width:0.8;" x="132.940342" xlink:href="#m29a8113572" y="22.94"/>
      </g>
     </g>
     <g id="text_1">
      <!-- $-4$ -->
      <defs>
       <path d="M 65.90625 23
C 67.59375 23 69.40625 23 69.40625 25
C 69.40625 27 67.59375 27 65.90625 27
L 11.796875 27
C 10.09375 27 8.296875 27 8.296875 25
C 8.296875 23 10.09375 23 11.796875 23
z
" id="CMSY10-0"/>
       <path d="M 33.59375 64.796875
C 33.59375 66.890625 33.5 67 31.703125 67
L 2 19.59375
L 2 17
L 27.796875 17
L 27.796875 7.1875
C 27.796875 3.59375 27.59375 2.59375 20.59375 2.59375
L 18.703125 2.59375
L 18.703125 0
C 21.90625 0.1875 27.296875 0.1875 30.703125 0.1875
C 34.09375 0.1875 39.5 0.1875 42.703125 0
L 42.703125 2.59375
L 40.796875 2.59375
C 33.796875 2.59375 33.59375 3.59375 33.59375 7.1875
L 33.59375 17
L 43.796875 17
L 43.796875 19.59375
L 33.59375 19.59375
z
M 28.09375 58.171875
L 28.09375 19.59375
L 4 19.59375
z
" id="CMR17-52"/>
      </defs>
      <g transform="translate(123.474458 389.714046)scale(0.14994 -0.14994)">
       <use transform="scale(0.996264)" xlink:href="#CMSY10-0"/>
       <use transform="translate(77.487468 0)scale(0.996264)" xlink:href="#CMR17-52"/>
      </g>
     </g>
    </g>
    <g id="xtick_2">
     <g id="line2d_3">
      <g>
       <use style="stroke:#000000;stroke-width:0.8;" x="223.432901" xlink:href="#mb09f15d08e" y="372.340456"/>
      </g>
     </g>
     <g id="line2d_4">
      <g>
       <use style="stroke:#000000;stroke-width:0.8;" x="223.432901" xlink:href="#m29a8113572" y="22.94"/>
      </g>
     </g>
     <g id="text_2">
      <!-- $-2$ -->
      <defs>
       <path d="M 41.703125 15.46875
L 39.90625 15.46875
C 38.90625 8.390625 38.09375 7.1875 37.703125 6.59375
C 37.203125 5.796875 30 5.796875 28.59375 5.796875
L 9.40625 5.796875
C 13 9.6875 20 16.765625 28.5 24.9375
C 34.59375 30.71875 41.703125 37.5 41.703125 47.390625
C 41.703125 59.1875 32.296875 66 21.796875 66
C 10.796875 66 4.09375 56.296875 4.09375 47.296875
C 4.09375 43.390625 7 42.890625 8.203125 42.890625
C 9.203125 42.890625 12.203125 43.484375 12.203125 46.984375
C 12.203125 50.09375 9.59375 51 8.203125 51
C 7.59375 51 7 50.890625 6.59375 50.6875
C 8.5 59.1875 14.296875 63.390625 20.40625 63.390625
C 29.09375 63.390625 34.796875 56.5 34.796875 47.390625
C 34.796875 38.703125 29.703125 31.21875 24 24.734375
L 4.09375 2.296875
L 4.09375 0
L 39.296875 0
z
" id="CMR17-50"/>
      </defs>
      <g transform="translate(213.967018 389.714046)scale(0.14994 -0.14994)">
       <use transform="scale(0.996264)" xlink:href="#CMSY10-0"/>
       <use transform="translate(77.487468 0)scale(0.996264)" xlink:href="#CMR17-50"/>
      </g>
     </g>
    </g>
    <g id="xtick_3">
     <g id="line2d_5">
      <g>
       <use style="stroke:#000000;stroke-width:0.8;" x="313.925461" xlink:href="#mb09f15d08e" y="372.340456"/>
      </g>
     </g>
     <g id="line2d_6">
      <g>
       <use style="stroke:#000000;stroke-width:0.8;" x="313.925461" xlink:href="#m29a8113572" y="22.94"/>
      </g>
     </g>
     <g id="text_3">
      <!-- $0$ -->
      <defs>
       <path d="M 42 31.84375
C 42 37.96875 41.90625 48.421875 37.703125 56.453125
C 34 63.484375 28.09375 66 22.90625 66
C 18.09375 66 12 63.78125 8.203125 56.5625
C 4.203125 49.015625 3.796875 39.671875 3.796875 31.84375
C 3.796875 26.109375 3.90625 17.375 7 9.734375
C 11.296875 -0.609375 19 -2 22.90625 -2
C 27.5 -2 34.5 -0.109375 38.59375 9.4375
C 41.59375 16.375 42 24.5 42 31.84375
z
M 22.90625 -0.40625
C 16.5 -0.40625 12.703125 5.125 11.296875 12.75
C 10.203125 18.6875 10.203125 27.328125 10.203125 32.953125
C 10.203125 40.6875 10.203125 47.109375 11.5 53.234375
C 13.40625 61.78125 19 64.390625 22.90625 64.390625
C 27 64.390625 32.296875 61.671875 34.203125 53.4375
C 35.5 47.71875 35.59375 40.984375 35.59375 32.953125
C 35.59375 26.421875 35.59375 18.375 34.40625 12.453125
C 32.296875 1.5 26.40625 -0.40625 22.90625 -0.40625
z
" id="CMR17-48"/>
      </defs>
      <g transform="translate(310.268809 389.714046)scale(0.14994 -0.14994)">
       <use transform="scale(0.996264)" xlink:href="#CMR17-48"/>
      </g>
     </g>
    </g>
    <g id="xtick_4">
     <g id="line2d_7">
      <g>
       <use style="stroke:#000000;stroke-width:0.8;" x="404.418021" xlink:href="#mb09f15d08e" y="372.340456"/>
      </g>
     </g>
     <g id="line2d_8">
      <g>
       <use style="stroke:#000000;stroke-width:0.8;" x="404.418021" xlink:href="#m29a8113572" y="22.94"/>
      </g>
     </g>
     <g id="text_4">
      <!-- $2$ -->
      <g transform="translate(400.761369 389.714046)scale(0.14994 -0.14994)">
       <use transform="scale(0.996264)" xlink:href="#CMR17-50"/>
      </g>
     </g>
    </g>
    <g id="xtick_5">
     <g id="line2d_9">
      <g>
       <use style="stroke:#000000;stroke-width:0.8;" x="494.91058" xlink:href="#mb09f15d08e" y="372.340456"/>
      </g>
     </g>
     <g id="line2d_10">
      <g>
       <use style="stroke:#000000;stroke-width:0.8;" x="494.91058" xlink:href="#m29a8113572" y="22.94"/>
      </g>
     </g>
     <g id="text_5">
      <!-- $4$ -->
      <g transform="translate(491.253928 389.714046)scale(0.14994 -0.14994)">
       <use transform="scale(0.996264)" xlink:href="#CMR17-52"/>
      </g>
     </g>
    </g>
    <g id="text_6">
     <!-- $x$ -->
     <defs>
      <path d="M 47.40625 41
C 44.203125 40.390625 43 37.984375 43 36.09375
C 43 33.6875 44.90625 32.890625 46.296875 32.890625
C 49.296875 32.890625 51.40625 35.484375 51.40625 38.1875
C 51.40625 42.09375 46.59375 44 42.40625 44
C 36.296875 44 32.90625 38.296875 32 36.390625
C 29.703125 43.59375 23.5 44 21.703125 44
C 11.5 44 6.09375 31.140625 6.09375 28.890625
C 6.09375 28.484375 6.5 27.96875 7.203125 27.96875
C 8 27.96875 8.203125 28.578125 8.40625 28.984375
C 11.796875 40.1875 18.5 41.984375 21.40625 41.984375
C 25.90625 41.984375 26.796875 38.09375 26.796875 35.6875
C 26.796875 33.484375 26.203125 31.140625 25 26.21875
L 21.59375 12.15625
C 20.09375 6.09375 17.203125 1 11.90625 1
C 11.40625 1 8.90625 1 6.796875 1.96875
C 10.40625 2.59375 11.203125 5.59375 11.203125 6.796875
C 11.203125 8.796875 9.703125 10 7.796875 10
C 5.40625 10 2.796875 7.890625 2.796875 4.6875
C 2.796875 0.890625 7.5 -1 11.796875 -1
C 16.59375 -1 20 2.390625 22.09375 6.484375
C 23.703125 1 28.703125 -1 32.40625 -1
C 42.59375 -1 48 11.734375 48 14
C 48 14.515625 47.59375 14.921875 47 14.921875
C 46.09375 14.921875 46 14.40625 45.703125 13.59375
C 43 4.6875 37.203125 1 32.703125 1
C 29.203125 1 27.296875 3.1875 27.296875 7.296875
C 27.296875 9.484375 27.703125 11.125 29.296875 17.90625
L 32.796875 31.859375
C 34.296875 37.890625 37.703125 41.984375 42.296875 41.984375
C 42.5 41.984375 45.296875 41.984375 47.40625 41
z
" id="CMMI12-120"/>
     </defs>
     <g transform="translate(308.936396 409.071936)scale(0.18 -0.18)">
      <use transform="scale(0.996264)" xlink:href="#CMMI12-120"/>
     </g>
    </g>
   </g>
   <g id="matplotlib.axis_2">
    <g id="ytick_1">
     <g id="line2d_11">
      <defs>
       <path d="M 0 0
L -3.5 0
" id="m9ebf9a1665" style="stroke:#000000;stroke-width:0.8;"/>
      </defs>
      <g>
       <use style="stroke:#000000;stroke-width:0.8;" x="65.070922" xlink:href="#m9ebf9a1665" y="356.458618"/>
      </g>
     </g>
     <g id="line2d_12">
      <defs>
       <path d="M 0 0
L 3.5 0
" id="mc7ac870f61" style="stroke:#000000;stroke-width:0.8;"/>
      </defs>
      <g>
       <use style="stroke:#000000;stroke-width:0.8;" x="562.78" xlink:href="#mc7ac870f61" y="356.458618"/>
      </g>
     </g>
     <g id="text_7">
      <!-- $0.0$ -->
      <defs>
       <path d="M 18.40625 4.796875
C 18.40625 7.6875 16 9.6875 13.59375 9.6875
C 10.703125 9.6875 8.703125 7.296875 8.703125 4.890625
C 8.703125 2 11.09375 0 13.5 0
C 16.40625 0 18.40625 2.390625 18.40625 4.796875
z
" id="CMMI12-58"/>
      </defs>
      <g transform="translate(39.381364 361.645412)scale(0.14994 -0.14994)">
       <use transform="scale(0.996264)" xlink:href="#CMR17-48"/>
       <use transform="translate(45.690477 0)scale(0.996264)" xlink:href="#CMMI12-58"/>
       <use transform="translate(72.787654 0)scale(0.996264)" xlink:href="#CMR17-48"/>
      </g>
     </g>
    </g>
    <g id="ytick_2">
     <g id="line2d_13">
      <g>
       <use style="stroke:#000000;stroke-width:0.8;" x="65.070922" xlink:href="#m9ebf9a1665" y="289.308098"/>
      </g>
     </g>
     <g id="line2d_14">
      <g>
       <use style="stroke:#000000;stroke-width:0.8;" x="562.78" xlink:href="#mc7ac870f61" y="289.308098"/>
      </g>
     </g>
     <g id="text_8">
      <!-- $0.1$ -->
      <defs>
       <path d="M 26.59375 63.796875
C 26.59375 65.890625 26.5 66 25.09375 66
C 21.203125 61.359375 15.296875 59.890625 9.703125 59.6875
C 9.40625 59.6875 8.90625 59.6875 8.796875 59.5
C 8.703125 59.296875 8.703125 59.09375 8.703125 57
C 11.796875 57 17 57.59375 21 59.984375
L 21 7.296875
C 21 3.796875 20.796875 2.59375 12.203125 2.59375
L 9.203125 2.59375
L 9.203125 0
C 14 0.09375 19 0.1875 23.796875 0.1875
C 28.59375 0.1875 33.59375 0.09375 38.40625 0
L 38.40625 2.59375
L 35.40625 2.59375
C 26.796875 2.59375 26.59375 3.6875 26.59375 7.296875
z
" id="CMR17-49"/>
      </defs>
      <g transform="translate(39.381364 294.494893)scale(0.14994 -0.14994)">
       <use transform="scale(0.996264)" xlink:href="#CMR17-48"/>
       <use transform="translate(45.690477 0)scale(0.996264)" xlink:href="#CMMI12-58"/>
       <use transform="translate(72.787654 0)scale(0.996264)" xlink:href="#CMR17-49"/>
      </g>
     </g>
    </g>
    <g id="ytick_3">
     <g id="line2d_15">
      <g>
       <use style="stroke:#000000;stroke-width:0.8;" x="65.070922" xlink:href="#m9ebf9a1665" y="222.157578"/>
      </g>
     </g>
     <g id="line2d_16">
      <g>
       <use style="stroke:#000000;stroke-width:0.8;" x="562.78" xlink:href="#mc7ac870f61" y="222.157578"/>
      </g>
     </g>
     <g id="text_9">
      <!-- $0.2$ -->
      <g transform="translate(39.381364 227.344373)scale(0.14994 -0.14994)">
       <use transform="scale(0.996264)" xlink:href="#CMR17-48"/>
       <use transform="translate(45.690477 0)scale(0.996264)" xlink:href="#CMMI12-58"/>
       <use transform="translate(72.787654 0)scale(0.996264)" xlink:href="#CMR17-50"/>
      </g>
     </g>
    </g>
    <g id="ytick_4">
     <g id="line2d_17">
      <g>
       <use style="stroke:#000000;stroke-width:0.8;" x="65.070922" xlink:href="#m9ebf9a1665" y="155.007058"/>
      </g>
     </g>
     <g id="line2d_18">
      <g>
       <use style="stroke:#000000;stroke-width:0.8;" x="562.78" xlink:href="#mc7ac870f61" y="155.007058"/>
      </g>
     </g>
     <g id="text_10">
      <!-- $0.3$ -->
      <defs>
       <path d="M 22.09375 34
C 31 34 34.90625 26.140625 34.90625 17.09375
C 34.90625 5.03125 28.5 0.390625 22.703125 0.390625
C 17.40625 0.390625 8.796875 3.015625 6.09375 10.796875
C 6.59375 10.59375 7.09375 10.59375 7.59375 10.59375
C 10 10.59375 11.796875 12.1875 11.796875 14.796875
C 11.796875 17.6875 9.59375 19 7.59375 19
C 5.90625 19 3.296875 18.1875 3.296875 14.484375
C 3.296875 5.234375 12.296875 -2 22.90625 -2
C 34 -2 42.5 6.75 42.5 16.984375
C 42.5 26.84375 34.5 34 25 35.09375
C 32.59375 36.671875 39.90625 43.375 39.90625 52.390625
C 39.90625 60.25 32 66 23 66
C 13.90625 66 5.90625 60.34375 5.90625 52.296875
C 5.90625 48.796875 8.5 48.1875 9.796875 48.1875
C 11.90625 48.1875 13.703125 49.484375 13.703125 52.09375
C 13.703125 54.6875 11.90625 56 9.796875 56
C 9.40625 56 8.90625 56 8.5 55.796875
C 11.40625 62.484375 19.296875 63.6875 22.796875 63.6875
C 26.296875 63.6875 32.90625 61.96875 32.90625 52.296875
C 32.90625 49.484375 32.5 44.546875 29.09375 40.21875
C 26.09375 36.390625 22.703125 36.1875 19.40625 35.890625
C 18.90625 35.890625 16.59375 35.6875 16.203125 35.6875
C 15.5 35.59375 15.09375 35.5 15.09375 34.796875
C 15.09375 34.09375 15.203125 34 17.203125 34
z
" id="CMR17-51"/>
      </defs>
      <g transform="translate(39.381364 160.193853)scale(0.14994 -0.14994)">
       <use transform="scale(0.996264)" xlink:href="#CMR17-48"/>
       <use transform="translate(45.690477 0)scale(0.996264)" xlink:href="#CMMI12-58"/>
       <use transform="translate(72.787654 0)scale(0.996264)" xlink:href="#CMR17-51"/>
      </g>
     </g>
    </g>
    <g id="ytick_5">
     <g id="line2d_19">
      <g>
       <use style="stroke:#000000;stroke-width:0.8;" x="65.070922" xlink:href="#m9ebf9a1665" y="87.856538"/>
      </g>
     </g>
     <g id="line2d_20">
      <g>
       <use style="stroke:#000000;stroke-width:0.8;" x="562.78" xlink:href="#mc7ac870f61" y="87.856538"/>
      </g>
     </g>
     <g id="text_11">
      <!-- $0.4$ -->
      <g transform="translate(39.381364 93.043333)scale(0.14994 -0.14994)">
       <use transform="scale(0.996264)" xlink:href="#CMR17-48"/>
       <use transform="translate(45.690477 0)scale(0.996264)" xlink:href="#CMMI12-58"/>
       <use transform="translate(72.787654 0)scale(0.996264)" xlink:href="#CMR17-52"/>
      </g>
     </g>
    </g>
    <g id="text_12">
     <!-- $p$ -->
     <defs>
      <path d="M 4.296875 -12.40625
C 3.59375 -15.328125 3.203125 -16.109375 -0.90625 -16.109375
C -2.109375 -16.109375 -3.109375 -16.109375 -3.109375 -18
C -3.109375 -18.203125 -3 -19 -1.90625 -19
C -0.609375 -19 0.796875 -18.8125 2.09375 -18.8125
L 6.40625 -18.8125
C 8.5 -18.8125 13.59375 -19 15.703125 -19
C 16.296875 -19 17.5 -19 17.5 -17.203125
C 17.5 -16.109375 16.796875 -16.109375 15.09375 -16.109375
C 10.5 -16.109375 10.203125 -15.421875 10.203125 -14.640625
C 10.203125 -13.484375 14.703125 3.390625 15.296875 5.6875
C 16.40625 2.890625 19.09375 -1 24.296875 -1
C 35.59375 -1 47.796875 13.65625 47.796875 28.328125
C 47.796875 37.5 42.59375 44 35.09375 44
C 28.703125 44 23.296875 37.796875 22.203125 36.40625
C 21.40625 41.390625 17.5 44 13.5 44
C 10.59375 44 8.296875 42.59375 6.40625 38.796875
C 4.59375 35.203125 3.203125 29.125 3.203125 28.71875
C 3.203125 28.328125 3.59375 27.828125 4.296875 27.828125
C 5.09375 27.828125 5.203125 27.921875 5.796875 30.21875
C 7.296875 36.109375 9.203125 41.984375 13.203125 41.984375
C 15.5 41.984375 16.296875 40.390625 16.296875 37.40625
C 16.296875 35.015625 16 34.015625 15.59375 32.21875
z
M 21.59375 31.125
C 22.296875 33.90625 25.09375 36.8125 26.703125 38.203125
C 27.796875 39.203125 31.09375 41.984375 34.90625 41.984375
C 39.296875 41.984375 41.296875 37.609375 41.296875 32.421875
C 41.296875 27.625 38.5 16.359375 36 11.171875
C 33.5 5.78125 28.90625 1 24.296875 1
C 17.5 1 16.40625 9.578125 16.40625 9.96875
C 16.40625 10.265625 16.59375 11.0625 16.703125 11.5625
z
" id="CMMI12-112"/>
     </defs>
     <g transform="translate(31.8933 202.046579)rotate(-90)scale(0.18 -0.18)">
      <use transform="scale(0.996264)" xlink:href="#CMMI12-112"/>
     </g>
    </g>
   </g>
   <g id="line2d_21">
    <path clip-path="url(#p382399413b)" d="M 87.694062 356.457619
L 135.976671 356.341343
L 149.642414 356.091106
L 158.737826 355.711347
L 165.70645 355.20622
L 171.498553 354.569303
L 176.476141 353.803584
L 180.91072 352.89994
L 184.938042 351.853835
L 188.648608 350.660574
L 192.087669 349.323134
L 195.345727 347.818758
L 198.468032 346.130645
L 201.454585 344.262591
L 204.350637 342.188529
L 207.201438 339.869187
L 209.961737 337.337331
L 212.722036 334.50094
L 215.437084 331.392092
L 218.152132 327.945933
L 220.912432 324.076041
L 223.672731 319.817529
L 226.478281 315.073076
L 229.329081 309.806489
L 232.225133 303.983345
L 235.211686 297.469648
L 238.288741 290.214434
L 241.501548 282.053338
L 244.850107 272.925009
L 248.37967 262.646198
L 252.180738 250.878836
L 256.389063 237.108015
L 261.3214 220.174073
L 268.380526 195.046508
L 277.475938 162.79878
L 282.001018 147.597751
L 285.666333 136.036573
L 288.87914 126.621365
L 291.729941 118.935718
L 294.309237 112.596419
L 296.70753 107.277847
L 298.924819 102.892119
L 300.961105 99.340935
L 302.861639 96.45719
L 304.626421 94.165178
L 306.3007 92.343711
L 307.884479 90.943888
L 309.377755 89.916548
L 310.78053 89.213143
L 312.138054 88.775752
L 313.450328 88.581572
L 314.762601 88.61265
L 316.074874 88.868908
L 317.387148 89.349698
L 318.744672 90.082053
L 320.192697 91.124413
L 321.685974 92.478402
L 323.269752 94.219215
L 324.944032 96.393729
L 326.754064 99.120961
L 328.699849 102.474576
L 330.781386 106.526032
L 332.998675 111.34194
L 335.396968 117.094576
L 338.021515 123.985001
L 340.917566 132.235523
L 344.130373 142.076389
L 347.840939 154.178812
L 352.411271 169.88316
L 359.515647 195.209001
L 368.249052 226.158686
L 373.226641 242.96957
L 377.480216 256.567995
L 381.326535 268.130702
L 384.901348 278.182617
L 388.249908 286.952812
L 391.462715 294.760807
L 394.585021 301.772367
L 397.616825 308.038471
L 400.558127 313.614793
L 403.454178 318.633983
L 406.304979 323.133704
L 409.110529 327.152844
L 411.916079 330.786151
L 414.721629 334.055305
L 417.527179 336.983184
L 420.332729 339.593388
L 423.183529 341.944889
L 426.079581 344.048802
L 429.066134 345.944745
L 432.143189 347.635966
L 435.355996 349.148372
L 438.749806 350.498078
L 442.32462 351.680365
L 446.170938 352.718093
L 450.379263 353.620748
L 455.040096 354.389568
L 460.33444 355.032
L 466.48855 355.548389
L 473.954933 355.943873
L 483.683856 356.223507
L 497.937859 356.390005
L 526.400615 356.454258
L 540.15686 356.457619
L 540.15686 356.457619
" style="fill:none;stroke:#000000;stroke-linecap:square;stroke-width:2;"/>
   </g>
   <g id="line2d_22">
    <path clip-path="url(#p382399413b)" d="M 157.392172 354.630137
L 160.715491 354.630137
L 164.038809 356.458618
L 167.362127 354.630137
L 170.685446 352.801657
L 174.008764 356.458618
L 177.332083 355.544377
L 180.655401 352.801657
L 183.978719 351.887417
L 187.302038 350.973176
L 190.625356 352.801657
L 193.948674 347.316216
L 197.271993 345.487735
L 200.595311 349.144696
L 203.91863 342.745015
L 207.241948 333.602613
L 210.565266 340.002294
L 213.888585 327.202932
L 217.211903 332.688373
L 220.535222 326.288691
L 223.85854 321.717491
L 227.181858 319.88901
L 230.505177 315.317809
L 233.828495 296.118765
L 237.151813 285.147883
L 240.475132 292.461805
L 243.79845 280.576682
L 247.121769 260.463398
L 250.445087 242.178594
L 253.768405 255.892197
L 257.091724 231.207712
L 260.415042 212.922908
L 263.73836 241.264354
L 267.061679 205.608987
L 270.384997 174.524821
L 273.708316 170.86786
L 277.031634 161.725458
L 280.354952 160.811218
L 283.678271 147.097615
L 287.001589 120.58465
L 290.324908 111.442248
L 293.648226 112.356488
L 296.971544 110.528008
L 300.294863 104.128326
L 303.618181 93.157444
L 306.941499 57.502077
L 310.264818 66.644479
L 313.588136 73.9584
L 316.911455 111.442248
L 320.234773 104.128326
L 323.558091 59.330557
L 326.88141 113.270728
L 330.204728 104.128326
L 333.528047 126.070091
L 336.851365 134.298253
L 340.174683 152.583056
L 343.498002 176.353301
L 346.82132 166.296659
L 350.144638 158.982738
L 353.467957 180.010262
L 356.791275 191.895384
L 360.114594 190.981144
L 363.437912 187.324183
L 366.76123 211.094428
L 370.084549 231.207712
L 373.407867 240.350114
L 376.731185 251.320996
L 380.054504 256.806437
L 383.377822 257.720678
L 386.701141 288.804844
L 390.024459 291.547564
L 393.347777 294.290285
L 396.671096 304.346927
L 399.994414 313.489329
L 403.317733 313.489329
L 406.641051 331.774133
L 409.964369 323.545971
L 413.287688 340.002294
L 416.611006 336.345333
L 419.934324 329.031412
L 423.257643 346.401976
L 426.580961 344.573495
L 429.90428 349.144696
L 433.227598 350.973176
L 436.550916 350.973176
L 439.874235 353.715897
L 443.197553 351.887417
L 446.520871 354.630137
L 449.84419 355.544377
L 453.167508 352.801657
L 456.490827 355.544377
L 459.814145 355.544377
L 463.137463 354.630137
L 466.460782 356.458618
L 469.7841 355.544377
L 473.107419 356.458618
L 476.430737 355.544377
L 479.754055 356.458618
L 483.077374 354.630137
L 486.400692 355.544377
" style="fill:none;stroke:#ff0000;stroke-linecap:square;stroke-width:2;"/>
   </g>
   <g id="line2d_23">
    <path clip-path="url(#p382399413b)" d="M 157.958537 350.853263
L 161.210761 355.524392
L 164.462984 355.524392
L 167.715208 356.458618
L 170.967431 354.590166
L 174.219655 356.458618
L 177.471878 353.65594
L 180.724102 355.524392
L 183.976326 352.721714
L 187.228549 352.721714
L 190.480773 352.721714
L 193.732996 346.182134
L 196.98522 346.182134
L 200.237443 349.919037
L 203.489667 345.247908
L 206.74189 342.44523
L 209.994114 334.971424
L 213.246338 334.971424
L 216.498561 335.90565
L 219.750785 308.813101
L 223.003008 319.089585
L 226.255232 328.431843
L 229.507455 310.681552
L 232.759679 286.391681
L 236.011902 299.470843
L 239.264126 287.325907
L 242.516349 272.378294
L 245.768573 261.167584
L 249.020797 261.167584
L 252.27302 251.825326
L 255.525244 261.167584
L 258.777467 205.114035
L 262.029691 218.193196
L 265.281914 235.943487
L 268.534138 178.021486
L 271.786361 187.363744
L 275.038585 188.29797
L 278.290809 179.889938
L 281.543032 153.731615
L 284.795256 130.375969
L 288.047479 130.375969
L 291.299703 106.086098
L 294.551926 137.849776
L 297.80415 91.138485
L 301.056373 93.941162
L 304.308597 92.072711
L 307.560821 38.821839
L 310.813044 96.74384
L 314.065268 98.612291
L 317.317491 83.664678
L 320.569715 86.467356
L 323.821938 64.980162
L 327.074162 121.967937
L 330.326385 109.823001
L 333.578609 118.231034
L 336.830832 135.047098
L 340.083056 137.849776
L 343.33528 174.284583
L 346.587503 135.981324
L 349.839727 161.205421
L 353.09195 187.363744
L 356.344174 183.626841
L 359.596397 197.640228
L 362.848621 180.824163
L 366.100844 201.377132
L 369.353068 242.483068
L 372.605292 237.811938
L 375.857515 257.430681
L 379.109739 257.430681
L 382.361962 239.68039
L 385.614186 290.128584
L 388.866409 284.523229
L 392.118633 301.339294
L 395.370856 300.405068
L 398.62308 302.27352
L 401.875304 322.826488
L 405.127527 320.958036
L 408.379751 325.629165
L 411.631974 334.037198
L 414.884198 336.839875
L 418.136421 327.497617
L 421.388645 338.708327
L 424.640868 347.116359
L 427.893092 340.576779
L 431.145315 351.787488
L 434.397539 353.65594
L 437.649763 351.787488
L 440.901986 349.919037
L 444.15421 356.458618
L 447.406433 354.590166
L 450.658657 355.524392
L 453.91088 353.65594
L 457.163104 355.524392
L 460.415327 355.524392
L 463.667551 354.590166
L 466.919775 356.458618
L 470.171998 355.524392
L 473.424222 356.458618
L 476.676445 356.458618
L 479.928669 354.590166
" style="fill:none;stroke:#008000;stroke-linecap:square;stroke-width:2;"/>
   </g>
   <g id="patch_3">
    <path d="M 65.070922 372.340456
L 65.070922 22.94
" style="fill:none;stroke:#000000;stroke-linecap:square;stroke-linejoin:miter;stroke-width:0.8;"/>
   </g>
   <g id="patch_4">
    <path d="M 562.78 372.340456
L 562.78 22.94
" style="fill:none;stroke:#000000;stroke-linecap:square;stroke-linejoin:miter;stroke-width:0.8;"/>
   </g>
   <g id="patch_5">
    <path d="M 65.070922 372.340456
L 562.78 372.340456
" style="fill:none;stroke:#000000;stroke-linecap:square;stroke-linejoin:miter;stroke-width:0.8;"/>
   </g>
   <g id="patch_6">
    <path d="M 65.070922 22.94
L 562.78 22.94
" style="fill:none;stroke:#000000;stroke-linecap:square;stroke-linejoin:miter;stroke-width:0.8;"/>
   </g>
  </g>
  <g id="axes_2">
   <g id="patch_7">
    <path d="M 631.350922 372.340456
L 1129.06 372.340456
L 1129.06 22.94
L 631.350922 22.94
z
" style="fill:none;"/>
   </g>
   <g id="matplotlib.axis_3">
    <g id="xtick_6">
     <g id="line2d_24">
      <g>
       <use style="stroke:#000000;stroke-width:0.8;" x="699.220342" xlink:href="#mb09f15d08e" y="372.340456"/>
      </g>
     </g>
     <g id="line2d_25">
      <g>
       <use style="stroke:#000000;stroke-width:0.8;" x="699.220342" xlink:href="#m29a8113572" y="22.94"/>
      </g>
     </g>
     <g id="text_13">
      <!-- $-4$ -->
      <g transform="translate(689.754458 389.714046)scale(0.14994 -0.14994)">
       <use transform="scale(0.996264)" xlink:href="#CMSY10-0"/>
       <use transform="translate(77.487468 0)scale(0.996264)" xlink:href="#CMR17-52"/>
      </g>
     </g>
    </g>
    <g id="xtick_7">
     <g id="line2d_26">
      <g>
       <use style="stroke:#000000;stroke-width:0.8;" x="789.712901" xlink:href="#mb09f15d08e" y="372.340456"/>
      </g>
     </g>
     <g id="line2d_27">
      <g>
       <use style="stroke:#000000;stroke-width:0.8;" x="789.712901" xlink:href="#m29a8113572" y="22.94"/>
      </g>
     </g>
     <g id="text_14">
      <!-- $-2$ -->
      <g transform="translate(780.247018 389.714046)scale(0.14994 -0.14994)">
       <use transform="scale(0.996264)" xlink:href="#CMSY10-0"/>
       <use transform="translate(77.487468 0)scale(0.996264)" xlink:href="#CMR17-50"/>
      </g>
     </g>
    </g>
    <g id="xtick_8">
     <g id="line2d_28">
      <g>
       <use style="stroke:#000000;stroke-width:0.8;" x="880.205461" xlink:href="#mb09f15d08e" y="372.340456"/>
      </g>
     </g>
     <g id="line2d_29">
      <g>
       <use style="stroke:#000000;stroke-width:0.8;" x="880.205461" xlink:href="#m29a8113572" y="22.94"/>
      </g>
     </g>
     <g id="text_15">
      <!-- $0$ -->
      <g transform="translate(876.548809 389.714046)scale(0.14994 -0.14994)">
       <use transform="scale(0.996264)" xlink:href="#CMR17-48"/>
      </g>
     </g>
    </g>
    <g id="xtick_9">
     <g id="line2d_30">
      <g>
       <use style="stroke:#000000;stroke-width:0.8;" x="970.698021" xlink:href="#mb09f15d08e" y="372.340456"/>
      </g>
     </g>
     <g id="line2d_31">
      <g>
       <use style="stroke:#000000;stroke-width:0.8;" x="970.698021" xlink:href="#m29a8113572" y="22.94"/>
      </g>
     </g>
     <g id="text_16">
      <!-- $2$ -->
      <g transform="translate(967.041369 389.714046)scale(0.14994 -0.14994)">
       <use transform="scale(0.996264)" xlink:href="#CMR17-50"/>
      </g>
     </g>
    </g>
    <g id="xtick_10">
     <g id="line2d_32">
      <g>
       <use style="stroke:#000000;stroke-width:0.8;" x="1061.19058" xlink:href="#mb09f15d08e" y="372.340456"/>
      </g>
     </g>
     <g id="line2d_33">
      <g>
       <use style="stroke:#000000;stroke-width:0.8;" x="1061.19058" xlink:href="#m29a8113572" y="22.94"/>
      </g>
     </g>
     <g id="text_17">
      <!-- $4$ -->
      <g transform="translate(1057.533928 389.714046)scale(0.14994 -0.14994)">
       <use transform="scale(0.996264)" xlink:href="#CMR17-52"/>
      </g>
     </g>
    </g>
    <g id="text_18">
     <!-- $x$ -->
     <g transform="translate(875.216396 409.071936)scale(0.18 -0.18)">
      <use transform="scale(0.996264)" xlink:href="#CMMI12-120"/>
     </g>
    </g>
   </g>
   <g id="matplotlib.axis_4">
    <g id="ytick_6">
     <g id="line2d_34">
      <g>
       <use style="stroke:#000000;stroke-width:0.8;" x="631.350922" xlink:href="#m9ebf9a1665" y="356.458618"/>
      </g>
     </g>
     <g id="line2d_35">
      <g>
       <use style="stroke:#000000;stroke-width:0.8;" x="1129.06" xlink:href="#mc7ac870f61" y="356.458618"/>
      </g>
     </g>
     <g id="text_19">
      <!-- $0.0$ -->
      <g transform="translate(605.661364 361.645412)scale(0.14994 -0.14994)">
       <use transform="scale(0.996264)" xlink:href="#CMR17-48"/>
       <use transform="translate(45.690477 0)scale(0.996264)" xlink:href="#CMMI12-58"/>
       <use transform="translate(72.787654 0)scale(0.996264)" xlink:href="#CMR17-48"/>
      </g>
     </g>
    </g>
    <g id="ytick_7">
     <g id="line2d_36">
      <g>
       <use style="stroke:#000000;stroke-width:0.8;" x="631.350922" xlink:href="#m9ebf9a1665" y="292.931262"/>
      </g>
     </g>
     <g id="line2d_37">
      <g>
       <use style="stroke:#000000;stroke-width:0.8;" x="1129.06" xlink:href="#mc7ac870f61" y="292.931262"/>
      </g>
     </g>
     <g id="text_20">
      <!-- $0.2$ -->
      <g transform="translate(605.661364 298.118057)scale(0.14994 -0.14994)">
       <use transform="scale(0.996264)" xlink:href="#CMR17-48"/>
       <use transform="translate(45.690477 0)scale(0.996264)" xlink:href="#CMMI12-58"/>
       <use transform="translate(72.787654 0)scale(0.996264)" xlink:href="#CMR17-50"/>
      </g>
     </g>
    </g>
    <g id="ytick_8">
     <g id="line2d_38">
      <g>
       <use style="stroke:#000000;stroke-width:0.8;" x="631.350922" xlink:href="#m9ebf9a1665" y="229.403906"/>
      </g>
     </g>
     <g id="line2d_39">
      <g>
       <use style="stroke:#000000;stroke-width:0.8;" x="1129.06" xlink:href="#mc7ac870f61" y="229.403906"/>
      </g>
     </g>
     <g id="text_21">
      <!-- $0.4$ -->
      <g transform="translate(605.661364 234.590701)scale(0.14994 -0.14994)">
       <use transform="scale(0.996264)" xlink:href="#CMR17-48"/>
       <use transform="translate(45.690477 0)scale(0.996264)" xlink:href="#CMMI12-58"/>
       <use transform="translate(72.787654 0)scale(0.996264)" xlink:href="#CMR17-52"/>
      </g>
     </g>
    </g>
    <g id="ytick_9">
     <g id="line2d_40">
      <g>
       <use style="stroke:#000000;stroke-width:0.8;" x="631.350922" xlink:href="#m9ebf9a1665" y="165.87655"/>
      </g>
     </g>
     <g id="line2d_41">
      <g>
       <use style="stroke:#000000;stroke-width:0.8;" x="1129.06" xlink:href="#mc7ac870f61" y="165.87655"/>
      </g>
     </g>
     <g id="text_22">
      <!-- $0.6$ -->
      <defs>
       <path d="M 10.59375 34.34375
C 10.59375 58 21.796875 63.6875 28.296875 63.6875
C 30.40625 63.6875 35.5 63.265625 37.5 59.09375
C 35.90625 59.09375 32.90625 59.09375 32.90625 55.59375
C 32.90625 52.890625 35.09375 52 36.5 52
C 37.40625 52 40.09375 52.390625 40.09375 55.796875
C 40.09375 62.296875 35.09375 66 28.203125 66
C 16.296875 66 3.796875 53.296875 3.796875 31.421875
C 3.796875 4.015625 15.09375 -2 23.09375 -2
C 32.796875 -2 42 6.734375 42 20.234375
C 42 32.828125 33.90625 42 23.703125 42
C 17.59375 42 13.09375 37.96875 10.59375 30.921875
z
M 23.09375 0.390625
C 10.796875 0.390625 10.796875 18.9375 10.796875 22.65625
C 10.796875 29.90625 14.203125 40.390625 23.5 40.390625
C 25.203125 40.390625 30.09375 40.390625 33.40625 33.4375
C 35.203125 29.515625 35.203125 25.375 35.203125 20.34375
C 35.203125 14.90625 35.203125 10.875 33.09375 6.84375
C 30.90625 2.703125 27.703125 0.390625 23.09375 0.390625
z
" id="CMR17-54"/>
      </defs>
      <g transform="translate(605.661364 171.063345)scale(0.14994 -0.14994)">
       <use transform="scale(0.996264)" xlink:href="#CMR17-48"/>
       <use transform="translate(45.690477 0)scale(0.996264)" xlink:href="#CMMI12-58"/>
       <use transform="translate(72.787654 0)scale(0.996264)" xlink:href="#CMR17-54"/>
      </g>
     </g>
    </g>
    <g id="ytick_10">
     <g id="line2d_42">
      <g>
       <use style="stroke:#000000;stroke-width:0.8;" x="631.350922" xlink:href="#m9ebf9a1665" y="102.349195"/>
      </g>
     </g>
     <g id="line2d_43">
      <g>
       <use style="stroke:#000000;stroke-width:0.8;" x="1129.06" xlink:href="#mc7ac870f61" y="102.349195"/>
      </g>
     </g>
     <g id="text_23">
      <!-- $0.8$ -->
      <defs>
       <path d="M 27.203125 35.765625
C 33.5 38.96875 39.90625 43.796875 39.90625 51.53125
C 39.90625 60.6875 31.09375 66 23 66
C 13.90625 66 5.90625 59.375 5.90625 50.234375
C 5.90625 47.71875 6.5 43.390625 10.40625 39.578125
C 11.40625 38.578125 15.59375 35.5625 18.296875 33.65625
C 13.796875 31.34375 3.296875 25.8125 3.296875 14.765625
C 3.296875 4.40625 13.09375 -2 22.796875 -2
C 33.5 -2 42.5 5.71875 42.5 15.96875
C 42.5 25.109375 36.40625 29.328125 32.40625 32.046875
z
M 14.09375 44.609375
C 13.296875 45.109375 9.296875 48.21875 9.296875 52.9375
C 9.296875 59.078125 15.59375 63.6875 22.796875 63.6875
C 30.703125 63.6875 36.5 58.0625 36.5 51.53125
C 36.5 42.1875 26.09375 36.859375 25.59375 36.859375
C 25.5 36.859375 25.40625 36.859375 24.59375 37.46875
z
M 32.5 24
C 34 22.90625 38.796875 19.578125 38.796875 13.453125
C 38.796875 6.015625 31.40625 0.390625 23 0.390625
C 13.90625 0.390625 7 6.921875 7 14.859375
C 7 22.796875 13.09375 29.4375 20 32.546875
z
" id="CMR17-56"/>
      </defs>
      <g transform="translate(605.661364 107.53599)scale(0.14994 -0.14994)">
       <use transform="scale(0.996264)" xlink:href="#CMR17-48"/>
       <use transform="translate(45.690477 0)scale(0.996264)" xlink:href="#CMMI12-58"/>
       <use transform="translate(72.787654 0)scale(0.996264)" xlink:href="#CMR17-56"/>
      </g>
     </g>
    </g>
    <g id="ytick_11">
     <g id="line2d_44">
      <g>
       <use style="stroke:#000000;stroke-width:0.8;" x="631.350922" xlink:href="#m9ebf9a1665" y="38.821839"/>
      </g>
     </g>
     <g id="line2d_45">
      <g>
       <use style="stroke:#000000;stroke-width:0.8;" x="1129.06" xlink:href="#mc7ac870f61" y="38.821839"/>
      </g>
     </g>
     <g id="text_24">
      <!-- $1.0$ -->
      <g transform="translate(605.661364 44.008634)scale(0.14994 -0.14994)">
       <use transform="scale(0.996264)" xlink:href="#CMR17-49"/>
       <use transform="translate(45.690477 0)scale(0.996264)" xlink:href="#CMMI12-58"/>
       <use transform="translate(72.787654 0)scale(0.996264)" xlink:href="#CMR17-48"/>
      </g>
     </g>
    </g>
    <g id="text_25">
     <!-- $P$ -->
     <defs>
      <path d="M 29.59375 31.59375
L 46.40625 31.59375
C 60.203125 31.59375 74 41.765625 74 53.125
C 74 60.90625 67.40625 68 54.796875 68
L 23.90625 68
C 22 68 21.09375 68 21.09375 66.09375
C 21.09375 65.09375 22 65.09375 23.5 65.09375
C 29.59375 65.09375 29.59375 64.296875 29.59375 63.203125
C 29.59375 63 29.59375 62.40625 29.203125 60.90625
L 15.703125 7.359375
C 14.796875 3.890625 14.59375 2.890625 7.59375 2.890625
C 5.703125 2.890625 4.703125 2.890625 4.703125 1.09375
C 4.703125 0 5.59375 0 6.203125 0
C 8.09375 0 10.09375 0.1875 12 0.1875
L 23.703125 0.1875
C 25.59375 0.1875 27.703125 0 29.59375 0
C 30.40625 0 31.5 0 31.5 1.890625
C 31.5 2.890625 30.59375 2.890625 29.09375 2.890625
C 23.09375 2.890625 23 3.59375 23 4.578125
C 23 5.078125 23.09375 5.765625 23.203125 6.265625
z
M 36.796875 61.203125
C 37.703125 64.890625 38.09375 65.09375 42 65.09375
L 51.90625 65.09375
C 59.40625 65.09375 65.59375 62.703125 65.59375 55.21875
C 65.59375 52.640625 64.296875 44.15625 59.703125 39.578125
C 58 37.78125 53.203125 34 44.09375 34
L 30 34
z
" id="CMMI12-80"/>
     </defs>
     <g transform="translate(598.1733 203.299175)rotate(-90)scale(0.18 -0.18)">
      <use transform="scale(0.996264)" xlink:href="#CMMI12-80"/>
     </g>
    </g>
   </g>
   <g id="line2d_46">
    <path clip-path="url(#ped76093ff1)" d="M 653.974062 356.458526
L 726.918359 356.346737
L 742.032128 356.099754
L 752.077807 355.72346
L 759.860945 355.216738
L 766.33181 354.577536
L 771.897659 353.809909
L 776.875248 352.903071
L 781.400329 351.855592
L 785.563403 350.667378
L 789.454972 349.329545
L 793.165538 347.819984
L 796.695101 346.145266
L 800.088911 344.290839
L 803.39222 342.233237
L 806.605027 339.971877
L 809.772583 337.47152
L 812.894889 334.725346
L 816.017194 331.6824
L 819.1395 328.326623
L 822.261805 324.643429
L 825.429362 320.559203
L 828.642169 316.047728
L 831.900227 311.084532
L 835.248786 305.570354
L 838.687848 299.469397
L 842.21741 292.749939
L 845.882725 285.291094
L 849.729044 276.95629
L 853.846867 267.490031
L 858.281446 256.721196
L 863.168533 244.250689
L 868.824884 229.180271
L 876.155514 208.967562
L 893.260318 161.579234
L 899.00717 146.460288
L 903.939508 134.096093
L 908.374087 123.56292
L 912.49191 114.338756
L 916.38348 106.153563
L 920.094046 98.85512
L 923.668859 92.304775
L 927.153171 86.380731
L 930.546981 81.047745
L 933.85029 76.266922
L 937.108348 71.939782
L 940.321155 68.039519
L 943.488712 64.537872
L 946.656268 61.36271
L 949.823824 58.497662
L 953.036631 55.890352
L 956.294689 53.533695
L 959.597998 51.418493
L 962.991809 49.509897
L 966.476121 47.804711
L 970.096185 46.279283
L 973.897253 44.91827
L 977.924574 43.712598
L 982.268651 42.647428
L 986.974735 41.726301
L 992.178578 40.939371
L 998.015932 40.286259
L 1004.803552 39.757473
L 1012.993948 39.351927
L 1023.492135 39.066606
L 1038.696405 38.894944
L 1068.245181 38.826984
L 1106.43686 38.82193
L 1106.43686 38.82193
" style="fill:none;stroke:#000000;stroke-linecap:square;stroke-width:2;"/>
   </g>
   <g id="line2d_47">
    <path clip-path="url(#ped76093ff1)" d="M 722.010513 356.458618
L 725.895658 356.363317
L 736.523559 356.23625
L 737.950441 356.172716
L 749.08296 355.982115
L 750.670171 355.855047
L 754.830398 355.696213
L 757.05046 355.569146
L 759.453745 355.410311
L 762.909217 355.12441
L 763.199286 355.029109
L 764.526304 354.870275
L 764.630168 354.838508
L 768.164242 354.61614
L 770.334334 354.266705
L 770.945514 354.171404
L 773.26528 353.980803
L 773.29698 353.949036
L 774.456635 353.663134
L 775.337802 353.250165
L 776.121174 353.059564
L 779.83415 352.39246
L 780.103748 352.29716
L 781.283161 351.88419
L 781.297318 351.852424
L 782.171474 351.693589
L 782.19107 351.661823
L 782.654377 351.502988
L 782.66574 351.471221
L 783.448357 351.312387
L 784.537566 351.026485
L 784.738584 350.962952
L 787.369488 350.200547
L 788.790726 349.660511
L 789.251487 349.46991
L 789.611323 349.342842
L 789.664987 349.279308
L 790.308434 349.088707
L 793.710373 348.008634
L 794.272113 347.8498
L 797.211173 346.547359
L 797.570998 346.388525
L 798.515238 345.880255
L 798.595578 345.753188
L 799.410292 345.213151
L 799.514025 345.086084
L 801.342372 344.133078
L 801.546393 343.942477
L 802.006544 343.751876
L 802.117432 343.624808
L 802.274239 343.465974
L 802.776455 343.275373
L 803.114072 343.053005
L 803.546587 342.830637
L 803.678089 342.70357
L 803.782495 342.544735
L 804.132744 342.258834
L 804.36958 342.068232
L 804.569823 341.845864
L 804.809187 341.655263
L 804.922578 341.528196
L 805.541582 341.019926
L 806.393017 340.606957
L 807.840733 339.558651
L 807.994345 339.272749
L 808.272286 339.145682
L 808.685348 338.955081
L 809.009608 338.796246
L 809.220412 338.637412
L 809.322939 338.510345
L 810.174416 337.74794
L 810.797684 337.271437
L 811.066285 336.922002
L 811.574321 336.6361
L 811.639207 336.509033
L 811.871588 336.350199
L 814.625197 333.681783
L 814.796949 333.522949
L 816.694048 331.172201
L 816.95048 330.949833
L 817.175312 330.568631
L 817.646998 330.092128
L 817.705527 329.901527
L 818.026724 329.679159
L 819.015981 328.503786
L 819.270726 328.344951
L 819.330277 328.217884
L 819.437193 328.05905
L 819.520777 327.931982
L 819.638457 327.741381
L 822.356246 324.914131
L 822.707642 324.501162
L 822.990073 324.183493
L 823.188302 323.961125
L 823.576283 323.516389
L 823.664212 323.389322
L 823.866415 323.166954
L 824.158648 322.785752
L 824.261458 322.563384
L 824.390464 322.404549
L 824.524429 322.055114
L 825.04681 321.29271
L 825.172262 321.070342
L 825.390246 320.593839
L 825.635645 320.085569
L 826.385445 318.910195
L 826.679025 318.751361
L 826.807742 318.465459
L 827.591008 317.44892
L 827.699396 317.258319
L 827.956886 316.718282
L 828.376402 316.33708
L 829.002406 315.701743
L 829.023966 315.638209
L 829.237165 315.479375
L 829.629308 314.716971
L 829.907334 314.494603
L 830.344077 313.827499
L 830.483835 313.668664
L 830.566847 313.50983
L 830.724796 313.350996
L 830.811902 313.096861
L 831.095529 312.779193
L 831.155601 312.683892
L 831.392827 312.556825
L 831.467969 312.429757
L 831.694146 312.270923
L 831.967165 311.953254
L 832.538205 311.000249
L 832.73989 310.555513
L 833.483246 309.221305
L 833.605388 308.998937
L 833.946862 308.744802
L 834.068211 308.522434
L 834.329394 308.141232
L 834.424624 308.014164
L 834.511419 307.85533
L 835.132516 306.997625
L 835.294533 306.775257
L 835.728335 305.854018
L 836.991709 303.344437
L 837.175112 302.931468
L 837.272028 302.677333
L 837.39451 302.486732
L 837.847132 301.724327
L 837.948522 301.501959
L 838.085316 301.343125
L 838.345823 300.739555
L 838.4652 300.135984
L 838.951646 299.278279
L 839.029953 299.024145
L 839.331179 298.325274
L 839.457135 298.166439
L 839.546575 298.007605
L 840.028354 297.276968
L 840.700018 296.165128
L 840.817739 295.94276
L 840.944709 295.752158
L 841.206398 295.053288
L 841.737389 294.227349
L 841.881804 293.877914
L 842.012059 293.560246
L 842.288402 293.083743
L 842.489556 292.766074
L 842.751915 292.194271
L 842.881906 292.00367
L 843.000641 291.622467
L 843.134478 291.431866
L 843.392495 290.796529
L 844.338132 288.826984
L 844.415893 288.604616
L 845.059467 287.461009
L 845.195085 287.302175
L 845.305767 287.111574
L 845.415923 286.95274
L 845.543071 286.539771
L 845.695088 286.317403
L 845.941274 285.967967
L 846.092253 285.650299
L 846.438792 285.014962
L 846.605238 284.601993
L 847.01721 283.776054
L 847.126787 283.521919
L 847.244639 283.394852
L 847.433449 283.045417
L 849.604668 277.803886
L 849.773601 277.581518
L 849.877642 277.35915
L 850.153276 276.723813
L 850.365265 276.564978
L 850.609815 275.961408
L 850.802688 275.548439
L 850.957374 275.167237
L 851.027052 274.944869
L 852.769345 270.529276
L 852.970305 270.021006
L 853.114707 269.830405
L 853.181346 269.639804
L 853.338011 269.417436
L 853.460346 269.131534
L 853.581561 268.782099
L 853.792401 268.051461
L 853.924211 267.797326
L 854.118369 267.384357
L 855.455195 264.048838
L 855.565621 263.572335
L 855.669149 263.286433
L 855.779664 263.095832
L 855.922419 262.778163
L 856.065239 262.365194
L 856.255908 261.761624
L 856.474481 261.380422
L 856.838073 260.459183
L 856.933731 260.205048
L 857.060229 259.88738
L 857.124657 259.728545
L 857.239904 259.347343
L 857.946393 257.759
L 858.069557 257.600166
L 858.273871 256.774228
L 858.545351 255.94829
L 858.684908 255.630621
L 858.780497 254.995284
L 858.909149 254.741149
L 859.03804 254.359947
L 859.144132 254.169346
L 859.540929 253.184573
L 859.619193 252.962205
L 859.752787 252.549236
L 860.086923 252.1045
L 860.316316 251.564464
L 860.379555 251.437396
L 860.518495 251.278562
L 860.66067 251.056194
L 860.759301 250.516158
L 860.861503 250.357323
L 860.955264 250.039655
L 861.063386 249.721986
L 861.190582 249.372551
L 861.313432 249.023115
L 861.652124 248.133644
L 861.788357 247.784208
L 862.074872 247.212405
L 862.477188 246.3547
L 862.55688 245.878197
L 862.681003 245.687596
L 862.903101 245.274627
L 862.995668 244.893424
L 863.146589 244.63929
L 863.274321 244.385155
L 863.566143 243.940419
L 863.662906 243.749818
L 863.759965 243.368615
L 863.846046 243.082714
L 863.959037 242.41561
L 864.186812 241.812039
L 864.403983 241.335537
L 864.519083 240.954334
L 870.500267 224.657938
L 870.619942 224.340269
L 870.725284 224.022601
L 870.832631 223.641399
L 870.935989 223.260196
L 871.0719 222.81546
L 872.019448 220.464713
L 874.965068 211.093491
L 875.075054 210.585221
L 875.185325 210.39462
L 875.302622 209.949884
L 875.339848 209.727516
L 875.489411 209.251014
L 875.687275 208.742744
L 875.748465 208.520376
L 877.049172 204.517752
L 877.198987 203.945949
L 877.255109 203.787115
L 877.394961 203.53298
L 877.528558 203.151777
L 877.674216 202.643508
L 877.777177 202.484674
L 877.874902 202.325839
L 877.981601 202.071704
L 879.852866 196.194836
L 880.10565 195.813634
L 880.440134 194.574727
L 880.593758 194.193525
L 880.691756 193.812322
L 880.785079 193.558187
L 880.838642 193.335819
L 881.010185 192.954617
L 881.142042 192.636949
L 881.521558 191.588642
L 881.619581 191.429808
L 881.734496 191.080373
L 882.045726 190.508569
L 882.193284 190.0956
L 882.354502 189.619097
L 882.456217 189.364963
L 882.579166 189.015527
L 882.762874 188.38019
L 882.879697 188.157822
L 883.513123 186.569479
L 883.70852 186.15651
L 883.829118 185.870609
L 883.88529 185.680007
L 884.007143 185.330572
L 884.102859 185.108204
L 884.209797 184.790536
L 885.410208 181.296182
L 885.518257 181.073814
L 886.525237 178.659533
L 886.675165 178.341864
L 888.317618 173.894504
L 888.419718 173.64037
L 888.532505 173.354468
L 891.651215 163.602044
L 891.806213 163.189074
L 892.375567 161.537198
L 892.539111 161.31483
L 892.753045 160.330058
L 893.379255 158.868782
L 893.68679 158.011077
L 894.04831 157.471041
L 894.562783 156.136833
L 894.812732 155.533263
L 894.974791 155.247361
L 895.196852 154.643791
L 895.284468 154.453189
L 895.549611 153.881386
L 895.618569 153.659018
L 895.88198 152.83308
L 896.692035 150.545866
L 896.754056 150.355265
L 896.902946 149.942296
L 897.40108 148.544555
L 897.579045 147.940984
L 897.800329 147.496248
L 897.915843 147.115046
L 898.042627 146.892678
L 898.229899 146.416175
L 901.019519 139.459234
L 901.117201 139.268633
L 901.20892 139.078032
L 901.487543 138.633296
L 901.676394 137.839125
L 903.173045 134.535372
L 903.299576 134.24947
L 905.345709 130.088012
L 905.484585 129.929178
L 905.609238 129.547976
L 905.719439 129.389141
L 906.318884 127.610197
L 906.700408 126.87956
L 907.53333 124.941782
L 907.85184 124.497046
L 908.04414 124.115843
L 908.511628 123.162838
L 908.619264 123.004003
L 908.720618 122.749869
L 908.836698 122.495734
L 908.928705 122.114532
L 909.028878 121.92393
L 909.138974 121.765096
L 909.218528 121.542728
L 909.434011 121.129759
L 909.687714 120.780324
L 909.803686 120.589723
L 909.900309 120.430888
L 911.185762 118.016607
L 911.391461 117.794239
L 911.49184 117.635405
L 911.623073 117.413037
L 911.761194 117.190669
L 911.8975 117.000068
L 912.011088 116.7777
L 912.295198 116.364731
L 912.402963 115.919995
L 913.160444 114.299885
L 913.345974 113.982217
L 913.48298 113.696315
L 913.610717 113.473947
L 913.753451 113.124512
L 914.109262 112.584475
L 915.513639 109.185422
L 915.590113 108.994821
L 915.707517 108.804219
L 915.946048 108.486551
L 916.295995 107.882981
L 916.399764 107.724146
L 916.836948 106.866441
L 916.991028 106.453472
L 917.117289 106.262871
L 918.118581 104.166259
L 918.498433 103.689756
L 918.613443 103.435621
L 918.781872 103.24502
L 919.009928 102.800284
L 919.38654 102.164947
L 919.523899 101.942579
L 919.757468 101.720211
L 920.06895 101.211941
L 920.165713 100.830739
L 921.007824 99.178863
L 921.272628 98.321157
L 921.456235 97.971722
L 921.614233 97.717587
L 921.744104 97.526986
L 921.94977 97.050483
L 922.114068 96.796348
L 922.606396 95.843343
L 923.115718 94.826803
L 923.246483 94.636202
L 923.559734 94.223233
L 923.766166 94.064399
L 923.870485 93.873798
L 923.970442 93.683197
L 924.065412 93.460829
L 924.455738 92.730191
L 924.600875 92.476056
L 924.801013 92.285455
L 924.914599 92.094854
L 925.072528 91.904253
L 925.362829 91.42775
L 925.553144 91.141848
L 925.661813 90.91948
L 925.875195 90.728879
L 926.033395 90.411211
L 926.140907 90.061775
L 926.492414 89.458205
L 926.601502 89.077003
L 926.7346 88.791101
L 926.850805 88.473433
L 927.026205 88.155764
L 927.194958 87.99693
L 927.338208 87.647494
L 927.42987 87.48866
L 927.544146 87.266292
L 927.952587 86.662722
L 928.12137 86.503888
L 928.223617 86.28152
L 928.334165 86.090918
L 928.48755 85.868551
L 928.724144 85.423815
L 928.996605 85.042612
L 929.368271 84.248441
L 929.474576 83.899006
L 929.60201 83.644871
L 929.754455 83.390736
L 930.008241 82.914233
L 930.100518 82.660098
L 930.284746 82.34243
L 930.481017 82.056528
L 930.722221 81.83416
L 932.283395 79.451646
L 932.605066 78.975143
L 932.701 78.848076
L 932.886355 78.657475
L 933.143516 78.117438
L 934.190204 76.560862
L 934.315906 76.370261
L 934.442842 76.116126
L 934.590297 75.957292
L 935.097375 75.06782
L 935.301944 74.877219
L 936.566557 73.44771
L 936.646917 73.257109
L 936.861378 73.066508
L 936.944666 72.812373
L 937.194167 72.590005
L 937.507308 71.922901
L 937.737068 71.605233
L 938.130473 71.12873
L 938.422366 70.842828
L 938.625813 70.62046
L 938.717525 70.461626
L 938.820468 70.207491
L 939.069057 69.826289
L 939.512525 69.222719
L 939.726329 69.032118
L 939.99434 68.619148
L 940.15262 68.460314
L 940.584263 67.888511
L 941.365221 67.253174
L 941.563799 66.871971
L 941.713002 66.68137
L 942.731076 65.56953
L 943.058153 65.061261
L 943.516113 64.902427
L 944.053095 64.140022
L 944.174229 64.044721
L 945.517002 62.964648
L 945.621899 62.805814
L 946.317009 62.13871
L 946.419179 62.04341
L 946.564664 61.852808
L 946.72651 61.693974
L 946.875473 61.471606
L 947.134715 61.185705
L 947.306961 60.868036
L 947.526133 60.709202
L 947.99371 60.200932
L 948.136468 60.010331
L 948.800644 59.057325
L 949.296907 58.580822
L 949.414235 58.358454
L 949.542404 58.19962
L 949.608103 58.10432
L 949.895987 57.881952
L 949.966097 57.659584
L 950.813399 57.151314
L 950.913349 57.024247
L 951.408466 56.674811
L 951.581258 56.547744
L 952.125562 56.198308
L 952.427005 55.912407
L 952.805323 55.753572
L 952.86956 55.690039
L 953.242965 55.499438
L 953.556239 55.213536
L 954.800335 54.133463
L 954.865911 54.038162
L 955.148035 53.815794
L 955.157661 53.784027
L 955.560063 53.593426
L 955.684229 53.466359
L 956.125067 53.275758
L 956.224487 53.180457
L 956.809183 52.894555
L 957.334309 52.481586
L 957.77293 52.290985
L 957.874577 52.227452
L 958.994687 51.623881
L 960.490891 50.607342
L 961.058016 50.194373
L 961.325807 49.972005
L 961.745805 49.813171
L 962.069437 49.654336
L 962.412033 49.400201
L 962.560308 49.304901
L 962.828711 49.146067
L 963.006214 49.050766
L 963.495984 48.860165
L 963.642627 48.701331
L 964.215947 48.447196
L 964.276445 48.320128
L 966.027361 47.49419
L 966.582133 47.017687
L 966.60214 46.985921
L 968.160514 46.572951
L 968.218295 46.477651
L 969.498468 45.874081
L 969.501434 45.842314
L 970.137371 45.68348
L 971.612538 45.048142
L 972.506737 44.825774
L 973.281829 44.635173
L 973.982735 44.476339
L 975.537478 43.904536
L 975.789035 43.745701
L 977.64219 43.205665
L 978.447712 43.046831
L 981.539465 42.475027
L 981.62963 42.411493
L 982.853503 42.220892
L 984.240207 41.998524
L 984.245807 41.966758
L 985.488638 41.74439
L 985.613341 41.649089
L 985.979734 41.458488
L 986.214704 41.363187
L 989.093463 40.854918
L 990.228495 40.696083
L 993.533347 40.441949
L 993.618479 40.378415
L 994.403673 40.219581
L 996.98956 39.997213
L 997.089084 39.965446
L 1001.749633 39.679544
L 1001.856517 39.647777
L 1005.626781 39.52071
L 1009.930285 39.361875
L 1012.22038 39.266575
L 1021.022805 39.107741
L 1021.84545 39.075974
L 1054.342351 38.821839
L 1054.342351 38.821839
" style="fill:none;stroke:#ff0000;stroke-linecap:square;stroke-width:2;"/>
   </g>
   <g id="line2d_48">
    <path clip-path="url(#ped76093ff1)" d="M 722.612425 356.458618
L 722.662061 356.426851
L 725.877787 356.268016
L 744.233095 356.077415
L 757.03937 355.696213
L 757.257572 355.664446
L 759.375961 355.505612
L 759.416344 355.473845
L 764.473013 354.965575
L 768.040172 354.743207
L 770.434787 354.393772
L 770.581195 354.362005
L 772.561918 354.203171
L 774.431465 353.980803
L 774.443415 353.949036
L 774.952012 353.726668
L 775.177839 353.567834
L 776.061642 353.440766
L 776.201049 353.313699
L 779.318106 352.773662
L 779.337848 352.741896
L 780.229305 352.583061
L 781.079576 352.455994
L 781.103689 352.424227
L 782.182725 352.201859
L 782.183941 352.170092
L 783.178195 351.979491
L 783.191423 351.947724
L 783.839793 351.78889
L 784.005754 351.725356
L 784.529459 351.598289
L 784.898532 351.407688
L 785.524375 351.28062
L 787.080814 350.518216
L 787.176591 350.422915
L 788.604208 349.692278
L 788.835473 349.533443
L 788.868399 349.311075
L 789.922424 349.088707
L 789.930056 349.05694
L 790.736783 348.929873
L 790.763958 348.866339
L 792.185469 348.548671
L 792.714384 348.389836
L 793.153844 348.167469
L 793.262836 348.072168
L 794.271686 347.754499
L 794.523625 347.500365
L 794.804534 347.34153
L 794.908187 347.150929
L 794.928607 347.119162
L 795.56911 346.896794
L 795.57726 346.833261
L 797.433481 346.261457
L 797.891985 345.753188
L 798.515287 345.53082
L 798.618047 345.308452
L 798.990148 345.149617
L 799.106974 345.02255
L 799.366764 344.800182
L 799.525868 344.450747
L 801.010577 343.720109
L 801.339219 343.593041
L 801.358774 343.561275
L 801.775712 343.40244
L 801.778424 343.370673
L 802.265545 343.211839
L 803.346206 342.735336
L 803.457554 342.544735
L 803.548925 342.481202
L 803.750957 342.322367
L 803.797872 342.036466
L 804.267151 341.814098
L 804.38869 341.68703
L 804.555362 341.496429
L 804.691922 341.432895
L 804.798989 341.274061
L 804.891546 341.019926
L 805.377702 340.670491
L 805.485355 340.543423
L 806.065666 340.321055
L 806.276436 340.130454
L 806.741493 339.97162
L 807.822966 339.145682
L 807.950152 338.85978
L 808.472197 338.35151
L 809.126883 338.192676
L 809.225724 337.875008
L 809.371416 337.620873
L 809.693191 337.493805
L 809.830643 337.398505
L 810.068048 337.207904
L 810.169057 337.112603
L 810.378838 336.890235
L 810.496146 336.6361
L 810.678823 336.413732
L 810.783367 336.254898
L 811.269915 335.873696
L 811.769853 335.587794
L 811.859456 335.492494
L 812.166652 335.333659
L 812.378564 335.143058
L 813.060292 334.285353
L 813.146719 334.190052
L 813.289986 334.031218
L 813.531044 333.554715
L 813.951756 333.395881
L 814.381437 333.046446
L 814.402392 332.919378
L 814.598748 332.760544
L 814.847608 332.569943
L 815.053598 332.252274
L 815.205173 331.99814
L 815.978811 331.140434
L 816.03648 331.076901
L 816.247551 330.918066
L 816.61975 330.536864
L 816.881401 330.346263
L 817.004136 329.996828
L 817.306682 329.710926
L 817.624971 329.520325
L 818.296436 328.853221
L 818.443546 328.66262
L 818.453244 328.599086
L 818.767412 328.440252
L 818.871815 328.249651
L 818.999987 328.027283
L 819.012309 327.995516
L 819.266769 327.836682
L 819.308561 327.709614
L 819.43072 327.582547
L 819.597248 327.296645
L 820.478396 326.43894
L 820.54158 326.248339
L 821.048834 326.057738
L 822.023463 325.295333
L 822.640161 324.405861
L 822.919326 324.11996
L 823.016404 323.961125
L 823.168854 323.802291
L 823.456167 323.484623
L 823.907256 323.071653
L 824.029199 322.817519
L 824.167813 322.531617
L 824.531075 321.642145
L 825.044972 320.943274
L 825.143689 320.78444
L 825.505792 319.926735
L 825.617604 319.513766
L 825.760646 319.196097
L 825.901925 319.037263
L 826.046905 318.846662
L 826.272083 318.528993
L 826.680042 318.401926
L 826.76199 317.988957
L 827.281759 317.44892
L 827.814382 316.432381
L 827.858357 316.273547
L 827.971528 316.082945
L 828.217768 315.797044
L 828.656457 315.447608
L 829.005418 315.002872
L 829.225497 314.844038
L 829.335547 314.558136
L 829.515781 314.399302
L 829.55536 314.208701
L 829.725554 314.049867
L 829.792141 313.891032
L 829.926477 313.700431
L 830.039162 313.478063
L 830.099192 313.41453
L 830.207366 313.255695
L 830.275537 313.192162
L 830.909107 312.683892
L 831.140876 312.239156
L 831.421108 312.048555
L 831.846941 311.826187
L 832.007607 311.667353
L 832.096138 311.540285
L 832.289464 311.349684
L 832.40882 311.19085
L 833.599339 308.776569
L 833.947532 308.617735
L 834.028529 308.4589
L 834.104299 308.331833
L 834.220257 308.172999
L 834.33363 308.014164
L 834.437258 307.918864
L 834.501966 307.76003
L 834.594702 307.34706
L 835.000426 306.711723
L 835.139656 306.489355
L 835.28383 306.330521
L 835.418977 306.044619
L 835.818312 305.091614
L 835.956063 304.869246
L 836.113972 304.265676
L 836.351555 303.82094
L 836.485698 303.376204
L 836.730441 302.931468
L 836.84349 302.836167
L 837.074648 302.613799
L 837.175165 302.359664
L 837.318231 302.169063
L 837.391494 301.978462
L 837.695043 301.819628
L 837.87067 301.406659
L 838.938003 299.182979
L 839.02086 298.992378
L 839.141263 298.674709
L 839.301786 298.452341
L 839.405516 298.293507
L 839.784388 297.531102
L 839.868256 297.372268
L 840.062553 297.1499
L 840.665993 296.196894
L 840.763283 295.879226
L 840.925697 295.720392
L 841.148406 295.116821
L 841.284732 294.767386
L 841.362088 294.608552
L 841.48651 294.354417
L 841.636286 294.132049
L 841.781463 293.973215
L 841.940804 293.464945
L 842.24847 293.242577
L 842.430107 292.861375
L 842.62334 292.670774
L 842.739796 292.511939
L 842.885551 292.162504
L 843.808415 290.129425
L 843.961246 289.748223
L 844.058491 289.462321
L 844.172534 289.27172
L 844.26735 289.144653
L 844.492428 288.572849
L 844.796537 288.223414
L 844.905261 288.06458
L 845.030122 287.969279
L 845.173742 287.810445
L 845.339698 287.588077
L 845.411675 287.461009
L 845.573081 286.889206
L 846.561477 285.269096
L 846.691121 285.014962
L 846.990276 284.538459
L 847.260876 284.061956
L 849.450811 279.07456
L 849.531958 278.852192
L 849.765471 278.629824
L 850.14338 277.549751
L 850.311153 277.327383
L 850.501521 276.882647
L 850.629607 276.660279
L 850.911583 275.961408
L 850.997611 275.770807
L 851.175415 275.23077
L 852.294141 272.594122
L 852.52524 272.054085
L 852.616356 271.79995
L 852.682675 271.450515
L 852.829186 271.228147
L 852.966156 270.783411
L 853.114815 270.656343
L 853.165694 270.306908
L 853.325412 270.148074
L 853.495638 269.671571
L 853.590008 269.512737
L 853.760797 268.750332
L 853.870559 268.527964
L 853.979243 268.337363
L 854.099733 268.146762
L 854.196412 267.892627
L 854.503428 267.320824
L 854.635587 267.003155
L 854.814093 266.558419
L 854.937042 266.336051
L 855.317348 265.351279
L 855.410193 265.03361
L 855.501531 264.843009
L 855.671375 264.334739
L 856.474869 262.492262
L 856.635519 262.333428
L 856.737974 262.047526
L 856.92532 261.729857
L 857.039574 261.285121
L 857.155977 261.126287
L 857.776043 259.220276
L 857.902414 258.966141
L 857.988187 258.77554
L 858.075774 258.616706
L 858.188189 258.076669
L 858.285264 257.822534
L 858.426164 257.473099
L 858.581773 257.187197
L 859.372294 254.582315
L 859.558909 254.32818
L 859.642598 253.883444
L 859.738249 253.692843
L 859.945195 253.406941
L 861.063646 250.89736
L 861.146158 250.770292
L 861.215945 250.611458
L 861.389268 250.071422
L 861.814331 249.18195
L 861.949354 248.832514
L 862.186361 248.546613
L 863.480907 245.020492
L 863.584314 244.893424
L 863.681485 244.575756
L 863.76122 244.416922
L 864.336463 242.161475
L 864.616025 241.494371
L 864.826596 240.668433
L 864.896242 240.509598
L 865.01264 240.096629
L 865.217736 239.651893
L 865.280763 239.524826
L 865.387776 239.397759
L 865.510692 239.048323
L 865.878683 238.444753
L 866.005723 238.095317
L 866.120087 237.87295
L 866.284203 237.047011
L 866.343731 236.824643
L 866.46006 236.634042
L 866.838724 235.74457
L 866.997521 235.585736
L 867.305658 234.569197
L 868.128768 231.996081
L 868.181182 231.837247
L 868.393512 231.360744
L 868.541729 231.170143
L 868.681364 230.59834
L 868.764747 230.439506
L 868.869263 229.963003
L 869.016946 229.708868
L 869.195047 229.009997
L 869.454372 228.597028
L 869.876838 227.231053
L 870.000118 227.072219
L 870.082659 226.75455
L 870.191255 226.627483
L 870.351171 225.928612
L 870.427796 225.801545
L 870.616776 224.848539
L 871.785912 221.671854
L 871.86756 221.513019
L 871.961885 221.258885
L 872.154792 221.068283
L 872.279195 220.560014
L 872.64666 219.066972
L 872.75209 218.654003
L 874.204361 214.651379
L 875.477986 210.045185
L 876.161392 208.393308
L 876.307123 207.757971
L 876.463177 207.408536
L 876.555666 207.090867
L 876.657601 206.932033
L 876.741118 206.582598
L 876.853649 206.391997
L 876.946174 206.010794
L 877.031652 205.75666
L 877.784842 203.691814
L 877.958568 203.53298
L 878.015601 203.183544
L 878.150733 203.056477
L 878.883158 200.769263
L 878.956961 200.610429
L 879.422219 199.212688
L 879.484726 199.053853
L 879.661698 198.069081
L 880.358901 196.417204
L 880.47826 195.908935
L 880.612097 195.623033
L 880.72714 195.082996
L 880.826703 194.828862
L 880.927973 194.54296
L 881.074016 194.352359
L 881.194475 193.93939
L 881.683793 192.954617
L 881.886437 192.605182
L 882.045427 192.382814
L 882.158152 191.906311
L 882.585292 190.699171
L 882.696188 190.540336
L 882.930987 189.968533
L 882.99875 189.777932
L 883.135327 189.619097
L 883.296173 189.015527
L 883.635063 187.903687
L 883.736509 187.681319
L 883.913247 187.17305
L 883.99716 186.950682
L 884.106972 186.601246
L 884.477696 185.648241
L 884.610684 185.108204
L 884.706005 184.94937
L 884.837975 184.3458
L 885.312671 182.820991
L 885.396697 182.630389
L 885.529629 182.185653
L 885.716073 181.804451
L 885.866283 181.61385
L 885.98391 181.200881
L 886.142981 180.819679
L 886.261094 180.565544
L 886.364275 180.40671
L 886.475945 180.057274
L 887.240742 177.706527
L 887.480065 177.134724
L 888.13453 175.387547
L 888.244798 175.006344
L 888.317693 174.688676
L 888.431254 174.307474
L 888.679117 173.862738
L 888.744452 173.703903
L 888.9621 173.036799
L 889.064464 172.782665
L 889.298573 171.924959
L 889.413299 171.480224
L 889.490903 171.321389
L 889.603681 170.686052
L 889.710469 170.40015
L 889.827945 169.447145
L 890.449567 167.858802
L 890.592544 167.382299
L 890.683983 167.096398
L 890.779937 166.746962
L 890.849573 166.492827
L 891.055882 165.539822
L 891.242847 164.968018
L 891.36537 164.809184
L 891.439708 164.713883
L 891.575978 164.523282
L 891.683597 164.237381
L 891.952445 163.474976
L 892.09191 162.93494
L 892.318386 162.42667
L 892.425063 162.077235
L 892.56288 161.9184
L 892.749278 161.187763
L 892.987176 160.615959
L 893.111236 160.361824
L 893.21632 160.20299
L 893.365503 159.69472
L 893.779487 158.805249
L 893.979629 158.646414
L 894.507805 157.058072
L 894.817832 156.359201
L 895.105443 155.977998
L 895.196581 155.755631
L 895.255102 155.596796
L 895.607871 154.675557
L 895.740067 154.262588
L 895.878589 153.94492
L 895.999356 153.087215
L 896.52802 152.007142
L 896.663231 151.784774
L 898.656999 146.479709
L 898.885229 145.717304
L 899.011787 145.526703
L 899.073651 145.304335
L 899.226964 145.113734
L 899.427806 144.065428
L 900.281163 141.841748
L 900.37051 141.714681
L 900.493651 141.206411
L 900.566698 141.047577
L 900.805297 140.602841
L 901.530128 139.3957
L 901.656361 138.982731
L 901.797381 138.474462
L 901.858274 138.283861
L 901.995534 138.125026
L 902.075855 137.743824
L 902.185136 137.58499
L 902.317649 137.267321
L 902.393921 137.07672
L 902.507778 136.981419
L 902.583466 136.822585
L 902.641579 136.663751
L 902.99216 135.742512
L 903.173169 135.520144
L 903.302386 135.107175
L 903.497148 134.598905
L 903.670772 134.344771
L 903.756259 134.122403
L 903.863925 133.963568
L 903.920016 133.772967
L 904.019019 133.487065
L 904.061011 133.264697
L 904.109897 132.978796
L 904.256003 132.819962
L 904.358937 132.692894
L 904.532403 132.375226
L 904.609832 132.279925
L 904.729522 132.152858
L 904.791004 131.962256
L 905.007941 131.771655
L 905.106565 131.485754
L 905.164989 131.295153
L 905.332014 131.041018
L 905.483138 130.91395
L 905.590793 130.405681
L 906.298369 128.626737
L 906.456502 128.182001
L 906.618964 128.023166
L 906.775265 127.451363
L 906.884702 127.133695
L 907.234941 126.244223
L 907.330278 125.894787
L 907.418059 125.704186
L 907.527176 125.545352
L 907.651606 125.25945
L 907.835946 125.132383
L 907.952765 124.75118
L 908.044242 124.65588
L 908.141126 124.465279
L 908.386748 123.829942
L 908.5048 123.671107
L 908.599585 123.607574
L 908.763293 123.194605
L 908.878903 122.813402
L 909.106582 122.241599
L 909.206265 122.082765
L 909.319861 121.733329
L 909.646981 121.066225
L 909.803112 120.685023
L 909.920846 120.526189
L 910.032074 120.367355
L 910.198043 119.954385
L 910.38771 119.763784
L 912.395836 116.110596
L 912.55392 115.66586
L 912.638116 115.411725
L 912.921239 114.45872
L 912.988479 114.299885
L 913.072998 114.013984
L 913.19545 113.823383
L 913.262559 113.728082
L 913.360934 113.569248
L 913.56543 113.219812
L 913.680838 112.933911
L 914.134902 111.822071
L 914.358549 111.345568
L 914.508368 110.932599
L 914.584635 110.741998
L 914.723374 110.392562
L 914.864808 110.106661
L 914.89325 109.820759
L 914.985265 109.566624
L 915.171363 109.248955
L 915.293958 108.708919
L 915.429054 108.39125
L 915.556334 108.105349
L 915.978441 107.565312
L 916.90108 106.008736
L 916.954326 105.818135
L 917.125607 105.659301
L 917.157964 105.595767
L 917.304607 105.436933
L 917.45936 104.992197
L 917.543976 104.833363
L 917.675872 104.610995
L 918.054221 103.84859
L 918.180125 103.689756
L 918.253133 103.340321
L 918.486281 103.181486
L 918.612054 102.73675
L 918.778036 102.609683
L 918.90542 102.450849
L 919.093059 102.101413
L 919.46659 101.466076
L 919.63652 101.211941
L 919.74383 101.02134
L 919.808484 100.894273
L 919.966386 100.735438
L 920.725355 98.924728
L 921.019552 98.416458
L 921.123233 98.003489
L 921.21885 97.749354
L 921.330004 97.336385
L 921.46682 97.08225
L 921.554157 96.955183
L 921.573508 96.828115
L 921.743337 96.701048
L 921.957821 96.256312
L 922.048302 96.161011
L 922.206262 96.002177
L 922.269678 95.843343
L 922.369586 95.716275
L 922.619209 95.335073
L 922.68963 95.176239
L 922.820511 95.017405
L 922.935656 94.636202
L 923.064381 94.445601
L 923.207197 94.223233
L 923.519906 93.873798
L 923.564977 93.810264
L 923.77248 93.683197
L 924.206002 92.730191
L 924.418311 92.571357
L 924.864853 92.158388
L 925.101686 91.999553
L 925.329054 91.459517
L 925.62833 90.792413
L 925.873957 90.633579
L 926.042878 90.284143
L 926.152444 89.966475
L 926.295039 89.80764
L 926.562323 89.10877
L 926.746954 88.568733
L 926.893583 88.346365
L 927.294481 87.838095
L 927.416197 87.552194
L 928.282118 85.836784
L 928.396333 85.677949
L 928.679461 85.26498
L 929.065592 84.756711
L 929.171478 84.502576
L 929.806223 83.009534
L 929.942368 82.787166
L 930.037863 82.43773
L 930.191324 82.024761
L 930.20162 81.961227
L 930.430432 81.802393
L 930.559542 81.484725
L 930.774564 81.32589
L 930.858169 81.008222
L 930.919634 80.817621
L 931.019376 80.499952
L 931.208696 80.341118
L 931.308641 80.182284
L 931.432198 80.086983
L 931.744252 79.451646
L 931.906838 79.324578
L 931.909954 79.292812
L 932.071641 79.165744
L 932.148558 79.10221
L 932.340677 78.848076
L 932.915538 77.672702
L 933.014464 77.418567
L 933.287264 77.037365
L 933.366144 76.814997
L 933.456771 76.656163
L 934.605186 75.226654
L 934.720872 75.004286
L 935.000726 74.623084
L 935.099301 74.46425
L 935.389165 74.273649
L 935.507432 74.114814
L 935.885746 73.797146
L 935.886997 73.701845
L 936.16126 73.574778
L 936.405581 73.320643
L 936.568396 73.034741
L 938.4178 70.556927
L 938.617732 70.398092
L 938.795384 70.207491
L 938.94988 69.858056
L 939.501746 69.381553
L 939.730693 69.254486
L 939.94666 68.841516
L 940.391332 68.365014
L 940.511145 68.174413
L 941.521972 66.967272
L 941.68241 66.808438
L 942.055298 66.363702
L 942.726124 66.014266
L 943.057675 65.220095
L 943.541892 65.061261
L 943.633835 64.87066
L 943.830722 64.648292
L 944.068913 64.235323
L 944.232212 64.076488
L 944.513492 63.85412
L 944.614978 63.75882
L 944.95009 63.568219
L 945.417967 63.059949
L 946.079705 62.615213
L 946.216753 62.392845
L 946.542701 62.075176
L 947.453766 60.868036
L 947.703225 60.677435
L 947.860228 60.455067
L 948.140378 60.296233
L 948.249462 59.91503
L 948.371465 59.692662
L 948.477643 59.597362
L 948.728232 59.279693
L 948.963258 59.089092
L 949.213993 58.898491
L 949.305608 58.739657
L 949.410604 58.580822
L 949.689144 58.231387
L 949.713247 58.167853
L 949.894462 58.009019
L 949.996608 57.532516
L 951.227052 56.547744
L 951.824907 56.357143
L 951.82919 56.325376
L 952.162602 56.198308
L 952.271284 56.007707
L 953.466813 55.308836
L 953.545334 55.150002
L 954.084634 54.705266
L 954.103703 54.641732
L 954.432369 54.482898
L 954.43342 54.451131
L 954.658533 54.324064
L 954.797955 54.101696
L 954.885767 53.942862
L 955.137923 53.815794
L 955.207703 53.752261
L 955.563197 53.593426
L 955.682002 53.466359
L 956.102803 53.275758
L 956.278416 53.085157
L 956.55405 52.894555
L 957.510234 52.322752
L 958.507035 51.94155
L 959.175998 51.528581
L 959.199531 51.465047
L 959.954646 51.115612
L 960.004511 50.893244
L 960.195133 50.734409
L 960.700551 50.448508
L 961.004292 50.289673
L 961.317787 50.130839
L 961.725869 49.972005
L 961.798986 49.876704
L 962.098575 49.71787
L 962.108479 49.686103
L 962.321991 49.559036
L 962.527655 49.241367
L 963.791644 48.60603
L 963.831267 48.51073
L 964.218138 48.288362
L 964.338519 48.065994
L 965.163829 47.811859
L 965.351292 47.684791
L 965.667416 47.462423
L 966.090062 47.303589
L 966.764836 47.049454
L 967.322428 46.858853
L 967.328194 46.827086
L 968.217922 46.572951
L 969.082302 46.159982
L 969.862527 45.969381
L 969.924669 45.874081
L 971.186872 45.588179
L 971.90833 45.206977
L 971.918041 45.17521
L 972.53203 44.984609
L 973.18576 44.762241
L 974.458231 44.57164
L 974.694651 44.412805
L 974.829295 44.285738
L 974.897444 44.253971
L 975.562461 44.095137
L 975.69061 43.936303
L 976.255818 43.745701
L 977.1155 43.491567
L 977.164201 43.428033
L 980.227105 42.856229
L 980.232413 42.792696
L 980.935281 42.665628
L 981.596805 42.506794
L 981.644664 42.475027
L 983.751598 42.189126
L 983.757584 42.157359
L 984.235093 42.030291
L 984.316384 41.934991
L 985.48536 41.74439
L 985.612319 41.617322
L 985.918565 41.426721
L 986.179748 41.267887
L 987.820336 40.981985
L 988.120066 40.823151
L 989.063018 40.72785
L 990.866498 40.569016
L 991.358067 40.441949
L 993.264979 40.251347
L 993.590358 40.060746
L 993.753241 39.933679
L 997.645136 39.743078
L 1007.758897 39.330109
L 1008.179447 39.234808
L 1021.150743 39.044207
L 1029.900974 38.917139
L 1047.834781 38.821839
L 1047.834781 38.821839
" style="fill:none;stroke:#008000;stroke-linecap:square;stroke-width:2;"/>
   </g>
   <g id="patch_8">
    <path d="M 631.350922 372.340456
L 631.350922 22.94
" style="fill:none;stroke:#000000;stroke-linecap:square;stroke-linejoin:miter;stroke-width:0.8;"/>
   </g>
   <g id="patch_9">
    <path d="M 1129.06 372.340456
L 1129.06 22.94
" style="fill:none;stroke:#000000;stroke-linecap:square;stroke-linejoin:miter;stroke-width:0.8;"/>
   </g>
   <g id="patch_10">
    <path d="M 631.350922 372.340456
L 1129.06 372.340456
" style="fill:none;stroke:#000000;stroke-linecap:square;stroke-linejoin:miter;stroke-width:0.8;"/>
   </g>
   <g id="patch_11">
    <path d="M 631.350922 22.94
L 1129.06 22.94
" style="fill:none;stroke:#000000;stroke-linecap:square;stroke-linejoin:miter;stroke-width:0.8;"/>
   </g>
   <g id="legend_1">
    <g id="patch_12">
     <path d="M 643.950922 112.604193
L 861.888377 112.604193
Q 865.488377 112.604193 865.488377 109.004193
L 865.488377 35.54
Q 865.488377 31.94 861.888377 31.94
L 643.950922 31.94
Q 640.350922 31.94 640.350922 35.54
L 640.350922 109.004193
Q 640.350922 112.604193 643.950922 112.604193
z
" style="fill:none;opacity:0.8;stroke:#cccccc;stroke-linejoin:miter;"/>
    </g>
    <g id="line2d_49">
     <path d="M 647.550922 45.44
L 683.550922 45.44
" style="fill:none;stroke:#000000;stroke-linecap:square;stroke-width:2;"/>
    </g>
    <g id="line2d_50"/>
    <g id="text_26">
     <!-- analytical -->
     <defs>
      <path d="M 36 25.875
C 36 32 36 35.546875 31.796875 39.59375
C 28.09375 42.984375 23.796875 44 20.40625 44
C 12.5 44 6.796875 37.625 6.796875 30.890625
C 6.796875 27.1875 9.796875 27 10.40625 27
C 11.703125 27 14 27.796875 14 30.59375
C 14 33.09375 12.09375 34.1875 10.40625 34.1875
C 10 34.1875 9.5 34.09375 9.203125 34
C 11.296875 40.53125 16.703125 42.390625 20.203125 42.390625
C 25.203125 42.390625 30.703125 37.828125 30.703125 29.296875
L 30.703125 25.5
C 24.796875 25.296875 17.703125 24.5 12.09375 21.453125
C 5.796875 17.921875 4 12.84375 4 9
C 4 1.203125 13 -1 18.296875 -1
C 23.796875 -1 28.90625 2.109375 31.09375 7.890625
C 31.296875 3.421875 34.09375 -0.609375 38.5 -0.609375
C 40.59375 -0.609375 45.90625 0.796875 45.90625 8.796875
L 45.90625 14.46875
L 44.09375 14.46875
L 44.09375 8.703125
C 44.09375 2.515625 41.40625 1.703125 40.09375 1.703125
C 36 1.703125 36 6.96875 36 11.4375
z
M 30.703125 13.859375
C 30.703125 5.046875 24.5 0.59375 19 0.59375
C 14 0.59375 10.09375 4.34375 10.09375 9
C 10.09375 12.046875 11.40625 17.40625 17.203125 20.65625
C 22 23.390625 27.5 23.796875 30.703125 24
z
" id="CMR17-97"/>
      <path d="M 41.5 30.53125
C 41.5 35.65625 40.5 44 28.703125 44
C 20.796875 44 16.703125 37.875 15.203125 33.84375
L 15.09375 33.84375
L 15.09375 44
L 3.296875 42.890625
L 3.296875 40.28125
C 9.203125 40.28125 10.09375 39.6875 10.09375 34.859375
L 10.09375 6.921875
C 10.09375 3.09375 9.703125 2.59375 3.296875 2.59375
L 3.296875 0
C 5.703125 0.1875 10.09375 0.1875 12.703125 0.1875
C 15.296875 0.1875 19.796875 0.1875 22.203125 0
L 22.203125 2.59375
C 15.796875 2.59375 15.40625 3 15.40625 6.921875
L 15.40625 26.21875
C 15.40625 35.453125 21 42.390625 28 42.390625
C 35.40625 42.390625 36.203125 35.765625 36.203125 30.9375
L 36.203125 6.921875
C 36.203125 3.09375 35.796875 2.59375 29.40625 2.59375
L 29.40625 0
C 31.796875 0.1875 36.203125 0.1875 38.796875 0.1875
C 41.40625 0.1875 45.90625 0.1875 48.296875 0
L 48.296875 2.59375
C 41.90625 2.59375 41.5 3 41.5 6.921875
z
" id="CMR17-110"/>
      <path d="M 15.296875 69
L 3.40625 67.890625
L 3.40625 65.296875
C 9.296875 65.296875 10.203125 64.703125 10.203125 59.921875
L 10.203125 6.859375
C 10.203125 3.09375 9.796875 2.59375 3.40625 2.59375
L 3.40625 0
C 5.796875 0.1875 10.203125 0.1875 12.703125 0.1875
C 15.296875 0.1875 19.703125 0.1875 22.09375 0
L 22.09375 2.59375
C 15.703125 2.59375 15.296875 2.984375 15.296875 6.859375
z
" id="CMR17-108"/>
      <path d="M 39 34.109375
C 41.5 40.296875 46 40.390625 47.40625 40.390625
L 47.40625 43
C 45.5 42.890625 43 42.796875 41.09375 42.796875
C 39 42.796875 35.703125 42.796875 33.703125 43
L 33.703125 40.390625
C 37.5 40.09375 37.59375 37.25 37.59375 36.4375
C 37.59375 35.4375 37.40625 34.921875 36.90625 33.71875
L 26 6.390625
L 14.09375 35.9375
C 13.59375 37.15625 13.59375 37.859375 13.59375 37.96875
C 13.59375 40.1875 15.90625 40.390625 18.296875 40.390625
L 18.296875 43
C 15.90625 42.796875 11.59375 42.796875 9.09375 42.796875
C 6.40625 42.796875 3.203125 42.796875 1 43
L 1 40.390625
C 6.40625 40.390625 7 39.890625 8.296875 36.640625
L 23.203125 -0.484375
C 18.703125 -12.421875 16.09375 -19.40625 9.796875 -19.40625
C 8.703125 -19.40625 6.203125 -19.109375 4.40625 -17.28125
C 6.703125 -17.078125 7.703125 -15.65625 7.703125 -13.9375
C 7.703125 -12.21875 6.5 -10.703125 4.5 -10.703125
C 2.296875 -10.703125 1.203125 -12.21875 1.203125 -14.046875
C 1.203125 -18.09375 5.296875 -21 9.796875 -21
C 15.59375 -21 19.203125 -15.359375 21.203125 -10.296875
z
" id="CMR17-121"/>
      <path d="M 15.09375 40.390625
L 29.09375 40.390625
L 29.09375 43
L 15.09375 43
L 15.09375 62
L 13.296875 62
C 13.09375 51.4375 9.59375 42.1875 1.09375 41.984375
L 1.09375 40.390625
L 9.796875 40.390625
L 9.796875 12.15625
C 9.796875 10.234375 9.796875 -1 21.40625 -1
C 27.296875 -1 30.703125 4.8125 30.703125 12.25
L 30.703125 17.984375
L 28.90625 17.984375
L 28.90625 12.34375
C 28.90625 5.421875 26.203125 0.796875 22 0.796875
C 19.09375 0.796875 15.09375 2.796875 15.09375 11.953125
z
" id="CMR17-116"/>
      <path d="M 15.5 61.890625
C 15.5 64.09375 13.703125 66 11.40625 66
C 9.203125 66 7.296875 64.1875 7.296875 61.890625
C 7.296875 59.6875 9.09375 57.796875 11.40625 57.796875
C 13.59375 57.796875 15.5 59.59375 15.5 61.890625
z
M 3.796875 42.890625
L 3.796875 40.296875
C 9.40625 40.296875 10.203125 39.6875 10.203125 34.859375
L 10.203125 6.921875
C 10.203125 3.09375 9.796875 2.59375 3.40625 2.59375
L 3.40625 0
C 5.796875 0.1875 10.09375 0.1875 12.59375 0.1875
C 15 0.1875 19.09375 0.1875 21.40625 0
L 21.40625 2.59375
C 15.5 2.59375 15.296875 3.203125 15.296875 6.8125
L 15.296875 44
z
" id="CMR17-105"/>
      <path d="M 34.90625 35
C 33 35 30.203125 35 30.203125 31.484375
C 30.203125 28.6875 32.5 27.890625 33.796875 27.890625
C 34.5 27.890625 37.40625 28.1875 37.40625 31.6875
C 37.40625 38.6875 30.59375 44 22.90625 44
C 12.296875 44 3.296875 34.390625 3.296875 21.546875
C 3.296875 8.140625 12.703125 -1 22.90625 -1
C 35.296875 -1 38.40625 10.5625 38.40625 11.671875
C 38.40625 12.078125 38.296875 12.375 37.59375 12.375
C 36.90625 12.375 36.796875 12.28125 36.40625 10.96875
C 33.796875 2.8125 28.09375 0.796875 23.796875 0.796875
C 17.40625 0.796875 9.703125 6.734375 9.703125 21.640625
C 9.703125 36.84375 17.09375 42.1875 23 42.1875
C 26.90625 42.1875 32.703125 40.34375 34.90625 35
z
" id="CMR17-99"/>
     </defs>
     <g transform="translate(687.150922 51.74)scale(0.18 -0.18)">
      <use transform="scale(0.996264)" xlink:href="#CMR17-97"/>
      <use transform="translate(45.690477 0)scale(0.996264)" xlink:href="#CMR17-110"/>
      <use transform="translate(96.585847 0)scale(0.996264)" xlink:href="#CMR17-97"/>
      <use transform="translate(142.276324 0)scale(0.996264)" xlink:href="#CMR17-108"/>
      <use transform="translate(167.147382 0)scale(0.996264)" xlink:href="#CMR17-121"/>
      <use transform="translate(215.440298 0)scale(0.996264)" xlink:href="#CMR17-116"/>
      <use transform="translate(250.721066 0)scale(0.996264)" xlink:href="#CMR17-105"/>
      <use transform="translate(275.592125 0)scale(0.996264)" xlink:href="#CMR17-99"/>
      <use transform="translate(316.077785 0)scale(0.996264)" xlink:href="#CMR17-97"/>
      <use transform="translate(361.768262 0)scale(0.996264)" xlink:href="#CMR17-108"/>
     </g>
    </g>
    <g id="line2d_51">
     <path d="M 647.550922 70.528064
L 683.550922 70.528064
" style="fill:none;stroke:#ff0000;stroke-linecap:square;stroke-width:2;"/>
    </g>
    <g id="line2d_52"/>
    <g id="text_27">
     <!-- discrete CDF -->
     <defs>
      <path d="M 29.203125 67.890625
L 29.203125 65.296875
C 35.09375 65.296875 36 64.703125 36 60.046875
L 36 37.046875
C 35.59375 37.546875 31.5 44 23.40625 44
C 13.203125 44 3.296875 34.8125 3.296875 21.5
C 3.296875 8.265625 12.59375 -1 22.40625 -1
C 30.90625 -1 35.296875 5.640625 35.796875 6.34375
L 35.796875 -1
L 47.90625 -0.203125
L 47.90625 2.40625
C 42 2.40625 41.09375 3.015625 41.09375 7.859375
L 41.09375 69
z
M 35.796875 11.90625
C 35.796875 8.875 34 6.140625 31.703125 4.125
C 28.296875 1.09375 24.90625 0.59375 23 0.59375
C 20.09375 0.59375 9.703125 2.109375 9.703125 21.390625
C 9.703125 41.1875 21.296875 42.390625 23.90625 42.390625
C 28.5 42.390625 32.203125 39.765625 34.5 36.140625
C 35.796875 34.015625 35.796875 33.703125 35.796875 31.890625
z
" id="CMR17-100"/>
      <path d="M 30.90625 42
C 30.90625 43.796875 30.796875 43.890625 30.203125 43.890625
C 29.796875 43.890625 29.703125 43.796875 28.5 42.296875
C 28.203125 41.890625 27.296875 40.890625 27 40.5
C 23.796875 43.890625 19.296875 44 17.59375 44
C 6.5 44 2.5 38.1875 2.5 32.390625
C 2.5 23.390625 12.703125 21.296875 15.59375 20.6875
C 21.90625 19.390625 24.09375 19 26.203125 17.1875
C 27.5 16 29.703125 13.796875 29.703125 10.1875
C 29.703125 6 27.296875 0.59375 18.09375 0.59375
C 9.40625 0.59375 6.296875 7.1875 4.5 16
C 4.203125 17.390625 4.203125 17.5 3.40625 17.5
C 2.59375 17.5 2.5 17.390625 2.5 15.390625
L 2.5 1
C 2.5 -0.8125 2.59375 -0.90625 3.203125 -0.90625
C 3.703125 -0.90625 3.796875 -0.8125 4.296875 0
C 4.90625 0.890625 6.40625 3.296875 7 4.296875
C 9 1.59375 12.5 -1 18.09375 -1
C 28 -1 33.296875 4.390625 33.296875 12.1875
C 33.296875 17.296875 30.59375 20 29.296875 21.1875
C 26.296875 24.296875 22.796875 25 18.59375 25.796875
C 13.09375 27 6.09375 28.390625 6.09375 34.5
C 6.09375 37.09375 7.5 42.59375 17.59375 42.59375
C 28.296875 42.59375 28.90625 32.59375 29.09375 29.390625
C 29.203125 28.890625 29.703125 28.796875 30 28.796875
C 30.90625 28.796875 30.90625 29.09375 30.90625 30.796875
z
" id="CMR17-115"/>
      <path d="M 15 23.703125
C 15 33.34375 19.09375 42.390625 26.59375 42.390625
C 27.296875 42.390625 28 42.296875 28.703125 41.984375
C 28.703125 41.984375 26.5 41.28125 26.5 38.671875
C 26.5 36.265625 28.40625 35.265625 29.90625 35.265625
C 31.09375 35.265625 33.296875 35.96875 33.296875 38.78125
C 33.296875 41.984375 30.09375 44 26.703125 44
C 19.09375 44 15.796875 36.5625 14.796875 33.046875
L 14.703125 33.046875
L 14.703125 44
L 3.09375 42.890625
L 3.09375 40.28125
C 9 40.28125 9.90625 39.6875 9.90625 34.859375
L 9.90625 6.921875
C 9.90625 3.09375 9.5 2.59375 3.09375 2.59375
L 3.09375 0
C 5.5 0.1875 10.09375 0.1875 12.703125 0.1875
C 15.59375 0.1875 20.703125 0.1875 23.40625 0
L 23.40625 2.59375
C 16.203125 2.59375 15 2.59375 15 7.109375
z
" id="CMR17-114"/>
      <path d="M 38.09375 23.484375
C 38.5 23.890625 38.5 24.09375 38.5 25.09375
C 38.5 35.171875 33.09375 44 21.703125 44
C 11.09375 44 2.703125 33.984375 2.703125 21.78125
C 2.703125 8.65625 12.203125 -1 22.796875 -1
C 34 -1 38.40625 9.671875 38.40625 11.796875
C 38.40625 12.5 37.796875 12.5 37.59375 12.5
C 36.90625 12.5 36.796875 12.296875 36.40625 11.078125
C 34.203125 4.21875 28.703125 0.796875 23.5 0.796875
C 19.203125 0.796875 14.90625 3.21875 12.203125 7.65625
C 9.09375 12.796875 9.09375 18.75 9.09375 23.484375
z
M 9.203125 25
C 9.90625 39.234375 17.59375 42.390625 21.59375 42.390625
C 28.40625 42.390625 33 36.0625 33.09375 25
z
" id="CMR17-101"/>
      <path d="M 62.09375 67.984375
C 62.09375 69.796875 62 69.890625 61.40625 69.890625
C 61 69.890625 60.90625 69.796875 60.203125 68.59375
L 55.796875 60.140625
C 50.90625 66.390625 44.90625 70 37.203125 70
C 20.09375 70 4.59375 54.796875 4.59375 34.046875
C 4.59375 13.078125 20.09375 -2 37.296875 -2
C 52.59375 -2 62.09375 11.578125 62.09375 23.15625
C 62.09375 24.171875 62.09375 24.578125 61.203125 24.578125
C 60.40625 24.578125 60.40625 24.265625 60.296875 23.359375
C 59.5 9.25 49.5 0.59375 38.703125 0.59375
C 28.5 0.59375 12.203125 7.84375 12.203125 34.046875
C 12.203125 60.34375 28.796875 67.390625 38.5 67.390625
C 49.796875 67.390625 58 57.515625 59.90625 43.515625
C 60.09375 42.296875 60.09375 42.109375 61 42.109375
C 62.09375 42.109375 62.09375 42.296875 62.09375 44.125
z
" id="CMR17-67"/>
      <path d="M 5.203125 68
L 5.203125 65.390625
C 12.09375 65.390625 13.203125 65.390625 13.203125 60.90625
L 13.203125 7.078125
C 13.203125 2.59375 12.09375 2.59375 5.203125 2.59375
L 5.203125 0
L 37 0
C 53.09375 0 66 14.734375 66 33.4375
C 66 52.25 53.296875 68 37 68
z
M 23.796875 2.59375
C 19.796875 2.59375 19.59375 3.09375 19.59375 6.46875
L 19.59375 61.5
C 19.59375 64.890625 19.796875 65.390625 23.796875 65.390625
L 35 65.390625
C 43.296875 65.390625 58.59375 60.515625 58.59375 33.4375
C 58.59375 19.40625 54.5 13.734375 52.59375 11.046875
C 50.203125 7.96875 44.5 2.59375 35 2.59375
z
" id="CMR17-68"/>
      <path d="M 54.40625 67.796875
L 5.09375 67.796875
L 5.09375 65.1875
C 12 65.1875 13.09375 65.1875 13.09375 60.671875
L 13.09375 7.03125
C 13.09375 2.59375 12 2.59375 5.09375 2.59375
L 5.09375 0
C 8 0.1875 13.59375 0.1875 16.703125 0.1875
C 20.796875 0.1875 25.59375 0.1875 29.703125 0
L 29.703125 2.59375
L 27.5 2.59375
C 19.90625 2.59375 19.703125 3.578125 19.703125 7.125
L 19.703125 32.390625
L 28.703125 32.390625
C 38 32.390625 38.90625 29.140625 38.90625 20.84375
L 40.703125 20.84375
L 40.703125 46.734375
L 38.90625 46.734375
C 38.90625 38.296875 38 35 28.703125 35
L 19.703125 35
L 19.703125 61.28125
C 19.703125 64.6875 19.90625 65.1875 23.90625 65.1875
L 36.796875 65.1875
C 51.90625 65.1875 53.59375 58.96875 55 45.625
L 56.796875 45.625
z
" id="CMR17-70"/>
     </defs>
     <g transform="translate(687.150922 76.828064)scale(0.18 -0.18)">
      <use transform="scale(0.996264)" xlink:href="#CMR17-100"/>
      <use transform="translate(50.89537 0)scale(0.996264)" xlink:href="#CMR17-105"/>
      <use transform="translate(75.766428 0)scale(0.996264)" xlink:href="#CMR17-115"/>
      <use transform="translate(111.567766 0)scale(0.996264)" xlink:href="#CMR17-99"/>
      <use transform="translate(152.053426 0)scale(0.996264)" xlink:href="#CMR17-114"/>
      <use transform="translate(187.334194 0)scale(0.996264)" xlink:href="#CMR17-101"/>
      <use transform="translate(227.819855 0)scale(0.996264)" xlink:href="#CMR17-116"/>
      <use transform="translate(263.100622 0)scale(0.996264)" xlink:href="#CMR17-101"/>
      <use transform="translate(333.662249 0)scale(0.996264)" xlink:href="#CMR17-67"/>
      <use transform="translate(400.17213 0)scale(0.996264)" xlink:href="#CMR17-68"/>
      <use transform="translate(470.565686 0)scale(0.996264)" xlink:href="#CMR17-70"/>
     </g>
    </g>
    <g id="line2d_53">
     <path d="M 647.550922 95.616128
L 683.550922 95.616128
" style="fill:none;stroke:#008000;stroke-linecap:square;stroke-width:2;"/>
    </g>
    <g id="line2d_54"/>
    <g id="text_28">
     <!-- drawn random numbers -->
     <defs>
      <path d="M 58.203125 34.15625
C 60.203125 40.09375 64.203125 40.296875 65.703125 40.390625
L 65.703125 43
C 63.703125 42.890625 61.703125 42.796875 59.703125 42.796875
C 57.796875 42.796875 53.5 42.796875 51.796875 43
L 51.796875 40.390625
C 54.90625 40.1875 56.59375 38.375 56.59375 35.875
C 56.59375 35.171875 56.40625 34.265625 56.203125 33.5625
L 46.796875 6.21875
L 36.59375 35.875
C 36.40625 36.578125 36.09375 37.375 36.09375 37.78125
C 36.09375 40.390625 39.5 40.390625 41.09375 40.390625
L 41.09375 43
C 38.796875 42.796875 34.59375 42.796875 32.203125 42.796875
C 29.703125 42.796875 27.09375 42.796875 24.796875 43
L 24.796875 40.390625
C 30.296875 40.390625 30.296875 40.1875 32.40625 33.859375
L 23.203125 6.921875
L 13.296875 35.96875
C 12.796875 37.28125 12.796875 37.484375 12.796875 37.78125
C 12.796875 40.390625 16.203125 40.390625 17.796875 40.390625
L 17.796875 43
C 15.40625 42.796875 11.203125 42.796875 8.703125 42.796875
C 6.5 42.796875 3.09375 42.796875 1 43
L 1 40.390625
C 5.40625 40.390625 6.5 40.09375 7.59375 36.765625
L 19.90625 0.59375
C 20.296875 -0.703125 20.59375 -1 21.40625 -1
C 22.09375 -1 22.5 -0.8125 23 0.6875
L 33.296875 31.046875
L 43.703125 0.6875
C 44.203125 -0.8125 44.59375 -1 45.296875 -1
C 46.09375 -1 46.40625 -0.703125 46.796875 0.59375
z
" id="CMR17-119"/>
      <path d="M 43.09375 21.1875
C 43.09375 34 33.796875 44 22.90625 44
C 12 44 2.703125 34 2.703125 21.1875
C 2.703125 8.59375 12 -1 22.90625 -1
C 33.796875 -1 43.09375 8.59375 43.09375 21.1875
z
M 22.90625 0.796875
C 18.203125 0.796875 14.203125 3.59375 11.90625 7.5
C 9.40625 12 9.09375 17.59375 9.09375 22
C 9.09375 26.1875 9.296875 31.390625 11.90625 35.890625
C 13.90625 39.1875 17.796875 42.390625 22.90625 42.390625
C 27.40625 42.390625 31.203125 39.890625 33.59375 36.390625
C 36.703125 31.6875 36.703125 25.09375 36.703125 22
C 36.703125 18.09375 36.5 12.09375 33.796875 7.296875
C 31 2.6875 26.703125 0.796875 22.90625 0.796875
z
" id="CMR17-111"/>
      <path d="M 67.59375 30.53125
C 67.59375 35.5625 66.703125 44 54.796875 44
C 48 44 43.296875 39.375 41.5 33.953125
L 41.40625 33.953125
C 40.203125 42.1875 34.296875 44 28.703125 44
C 20.796875 44 16.703125 37.875 15.203125 33.84375
L 15.09375 33.84375
L 15.09375 44
L 3.296875 42.890625
L 3.296875 40.28125
C 9.203125 40.28125 10.09375 39.6875 10.09375 34.859375
L 10.09375 6.921875
C 10.09375 3.09375 9.703125 2.59375 3.296875 2.59375
L 3.296875 0
C 5.703125 0.1875 10.09375 0.1875 12.703125 0.1875
C 15.296875 0.1875 19.796875 0.1875 22.203125 0
L 22.203125 2.59375
C 15.796875 2.59375 15.40625 3 15.40625 6.921875
L 15.40625 26.21875
C 15.40625 35.453125 21 42.390625 28 42.390625
C 35.40625 42.390625 36.203125 35.765625 36.203125 30.9375
L 36.203125 6.921875
C 36.203125 3.09375 35.796875 2.59375 29.40625 2.59375
L 29.40625 0
C 31.796875 0.1875 36.203125 0.1875 38.796875 0.1875
C 41.40625 0.1875 45.90625 0.1875 48.296875 0
L 48.296875 2.59375
C 41.90625 2.59375 41.5 3 41.5 6.921875
L 41.5 26.21875
C 41.5 35.453125 47.09375 42.390625 54.09375 42.390625
C 61.5 42.390625 62.296875 35.765625 62.296875 30.9375
L 62.296875 6.921875
C 62.296875 3.09375 61.90625 2.59375 55.5 2.59375
L 55.5 0
C 57.90625 0.1875 62.296875 0.1875 64.90625 0.1875
C 67.5 0.1875 72 0.1875 74.40625 0
L 74.40625 2.59375
C 68 2.59375 67.59375 3 67.59375 6.921875
z
" id="CMR17-109"/>
      <path d="M 29.40625 42.890625
L 29.40625 40.296875
C 35.296875 40.296875 36.203125 39.6875 36.203125 34.828125
L 36.203125 16.453125
C 36.203125 7.96875 31.703125 0.59375 24.296875 0.59375
C 16.09375 0.59375 15.40625 5.546875 15.40625 10.796875
L 15.40625 44
L 3.296875 42.890625
L 3.296875 40.296875
C 7.296875 40.296875 10 40.296875 10.09375 36.25
L 10.09375 16.859375
C 10.09375 10.09375 10.09375 5.75 12.703125 2.921875
C 14 1.609375 16.5 -1 23.703125 -1
C 32.203125 -1 35.5 6.25 36.296875 8.375
L 36.40625 8.375
L 36.40625 -1
L 48.296875 -0.203125
L 48.296875 2.40625
C 42.40625 2.40625 41.5 3.015625 41.5 7.859375
L 41.5 44
z
" id="CMR17-117"/>
      <path d="M 15 69
L 3.09375 67.890625
L 3.09375 65.296875
C 9 65.296875 9.90625 64.703125 9.90625 60.046875
L 9.90625 -0.203125
L 11.703125 -0.203125
L 14.59375 6.953125
C 17.5 2.203125 21.796875 -1 27.59375 -1
C 37.59375 -1 47.703125 7.859375 47.703125 21.59375
C 47.703125 34.515625 38.703125 44 28.59375 44
C 22.40625 44 18 40.671875 15 36.734375
z
M 15.203125 31.59375
C 15.203125 33.40625 15.203125 33.703125 16.59375 35.828125
C 20.5 41.890625 26.09375 42.390625 28 42.390625
C 31 42.390625 41.296875 40.78125 41.296875 21.6875
C 41.296875 1.703125 29.5 0.59375 27.09375 0.59375
C 24 0.59375 19.5 1.796875 16.296875 7.65625
C 15.203125 9.578125 15.203125 9.78125 15.203125 11.59375
z
" id="CMR17-98"/>
     </defs>
     <g transform="translate(687.150922 101.916128)scale(0.18 -0.18)">
      <use transform="scale(0.996264)" xlink:href="#CMR17-100"/>
      <use transform="translate(50.89537 0)scale(0.996264)" xlink:href="#CMR17-114"/>
      <use transform="translate(86.176138 0)scale(0.996264)" xlink:href="#CMR17-97"/>
      <use transform="translate(129.264161 0)scale(0.996264)" xlink:href="#CMR17-119"/>
      <use transform="translate(195.774041 0)scale(0.996264)" xlink:href="#CMR17-110"/>
      <use transform="translate(276.745377 0)scale(0.996264)" xlink:href="#CMR17-114"/>
      <use transform="translate(312.026145 0)scale(0.996264)" xlink:href="#CMR17-97"/>
      <use transform="translate(357.716622 0)scale(0.996264)" xlink:href="#CMR17-110"/>
      <use transform="translate(408.611992 0)scale(0.996264)" xlink:href="#CMR17-100"/>
      <use transform="translate(459.507362 0)scale(0.996264)" xlink:href="#CMR17-111"/>
      <use transform="translate(505.197839 0)scale(0.996264)" xlink:href="#CMR17-109"/>
      <use transform="translate(612.193395 0)scale(0.996264)" xlink:href="#CMR17-110"/>
      <use transform="translate(660.486311 0)scale(0.996264)" xlink:href="#CMR17-117"/>
      <use transform="translate(711.381681 0)scale(0.996264)" xlink:href="#CMR17-109"/>
      <use transform="translate(785.698817 0)scale(0.996264)" xlink:href="#CMR17-98"/>
      <use transform="translate(839.196625 0)scale(0.996264)" xlink:href="#CMR17-101"/>
      <use transform="translate(879.682286 0)scale(0.996264)" xlink:href="#CMR17-114"/>
      <use transform="translate(914.963054 0)scale(0.996264)" xlink:href="#CMR17-115"/>
     </g>
    </g>
   </g>
  </g>
 </g>
 <defs>
  <clipPath id="p382399413b">
   <rect height="349.400456" width="497.709078" x="65.070922" y="22.94"/>
  </clipPath>
  <clipPath id="ped76093ff1">
   <rect height="349.400456" width="497.709078" x="631.350922" y="22.94"/>
  </clipPath>
 </defs>
</svg>
