<?xml version="1.0" encoding="utf-8" standalone="no"?>
<!DOCTYPE svg PUBLIC "-//W3C//DTD SVG 1.1//EN"
  "http://www.w3.org/Graphics/SVG/1.1/DTD/svg11.dtd">
<svg xmlns:xlink="http://www.w3.org/1999/xlink" width="576pt" height="432pt" viewBox="0 0 576 432" xmlns="http://www.w3.org/2000/svg" version="1.1">
 <metadata>
  <rdf:RDF xmlns:dc="http://purl.org/dc/elements/1.1/" xmlns:cc="http://creativecommons.org/ns#" xmlns:rdf="http://www.w3.org/1999/02/22-rdf-syntax-ns#">
   <cc:Work>
    <dc:type rdf:resource="http://purl.org/dc/dcmitype/StillImage"/>
    <dc:date>2022-12-07T17:12:31.521653</dc:date>
    <dc:format>image/svg+xml</dc:format>
    <dc:creator>
     <cc:Agent>
      <dc:title>Matplotlib v3.6.2, https://matplotlib.org/</dc:title>
     </cc:Agent>
    </dc:creator>
   </cc:Work>
  </rdf:RDF>
 </metadata>
 <defs>
  <style type="text/css">*{stroke-linejoin: round; stroke-linecap: butt}</style>
 </defs>
 <g id="figure_1">
  <g id="patch_1">
   <path d="M 0 432
L 576 432
L 576 0
L 0 0
L 0 432
z
" style="fill: none"/>
  </g>
  <g id="axes_1">
   <g id="patch_2">
    <path d="M 33.753304 392.281821
L 552.903348 392.281821
L 552.903348 24.626795
L 33.753304 24.626795
L 33.753304 392.281821
z
" style="fill: none"/>
   </g>
   <g id="matplotlib.axis_1">
    <g id="xtick_1">
     <g id="line2d_1">
      <defs>
       <path id="m329001dfc2" d="M 0 0
L 0 3.5
" style="stroke: #000000; stroke-width: 0.8"/>
      </defs>
      <g>
       <use xlink:href="#m329001dfc2" x="33.753304" y="392.281821" style="stroke: #000000; stroke-width: 0.8"/>
      </g>
     </g>
     <g id="line2d_2">
      <defs>
       <path id="md9f44f8df0" d="M 0 0
L 0 -3.5
" style="stroke: #000000; stroke-width: 0.8"/>
      </defs>
      <g>
       <use xlink:href="#md9f44f8df0" x="33.753304" y="24.626795" style="stroke: #000000; stroke-width: 0.8"/>
      </g>
     </g>
     <g id="text_1">
      <!-- $\mathdefault{0}$ -->
      <g transform="translate(30.096652 409.655411) scale(0.14994 -0.14994)">
       <defs>
        <path id="CMR17-30" d="M 2688 2038
C 2688 2430 2682 3099 2413 3613
C 2176 4063 1798 4224 1466 4224
C 1158 4224 768 4082 525 3620
C 269 3137 243 2539 243 2038
C 243 1671 250 1112 448 623
C 723 -39 1216 -128 1466 -128
C 1760 -128 2208 -7 2470 604
C 2662 1048 2688 1568 2688 2038
z
M 1466 -26
C 1056 -26 813 328 723 816
C 653 1196 653 1749 653 2109
C 653 2604 653 3015 736 3407
C 858 3954 1216 4121 1466 4121
C 1728 4121 2067 3947 2189 3420
C 2272 3054 2278 2623 2278 2109
C 2278 1691 2278 1176 2202 797
C 2067 96 1690 -26 1466 -26
z
" transform="scale(0.015625)"/>
       </defs>
       <use xlink:href="#CMR17-30" transform="scale(0.996264)"/>
      </g>
     </g>
    </g>
    <g id="xtick_2">
     <g id="line2d_3">
      <g>
       <use xlink:href="#m329001dfc2" x="137.583313" y="392.281821" style="stroke: #000000; stroke-width: 0.8"/>
      </g>
     </g>
     <g id="line2d_4">
      <g>
       <use xlink:href="#md9f44f8df0" x="137.583313" y="24.626795" style="stroke: #000000; stroke-width: 0.8"/>
      </g>
     </g>
    </g>
    <g id="xtick_3">
     <g id="line2d_5">
      <g>
       <use xlink:href="#m329001dfc2" x="241.413322" y="392.281821" style="stroke: #000000; stroke-width: 0.8"/>
      </g>
     </g>
     <g id="line2d_6">
      <g>
       <use xlink:href="#md9f44f8df0" x="241.413322" y="24.626795" style="stroke: #000000; stroke-width: 0.8"/>
      </g>
     </g>
    </g>
    <g id="xtick_4">
     <g id="line2d_7">
      <g>
       <use xlink:href="#m329001dfc2" x="345.24333" y="392.281821" style="stroke: #000000; stroke-width: 0.8"/>
      </g>
     </g>
     <g id="line2d_8">
      <g>
       <use xlink:href="#md9f44f8df0" x="345.24333" y="24.626795" style="stroke: #000000; stroke-width: 0.8"/>
      </g>
     </g>
    </g>
    <g id="xtick_5">
     <g id="line2d_9">
      <g>
       <use xlink:href="#m329001dfc2" x="449.073339" y="392.281821" style="stroke: #000000; stroke-width: 0.8"/>
      </g>
     </g>
     <g id="line2d_10">
      <g>
       <use xlink:href="#md9f44f8df0" x="449.073339" y="24.626795" style="stroke: #000000; stroke-width: 0.8"/>
      </g>
     </g>
    </g>
    <g id="xtick_6">
     <g id="line2d_11">
      <g>
       <use xlink:href="#m329001dfc2" x="552.903348" y="392.281821" style="stroke: #000000; stroke-width: 0.8"/>
      </g>
     </g>
     <g id="line2d_12">
      <g>
       <use xlink:href="#md9f44f8df0" x="552.903348" y="24.626795" style="stroke: #000000; stroke-width: 0.8"/>
      </g>
     </g>
     <g id="text_2">
      <!-- $\mathdefault{1}$ -->
      <g transform="translate(549.246696 409.655411) scale(0.14994 -0.14994)">
       <defs>
        <path id="CMR17-31" d="M 1702 4083
C 1702 4217 1696 4224 1606 4224
C 1357 3927 979 3833 621 3820
C 602 3820 570 3820 563 3808
C 557 3795 557 3782 557 3648
C 755 3648 1088 3686 1344 3839
L 1344 467
C 1344 243 1331 166 781 166
L 589 166
L 589 0
C 896 6 1216 12 1523 12
C 1830 12 2150 6 2458 0
L 2458 166
L 2266 166
C 1715 166 1702 236 1702 467
L 1702 4083
z
" transform="scale(0.015625)"/>
       </defs>
       <use xlink:href="#CMR17-31" transform="scale(0.996264)"/>
      </g>
     </g>
    </g>
   </g>
   <g id="matplotlib.axis_2">
    <g id="ytick_1">
     <g id="line2d_13">
      <defs>
       <path id="m1a5ce27cb3" d="M 0 0
L -3.5 0
" style="stroke: #000000; stroke-width: 0.8"/>
      </defs>
      <g>
       <use xlink:href="#m1a5ce27cb3" x="33.753304" y="392.281821" style="stroke: #000000; stroke-width: 0.8"/>
      </g>
     </g>
     <g id="line2d_14">
      <defs>
       <path id="mfe442db85c" d="M 0 0
L 3.5 0
" style="stroke: #000000; stroke-width: 0.8"/>
      </defs>
      <g>
       <use xlink:href="#mfe442db85c" x="552.903348" y="392.281821" style="stroke: #000000; stroke-width: 0.8"/>
      </g>
     </g>
     <g id="text_3">
      <!-- $\mathdefault{0}$ -->
      <g transform="translate(19.44 397.468616) scale(0.14994 -0.14994)">
       <use xlink:href="#CMR17-30" transform="scale(0.996264)"/>
      </g>
     </g>
    </g>
    <g id="ytick_2">
     <g id="line2d_15">
      <g>
       <use xlink:href="#m1a5ce27cb3" x="33.753304" y="318.750816" style="stroke: #000000; stroke-width: 0.8"/>
      </g>
     </g>
     <g id="line2d_16">
      <g>
       <use xlink:href="#mfe442db85c" x="552.903348" y="318.750816" style="stroke: #000000; stroke-width: 0.8"/>
      </g>
     </g>
    </g>
    <g id="ytick_3">
     <g id="line2d_17">
      <g>
       <use xlink:href="#m1a5ce27cb3" x="33.753304" y="245.21981" style="stroke: #000000; stroke-width: 0.8"/>
      </g>
     </g>
     <g id="line2d_18">
      <g>
       <use xlink:href="#mfe442db85c" x="552.903348" y="245.21981" style="stroke: #000000; stroke-width: 0.8"/>
      </g>
     </g>
    </g>
    <g id="ytick_4">
     <g id="line2d_19">
      <g>
       <use xlink:href="#m1a5ce27cb3" x="33.753304" y="171.688805" style="stroke: #000000; stroke-width: 0.8"/>
      </g>
     </g>
     <g id="line2d_20">
      <g>
       <use xlink:href="#mfe442db85c" x="552.903348" y="171.688805" style="stroke: #000000; stroke-width: 0.8"/>
      </g>
     </g>
    </g>
    <g id="ytick_5">
     <g id="line2d_21">
      <g>
       <use xlink:href="#m1a5ce27cb3" x="33.753304" y="98.1578" style="stroke: #000000; stroke-width: 0.8"/>
      </g>
     </g>
     <g id="line2d_22">
      <g>
       <use xlink:href="#mfe442db85c" x="552.903348" y="98.1578" style="stroke: #000000; stroke-width: 0.8"/>
      </g>
     </g>
    </g>
    <g id="ytick_6">
     <g id="line2d_23">
      <g>
       <use xlink:href="#m1a5ce27cb3" x="33.753304" y="24.626795" style="stroke: #000000; stroke-width: 0.8"/>
      </g>
     </g>
     <g id="line2d_24">
      <g>
       <use xlink:href="#mfe442db85c" x="552.903348" y="24.626795" style="stroke: #000000; stroke-width: 0.8"/>
      </g>
     </g>
     <g id="text_4">
      <!-- $\mathdefault{1}$ -->
      <g transform="translate(19.44 29.81359) scale(0.14994 -0.14994)">
       <use xlink:href="#CMR17-31" transform="scale(0.996264)"/>
      </g>
     </g>
    </g>
   </g>
   <g id="line2d_25">
    <path d="M 33.753304 392.281821
L 42.587689 392.175356
L 51.422074 391.85596
L 60.256459 391.323635
L 69.090844 390.578379
L 77.92523 389.620193
L 86.759615 388.449076
L 95.594 387.06503
L 104.428385 385.468053
L 113.78244 383.545049
L 123.136495 381.383328
L 132.49055 378.98289
L 141.844604 376.343733
L 151.198659 373.46586
L 160.552714 370.349268
L 169.906769 366.993959
L 179.260824 363.399932
L 188.614879 359.567187
L 197.968933 355.495725
L 207.322988 351.185545
L 216.677043 346.636648
L 226.031098 341.849033
L 235.385153 336.8227
L 245.258877 331.258147
L 255.132602 325.427616
L 265.006327 319.331106
L 274.880051 312.968617
L 284.753776 306.34015
L 294.6275 299.445704
L 304.501225 292.28528
L 314.374949 284.858877
L 324.248674 277.166495
L 334.642068 268.781906
L 345.035463 260.102604
L 355.428857 251.128588
L 365.822251 241.859859
L 376.215645 232.296418
L 386.60904 222.438263
L 397.002434 212.285395
L 407.915498 201.307698
L 418.828562 190.00508
L 429.741626 178.377541
L 440.65469 166.425081
L 451.567754 154.147699
L 462.480818 141.545397
L 473.913552 127.994486
L 485.346285 114.086972
L 496.779019 99.822856
L 508.211753 85.202136
L 519.644486 70.224814
L 531.07722 54.890889
L 543.029624 38.478681
L 552.903348 24.626795
L 552.903348 24.626795
" clip-path="url(#p070fcd2750)" style="fill: none; stroke: #000000; stroke-width: 2; stroke-linecap: square"/>
   </g>
   <g id="patch_3">
    <path d="M 33.753304 392.281821
L 33.753304 24.626795
" style="fill: none; stroke: #000000; stroke-width: 0.8; stroke-linejoin: miter; stroke-linecap: square"/>
   </g>
   <g id="patch_4">
    <path d="M 552.903348 392.281821
L 552.903348 24.626795
" style="fill: none; stroke: #000000; stroke-width: 0.8; stroke-linejoin: miter; stroke-linecap: square"/>
   </g>
   <g id="patch_5">
    <path d="M 33.753304 392.281821
L 552.903348 392.281821
" style="fill: none; stroke: #000000; stroke-width: 0.8; stroke-linejoin: miter; stroke-linecap: square"/>
   </g>
   <g id="patch_6">
    <path d="M 33.753304 24.626795
L 552.903348 24.626795
" style="fill: none; stroke: #000000; stroke-width: 0.8; stroke-linejoin: miter; stroke-linecap: square"/>
   </g>
  </g>
 </g>
 <defs>
  <clipPath id="p070fcd2750">
   <rect x="33.753304" y="24.626795" width="519.150044" height="367.655026"/>
  </clipPath>
 </defs>
</svg>
