<?xml version="1.0" encoding="utf-8" standalone="no"?>
<!DOCTYPE svg PUBLIC "-//W3C//DTD SVG 1.1//EN"
  "http://www.w3.org/Graphics/SVG/1.1/DTD/svg11.dtd">
<svg xmlns:xlink="http://www.w3.org/1999/xlink" width="576pt" height="432pt" viewBox="0 0 576 432" xmlns="http://www.w3.org/2000/svg" version="1.1">
 <metadata>
  <rdf:RDF xmlns:dc="http://purl.org/dc/elements/1.1/" xmlns:cc="http://creativecommons.org/ns#" xmlns:rdf="http://www.w3.org/1999/02/22-rdf-syntax-ns#">
   <cc:Work>
    <dc:type rdf:resource="http://purl.org/dc/dcmitype/StillImage"/>
    <dc:date>2022-12-07T14:10:50.279840</dc:date>
    <dc:format>image/svg+xml</dc:format>
    <dc:creator>
     <cc:Agent>
      <dc:title>Matplotlib v3.6.2, https://matplotlib.org/</dc:title>
     </cc:Agent>
    </dc:creator>
   </cc:Work>
  </rdf:RDF>
 </metadata>
 <defs>
  <style type="text/css">*{stroke-linejoin: round; stroke-linecap: butt}</style>
 </defs>
 <g id="figure_1">
  <g id="patch_1">
   <path d="M 0 432
L 576 432
L 576 0
L 0 0
L 0 432
z
" style="fill: none"/>
  </g>
  <g id="axes_1">
   <g id="patch_2">
    <path d="M 45.129558 392.281821
L 547.215221 392.281821
L 547.215221 24.626795
L 45.129558 24.626795
L 45.129558 392.281821
z
" style="fill: none"/>
   </g>
   <g id="matplotlib.axis_1">
    <g id="xtick_1">
     <g id="line2d_1">
      <defs>
       <path id="m1ada12e871" d="M 0 0
L 0 3.5
" style="stroke: #000000; stroke-width: 0.8"/>
      </defs>
      <g>
       <use xlink:href="#m1ada12e871" x="45.129558" y="392.281821" style="stroke: #000000; stroke-width: 0.8"/>
      </g>
     </g>
     <g id="line2d_2">
      <defs>
       <path id="m474fb108af" d="M 0 0
L 0 -3.5
" style="stroke: #000000; stroke-width: 0.8"/>
      </defs>
      <g>
       <use xlink:href="#m474fb108af" x="45.129558" y="24.626795" style="stroke: #000000; stroke-width: 0.8"/>
      </g>
     </g>
     <g id="text_1">
      <!-- $\mathdefault{0.0}$ -->
      <g transform="translate(35.784779 409.655411) scale(0.14994 -0.14994)">
       <defs>
        <path id="CMR17-30" d="M 2688 2038
C 2688 2430 2682 3099 2413 3613
C 2176 4063 1798 4224 1466 4224
C 1158 4224 768 4082 525 3620
C 269 3137 243 2539 243 2038
C 243 1671 250 1112 448 623
C 723 -39 1216 -128 1466 -128
C 1760 -128 2208 -7 2470 604
C 2662 1048 2688 1568 2688 2038
z
M 1466 -26
C 1056 -26 813 328 723 816
C 653 1196 653 1749 653 2109
C 653 2604 653 3015 736 3407
C 858 3954 1216 4121 1466 4121
C 1728 4121 2067 3947 2189 3420
C 2272 3054 2278 2623 2278 2109
C 2278 1691 2278 1176 2202 797
C 2067 96 1690 -26 1466 -26
z
" transform="scale(0.015625)"/>
        <path id="CMMI12-3a" d="M 1178 307
C 1178 492 1024 620 870 620
C 685 620 557 467 557 313
C 557 128 710 0 864 0
C 1050 0 1178 153 1178 307
z
" transform="scale(0.015625)"/>
       </defs>
       <use xlink:href="#CMR17-30" transform="scale(0.996264)"/>
       <use xlink:href="#CMMI12-3a" transform="translate(45.690477 0) scale(0.996264)"/>
       <use xlink:href="#CMR17-30" transform="translate(72.787654 0) scale(0.996264)"/>
      </g>
     </g>
    </g>
    <g id="xtick_2">
     <g id="line2d_3">
      <g>
       <use xlink:href="#m1ada12e871" x="145.54669" y="392.281821" style="stroke: #000000; stroke-width: 0.8"/>
      </g>
     </g>
     <g id="line2d_4">
      <g>
       <use xlink:href="#m474fb108af" x="145.54669" y="24.626795" style="stroke: #000000; stroke-width: 0.8"/>
      </g>
     </g>
    </g>
    <g id="xtick_3">
     <g id="line2d_5">
      <g>
       <use xlink:href="#m1ada12e871" x="245.963823" y="392.281821" style="stroke: #000000; stroke-width: 0.8"/>
      </g>
     </g>
     <g id="line2d_6">
      <g>
       <use xlink:href="#m474fb108af" x="245.963823" y="24.626795" style="stroke: #000000; stroke-width: 0.8"/>
      </g>
     </g>
    </g>
    <g id="xtick_4">
     <g id="line2d_7">
      <g>
       <use xlink:href="#m1ada12e871" x="346.380956" y="392.281821" style="stroke: #000000; stroke-width: 0.8"/>
      </g>
     </g>
     <g id="line2d_8">
      <g>
       <use xlink:href="#m474fb108af" x="346.380956" y="24.626795" style="stroke: #000000; stroke-width: 0.8"/>
      </g>
     </g>
    </g>
    <g id="xtick_5">
     <g id="line2d_9">
      <g>
       <use xlink:href="#m1ada12e871" x="446.798088" y="392.281821" style="stroke: #000000; stroke-width: 0.8"/>
      </g>
     </g>
     <g id="line2d_10">
      <g>
       <use xlink:href="#m474fb108af" x="446.798088" y="24.626795" style="stroke: #000000; stroke-width: 0.8"/>
      </g>
     </g>
    </g>
    <g id="xtick_6">
     <g id="line2d_11">
      <g>
       <use xlink:href="#m1ada12e871" x="547.215221" y="392.281821" style="stroke: #000000; stroke-width: 0.8"/>
      </g>
     </g>
     <g id="line2d_12">
      <g>
       <use xlink:href="#m474fb108af" x="547.215221" y="24.626795" style="stroke: #000000; stroke-width: 0.8"/>
      </g>
     </g>
     <g id="text_2">
      <!-- $\mathdefault{1.0}$ -->
      <g transform="translate(537.870442 409.655411) scale(0.14994 -0.14994)">
       <defs>
        <path id="CMR17-31" d="M 1702 4083
C 1702 4217 1696 4224 1606 4224
C 1357 3927 979 3833 621 3820
C 602 3820 570 3820 563 3808
C 557 3795 557 3782 557 3648
C 755 3648 1088 3686 1344 3839
L 1344 467
C 1344 243 1331 166 781 166
L 589 166
L 589 0
C 896 6 1216 12 1523 12
C 1830 12 2150 6 2458 0
L 2458 166
L 2266 166
C 1715 166 1702 236 1702 467
L 1702 4083
z
" transform="scale(0.015625)"/>
       </defs>
       <use xlink:href="#CMR17-31" transform="scale(0.996264)"/>
       <use xlink:href="#CMMI12-3a" transform="translate(45.690477 0) scale(0.996264)"/>
       <use xlink:href="#CMR17-30" transform="translate(72.787654 0) scale(0.996264)"/>
      </g>
     </g>
    </g>
   </g>
   <g id="matplotlib.axis_2">
    <g id="ytick_1">
     <g id="line2d_13">
      <defs>
       <path id="m22fa66890f" d="M 0 0
L -3.5 0
" style="stroke: #000000; stroke-width: 0.8"/>
      </defs>
      <g>
       <use xlink:href="#m22fa66890f" x="45.129558" y="392.281821" style="stroke: #000000; stroke-width: 0.8"/>
      </g>
     </g>
     <g id="line2d_14">
      <defs>
       <path id="m380b7279c9" d="M 0 0
L 3.5 0
" style="stroke: #000000; stroke-width: 0.8"/>
      </defs>
      <g>
       <use xlink:href="#m380b7279c9" x="547.215221" y="392.281821" style="stroke: #000000; stroke-width: 0.8"/>
      </g>
     </g>
     <g id="text_3">
      <!-- $\mathdefault{0.0}$ -->
      <g transform="translate(19.44 397.468616) scale(0.14994 -0.14994)">
       <use xlink:href="#CMR17-30" transform="scale(0.996264)"/>
       <use xlink:href="#CMMI12-3a" transform="translate(45.690477 0) scale(0.996264)"/>
       <use xlink:href="#CMR17-30" transform="translate(72.787654 0) scale(0.996264)"/>
      </g>
     </g>
    </g>
    <g id="ytick_2">
     <g id="line2d_15">
      <g>
       <use xlink:href="#m22fa66890f" x="45.129558" y="318.750816" style="stroke: #000000; stroke-width: 0.8"/>
      </g>
     </g>
     <g id="line2d_16">
      <g>
       <use xlink:href="#m380b7279c9" x="547.215221" y="318.750816" style="stroke: #000000; stroke-width: 0.8"/>
      </g>
     </g>
    </g>
    <g id="ytick_3">
     <g id="line2d_17">
      <g>
       <use xlink:href="#m22fa66890f" x="45.129558" y="245.21981" style="stroke: #000000; stroke-width: 0.8"/>
      </g>
     </g>
     <g id="line2d_18">
      <g>
       <use xlink:href="#m380b7279c9" x="547.215221" y="245.21981" style="stroke: #000000; stroke-width: 0.8"/>
      </g>
     </g>
    </g>
    <g id="ytick_4">
     <g id="line2d_19">
      <g>
       <use xlink:href="#m22fa66890f" x="45.129558" y="171.688805" style="stroke: #000000; stroke-width: 0.8"/>
      </g>
     </g>
     <g id="line2d_20">
      <g>
       <use xlink:href="#m380b7279c9" x="547.215221" y="171.688805" style="stroke: #000000; stroke-width: 0.8"/>
      </g>
     </g>
    </g>
    <g id="ytick_5">
     <g id="line2d_21">
      <g>
       <use xlink:href="#m22fa66890f" x="45.129558" y="98.1578" style="stroke: #000000; stroke-width: 0.8"/>
      </g>
     </g>
     <g id="line2d_22">
      <g>
       <use xlink:href="#m380b7279c9" x="547.215221" y="98.1578" style="stroke: #000000; stroke-width: 0.8"/>
      </g>
     </g>
    </g>
    <g id="ytick_6">
     <g id="line2d_23">
      <g>
       <use xlink:href="#m22fa66890f" x="45.129558" y="24.626795" style="stroke: #000000; stroke-width: 0.8"/>
      </g>
     </g>
     <g id="line2d_24">
      <g>
       <use xlink:href="#m380b7279c9" x="547.215221" y="24.626795" style="stroke: #000000; stroke-width: 0.8"/>
      </g>
     </g>
     <g id="text_4">
      <!-- $\mathdefault{1.0}$ -->
      <g transform="translate(19.44 29.81359) scale(0.14994 -0.14994)">
       <use xlink:href="#CMR17-31" transform="scale(0.996264)"/>
       <use xlink:href="#CMMI12-3a" transform="translate(45.690477 0) scale(0.996264)"/>
       <use xlink:href="#CMR17-30" transform="translate(72.787654 0) scale(0.996264)"/>
      </g>
     </g>
    </g>
   </g>
   <g id="line2d_25">
    <path d="M 45.129558 392.281821
L 53.673558 392.175356
L 62.217558 391.85596
L 70.761559 391.323635
L 79.305559 390.578379
L 87.849559 389.620193
L 96.393559 388.449076
L 104.93756 387.06503
L 113.984148 385.367482
L 123.030737 383.431216
L 132.077325 381.256233
L 141.123914 378.842533
L 150.170502 376.190114
L 159.217091 373.298978
L 168.263679 370.169125
L 177.310268 366.800553
L 186.356856 363.193264
L 195.403445 359.347258
L 204.450033 355.262533
L 213.496622 350.939091
L 222.543211 346.376932
L 231.589799 341.576055
L 241.138976 336.249483
L 250.688153 330.656932
L 260.237329 324.798403
L 269.786506 318.673895
L 279.335683 312.283409
L 288.88486 305.626944
L 298.434037 298.704501
L 307.983213 291.516078
L 318.034978 283.661973
L 328.086743 275.513154
L 338.138508 267.069623
L 348.190273 258.331378
L 358.242039 249.298419
L 368.293804 239.970748
L 378.345569 230.348364
L 388.899922 219.927675
L 399.454275 209.182065
L 410.008628 198.111534
L 420.562982 186.716082
L 431.117335 174.995708
L 441.671688 162.950413
L 452.226042 150.580197
L 463.282983 137.272424
L 474.339925 123.608049
L 485.396866 109.587071
L 496.453808 95.20949
L 507.510749 80.475306
L 519.070279 64.690101
L 530.629809 48.515138
L 542.189339 31.950417
L 547.215221 24.626795
L 547.215221 24.626795
" clip-path="url(#p259d14dba7)" style="fill: none; stroke: #000000; stroke-width: 2; stroke-linecap: square"/>
   </g>
   <g id="patch_3">
    <path d="M 45.129558 392.281821
L 45.129558 24.626795
" style="fill: none; stroke: #000000; stroke-width: 0.8; stroke-linejoin: miter; stroke-linecap: square"/>
   </g>
   <g id="patch_4">
    <path d="M 547.215221 392.281821
L 547.215221 24.626795
" style="fill: none; stroke: #000000; stroke-width: 0.8; stroke-linejoin: miter; stroke-linecap: square"/>
   </g>
   <g id="patch_5">
    <path d="M 45.129558 392.281821
L 547.215221 392.281821
" style="fill: none; stroke: #000000; stroke-width: 0.8; stroke-linejoin: miter; stroke-linecap: square"/>
   </g>
   <g id="patch_6">
    <path d="M 45.129558 24.626795
L 547.215221 24.626795
" style="fill: none; stroke: #000000; stroke-width: 0.8; stroke-linejoin: miter; stroke-linecap: square"/>
   </g>
  </g>
 </g>
 <defs>
  <clipPath id="p259d14dba7">
   <rect x="45.129558" y="24.626795" width="502.085663" height="367.655026"/>
  </clipPath>
 </defs>
</svg>
