<?xml version="1.0" encoding="utf-8" standalone="no"?>
<!DOCTYPE svg PUBLIC "-//W3C//DTD SVG 1.1//EN"
  "http://www.w3.org/Graphics/SVG/1.1/DTD/svg11.dtd">
<!-- Created with matplotlib (http://matplotlib.org/) -->
<svg height="576pt" version="1.1" viewBox="0 0 1152 576" width="1152pt" xmlns="http://www.w3.org/2000/svg" xmlns:xlink="http://www.w3.org/1999/xlink">
 <defs>
  <style type="text/css">
*{stroke-linecap:butt;stroke-linejoin:round;}
  </style>
 </defs>
 <g id="figure_1">
  <g id="patch_1">
   <path d="M 0 576
L 1152 576
L 1152 0
L 0 0
z
" style="fill:none;"/>
  </g>
  <g id="axes_1">
   <g id="patch_2">
    <path d="M 33.753304 536.281821
L 509.598198 536.281821
L 509.598198 24.626795
L 33.753304 24.626795
z
" style="fill:none;"/>
   </g>
   <g id="PolyCollection_1">
    <path clip-path="url(#p992b7383cb)" d="M 33.753304 536.281821
L 33.753304 472.324943
L 73.407045 472.324943
L 73.407045 536.281821
L 33.753304 536.281821
z
" style="fill:#90ff66;stroke:#000000;stroke-width:4;"/>
    <path clip-path="url(#p992b7383cb)" d="M 73.407045 536.281821
L 73.407045 472.324943
L 113.060786 472.324943
L 113.060786 536.281821
L 73.407045 536.281821
z
" style="fill:#90ff66;stroke:#000000;stroke-width:4;"/>
    <path clip-path="url(#p992b7383cb)" d="M 113.060786 536.281821
L 113.060786 472.324943
L 152.714527 472.324943
L 152.714527 536.281821
L 113.060786 536.281821
z
" style="fill:#beff39;stroke:#000000;stroke-width:4;"/>
    <path clip-path="url(#p992b7383cb)" d="M 152.714527 536.281821
L 152.714527 472.324943
L 192.368268 472.324943
L 192.368268 536.281821
L 152.714527 536.281821
z
" style="fill:#beff39;stroke:#000000;stroke-width:4;"/>
    <path clip-path="url(#p992b7383cb)" d="M 192.368268 536.281821
L 192.368268 472.324943
L 232.02201 472.324943
L 232.02201 536.281821
L 192.368268 536.281821
z
" style="fill:#ffd300;stroke:#000000;stroke-width:4;"/>
    <path clip-path="url(#p992b7383cb)" d="M 232.02201 536.281821
L 232.02201 472.324943
L 271.675751 472.324943
L 271.675751 536.281821
L 232.02201 536.281821
z
" style="fill:#ffd300;stroke:#000000;stroke-width:4;"/>
    <path clip-path="url(#p992b7383cb)" d="M 271.675751 536.281821
L 271.675751 472.324943
L 311.329492 472.324943
L 311.329492 536.281821
L 271.675751 536.281821
z
" style="fill:#ffd300;stroke:#000000;stroke-width:4;"/>
    <path clip-path="url(#p992b7383cb)" d="M 311.329492 536.281821
L 311.329492 472.324943
L 350.983233 472.324943
L 350.983233 536.281821
L 311.329492 536.281821
z
" style="fill:#ffa300;stroke:#000000;stroke-width:4;"/>
    <path clip-path="url(#p992b7383cb)" d="M 350.983233 536.281821
L 350.983233 472.324943
L 390.636974 472.324943
L 390.636974 536.281821
L 350.983233 536.281821
z
" style="fill:#ffa300;stroke:#000000;stroke-width:4;"/>
    <path clip-path="url(#p992b7383cb)" d="M 390.636974 536.281821
L 390.636974 472.324943
L 430.290715 472.324943
L 430.290715 536.281821
L 390.636974 536.281821
z
" style="fill:#ff6f00;stroke:#000000;stroke-width:4;"/>
    <path clip-path="url(#p992b7383cb)" d="M 430.290715 536.281821
L 430.290715 472.324943
L 469.944456 472.324943
L 469.944456 536.281821
L 430.290715 536.281821
z
" style="fill:#ff3f00;stroke:#000000;stroke-width:4;"/>
    <path clip-path="url(#p992b7383cb)" d="M 469.944456 536.281821
L 469.944456 472.324943
L 509.598198 472.324943
L 509.598198 536.281821
L 469.944456 536.281821
z
" style="fill:#f60b00;stroke:#000000;stroke-width:4;"/>
    <path clip-path="url(#p992b7383cb)" d="M 33.753304 472.324943
L 33.753304 408.368064
L 73.407045 408.368064
L 73.407045 472.324943
L 33.753304 472.324943
z
" style="fill:#90ff66;stroke:#000000;stroke-width:4;"/>
    <path clip-path="url(#p992b7383cb)" d="M 73.407045 472.324943
L 73.407045 408.368064
L 113.060786 408.368064
L 113.060786 472.324943
L 73.407045 472.324943
z
" style="fill:#beff39;stroke:#000000;stroke-width:4;"/>
    <path clip-path="url(#p992b7383cb)" d="M 113.060786 472.324943
L 113.060786 408.368064
L 152.714527 408.368064
L 152.714527 472.324943
L 113.060786 472.324943
z
" style="fill:#beff39;stroke:#000000;stroke-width:4;"/>
    <path clip-path="url(#p992b7383cb)" d="M 152.714527 472.324943
L 152.714527 408.368064
L 192.368268 408.368064
L 192.368268 472.324943
L 152.714527 472.324943
z
" style="fill:#e7ff0f;stroke:#000000;stroke-width:4;"/>
    <path clip-path="url(#p992b7383cb)" d="M 192.368268 472.324943
L 192.368268 408.368064
L 232.02201 408.368064
L 232.02201 472.324943
L 192.368268 472.324943
z
" style="fill:#ffd300;stroke:#000000;stroke-width:4;"/>
    <path clip-path="url(#p992b7383cb)" d="M 232.02201 472.324943
L 232.02201 408.368064
L 271.675751 408.368064
L 271.675751 472.324943
L 232.02201 472.324943
z
" style="fill:#ffa300;stroke:#000000;stroke-width:4;"/>
    <path clip-path="url(#p992b7383cb)" d="M 271.675751 472.324943
L 271.675751 408.368064
L 311.329492 408.368064
L 311.329492 472.324943
L 271.675751 472.324943
z
" style="fill:#ff6f00;stroke:#000000;stroke-width:4;"/>
    <path clip-path="url(#p992b7383cb)" d="M 311.329492 472.324943
L 311.329492 408.368064
L 350.983233 408.368064
L 350.983233 472.324943
L 311.329492 472.324943
z
" style="fill:#ff3f00;stroke:#000000;stroke-width:4;"/>
    <path clip-path="url(#p992b7383cb)" d="M 350.983233 472.324943
L 350.983233 408.368064
L 390.636974 408.368064
L 390.636974 472.324943
L 350.983233 472.324943
z
" style="fill:#ff3f00;stroke:#000000;stroke-width:4;"/>
    <path clip-path="url(#p992b7383cb)" d="M 390.636974 472.324943
L 390.636974 408.368064
L 430.290715 408.368064
L 430.290715 472.324943
L 390.636974 472.324943
z
" style="fill:#bb0000;stroke:#000000;stroke-width:4;"/>
    <path clip-path="url(#p992b7383cb)" d="M 430.290715 472.324943
L 430.290715 408.368064
L 469.944456 408.368064
L 469.944456 472.324943
L 430.290715 472.324943
z
" style="fill:#bb0000;stroke:#000000;stroke-width:4;"/>
    <path clip-path="url(#p992b7383cb)" d="M 469.944456 472.324943
L 469.944456 408.368064
L 509.598198 408.368064
L 509.598198 472.324943
L 469.944456 472.324943
z
" style="fill:#800000;stroke:#000000;stroke-width:4;"/>
    <path clip-path="url(#p992b7383cb)" d="M 33.753304 408.368064
L 33.753304 344.411186
L 73.407045 344.411186
L 73.407045 408.368064
L 33.753304 408.368064
z
" style="fill:#90ff66;stroke:#000000;stroke-width:4;"/>
    <path clip-path="url(#p992b7383cb)" d="M 73.407045 408.368064
L 73.407045 344.411186
L 113.060786 344.411186
L 113.060786 408.368064
L 73.407045 408.368064
z
" style="fill:#90ff66;stroke:#000000;stroke-width:4;"/>
    <path clip-path="url(#p992b7383cb)" d="M 113.060786 408.368064
L 113.060786 344.411186
L 152.714527 344.411186
L 152.714527 408.368064
L 113.060786 408.368064
z
" style="fill:#90ff66;stroke:#000000;stroke-width:4;"/>
    <path clip-path="url(#p992b7383cb)" d="M 152.714527 408.368064
L 152.714527 344.411186
L 192.368268 344.411186
L 192.368268 408.368064
L 152.714527 408.368064
z
" style="fill:#beff39;stroke:#000000;stroke-width:4;"/>
    <path clip-path="url(#p992b7383cb)" d="M 192.368268 408.368064
L 192.368268 344.411186
L 232.02201 344.411186
L 232.02201 408.368064
L 192.368268 408.368064
z
" style="fill:#ffd300;stroke:#000000;stroke-width:4;"/>
    <path clip-path="url(#p992b7383cb)" d="M 232.02201 408.368064
L 232.02201 344.411186
L 271.675751 344.411186
L 271.675751 408.368064
L 232.02201 408.368064
z
" style="fill:#ffa300;stroke:#000000;stroke-width:4;"/>
    <path clip-path="url(#p992b7383cb)" d="M 271.675751 408.368064
L 271.675751 344.411186
L 311.329492 344.411186
L 311.329492 408.368064
L 271.675751 408.368064
z
" style="fill:#ff6f00;stroke:#000000;stroke-width:4;"/>
    <path clip-path="url(#p992b7383cb)" d="M 311.329492 408.368064
L 311.329492 344.411186
L 350.983233 344.411186
L 350.983233 408.368064
L 311.329492 408.368064
z
" style="fill:#ff3f00;stroke:#000000;stroke-width:4;"/>
    <path clip-path="url(#p992b7383cb)" d="M 350.983233 408.368064
L 350.983233 344.411186
L 390.636974 344.411186
L 390.636974 408.368064
L 350.983233 408.368064
z
" style="fill:#bb0000;stroke:#000000;stroke-width:4;"/>
    <path clip-path="url(#p992b7383cb)" d="M 390.636974 408.368064
L 390.636974 344.411186
L 430.290715 344.411186
L 430.290715 408.368064
L 390.636974 408.368064
z
" style="fill:#bb0000;stroke:#000000;stroke-width:4;"/>
    <path clip-path="url(#p992b7383cb)" d="M 430.290715 408.368064
L 430.290715 344.411186
L 469.944456 344.411186
L 469.944456 408.368064
L 430.290715 408.368064
z
" style="fill:#bb0000;stroke:#000000;stroke-width:4;"/>
    <path clip-path="url(#p992b7383cb)" d="M 469.944456 408.368064
L 469.944456 344.411186
L 509.598198 344.411186
L 509.598198 408.368064
L 469.944456 408.368064
z
" style="fill:#800000;stroke:#000000;stroke-width:4;"/>
    <path clip-path="url(#p992b7383cb)" d="M 33.753304 344.411186
L 33.753304 280.454308
L 73.407045 280.454308
L 73.407045 344.411186
L 33.753304 344.411186
z
" style="fill:#90ff66;stroke:#000000;stroke-width:4;"/>
    <path clip-path="url(#p992b7383cb)" d="M 73.407045 344.411186
L 73.407045 280.454308
L 113.060786 280.454308
L 113.060786 344.411186
L 73.407045 344.411186
z
" style="fill:#beff39;stroke:#000000;stroke-width:4;"/>
    <path clip-path="url(#p992b7383cb)" d="M 113.060786 344.411186
L 113.060786 280.454308
L 152.714527 280.454308
L 152.714527 344.411186
L 113.060786 344.411186
z
" style="fill:#e7ff0f;stroke:#000000;stroke-width:4;"/>
    <path clip-path="url(#p992b7383cb)" d="M 152.714527 344.411186
L 152.714527 280.454308
L 192.368268 280.454308
L 192.368268 344.411186
L 152.714527 344.411186
z
" style="fill:#e7ff0f;stroke:#000000;stroke-width:4;"/>
    <path clip-path="url(#p992b7383cb)" d="M 192.368268 344.411186
L 192.368268 280.454308
L 232.02201 280.454308
L 232.02201 344.411186
L 192.368268 344.411186
z
" style="fill:#ffa300;stroke:#000000;stroke-width:4;"/>
    <path clip-path="url(#p992b7383cb)" d="M 232.02201 344.411186
L 232.02201 280.454308
L 271.675751 280.454308
L 271.675751 344.411186
L 232.02201 344.411186
z
" style="fill:#ff3f00;stroke:#000000;stroke-width:4;"/>
    <path clip-path="url(#p992b7383cb)" d="M 271.675751 344.411186
L 271.675751 280.454308
L 311.329492 280.454308
L 311.329492 344.411186
L 271.675751 344.411186
z
" style="fill:#f60b00;stroke:#000000;stroke-width:4;"/>
    <path clip-path="url(#p992b7383cb)" d="M 311.329492 344.411186
L 311.329492 280.454308
L 350.983233 280.454308
L 350.983233 344.411186
L 311.329492 344.411186
z
" style="fill:#f60b00;stroke:#000000;stroke-width:4;"/>
    <path clip-path="url(#p992b7383cb)" d="M 350.983233 344.411186
L 350.983233 280.454308
L 390.636974 280.454308
L 390.636974 344.411186
L 350.983233 344.411186
z
" style="fill:#f60b00;stroke:#000000;stroke-width:4;"/>
    <path clip-path="url(#p992b7383cb)" d="M 390.636974 344.411186
L 390.636974 280.454308
L 430.290715 280.454308
L 430.290715 344.411186
L 390.636974 344.411186
z
" style="fill:#bb0000;stroke:#000000;stroke-width:4;"/>
    <path clip-path="url(#p992b7383cb)" d="M 430.290715 344.411186
L 430.290715 280.454308
L 469.944456 280.454308
L 469.944456 344.411186
L 430.290715 344.411186
z
" style="fill:#800000;stroke:#000000;stroke-width:4;"/>
    <path clip-path="url(#p992b7383cb)" d="M 469.944456 344.411186
L 469.944456 280.454308
L 509.598198 280.454308
L 509.598198 344.411186
L 469.944456 344.411186
z
" style="fill:#800000;stroke:#000000;stroke-width:4;"/>
    <path clip-path="url(#p992b7383cb)" d="M 33.753304 280.454308
L 33.753304 216.49743
L 73.407045 216.49743
L 73.407045 280.454308
L 33.753304 280.454308
z
" style="fill:#90ff66;stroke:#000000;stroke-width:4;"/>
    <path clip-path="url(#p992b7383cb)" d="M 73.407045 280.454308
L 73.407045 216.49743
L 113.060786 216.49743
L 113.060786 280.454308
L 73.407045 280.454308
z
" style="fill:#90ff66;stroke:#000000;stroke-width:4;"/>
    <path clip-path="url(#p992b7383cb)" d="M 113.060786 280.454308
L 113.060786 216.49743
L 152.714527 216.49743
L 152.714527 280.454308
L 113.060786 280.454308
z
" style="fill:#beff39;stroke:#000000;stroke-width:4;"/>
    <path clip-path="url(#p992b7383cb)" d="M 152.714527 280.454308
L 152.714527 216.49743
L 192.368268 216.49743
L 192.368268 280.454308
L 152.714527 280.454308
z
" style="fill:#beff39;stroke:#000000;stroke-width:4;"/>
    <path clip-path="url(#p992b7383cb)" d="M 192.368268 280.454308
L 192.368268 216.49743
L 232.02201 216.49743
L 232.02201 280.454308
L 192.368268 280.454308
z
" style="fill:#e7ff0f;stroke:#000000;stroke-width:4;"/>
    <path clip-path="url(#p992b7383cb)" d="M 232.02201 280.454308
L 232.02201 216.49743
L 271.675751 216.49743
L 271.675751 280.454308
L 232.02201 280.454308
z
" style="fill:#e7ff0f;stroke:#000000;stroke-width:4;"/>
    <path clip-path="url(#p992b7383cb)" d="M 271.675751 280.454308
L 271.675751 216.49743
L 311.329492 216.49743
L 311.329492 280.454308
L 271.675751 280.454308
z
" style="fill:#e7ff0f;stroke:#000000;stroke-width:4;"/>
    <path clip-path="url(#p992b7383cb)" d="M 311.329492 280.454308
L 311.329492 216.49743
L 350.983233 216.49743
L 350.983233 280.454308
L 311.329492 280.454308
z
" style="fill:#ffa300;stroke:#000000;stroke-width:4;"/>
    <path clip-path="url(#p992b7383cb)" d="M 350.983233 280.454308
L 350.983233 216.49743
L 390.636974 216.49743
L 390.636974 280.454308
L 350.983233 280.454308
z
" style="fill:#ff6f00;stroke:#000000;stroke-width:4;"/>
    <path clip-path="url(#p992b7383cb)" d="M 390.636974 280.454308
L 390.636974 216.49743
L 430.290715 216.49743
L 430.290715 280.454308
L 390.636974 280.454308
z
" style="fill:#ff6f00;stroke:#000000;stroke-width:4;"/>
    <path clip-path="url(#p992b7383cb)" d="M 430.290715 280.454308
L 430.290715 216.49743
L 469.944456 216.49743
L 469.944456 280.454308
L 430.290715 280.454308
z
" style="fill:#ff3f00;stroke:#000000;stroke-width:4;"/>
    <path clip-path="url(#p992b7383cb)" d="M 469.944456 280.454308
L 469.944456 216.49743
L 509.598198 216.49743
L 509.598198 280.454308
L 469.944456 280.454308
z
" style="fill:#ff3f00;stroke:#000000;stroke-width:4;"/>
    <path clip-path="url(#p992b7383cb)" d="M 33.753304 216.49743
L 33.753304 152.540551
L 73.407045 152.540551
L 73.407045 216.49743
L 33.753304 216.49743
z
" style="fill:#90ff66;stroke:#000000;stroke-width:4;"/>
    <path clip-path="url(#p992b7383cb)" d="M 73.407045 216.49743
L 73.407045 152.540551
L 113.060786 152.540551
L 113.060786 216.49743
L 73.407045 216.49743
z
" style="fill:#beff39;stroke:#000000;stroke-width:4;"/>
    <path clip-path="url(#p992b7383cb)" d="M 113.060786 216.49743
L 113.060786 152.540551
L 152.714527 152.540551
L 152.714527 216.49743
L 113.060786 216.49743
z
" style="fill:#beff39;stroke:#000000;stroke-width:4;"/>
    <path clip-path="url(#p992b7383cb)" d="M 152.714527 216.49743
L 152.714527 152.540551
L 192.368268 152.540551
L 192.368268 216.49743
L 152.714527 216.49743
z
" style="fill:#ffa300;stroke:#000000;stroke-width:4;"/>
    <path clip-path="url(#p992b7383cb)" d="M 192.368268 216.49743
L 192.368268 152.540551
L 232.02201 152.540551
L 232.02201 216.49743
L 192.368268 216.49743
z
" style="fill:#ffa300;stroke:#000000;stroke-width:4;"/>
    <path clip-path="url(#p992b7383cb)" d="M 232.02201 216.49743
L 232.02201 152.540551
L 271.675751 152.540551
L 271.675751 216.49743
L 232.02201 216.49743
z
" style="fill:#ff6f00;stroke:#000000;stroke-width:4;"/>
    <path clip-path="url(#p992b7383cb)" d="M 271.675751 216.49743
L 271.675751 152.540551
L 311.329492 152.540551
L 311.329492 216.49743
L 271.675751 216.49743
z
" style="fill:#ff6f00;stroke:#000000;stroke-width:4;"/>
    <path clip-path="url(#p992b7383cb)" d="M 311.329492 216.49743
L 311.329492 152.540551
L 350.983233 152.540551
L 350.983233 216.49743
L 311.329492 216.49743
z
" style="fill:#ff6f00;stroke:#000000;stroke-width:4;"/>
    <path clip-path="url(#p992b7383cb)" d="M 350.983233 216.49743
L 350.983233 152.540551
L 390.636974 152.540551
L 390.636974 216.49743
L 350.983233 216.49743
z
" style="fill:#ff3f00;stroke:#000000;stroke-width:4;"/>
    <path clip-path="url(#p992b7383cb)" d="M 390.636974 216.49743
L 390.636974 152.540551
L 430.290715 152.540551
L 430.290715 216.49743
L 390.636974 216.49743
z
" style="fill:#ff3f00;stroke:#000000;stroke-width:4;"/>
    <path clip-path="url(#p992b7383cb)" d="M 430.290715 216.49743
L 430.290715 152.540551
L 469.944456 152.540551
L 469.944456 216.49743
L 430.290715 216.49743
z
" style="fill:#800000;stroke:#000000;stroke-width:4;"/>
    <path clip-path="url(#p992b7383cb)" d="M 469.944456 216.49743
L 469.944456 152.540551
L 509.598198 152.540551
L 509.598198 216.49743
L 469.944456 216.49743
z
" style="fill:#800000;stroke:#000000;stroke-width:4;"/>
    <path clip-path="url(#p992b7383cb)" d="M 33.753304 152.540551
L 33.753304 88.583673
L 73.407045 88.583673
L 73.407045 152.540551
L 33.753304 152.540551
z
" style="fill:#beff39;stroke:#000000;stroke-width:4;"/>
    <path clip-path="url(#p992b7383cb)" d="M 73.407045 152.540551
L 73.407045 88.583673
L 113.060786 88.583673
L 113.060786 152.540551
L 73.407045 152.540551
z
" style="fill:#beff39;stroke:#000000;stroke-width:4;"/>
    <path clip-path="url(#p992b7383cb)" d="M 113.060786 152.540551
L 113.060786 88.583673
L 152.714527 88.583673
L 152.714527 152.540551
L 113.060786 152.540551
z
" style="fill:#ffd300;stroke:#000000;stroke-width:4;"/>
    <path clip-path="url(#p992b7383cb)" d="M 152.714527 152.540551
L 152.714527 88.583673
L 192.368268 88.583673
L 192.368268 152.540551
L 152.714527 152.540551
z
" style="fill:#ffd300;stroke:#000000;stroke-width:4;"/>
    <path clip-path="url(#p992b7383cb)" d="M 192.368268 152.540551
L 192.368268 88.583673
L 232.02201 88.583673
L 232.02201 152.540551
L 192.368268 152.540551
z
" style="fill:#ffd300;stroke:#000000;stroke-width:4;"/>
    <path clip-path="url(#p992b7383cb)" d="M 232.02201 152.540551
L 232.02201 88.583673
L 271.675751 88.583673
L 271.675751 152.540551
L 232.02201 152.540551
z
" style="fill:#ff3f00;stroke:#000000;stroke-width:4;"/>
    <path clip-path="url(#p992b7383cb)" d="M 271.675751 152.540551
L 271.675751 88.583673
L 311.329492 88.583673
L 311.329492 152.540551
L 271.675751 152.540551
z
" style="fill:#f60b00;stroke:#000000;stroke-width:4;"/>
    <path clip-path="url(#p992b7383cb)" d="M 311.329492 152.540551
L 311.329492 88.583673
L 350.983233 88.583673
L 350.983233 152.540551
L 311.329492 152.540551
z
" style="fill:#f60b00;stroke:#000000;stroke-width:4;"/>
    <path clip-path="url(#p992b7383cb)" d="M 350.983233 152.540551
L 350.983233 88.583673
L 390.636974 88.583673
L 390.636974 152.540551
L 350.983233 152.540551
z
" style="fill:#f60b00;stroke:#000000;stroke-width:4;"/>
    <path clip-path="url(#p992b7383cb)" d="M 390.636974 152.540551
L 390.636974 88.583673
L 430.290715 88.583673
L 430.290715 152.540551
L 390.636974 152.540551
z
" style="fill:#bb0000;stroke:#000000;stroke-width:4;"/>
    <path clip-path="url(#p992b7383cb)" d="M 430.290715 152.540551
L 430.290715 88.583673
L 469.944456 88.583673
L 469.944456 152.540551
L 430.290715 152.540551
z
" style="fill:#bb0000;stroke:#000000;stroke-width:4;"/>
    <path clip-path="url(#p992b7383cb)" d="M 469.944456 152.540551
L 469.944456 88.583673
L 509.598198 88.583673
L 509.598198 152.540551
L 469.944456 152.540551
z
" style="fill:#800000;stroke:#000000;stroke-width:4;"/>
    <path clip-path="url(#p992b7383cb)" d="M 33.753304 88.583673
L 33.753304 24.626795
L 73.407045 24.626795
L 73.407045 88.583673
L 33.753304 88.583673
z
" style="fill:#beff39;stroke:#000000;stroke-width:4;"/>
    <path clip-path="url(#p992b7383cb)" d="M 73.407045 88.583673
L 73.407045 24.626795
L 113.060786 24.626795
L 113.060786 88.583673
L 73.407045 88.583673
z
" style="fill:#e7ff0f;stroke:#000000;stroke-width:4;"/>
    <path clip-path="url(#p992b7383cb)" d="M 113.060786 88.583673
L 113.060786 24.626795
L 152.714527 24.626795
L 152.714527 88.583673
L 113.060786 88.583673
z
" style="fill:#e7ff0f;stroke:#000000;stroke-width:4;"/>
    <path clip-path="url(#p992b7383cb)" d="M 152.714527 88.583673
L 152.714527 24.626795
L 192.368268 24.626795
L 192.368268 88.583673
L 152.714527 88.583673
z
" style="fill:#ffa300;stroke:#000000;stroke-width:4;"/>
    <path clip-path="url(#p992b7383cb)" d="M 192.368268 88.583673
L 192.368268 24.626795
L 232.02201 24.626795
L 232.02201 88.583673
L 192.368268 88.583673
z
" style="fill:#ffa300;stroke:#000000;stroke-width:4;"/>
    <path clip-path="url(#p992b7383cb)" d="M 232.02201 88.583673
L 232.02201 24.626795
L 271.675751 24.626795
L 271.675751 88.583673
L 232.02201 88.583673
z
" style="fill:#ffa300;stroke:#000000;stroke-width:4;"/>
    <path clip-path="url(#p992b7383cb)" d="M 271.675751 88.583673
L 271.675751 24.626795
L 311.329492 24.626795
L 311.329492 88.583673
L 271.675751 88.583673
z
" style="fill:#ff6f00;stroke:#000000;stroke-width:4;"/>
    <path clip-path="url(#p992b7383cb)" d="M 311.329492 88.583673
L 311.329492 24.626795
L 350.983233 24.626795
L 350.983233 88.583673
L 311.329492 88.583673
z
" style="fill:#ff3f00;stroke:#000000;stroke-width:4;"/>
    <path clip-path="url(#p992b7383cb)" d="M 350.983233 88.583673
L 350.983233 24.626795
L 390.636974 24.626795
L 390.636974 88.583673
L 350.983233 88.583673
z
" style="fill:#ff3f00;stroke:#000000;stroke-width:4;"/>
    <path clip-path="url(#p992b7383cb)" d="M 390.636974 88.583673
L 390.636974 24.626795
L 430.290715 24.626795
L 430.290715 88.583673
L 390.636974 88.583673
z
" style="fill:#bb0000;stroke:#000000;stroke-width:4;"/>
    <path clip-path="url(#p992b7383cb)" d="M 430.290715 88.583673
L 430.290715 24.626795
L 469.944456 24.626795
L 469.944456 88.583673
L 430.290715 88.583673
z
" style="fill:#800000;stroke:#000000;stroke-width:4;"/>
    <path clip-path="url(#p992b7383cb)" d="M 469.944456 88.583673
L 469.944456 24.626795
L 509.598198 24.626795
L 509.598198 88.583673
L 469.944456 88.583673
z
" style="fill:#800000;stroke:#000000;stroke-width:4;"/>
   </g>
   <g id="matplotlib.axis_1">
    <g id="xtick_1">
     <g id="line2d_1">
      <defs>
       <path d="M 0 0
L 0 3.5
" id="mfb847e655e" style="stroke:#000000;stroke-width:0.8;"/>
      </defs>
      <g>
       <use style="stroke:#000000;stroke-width:0.8;" x="33.753304" xlink:href="#mfb847e655e" y="536.281821"/>
      </g>
     </g>
     <g id="line2d_2">
      <defs>
       <path d="M 0 0
L 0 -3.5
" id="ma693271435" style="stroke:#000000;stroke-width:0.8;"/>
      </defs>
      <g>
       <use style="stroke:#000000;stroke-width:0.8;" x="33.753304" xlink:href="#ma693271435" y="24.626795"/>
      </g>
     </g>
     <g id="text_1">
      <!-- $0$ -->
      <defs>
       <path d="M 42 31.640625
C 42 37.75 41.90625 48.125 37.703125 56.109375
C 34 63.109375 28.09375 65.59375 22.90625 65.59375
C 18.09375 65.59375 12 63.40625 8.203125 56.203125
C 4.203125 48.71875 3.796875 39.4375 3.796875 31.640625
C 3.796875 25.953125 3.90625 17.28125 7 9.671875
C 11.296875 -0.609375 19 -2 22.90625 -2
C 27.5 -2 34.5 -0.109375 38.59375 9.375
C 41.59375 16.28125 42 24.359375 42 31.640625
z
M 22.90625 -0.40625
C 16.5 -0.40625 12.703125 5.078125 11.296875 12.6875
C 10.203125 18.5625 10.203125 27.15625 10.203125 32.75
C 10.203125 40.4375 10.203125 46.828125 11.5 52.921875
C 13.40625 61.390625 19 64 22.90625 64
C 27 64 32.296875 61.296875 34.203125 53.125
C 35.5 47.4375 35.59375 40.734375 35.59375 32.75
C 35.59375 26.25 35.59375 18.265625 34.40625 12.375
C 32.296875 1.484375 26.40625 -0.40625 22.90625 -0.40625
z
" id="CMR17-48"/>
      </defs>
      <g transform="translate(30.096652 553.655411)scale(0.14994 -0.14994)">
       <use transform="scale(0.996264)" xlink:href="#CMR17-48"/>
      </g>
     </g>
    </g>
    <g id="xtick_2">
     <g id="line2d_3">
      <g>
       <use style="stroke:#000000;stroke-width:0.8;" x="113.060786" xlink:href="#mfb847e655e" y="536.281821"/>
      </g>
     </g>
     <g id="line2d_4">
      <g>
       <use style="stroke:#000000;stroke-width:0.8;" x="113.060786" xlink:href="#ma693271435" y="24.626795"/>
      </g>
     </g>
     <g id="text_2">
      <!-- $2$ -->
      <defs>
       <path d="M 41.703125 15.453125
L 39.90625 15.453125
C 38.90625 8.375 38.09375 7.171875 37.703125 6.5625
C 37.203125 5.765625 30 5.765625 28.59375 5.765625
L 9.40625 5.765625
C 13 9.671875 20 16.75 28.5 24.953125
C 34.59375 30.734375 41.703125 37.53125 41.703125 47.421875
C 41.703125 59.21875 32.296875 66 21.796875 66
C 10.796875 66 4.09375 56.3125 4.09375 47.34375
C 4.09375 43.4375 7 42.9375 8.203125 42.9375
C 9.203125 42.9375 12.203125 43.546875 12.203125 47.03125
C 12.203125 50.109375 9.59375 51 8.203125 51
C 7.59375 51 7 50.90625 6.59375 50.703125
C 8.5 59.21875 14.296875 63.40625 20.40625 63.40625
C 29.09375 63.40625 34.796875 56.515625 34.796875 47.421875
C 34.796875 38.734375 29.703125 31.25 24 24.75
L 4.09375 2.28125
L 4.09375 0
L 39.296875 0
z
" id="CMR17-50"/>
      </defs>
      <g transform="translate(109.404134 553.655411)scale(0.14994 -0.14994)">
       <use transform="scale(0.996264)" xlink:href="#CMR17-50"/>
      </g>
     </g>
    </g>
    <g id="xtick_3">
     <g id="line2d_5">
      <g>
       <use style="stroke:#000000;stroke-width:0.8;" x="192.368268" xlink:href="#mfb847e655e" y="536.281821"/>
      </g>
     </g>
     <g id="line2d_6">
      <g>
       <use style="stroke:#000000;stroke-width:0.8;" x="192.368268" xlink:href="#ma693271435" y="24.626795"/>
      </g>
     </g>
     <g id="text_3">
      <!-- $4$ -->
      <defs>
       <path d="M 33.59375 64.40625
C 33.59375 66.5 33.5 66.5 31.703125 66.5
L 2 19.59375
L 2 17
L 27.796875 17
L 27.796875 7.140625
C 27.796875 3.5 27.59375 2.5 20.59375 2.5
L 18.703125 2.5
L 18.703125 0
C 21.90625 0 27.296875 0 30.703125 0
C 34.09375 0 39.5 0 42.703125 0
L 42.703125 2.5
L 40.796875 2.5
C 33.796875 2.5 33.59375 3.5 33.59375 7.140625
L 33.59375 17
L 43.796875 17
L 43.796875 19.59375
L 33.59375 19.59375
z
M 28.09375 57.859375
L 28.09375 19.59375
L 4 19.59375
z
" id="CMR17-52"/>
      </defs>
      <g transform="translate(188.711617 553.655411)scale(0.14994 -0.14994)">
       <use transform="scale(0.996264)" xlink:href="#CMR17-52"/>
      </g>
     </g>
    </g>
    <g id="xtick_4">
     <g id="line2d_7">
      <g>
       <use style="stroke:#000000;stroke-width:0.8;" x="271.675751" xlink:href="#mfb847e655e" y="536.281821"/>
      </g>
     </g>
     <g id="line2d_8">
      <g>
       <use style="stroke:#000000;stroke-width:0.8;" x="271.675751" xlink:href="#ma693271435" y="24.626795"/>
      </g>
     </g>
     <g id="text_4">
      <!-- $6$ -->
      <defs>
       <path d="M 10.59375 34
C 10.59375 57.65625 21.796875 63 28.296875 63
C 30.40625 63 35.5 62.640625 37.5 59
C 35.90625 59 32.90625 59 32.90625 55.515625
C 32.90625 52.828125 35.09375 51.921875 36.5 51.921875
C 37.40625 51.921875 40.09375 52.3125 40.09375 55.625
C 40.09375 61.78125 35.09375 65.296875 28.203125 65.296875
C 16.296875 65.296875 3.796875 52.96875 3.796875 31
C 3.796875 3.953125 15.09375 -2 23.09375 -2
C 32.796875 -2 42 6.671875 42 20.046875
C 42 32.515625 33.90625 41.59375 23.703125 41.59375
C 17.59375 41.59375 13.09375 37.609375 10.59375 30.625
z
M 23.09375 0.390625
C 10.796875 0.390625 10.796875 18.75 10.796875 22.4375
C 10.796875 29.625 14.203125 40 23.5 40
C 25.203125 40 30.09375 40 33.40625 33.125
C 35.203125 29.21875 35.203125 25.140625 35.203125 20.140625
C 35.203125 14.75 35.203125 10.78125 33.09375 6.78125
C 30.90625 2.671875 27.703125 0.390625 23.09375 0.390625
z
" id="CMR17-54"/>
      </defs>
      <g transform="translate(268.019099 553.655411)scale(0.14994 -0.14994)">
       <use transform="scale(0.996264)" xlink:href="#CMR17-54"/>
      </g>
     </g>
    </g>
    <g id="xtick_5">
     <g id="line2d_9">
      <g>
       <use style="stroke:#000000;stroke-width:0.8;" x="350.983233" xlink:href="#mfb847e655e" y="536.281821"/>
      </g>
     </g>
     <g id="line2d_10">
      <g>
       <use style="stroke:#000000;stroke-width:0.8;" x="350.983233" xlink:href="#ma693271435" y="24.626795"/>
      </g>
     </g>
     <g id="text_5">
      <!-- $8$ -->
      <defs>
       <path d="M 27.203125 35.375
C 33.5 38.546875 39.90625 43.328125 39.90625 50.984375
C 39.90625 60.015625 31.09375 65.296875 23 65.296875
C 13.90625 65.296875 5.90625 58.734375 5.90625 49.6875
C 5.90625 47.203125 6.5 42.921875 10.40625 39.140625
C 11.40625 38.15625 15.59375 35.171875 18.296875 33.28125
C 13.796875 30.984375 3.296875 25.53125 3.296875 14.59375
C 3.296875 4.359375 13.09375 -2 22.796875 -2
C 33.5 -2 42.5 5.65625 42.5 15.78125
C 42.5 24.84375 36.40625 29.015625 32.40625 31.703125
z
M 14.09375 44.09375
C 13.296875 44.59375 9.296875 47.671875 9.296875 52.359375
C 9.296875 58.421875 15.59375 63 22.796875 63
C 30.703125 63 36.5 57.4375 36.5 50.96875
C 36.5 41.703125 26.09375 36.421875 25.59375 36.421875
C 25.5 36.421875 25.40625 36.421875 24.59375 37.03125
z
M 32.5 23.734375
C 34 22.640625 38.796875 19.375 38.796875 13.296875
C 38.796875 5.953125 31.40625 0.390625 23 0.390625
C 13.90625 0.390625 7 6.84375 7 14.6875
C 7 22.546875 13.09375 29.09375 20 32.1875
z
" id="CMR17-56"/>
      </defs>
      <g transform="translate(347.326581 553.655411)scale(0.14994 -0.14994)">
       <use transform="scale(0.996264)" xlink:href="#CMR17-56"/>
      </g>
     </g>
    </g>
    <g id="xtick_6">
     <g id="line2d_11">
      <g>
       <use style="stroke:#000000;stroke-width:0.8;" x="430.290715" xlink:href="#mfb847e655e" y="536.281821"/>
      </g>
     </g>
     <g id="line2d_12">
      <g>
       <use style="stroke:#000000;stroke-width:0.8;" x="430.290715" xlink:href="#ma693271435" y="24.626795"/>
      </g>
     </g>
     <g id="text_6">
      <!-- $10$ -->
      <defs>
       <path d="M 26.59375 63.40625
C 26.59375 65.5 26.5 65.5 25.09375 65.5
C 21.203125 61.1875 15.296875 59.796875 9.703125 59.796875
C 9.40625 59.796875 8.90625 59.796875 8.796875 59.5
C 8.703125 59.296875 8.703125 59.09375 8.703125 57
C 11.796875 57 17 57.59375 21 59.984375
L 21 7.203125
C 21 3.6875 20.796875 2.5 12.203125 2.5
L 9.203125 2.5
L 9.203125 0
C 14 0 19 0 23.796875 0
C 28.59375 0 33.59375 0 38.40625 0
L 38.40625 2.5
L 35.40625 2.5
C 26.796875 2.5 26.59375 3.59375 26.59375 7.15625
z
" id="CMR17-49"/>
      </defs>
      <g transform="translate(422.977411 553.655411)scale(0.14994 -0.14994)">
       <use transform="scale(0.996264)" xlink:href="#CMR17-49"/>
       <use transform="translate(45.690477 0)scale(0.996264)" xlink:href="#CMR17-48"/>
      </g>
     </g>
    </g>
    <g id="xtick_7">
     <g id="line2d_13">
      <g>
       <use style="stroke:#000000;stroke-width:0.8;" x="509.598198" xlink:href="#mfb847e655e" y="536.281821"/>
      </g>
     </g>
     <g id="line2d_14">
      <g>
       <use style="stroke:#000000;stroke-width:0.8;" x="509.598198" xlink:href="#ma693271435" y="24.626795"/>
      </g>
     </g>
     <g id="text_7">
      <!-- $12$ -->
      <g transform="translate(502.284894 553.655411)scale(0.14994 -0.14994)">
       <use transform="scale(0.996264)" xlink:href="#CMR17-49"/>
       <use transform="translate(45.690477 0)scale(0.996264)" xlink:href="#CMR17-50"/>
      </g>
     </g>
    </g>
   </g>
   <g id="matplotlib.axis_2">
    <g id="ytick_1">
     <g id="line2d_15">
      <defs>
       <path d="M 0 0
L -3.5 0
" id="m16b8a6191d" style="stroke:#000000;stroke-width:0.8;"/>
      </defs>
      <g>
       <use style="stroke:#000000;stroke-width:0.8;" x="33.753304" xlink:href="#m16b8a6191d" y="536.281821"/>
      </g>
     </g>
     <g id="line2d_16">
      <defs>
       <path d="M 0 0
L 3.5 0
" id="m232c710f63" style="stroke:#000000;stroke-width:0.8;"/>
      </defs>
      <g>
       <use style="stroke:#000000;stroke-width:0.8;" x="509.598198" xlink:href="#m232c710f63" y="536.281821"/>
      </g>
     </g>
     <g id="text_8">
      <!-- $0$ -->
      <g transform="translate(19.44 541.468616)scale(0.14994 -0.14994)">
       <use transform="scale(0.996264)" xlink:href="#CMR17-48"/>
      </g>
     </g>
    </g>
    <g id="ytick_2">
     <g id="line2d_17">
      <g>
       <use style="stroke:#000000;stroke-width:0.8;" x="33.753304" xlink:href="#m16b8a6191d" y="472.324943"/>
      </g>
     </g>
     <g id="line2d_18">
      <g>
       <use style="stroke:#000000;stroke-width:0.8;" x="509.598198" xlink:href="#m232c710f63" y="472.324943"/>
      </g>
     </g>
     <g id="text_9">
      <!-- $1$ -->
      <g transform="translate(19.44 477.511737)scale(0.14994 -0.14994)">
       <use transform="scale(0.996264)" xlink:href="#CMR17-49"/>
      </g>
     </g>
    </g>
    <g id="ytick_3">
     <g id="line2d_19">
      <g>
       <use style="stroke:#000000;stroke-width:0.8;" x="33.753304" xlink:href="#m16b8a6191d" y="408.368064"/>
      </g>
     </g>
     <g id="line2d_20">
      <g>
       <use style="stroke:#000000;stroke-width:0.8;" x="509.598198" xlink:href="#m232c710f63" y="408.368064"/>
      </g>
     </g>
     <g id="text_10">
      <!-- $2$ -->
      <g transform="translate(19.44 413.554859)scale(0.14994 -0.14994)">
       <use transform="scale(0.996264)" xlink:href="#CMR17-50"/>
      </g>
     </g>
    </g>
    <g id="ytick_4">
     <g id="line2d_21">
      <g>
       <use style="stroke:#000000;stroke-width:0.8;" x="33.753304" xlink:href="#m16b8a6191d" y="344.411186"/>
      </g>
     </g>
     <g id="line2d_22">
      <g>
       <use style="stroke:#000000;stroke-width:0.8;" x="509.598198" xlink:href="#m232c710f63" y="344.411186"/>
      </g>
     </g>
     <g id="text_11">
      <!-- $3$ -->
      <defs>
       <path d="M 22.09375 33.703125
C 31 33.703125 34.90625 25.96875 34.90625 17.03125
C 34.90625 5 28.5 0.390625 22.703125 0.390625
C 17.40625 0.390625 8.796875 3.03125 6.09375 10.828125
C 6.59375 10.625 7.09375 10.625 7.59375 10.625
C 10 10.625 11.796875 12.21875 11.796875 14.8125
C 11.796875 17.703125 9.59375 19 7.59375 19
C 5.90625 19 3.296875 18.203125 3.296875 14.46875
C 3.296875 5.234375 12.296875 -2 22.90625 -2
C 34 -2 42.5 6.71875 42.5 16.953125
C 42.5 26.671875 34.5 33.703125 25 34.796875
C 32.59375 36.375 39.90625 43.0625 39.90625 52.015625
C 39.90625 59.6875 32 65.296875 23 65.296875
C 13.90625 65.296875 5.90625 59.828125 5.90625 52.015625
C 5.90625 48.59375 8.5 48 9.796875 48
C 11.90625 48 13.703125 49.296875 13.703125 51.890625
C 13.703125 54.46875 11.90625 55.765625 9.796875 55.765625
C 9.40625 55.765625 8.90625 55.765625 8.5 55.578125
C 11.40625 61.859375 19.296875 63 22.796875 63
C 26.296875 63 32.90625 61.328125 32.90625 51.875
C 32.90625 49.109375 32.5 44.1875 29.09375 39.84375
C 26.09375 36 22.703125 36 19.40625 35.6875
C 18.90625 35.6875 16.59375 35.453125 16.203125 35.453125
C 15.5 35.359375 15.09375 35.265625 15.09375 34.5
C 15.09375 33.796875 15.203125 33.703125 17.203125 33.703125
z
" id="CMR17-51"/>
      </defs>
      <g transform="translate(19.44 349.597981)scale(0.14994 -0.14994)">
       <use transform="scale(0.996264)" xlink:href="#CMR17-51"/>
      </g>
     </g>
    </g>
    <g id="ytick_5">
     <g id="line2d_23">
      <g>
       <use style="stroke:#000000;stroke-width:0.8;" x="33.753304" xlink:href="#m16b8a6191d" y="280.454308"/>
      </g>
     </g>
     <g id="line2d_24">
      <g>
       <use style="stroke:#000000;stroke-width:0.8;" x="509.598198" xlink:href="#m232c710f63" y="280.454308"/>
      </g>
     </g>
     <g id="text_12">
      <!-- $4$ -->
      <g transform="translate(19.44 285.641103)scale(0.14994 -0.14994)">
       <use transform="scale(0.996264)" xlink:href="#CMR17-52"/>
      </g>
     </g>
    </g>
    <g id="ytick_6">
     <g id="line2d_25">
      <g>
       <use style="stroke:#000000;stroke-width:0.8;" x="33.753304" xlink:href="#m16b8a6191d" y="216.49743"/>
      </g>
     </g>
     <g id="line2d_26">
      <g>
       <use style="stroke:#000000;stroke-width:0.8;" x="509.598198" xlink:href="#m232c710f63" y="216.49743"/>
      </g>
     </g>
     <g id="text_13">
      <!-- $5$ -->
      <defs>
       <path d="M 11.40625 57.6875
C 12.40625 57.28125 16.5 56 20.703125 56
C 30 56 35.09375 61.109375 38 64.0625
C 38 64.953125 38 65.5 37.40625 65.5
C 37.296875 65.5 37.09375 65.5 36.296875 65.046875
C 32.796875 63.40625 28.703125 62.078125 23.703125 62.078125
C 20.703125 62.078125 16.203125 62.484375 11.296875 64.671875
C 10.203125 65.171875 10 65.171875 9.90625 65.171875
C 9.40625 65.171875 9.296875 65.0625 9.296875 63.078125
L 9.296875 34.421875
C 9.296875 32.640625 9.296875 32.140625 10.296875 32.140625
C 10.796875 32.140625 11 32.34375 11.5 33.03125
C 14.703125 37.515625 19.09375 39.40625 24.09375 39.40625
C 27.59375 39.40625 35.09375 37.21875 35.09375 20.140625
C 35.09375 16.953125 35.09375 11.171875 32.09375 6.578125
C 29.59375 2.484375 25.703125 0.390625 21.40625 0.390625
C 14.796875 0.390625 8.09375 5 6.296875 12.71875
C 6.703125 12.609375 7.5 12.421875 7.90625 12.421875
C 9.203125 12.421875 11.703125 13.125 11.703125 16.21875
C 11.703125 18.90625 9.796875 20 7.90625 20
C 5.59375 20 4.09375 18.59375 4.09375 15.796875
C 4.09375 7.09375 11 -2 21.59375 -2
C 31.90625 -2 41.703125 6.875 41.703125 19.75
C 41.703125 31.71875 33.90625 41 24.203125 41
C 19.09375 41 14.796875 39.109375 11.40625 35.53125
z
" id="CMR17-53"/>
      </defs>
      <g transform="translate(19.44 221.684225)scale(0.14994 -0.14994)">
       <use transform="scale(0.996264)" xlink:href="#CMR17-53"/>
      </g>
     </g>
    </g>
    <g id="ytick_7">
     <g id="line2d_27">
      <g>
       <use style="stroke:#000000;stroke-width:0.8;" x="33.753304" xlink:href="#m16b8a6191d" y="152.540551"/>
      </g>
     </g>
     <g id="line2d_28">
      <g>
       <use style="stroke:#000000;stroke-width:0.8;" x="509.598198" xlink:href="#m232c710f63" y="152.540551"/>
      </g>
     </g>
     <g id="text_14">
      <!-- $6$ -->
      <g transform="translate(19.44 157.727346)scale(0.14994 -0.14994)">
       <use transform="scale(0.996264)" xlink:href="#CMR17-54"/>
      </g>
     </g>
    </g>
    <g id="ytick_8">
     <g id="line2d_29">
      <g>
       <use style="stroke:#000000;stroke-width:0.8;" x="33.753304" xlink:href="#m16b8a6191d" y="88.583673"/>
      </g>
     </g>
     <g id="line2d_30">
      <g>
       <use style="stroke:#000000;stroke-width:0.8;" x="509.598198" xlink:href="#m232c710f63" y="88.583673"/>
      </g>
     </g>
     <g id="text_15">
      <!-- $7$ -->
      <defs>
       <path d="M 45.09375 61.578125
L 45.09375 63.765625
L 21.59375 63.765625
C 9.90625 63.765625 9.703125 65.078125 9.296875 67
L 7.5 67
L 4.59375 48.34375
L 6.40625 48.34375
C 6.703125 50.234375 7.40625 55.3125 8.59375 57.203125
C 9.203125 58 16.59375 58 18.296875 58
L 40.296875 58
L 29.203125 41.578125
C 21.796875 30.53125 16.703125 15.609375 16.703125 2.578125
C 16.703125 1.390625 16.703125 -2 20.296875 -2
C 23.90625 -2 23.90625 1.390625 23.90625 2.671875
L 23.90625 7.265625
C 23.90625 23.5625 26.703125 34.3125 31.296875 41.1875
z
" id="CMR17-55"/>
      </defs>
      <g transform="translate(19.44 93.770468)scale(0.14994 -0.14994)">
       <use transform="scale(0.996264)" xlink:href="#CMR17-55"/>
      </g>
     </g>
    </g>
    <g id="ytick_9">
     <g id="line2d_31">
      <g>
       <use style="stroke:#000000;stroke-width:0.8;" x="33.753304" xlink:href="#m16b8a6191d" y="24.626795"/>
      </g>
     </g>
     <g id="line2d_32">
      <g>
       <use style="stroke:#000000;stroke-width:0.8;" x="509.598198" xlink:href="#m232c710f63" y="24.626795"/>
      </g>
     </g>
     <g id="text_16">
      <!-- $8$ -->
      <g transform="translate(19.44 29.81359)scale(0.14994 -0.14994)">
       <use transform="scale(0.996264)" xlink:href="#CMR17-56"/>
      </g>
     </g>
    </g>
   </g>
   <g id="patch_3">
    <path d="M 33.753304 536.281821
L 33.753304 24.626795
" style="fill:none;stroke:#000000;stroke-linecap:square;stroke-linejoin:miter;stroke-width:0.8;"/>
   </g>
   <g id="patch_4">
    <path d="M 509.598198 536.281821
L 509.598198 24.626795
" style="fill:none;stroke:#000000;stroke-linecap:square;stroke-linejoin:miter;stroke-width:0.8;"/>
   </g>
   <g id="patch_5">
    <path d="M 33.753304 536.281821
L 509.598198 536.281821
" style="fill:none;stroke:#000000;stroke-linecap:square;stroke-linejoin:miter;stroke-width:0.8;"/>
   </g>
   <g id="patch_6">
    <path d="M 33.753304 24.626795
L 509.598198 24.626795
" style="fill:none;stroke:#000000;stroke-linecap:square;stroke-linejoin:miter;stroke-width:0.8;"/>
   </g>
  </g>
  <g id="axes_2">
   <g id="patch_7">
    <path d="M 600.033304 536.281821
L 1075.878198 536.281821
L 1075.878198 24.626795
L 600.033304 24.626795
z
" style="fill:none;"/>
   </g>
   <g id="PolyCollection_2">
    <path clip-path="url(#p7962b80d56)" d="M 600.033304 536.281821
L 600.033304 472.324943
L 639.687045 472.324943
L 639.687045 536.281821
L 600.033304 536.281821
z
" style="fill:#90ff66;stroke:#000000;stroke-width:4;"/>
    <path clip-path="url(#p7962b80d56)" d="M 639.687045 536.281821
L 639.687045 472.324943
L 679.340786 472.324943
L 679.340786 536.281821
L 639.687045 536.281821
z
" style="fill:#90ff66;stroke:#000000;stroke-width:4;"/>
    <path clip-path="url(#p7962b80d56)" d="M 679.340786 536.281821
L 679.340786 472.324943
L 718.994527 472.324943
L 718.994527 536.281821
L 679.340786 536.281821
z
" style="fill:#8ee35b;stroke:#000000;stroke-width:4;"/>
    <path clip-path="url(#p7962b80d56)" d="M 718.994527 536.281821
L 718.994527 472.324943
L 758.648268 472.324943
L 758.648268 536.281821
L 718.994527 536.281821
z
" style="fill:#8ee35b;stroke:#000000;stroke-width:4;"/>
    <path clip-path="url(#p7962b80d56)" d="M 758.648268 536.281821
L 758.648268 472.324943
L 798.30201 472.324943
L 798.30201 536.281821
L 758.648268 536.281821
z
" style="fill:#8baa44;stroke:#000000;stroke-width:4;"/>
    <path clip-path="url(#p7962b80d56)" d="M 798.30201 536.281821
L 798.30201 472.324943
L 837.955751 472.324943
L 837.955751 536.281821
L 798.30201 536.281821
z
" style="fill:#8baa44;stroke:#000000;stroke-width:4;"/>
    <path clip-path="url(#p7962b80d56)" d="M 837.955751 536.281821
L 837.955751 472.324943
L 877.609492 472.324943
L 877.609492 536.281821
L 837.955751 536.281821
z
" style="fill:#8baa44;stroke:#000000;stroke-width:4;"/>
    <path clip-path="url(#p7962b80d56)" d="M 877.609492 536.281821
L 877.609492 472.324943
L 917.263233 472.324943
L 917.263233 536.281821
L 877.609492 536.281821
z
" style="fill:#898e39;stroke:#000000;stroke-width:4;"/>
    <path clip-path="url(#p7962b80d56)" d="M 917.263233 536.281821
L 917.263233 472.324943
L 956.916974 472.324943
L 956.916974 536.281821
L 917.263233 536.281821
z
" style="fill:#898e39;stroke:#000000;stroke-width:4;"/>
    <path clip-path="url(#p7962b80d56)" d="M 956.916974 536.281821
L 956.916974 472.324943
L 996.570715 472.324943
L 996.570715 536.281821
L 956.916974 536.281821
z
" style="fill:#87712e;stroke:#000000;stroke-width:4;"/>
    <path clip-path="url(#p7962b80d56)" d="M 996.570715 536.281821
L 996.570715 472.324943
L 1036.224456 472.324943
L 1036.224456 536.281821
L 996.570715 536.281821
z
" style="fill:#855522;stroke:#000000;stroke-width:4;"/>
    <path clip-path="url(#p7962b80d56)" d="M 1036.224456 536.281821
L 1036.224456 472.324943
L 1075.878198 472.324943
L 1075.878198 536.281821
L 1036.224456 536.281821
z
" style="fill:#833917;stroke:#000000;stroke-width:4;"/>
    <path clip-path="url(#p7962b80d56)" d="M 600.033304 472.324943
L 600.033304 408.368064
L 639.687045 408.368064
L 639.687045 472.324943
L 600.033304 472.324943
z
" style="fill:#90ff66;stroke:#000000;stroke-width:4;"/>
    <path clip-path="url(#p7962b80d56)" d="M 639.687045 472.324943
L 639.687045 408.368064
L 679.340786 408.368064
L 679.340786 472.324943
L 639.687045 472.324943
z
" style="fill:#8ee35b;stroke:#000000;stroke-width:4;"/>
    <path clip-path="url(#p7962b80d56)" d="M 679.340786 472.324943
L 679.340786 408.368064
L 718.994527 408.368064
L 718.994527 472.324943
L 679.340786 472.324943
z
" style="fill:#8ee35b;stroke:#000000;stroke-width:4;"/>
    <path clip-path="url(#p7962b80d56)" d="M 718.994527 472.324943
L 718.994527 408.368064
L 758.648268 408.368064
L 758.648268 472.324943
L 718.994527 472.324943
z
" style="fill:#8dc650;stroke:#000000;stroke-width:4;"/>
    <path clip-path="url(#p7962b80d56)" d="M 758.648268 472.324943
L 758.648268 408.368064
L 798.30201 408.368064
L 798.30201 472.324943
L 758.648268 472.324943
z
" style="fill:#8baa44;stroke:#000000;stroke-width:4;"/>
    <path clip-path="url(#p7962b80d56)" d="M 798.30201 472.324943
L 798.30201 408.368064
L 837.955751 408.368064
L 837.955751 472.324943
L 798.30201 472.324943
z
" style="fill:#898e39;stroke:#000000;stroke-width:4;"/>
    <path clip-path="url(#p7962b80d56)" d="M 837.955751 472.324943
L 837.955751 408.368064
L 877.609492 408.368064
L 877.609492 472.324943
L 837.955751 472.324943
z
" style="fill:#87712e;stroke:#000000;stroke-width:4;"/>
    <path clip-path="url(#p7962b80d56)" d="M 877.609492 472.324943
L 877.609492 408.368064
L 917.263233 408.368064
L 917.263233 472.324943
L 877.609492 472.324943
z
" style="fill:#855522;stroke:#000000;stroke-width:4;"/>
    <path clip-path="url(#p7962b80d56)" d="M 917.263233 472.324943
L 917.263233 408.368064
L 956.916974 408.368064
L 956.916974 472.324943
L 917.263233 472.324943
z
" style="fill:#855522;stroke:#000000;stroke-width:4;"/>
    <path clip-path="url(#p7962b80d56)" d="M 956.916974 472.324943
L 956.916974 408.368064
L 996.570715 408.368064
L 996.570715 472.324943
L 956.916974 472.324943
z
" style="fill:#811c0b;stroke:#000000;stroke-width:4;"/>
    <path clip-path="url(#p7962b80d56)" d="M 996.570715 472.324943
L 996.570715 408.368064
L 1036.224456 408.368064
L 1036.224456 472.324943
L 996.570715 472.324943
z
" style="fill:#811c0b;stroke:#000000;stroke-width:4;"/>
    <path clip-path="url(#p7962b80d56)" d="M 1036.224456 472.324943
L 1036.224456 408.368064
L 1075.878198 408.368064
L 1075.878198 472.324943
L 1036.224456 472.324943
z
" style="fill:#800000;stroke:#000000;stroke-width:4;"/>
    <path clip-path="url(#p7962b80d56)" d="M 600.033304 408.368064
L 600.033304 344.411186
L 639.687045 344.411186
L 639.687045 408.368064
L 600.033304 408.368064
z
" style="fill:#90ff66;stroke:#000000;stroke-width:4;"/>
    <path clip-path="url(#p7962b80d56)" d="M 639.687045 408.368064
L 639.687045 344.411186
L 679.340786 344.411186
L 679.340786 408.368064
L 639.687045 408.368064
z
" style="fill:#90ff66;stroke:#000000;stroke-width:4;"/>
    <path clip-path="url(#p7962b80d56)" d="M 679.340786 408.368064
L 679.340786 344.411186
L 718.994527 344.411186
L 718.994527 408.368064
L 679.340786 408.368064
z
" style="fill:#90ff66;stroke:#000000;stroke-width:4;"/>
    <path clip-path="url(#p7962b80d56)" d="M 718.994527 408.368064
L 718.994527 344.411186
L 758.648268 344.411186
L 758.648268 408.368064
L 718.994527 408.368064
z
" style="fill:#8ee35b;stroke:#000000;stroke-width:4;"/>
    <path clip-path="url(#p7962b80d56)" d="M 758.648268 408.368064
L 758.648268 344.411186
L 798.30201 344.411186
L 798.30201 408.368064
L 758.648268 408.368064
z
" style="fill:#8baa44;stroke:#000000;stroke-width:4;"/>
    <path clip-path="url(#p7962b80d56)" d="M 798.30201 408.368064
L 798.30201 344.411186
L 837.955751 344.411186
L 837.955751 408.368064
L 798.30201 408.368064
z
" style="fill:#898e39;stroke:#000000;stroke-width:4;"/>
    <path clip-path="url(#p7962b80d56)" d="M 837.955751 408.368064
L 837.955751 344.411186
L 877.609492 344.411186
L 877.609492 408.368064
L 837.955751 408.368064
z
" style="fill:#87712e;stroke:#000000;stroke-width:4;"/>
    <path clip-path="url(#p7962b80d56)" d="M 877.609492 408.368064
L 877.609492 344.411186
L 917.263233 344.411186
L 917.263233 408.368064
L 877.609492 408.368064
z
" style="fill:#855522;stroke:#000000;stroke-width:4;"/>
    <path clip-path="url(#p7962b80d56)" d="M 917.263233 408.368064
L 917.263233 344.411186
L 956.916974 344.411186
L 956.916974 408.368064
L 917.263233 408.368064
z
" style="fill:#811c0b;stroke:#000000;stroke-width:4;"/>
    <path clip-path="url(#p7962b80d56)" d="M 956.916974 408.368064
L 956.916974 344.411186
L 996.570715 344.411186
L 996.570715 408.368064
L 956.916974 408.368064
z
" style="fill:#811c0b;stroke:#000000;stroke-width:4;"/>
    <path clip-path="url(#p7962b80d56)" d="M 996.570715 408.368064
L 996.570715 344.411186
L 1036.224456 344.411186
L 1036.224456 408.368064
L 996.570715 408.368064
z
" style="fill:#811c0b;stroke:#000000;stroke-width:4;"/>
    <path clip-path="url(#p7962b80d56)" d="M 1036.224456 408.368064
L 1036.224456 344.411186
L 1075.878198 344.411186
L 1075.878198 408.368064
L 1036.224456 408.368064
z
" style="fill:#800000;stroke:#000000;stroke-width:4;"/>
    <path clip-path="url(#p7962b80d56)" d="M 600.033304 344.411186
L 600.033304 280.454308
L 639.687045 280.454308
L 639.687045 344.411186
L 600.033304 344.411186
z
" style="fill:#90ff66;stroke:#000000;stroke-width:4;"/>
    <path clip-path="url(#p7962b80d56)" d="M 639.687045 344.411186
L 639.687045 280.454308
L 679.340786 280.454308
L 679.340786 344.411186
L 639.687045 344.411186
z
" style="fill:#8ee35b;stroke:#000000;stroke-width:4;"/>
    <path clip-path="url(#p7962b80d56)" d="M 679.340786 344.411186
L 679.340786 280.454308
L 718.994527 280.454308
L 718.994527 344.411186
L 679.340786 344.411186
z
" style="fill:#8dc650;stroke:#000000;stroke-width:4;"/>
    <path clip-path="url(#p7962b80d56)" d="M 718.994527 344.411186
L 718.994527 280.454308
L 758.648268 280.454308
L 758.648268 344.411186
L 718.994527 344.411186
z
" style="fill:#8dc650;stroke:#000000;stroke-width:4;"/>
    <path clip-path="url(#p7962b80d56)" d="M 758.648268 344.411186
L 758.648268 280.454308
L 798.30201 280.454308
L 798.30201 344.411186
L 758.648268 344.411186
z
" style="fill:#898e39;stroke:#000000;stroke-width:4;"/>
    <path clip-path="url(#p7962b80d56)" d="M 798.30201 344.411186
L 798.30201 280.454308
L 837.955751 280.454308
L 837.955751 344.411186
L 798.30201 344.411186
z
" style="fill:#855522;stroke:#000000;stroke-width:4;"/>
    <path clip-path="url(#p7962b80d56)" d="M 837.955751 344.411186
L 837.955751 280.454308
L 877.609492 280.454308
L 877.609492 344.411186
L 837.955751 344.411186
z
" style="fill:#833917;stroke:#000000;stroke-width:4;"/>
    <path clip-path="url(#p7962b80d56)" d="M 877.609492 344.411186
L 877.609492 280.454308
L 917.263233 280.454308
L 917.263233 344.411186
L 877.609492 344.411186
z
" style="fill:#833917;stroke:#000000;stroke-width:4;"/>
    <path clip-path="url(#p7962b80d56)" d="M 917.263233 344.411186
L 917.263233 280.454308
L 956.916974 280.454308
L 956.916974 344.411186
L 917.263233 344.411186
z
" style="fill:#833917;stroke:#000000;stroke-width:4;"/>
    <path clip-path="url(#p7962b80d56)" d="M 956.916974 344.411186
L 956.916974 280.454308
L 996.570715 280.454308
L 996.570715 344.411186
L 956.916974 344.411186
z
" style="fill:#811c0b;stroke:#000000;stroke-width:4;"/>
    <path clip-path="url(#p7962b80d56)" d="M 996.570715 344.411186
L 996.570715 280.454308
L 1036.224456 280.454308
L 1036.224456 344.411186
L 996.570715 344.411186
z
" style="fill:#800000;stroke:#000000;stroke-width:4;"/>
    <path clip-path="url(#p7962b80d56)" d="M 1036.224456 344.411186
L 1036.224456 280.454308
L 1075.878198 280.454308
L 1075.878198 344.411186
L 1036.224456 344.411186
z
" style="fill:#800000;stroke:#000000;stroke-width:4;"/>
    <path clip-path="url(#p7962b80d56)" d="M 600.033304 280.454308
L 600.033304 216.49743
L 639.687045 216.49743
L 639.687045 280.454308
L 600.033304 280.454308
z
" style="fill:#90ff66;stroke:#000000;stroke-width:4;"/>
    <path clip-path="url(#p7962b80d56)" d="M 639.687045 280.454308
L 639.687045 216.49743
L 679.340786 216.49743
L 679.340786 280.454308
L 639.687045 280.454308
z
" style="fill:#90ff66;stroke:#000000;stroke-width:4;"/>
    <path clip-path="url(#p7962b80d56)" d="M 679.340786 280.454308
L 679.340786 216.49743
L 718.994527 216.49743
L 718.994527 280.454308
L 679.340786 280.454308
z
" style="fill:#8ee35b;stroke:#000000;stroke-width:4;"/>
    <path clip-path="url(#p7962b80d56)" d="M 718.994527 280.454308
L 718.994527 216.49743
L 758.648268 216.49743
L 758.648268 280.454308
L 718.994527 280.454308
z
" style="fill:#8ee35b;stroke:#000000;stroke-width:4;"/>
    <path clip-path="url(#p7962b80d56)" d="M 758.648268 280.454308
L 758.648268 216.49743
L 798.30201 216.49743
L 798.30201 280.454308
L 758.648268 280.454308
z
" style="fill:#8dc650;stroke:#000000;stroke-width:4;"/>
    <path clip-path="url(#p7962b80d56)" d="M 798.30201 280.454308
L 798.30201 216.49743
L 837.955751 216.49743
L 837.955751 280.454308
L 798.30201 280.454308
z
" style="fill:#8dc650;stroke:#000000;stroke-width:4;"/>
    <path clip-path="url(#p7962b80d56)" d="M 837.955751 280.454308
L 837.955751 216.49743
L 877.609492 216.49743
L 877.609492 280.454308
L 837.955751 280.454308
z
" style="fill:#8dc650;stroke:#000000;stroke-width:4;"/>
    <path clip-path="url(#p7962b80d56)" d="M 877.609492 280.454308
L 877.609492 216.49743
L 917.263233 216.49743
L 917.263233 280.454308
L 877.609492 280.454308
z
" style="fill:#898e39;stroke:#000000;stroke-width:4;"/>
    <path clip-path="url(#p7962b80d56)" d="M 917.263233 280.454308
L 917.263233 216.49743
L 956.916974 216.49743
L 956.916974 280.454308
L 917.263233 280.454308
z
" style="fill:#87712e;stroke:#000000;stroke-width:4;"/>
    <path clip-path="url(#p7962b80d56)" d="M 956.916974 280.454308
L 956.916974 216.49743
L 996.570715 216.49743
L 996.570715 280.454308
L 956.916974 280.454308
z
" style="fill:#87712e;stroke:#000000;stroke-width:4;"/>
    <path clip-path="url(#p7962b80d56)" d="M 996.570715 280.454308
L 996.570715 216.49743
L 1036.224456 216.49743
L 1036.224456 280.454308
L 996.570715 280.454308
z
" style="fill:#855522;stroke:#000000;stroke-width:4;"/>
    <path clip-path="url(#p7962b80d56)" d="M 1036.224456 280.454308
L 1036.224456 216.49743
L 1075.878198 216.49743
L 1075.878198 280.454308
L 1036.224456 280.454308
z
" style="fill:#855522;stroke:#000000;stroke-width:4;"/>
    <path clip-path="url(#p7962b80d56)" d="M 600.033304 216.49743
L 600.033304 152.540551
L 639.687045 152.540551
L 639.687045 216.49743
L 600.033304 216.49743
z
" style="fill:#90ff66;stroke:#000000;stroke-width:4;"/>
    <path clip-path="url(#p7962b80d56)" d="M 639.687045 216.49743
L 639.687045 152.540551
L 679.340786 152.540551
L 679.340786 216.49743
L 639.687045 216.49743
z
" style="fill:#8ee35b;stroke:#000000;stroke-width:4;"/>
    <path clip-path="url(#p7962b80d56)" d="M 679.340786 216.49743
L 679.340786 152.540551
L 718.994527 152.540551
L 718.994527 216.49743
L 679.340786 216.49743
z
" style="fill:#8ee35b;stroke:#000000;stroke-width:4;"/>
    <path clip-path="url(#p7962b80d56)" d="M 718.994527 216.49743
L 718.994527 152.540551
L 758.648268 152.540551
L 758.648268 216.49743
L 718.994527 216.49743
z
" style="fill:#898e39;stroke:#000000;stroke-width:4;"/>
    <path clip-path="url(#p7962b80d56)" d="M 758.648268 216.49743
L 758.648268 152.540551
L 798.30201 152.540551
L 798.30201 216.49743
L 758.648268 216.49743
z
" style="fill:#898e39;stroke:#000000;stroke-width:4;"/>
    <path clip-path="url(#p7962b80d56)" d="M 798.30201 216.49743
L 798.30201 152.540551
L 837.955751 152.540551
L 837.955751 216.49743
L 798.30201 216.49743
z
" style="fill:#87712e;stroke:#000000;stroke-width:4;"/>
    <path clip-path="url(#p7962b80d56)" d="M 837.955751 216.49743
L 837.955751 152.540551
L 877.609492 152.540551
L 877.609492 216.49743
L 837.955751 216.49743
z
" style="fill:#87712e;stroke:#000000;stroke-width:4;"/>
    <path clip-path="url(#p7962b80d56)" d="M 877.609492 216.49743
L 877.609492 152.540551
L 917.263233 152.540551
L 917.263233 216.49743
L 877.609492 216.49743
z
" style="fill:#87712e;stroke:#000000;stroke-width:4;"/>
    <path clip-path="url(#p7962b80d56)" d="M 917.263233 216.49743
L 917.263233 152.540551
L 956.916974 152.540551
L 956.916974 216.49743
L 917.263233 216.49743
z
" style="fill:#855522;stroke:#000000;stroke-width:4;"/>
    <path clip-path="url(#p7962b80d56)" d="M 956.916974 216.49743
L 956.916974 152.540551
L 996.570715 152.540551
L 996.570715 216.49743
L 956.916974 216.49743
z
" style="fill:#855522;stroke:#000000;stroke-width:4;"/>
    <path clip-path="url(#p7962b80d56)" d="M 996.570715 216.49743
L 996.570715 152.540551
L 1036.224456 152.540551
L 1036.224456 216.49743
L 996.570715 216.49743
z
" style="fill:#800000;stroke:#000000;stroke-width:4;"/>
    <path clip-path="url(#p7962b80d56)" d="M 1036.224456 216.49743
L 1036.224456 152.540551
L 1075.878198 152.540551
L 1075.878198 216.49743
L 1036.224456 216.49743
z
" style="fill:#800000;stroke:#000000;stroke-width:4;"/>
    <path clip-path="url(#p7962b80d56)" d="M 600.033304 152.540551
L 600.033304 88.583673
L 639.687045 88.583673
L 639.687045 152.540551
L 600.033304 152.540551
z
" style="fill:#8ee35b;stroke:#000000;stroke-width:4;"/>
    <path clip-path="url(#p7962b80d56)" d="M 639.687045 152.540551
L 639.687045 88.583673
L 679.340786 88.583673
L 679.340786 152.540551
L 639.687045 152.540551
z
" style="fill:#8ee35b;stroke:#000000;stroke-width:4;"/>
    <path clip-path="url(#p7962b80d56)" d="M 679.340786 152.540551
L 679.340786 88.583673
L 718.994527 88.583673
L 718.994527 152.540551
L 679.340786 152.540551
z
" style="fill:#8baa44;stroke:#000000;stroke-width:4;"/>
    <path clip-path="url(#p7962b80d56)" d="M 718.994527 152.540551
L 718.994527 88.583673
L 758.648268 88.583673
L 758.648268 152.540551
L 718.994527 152.540551
z
" style="fill:#8baa44;stroke:#000000;stroke-width:4;"/>
    <path clip-path="url(#p7962b80d56)" d="M 758.648268 152.540551
L 758.648268 88.583673
L 798.30201 88.583673
L 798.30201 152.540551
L 758.648268 152.540551
z
" style="fill:#8baa44;stroke:#000000;stroke-width:4;"/>
    <path clip-path="url(#p7962b80d56)" d="M 798.30201 152.540551
L 798.30201 88.583673
L 837.955751 88.583673
L 837.955751 152.540551
L 798.30201 152.540551
z
" style="fill:#855522;stroke:#000000;stroke-width:4;"/>
    <path clip-path="url(#p7962b80d56)" d="M 837.955751 152.540551
L 837.955751 88.583673
L 877.609492 88.583673
L 877.609492 152.540551
L 837.955751 152.540551
z
" style="fill:#833917;stroke:#000000;stroke-width:4;"/>
    <path clip-path="url(#p7962b80d56)" d="M 877.609492 152.540551
L 877.609492 88.583673
L 917.263233 88.583673
L 917.263233 152.540551
L 877.609492 152.540551
z
" style="fill:#833917;stroke:#000000;stroke-width:4;"/>
    <path clip-path="url(#p7962b80d56)" d="M 917.263233 152.540551
L 917.263233 88.583673
L 956.916974 88.583673
L 956.916974 152.540551
L 917.263233 152.540551
z
" style="fill:#833917;stroke:#000000;stroke-width:4;"/>
    <path clip-path="url(#p7962b80d56)" d="M 956.916974 152.540551
L 956.916974 88.583673
L 996.570715 88.583673
L 996.570715 152.540551
L 956.916974 152.540551
z
" style="fill:#811c0b;stroke:#000000;stroke-width:4;"/>
    <path clip-path="url(#p7962b80d56)" d="M 996.570715 152.540551
L 996.570715 88.583673
L 1036.224456 88.583673
L 1036.224456 152.540551
L 996.570715 152.540551
z
" style="fill:#811c0b;stroke:#000000;stroke-width:4;"/>
    <path clip-path="url(#p7962b80d56)" d="M 1036.224456 152.540551
L 1036.224456 88.583673
L 1075.878198 88.583673
L 1075.878198 152.540551
L 1036.224456 152.540551
z
" style="fill:#800000;stroke:#000000;stroke-width:4;"/>
    <path clip-path="url(#p7962b80d56)" d="M 600.033304 88.583673
L 600.033304 24.626795
L 639.687045 24.626795
L 639.687045 88.583673
L 600.033304 88.583673
z
" style="fill:#8ee35b;stroke:#000000;stroke-width:4;"/>
    <path clip-path="url(#p7962b80d56)" d="M 639.687045 88.583673
L 639.687045 24.626795
L 679.340786 24.626795
L 679.340786 88.583673
L 639.687045 88.583673
z
" style="fill:#8dc650;stroke:#000000;stroke-width:4;"/>
    <path clip-path="url(#p7962b80d56)" d="M 679.340786 88.583673
L 679.340786 24.626795
L 718.994527 24.626795
L 718.994527 88.583673
L 679.340786 88.583673
z
" style="fill:#8dc650;stroke:#000000;stroke-width:4;"/>
    <path clip-path="url(#p7962b80d56)" d="M 718.994527 88.583673
L 718.994527 24.626795
L 758.648268 24.626795
L 758.648268 88.583673
L 718.994527 88.583673
z
" style="fill:#898e39;stroke:#000000;stroke-width:4;"/>
    <path clip-path="url(#p7962b80d56)" d="M 758.648268 88.583673
L 758.648268 24.626795
L 798.30201 24.626795
L 798.30201 88.583673
L 758.648268 88.583673
z
" style="fill:#898e39;stroke:#000000;stroke-width:4;"/>
    <path clip-path="url(#p7962b80d56)" d="M 798.30201 88.583673
L 798.30201 24.626795
L 837.955751 24.626795
L 837.955751 88.583673
L 798.30201 88.583673
z
" style="fill:#898e39;stroke:#000000;stroke-width:4;"/>
    <path clip-path="url(#p7962b80d56)" d="M 837.955751 88.583673
L 837.955751 24.626795
L 877.609492 24.626795
L 877.609492 88.583673
L 837.955751 88.583673
z
" style="fill:#87712e;stroke:#000000;stroke-width:4;"/>
    <path clip-path="url(#p7962b80d56)" d="M 877.609492 88.583673
L 877.609492 24.626795
L 917.263233 24.626795
L 917.263233 88.583673
L 877.609492 88.583673
z
" style="fill:#855522;stroke:#000000;stroke-width:4;"/>
    <path clip-path="url(#p7962b80d56)" d="M 917.263233 88.583673
L 917.263233 24.626795
L 956.916974 24.626795
L 956.916974 88.583673
L 917.263233 88.583673
z
" style="fill:#855522;stroke:#000000;stroke-width:4;"/>
    <path clip-path="url(#p7962b80d56)" d="M 956.916974 88.583673
L 956.916974 24.626795
L 996.570715 24.626795
L 996.570715 88.583673
L 956.916974 88.583673
z
" style="fill:#811c0b;stroke:#000000;stroke-width:4;"/>
    <path clip-path="url(#p7962b80d56)" d="M 996.570715 88.583673
L 996.570715 24.626795
L 1036.224456 24.626795
L 1036.224456 88.583673
L 996.570715 88.583673
z
" style="fill:#800000;stroke:#000000;stroke-width:4;"/>
    <path clip-path="url(#p7962b80d56)" d="M 1036.224456 88.583673
L 1036.224456 24.626795
L 1075.878198 24.626795
L 1075.878198 88.583673
L 1036.224456 88.583673
z
" style="fill:#800000;stroke:#000000;stroke-width:4;"/>
   </g>
   <g id="matplotlib.axis_3">
    <g id="xtick_8">
     <g id="line2d_33">
      <g>
       <use style="stroke:#000000;stroke-width:0.8;" x="600.033304" xlink:href="#mfb847e655e" y="536.281821"/>
      </g>
     </g>
     <g id="line2d_34">
      <g>
       <use style="stroke:#000000;stroke-width:0.8;" x="600.033304" xlink:href="#ma693271435" y="24.626795"/>
      </g>
     </g>
     <g id="text_17">
      <!-- $0$ -->
      <g transform="translate(596.376652 553.655411)scale(0.14994 -0.14994)">
       <use transform="scale(0.996264)" xlink:href="#CMR17-48"/>
      </g>
     </g>
    </g>
    <g id="xtick_9">
     <g id="line2d_35">
      <g>
       <use style="stroke:#000000;stroke-width:0.8;" x="679.340786" xlink:href="#mfb847e655e" y="536.281821"/>
      </g>
     </g>
     <g id="line2d_36">
      <g>
       <use style="stroke:#000000;stroke-width:0.8;" x="679.340786" xlink:href="#ma693271435" y="24.626795"/>
      </g>
     </g>
     <g id="text_18">
      <!-- $2$ -->
      <g transform="translate(675.684134 553.655411)scale(0.14994 -0.14994)">
       <use transform="scale(0.996264)" xlink:href="#CMR17-50"/>
      </g>
     </g>
    </g>
    <g id="xtick_10">
     <g id="line2d_37">
      <g>
       <use style="stroke:#000000;stroke-width:0.8;" x="758.648268" xlink:href="#mfb847e655e" y="536.281821"/>
      </g>
     </g>
     <g id="line2d_38">
      <g>
       <use style="stroke:#000000;stroke-width:0.8;" x="758.648268" xlink:href="#ma693271435" y="24.626795"/>
      </g>
     </g>
     <g id="text_19">
      <!-- $4$ -->
      <g transform="translate(754.991617 553.655411)scale(0.14994 -0.14994)">
       <use transform="scale(0.996264)" xlink:href="#CMR17-52"/>
      </g>
     </g>
    </g>
    <g id="xtick_11">
     <g id="line2d_39">
      <g>
       <use style="stroke:#000000;stroke-width:0.8;" x="837.955751" xlink:href="#mfb847e655e" y="536.281821"/>
      </g>
     </g>
     <g id="line2d_40">
      <g>
       <use style="stroke:#000000;stroke-width:0.8;" x="837.955751" xlink:href="#ma693271435" y="24.626795"/>
      </g>
     </g>
     <g id="text_20">
      <!-- $6$ -->
      <g transform="translate(834.299099 553.655411)scale(0.14994 -0.14994)">
       <use transform="scale(0.996264)" xlink:href="#CMR17-54"/>
      </g>
     </g>
    </g>
    <g id="xtick_12">
     <g id="line2d_41">
      <g>
       <use style="stroke:#000000;stroke-width:0.8;" x="917.263233" xlink:href="#mfb847e655e" y="536.281821"/>
      </g>
     </g>
     <g id="line2d_42">
      <g>
       <use style="stroke:#000000;stroke-width:0.8;" x="917.263233" xlink:href="#ma693271435" y="24.626795"/>
      </g>
     </g>
     <g id="text_21">
      <!-- $8$ -->
      <g transform="translate(913.606581 553.655411)scale(0.14994 -0.14994)">
       <use transform="scale(0.996264)" xlink:href="#CMR17-56"/>
      </g>
     </g>
    </g>
    <g id="xtick_13">
     <g id="line2d_43">
      <g>
       <use style="stroke:#000000;stroke-width:0.8;" x="996.570715" xlink:href="#mfb847e655e" y="536.281821"/>
      </g>
     </g>
     <g id="line2d_44">
      <g>
       <use style="stroke:#000000;stroke-width:0.8;" x="996.570715" xlink:href="#ma693271435" y="24.626795"/>
      </g>
     </g>
     <g id="text_22">
      <!-- $10$ -->
      <g transform="translate(989.257411 553.655411)scale(0.14994 -0.14994)">
       <use transform="scale(0.996264)" xlink:href="#CMR17-49"/>
       <use transform="translate(45.690477 0)scale(0.996264)" xlink:href="#CMR17-48"/>
      </g>
     </g>
    </g>
    <g id="xtick_14">
     <g id="line2d_45">
      <g>
       <use style="stroke:#000000;stroke-width:0.8;" x="1075.878198" xlink:href="#mfb847e655e" y="536.281821"/>
      </g>
     </g>
     <g id="line2d_46">
      <g>
       <use style="stroke:#000000;stroke-width:0.8;" x="1075.878198" xlink:href="#ma693271435" y="24.626795"/>
      </g>
     </g>
     <g id="text_23">
      <!-- $12$ -->
      <g transform="translate(1068.564894 553.655411)scale(0.14994 -0.14994)">
       <use transform="scale(0.996264)" xlink:href="#CMR17-49"/>
       <use transform="translate(45.690477 0)scale(0.996264)" xlink:href="#CMR17-50"/>
      </g>
     </g>
    </g>
   </g>
   <g id="matplotlib.axis_4">
    <g id="ytick_10">
     <g id="line2d_47">
      <g>
       <use style="stroke:#000000;stroke-width:0.8;" x="600.033304" xlink:href="#m16b8a6191d" y="536.281821"/>
      </g>
     </g>
     <g id="line2d_48">
      <g>
       <use style="stroke:#000000;stroke-width:0.8;" x="1075.878198" xlink:href="#m232c710f63" y="536.281821"/>
      </g>
     </g>
     <g id="text_24">
      <!-- $0$ -->
      <g transform="translate(585.72 541.468616)scale(0.14994 -0.14994)">
       <use transform="scale(0.996264)" xlink:href="#CMR17-48"/>
      </g>
     </g>
    </g>
    <g id="ytick_11">
     <g id="line2d_49">
      <g>
       <use style="stroke:#000000;stroke-width:0.8;" x="600.033304" xlink:href="#m16b8a6191d" y="472.324943"/>
      </g>
     </g>
     <g id="line2d_50">
      <g>
       <use style="stroke:#000000;stroke-width:0.8;" x="1075.878198" xlink:href="#m232c710f63" y="472.324943"/>
      </g>
     </g>
     <g id="text_25">
      <!-- $1$ -->
      <g transform="translate(585.72 477.511737)scale(0.14994 -0.14994)">
       <use transform="scale(0.996264)" xlink:href="#CMR17-49"/>
      </g>
     </g>
    </g>
    <g id="ytick_12">
     <g id="line2d_51">
      <g>
       <use style="stroke:#000000;stroke-width:0.8;" x="600.033304" xlink:href="#m16b8a6191d" y="408.368064"/>
      </g>
     </g>
     <g id="line2d_52">
      <g>
       <use style="stroke:#000000;stroke-width:0.8;" x="1075.878198" xlink:href="#m232c710f63" y="408.368064"/>
      </g>
     </g>
     <g id="text_26">
      <!-- $2$ -->
      <g transform="translate(585.72 413.554859)scale(0.14994 -0.14994)">
       <use transform="scale(0.996264)" xlink:href="#CMR17-50"/>
      </g>
     </g>
    </g>
    <g id="ytick_13">
     <g id="line2d_53">
      <g>
       <use style="stroke:#000000;stroke-width:0.8;" x="600.033304" xlink:href="#m16b8a6191d" y="344.411186"/>
      </g>
     </g>
     <g id="line2d_54">
      <g>
       <use style="stroke:#000000;stroke-width:0.8;" x="1075.878198" xlink:href="#m232c710f63" y="344.411186"/>
      </g>
     </g>
     <g id="text_27">
      <!-- $3$ -->
      <g transform="translate(585.72 349.597981)scale(0.14994 -0.14994)">
       <use transform="scale(0.996264)" xlink:href="#CMR17-51"/>
      </g>
     </g>
    </g>
    <g id="ytick_14">
     <g id="line2d_55">
      <g>
       <use style="stroke:#000000;stroke-width:0.8;" x="600.033304" xlink:href="#m16b8a6191d" y="280.454308"/>
      </g>
     </g>
     <g id="line2d_56">
      <g>
       <use style="stroke:#000000;stroke-width:0.8;" x="1075.878198" xlink:href="#m232c710f63" y="280.454308"/>
      </g>
     </g>
     <g id="text_28">
      <!-- $4$ -->
      <g transform="translate(585.72 285.641103)scale(0.14994 -0.14994)">
       <use transform="scale(0.996264)" xlink:href="#CMR17-52"/>
      </g>
     </g>
    </g>
    <g id="ytick_15">
     <g id="line2d_57">
      <g>
       <use style="stroke:#000000;stroke-width:0.8;" x="600.033304" xlink:href="#m16b8a6191d" y="216.49743"/>
      </g>
     </g>
     <g id="line2d_58">
      <g>
       <use style="stroke:#000000;stroke-width:0.8;" x="1075.878198" xlink:href="#m232c710f63" y="216.49743"/>
      </g>
     </g>
     <g id="text_29">
      <!-- $5$ -->
      <g transform="translate(585.72 221.684225)scale(0.14994 -0.14994)">
       <use transform="scale(0.996264)" xlink:href="#CMR17-53"/>
      </g>
     </g>
    </g>
    <g id="ytick_16">
     <g id="line2d_59">
      <g>
       <use style="stroke:#000000;stroke-width:0.8;" x="600.033304" xlink:href="#m16b8a6191d" y="152.540551"/>
      </g>
     </g>
     <g id="line2d_60">
      <g>
       <use style="stroke:#000000;stroke-width:0.8;" x="1075.878198" xlink:href="#m232c710f63" y="152.540551"/>
      </g>
     </g>
     <g id="text_30">
      <!-- $6$ -->
      <g transform="translate(585.72 157.727346)scale(0.14994 -0.14994)">
       <use transform="scale(0.996264)" xlink:href="#CMR17-54"/>
      </g>
     </g>
    </g>
    <g id="ytick_17">
     <g id="line2d_61">
      <g>
       <use style="stroke:#000000;stroke-width:0.8;" x="600.033304" xlink:href="#m16b8a6191d" y="88.583673"/>
      </g>
     </g>
     <g id="line2d_62">
      <g>
       <use style="stroke:#000000;stroke-width:0.8;" x="1075.878198" xlink:href="#m232c710f63" y="88.583673"/>
      </g>
     </g>
     <g id="text_31">
      <!-- $7$ -->
      <g transform="translate(585.72 93.770468)scale(0.14994 -0.14994)">
       <use transform="scale(0.996264)" xlink:href="#CMR17-55"/>
      </g>
     </g>
    </g>
    <g id="ytick_18">
     <g id="line2d_63">
      <g>
       <use style="stroke:#000000;stroke-width:0.8;" x="600.033304" xlink:href="#m16b8a6191d" y="24.626795"/>
      </g>
     </g>
     <g id="line2d_64">
      <g>
       <use style="stroke:#000000;stroke-width:0.8;" x="1075.878198" xlink:href="#m232c710f63" y="24.626795"/>
      </g>
     </g>
     <g id="text_32">
      <!-- $8$ -->
      <g transform="translate(585.72 29.81359)scale(0.14994 -0.14994)">
       <use transform="scale(0.996264)" xlink:href="#CMR17-56"/>
      </g>
     </g>
    </g>
   </g>
   <g id="patch_8">
    <path d="M 600.033304 536.281821
L 600.033304 24.626795
" style="fill:none;stroke:#000000;stroke-linecap:square;stroke-linejoin:miter;stroke-width:0.8;"/>
   </g>
   <g id="patch_9">
    <path d="M 1075.878198 536.281821
L 1075.878198 24.626795
" style="fill:none;stroke:#000000;stroke-linecap:square;stroke-linejoin:miter;stroke-width:0.8;"/>
   </g>
   <g id="patch_10">
    <path d="M 600.033304 536.281821
L 1075.878198 536.281821
" style="fill:none;stroke:#000000;stroke-linecap:square;stroke-linejoin:miter;stroke-width:0.8;"/>
   </g>
   <g id="patch_11">
    <path d="M 600.033304 24.626795
L 1075.878198 24.626795
" style="fill:none;stroke:#000000;stroke-linecap:square;stroke-linejoin:miter;stroke-width:0.8;"/>
   </g>
  </g>
  <g id="axes_3">
   <g id="patch_12">
    <path clip-path="url(#pad45a89603)" d="M 516.798198 536.281821
L 516.798198 485.116318
L 516.798198 75.792298
L 516.798198 24.626795
L 540.590442 24.626795
L 540.590442 75.792298
L 540.590442 485.116318
L 540.590442 536.281821
z
" style="fill:none;"/>
   </g>
   <g id="QuadMesh_1">
    <path clip-path="url(#pad45a89603)" d="M 516.798198 536.281821
L 540.590442 536.281821
L 540.590442 485.116318
L 516.798198 485.116318
L 516.798198 536.281821
" style="fill:#90ff66;"/>
    <path clip-path="url(#pad45a89603)" d="M 516.798198 485.116318
L 540.590442 485.116318
L 540.590442 433.950816
L 516.798198 433.950816
L 516.798198 485.116318
" style="fill:#beff39;"/>
    <path clip-path="url(#pad45a89603)" d="M 516.798198 433.950816
L 540.590442 433.950816
L 540.590442 382.785313
L 516.798198 382.785313
L 516.798198 433.950816
" style="fill:#e7ff0f;"/>
    <path clip-path="url(#pad45a89603)" d="M 516.798198 382.785313
L 540.590442 382.785313
L 540.590442 331.61981
L 516.798198 331.61981
L 516.798198 382.785313
" style="fill:#ffd300;"/>
    <path clip-path="url(#pad45a89603)" d="M 516.798198 331.61981
L 540.590442 331.61981
L 540.590442 280.454308
L 516.798198 280.454308
L 516.798198 331.61981
" style="fill:#ffa300;"/>
    <path clip-path="url(#pad45a89603)" d="M 516.798198 280.454308
L 540.590442 280.454308
L 540.590442 229.288805
L 516.798198 229.288805
L 516.798198 280.454308
" style="fill:#ff6f00;"/>
    <path clip-path="url(#pad45a89603)" d="M 516.798198 229.288805
L 540.590442 229.288805
L 540.590442 178.123303
L 516.798198 178.123303
L 516.798198 229.288805
" style="fill:#ff3f00;"/>
    <path clip-path="url(#pad45a89603)" d="M 516.798198 178.123303
L 540.590442 178.123303
L 540.590442 126.9578
L 516.798198 126.9578
L 516.798198 178.123303
" style="fill:#f60b00;"/>
    <path clip-path="url(#pad45a89603)" d="M 516.798198 126.9578
L 540.590442 126.9578
L 540.590442 75.792298
L 516.798198 75.792298
L 516.798198 126.9578
" style="fill:#bb0000;"/>
    <path clip-path="url(#pad45a89603)" d="M 516.798198 75.792298
L 540.590442 75.792298
L 540.590442 24.626795
L 516.798198 24.626795
L 516.798198 75.792298
" style="fill:#800000;"/>
   </g>
   <g id="matplotlib.axis_5"/>
   <g id="matplotlib.axis_6">
    <g id="ytick_19">
     <g id="line2d_65">
      <g>
       <use style="stroke:#000000;stroke-width:0.8;" x="540.590442" xlink:href="#m232c710f63" y="536.281821"/>
      </g>
     </g>
     <g id="text_33">
      <!-- $0.0$ -->
      <defs>
       <path d="M 18.40625 4.796875
C 18.40625 7.6875 16 9.671875 13.59375 9.671875
C 10.703125 9.671875 8.703125 7.28125 8.703125 4.890625
C 8.703125 2 11.09375 0 13.5 0
C 16.40625 0 18.40625 2.390625 18.40625 4.796875
z
" id="CMMI12-58"/>
      </defs>
      <g transform="translate(547.590442 541.468616)scale(0.14994 -0.14994)">
       <use transform="scale(0.996264)" xlink:href="#CMR17-48"/>
       <use transform="translate(45.690477 0)scale(0.996264)" xlink:href="#CMMI12-58"/>
       <use transform="translate(72.787654 0)scale(0.996264)" xlink:href="#CMR17-48"/>
      </g>
     </g>
    </g>
    <g id="ytick_20">
     <g id="line2d_66">
      <g>
       <use style="stroke:#000000;stroke-width:0.8;" x="540.590442" xlink:href="#m232c710f63" y="433.950816"/>
      </g>
     </g>
     <g id="text_34">
      <!-- $0.2$ -->
      <g transform="translate(547.590442 439.137611)scale(0.14994 -0.14994)">
       <use transform="scale(0.996264)" xlink:href="#CMR17-48"/>
       <use transform="translate(45.690477 0)scale(0.996264)" xlink:href="#CMMI12-58"/>
       <use transform="translate(72.787654 0)scale(0.996264)" xlink:href="#CMR17-50"/>
      </g>
     </g>
    </g>
    <g id="ytick_21">
     <g id="line2d_67">
      <g>
       <use style="stroke:#000000;stroke-width:0.8;" x="540.590442" xlink:href="#m232c710f63" y="331.61981"/>
      </g>
     </g>
     <g id="text_35">
      <!-- $0.4$ -->
      <g transform="translate(547.590442 336.806605)scale(0.14994 -0.14994)">
       <use transform="scale(0.996264)" xlink:href="#CMR17-48"/>
       <use transform="translate(45.690477 0)scale(0.996264)" xlink:href="#CMMI12-58"/>
       <use transform="translate(72.787654 0)scale(0.996264)" xlink:href="#CMR17-52"/>
      </g>
     </g>
    </g>
    <g id="ytick_22">
     <g id="line2d_68">
      <g>
       <use style="stroke:#000000;stroke-width:0.8;" x="540.590442" xlink:href="#m232c710f63" y="229.288805"/>
      </g>
     </g>
     <g id="text_36">
      <!-- $0.6$ -->
      <g transform="translate(547.590442 234.4756)scale(0.14994 -0.14994)">
       <use transform="scale(0.996264)" xlink:href="#CMR17-48"/>
       <use transform="translate(45.690477 0)scale(0.996264)" xlink:href="#CMMI12-58"/>
       <use transform="translate(72.787654 0)scale(0.996264)" xlink:href="#CMR17-54"/>
      </g>
     </g>
    </g>
    <g id="ytick_23">
     <g id="line2d_69">
      <g>
       <use style="stroke:#000000;stroke-width:0.8;" x="540.590442" xlink:href="#m232c710f63" y="126.9578"/>
      </g>
     </g>
     <g id="text_37">
      <!-- $0.8$ -->
      <g transform="translate(547.590442 132.144595)scale(0.14994 -0.14994)">
       <use transform="scale(0.996264)" xlink:href="#CMR17-48"/>
       <use transform="translate(45.690477 0)scale(0.996264)" xlink:href="#CMMI12-58"/>
       <use transform="translate(72.787654 0)scale(0.996264)" xlink:href="#CMR17-56"/>
      </g>
     </g>
    </g>
    <g id="ytick_24">
     <g id="line2d_70">
      <g>
       <use style="stroke:#000000;stroke-width:0.8;" x="540.590442" xlink:href="#m232c710f63" y="24.626795"/>
      </g>
     </g>
     <g id="text_38">
      <!-- $1.0$ -->
      <g transform="translate(547.590442 29.81359)scale(0.14994 -0.14994)">
       <use transform="scale(0.996264)" xlink:href="#CMR17-49"/>
       <use transform="translate(45.690477 0)scale(0.996264)" xlink:href="#CMMI12-58"/>
       <use transform="translate(72.787654 0)scale(0.996264)" xlink:href="#CMR17-48"/>
      </g>
     </g>
    </g>
   </g>
   <g id="patch_13">
    <path d="M 516.798198 536.281821
L 516.798198 485.116318
L 516.798198 75.792298
L 516.798198 24.626795
L 540.590442 24.626795
L 540.590442 75.792298
L 540.590442 485.116318
L 540.590442 536.281821
z
" style="fill:none;stroke:#000000;stroke-linejoin:miter;stroke-width:0.8;"/>
   </g>
  </g>
  <g id="axes_4">
   <g id="patch_14">
    <path clip-path="url(#p932aefbdca)" d="M 1083.078198 536.281821
L 1083.078198 485.116318
L 1083.078198 75.792298
L 1083.078198 24.626795
L 1106.870442 24.626795
L 1106.870442 75.792298
L 1106.870442 485.116318
L 1106.870442 536.281821
z
" style="fill:none;"/>
   </g>
   <g id="QuadMesh_2">
    <path clip-path="url(#p932aefbdca)" d="M 1083.078198 536.281821
L 1106.870442 536.281821
L 1106.870442 485.116318
L 1083.078198 485.116318
L 1083.078198 536.281821
" style="fill:#90ff66;"/>
    <path clip-path="url(#p932aefbdca)" d="M 1083.078198 485.116318
L 1106.870442 485.116318
L 1106.870442 433.950816
L 1083.078198 433.950816
L 1083.078198 485.116318
" style="fill:#8ee35b;"/>
    <path clip-path="url(#p932aefbdca)" d="M 1083.078198 433.950816
L 1106.870442 433.950816
L 1106.870442 382.785313
L 1083.078198 382.785313
L 1083.078198 433.950816
" style="fill:#8dc650;"/>
    <path clip-path="url(#p932aefbdca)" d="M 1083.078198 382.785313
L 1106.870442 382.785313
L 1106.870442 331.61981
L 1083.078198 331.61981
L 1083.078198 382.785313
" style="fill:#8baa44;"/>
    <path clip-path="url(#p932aefbdca)" d="M 1083.078198 331.61981
L 1106.870442 331.61981
L 1106.870442 280.454308
L 1083.078198 280.454308
L 1083.078198 331.61981
" style="fill:#898e39;"/>
    <path clip-path="url(#p932aefbdca)" d="M 1083.078198 280.454308
L 1106.870442 280.454308
L 1106.870442 229.288805
L 1083.078198 229.288805
L 1083.078198 280.454308
" style="fill:#87712e;"/>
    <path clip-path="url(#p932aefbdca)" d="M 1083.078198 229.288805
L 1106.870442 229.288805
L 1106.870442 178.123303
L 1083.078198 178.123303
L 1083.078198 229.288805
" style="fill:#855522;"/>
    <path clip-path="url(#p932aefbdca)" d="M 1083.078198 178.123303
L 1106.870442 178.123303
L 1106.870442 126.9578
L 1083.078198 126.9578
L 1083.078198 178.123303
" style="fill:#833917;"/>
    <path clip-path="url(#p932aefbdca)" d="M 1083.078198 126.9578
L 1106.870442 126.9578
L 1106.870442 75.792298
L 1083.078198 75.792298
L 1083.078198 126.9578
" style="fill:#811c0b;"/>
    <path clip-path="url(#p932aefbdca)" d="M 1083.078198 75.792298
L 1106.870442 75.792298
L 1106.870442 24.626795
L 1083.078198 24.626795
L 1083.078198 75.792298
" style="fill:#800000;"/>
   </g>
   <g id="matplotlib.axis_7"/>
   <g id="matplotlib.axis_8">
    <g id="ytick_25">
     <g id="line2d_71">
      <g>
       <use style="stroke:#000000;stroke-width:0.8;" x="1106.870442" xlink:href="#m232c710f63" y="536.281821"/>
      </g>
     </g>
     <g id="text_39">
      <!-- $0.0$ -->
      <g transform="translate(1113.870442 541.468616)scale(0.14994 -0.14994)">
       <use transform="scale(0.996264)" xlink:href="#CMR17-48"/>
       <use transform="translate(45.690477 0)scale(0.996264)" xlink:href="#CMMI12-58"/>
       <use transform="translate(72.787654 0)scale(0.996264)" xlink:href="#CMR17-48"/>
      </g>
     </g>
    </g>
    <g id="ytick_26">
     <g id="line2d_72">
      <g>
       <use style="stroke:#000000;stroke-width:0.8;" x="1106.870442" xlink:href="#m232c710f63" y="433.950816"/>
      </g>
     </g>
     <g id="text_40">
      <!-- $0.2$ -->
      <g transform="translate(1113.870442 439.137611)scale(0.14994 -0.14994)">
       <use transform="scale(0.996264)" xlink:href="#CMR17-48"/>
       <use transform="translate(45.690477 0)scale(0.996264)" xlink:href="#CMMI12-58"/>
       <use transform="translate(72.787654 0)scale(0.996264)" xlink:href="#CMR17-50"/>
      </g>
     </g>
    </g>
    <g id="ytick_27">
     <g id="line2d_73">
      <g>
       <use style="stroke:#000000;stroke-width:0.8;" x="1106.870442" xlink:href="#m232c710f63" y="331.61981"/>
      </g>
     </g>
     <g id="text_41">
      <!-- $0.4$ -->
      <g transform="translate(1113.870442 336.806605)scale(0.14994 -0.14994)">
       <use transform="scale(0.996264)" xlink:href="#CMR17-48"/>
       <use transform="translate(45.690477 0)scale(0.996264)" xlink:href="#CMMI12-58"/>
       <use transform="translate(72.787654 0)scale(0.996264)" xlink:href="#CMR17-52"/>
      </g>
     </g>
    </g>
    <g id="ytick_28">
     <g id="line2d_74">
      <g>
       <use style="stroke:#000000;stroke-width:0.8;" x="1106.870442" xlink:href="#m232c710f63" y="229.288805"/>
      </g>
     </g>
     <g id="text_42">
      <!-- $0.6$ -->
      <g transform="translate(1113.870442 234.4756)scale(0.14994 -0.14994)">
       <use transform="scale(0.996264)" xlink:href="#CMR17-48"/>
       <use transform="translate(45.690477 0)scale(0.996264)" xlink:href="#CMMI12-58"/>
       <use transform="translate(72.787654 0)scale(0.996264)" xlink:href="#CMR17-54"/>
      </g>
     </g>
    </g>
    <g id="ytick_29">
     <g id="line2d_75">
      <g>
       <use style="stroke:#000000;stroke-width:0.8;" x="1106.870442" xlink:href="#m232c710f63" y="126.9578"/>
      </g>
     </g>
     <g id="text_43">
      <!-- $0.8$ -->
      <g transform="translate(1113.870442 132.144595)scale(0.14994 -0.14994)">
       <use transform="scale(0.996264)" xlink:href="#CMR17-48"/>
       <use transform="translate(45.690477 0)scale(0.996264)" xlink:href="#CMMI12-58"/>
       <use transform="translate(72.787654 0)scale(0.996264)" xlink:href="#CMR17-56"/>
      </g>
     </g>
    </g>
    <g id="ytick_30">
     <g id="line2d_76">
      <g>
       <use style="stroke:#000000;stroke-width:0.8;" x="1106.870442" xlink:href="#m232c710f63" y="24.626795"/>
      </g>
     </g>
     <g id="text_44">
      <!-- $1.0$ -->
      <g transform="translate(1113.870442 29.81359)scale(0.14994 -0.14994)">
       <use transform="scale(0.996264)" xlink:href="#CMR17-49"/>
       <use transform="translate(45.690477 0)scale(0.996264)" xlink:href="#CMMI12-58"/>
       <use transform="translate(72.787654 0)scale(0.996264)" xlink:href="#CMR17-48"/>
      </g>
     </g>
    </g>
   </g>
   <g id="patch_15">
    <path d="M 1083.078198 536.281821
L 1083.078198 485.116318
L 1083.078198 75.792298
L 1083.078198 24.626795
L 1106.870442 24.626795
L 1106.870442 75.792298
L 1106.870442 485.116318
L 1106.870442 536.281821
z
" style="fill:none;stroke:#000000;stroke-linejoin:miter;stroke-width:0.8;"/>
   </g>
  </g>
 </g>
 <defs>
  <clipPath id="p992b7383cb">
   <rect height="511.655026" width="475.844894" x="33.753304" y="24.626795"/>
  </clipPath>
  <clipPath id="p7962b80d56">
   <rect height="511.655026" width="475.844894" x="600.033304" y="24.626795"/>
  </clipPath>
  <clipPath id="pad45a89603">
   <rect height="511.655026" width="23.792245" x="516.798198" y="24.626795"/>
  </clipPath>
  <clipPath id="p932aefbdca">
   <rect height="511.655026" width="23.792245" x="1083.078198" y="24.626795"/>
  </clipPath>
 </defs>
</svg>
