<?xml version="1.0" encoding="utf-8" standalone="no"?>
<!DOCTYPE svg PUBLIC "-//W3C//DTD SVG 1.1//EN"
  "http://www.w3.org/Graphics/SVG/1.1/DTD/svg11.dtd">
<!-- Created with matplotlib (https://matplotlib.org/) -->
<svg height="432pt" version="1.1" viewBox="0 0 576 432" width="576pt" xmlns="http://www.w3.org/2000/svg" xmlns:xlink="http://www.w3.org/1999/xlink">
 <defs>
  <style type="text/css">
*{stroke-linecap:butt;stroke-linejoin:round;}
  </style>
 </defs>
 <g id="figure_1">
  <g id="patch_1">
   <path d="M 0 432
L 576 432
L 576 0
L 0 0
z
" style="fill:none;"/>
  </g>
  <g id="axes_1">
   <g id="patch_2">
    <path d="M 52.442862 392.281821
L 553.06 392.281821
L 553.06 22.94
L 52.442862 22.94
z
" style="fill:none;"/>
   </g>
   <g id="matplotlib.axis_1">
    <g id="xtick_1">
     <g id="line2d_1">
      <defs>
       <path d="M 0 0
L 0 3.5
" id="m44159af248" style="stroke:#000000;stroke-width:0.8;"/>
      </defs>
      <g>
       <use style="stroke:#000000;stroke-width:0.8;" x="75.198186" xlink:href="#m44159af248" y="392.281821"/>
      </g>
     </g>
     <g id="line2d_2">
      <defs>
       <path d="M 0 0
L 0 -3.5
" id="m2bd7f4f71b" style="stroke:#000000;stroke-width:0.8;"/>
      </defs>
      <g>
       <use style="stroke:#000000;stroke-width:0.8;" x="75.198186" xlink:href="#m2bd7f4f71b" y="22.94"/>
      </g>
     </g>
     <g id="text_1">
      <!-- $0.0$ -->
      <defs>
       <path d="M 42 31.640625
C 42 37.75 41.90625 48.125 37.703125 56.109375
C 34 63.109375 28.09375 65.59375 22.90625 65.59375
C 18.09375 65.59375 12 63.40625 8.203125 56.203125
C 4.203125 48.71875 3.796875 39.4375 3.796875 31.640625
C 3.796875 25.953125 3.90625 17.28125 7 9.671875
C 11.296875 -0.609375 19 -2 22.90625 -2
C 27.5 -2 34.5 -0.109375 38.59375 9.375
C 41.59375 16.28125 42 24.359375 42 31.640625
z
M 22.90625 -0.40625
C 16.5 -0.40625 12.703125 5.078125 11.296875 12.6875
C 10.203125 18.5625 10.203125 27.15625 10.203125 32.75
C 10.203125 40.4375 10.203125 46.828125 11.5 52.921875
C 13.40625 61.390625 19 64 22.90625 64
C 27 64 32.296875 61.296875 34.203125 53.125
C 35.5 47.4375 35.59375 40.734375 35.59375 32.75
C 35.59375 26.25 35.59375 18.265625 34.40625 12.375
C 32.296875 1.484375 26.40625 -0.40625 22.90625 -0.40625
z
" id="CMR17-48"/>
       <path d="M 18.40625 4.796875
C 18.40625 7.6875 16 9.671875 13.59375 9.671875
C 10.703125 9.671875 8.703125 7.28125 8.703125 4.890625
C 8.703125 2 11.09375 0 13.5 0
C 16.40625 0 18.40625 2.390625 18.40625 4.796875
z
" id="CMMI12-58"/>
      </defs>
      <g transform="translate(65.853407 409.655411)scale(0.14994 -0.14994)">
       <use transform="scale(0.996264)" xlink:href="#CMR17-48"/>
       <use transform="translate(45.690477 0)scale(0.996264)" xlink:href="#CMMI12-58"/>
       <use transform="translate(72.787654 0)scale(0.996264)" xlink:href="#CMR17-48"/>
      </g>
     </g>
    </g>
    <g id="xtick_2">
     <g id="line2d_3">
      <g>
       <use style="stroke:#000000;stroke-width:0.8;" x="166.219484" xlink:href="#m44159af248" y="392.281821"/>
      </g>
     </g>
     <g id="line2d_4">
      <g>
       <use style="stroke:#000000;stroke-width:0.8;" x="166.219484" xlink:href="#m2bd7f4f71b" y="22.94"/>
      </g>
     </g>
     <g id="text_2">
      <!-- $0.2$ -->
      <defs>
       <path d="M 41.703125 15.453125
L 39.90625 15.453125
C 38.90625 8.375 38.09375 7.171875 37.703125 6.5625
C 37.203125 5.765625 30 5.765625 28.59375 5.765625
L 9.40625 5.765625
C 13 9.671875 20 16.75 28.5 24.953125
C 34.59375 30.734375 41.703125 37.53125 41.703125 47.421875
C 41.703125 59.21875 32.296875 66 21.796875 66
C 10.796875 66 4.09375 56.3125 4.09375 47.34375
C 4.09375 43.4375 7 42.9375 8.203125 42.9375
C 9.203125 42.9375 12.203125 43.546875 12.203125 47.03125
C 12.203125 50.109375 9.59375 51 8.203125 51
C 7.59375 51 7 50.90625 6.59375 50.703125
C 8.5 59.21875 14.296875 63.40625 20.40625 63.40625
C 29.09375 63.40625 34.796875 56.515625 34.796875 47.421875
C 34.796875 38.734375 29.703125 31.25 24 24.75
L 4.09375 2.28125
L 4.09375 0
L 39.296875 0
z
" id="CMR17-50"/>
      </defs>
      <g transform="translate(156.874705 409.655411)scale(0.14994 -0.14994)">
       <use transform="scale(0.996264)" xlink:href="#CMR17-48"/>
       <use transform="translate(45.690477 0)scale(0.996264)" xlink:href="#CMMI12-58"/>
       <use transform="translate(72.787654 0)scale(0.996264)" xlink:href="#CMR17-50"/>
      </g>
     </g>
    </g>
    <g id="xtick_3">
     <g id="line2d_5">
      <g>
       <use style="stroke:#000000;stroke-width:0.8;" x="257.240782" xlink:href="#m44159af248" y="392.281821"/>
      </g>
     </g>
     <g id="line2d_6">
      <g>
       <use style="stroke:#000000;stroke-width:0.8;" x="257.240782" xlink:href="#m2bd7f4f71b" y="22.94"/>
      </g>
     </g>
     <g id="text_3">
      <!-- $0.4$ -->
      <defs>
       <path d="M 33.59375 64.40625
C 33.59375 66.5 33.5 66.5 31.703125 66.5
L 2 19.59375
L 2 17
L 27.796875 17
L 27.796875 7.140625
C 27.796875 3.5 27.59375 2.5 20.59375 2.5
L 18.703125 2.5
L 18.703125 0
C 21.90625 0 27.296875 0 30.703125 0
C 34.09375 0 39.5 0 42.703125 0
L 42.703125 2.5
L 40.796875 2.5
C 33.796875 2.5 33.59375 3.5 33.59375 7.140625
L 33.59375 17
L 43.796875 17
L 43.796875 19.59375
L 33.59375 19.59375
z
M 28.09375 57.859375
L 28.09375 19.59375
L 4 19.59375
z
" id="CMR17-52"/>
      </defs>
      <g transform="translate(247.896003 409.655411)scale(0.14994 -0.14994)">
       <use transform="scale(0.996264)" xlink:href="#CMR17-48"/>
       <use transform="translate(45.690477 0)scale(0.996264)" xlink:href="#CMMI12-58"/>
       <use transform="translate(72.787654 0)scale(0.996264)" xlink:href="#CMR17-52"/>
      </g>
     </g>
    </g>
    <g id="xtick_4">
     <g id="line2d_7">
      <g>
       <use style="stroke:#000000;stroke-width:0.8;" x="348.26208" xlink:href="#m44159af248" y="392.281821"/>
      </g>
     </g>
     <g id="line2d_8">
      <g>
       <use style="stroke:#000000;stroke-width:0.8;" x="348.26208" xlink:href="#m2bd7f4f71b" y="22.94"/>
      </g>
     </g>
     <g id="text_4">
      <!-- $0.6$ -->
      <defs>
       <path d="M 10.59375 34
C 10.59375 57.65625 21.796875 63 28.296875 63
C 30.40625 63 35.5 62.640625 37.5 59
C 35.90625 59 32.90625 59 32.90625 55.515625
C 32.90625 52.828125 35.09375 51.921875 36.5 51.921875
C 37.40625 51.921875 40.09375 52.3125 40.09375 55.625
C 40.09375 61.78125 35.09375 65.296875 28.203125 65.296875
C 16.296875 65.296875 3.796875 52.96875 3.796875 31
C 3.796875 3.953125 15.09375 -2 23.09375 -2
C 32.796875 -2 42 6.671875 42 20.046875
C 42 32.515625 33.90625 41.59375 23.703125 41.59375
C 17.59375 41.59375 13.09375 37.609375 10.59375 30.625
z
M 23.09375 0.390625
C 10.796875 0.390625 10.796875 18.75 10.796875 22.4375
C 10.796875 29.625 14.203125 40 23.5 40
C 25.203125 40 30.09375 40 33.40625 33.125
C 35.203125 29.21875 35.203125 25.140625 35.203125 20.140625
C 35.203125 14.75 35.203125 10.78125 33.09375 6.78125
C 30.90625 2.671875 27.703125 0.390625 23.09375 0.390625
z
" id="CMR17-54"/>
      </defs>
      <g transform="translate(338.917301 409.655411)scale(0.14994 -0.14994)">
       <use transform="scale(0.996264)" xlink:href="#CMR17-48"/>
       <use transform="translate(45.690477 0)scale(0.996264)" xlink:href="#CMMI12-58"/>
       <use transform="translate(72.787654 0)scale(0.996264)" xlink:href="#CMR17-54"/>
      </g>
     </g>
    </g>
    <g id="xtick_5">
     <g id="line2d_9">
      <g>
       <use style="stroke:#000000;stroke-width:0.8;" x="439.283378" xlink:href="#m44159af248" y="392.281821"/>
      </g>
     </g>
     <g id="line2d_10">
      <g>
       <use style="stroke:#000000;stroke-width:0.8;" x="439.283378" xlink:href="#m2bd7f4f71b" y="22.94"/>
      </g>
     </g>
     <g id="text_5">
      <!-- $0.8$ -->
      <defs>
       <path d="M 27.203125 35.375
C 33.5 38.546875 39.90625 43.328125 39.90625 50.984375
C 39.90625 60.015625 31.09375 65.296875 23 65.296875
C 13.90625 65.296875 5.90625 58.734375 5.90625 49.6875
C 5.90625 47.203125 6.5 42.921875 10.40625 39.140625
C 11.40625 38.15625 15.59375 35.171875 18.296875 33.28125
C 13.796875 30.984375 3.296875 25.53125 3.296875 14.59375
C 3.296875 4.359375 13.09375 -2 22.796875 -2
C 33.5 -2 42.5 5.65625 42.5 15.78125
C 42.5 24.84375 36.40625 29.015625 32.40625 31.703125
z
M 14.09375 44.09375
C 13.296875 44.59375 9.296875 47.671875 9.296875 52.359375
C 9.296875 58.421875 15.59375 63 22.796875 63
C 30.703125 63 36.5 57.4375 36.5 50.96875
C 36.5 41.703125 26.09375 36.421875 25.59375 36.421875
C 25.5 36.421875 25.40625 36.421875 24.59375 37.03125
z
M 32.5 23.734375
C 34 22.640625 38.796875 19.375 38.796875 13.296875
C 38.796875 5.953125 31.40625 0.390625 23 0.390625
C 13.90625 0.390625 7 6.84375 7 14.6875
C 7 22.546875 13.09375 29.09375 20 32.1875
z
" id="CMR17-56"/>
      </defs>
      <g transform="translate(429.938599 409.655411)scale(0.14994 -0.14994)">
       <use transform="scale(0.996264)" xlink:href="#CMR17-48"/>
       <use transform="translate(45.690477 0)scale(0.996264)" xlink:href="#CMMI12-58"/>
       <use transform="translate(72.787654 0)scale(0.996264)" xlink:href="#CMR17-56"/>
      </g>
     </g>
    </g>
    <g id="xtick_6">
     <g id="line2d_11">
      <g>
       <use style="stroke:#000000;stroke-width:0.8;" x="530.304676" xlink:href="#m44159af248" y="392.281821"/>
      </g>
     </g>
     <g id="line2d_12">
      <g>
       <use style="stroke:#000000;stroke-width:0.8;" x="530.304676" xlink:href="#m2bd7f4f71b" y="22.94"/>
      </g>
     </g>
     <g id="text_6">
      <!-- $1.0$ -->
      <defs>
       <path d="M 26.59375 63.40625
C 26.59375 65.5 26.5 65.5 25.09375 65.5
C 21.203125 61.1875 15.296875 59.796875 9.703125 59.796875
C 9.40625 59.796875 8.90625 59.796875 8.796875 59.5
C 8.703125 59.296875 8.703125 59.09375 8.703125 57
C 11.796875 57 17 57.59375 21 59.984375
L 21 7.203125
C 21 3.6875 20.796875 2.5 12.203125 2.5
L 9.203125 2.5
L 9.203125 0
C 14 0 19 0 23.796875 0
C 28.59375 0 33.59375 0 38.40625 0
L 38.40625 2.5
L 35.40625 2.5
C 26.796875 2.5 26.59375 3.59375 26.59375 7.15625
z
" id="CMR17-49"/>
      </defs>
      <g transform="translate(520.959897 409.655411)scale(0.14994 -0.14994)">
       <use transform="scale(0.996264)" xlink:href="#CMR17-49"/>
       <use transform="translate(45.690477 0)scale(0.996264)" xlink:href="#CMMI12-58"/>
       <use transform="translate(72.787654 0)scale(0.996264)" xlink:href="#CMR17-48"/>
      </g>
     </g>
    </g>
   </g>
   <g id="matplotlib.axis_2">
    <g id="ytick_1">
     <g id="line2d_13">
      <defs>
       <path d="M 0 0
L -3.5 0
" id="m606e396331" style="stroke:#000000;stroke-width:0.8;"/>
      </defs>
      <g>
       <use style="stroke:#000000;stroke-width:0.8;" x="52.442862" xlink:href="#m606e396331" y="375.493556"/>
      </g>
     </g>
     <g id="line2d_14">
      <defs>
       <path d="M 0 0
L 3.5 0
" id="m26e3c1594a" style="stroke:#000000;stroke-width:0.8;"/>
      </defs>
      <g>
       <use style="stroke:#000000;stroke-width:0.8;" x="553.06" xlink:href="#m26e3c1594a" y="375.493556"/>
      </g>
     </g>
     <g id="text_7">
      <!-- $0.00$ -->
      <g transform="translate(19.44 380.680351)scale(0.14994 -0.14994)">
       <use transform="scale(0.996264)" xlink:href="#CMR17-48"/>
       <use transform="translate(45.690477 0)scale(0.996264)" xlink:href="#CMMI12-58"/>
       <use transform="translate(72.787654 0)scale(0.996264)" xlink:href="#CMR17-48"/>
       <use transform="translate(118.478131 0)scale(0.996264)" xlink:href="#CMR17-48"/>
      </g>
     </g>
    </g>
    <g id="ytick_2">
     <g id="line2d_15">
      <g>
       <use style="stroke:#000000;stroke-width:0.8;" x="52.442862" xlink:href="#m606e396331" y="331.313913"/>
      </g>
     </g>
     <g id="line2d_16">
      <g>
       <use style="stroke:#000000;stroke-width:0.8;" x="553.06" xlink:href="#m26e3c1594a" y="331.313913"/>
      </g>
     </g>
     <g id="text_8">
      <!-- $0.25$ -->
      <defs>
       <path d="M 11.40625 57.6875
C 12.40625 57.28125 16.5 56 20.703125 56
C 30 56 35.09375 61.109375 38 64.0625
C 38 64.953125 38 65.5 37.40625 65.5
C 37.296875 65.5 37.09375 65.5 36.296875 65.046875
C 32.796875 63.40625 28.703125 62.078125 23.703125 62.078125
C 20.703125 62.078125 16.203125 62.484375 11.296875 64.671875
C 10.203125 65.171875 10 65.171875 9.90625 65.171875
C 9.40625 65.171875 9.296875 65.0625 9.296875 63.078125
L 9.296875 34.421875
C 9.296875 32.640625 9.296875 32.140625 10.296875 32.140625
C 10.796875 32.140625 11 32.34375 11.5 33.03125
C 14.703125 37.515625 19.09375 39.40625 24.09375 39.40625
C 27.59375 39.40625 35.09375 37.21875 35.09375 20.140625
C 35.09375 16.953125 35.09375 11.171875 32.09375 6.578125
C 29.59375 2.484375 25.703125 0.390625 21.40625 0.390625
C 14.796875 0.390625 8.09375 5 6.296875 12.71875
C 6.703125 12.609375 7.5 12.421875 7.90625 12.421875
C 9.203125 12.421875 11.703125 13.125 11.703125 16.21875
C 11.703125 18.90625 9.796875 20 7.90625 20
C 5.59375 20 4.09375 18.59375 4.09375 15.796875
C 4.09375 7.09375 11 -2 21.59375 -2
C 31.90625 -2 41.703125 6.875 41.703125 19.75
C 41.703125 31.71875 33.90625 41 24.203125 41
C 19.09375 41 14.796875 39.109375 11.40625 35.53125
z
" id="CMR17-53"/>
      </defs>
      <g transform="translate(19.44 336.500707)scale(0.14994 -0.14994)">
       <use transform="scale(0.996264)" xlink:href="#CMR17-48"/>
       <use transform="translate(45.690477 0)scale(0.996264)" xlink:href="#CMMI12-58"/>
       <use transform="translate(72.787654 0)scale(0.996264)" xlink:href="#CMR17-50"/>
       <use transform="translate(118.478131 0)scale(0.996264)" xlink:href="#CMR17-53"/>
      </g>
     </g>
    </g>
    <g id="ytick_3">
     <g id="line2d_17">
      <g>
       <use style="stroke:#000000;stroke-width:0.8;" x="52.442862" xlink:href="#m606e396331" y="287.134269"/>
      </g>
     </g>
     <g id="line2d_18">
      <g>
       <use style="stroke:#000000;stroke-width:0.8;" x="553.06" xlink:href="#m26e3c1594a" y="287.134269"/>
      </g>
     </g>
     <g id="text_9">
      <!-- $0.50$ -->
      <g transform="translate(19.44 292.321064)scale(0.14994 -0.14994)">
       <use transform="scale(0.996264)" xlink:href="#CMR17-48"/>
       <use transform="translate(45.690477 0)scale(0.996264)" xlink:href="#CMMI12-58"/>
       <use transform="translate(72.787654 0)scale(0.996264)" xlink:href="#CMR17-53"/>
       <use transform="translate(118.478131 0)scale(0.996264)" xlink:href="#CMR17-48"/>
      </g>
     </g>
    </g>
    <g id="ytick_4">
     <g id="line2d_19">
      <g>
       <use style="stroke:#000000;stroke-width:0.8;" x="52.442862" xlink:href="#m606e396331" y="242.954625"/>
      </g>
     </g>
     <g id="line2d_20">
      <g>
       <use style="stroke:#000000;stroke-width:0.8;" x="553.06" xlink:href="#m26e3c1594a" y="242.954625"/>
      </g>
     </g>
     <g id="text_10">
      <!-- $0.75$ -->
      <defs>
       <path d="M 45.09375 61.578125
L 45.09375 63.765625
L 21.59375 63.765625
C 9.90625 63.765625 9.703125 65.078125 9.296875 67
L 7.5 67
L 4.59375 48.34375
L 6.40625 48.34375
C 6.703125 50.234375 7.40625 55.3125 8.59375 57.203125
C 9.203125 58 16.59375 58 18.296875 58
L 40.296875 58
L 29.203125 41.578125
C 21.796875 30.53125 16.703125 15.609375 16.703125 2.578125
C 16.703125 1.390625 16.703125 -2 20.296875 -2
C 23.90625 -2 23.90625 1.390625 23.90625 2.671875
L 23.90625 7.265625
C 23.90625 23.5625 26.703125 34.3125 31.296875 41.1875
z
" id="CMR17-55"/>
      </defs>
      <g transform="translate(19.44 248.14142)scale(0.14994 -0.14994)">
       <use transform="scale(0.996264)" xlink:href="#CMR17-48"/>
       <use transform="translate(45.690477 0)scale(0.996264)" xlink:href="#CMMI12-58"/>
       <use transform="translate(72.787654 0)scale(0.996264)" xlink:href="#CMR17-55"/>
       <use transform="translate(118.478131 0)scale(0.996264)" xlink:href="#CMR17-53"/>
      </g>
     </g>
    </g>
    <g id="ytick_5">
     <g id="line2d_21">
      <g>
       <use style="stroke:#000000;stroke-width:0.8;" x="52.442862" xlink:href="#m606e396331" y="198.774982"/>
      </g>
     </g>
     <g id="line2d_22">
      <g>
       <use style="stroke:#000000;stroke-width:0.8;" x="553.06" xlink:href="#m26e3c1594a" y="198.774982"/>
      </g>
     </g>
     <g id="text_11">
      <!-- $1.00$ -->
      <g transform="translate(19.44 203.961777)scale(0.14994 -0.14994)">
       <use transform="scale(0.996264)" xlink:href="#CMR17-49"/>
       <use transform="translate(45.690477 0)scale(0.996264)" xlink:href="#CMMI12-58"/>
       <use transform="translate(72.787654 0)scale(0.996264)" xlink:href="#CMR17-48"/>
       <use transform="translate(118.478131 0)scale(0.996264)" xlink:href="#CMR17-48"/>
      </g>
     </g>
    </g>
    <g id="ytick_6">
     <g id="line2d_23">
      <g>
       <use style="stroke:#000000;stroke-width:0.8;" x="52.442862" xlink:href="#m606e396331" y="154.595338"/>
      </g>
     </g>
     <g id="line2d_24">
      <g>
       <use style="stroke:#000000;stroke-width:0.8;" x="553.06" xlink:href="#m26e3c1594a" y="154.595338"/>
      </g>
     </g>
     <g id="text_12">
      <!-- $1.25$ -->
      <g transform="translate(19.44 159.782133)scale(0.14994 -0.14994)">
       <use transform="scale(0.996264)" xlink:href="#CMR17-49"/>
       <use transform="translate(45.690477 0)scale(0.996264)" xlink:href="#CMMI12-58"/>
       <use transform="translate(72.787654 0)scale(0.996264)" xlink:href="#CMR17-50"/>
       <use transform="translate(118.478131 0)scale(0.996264)" xlink:href="#CMR17-53"/>
      </g>
     </g>
    </g>
    <g id="ytick_7">
     <g id="line2d_25">
      <g>
       <use style="stroke:#000000;stroke-width:0.8;" x="52.442862" xlink:href="#m606e396331" y="110.415694"/>
      </g>
     </g>
     <g id="line2d_26">
      <g>
       <use style="stroke:#000000;stroke-width:0.8;" x="553.06" xlink:href="#m26e3c1594a" y="110.415694"/>
      </g>
     </g>
     <g id="text_13">
      <!-- $1.50$ -->
      <g transform="translate(19.44 115.602489)scale(0.14994 -0.14994)">
       <use transform="scale(0.996264)" xlink:href="#CMR17-49"/>
       <use transform="translate(45.690477 0)scale(0.996264)" xlink:href="#CMMI12-58"/>
       <use transform="translate(72.787654 0)scale(0.996264)" xlink:href="#CMR17-53"/>
       <use transform="translate(118.478131 0)scale(0.996264)" xlink:href="#CMR17-48"/>
      </g>
     </g>
    </g>
    <g id="ytick_8">
     <g id="line2d_27">
      <g>
       <use style="stroke:#000000;stroke-width:0.8;" x="52.442862" xlink:href="#m606e396331" y="66.236051"/>
      </g>
     </g>
     <g id="line2d_28">
      <g>
       <use style="stroke:#000000;stroke-width:0.8;" x="553.06" xlink:href="#m26e3c1594a" y="66.236051"/>
      </g>
     </g>
     <g id="text_14">
      <!-- $1.75$ -->
      <g transform="translate(19.44 71.422846)scale(0.14994 -0.14994)">
       <use transform="scale(0.996264)" xlink:href="#CMR17-49"/>
       <use transform="translate(45.690477 0)scale(0.996264)" xlink:href="#CMMI12-58"/>
       <use transform="translate(72.787654 0)scale(0.996264)" xlink:href="#CMR17-55"/>
       <use transform="translate(118.478131 0)scale(0.996264)" xlink:href="#CMR17-53"/>
      </g>
     </g>
    </g>
   </g>
   <g id="line2d_29">
    <path clip-path="url(#pe451abc0b8)" d="M 75.198186 375.493556
L 530.304676 198.774982
" style="fill:none;stroke:#000000;stroke-linecap:square;stroke-width:2;"/>
   </g>
   <g id="line2d_30">
    <path clip-path="url(#pe451abc0b8)" d="M 75.198186 357.821699
L 530.304676 181.103124
" style="fill:none;stroke:#ff0000;stroke-linecap:square;stroke-width:2;"/>
   </g>
   <g id="line2d_31">
    <path clip-path="url(#pe451abc0b8)" d="M 75.198186 340.149841
L 530.304676 163.431267
" style="fill:none;stroke:#008000;stroke-linecap:square;stroke-width:2;"/>
   </g>
   <g id="line2d_32">
    <path clip-path="url(#pe451abc0b8)" d="M 75.198186 322.477984
L 530.304676 145.759409
" style="fill:none;stroke:#0000ff;stroke-linecap:square;stroke-width:2;"/>
   </g>
   <g id="line2d_33">
    <path clip-path="url(#pe451abc0b8)" d="M 75.198186 304.806126
L 530.304676 128.087552
" style="fill:none;stroke:#bfbf00;stroke-linecap:square;stroke-width:2;"/>
   </g>
   <g id="line2d_34">
    <path clip-path="url(#pe451abc0b8)" d="M 75.198186 287.134269
L 530.304676 110.415694
" style="fill:none;stroke:#00bfbf;stroke-linecap:square;stroke-width:2;"/>
   </g>
   <g id="line2d_35">
    <path clip-path="url(#pe451abc0b8)" d="M 75.198186 269.462411
L 530.304676 92.743837
" style="fill:none;stroke:#bf00bf;stroke-linecap:square;stroke-width:2;"/>
   </g>
   <g id="line2d_36">
    <path clip-path="url(#pe451abc0b8)" d="M 75.198186 251.790554
L 530.304676 75.071979
" style="fill:none;stroke:#000000;stroke-linecap:square;stroke-width:2;"/>
   </g>
   <g id="line2d_37">
    <path clip-path="url(#pe451abc0b8)" d="M 75.198186 234.118697
L 530.304676 57.400122
" style="fill:none;stroke:#ff0000;stroke-linecap:square;stroke-width:2;"/>
   </g>
   <g id="line2d_38">
    <path clip-path="url(#pe451abc0b8)" d="M 75.198186 216.446839
L 530.304676 39.728265
" style="fill:none;stroke:#008000;stroke-linecap:square;stroke-width:2;"/>
   </g>
   <g id="patch_3">
    <path d="M 52.442862 392.281821
L 52.442862 22.94
" style="fill:none;stroke:#000000;stroke-linecap:square;stroke-linejoin:miter;stroke-width:0.8;"/>
   </g>
   <g id="patch_4">
    <path d="M 553.06 392.281821
L 553.06 22.94
" style="fill:none;stroke:#000000;stroke-linecap:square;stroke-linejoin:miter;stroke-width:0.8;"/>
   </g>
   <g id="patch_5">
    <path d="M 52.442862 392.281821
L 553.06 392.281821
" style="fill:none;stroke:#000000;stroke-linecap:square;stroke-linejoin:miter;stroke-width:0.8;"/>
   </g>
   <g id="patch_6">
    <path d="M 52.442862 22.94
L 553.06 22.94
" style="fill:none;stroke:#000000;stroke-linecap:square;stroke-linejoin:miter;stroke-width:0.8;"/>
   </g>
   <g id="legend_1">
    <g id="patch_7">
     <path d="M 456.574279 335.751231
L 540.46 335.751231
Q 544.06 335.751231 544.06 332.151231
L 544.06 83.07059
Q 544.06 79.47059 540.46 79.47059
L 456.574279 79.47059
Q 452.974279 79.47059 452.974279 83.07059
L 452.974279 332.151231
Q 452.974279 335.751231 456.574279 335.751231
z
" style="fill:#ffffff;stroke:#cccccc;stroke-linejoin:miter;"/>
    </g>
    <g id="line2d_39">
     <path d="M 460.174279 92.97059
L 496.174279 92.97059
" style="fill:none;stroke:#000000;stroke-linecap:square;stroke-width:2;"/>
    </g>
    <g id="line2d_40"/>
    <g id="text_15">
     <!-- $i = 0$ -->
     <defs>
      <path d="M 28.296875 14.265625
C 28.296875 14.765625 27.90625 15.171875 27.296875 15.171875
C 26.40625 15.171875 26.296875 14.875 25.796875 13.171875
C 23.203125 4.09375 19.09375 1 15.796875 1
C 14.59375 1 13.203125 1.296875 13.203125 4.296875
C 13.203125 6.984375 14.40625 9.984375 15.5 12.96875
L 22.5 31.53125
C 22.796875 32.328125 23.5 34.125 23.5 36.015625
C 23.5 40.21875 20.5 44 15.59375 44
C 6.40625 44 2.703125 29.53125 2.703125 28.734375
C 2.703125 28.34375 3.09375 27.84375 3.796875 27.84375
C 4.703125 27.84375 4.796875 28.234375 5.203125 29.625
C 7.59375 37.9375 11.40625 41.90625 15.296875 41.90625
C 16.203125 41.90625 17.90625 41.90625 17.90625 38.71875
C 17.90625 36.125 16.59375 32.828125 15.796875 30.640625
L 8.796875 12.078125
C 8.203125 10.484375 7.59375 8.875 7.59375 7.078125
C 7.59375 2.59375 10.703125 -1 15.5 -1
C 24.703125 -1 28.296875 13.578125 28.296875 14.265625
z
M 27.5 62.703125
C 27.5 64.203125 26.296875 66 24.09375 66
C 21.796875 66 19.203125 63.796875 19.203125 61.203125
C 19.203125 58.71875 21.296875 57.921875 22.5 57.921875
C 25.203125 57.921875 27.5 60.515625 27.5 62.703125
z
" id="CMMI12-105"/>
      <path d="M 64.296875 31.515625
C 65.796875 31.515625 67.296875 31.515625 67.296875 33.203125
C 67.296875 35 65.59375 35 63.90625 35
L 8 35
C 6.296875 35 4.59375 35 4.59375 33.203125
C 4.59375 31.515625 6.09375 31.515625 7.59375 31.515625
z
M 63.90625 14
C 65.59375 14 67.296875 14 67.296875 15.796875
C 67.296875 17.484375 65.796875 17.484375 64.296875 17.484375
L 7.59375 17.484375
C 6.09375 17.484375 4.59375 17.484375 4.59375 15.796875
C 4.59375 14 6.296875 14 8 14
z
" id="CMR17-61"/>
     </defs>
     <g transform="translate(499.774279 99.27059)scale(0.18 -0.18)">
      <use transform="scale(0.996264)" xlink:href="#CMMI12-105"/>
      <use transform="translate(60.952611 0)scale(0.996264)" xlink:href="#CMR17-61"/>
      <use transform="translate(160.341408 0)scale(0.996264)" xlink:href="#CMR17-48"/>
     </g>
    </g>
    <g id="line2d_41">
     <path d="M 460.174279 118.058654
L 496.174279 118.058654
" style="fill:none;stroke:#ff0000;stroke-linecap:square;stroke-width:2;"/>
    </g>
    <g id="line2d_42"/>
    <g id="text_16">
     <!-- $i = 1$ -->
     <g transform="translate(499.774279 124.358654)scale(0.18 -0.18)">
      <use transform="scale(0.996264)" xlink:href="#CMMI12-105"/>
      <use transform="translate(60.952611 0)scale(0.996264)" xlink:href="#CMR17-61"/>
      <use transform="translate(160.341408 0)scale(0.996264)" xlink:href="#CMR17-49"/>
     </g>
    </g>
    <g id="line2d_43">
     <path d="M 460.174279 143.146718
L 496.174279 143.146718
" style="fill:none;stroke:#008000;stroke-linecap:square;stroke-width:2;"/>
    </g>
    <g id="line2d_44"/>
    <g id="text_17">
     <!-- $i = 2$ -->
     <g transform="translate(499.774279 149.446718)scale(0.18 -0.18)">
      <use transform="scale(0.996264)" xlink:href="#CMMI12-105"/>
      <use transform="translate(60.952611 0)scale(0.996264)" xlink:href="#CMR17-61"/>
      <use transform="translate(160.341408 0)scale(0.996264)" xlink:href="#CMR17-50"/>
     </g>
    </g>
    <g id="line2d_45">
     <path d="M 460.174279 168.234782
L 496.174279 168.234782
" style="fill:none;stroke:#0000ff;stroke-linecap:square;stroke-width:2;"/>
    </g>
    <g id="line2d_46"/>
    <g id="text_18">
     <!-- $i = 3$ -->
     <defs>
      <path d="M 22.09375 33.703125
C 31 33.703125 34.90625 25.96875 34.90625 17.03125
C 34.90625 5 28.5 0.390625 22.703125 0.390625
C 17.40625 0.390625 8.796875 3.03125 6.09375 10.828125
C 6.59375 10.625 7.09375 10.625 7.59375 10.625
C 10 10.625 11.796875 12.21875 11.796875 14.8125
C 11.796875 17.703125 9.59375 19 7.59375 19
C 5.90625 19 3.296875 18.203125 3.296875 14.46875
C 3.296875 5.234375 12.296875 -2 22.90625 -2
C 34 -2 42.5 6.71875 42.5 16.953125
C 42.5 26.671875 34.5 33.703125 25 34.796875
C 32.59375 36.375 39.90625 43.0625 39.90625 52.015625
C 39.90625 59.6875 32 65.296875 23 65.296875
C 13.90625 65.296875 5.90625 59.828125 5.90625 52.015625
C 5.90625 48.59375 8.5 48 9.796875 48
C 11.90625 48 13.703125 49.296875 13.703125 51.890625
C 13.703125 54.46875 11.90625 55.765625 9.796875 55.765625
C 9.40625 55.765625 8.90625 55.765625 8.5 55.578125
C 11.40625 61.859375 19.296875 63 22.796875 63
C 26.296875 63 32.90625 61.328125 32.90625 51.875
C 32.90625 49.109375 32.5 44.1875 29.09375 39.84375
C 26.09375 36 22.703125 36 19.40625 35.6875
C 18.90625 35.6875 16.59375 35.453125 16.203125 35.453125
C 15.5 35.359375 15.09375 35.265625 15.09375 34.5
C 15.09375 33.796875 15.203125 33.703125 17.203125 33.703125
z
" id="CMR17-51"/>
     </defs>
     <g transform="translate(499.774279 174.534782)scale(0.18 -0.18)">
      <use transform="scale(0.996264)" xlink:href="#CMMI12-105"/>
      <use transform="translate(60.952611 0)scale(0.996264)" xlink:href="#CMR17-61"/>
      <use transform="translate(160.341408 0)scale(0.996264)" xlink:href="#CMR17-51"/>
     </g>
    </g>
    <g id="line2d_47">
     <path d="M 460.174279 193.322846
L 496.174279 193.322846
" style="fill:none;stroke:#bfbf00;stroke-linecap:square;stroke-width:2;"/>
    </g>
    <g id="line2d_48"/>
    <g id="text_19">
     <!-- $i = 4$ -->
     <g transform="translate(499.774279 199.622846)scale(0.18 -0.18)">
      <use transform="scale(0.996264)" xlink:href="#CMMI12-105"/>
      <use transform="translate(60.952611 0)scale(0.996264)" xlink:href="#CMR17-61"/>
      <use transform="translate(160.341408 0)scale(0.996264)" xlink:href="#CMR17-52"/>
     </g>
    </g>
    <g id="line2d_49">
     <path d="M 460.174279 218.41091
L 496.174279 218.41091
" style="fill:none;stroke:#00bfbf;stroke-linecap:square;stroke-width:2;"/>
    </g>
    <g id="line2d_50"/>
    <g id="text_20">
     <!-- $i = 5$ -->
     <g transform="translate(499.774279 224.71091)scale(0.18 -0.18)">
      <use transform="scale(0.996264)" xlink:href="#CMMI12-105"/>
      <use transform="translate(60.952611 0)scale(0.996264)" xlink:href="#CMR17-61"/>
      <use transform="translate(160.341408 0)scale(0.996264)" xlink:href="#CMR17-53"/>
     </g>
    </g>
    <g id="line2d_51">
     <path d="M 460.174279 243.498975
L 496.174279 243.498975
" style="fill:none;stroke:#bf00bf;stroke-linecap:square;stroke-width:2;"/>
    </g>
    <g id="line2d_52"/>
    <g id="text_21">
     <!-- $i = 6$ -->
     <g transform="translate(499.774279 249.798975)scale(0.18 -0.18)">
      <use transform="scale(0.996264)" xlink:href="#CMMI12-105"/>
      <use transform="translate(60.952611 0)scale(0.996264)" xlink:href="#CMR17-61"/>
      <use transform="translate(160.341408 0)scale(0.996264)" xlink:href="#CMR17-54"/>
     </g>
    </g>
    <g id="line2d_53">
     <path d="M 460.174279 268.587039
L 496.174279 268.587039
" style="fill:none;stroke:#000000;stroke-linecap:square;stroke-width:2;"/>
    </g>
    <g id="line2d_54"/>
    <g id="text_22">
     <!-- $i = 7$ -->
     <g transform="translate(499.774279 274.887039)scale(0.18 -0.18)">
      <use transform="scale(0.996264)" xlink:href="#CMMI12-105"/>
      <use transform="translate(60.952611 0)scale(0.996264)" xlink:href="#CMR17-61"/>
      <use transform="translate(160.341408 0)scale(0.996264)" xlink:href="#CMR17-55"/>
     </g>
    </g>
    <g id="line2d_55">
     <path d="M 460.174279 293.675103
L 496.174279 293.675103
" style="fill:none;stroke:#ff0000;stroke-linecap:square;stroke-width:2;"/>
    </g>
    <g id="line2d_56"/>
    <g id="text_23">
     <!-- $i = 8$ -->
     <g transform="translate(499.774279 299.975103)scale(0.18 -0.18)">
      <use transform="scale(0.996264)" xlink:href="#CMMI12-105"/>
      <use transform="translate(60.952611 0)scale(0.996264)" xlink:href="#CMR17-61"/>
      <use transform="translate(160.341408 0)scale(0.996264)" xlink:href="#CMR17-56"/>
     </g>
    </g>
    <g id="line2d_57">
     <path d="M 460.174279 318.763167
L 496.174279 318.763167
" style="fill:none;stroke:#008000;stroke-linecap:square;stroke-width:2;"/>
    </g>
    <g id="line2d_58"/>
    <g id="text_24">
     <!-- $i = 9$ -->
     <defs>
      <path d="M 35.203125 29.125
C 35.203125 7.25 26.09375 0.484375 18.59375 0.484375
C 16.296875 0.484375 10.703125 0.484375 8.40625 4.59375
C 11 4.1875 12.90625 5.578125 12.90625 8.09375
C 12.90625 10.8125 10.703125 11.703125 9.296875 11.703125
C 8.40625 11.703125 5.703125 11.296875 5.703125 7.90625
C 5.703125 1.109375 11.59375 -2 18.796875 -2
C 30.296875 -2 42 10.53125 42 32.390625
C 42 59.640625 30.796875 65.296875 23.203125 65.296875
C 13.296875 65.296875 3.796875 56.6875 3.796875 43.40625
C 3.796875 31.109375 11.90625 22 22.09375 22
C 30.5 22 34.203125 29.734375 35.203125 33
z
M 22.296875 23.59375
C 19.59375 23.59375 15.796875 24.09375 12.703125 30.03125
C 10.59375 33.890625 10.59375 38.453125 10.59375 43.296875
C 10.59375 49.15625 10.59375 53.203125 13.40625 57.5625
C 14.796875 59.640625 17.40625 63 23.203125 63
C 35 63 35 45.078125 35 41.125
C 35 34.09375 31.796875 23.59375 22.296875 23.59375
z
" id="CMR17-57"/>
     </defs>
     <g transform="translate(499.774279 325.063167)scale(0.18 -0.18)">
      <use transform="scale(0.996264)" xlink:href="#CMMI12-105"/>
      <use transform="translate(60.952611 0)scale(0.996264)" xlink:href="#CMR17-61"/>
      <use transform="translate(160.341408 0)scale(0.996264)" xlink:href="#CMR17-57"/>
     </g>
    </g>
   </g>
  </g>
 </g>
 <defs>
  <clipPath id="pe451abc0b8">
   <rect height="369.341821" width="500.617138" x="52.442862" y="22.94"/>
  </clipPath>
 </defs>
</svg>
