<?xml version="1.0" encoding="utf-8" standalone="no"?>
<!DOCTYPE svg PUBLIC "-//W3C//DTD SVG 1.1//EN"
  "http://www.w3.org/Graphics/SVG/1.1/DTD/svg11.dtd">
<!-- Created with matplotlib (http://matplotlib.org/) -->
<svg height="432pt" version="1.1" viewBox="0 0 648 432" width="648pt" xmlns="http://www.w3.org/2000/svg" xmlns:xlink="http://www.w3.org/1999/xlink">
 <defs>
  <style type="text/css">
*{stroke-linecap:butt;stroke-linejoin:round;}
  </style>
 </defs>
 <g id="figure_1">
  <g id="patch_1">
   <path d="M 0 432
L 648 432
L 648 0
L 0 0
z
" style="fill:none;"/>
  </g>
  <g id="axes_1">
   <g id="patch_2">
    <path d="M 41.066608 392.281821
L 515.281321 392.281821
L 515.281321 22.94
L 41.066608 22.94
z
" style="fill:none;"/>
   </g>
   <g id="matplotlib.axis_1">
    <g id="xtick_1">
     <g id="line2d_1">
      <defs>
       <path d="M 0 0
L 0 3.5
" id="m7ee6af7353" style="stroke:#000000;stroke-width:0.8;"/>
      </defs>
      <g>
       <use style="stroke:#000000;stroke-width:0.8;" x="62.621822" xlink:href="#m7ee6af7353" y="392.281821"/>
      </g>
     </g>
     <g id="line2d_2">
      <defs>
       <path d="M 0 0
L 0 -3.5
" id="mfaae08ade0" style="stroke:#000000;stroke-width:0.8;"/>
      </defs>
      <g>
       <use style="stroke:#000000;stroke-width:0.8;" x="62.621822" xlink:href="#mfaae08ade0" y="22.94"/>
      </g>
     </g>
     <g id="text_1">
      <!-- $0$ -->
      <defs>
       <path d="M 42 31.84375
C 42 37.96875 41.90625 48.421875 37.703125 56.453125
C 34 63.484375 28.09375 66 22.90625 66
C 18.09375 66 12 63.78125 8.203125 56.5625
C 4.203125 49.015625 3.796875 39.671875 3.796875 31.84375
C 3.796875 26.109375 3.90625 17.375 7 9.734375
C 11.296875 -0.609375 19 -2 22.90625 -2
C 27.5 -2 34.5 -0.109375 38.59375 9.4375
C 41.59375 16.375 42 24.5 42 31.84375
z
M 22.90625 -0.40625
C 16.5 -0.40625 12.703125 5.125 11.296875 12.75
C 10.203125 18.6875 10.203125 27.328125 10.203125 32.953125
C 10.203125 40.6875 10.203125 47.109375 11.5 53.234375
C 13.40625 61.78125 19 64.390625 22.90625 64.390625
C 27 64.390625 32.296875 61.671875 34.203125 53.4375
C 35.5 47.71875 35.59375 40.984375 35.59375 32.953125
C 35.59375 26.421875 35.59375 18.375 34.40625 12.453125
C 32.296875 1.5 26.40625 -0.40625 22.90625 -0.40625
z
" id="CMR17-48"/>
      </defs>
      <g transform="translate(58.96517 409.655411)scale(0.14994 -0.14994)">
       <use transform="scale(0.996264)" xlink:href="#CMR17-48"/>
      </g>
     </g>
    </g>
    <g id="xtick_2">
     <g id="line2d_3">
      <g>
       <use style="stroke:#000000;stroke-width:0.8;" x="158.422774" xlink:href="#m7ee6af7353" y="392.281821"/>
      </g>
     </g>
     <g id="line2d_4">
      <g>
       <use style="stroke:#000000;stroke-width:0.8;" x="158.422774" xlink:href="#mfaae08ade0" y="22.94"/>
      </g>
     </g>
     <g id="text_2">
      <!-- $2$ -->
      <defs>
       <path d="M 41.703125 15.46875
L 39.90625 15.46875
C 38.90625 8.390625 38.09375 7.1875 37.703125 6.59375
C 37.203125 5.796875 30 5.796875 28.59375 5.796875
L 9.40625 5.796875
C 13 9.6875 20 16.765625 28.5 24.9375
C 34.59375 30.71875 41.703125 37.5 41.703125 47.390625
C 41.703125 59.1875 32.296875 66 21.796875 66
C 10.796875 66 4.09375 56.296875 4.09375 47.296875
C 4.09375 43.390625 7 42.890625 8.203125 42.890625
C 9.203125 42.890625 12.203125 43.484375 12.203125 46.984375
C 12.203125 50.09375 9.59375 51 8.203125 51
C 7.59375 51 7 50.890625 6.59375 50.6875
C 8.5 59.1875 14.296875 63.390625 20.40625 63.390625
C 29.09375 63.390625 34.796875 56.5 34.796875 47.390625
C 34.796875 38.703125 29.703125 31.21875 24 24.734375
L 4.09375 2.296875
L 4.09375 0
L 39.296875 0
z
" id="CMR17-50"/>
      </defs>
      <g transform="translate(154.766122 409.655411)scale(0.14994 -0.14994)">
       <use transform="scale(0.996264)" xlink:href="#CMR17-50"/>
      </g>
     </g>
    </g>
    <g id="xtick_3">
     <g id="line2d_5">
      <g>
       <use style="stroke:#000000;stroke-width:0.8;" x="254.223726" xlink:href="#m7ee6af7353" y="392.281821"/>
      </g>
     </g>
     <g id="line2d_6">
      <g>
       <use style="stroke:#000000;stroke-width:0.8;" x="254.223726" xlink:href="#mfaae08ade0" y="22.94"/>
      </g>
     </g>
     <g id="text_3">
      <!-- $4$ -->
      <defs>
       <path d="M 33.59375 64.796875
C 33.59375 66.890625 33.5 67 31.703125 67
L 2 19.59375
L 2 17
L 27.796875 17
L 27.796875 7.1875
C 27.796875 3.59375 27.59375 2.59375 20.59375 2.59375
L 18.703125 2.59375
L 18.703125 0
C 21.90625 0.1875 27.296875 0.1875 30.703125 0.1875
C 34.09375 0.1875 39.5 0.1875 42.703125 0
L 42.703125 2.59375
L 40.796875 2.59375
C 33.796875 2.59375 33.59375 3.59375 33.59375 7.1875
L 33.59375 17
L 43.796875 17
L 43.796875 19.59375
L 33.59375 19.59375
z
M 28.09375 58.171875
L 28.09375 19.59375
L 4 19.59375
z
" id="CMR17-52"/>
      </defs>
      <g transform="translate(250.567074 409.655411)scale(0.14994 -0.14994)">
       <use transform="scale(0.996264)" xlink:href="#CMR17-52"/>
      </g>
     </g>
    </g>
    <g id="xtick_4">
     <g id="line2d_7">
      <g>
       <use style="stroke:#000000;stroke-width:0.8;" x="350.024678" xlink:href="#m7ee6af7353" y="392.281821"/>
      </g>
     </g>
     <g id="line2d_8">
      <g>
       <use style="stroke:#000000;stroke-width:0.8;" x="350.024678" xlink:href="#mfaae08ade0" y="22.94"/>
      </g>
     </g>
     <g id="text_4">
      <!-- $6$ -->
      <defs>
       <path d="M 10.59375 34.34375
C 10.59375 58 21.796875 63.6875 28.296875 63.6875
C 30.40625 63.6875 35.5 63.265625 37.5 59.09375
C 35.90625 59.09375 32.90625 59.09375 32.90625 55.59375
C 32.90625 52.890625 35.09375 52 36.5 52
C 37.40625 52 40.09375 52.390625 40.09375 55.796875
C 40.09375 62.296875 35.09375 66 28.203125 66
C 16.296875 66 3.796875 53.296875 3.796875 31.421875
C 3.796875 4.015625 15.09375 -2 23.09375 -2
C 32.796875 -2 42 6.734375 42 20.234375
C 42 32.828125 33.90625 42 23.703125 42
C 17.59375 42 13.09375 37.96875 10.59375 30.921875
z
M 23.09375 0.390625
C 10.796875 0.390625 10.796875 18.9375 10.796875 22.65625
C 10.796875 29.90625 14.203125 40.390625 23.5 40.390625
C 25.203125 40.390625 30.09375 40.390625 33.40625 33.4375
C 35.203125 29.515625 35.203125 25.375 35.203125 20.34375
C 35.203125 14.90625 35.203125 10.875 33.09375 6.84375
C 30.90625 2.703125 27.703125 0.390625 23.09375 0.390625
z
" id="CMR17-54"/>
      </defs>
      <g transform="translate(346.368027 409.655411)scale(0.14994 -0.14994)">
       <use transform="scale(0.996264)" xlink:href="#CMR17-54"/>
      </g>
     </g>
    </g>
    <g id="xtick_5">
     <g id="line2d_9">
      <g>
       <use style="stroke:#000000;stroke-width:0.8;" x="445.825631" xlink:href="#m7ee6af7353" y="392.281821"/>
      </g>
     </g>
     <g id="line2d_10">
      <g>
       <use style="stroke:#000000;stroke-width:0.8;" x="445.825631" xlink:href="#mfaae08ade0" y="22.94"/>
      </g>
     </g>
     <g id="text_5">
      <!-- $8$ -->
      <defs>
       <path d="M 27.203125 35.765625
C 33.5 38.96875 39.90625 43.796875 39.90625 51.53125
C 39.90625 60.6875 31.09375 66 23 66
C 13.90625 66 5.90625 59.375 5.90625 50.234375
C 5.90625 47.71875 6.5 43.390625 10.40625 39.578125
C 11.40625 38.578125 15.59375 35.5625 18.296875 33.65625
C 13.796875 31.34375 3.296875 25.8125 3.296875 14.765625
C 3.296875 4.40625 13.09375 -2 22.796875 -2
C 33.5 -2 42.5 5.71875 42.5 15.96875
C 42.5 25.109375 36.40625 29.328125 32.40625 32.046875
z
M 14.09375 44.609375
C 13.296875 45.109375 9.296875 48.21875 9.296875 52.9375
C 9.296875 59.078125 15.59375 63.6875 22.796875 63.6875
C 30.703125 63.6875 36.5 58.0625 36.5 51.53125
C 36.5 42.1875 26.09375 36.859375 25.59375 36.859375
C 25.5 36.859375 25.40625 36.859375 24.59375 37.46875
z
M 32.5 24
C 34 22.90625 38.796875 19.578125 38.796875 13.453125
C 38.796875 6.015625 31.40625 0.390625 23 0.390625
C 13.90625 0.390625 7 6.921875 7 14.859375
C 7 22.796875 13.09375 29.4375 20 32.546875
z
" id="CMR17-56"/>
      </defs>
      <g transform="translate(442.168979 409.655411)scale(0.14994 -0.14994)">
       <use transform="scale(0.996264)" xlink:href="#CMR17-56"/>
      </g>
     </g>
    </g>
   </g>
   <g id="matplotlib.axis_2">
    <g id="ytick_1">
     <g id="line2d_11">
      <defs>
       <path d="M 0 0
L -3.5 0
" id="m6c0e636525" style="stroke:#000000;stroke-width:0.8;"/>
      </defs>
      <g>
       <use style="stroke:#000000;stroke-width:0.8;" x="41.066608" xlink:href="#m6c0e636525" y="375.493556"/>
      </g>
     </g>
     <g id="line2d_12">
      <defs>
       <path d="M 0 0
L 3.5 0
" id="mfbae10d8e2" style="stroke:#000000;stroke-width:0.8;"/>
      </defs>
      <g>
       <use style="stroke:#000000;stroke-width:0.8;" x="515.281321" xlink:href="#mfbae10d8e2" y="375.493556"/>
      </g>
     </g>
     <g id="text_6">
      <!-- $0$ -->
      <g transform="translate(26.753304 380.680351)scale(0.14994 -0.14994)">
       <use transform="scale(0.996264)" xlink:href="#CMR17-48"/>
      </g>
     </g>
    </g>
    <g id="ytick_2">
     <g id="line2d_13">
      <g>
       <use style="stroke:#000000;stroke-width:0.8;" x="41.066608" xlink:href="#m6c0e636525" y="328.859488"/>
      </g>
     </g>
     <g id="line2d_14">
      <g>
       <use style="stroke:#000000;stroke-width:0.8;" x="515.281321" xlink:href="#mfbae10d8e2" y="328.859488"/>
      </g>
     </g>
     <g id="text_7">
      <!-- $5$ -->
      <defs>
       <path d="M 11.40625 58.59375
C 12.40625 58.1875 16.5 56.890625 20.703125 56.890625
C 30 56.890625 35.09375 61.890625 38 64.6875
C 38 65.484375 38 66 37.40625 66
C 37.296875 66 37.09375 66 36.296875 65.59375
C 32.796875 64.09375 28.703125 63 23.703125 63
C 20.703125 63 16.203125 63.359375 11.296875 65.484375
C 10.203125 66 10 66 9.90625 66
C 9.40625 66 9.296875 65.890625 9.296875 63.90625
L 9.296875 34.859375
C 9.296875 33.015625 9.296875 32.5 10.296875 32.5
C 10.796875 32.5 11 32.703125 11.5 33.421875
C 14.703125 38.046875 19.09375 40 24.09375 40
C 27.59375 40 35.09375 37.734375 35.09375 20.203125
C 35.09375 16.984375 35.09375 11.1875 32.09375 6.59375
C 29.59375 2.484375 25.703125 0.390625 21.40625 0.390625
C 14.796875 0.390625 8.09375 4.984375 6.296875 12.6875
C 6.703125 12.59375 7.5 12.390625 7.90625 12.390625
C 9.203125 12.390625 11.703125 13.09375 11.703125 16.1875
C 11.703125 18.890625 9.796875 20 7.90625 20
C 5.59375 20 4.09375 18.59375 4.09375 15.796875
C 4.09375 7.09375 11 -2 21.59375 -2
C 31.90625 -2 41.703125 6.890625 41.703125 19.796875
C 41.703125 32.09375 33.90625 41.59375 24.203125 41.59375
C 19.09375 41.59375 14.796875 39.6875 11.40625 36
z
" id="CMR17-53"/>
      </defs>
      <g transform="translate(26.753304 334.046283)scale(0.14994 -0.14994)">
       <use transform="scale(0.996264)" xlink:href="#CMR17-53"/>
      </g>
     </g>
    </g>
    <g id="ytick_3">
     <g id="line2d_15">
      <g>
       <use style="stroke:#000000;stroke-width:0.8;" x="41.066608" xlink:href="#m6c0e636525" y="282.22542"/>
      </g>
     </g>
     <g id="line2d_16">
      <g>
       <use style="stroke:#000000;stroke-width:0.8;" x="515.281321" xlink:href="#mfbae10d8e2" y="282.22542"/>
      </g>
     </g>
     <g id="text_8">
      <!-- $10$ -->
      <defs>
       <path d="M 26.59375 63.796875
C 26.59375 65.890625 26.5 66 25.09375 66
C 21.203125 61.359375 15.296875 59.890625 9.703125 59.6875
C 9.40625 59.6875 8.90625 59.6875 8.796875 59.5
C 8.703125 59.296875 8.703125 59.09375 8.703125 57
C 11.796875 57 17 57.59375 21 59.984375
L 21 7.296875
C 21 3.796875 20.796875 2.59375 12.203125 2.59375
L 9.203125 2.59375
L 9.203125 0
C 14 0.09375 19 0.1875 23.796875 0.1875
C 28.59375 0.1875 33.59375 0.09375 38.40625 0
L 38.40625 2.59375
L 35.40625 2.59375
C 26.796875 2.59375 26.59375 3.6875 26.59375 7.296875
z
" id="CMR17-49"/>
      </defs>
      <g transform="translate(19.44 287.412215)scale(0.14994 -0.14994)">
       <use transform="scale(0.996264)" xlink:href="#CMR17-49"/>
       <use transform="translate(45.690477 0)scale(0.996264)" xlink:href="#CMR17-48"/>
      </g>
     </g>
    </g>
    <g id="ytick_4">
     <g id="line2d_17">
      <g>
       <use style="stroke:#000000;stroke-width:0.8;" x="41.066608" xlink:href="#m6c0e636525" y="235.591351"/>
      </g>
     </g>
     <g id="line2d_18">
      <g>
       <use style="stroke:#000000;stroke-width:0.8;" x="515.281321" xlink:href="#mfbae10d8e2" y="235.591351"/>
      </g>
     </g>
     <g id="text_9">
      <!-- $15$ -->
      <g transform="translate(19.44 240.778146)scale(0.14994 -0.14994)">
       <use transform="scale(0.996264)" xlink:href="#CMR17-49"/>
       <use transform="translate(45.690477 0)scale(0.996264)" xlink:href="#CMR17-53"/>
      </g>
     </g>
    </g>
    <g id="ytick_5">
     <g id="line2d_19">
      <g>
       <use style="stroke:#000000;stroke-width:0.8;" x="41.066608" xlink:href="#m6c0e636525" y="188.957283"/>
      </g>
     </g>
     <g id="line2d_20">
      <g>
       <use style="stroke:#000000;stroke-width:0.8;" x="515.281321" xlink:href="#mfbae10d8e2" y="188.957283"/>
      </g>
     </g>
     <g id="text_10">
      <!-- $20$ -->
      <g transform="translate(19.44 194.144078)scale(0.14994 -0.14994)">
       <use transform="scale(0.996264)" xlink:href="#CMR17-50"/>
       <use transform="translate(45.690477 0)scale(0.996264)" xlink:href="#CMR17-48"/>
      </g>
     </g>
    </g>
    <g id="ytick_6">
     <g id="line2d_21">
      <g>
       <use style="stroke:#000000;stroke-width:0.8;" x="41.066608" xlink:href="#m6c0e636525" y="142.323215"/>
      </g>
     </g>
     <g id="line2d_22">
      <g>
       <use style="stroke:#000000;stroke-width:0.8;" x="515.281321" xlink:href="#mfbae10d8e2" y="142.323215"/>
      </g>
     </g>
     <g id="text_11">
      <!-- $25$ -->
      <g transform="translate(19.44 147.51001)scale(0.14994 -0.14994)">
       <use transform="scale(0.996264)" xlink:href="#CMR17-50"/>
       <use transform="translate(45.690477 0)scale(0.996264)" xlink:href="#CMR17-53"/>
      </g>
     </g>
    </g>
    <g id="ytick_7">
     <g id="line2d_23">
      <g>
       <use style="stroke:#000000;stroke-width:0.8;" x="41.066608" xlink:href="#m6c0e636525" y="95.689147"/>
      </g>
     </g>
     <g id="line2d_24">
      <g>
       <use style="stroke:#000000;stroke-width:0.8;" x="515.281321" xlink:href="#mfbae10d8e2" y="95.689147"/>
      </g>
     </g>
     <g id="text_12">
      <!-- $30$ -->
      <defs>
       <path d="M 22.09375 34
C 31 34 34.90625 26.140625 34.90625 17.09375
C 34.90625 5.03125 28.5 0.390625 22.703125 0.390625
C 17.40625 0.390625 8.796875 3.015625 6.09375 10.796875
C 6.59375 10.59375 7.09375 10.59375 7.59375 10.59375
C 10 10.59375 11.796875 12.1875 11.796875 14.796875
C 11.796875 17.6875 9.59375 19 7.59375 19
C 5.90625 19 3.296875 18.1875 3.296875 14.484375
C 3.296875 5.234375 12.296875 -2 22.90625 -2
C 34 -2 42.5 6.75 42.5 16.984375
C 42.5 26.84375 34.5 34 25 35.09375
C 32.59375 36.671875 39.90625 43.375 39.90625 52.390625
C 39.90625 60.25 32 66 23 66
C 13.90625 66 5.90625 60.34375 5.90625 52.296875
C 5.90625 48.796875 8.5 48.1875 9.796875 48.1875
C 11.90625 48.1875 13.703125 49.484375 13.703125 52.09375
C 13.703125 54.6875 11.90625 56 9.796875 56
C 9.40625 56 8.90625 56 8.5 55.796875
C 11.40625 62.484375 19.296875 63.6875 22.796875 63.6875
C 26.296875 63.6875 32.90625 61.96875 32.90625 52.296875
C 32.90625 49.484375 32.5 44.546875 29.09375 40.21875
C 26.09375 36.390625 22.703125 36.1875 19.40625 35.890625
C 18.90625 35.890625 16.59375 35.6875 16.203125 35.6875
C 15.5 35.59375 15.09375 35.5 15.09375 34.796875
C 15.09375 34.09375 15.203125 34 17.203125 34
z
" id="CMR17-51"/>
      </defs>
      <g transform="translate(19.44 100.875941)scale(0.14994 -0.14994)">
       <use transform="scale(0.996264)" xlink:href="#CMR17-51"/>
       <use transform="translate(45.690477 0)scale(0.996264)" xlink:href="#CMR17-48"/>
      </g>
     </g>
    </g>
    <g id="ytick_8">
     <g id="line2d_25">
      <g>
       <use style="stroke:#000000;stroke-width:0.8;" x="41.066608" xlink:href="#m6c0e636525" y="49.055078"/>
      </g>
     </g>
     <g id="line2d_26">
      <g>
       <use style="stroke:#000000;stroke-width:0.8;" x="515.281321" xlink:href="#mfbae10d8e2" y="49.055078"/>
      </g>
     </g>
     <g id="text_13">
      <!-- $35$ -->
      <g transform="translate(19.44 54.241873)scale(0.14994 -0.14994)">
       <use transform="scale(0.996264)" xlink:href="#CMR17-51"/>
       <use transform="translate(45.690477 0)scale(0.996264)" xlink:href="#CMR17-53"/>
      </g>
     </g>
    </g>
   </g>
   <g id="line2d_27">
    <path clip-path="url(#pf4fbe1cca7)" d="M 62.621822 375.493556
L 110.522298 375.493556
L 158.422774 375.493556
L 206.32325 375.493556
L 254.223726 375.493556
L 302.124202 375.493556
L 350.024678 375.493556
L 397.925155 375.493556
L 445.825631 375.493556
L 493.726107 375.493556
" style="fill:none;stroke:#000000;stroke-linecap:square;stroke-width:2;"/>
   </g>
   <g id="line2d_28">
    <path clip-path="url(#pf4fbe1cca7)" d="M 62.621822 375.493556
L 110.522298 366.166743
L 158.422774 356.839929
L 206.32325 347.513115
L 254.223726 338.186302
L 302.124202 328.859488
L 350.024678 319.532674
L 397.925155 310.205861
L 445.825631 300.879047
L 493.726107 291.552233
" style="fill:none;stroke:#ff0000;stroke-linecap:square;stroke-width:2;"/>
   </g>
   <g id="line2d_29">
    <path clip-path="url(#pf4fbe1cca7)" d="M 62.621822 375.493556
L 110.522298 356.839929
L 158.422774 338.186302
L 206.32325 319.532674
L 254.223726 300.879047
L 302.124202 282.22542
L 350.024678 263.571792
L 397.925155 244.918165
L 445.825631 226.264538
L 493.726107 207.61091
" style="fill:none;stroke:#008000;stroke-linecap:square;stroke-width:2;"/>
   </g>
   <g id="line2d_30">
    <path clip-path="url(#pf4fbe1cca7)" d="M 62.621822 375.493556
L 110.522298 347.513115
L 158.422774 319.532674
L 206.32325 291.552233
L 254.223726 263.571792
L 302.124202 235.591351
L 350.024678 207.61091
L 397.925155 179.630469
L 445.825631 151.650028
L 493.726107 123.669587
" style="fill:none;stroke:#0000ff;stroke-linecap:square;stroke-width:2;"/>
   </g>
   <g id="line2d_31">
    <path clip-path="url(#pf4fbe1cca7)" d="M 62.621822 375.493556
L 110.522298 338.186302
L 158.422774 300.879047
L 206.32325 263.571792
L 254.223726 226.264538
L 302.124202 188.957283
L 350.024678 151.650028
L 397.925155 114.342774
L 445.825631 77.035519
L 493.726107 39.728265
" style="fill:none;stroke:#bfbf00;stroke-linecap:square;stroke-width:2;"/>
   </g>
   <g id="patch_3">
    <path d="M 41.066608 392.281821
L 41.066608 22.94
" style="fill:none;stroke:#000000;stroke-linecap:square;stroke-linejoin:miter;stroke-width:0.8;"/>
   </g>
   <g id="patch_4">
    <path d="M 515.281321 392.281821
L 515.281321 22.94
" style="fill:none;stroke:#000000;stroke-linecap:square;stroke-linejoin:miter;stroke-width:0.8;"/>
   </g>
   <g id="patch_5">
    <path d="M 41.066608 392.281821
L 515.281321 392.281821
" style="fill:none;stroke:#000000;stroke-linecap:square;stroke-linejoin:miter;stroke-width:0.8;"/>
   </g>
   <g id="patch_6">
    <path d="M 41.066608 22.94
L 515.281321 22.94
" style="fill:none;stroke:#000000;stroke-linecap:square;stroke-linejoin:miter;stroke-width:0.8;"/>
   </g>
   <g id="legend_1">
    <g id="patch_7">
     <path d="M 529.881321 275.031071
L 626.96 275.031071
Q 630.56 275.031071 630.56 271.431071
L 630.56 147.79075
Q 630.56 144.19075 626.96 144.19075
L 529.881321 144.19075
Q 526.281321 144.19075 526.281321 147.79075
L 526.281321 271.431071
Q 526.281321 275.031071 529.881321 275.031071
z
" style="fill:#4c4c4c;opacity:0.5;stroke:#4c4c4c;stroke-linejoin:miter;"/>
    </g>
    <g id="patch_8">
     <path d="M 527.881321 273.031071
L 624.96 273.031071
Q 628.56 273.031071 628.56 269.431071
L 628.56 145.79075
Q 628.56 142.19075 624.96 142.19075
L 527.881321 142.19075
Q 524.281321 142.19075 524.281321 145.79075
L 524.281321 269.431071
Q 524.281321 273.031071 527.881321 273.031071
z
" style="fill:#ffffff;stroke:#000000;stroke-linejoin:miter;"/>
    </g>
    <g id="line2d_32">
     <path d="M 531.481321 155.69075
L 567.481321 155.69075
" style="fill:none;stroke:#000000;stroke-linecap:square;stroke-width:2;"/>
    </g>
    <g id="line2d_33"/>
    <g id="text_14">
     <!-- $y = 0x$ -->
     <defs>
      <path d="M 26.296875 -10.515625
C 23.59375 -14.390625 19.703125 -18 14.796875 -18
C 13.59375 -18 8.796875 -17.796875 7.296875 -12.90625
C 7.59375 -13.015625 8.09375 -13.015625 8.296875 -13.015625
C 11.296875 -13.015625 13.296875 -10.40625 13.296875 -8.109375
C 13.296875 -5.8125 11.40625 -5 9.90625 -5
C 8.296875 -5 4.796875 -6.203125 4.796875 -11.109375
C 4.796875 -16.40625 9.09375 -20 14.796875 -20
C 24.796875 -20 34.90625 -10.515625 37.703125 -0.109375
L 47.5 38.796875
C 47.59375 39.296875 47.796875 39.890625 47.796875 40.484375
C 47.796875 41.984375 46.59375 43 45.09375 43
C 44.203125 43 42.09375 42.59375 41.296875 39.59375
L 33.90625 10.265625
C 33.40625 8.46875 33.40625 8.28125 32.59375 7.171875
C 30.59375 4.390625 27.296875 1 22.5 1
C 16.90625 1 16.40625 6.484375 16.40625 9.171875
C 16.40625 14.859375 19.09375 22.546875 21.796875 29.71875
C 22.90625 32.609375 23.5 34.015625 23.5 36.015625
C 23.5 40.203125 20.5 44 15.59375 44
C 6.40625 44 2.703125 29.53125 2.703125 28.71875
C 2.703125 28.328125 3.09375 27.828125 3.796875 27.828125
C 4.703125 27.828125 4.796875 28.234375 5.203125 29.625
C 7.59375 38 11.40625 41.984375 15.296875 41.984375
C 16.203125 41.984375 17.90625 41.984375 17.90625 38.703125
C 17.90625 36.109375 16.796875 33.21875 15.296875 29.421875
C 10.40625 16.359375 10.40625 13.0625 10.40625 10.671875
C 10.40625 1.1875 17.203125 -1 22.203125 -1
C 25.09375 -1 28.703125 -0.109375 32.203125 3.59375
L 32.296875 3.484375
C 30.796875 -2.203125 29.796875 -5.609375 26.296875 -10.515625
z
" id="CMMI12-121"/>
      <path d="M 64.296875 32
C 65.796875 32 67.296875 32 67.296875 33.6875
C 67.296875 35.5 65.59375 35.5 63.90625 35.5
L 8 35.5
C 6.296875 35.5 4.59375 35.5 4.59375 33.6875
C 4.59375 32 6.09375 32 7.59375 32
z
M 63.90625 14.484375
C 65.59375 14.484375 67.296875 14.484375 67.296875 16.296875
C 67.296875 18 65.796875 18 64.296875 18
L 7.59375 18
C 6.09375 18 4.59375 18 4.59375 16.296875
C 4.59375 14.484375 6.296875 14.484375 8 14.484375
z
" id="CMR17-61"/>
      <path d="M 47.40625 41
C 44.203125 40.390625 43 37.984375 43 36.09375
C 43 33.6875 44.90625 32.890625 46.296875 32.890625
C 49.296875 32.890625 51.40625 35.484375 51.40625 38.1875
C 51.40625 42.09375 46.59375 44 42.40625 44
C 36.296875 44 32.90625 38.296875 32 36.390625
C 29.703125 43.59375 23.5 44 21.703125 44
C 11.5 44 6.09375 31.140625 6.09375 28.890625
C 6.09375 28.484375 6.5 27.96875 7.203125 27.96875
C 8 27.96875 8.203125 28.578125 8.40625 28.984375
C 11.796875 40.1875 18.5 41.984375 21.40625 41.984375
C 25.90625 41.984375 26.796875 38.09375 26.796875 35.6875
C 26.796875 33.484375 26.203125 31.140625 25 26.21875
L 21.59375 12.15625
C 20.09375 6.09375 17.203125 1 11.90625 1
C 11.40625 1 8.90625 1 6.796875 1.96875
C 10.40625 2.59375 11.203125 5.59375 11.203125 6.796875
C 11.203125 8.796875 9.703125 10 7.796875 10
C 5.40625 10 2.796875 7.890625 2.796875 4.6875
C 2.796875 0.890625 7.5 -1 11.796875 -1
C 16.59375 -1 20 2.390625 22.09375 6.484375
C 23.703125 1 28.703125 -1 32.40625 -1
C 42.59375 -1 48 11.734375 48 14
C 48 14.515625 47.59375 14.921875 47 14.921875
C 46.09375 14.921875 46 14.40625 45.703125 13.59375
C 43 4.6875 37.203125 1 32.703125 1
C 29.203125 1 27.296875 3.1875 27.296875 7.296875
C 27.296875 9.484375 27.703125 11.125 29.296875 17.90625
L 32.796875 31.859375
C 34.296875 37.890625 37.703125 41.984375 42.296875 41.984375
C 42.5 41.984375 45.296875 41.984375 47.40625 41
z
" id="CMMI12-120"/>
     </defs>
     <g transform="translate(571.081321 161.99075)scale(0.18 -0.18)">
      <use transform="scale(0.996264)" xlink:href="#CMMI12-121"/>
      <use transform="translate(78.812789 0)scale(0.996264)" xlink:href="#CMR17-61"/>
      <use transform="translate(178.201587 0)scale(0.996264)" xlink:href="#CMR17-48"/>
      <use transform="translate(223.892064 0)scale(0.996264)" xlink:href="#CMMI12-120"/>
     </g>
    </g>
    <g id="line2d_34">
     <path d="M 531.481321 180.778814
L 567.481321 180.778814
" style="fill:none;stroke:#ff0000;stroke-linecap:square;stroke-width:2;"/>
    </g>
    <g id="line2d_35"/>
    <g id="text_15">
     <!-- $y = 1x$ -->
     <g transform="translate(571.081321 187.078814)scale(0.18 -0.18)">
      <use transform="scale(0.996264)" xlink:href="#CMMI12-121"/>
      <use transform="translate(78.812789 0)scale(0.996264)" xlink:href="#CMR17-61"/>
      <use transform="translate(178.201587 0)scale(0.996264)" xlink:href="#CMR17-49"/>
      <use transform="translate(223.892064 0)scale(0.996264)" xlink:href="#CMMI12-120"/>
     </g>
    </g>
    <g id="line2d_36">
     <path d="M 531.481321 205.866878
L 567.481321 205.866878
" style="fill:none;stroke:#008000;stroke-linecap:square;stroke-width:2;"/>
    </g>
    <g id="line2d_37"/>
    <g id="text_16">
     <!-- $y = 2x$ -->
     <g transform="translate(571.081321 212.166878)scale(0.18 -0.18)">
      <use transform="scale(0.996264)" xlink:href="#CMMI12-121"/>
      <use transform="translate(78.812789 0)scale(0.996264)" xlink:href="#CMR17-61"/>
      <use transform="translate(178.201587 0)scale(0.996264)" xlink:href="#CMR17-50"/>
      <use transform="translate(223.892064 0)scale(0.996264)" xlink:href="#CMMI12-120"/>
     </g>
    </g>
    <g id="line2d_38">
     <path d="M 531.481321 230.954942
L 567.481321 230.954942
" style="fill:none;stroke:#0000ff;stroke-linecap:square;stroke-width:2;"/>
    </g>
    <g id="line2d_39"/>
    <g id="text_17">
     <!-- $y = 3x$ -->
     <g transform="translate(571.081321 237.254942)scale(0.18 -0.18)">
      <use transform="scale(0.996264)" xlink:href="#CMMI12-121"/>
      <use transform="translate(78.812789 0)scale(0.996264)" xlink:href="#CMR17-61"/>
      <use transform="translate(178.201587 0)scale(0.996264)" xlink:href="#CMR17-51"/>
      <use transform="translate(223.892064 0)scale(0.996264)" xlink:href="#CMMI12-120"/>
     </g>
    </g>
    <g id="line2d_40">
     <path d="M 531.481321 256.043007
L 567.481321 256.043007
" style="fill:none;stroke:#bfbf00;stroke-linecap:square;stroke-width:2;"/>
    </g>
    <g id="line2d_41"/>
    <g id="text_18">
     <!-- $y = 4x$ -->
     <g transform="translate(571.081321 262.343007)scale(0.18 -0.18)">
      <use transform="scale(0.996264)" xlink:href="#CMMI12-121"/>
      <use transform="translate(78.812789 0)scale(0.996264)" xlink:href="#CMR17-61"/>
      <use transform="translate(178.201587 0)scale(0.996264)" xlink:href="#CMR17-52"/>
      <use transform="translate(223.892064 0)scale(0.996264)" xlink:href="#CMMI12-120"/>
     </g>
    </g>
   </g>
  </g>
 </g>
 <defs>
  <clipPath id="pf4fbe1cca7">
   <rect height="369.341821" width="474.214713" x="41.066608" y="22.94"/>
  </clipPath>
 </defs>
</svg>
