<?xml version="1.0" encoding="utf-8" standalone="no"?>
<!DOCTYPE svg PUBLIC "-//W3C//DTD SVG 1.1//EN"
  "http://www.w3.org/Graphics/SVG/1.1/DTD/svg11.dtd">
<svg height="432pt" version="1.1" viewBox="0 0 576 432" width="576pt" xmlns="http://www.w3.org/2000/svg" xmlns:xlink="http://www.w3.org/1999/xlink">
 <metadata>
  <rdf:RDF xmlns:cc="http://creativecommons.org/ns#" xmlns:dc="http://purl.org/dc/elements/1.1/" xmlns:rdf="http://www.w3.org/1999/02/22-rdf-syntax-ns#">
   <cc:Work>
    <dc:type rdf:resource="http://purl.org/dc/dcmitype/StillImage"/>
    <dc:date>2021-11-26T17:35:56.407980</dc:date>
    <dc:format>image/svg+xml</dc:format>
    <dc:creator>
     <cc:Agent>
      <dc:title>Matplotlib v3.4.3, https://matplotlib.org/</dc:title>
     </cc:Agent>
    </dc:creator>
   </cc:Work>
  </rdf:RDF>
 </metadata>
 <defs>
  <style type="text/css">*{stroke-linecap:butt;stroke-linejoin:round;}</style>
 </defs>
 <g id="figure_1">
  <g id="patch_1">
   <path d="M 0 432
L 576 432
L 576 0
L 0 0
z
" style="fill:none;"/>
  </g>
  <g id="axes_1">
   <g id="patch_2">
    <path d="M 72 384.48
L 518.4 384.48
L 518.4 51.84
L 72 51.84
z
" style="fill:none;"/>
   </g>
   <g id="matplotlib.axis_1">
    <g id="xtick_1">
     <g id="line2d_1">
      <defs>
       <path d="M 0 0
L 0 3.5
" id="m6bf843717e" style="stroke:#000000;stroke-width:0.8;"/>
      </defs>
      <g>
       <use style="stroke:#000000;stroke-width:0.8;" x="92.290909" xlink:href="#m6bf843717e" y="384.48"/>
      </g>
     </g>
     <g id="line2d_2">
      <defs>
       <path d="M 0 0
L 0 -3.5
" id="m956670f4c8" style="stroke:#000000;stroke-width:0.8;"/>
      </defs>
      <g>
       <use style="stroke:#000000;stroke-width:0.8;" x="92.290909" xlink:href="#m956670f4c8" y="51.84"/>
      </g>
     </g>
     <g id="text_1">
      <!-- $\mathdefault{0}$ -->
      <g transform="translate(88.634257 401.85359)scale(0.14994 -0.14994)">
       <defs>
        <path d="M 2688 2038
C 2688 2430 2682 3099 2413 3613
C 2176 4063 1798 4224 1466 4224
C 1158 4224 768 4082 525 3620
C 269 3137 243 2539 243 2038
C 243 1671 250 1112 448 623
C 723 -39 1216 -128 1466 -128
C 1760 -128 2208 -7 2470 604
C 2662 1048 2688 1568 2688 2038
z
M 1466 -26
C 1056 -26 813 328 723 816
C 653 1196 653 1749 653 2109
C 653 2604 653 3015 736 3407
C 858 3954 1216 4121 1466 4121
C 1728 4121 2067 3947 2189 3420
C 2272 3054 2278 2623 2278 2109
C 2278 1691 2278 1176 2202 797
C 2067 96 1690 -26 1466 -26
z
" id="CMR17-30" transform="scale(0.015625)"/>
       </defs>
       <use transform="scale(0.996264)" xlink:href="#CMR17-30"/>
      </g>
     </g>
    </g>
    <g id="xtick_2">
     <g id="line2d_3">
      <g>
       <use style="stroke:#000000;stroke-width:0.8;" x="156.878879" xlink:href="#m6bf843717e" y="384.48"/>
      </g>
     </g>
     <g id="line2d_4">
      <g>
       <use style="stroke:#000000;stroke-width:0.8;" x="156.878879" xlink:href="#m956670f4c8" y="51.84"/>
      </g>
     </g>
     <g id="text_2">
      <!-- $\mathdefault{1}$ -->
      <g transform="translate(153.222227 401.85359)scale(0.14994 -0.14994)">
       <defs>
        <path d="M 1702 4083
C 1702 4217 1696 4224 1606 4224
C 1357 3927 979 3833 621 3820
C 602 3820 570 3820 563 3808
C 557 3795 557 3782 557 3648
C 755 3648 1088 3686 1344 3839
L 1344 467
C 1344 243 1331 166 781 166
L 589 166
L 589 0
C 896 6 1216 12 1523 12
C 1830 12 2150 6 2458 0
L 2458 166
L 2266 166
C 1715 166 1702 236 1702 467
L 1702 4083
z
" id="CMR17-31" transform="scale(0.015625)"/>
       </defs>
       <use transform="scale(0.996264)" xlink:href="#CMR17-31"/>
      </g>
     </g>
    </g>
    <g id="xtick_3">
     <g id="line2d_5">
      <g>
       <use style="stroke:#000000;stroke-width:0.8;" x="221.466848" xlink:href="#m6bf843717e" y="384.48"/>
      </g>
     </g>
     <g id="line2d_6">
      <g>
       <use style="stroke:#000000;stroke-width:0.8;" x="221.466848" xlink:href="#m956670f4c8" y="51.84"/>
      </g>
     </g>
     <g id="text_3">
      <!-- $\mathdefault{2}$ -->
      <g transform="translate(217.810196 401.85359)scale(0.14994 -0.14994)">
       <defs>
        <path d="M 2669 990
L 2554 990
C 2490 537 2438 460 2413 422
C 2381 371 1920 371 1830 371
L 602 371
C 832 620 1280 1073 1824 1596
C 2214 1966 2669 2400 2669 3033
C 2669 3788 2067 4224 1395 4224
C 691 4224 262 3603 262 3027
C 262 2777 448 2745 525 2745
C 589 2745 781 2783 781 3007
C 781 3206 614 3264 525 3264
C 486 3264 448 3257 422 3244
C 544 3788 915 4057 1306 4057
C 1862 4057 2227 3616 2227 3033
C 2227 2477 1901 1998 1536 1583
L 262 147
L 262 0
L 2515 0
L 2669 990
z
" id="CMR17-32" transform="scale(0.015625)"/>
       </defs>
       <use transform="scale(0.996264)" xlink:href="#CMR17-32"/>
      </g>
     </g>
    </g>
    <g id="xtick_4">
     <g id="line2d_7">
      <g>
       <use style="stroke:#000000;stroke-width:0.8;" x="286.054818" xlink:href="#m6bf843717e" y="384.48"/>
      </g>
     </g>
     <g id="line2d_8">
      <g>
       <use style="stroke:#000000;stroke-width:0.8;" x="286.054818" xlink:href="#m956670f4c8" y="51.84"/>
      </g>
     </g>
     <g id="text_4">
      <!-- $\mathdefault{3}$ -->
      <g transform="translate(282.398166 401.85359)scale(0.14994 -0.14994)">
       <defs>
        <path d="M 1414 2176
C 1984 2176 2234 1673 2234 1094
C 2234 322 1824 25 1453 25
C 1114 25 563 193 390 691
C 422 678 454 678 486 678
C 640 678 755 780 755 947
C 755 1132 614 1216 486 1216
C 378 1216 211 1164 211 927
C 211 335 787 -128 1466 -128
C 2176 -128 2720 432 2720 1087
C 2720 1718 2208 2176 1600 2246
C 2086 2347 2554 2776 2554 3353
C 2554 3856 2048 4224 1472 4224
C 890 4224 378 3862 378 3347
C 378 3123 544 3084 627 3084
C 762 3084 877 3167 877 3334
C 877 3500 762 3584 627 3584
C 602 3584 570 3584 544 3571
C 730 3999 1235 4076 1459 4076
C 1683 4076 2106 3966 2106 3347
C 2106 3167 2080 2851 1862 2574
C 1670 2329 1453 2316 1242 2297
C 1210 2297 1062 2284 1037 2284
C 992 2278 966 2272 966 2227
C 966 2182 973 2176 1101 2176
L 1414 2176
z
" id="CMR17-33" transform="scale(0.015625)"/>
       </defs>
       <use transform="scale(0.996264)" xlink:href="#CMR17-33"/>
      </g>
     </g>
    </g>
    <g id="xtick_5">
     <g id="line2d_9">
      <g>
       <use style="stroke:#000000;stroke-width:0.8;" x="350.642788" xlink:href="#m6bf843717e" y="384.48"/>
      </g>
     </g>
     <g id="line2d_10">
      <g>
       <use style="stroke:#000000;stroke-width:0.8;" x="350.642788" xlink:href="#m956670f4c8" y="51.84"/>
      </g>
     </g>
     <g id="text_5">
      <!-- $\mathdefault{4}$ -->
      <g transform="translate(346.986136 401.85359)scale(0.14994 -0.14994)">
       <defs>
        <path d="M 2150 4147
C 2150 4281 2144 4288 2029 4288
L 128 1254
L 128 1088
L 1779 1088
L 1779 460
C 1779 230 1766 166 1318 166
L 1197 166
L 1197 0
C 1402 12 1747 12 1965 12
C 2182 12 2528 12 2733 0
L 2733 166
L 2611 166
C 2163 166 2150 230 2150 460
L 2150 1088
L 2803 1088
L 2803 1254
L 2150 1254
L 2150 4147
z
M 1798 3723
L 1798 1254
L 256 1254
L 1798 3723
z
" id="CMR17-34" transform="scale(0.015625)"/>
       </defs>
       <use transform="scale(0.996264)" xlink:href="#CMR17-34"/>
      </g>
     </g>
    </g>
    <g id="xtick_6">
     <g id="line2d_11">
      <g>
       <use style="stroke:#000000;stroke-width:0.8;" x="415.230757" xlink:href="#m6bf843717e" y="384.48"/>
      </g>
     </g>
     <g id="line2d_12">
      <g>
       <use style="stroke:#000000;stroke-width:0.8;" x="415.230757" xlink:href="#m956670f4c8" y="51.84"/>
      </g>
     </g>
     <g id="text_6">
      <!-- $\mathdefault{5}$ -->
      <g transform="translate(411.574105 401.85359)scale(0.14994 -0.14994)">
       <defs>
        <path d="M 730 3750
C 794 3724 1056 3641 1325 3641
C 1920 3641 2246 3961 2432 4140
C 2432 4191 2432 4224 2394 4224
C 2387 4224 2374 4224 2323 4198
C 2099 4102 1837 4032 1517 4032
C 1325 4032 1037 4055 723 4191
C 653 4224 640 4224 634 4224
C 602 4224 595 4217 595 4090
L 595 2231
C 595 2113 595 2080 659 2080
C 691 2080 704 2093 736 2139
C 941 2435 1222 2560 1542 2560
C 1766 2560 2246 2415 2246 1293
C 2246 1087 2246 716 2054 422
C 1894 159 1645 25 1370 25
C 947 25 518 319 403 812
C 429 806 480 793 506 793
C 589 793 749 838 749 1036
C 749 1209 627 1280 506 1280
C 358 1280 262 1190 262 1011
C 262 454 704 -128 1382 -128
C 2042 -128 2669 441 2669 1267
C 2669 2054 2170 2662 1549 2662
C 1222 2662 947 2540 730 2304
L 730 3750
z
" id="CMR17-35" transform="scale(0.015625)"/>
       </defs>
       <use transform="scale(0.996264)" xlink:href="#CMR17-35"/>
      </g>
     </g>
    </g>
    <g id="xtick_7">
     <g id="line2d_13">
      <g>
       <use style="stroke:#000000;stroke-width:0.8;" x="479.818727" xlink:href="#m6bf843717e" y="384.48"/>
      </g>
     </g>
     <g id="line2d_14">
      <g>
       <use style="stroke:#000000;stroke-width:0.8;" x="479.818727" xlink:href="#m956670f4c8" y="51.84"/>
      </g>
     </g>
     <g id="text_7">
      <!-- $\mathdefault{6}$ -->
      <g transform="translate(476.162075 401.85359)scale(0.14994 -0.14994)">
       <defs>
        <path d="M 678 2198
C 678 3712 1395 4076 1811 4076
C 1946 4076 2272 4049 2400 3782
C 2298 3782 2106 3782 2106 3558
C 2106 3385 2246 3328 2336 3328
C 2394 3328 2566 3353 2566 3571
C 2566 3987 2246 4224 1805 4224
C 1043 4224 243 3411 243 2011
C 243 257 966 -128 1478 -128
C 2099 -128 2688 431 2688 1295
C 2688 2101 2170 2688 1517 2688
C 1126 2688 838 2430 678 1979
L 678 2198
z
M 1478 25
C 691 25 691 1212 691 1450
C 691 1914 909 2585 1504 2585
C 1613 2585 1926 2585 2138 2140
C 2253 1889 2253 1624 2253 1302
C 2253 954 2253 696 2118 438
C 1978 173 1773 25 1478 25
z
" id="CMR17-36" transform="scale(0.015625)"/>
       </defs>
       <use transform="scale(0.996264)" xlink:href="#CMR17-36"/>
      </g>
     </g>
    </g>
   </g>
   <g id="matplotlib.axis_2">
    <g id="ytick_1">
     <g id="line2d_15">
      <defs>
       <path d="M 0 0
L -3.5 0
" id="me70b786894" style="stroke:#000000;stroke-width:0.8;"/>
      </defs>
      <g>
       <use style="stroke:#000000;stroke-width:0.8;" x="72" xlink:href="#me70b786894" y="369.360187"/>
      </g>
     </g>
     <g id="line2d_16">
      <defs>
       <path d="M 0 0
L 3.5 0
" id="m5357905709" style="stroke:#000000;stroke-width:0.8;"/>
      </defs>
      <g>
       <use style="stroke:#000000;stroke-width:0.8;" x="518.4" xlink:href="#m5357905709" y="369.360187"/>
      </g>
     </g>
     <g id="text_8">
      <!-- $\mathdefault{−1.00}$ -->
      <g transform="translate(27.378675 374.546982)scale(0.14994 -0.14994)">
       <defs>
        <path d="M 4218 1472
C 4326 1472 4442 1472 4442 1600
C 4442 1728 4326 1728 4218 1728
L 755 1728
C 646 1728 531 1728 531 1600
C 531 1472 646 1472 755 1472
L 4218 1472
z
" id="CMSY10-0" transform="scale(0.015625)"/>
        <path d="M 1178 307
C 1178 492 1024 620 870 620
C 685 620 557 467 557 313
C 557 128 710 0 864 0
C 1050 0 1178 153 1178 307
z
" id="CMMI12-3a" transform="scale(0.015625)"/>
       </defs>
       <use transform="scale(0.996264)" xlink:href="#CMSY10-0"/>
       <use transform="translate(77.487468 0)scale(0.996264)" xlink:href="#CMR17-31"/>
       <use transform="translate(123.177945 0)scale(0.996264)" xlink:href="#CMMI12-3a"/>
       <use transform="translate(150.275122 0)scale(0.996264)" xlink:href="#CMR17-30"/>
       <use transform="translate(195.965599 0)scale(0.996264)" xlink:href="#CMR17-30"/>
      </g>
     </g>
    </g>
    <g id="ytick_2">
     <g id="line2d_17">
      <g>
       <use style="stroke:#000000;stroke-width:0.8;" x="72" xlink:href="#me70b786894" y="331.56014"/>
      </g>
     </g>
     <g id="line2d_18">
      <g>
       <use style="stroke:#000000;stroke-width:0.8;" x="518.4" xlink:href="#m5357905709" y="331.56014"/>
      </g>
     </g>
     <g id="text_9">
      <!-- $\mathdefault{−0.75}$ -->
      <g transform="translate(27.378675 336.746935)scale(0.14994 -0.14994)">
       <defs>
        <path d="M 2886 3955
L 2886 4096
L 1382 4096
C 634 4096 621 4166 595 4288
L 480 4288
L 294 3104
L 410 3104
C 429 3226 474 3552 550 3673
C 589 3724 1062 3724 1171 3724
L 2579 3724
L 1869 2670
C 1395 1961 1069 1003 1069 166
C 1069 89 1069 -128 1299 -128
C 1530 -128 1530 89 1530 172
L 1530 466
C 1530 1514 1709 2204 2003 2644
L 2886 3955
z
" id="CMR17-37" transform="scale(0.015625)"/>
       </defs>
       <use transform="scale(0.996264)" xlink:href="#CMSY10-0"/>
       <use transform="translate(77.487468 0)scale(0.996264)" xlink:href="#CMR17-30"/>
       <use transform="translate(123.177945 0)scale(0.996264)" xlink:href="#CMMI12-3a"/>
       <use transform="translate(150.275122 0)scale(0.996264)" xlink:href="#CMR17-37"/>
       <use transform="translate(195.965599 0)scale(0.996264)" xlink:href="#CMR17-35"/>
      </g>
     </g>
    </g>
    <g id="ytick_3">
     <g id="line2d_19">
      <g>
       <use style="stroke:#000000;stroke-width:0.8;" x="72" xlink:href="#me70b786894" y="293.760093"/>
      </g>
     </g>
     <g id="line2d_20">
      <g>
       <use style="stroke:#000000;stroke-width:0.8;" x="518.4" xlink:href="#m5357905709" y="293.760093"/>
      </g>
     </g>
     <g id="text_10">
      <!-- $\mathdefault{−0.50}$ -->
      <g transform="translate(27.378675 298.946888)scale(0.14994 -0.14994)">
       <use transform="scale(0.996264)" xlink:href="#CMSY10-0"/>
       <use transform="translate(77.487468 0)scale(0.996264)" xlink:href="#CMR17-30"/>
       <use transform="translate(123.177945 0)scale(0.996264)" xlink:href="#CMMI12-3a"/>
       <use transform="translate(150.275122 0)scale(0.996264)" xlink:href="#CMR17-35"/>
       <use transform="translate(195.965599 0)scale(0.996264)" xlink:href="#CMR17-30"/>
      </g>
     </g>
    </g>
    <g id="ytick_4">
     <g id="line2d_21">
      <g>
       <use style="stroke:#000000;stroke-width:0.8;" x="72" xlink:href="#me70b786894" y="255.960047"/>
      </g>
     </g>
     <g id="line2d_22">
      <g>
       <use style="stroke:#000000;stroke-width:0.8;" x="518.4" xlink:href="#m5357905709" y="255.960047"/>
      </g>
     </g>
     <g id="text_11">
      <!-- $\mathdefault{−0.25}$ -->
      <g transform="translate(27.378675 261.146842)scale(0.14994 -0.14994)">
       <use transform="scale(0.996264)" xlink:href="#CMSY10-0"/>
       <use transform="translate(77.487468 0)scale(0.996264)" xlink:href="#CMR17-30"/>
       <use transform="translate(123.177945 0)scale(0.996264)" xlink:href="#CMMI12-3a"/>
       <use transform="translate(150.275122 0)scale(0.996264)" xlink:href="#CMR17-32"/>
       <use transform="translate(195.965599 0)scale(0.996264)" xlink:href="#CMR17-35"/>
      </g>
     </g>
    </g>
    <g id="ytick_5">
     <g id="line2d_23">
      <g>
       <use style="stroke:#000000;stroke-width:0.8;" x="72" xlink:href="#me70b786894" y="218.16"/>
      </g>
     </g>
     <g id="line2d_24">
      <g>
       <use style="stroke:#000000;stroke-width:0.8;" x="518.4" xlink:href="#m5357905709" y="218.16"/>
      </g>
     </g>
     <g id="text_12">
      <!-- $\mathdefault{0.00}$ -->
      <g transform="translate(38.997138 223.346795)scale(0.14994 -0.14994)">
       <use transform="scale(0.996264)" xlink:href="#CMR17-30"/>
       <use transform="translate(45.690477 0)scale(0.996264)" xlink:href="#CMMI12-3a"/>
       <use transform="translate(72.787654 0)scale(0.996264)" xlink:href="#CMR17-30"/>
       <use transform="translate(118.478131 0)scale(0.996264)" xlink:href="#CMR17-30"/>
      </g>
     </g>
    </g>
    <g id="ytick_6">
     <g id="line2d_25">
      <g>
       <use style="stroke:#000000;stroke-width:0.8;" x="72" xlink:href="#me70b786894" y="180.359953"/>
      </g>
     </g>
     <g id="line2d_26">
      <g>
       <use style="stroke:#000000;stroke-width:0.8;" x="518.4" xlink:href="#m5357905709" y="180.359953"/>
      </g>
     </g>
     <g id="text_13">
      <!-- $\mathdefault{0.25}$ -->
      <g transform="translate(38.997138 185.546748)scale(0.14994 -0.14994)">
       <use transform="scale(0.996264)" xlink:href="#CMR17-30"/>
       <use transform="translate(45.690477 0)scale(0.996264)" xlink:href="#CMMI12-3a"/>
       <use transform="translate(72.787654 0)scale(0.996264)" xlink:href="#CMR17-32"/>
       <use transform="translate(118.478131 0)scale(0.996264)" xlink:href="#CMR17-35"/>
      </g>
     </g>
    </g>
    <g id="ytick_7">
     <g id="line2d_27">
      <g>
       <use style="stroke:#000000;stroke-width:0.8;" x="72" xlink:href="#me70b786894" y="142.559907"/>
      </g>
     </g>
     <g id="line2d_28">
      <g>
       <use style="stroke:#000000;stroke-width:0.8;" x="518.4" xlink:href="#m5357905709" y="142.559907"/>
      </g>
     </g>
     <g id="text_14">
      <!-- $\mathdefault{0.50}$ -->
      <g transform="translate(38.997138 147.746701)scale(0.14994 -0.14994)">
       <use transform="scale(0.996264)" xlink:href="#CMR17-30"/>
       <use transform="translate(45.690477 0)scale(0.996264)" xlink:href="#CMMI12-3a"/>
       <use transform="translate(72.787654 0)scale(0.996264)" xlink:href="#CMR17-35"/>
       <use transform="translate(118.478131 0)scale(0.996264)" xlink:href="#CMR17-30"/>
      </g>
     </g>
    </g>
    <g id="ytick_8">
     <g id="line2d_29">
      <g>
       <use style="stroke:#000000;stroke-width:0.8;" x="72" xlink:href="#me70b786894" y="104.75986"/>
      </g>
     </g>
     <g id="line2d_30">
      <g>
       <use style="stroke:#000000;stroke-width:0.8;" x="518.4" xlink:href="#m5357905709" y="104.75986"/>
      </g>
     </g>
     <g id="text_15">
      <!-- $\mathdefault{0.75}$ -->
      <g transform="translate(38.997138 109.946655)scale(0.14994 -0.14994)">
       <use transform="scale(0.996264)" xlink:href="#CMR17-30"/>
       <use transform="translate(45.690477 0)scale(0.996264)" xlink:href="#CMMI12-3a"/>
       <use transform="translate(72.787654 0)scale(0.996264)" xlink:href="#CMR17-37"/>
       <use transform="translate(118.478131 0)scale(0.996264)" xlink:href="#CMR17-35"/>
      </g>
     </g>
    </g>
    <g id="ytick_9">
     <g id="line2d_31">
      <g>
       <use style="stroke:#000000;stroke-width:0.8;" x="72" xlink:href="#me70b786894" y="66.959813"/>
      </g>
     </g>
     <g id="line2d_32">
      <g>
       <use style="stroke:#000000;stroke-width:0.8;" x="518.4" xlink:href="#m5357905709" y="66.959813"/>
      </g>
     </g>
     <g id="text_16">
      <!-- $\mathdefault{1.00}$ -->
      <g transform="translate(38.997138 72.146608)scale(0.14994 -0.14994)">
       <use transform="scale(0.996264)" xlink:href="#CMR17-31"/>
       <use transform="translate(45.690477 0)scale(0.996264)" xlink:href="#CMMI12-3a"/>
       <use transform="translate(72.787654 0)scale(0.996264)" xlink:href="#CMR17-30"/>
       <use transform="translate(118.478131 0)scale(0.996264)" xlink:href="#CMR17-30"/>
      </g>
     </g>
    </g>
   </g>
   <g id="line2d_33">
    <path clip-path="url(#p6d257b78b2)" d="M 92.290909 218.16
L 106.508763 185.14422
L 114.227027 167.789201
L 120.726618 153.721865
L 126.413759 141.943077
L 131.694676 131.532536
L 136.569369 122.435014
L 141.037838 114.573192
L 145.100082 107.855216
L 149.162326 101.573435
L 152.818346 96.313346
L 156.474365 91.443569
L 159.724161 87.455187
L 162.973956 83.797637
L 166.223751 80.480179
L 169.473546 77.511208
L 172.317117 75.205157
L 175.160688 73.176153
L 178.004259 71.428128
L 180.84783 69.96447
L 183.285176 68.938404
L 185.722523 68.124815
L 188.159869 67.524862
L 190.597215 67.139397
L 193.034562 66.968972
L 195.471908 67.013827
L 197.909255 67.273899
L 200.346601 67.748818
L 202.783948 68.437908
L 205.221294 69.340187
L 207.65864 70.454371
L 210.502211 72.019942
L 213.345782 73.868734
L 216.189353 75.997163
L 219.032924 78.401104
L 221.876495 81.075898
L 225.12629 84.45779
L 228.376085 88.178101
L 231.62588 92.227416
L 235.2819 97.163362
L 238.93792 102.486898
L 242.593939 108.180969
L 246.656183 114.920071
L 251.124652 122.803545
L 255.59312 131.143256
L 260.467813 140.714519
L 265.748731 151.579207
L 271.842097 164.66339
L 278.747912 180.06087
L 287.278624 199.662543
L 314.495659 262.662124
L 321.401474 277.828962
L 327.088616 289.815012
L 332.369533 300.449698
L 337.244226 309.779886
L 341.712695 317.875552
L 346.181163 325.494124
L 350.243407 331.975372
L 353.899427 337.424374
L 357.555446 342.491336
L 361.211466 347.160028
L 364.461261 350.963506
L 367.711057 354.430839
L 370.960852 357.55325
L 373.804423 359.996182
L 376.647993 362.164235
L 379.491564 364.053207
L 382.335135 365.659437
L 385.178706 366.979813
L 387.616052 367.882092
L 390.053399 368.571182
L 392.490745 369.046101
L 394.928092 369.306173
L 397.365438 369.351028
L 399.802785 369.180603
L 402.240131 368.795138
L 404.677477 368.195185
L 407.114824 367.381596
L 409.55217 366.35553
L 412.395741 364.891872
L 415.239312 363.143847
L 418.082883 361.114843
L 420.926454 358.808792
L 423.770025 356.230163
L 427.01982 352.955824
L 430.269615 349.340297
L 433.51941 345.392734
L 437.17543 340.567311
L 440.83145 335.349781
L 444.487469 329.756856
L 448.549713 323.124048
L 452.611957 316.076165
L 457.080426 307.877392
L 461.955119 298.445122
L 467.236036 287.712742
L 472.923178 275.637209
L 479.422768 261.296894
L 487.141032 243.712956
L 498.109091 218.16
L 498.109091 218.16
" style="fill:none;stroke:#ff0000;stroke-dasharray:20,40;stroke-dashoffset:0;stroke-width:2;"/>
   </g>
   <g id="line2d_34">
    <path clip-path="url(#p6d257b78b2)" d="M 92.290909 218.16
L 106.508763 185.14422
L 114.227027 167.789201
L 120.726618 153.721865
L 126.413759 141.943077
L 131.694676 131.532536
L 136.569369 122.435014
L 141.037838 114.573192
L 145.100082 107.855216
L 149.162326 101.573435
L 152.818346 96.313346
L 156.474365 91.443569
L 159.724161 87.455187
L 162.973956 83.797637
L 166.223751 80.480179
L 169.473546 77.511208
L 172.317117 75.205157
L 175.160688 73.176153
L 178.004259 71.428128
L 180.84783 69.96447
L 183.285176 68.938404
L 185.722523 68.124815
L 188.159869 67.524862
L 190.597215 67.139397
L 193.034562 66.968972
L 195.471908 67.013827
L 197.909255 67.273899
L 200.346601 67.748818
L 202.783948 68.437908
L 205.221294 69.340187
L 207.65864 70.454371
L 210.502211 72.019942
L 213.345782 73.868734
L 216.189353 75.997163
L 219.032924 78.401104
L 221.876495 81.075898
L 225.12629 84.45779
L 228.376085 88.178101
L 231.62588 92.227416
L 235.2819 97.163362
L 238.93792 102.486898
L 242.593939 108.180969
L 246.656183 114.920071
L 251.124652 122.803545
L 255.59312 131.143256
L 260.467813 140.714519
L 265.748731 151.579207
L 271.842097 164.66339
L 278.747912 180.06087
L 287.278624 199.662543
L 314.495659 262.662124
L 321.401474 277.828962
L 327.088616 289.815012
L 332.369533 300.449698
L 337.244226 309.779886
L 341.712695 317.875552
L 346.181163 325.494124
L 350.243407 331.975372
L 353.899427 337.424374
L 357.555446 342.491336
L 361.211466 347.160028
L 364.461261 350.963506
L 367.711057 354.430839
L 370.960852 357.55325
L 373.804423 359.996182
L 376.647993 362.164235
L 379.491564 364.053207
L 382.335135 365.659437
L 385.178706 366.979813
L 387.616052 367.882092
L 390.053399 368.571182
L 392.490745 369.046101
L 394.928092 369.306173
L 397.365438 369.351028
L 399.802785 369.180603
L 402.240131 368.795138
L 404.677477 368.195185
L 407.114824 367.381596
L 409.55217 366.35553
L 412.395741 364.891872
L 415.239312 363.143847
L 418.082883 361.114843
L 420.926454 358.808792
L 423.770025 356.230163
L 427.01982 352.955824
L 430.269615 349.340297
L 433.51941 345.392734
L 437.17543 340.567311
L 440.83145 335.349781
L 444.487469 329.756856
L 448.549713 323.124048
L 452.611957 316.076165
L 457.080426 307.877392
L 461.955119 298.445122
L 467.236036 287.712742
L 472.923178 275.637209
L 479.422768 261.296894
L 487.141032 243.712956
L 498.109091 218.16
L 498.109091 218.16
" style="fill:none;stroke:#008000;stroke-dasharray:20,40;stroke-dashoffset:20;stroke-width:2;"/>
   </g>
   <g id="line2d_35">
    <path clip-path="url(#p6d257b78b2)" d="M 92.290909 218.16
L 106.508763 185.14422
L 114.227027 167.789201
L 120.726618 153.721865
L 126.413759 141.943077
L 131.694676 131.532536
L 136.569369 122.435014
L 141.037838 114.573192
L 145.100082 107.855216
L 149.162326 101.573435
L 152.818346 96.313346
L 156.474365 91.443569
L 159.724161 87.455187
L 162.973956 83.797637
L 166.223751 80.480179
L 169.473546 77.511208
L 172.317117 75.205157
L 175.160688 73.176153
L 178.004259 71.428128
L 180.84783 69.96447
L 183.285176 68.938404
L 185.722523 68.124815
L 188.159869 67.524862
L 190.597215 67.139397
L 193.034562 66.968972
L 195.471908 67.013827
L 197.909255 67.273899
L 200.346601 67.748818
L 202.783948 68.437908
L 205.221294 69.340187
L 207.65864 70.454371
L 210.502211 72.019942
L 213.345782 73.868734
L 216.189353 75.997163
L 219.032924 78.401104
L 221.876495 81.075898
L 225.12629 84.45779
L 228.376085 88.178101
L 231.62588 92.227416
L 235.2819 97.163362
L 238.93792 102.486898
L 242.593939 108.180969
L 246.656183 114.920071
L 251.124652 122.803545
L 255.59312 131.143256
L 260.467813 140.714519
L 265.748731 151.579207
L 271.842097 164.66339
L 278.747912 180.06087
L 287.278624 199.662543
L 314.495659 262.662124
L 321.401474 277.828962
L 327.088616 289.815012
L 332.369533 300.449698
L 337.244226 309.779886
L 341.712695 317.875552
L 346.181163 325.494124
L 350.243407 331.975372
L 353.899427 337.424374
L 357.555446 342.491336
L 361.211466 347.160028
L 364.461261 350.963506
L 367.711057 354.430839
L 370.960852 357.55325
L 373.804423 359.996182
L 376.647993 362.164235
L 379.491564 364.053207
L 382.335135 365.659437
L 385.178706 366.979813
L 387.616052 367.882092
L 390.053399 368.571182
L 392.490745 369.046101
L 394.928092 369.306173
L 397.365438 369.351028
L 399.802785 369.180603
L 402.240131 368.795138
L 404.677477 368.195185
L 407.114824 367.381596
L 409.55217 366.35553
L 412.395741 364.891872
L 415.239312 363.143847
L 418.082883 361.114843
L 420.926454 358.808792
L 423.770025 356.230163
L 427.01982 352.955824
L 430.269615 349.340297
L 433.51941 345.392734
L 437.17543 340.567311
L 440.83145 335.349781
L 444.487469 329.756856
L 448.549713 323.124048
L 452.611957 316.076165
L 457.080426 307.877392
L 461.955119 298.445122
L 467.236036 287.712742
L 472.923178 275.637209
L 479.422768 261.296894
L 487.141032 243.712956
L 498.109091 218.16
L 498.109091 218.16
" style="fill:none;stroke:#0000ff;stroke-dasharray:20,40;stroke-dashoffset:40;stroke-width:2;"/>
   </g>
   <g id="patch_3">
    <path d="M 72 384.48
L 72 51.84
" style="fill:none;stroke:#000000;stroke-linecap:square;stroke-linejoin:miter;stroke-width:0.8;"/>
   </g>
   <g id="patch_4">
    <path d="M 518.4 384.48
L 518.4 51.84
" style="fill:none;stroke:#000000;stroke-linecap:square;stroke-linejoin:miter;stroke-width:0.8;"/>
   </g>
   <g id="patch_5">
    <path d="M 72 384.48
L 518.4 384.48
" style="fill:none;stroke:#000000;stroke-linecap:square;stroke-linejoin:miter;stroke-width:0.8;"/>
   </g>
   <g id="patch_6">
    <path d="M 72 51.84
L 518.4 51.84
" style="fill:none;stroke:#000000;stroke-linecap:square;stroke-linejoin:miter;stroke-width:0.8;"/>
   </g>
  </g>
 </g>
 <defs>
  <clipPath id="p6d257b78b2">
   <rect height="332.64" width="446.4" x="72" y="51.84"/>
  </clipPath>
 </defs>
</svg>
