<?xml version="1.0" encoding="utf-8" standalone="no"?>
<!DOCTYPE svg PUBLIC "-//W3C//DTD SVG 1.1//EN"
  "http://www.w3.org/Graphics/SVG/1.1/DTD/svg11.dtd">
<!-- Created with matplotlib (http://matplotlib.org/) -->
<svg height="432pt" version="1.1" viewBox="0 0 576 432" width="576pt" xmlns="http://www.w3.org/2000/svg" xmlns:xlink="http://www.w3.org/1999/xlink">
 <defs>
  <style type="text/css">
*{stroke-linecap:butt;stroke-linejoin:round;}
  </style>
 </defs>
 <g id="figure_1">
  <g id="patch_1">
   <path d="M 0 432
L 576 432
L 576 0
L 0 0
z
" style="fill:none;"/>
  </g>
  <g id="axes_1">
   <g id="patch_2">
    <path d="M 65.313132 372.340456
L 548.754812 372.340456
L 548.754812 37.8933
L 65.313132 37.8933
z
" style="fill:none;"/>
   </g>
   <g id="matplotlib.axis_1">
    <g id="xtick_1">
     <g id="line2d_1">
      <defs>
       <path d="M 0 0
L 0 3.5
" id="m5f1e281d61" style="stroke:#000000;stroke-width:0.8;"/>
      </defs>
      <g>
       <use style="stroke:#000000;stroke-width:0.8;" x="65.313132" xlink:href="#m5f1e281d61" y="372.340456"/>
      </g>
     </g>
     <g id="line2d_2">
      <defs>
       <path d="M 0 0
L 0 -3.5
" id="m4f17a62613" style="stroke:#000000;stroke-width:0.8;"/>
      </defs>
      <g>
       <use style="stroke:#000000;stroke-width:0.8;" x="65.313132" xlink:href="#m4f17a62613" y="37.8933"/>
      </g>
     </g>
     <g id="text_1">
      <!-- 0 -->
      <defs>
       <path d="M 42 31.640625
C 42 37.75 41.90625 48.125 37.703125 56.109375
C 34 63.109375 28.09375 65.59375 22.90625 65.59375
C 18.09375 65.59375 12 63.40625 8.203125 56.203125
C 4.203125 48.71875 3.796875 39.4375 3.796875 31.640625
C 3.796875 25.953125 3.90625 17.28125 7 9.671875
C 11.296875 -0.609375 19 -2 22.90625 -2
C 27.5 -2 34.5 -0.109375 38.59375 9.375
C 41.59375 16.28125 42 24.359375 42 31.640625
z
M 22.90625 -0.40625
C 16.5 -0.40625 12.703125 5.078125 11.296875 12.6875
C 10.203125 18.5625 10.203125 27.15625 10.203125 32.75
C 10.203125 40.4375 10.203125 46.828125 11.5 52.921875
C 13.40625 61.390625 19 64 22.90625 64
C 27 64 32.296875 61.296875 34.203125 53.125
C 35.5 47.4375 35.59375 40.734375 35.59375 32.75
C 35.59375 26.25 35.59375 18.265625 34.40625 12.375
C 32.296875 1.484375 26.40625 -0.40625 22.90625 -0.40625
z
" id="CMR17-48"/>
      </defs>
      <g transform="translate(61.65648 389.714046)scale(0.14994 -0.14994)">
       <use transform="scale(0.996264)" xlink:href="#CMR17-48"/>
      </g>
     </g>
    </g>
    <g id="xtick_2">
     <g id="line2d_3">
      <g>
       <use style="stroke:#000000;stroke-width:0.8;" x="307.033972" xlink:href="#m5f1e281d61" y="372.340456"/>
      </g>
     </g>
     <g id="line2d_4">
      <g>
       <use style="stroke:#000000;stroke-width:0.8;" x="307.033972" xlink:href="#m4f17a62613" y="37.8933"/>
      </g>
     </g>
     <g id="text_2">
      <!-- $\pi$ -->
      <defs>
       <path d="M 25.90625 37.625
L 37.203125 37.625
C 34.5 26.4375 32.796875 19.15625 32.796875 11.1875
C 32.796875 9.78125 32.796875 -1 36.90625 -1
C 39 -1 40.796875 0.890625 40.796875 2.59375
C 40.796875 3.078125 40.796875 3.28125 40.09375 4.78125
C 37.40625 11.671875 37.40625 20.25 37.40625 20.953125
C 37.40625 21.546875 37.40625 28.625 39.5 37.625
L 50.703125 37.625
C 52 37.625 55.296875 37.625 55.296875 40.8125
C 55.296875 43 53.40625 43 51.59375 43
L 18.703125 43
C 16.40625 43 13 43 8.40625 38.125
C 5.796875 35.21875 2.59375 29.9375 2.59375 29.34375
C 2.59375 28.75 3.09375 28.546875 3.703125 28.546875
C 4.40625 28.546875 4.5 28.84375 5 29.4375
C 10.203125 37.625 15.40625 37.625 17.90625 37.625
L 23.59375 37.625
C 21.40625 30.140625 18.90625 21.453125 10.703125 4
C 9.90625 2.40625 9.90625 2.1875 9.90625 1.59375
C 9.90625 -0.5 11.703125 -1 12.59375 -1
C 15.5 -1 16.296875 1.59375 17.5 5.78125
C 19.09375 10.875 19.09375 11.078125 20.09375 15.0625
z
" id="CMMI12-25"/>
      </defs>
      <g transform="translate(302.885436 389.714046)scale(0.14994 -0.14994)">
       <use transform="scale(0.996264)" xlink:href="#CMMI12-25"/>
      </g>
     </g>
    </g>
    <g id="xtick_3">
     <g id="line2d_5">
      <g>
       <use style="stroke:#000000;stroke-width:0.8;" x="548.754812" xlink:href="#m5f1e281d61" y="372.340456"/>
      </g>
     </g>
     <g id="line2d_6">
      <g>
       <use style="stroke:#000000;stroke-width:0.8;" x="548.754812" xlink:href="#m4f17a62613" y="37.8933"/>
      </g>
     </g>
     <g id="text_3">
      <!-- $2\pi$ -->
      <defs>
       <path d="M 41.703125 15.453125
L 39.90625 15.453125
C 38.90625 8.375 38.09375 7.171875 37.703125 6.5625
C 37.203125 5.765625 30 5.765625 28.59375 5.765625
L 9.40625 5.765625
C 13 9.671875 20 16.75 28.5 24.953125
C 34.59375 30.734375 41.703125 37.53125 41.703125 47.421875
C 41.703125 59.21875 32.296875 66 21.796875 66
C 10.796875 66 4.09375 56.3125 4.09375 47.34375
C 4.09375 43.4375 7 42.9375 8.203125 42.9375
C 9.203125 42.9375 12.203125 43.546875 12.203125 47.03125
C 12.203125 50.109375 9.59375 51 8.203125 51
C 7.59375 51 7 50.90625 6.59375 50.703125
C 8.5 59.21875 14.296875 63.40625 20.40625 63.40625
C 29.09375 63.40625 34.796875 56.515625 34.796875 47.421875
C 34.796875 38.734375 29.703125 31.25 24 24.75
L 4.09375 2.28125
L 4.09375 0
L 39.296875 0
z
" id="CMR17-50"/>
      </defs>
      <g transform="translate(540.949624 389.714046)scale(0.14994 -0.14994)">
       <use transform="scale(0.996264)" xlink:href="#CMR17-50"/>
       <use transform="translate(45.690477 0)scale(0.996264)" xlink:href="#CMMI12-25"/>
      </g>
     </g>
    </g>
    <g id="text_4">
     <!-- $x$ -->
     <defs>
      <path d="M 47.40625 40.71875
C 44.203125 40.109375 43 37.71875 43 35.828125
C 43 33.421875 44.90625 32.625 46.296875 32.625
C 49.296875 32.625 51.40625 35.21875 51.40625 37.921875
C 51.40625 42.109375 46.59375 44 42.40625 44
C 36.296875 44 32.90625 38.015625 32 36.125
C 29.703125 44 23.5 44 21.703125 44
C 11.5 44 6.09375 30.9375 6.09375 28.734375
C 6.09375 28.34375 6.5 27.84375 7.203125 27.84375
C 8 27.84375 8.203125 28.4375 8.40625 28.84375
C 11.796875 39.921875 18.5 42.015625 21.40625 42.015625
C 25.90625 42.015625 26.796875 37.8125 26.796875 35.421875
C 26.796875 33.234375 26.203125 30.9375 25 26.140625
L 21.59375 12.46875
C 20.09375 6.484375 17.203125 1 11.90625 1
C 11.40625 1 8.90625 1 6.796875 2.296875
C 10.40625 3 11.203125 5.984375 11.203125 7.1875
C 11.203125 9.1875 9.703125 10.375 7.796875 10.375
C 5.40625 10.375 2.796875 8.28125 2.796875 5.09375
C 2.796875 0.890625 7.5 -1 11.796875 -1
C 16.59375 -1 20 2.796875 22.09375 6.890625
C 23.703125 1 28.703125 -1 32.40625 -1
C 42.59375 -1 48 12.078125 48 14.265625
C 48 14.765625 47.59375 15.171875 47 15.171875
C 46.09375 15.171875 46 14.671875 45.703125 13.875
C 43 5.09375 37.203125 1 32.703125 1
C 29.203125 1 27.296875 3.59375 27.296875 7.6875
C 27.296875 9.875 27.703125 11.46875 29.296875 18.0625
L 32.796875 31.625
C 34.296875 37.625 37.703125 42.015625 42.296875 42.015625
C 42.5 42.015625 45.296875 42.015625 47.40625 40.71875
z
" id="CMMI12-120"/>
     </defs>
     <g transform="translate(302.044907 409.071936)scale(0.18 -0.18)">
      <use transform="scale(0.996264)" xlink:href="#CMMI12-120"/>
     </g>
    </g>
   </g>
   <g id="matplotlib.axis_2">
    <g id="ytick_1">
     <g id="line2d_7">
      <defs>
       <path d="M 0 0
L -3.5 0
" id="ma02f8c5dd5" style="stroke:#000000;stroke-width:0.8;"/>
      </defs>
      <g>
       <use style="stroke:#000000;stroke-width:0.8;" x="65.313132" xlink:href="#ma02f8c5dd5" y="357.138608"/>
      </g>
     </g>
     <g id="line2d_8">
      <defs>
       <path d="M 0 0
L 3.5 0
" id="md00c92ae18" style="stroke:#000000;stroke-width:0.8;"/>
      </defs>
      <g>
       <use style="stroke:#000000;stroke-width:0.8;" x="548.754812" xlink:href="#md00c92ae18" y="357.138608"/>
      </g>
     </g>
     <g id="text_5">
      <!-- $-1$ -->
      <defs>
       <path d="M 65.90625 23
C 67.59375 23 69.40625 23 69.40625 25
C 69.40625 27 67.59375 27 65.90625 27
L 11.796875 27
C 10.09375 27 8.296875 27 8.296875 25
C 8.296875 23 10.09375 23 11.796875 23
z
" id="CMSY10-0"/>
       <path d="M 26.59375 63.40625
C 26.59375 65.5 26.5 65.5 25.09375 65.5
C 21.203125 61.1875 15.296875 59.796875 9.703125 59.796875
C 9.40625 59.796875 8.90625 59.796875 8.796875 59.5
C 8.703125 59.296875 8.703125 59.09375 8.703125 57
C 11.796875 57 17 57.59375 21 59.984375
L 21 7.203125
C 21 3.6875 20.796875 2.5 12.203125 2.5
L 9.203125 2.5
L 9.203125 0
C 14 0 19 0 23.796875 0
C 28.59375 0 33.59375 0 38.40625 0
L 38.40625 2.5
L 35.40625 2.5
C 26.796875 2.5 26.59375 3.59375 26.59375 7.15625
z
" id="CMR17-49"/>
      </defs>
      <g transform="translate(39.381364 362.325402)scale(0.14994 -0.14994)">
       <use transform="scale(0.996264)" xlink:href="#CMSY10-0"/>
       <use transform="translate(77.487468 0)scale(0.996264)" xlink:href="#CMR17-49"/>
      </g>
     </g>
    </g>
    <g id="ytick_2">
     <g id="line2d_9">
      <g>
       <use style="stroke:#000000;stroke-width:0.8;" x="65.313132" xlink:href="#ma02f8c5dd5" y="205.116437"/>
      </g>
     </g>
     <g id="line2d_10">
      <g>
       <use style="stroke:#000000;stroke-width:0.8;" x="548.754812" xlink:href="#md00c92ae18" y="205.116437"/>
      </g>
     </g>
     <g id="text_6">
      <!-- $0$ -->
      <g transform="translate(50.999828 210.303231)scale(0.14994 -0.14994)">
       <use transform="scale(0.996264)" xlink:href="#CMR17-48"/>
      </g>
     </g>
    </g>
    <g id="ytick_3">
     <g id="line2d_11">
      <g>
       <use style="stroke:#000000;stroke-width:0.8;" x="65.313132" xlink:href="#ma02f8c5dd5" y="53.094266"/>
      </g>
     </g>
     <g id="line2d_12">
      <g>
       <use style="stroke:#000000;stroke-width:0.8;" x="548.754812" xlink:href="#md00c92ae18" y="53.094266"/>
      </g>
     </g>
     <g id="text_7">
      <!-- $1$ -->
      <g transform="translate(50.999828 58.28106)scale(0.14994 -0.14994)">
       <use transform="scale(0.996264)" xlink:href="#CMR17-49"/>
      </g>
     </g>
    </g>
    <g id="text_8">
     <!-- $y$ -->
     <defs>
      <path d="M 26.296875 -10.9375
C 23.59375 -14.671875 19.703125 -18 14.796875 -18
C 13.59375 -18 8.796875 -18 7.296875 -13.890625
C 7.59375 -13.984375 8.09375 -13.984375 8.296875 -13.984375
C 11.296875 -13.984375 13.296875 -11.390625 13.296875 -9.09375
C 13.296875 -6.796875 11.40625 -6 9.90625 -6
C 8.296875 -6 4.796875 -7.15625 4.796875 -11.859375
C 4.796875 -16.734375 9.09375 -20.09375 14.796875 -20.09375
C 24.796875 -20.09375 34.90625 -10.9375 37.703125 0.09375
L 47.5 38.828125
C 47.59375 39.328125 47.796875 39.9375 47.796875 40.53125
C 47.796875 42.015625 46.59375 43.015625 45.09375 43.015625
C 44.203125 43.015625 42.09375 42.609375 41.296875 39.609375
L 33.90625 10.28125
C 33.40625 8.484375 33.40625 8.28125 32.59375 7.1875
C 30.59375 4.390625 27.296875 1 22.5 1
C 16.90625 1 16.40625 6.484375 16.40625 9.1875
C 16.40625 14.875 19.09375 22.546875 21.796875 29.734375
C 22.90625 32.625 23.5 34.03125 23.5 36.015625
C 23.5 40.21875 20.5 44 15.59375 44
C 6.40625 44 2.703125 29.53125 2.703125 28.734375
C 2.703125 28.34375 3.09375 27.84375 3.796875 27.84375
C 4.703125 27.84375 4.796875 28.234375 5.203125 29.640625
C 7.59375 38.015625 11.40625 42.015625 15.296875 42.015625
C 16.203125 42.015625 17.90625 42.015625 17.90625 38.71875
C 17.90625 36.125 16.796875 33.234375 15.296875 29.4375
C 10.40625 16.359375 10.40625 13.078125 10.40625 10.671875
C 10.40625 1.203125 17.203125 -1 22.203125 -1
C 25.09375 -1 28.703125 -0.09375 32.203125 3.59375
L 32.296875 3.5
C 30.796875 -2.296875 29.796875 -6.125 26.296875 -10.9375
z
" id="CMMI12-121"/>
     </defs>
     <g transform="translate(31.8933 209.397655)rotate(-90)scale(0.18 -0.18)">
      <use transform="scale(0.996264)" xlink:href="#CMMI12-121"/>
     </g>
    </g>
   </g>
   <g id="line2d_13">
    <path clip-path="url(#p00ea17165f)" d="M 65.313132 205.116437
L 81.064365 174.212089
L 89.545798 158.025178
L 96.815597 144.598375
L 102.873764 133.816818
L 108.93193 123.477051
L 114.990097 113.643143
L 119.83663 106.181298
L 124.683163 99.111863
L 129.529696 92.462879
L 134.376229 86.260717
L 138.011129 81.917191
L 141.646029 77.848571
L 145.280929 74.063935
L 148.915829 70.571729
L 152.550728 67.379744
L 156.185628 64.495104
L 159.820528 61.924245
L 163.455428 59.672903
L 167.090328 57.746104
L 170.725228 56.148144
L 174.360128 54.882592
L 177.995027 53.95227
L 181.629927 53.359254
L 184.053194 53.151987
L 186.47646 53.095444
L 188.899727 53.189679
L 191.322993 53.434601
L 193.74626 53.829965
L 197.38116 54.704193
L 201.01606 55.91405
L 204.65096 57.456835
L 208.285859 59.329107
L 211.920759 61.526688
L 215.555659 64.044673
L 219.190559 66.877445
L 222.825459 70.018682
L 226.460359 73.461375
L 230.095259 77.197841
L 233.730158 81.219744
L 237.365058 85.518109
L 242.211591 91.662651
L 247.058125 98.257189
L 251.904658 105.275568
L 256.751191 112.68995
L 261.597724 120.470927
L 267.65589 130.665528
L 273.714057 141.321446
L 280.983856 154.624344
L 289.465289 170.705104
L 300.369989 191.966202
L 325.814288 241.855213
L 334.295721 257.860219
L 341.565521 271.076384
L 347.623687 281.645236
L 353.681853 291.739894
L 358.528387 299.432061
L 363.37492 306.75014
L 368.221453 313.665105
L 373.067986 320.149528
L 377.914519 326.17769
L 381.549419 330.384937
L 385.184319 334.312661
L 388.819219 337.952097
L 392.454119 341.295126
L 396.089018 344.334286
L 399.723918 347.062797
L 403.358818 349.47457
L 406.993718 351.564223
L 410.628618 353.327094
L 414.263518 354.75925
L 417.898417 355.857493
L 421.533317 356.619375
L 423.956584 356.939557
L 426.37985 357.109157
L 428.803117 357.128005
L 431.226384 356.996083
L 433.64965 356.713523
L 437.28455 356.007887
L 440.91945 354.965554
L 444.55435 353.588849
L 448.18925 351.880843
L 451.824149 349.845349
L 455.459049 347.486909
L 459.093949 344.810784
L 462.728849 341.822946
L 466.363749 338.530062
L 469.998649 334.939481
L 473.633548 331.059214
L 477.268448 326.897919
L 480.903348 322.464882
L 485.749881 316.148637
L 490.596414 309.392001
L 495.442948 302.221772
L 500.289481 294.66639
L 505.136014 286.755822
L 511.19418 276.416055
L 517.252347 265.634498
L 524.522146 252.207695
L 533.003579 236.020784
L 543.908279 214.68588
L 548.754812 205.116437
L 548.754812 205.116437
" style="fill:none;stroke:#000000;stroke-linecap:square;stroke-width:2;"/>
   </g>
   <g id="line2d_14">
    <path clip-path="url(#p00ea17165f)" d="M 65.313132 312.612345
L 70.159665 305.632544
L 75.006198 298.254061
L 79.852731 290.506163
L 85.910898 280.348745
L 91.969064 269.725169
L 99.238864 256.45441
L 106.508664 242.725687
L 116.20173 223.920459
L 147.704195 162.312944
L 154.973995 148.741802
L 162.243795 135.673554
L 168.301961 125.251767
L 174.360128 115.324841
L 179.206661 107.781049
L 184.053194 100.623323
L 188.899727 93.880052
L 193.74626 87.577983
L 197.38116 83.156075
L 201.01606 79.006309
L 204.65096 75.137943
L 208.285859 71.55961
L 211.920759 68.279295
L 215.555659 65.304317
L 219.190559 62.641315
L 222.825459 60.29623
L 226.460359 58.274295
L 230.095259 56.580023
L 233.730158 55.217194
L 237.365058 54.188849
L 240.999958 53.497282
L 243.423225 53.224129
L 245.846491 53.101628
L 248.269758 53.129901
L 250.693024 53.308918
L 253.116291 53.638503
L 256.751191 54.414439
L 260.386091 55.52665
L 264.02099 56.972654
L 267.65589 58.749224
L 271.29079 60.852398
L 274.92569 63.27748
L 278.56059 66.019061
L 282.19549 69.071023
L 285.83039 72.426555
L 289.465289 76.07817
L 293.100189 80.01772
L 296.735089 84.236414
L 300.369989 88.724839
L 305.216522 95.111591
L 310.063055 101.934661
L 314.909588 109.166985
L 319.756122 116.779878
L 325.814288 126.785033
L 331.872454 137.27555
L 337.930621 148.186426
L 345.20042 161.739004
L 353.681853 178.030719
L 367.00982 204.218713
L 382.761052 235.141267
L 391.242485 251.353307
L 398.512285 264.809918
L 404.570451 275.621948
L 410.628618 285.997108
L 416.686784 295.87111
L 421.533317 303.36825
L 426.37985 310.475689
L 431.226384 317.165238
L 436.072917 323.410362
L 439.707817 327.787582
L 443.342716 331.891075
L 446.977616 335.711684
L 450.612516 339.240884
L 454.247416 342.470799
L 457.882316 345.394224
L 461.517216 348.004634
L 465.152116 350.296204
L 468.787015 352.263822
L 472.421915 353.903096
L 476.056815 355.210369
L 479.691715 356.182724
L 483.326615 356.817991
L 485.749881 357.0535
L 488.173148 357.138313
L 490.596414 357.072346
L 493.019681 356.855664
L 495.442948 356.488483
L 499.077847 355.65636
L 502.712747 354.488325
L 506.347647 352.986982
L 509.982547 351.155683
L 513.617447 348.998512
L 517.252347 346.520285
L 520.887247 343.72653
L 524.522146 340.623482
L 528.157046 337.218065
L 531.791946 333.517877
L 535.426846 329.531176
L 539.061746 325.266856
L 543.908279 319.16578
L 548.754812 312.612345
L 548.754812 312.612345
" style="fill:none;stroke:#ff0000;stroke-linecap:square;stroke-width:2;"/>
   </g>
   <g id="patch_3">
    <path d="M 65.313132 372.340456
L 65.313132 37.8933
" style="fill:none;stroke:#000000;stroke-linecap:square;stroke-linejoin:miter;stroke-width:0.8;"/>
   </g>
   <g id="patch_4">
    <path d="M 548.754812 372.340456
L 548.754812 37.8933
" style="fill:none;stroke:#000000;stroke-linecap:square;stroke-linejoin:miter;stroke-width:0.8;"/>
   </g>
   <g id="patch_5">
    <path d="M 65.313132 372.340456
L 548.754812 372.340456
" style="fill:none;stroke:#000000;stroke-linecap:square;stroke-linejoin:miter;stroke-width:0.8;"/>
   </g>
   <g id="patch_6">
    <path d="M 65.313132 37.8933
L 548.754812 37.8933
" style="fill:none;stroke:#000000;stroke-linecap:square;stroke-linejoin:miter;stroke-width:0.8;"/>
   </g>
   <g id="text_9">
    <!-- Simple plot -->
    <defs>
     <path d="M 43.796875 67.03125
C 43.796875 68.8125 43.703125 68.921875 43.09375 68.921875
C 42.5 68.921875 42.296875 68.515625 41.90625 67.625
L 38.90625 61.046875
C 35.09375 66.515625 29.296875 69 23 69
C 12.796875 69 4.59375 60.953125 4.59375 50.828125
C 4.59375 47.75 5.296875 43.375 8.703125 39.21875
C 12.40625 34.65625 15.90625 33.859375 23.90625 31.765625
C 26.90625 30.96875 31.90625 29.671875 32.90625 29.28125
C 38.59375 26.90625 41.59375 20.953125 41.59375 15.390625
C 41.59375 8.234375 36.5 0.59375 27.796875 0.59375
C 17.09375 0.59375 7.09375 6.546875 6.40625 20.484375
C 6.296875 22.078125 6.203125 22.171875 5.5 22.171875
C 4.703125 22.171875 4.59375 22.078125 4.59375 20.078125
L 4.59375 -0.015625
C 4.59375 -1.796875 4.703125 -1.90625 5.296875 -1.90625
C 6 -1.90625 6.203125 -1.40625 7.59375 1.6875
C 7.703125 1.984375 7.703125 2.1875 9.59375 5.953125
C 14.59375 -0.609375 23 -2 27.796875 -2
C 38.703125 -2 46.40625 7.046875 46.40625 17.5625
C 46.40625 22.71875 44.5 26.6875 43.40625 28.484375
C 39.203125 34.84375 34.703125 36.03125 29.90625 37.21875
C 29.203125 37.53125 29 37.53125 23.40625 38.90625
C 18 40.296875 15.703125 41 13.203125 43.6875
C 10.40625 46.75 9.40625 49.9375 9.40625 53.109375
C 9.40625 59.5625 14.59375 66.609375 23.09375 66.609375
C 33.703125 66.609375 40.296875 59.15625 41.796875 46.765625
C 42.09375 44.96875 42.203125 44.875 42.90625 44.875
C 43.796875 44.875 43.796875 45.171875 43.796875 46.859375
z
" id="CMR17-83"/>
     <path d="M 15.5 61.078125
C 15.5 63.265625 13.703125 65.15625 11.40625 65.15625
C 9.203125 65.15625 7.296875 63.375 7.296875 61.078125
C 7.296875 58.890625 9.09375 57 11.40625 57
C 13.59375 57 15.5 58.796875 15.5 61.078125
z
M 3.796875 42.28125
L 3.796875 39.703125
C 9.40625 39.703125 10.203125 39.09375 10.203125 34.328125
L 10.203125 6.671875
C 10.203125 2.875 9.796875 2.390625 3.40625 2.390625
L 3.40625 -0.203125
C 5.796875 0 10.09375 0 12.59375 0
C 15 0 19.09375 0 21.40625 -0.203125
L 21.40625 2.390625
C 15.5 2.390625 15.296875 2.984375 15.296875 6.5625
L 15.296875 43.375
z
" id="CMR17-105"/>
     <path d="M 67.59375 30.203125
C 67.59375 35.1875 66.703125 43.59375 54.796875 43.59375
C 48 43.59375 43.296875 39 41.5 33.609375
L 41.40625 33.609375
C 40.203125 41.8125 34.296875 43.59375 28.703125 43.59375
C 20.796875 43.59375 16.703125 37.5 15.203125 33.5
L 15.09375 33.5
L 15.09375 43.59375
L 3.296875 42.5
L 3.296875 39.90625
C 9.203125 39.90625 10.09375 39.296875 10.09375 34.5
L 10.09375 6.6875
C 10.09375 2.875 9.703125 2.390625 3.296875 2.390625
L 3.296875 -0.203125
C 5.703125 0 10.09375 0 12.703125 0
C 15.296875 0 19.796875 0 22.203125 -0.203125
L 22.203125 2.390625
C 15.796875 2.390625 15.40625 2.78125 15.40625 6.6875
L 15.40625 25.90625
C 15.40625 35.109375 21 42 28 42
C 35.40625 42 36.203125 35.40625 36.203125 30.59375
L 36.203125 6.6875
C 36.203125 2.875 35.796875 2.390625 29.40625 2.390625
L 29.40625 -0.203125
C 31.796875 0 36.203125 0 38.796875 0
C 41.40625 0 45.90625 0 48.296875 -0.203125
L 48.296875 2.390625
C 41.90625 2.390625 41.5 2.78125 41.5 6.6875
L 41.5 25.90625
C 41.5 35.109375 47.09375 42 54.09375 42
C 61.5 42 62.296875 35.40625 62.296875 30.59375
L 62.296875 6.6875
C 62.296875 2.875 61.90625 2.390625 55.5 2.390625
L 55.5 -0.203125
C 57.90625 0 62.296875 0 64.90625 0
C 67.5 0 72 0 74.40625 -0.203125
L 74.40625 2.390625
C 68 2.390625 67.59375 2.78125 67.59375 6.6875
z
" id="CMR17-109"/>
     <path d="M 22 -16.609375
C 15.59375 -16.609375 15.203125 -16.203125 15.203125 -12.328125
L 15.203125 6.28125
C 18.09375 2.09375 22.296875 -0.59375 27.59375 -0.59375
C 37.59375 -0.59375 47.703125 8.171875 47.703125 21.6875
C 47.703125 34.234375 39 43.78125 28.703125 43.78125
C 22.703125 43.78125 17.796875 40.5 15 36.53125
L 15 43.78125
L 3.09375 42.6875
L 3.09375 40.109375
C 9 40.109375 9.90625 39.5 9.90625 34.734375
L 9.90625 -12.328125
C 9.90625 -16.109375 9.5 -16.609375 3.09375 -16.609375
L 3.09375 -19.1875
C 5.5 -19 9.90625 -19 12.5 -19
C 15.09375 -19 19.59375 -19 22 -19.1875
z
M 15.203125 31.4375
C 15.203125 32.84375 15.203125 34.921875 19.09375 38.609375
C 19.59375 39.015625 23 42 28 42
C 35.296875 42 41.296875 32.9375 41.296875 21.59375
C 41.296875 10.25 34.90625 1 27 1
C 23.40625 1 19.5 2.6875 16.5 7.375
C 15.203125 9.5625 15.203125 10.15625 15.203125 11.75
z
" id="CMR17-112"/>
     <path d="M 15.296875 68.6875
L 3.40625 67.59375
L 3.40625 65
C 9.296875 65 10.203125 64.40625 10.203125 59.640625
L 10.203125 6.65625
C 10.203125 2.875 9.796875 2.390625 3.40625 2.390625
L 3.40625 -0.203125
C 5.796875 0 10.203125 0 12.703125 0
C 15.296875 0 19.703125 0 22.09375 -0.203125
L 22.09375 2.390625
C 15.703125 2.390625 15.296875 2.78125 15.296875 6.65625
z
" id="CMR17-108"/>
     <path d="M 38.09375 23
C 38.5 23.40625 38.5 23.609375 38.5 24.625
C 38.5 34.96875 33.09375 44 21.703125 44
C 11.09375 44 2.703125 33.890625 2.703125 21.609375
C 2.703125 8.609375 12.203125 -1 22.796875 -1
C 34 -1 38.40625 9.484375 38.40625 11.5625
C 38.40625 12.25 37.796875 12.25 37.59375 12.25
C 36.90625 12.25 36.796875 12.046875 36.40625 10.875
C 34.203125 4.140625 28.703125 0.796875 23.5 0.796875
C 19.203125 0.796875 14.90625 3.171875 12.203125 7.5
C 9.09375 12.546875 9.09375 18.375 9.09375 23
z
M 9.203125 24.5
C 9.90625 39.140625 17.59375 42.40625 21.59375 42.40625
C 28.40625 42.40625 33 35.890625 33.09375 24.5
z
" id="CMR17-101"/>
     <path d="M 43.09375 21.1875
C 43.09375 34 33.796875 44 22.90625 44
C 12 44 2.703125 34 2.703125 21.1875
C 2.703125 8.609375 12 -1 22.90625 -1
C 33.796875 -1 43.09375 8.609375 43.09375 21.1875
z
M 22.90625 0.796875
C 18.203125 0.796875 14.203125 3.59375 11.90625 7.5
C 9.40625 11.984375 9.09375 17.59375 9.09375 22
C 9.09375 26.203125 9.296875 31.40625 11.90625 35.90625
C 13.90625 39.203125 17.796875 42.40625 22.90625 42.40625
C 27.40625 42.40625 31.203125 39.90625 33.59375 36.40625
C 36.703125 31.703125 36.703125 25.109375 36.703125 22
C 36.703125 18.09375 36.5 12.109375 33.796875 7.296875
C 31 2.703125 26.703125 0.796875 22.90625 0.796875
z
" id="CMR17-111"/>
     <path d="M 15.09375 40
L 29.09375 40
L 29.09375 42.578125
L 15.09375 42.578125
L 15.09375 61
L 13.296875 61
C 13.09375 50.703125 9.59375 41.6875 1.09375 41.6875
L 1.09375 40
L 9.796875 40
L 9.796875 12.046875
C 9.796875 10.15625 9.796875 -1 21.40625 -1
C 27.296875 -1 30.703125 4.78125 30.703125 12.140625
L 30.703125 17.8125
L 28.90625 17.8125
L 28.90625 12.234375
C 28.90625 5.375 26.203125 0.796875 22 0.796875
C 19.09375 0.796875 15.09375 2.78125 15.09375 11.84375
z
" id="CMR17-116"/>
    </defs>
    <g transform="translate(266.01634 31.8933)scale(0.18 -0.18)">
     <use transform="scale(0.996264)" xlink:href="#CMR17-83"/>
     <use transform="translate(50.89537 0)scale(0.996264)" xlink:href="#CMR17-105"/>
     <use transform="translate(75.766428 0)scale(0.996264)" xlink:href="#CMR17-109"/>
     <use transform="translate(152.686018 0)scale(0.996264)" xlink:href="#CMR17-112"/>
     <use transform="translate(203.581388 0)scale(0.996264)" xlink:href="#CMR17-108"/>
     <use transform="translate(228.452446 0)scale(0.996264)" xlink:href="#CMR17-101"/>
     <use transform="translate(299.014073 0)scale(0.996264)" xlink:href="#CMR17-112"/>
     <use transform="translate(349.909443 0)scale(0.996264)" xlink:href="#CMR17-108"/>
     <use transform="translate(374.780501 0)scale(0.996264)" xlink:href="#CMR17-111"/>
     <use transform="translate(420.470979 0)scale(0.996264)" xlink:href="#CMR17-116"/>
    </g>
   </g>
   <g id="legend_1">
    <g id="patch_7">
     <path d="M 408.135702 113.332313
L 536.154812 113.332313
Q 539.754812 113.332313 539.754812 109.732313
L 539.754812 50.4933
Q 539.754812 46.8933 536.154812 46.8933
L 408.135702 46.8933
Q 404.535702 46.8933 404.535702 50.4933
L 404.535702 109.732313
Q 404.535702 113.332313 408.135702 113.332313
z
" style="fill:none;opacity:0.8;stroke:#cccccc;stroke-linejoin:miter;"/>
    </g>
    <g id="line2d_15">
     <path d="M 411.735702 63.036234
L 447.735702 63.036234
" style="fill:none;stroke:#000000;stroke-linecap:square;stroke-width:2;"/>
    </g>
    <g id="line2d_16"/>
    <g id="text_10">
     <!-- $\sin \big( x \big)$ -->
     <defs>
      <path d="M 30.90625 42.140625
C 30.90625 43.953125 30.796875 44.046875 30.203125 44.046875
C 29.796875 44.046875 29.703125 43.953125 28.5 42.453125
C 28.203125 42.046875 27.296875 41.03125 27 40.640625
C 23.796875 44.046875 19.296875 44.046875 17.59375 44.046875
C 6.5 44.046875 2.5 38.234375 2.5 32.4375
C 2.5 23.40625 12.703125 21.328125 15.59375 20.703125
C 21.90625 19.421875 24.09375 19.015625 26.203125 17.203125
C 27.5 16.015625 29.703125 13.8125 29.703125 10.21875
C 29.703125 6 27.296875 0.59375 18.09375 0.59375
C 9.40625 0.59375 6.296875 7.1875 4.5 15.953125
C 4.203125 17.34375 4.203125 17.453125 3.40625 17.453125
C 2.59375 17.453125 2.5 17.34375 2.5 15.359375
L 2.5 0.984375
C 2.5 -0.796875 2.59375 -0.90625 3.203125 -0.90625
C 3.703125 -0.90625 3.796875 -0.796875 4.296875 0
C 4.90625 0.890625 6.40625 3.296875 7 4.3125
C 9 1.609375 12.5 -1 18.09375 -1
C 28 -1 33.296875 4.421875 33.296875 12.25
C 33.296875 17.375 30.59375 20.078125 29.296875 21.28125
C 26.296875 24.390625 22.796875 25.09375 18.59375 25.890625
C 13.09375 27.109375 6.09375 28.515625 6.09375 34.640625
C 6.09375 37.234375 7.5 42.765625 17.59375 42.765625
C 28.296875 42.765625 28.90625 32.71875 29.09375 29.5
C 29.203125 29 29.703125 28.890625 30 28.890625
C 30.90625 28.890625 30.90625 29.203125 30.90625 30.90625
z
" id="CMR17-115"/>
      <path d="M 41.5 30.203125
C 41.5 35.296875 40.5 43.59375 28.703125 43.59375
C 20.796875 43.59375 16.703125 37.5 15.203125 33.5
L 15.09375 33.5
L 15.09375 43.59375
L 3.296875 42.5
L 3.296875 39.90625
C 9.203125 39.90625 10.09375 39.296875 10.09375 34.5
L 10.09375 6.6875
C 10.09375 2.875 9.703125 2.390625 3.296875 2.390625
L 3.296875 -0.203125
C 5.703125 0 10.09375 0 12.703125 0
C 15.296875 0 19.796875 0 22.203125 -0.203125
L 22.203125 2.390625
C 15.796875 2.390625 15.40625 2.78125 15.40625 6.6875
L 15.40625 25.90625
C 15.40625 35.109375 21 42 28 42
C 35.40625 42 36.203125 35.40625 36.203125 30.59375
L 36.203125 6.6875
C 36.203125 2.875 35.796875 2.390625 29.40625 2.390625
L 29.40625 -0.203125
C 31.796875 0 36.203125 0 38.796875 0
C 41.40625 0 45.90625 0 48.296875 -0.203125
L 48.296875 2.390625
C 41.90625 2.390625 41.5 2.78125 41.5 6.6875
z
" id="CMR17-110"/>
      <path d="M 41.296875 -114.90625
C 41.296875 -114.5 41.09375 -114.296875 40.90625 -114
C 36.296875 -109.09375 29.5 -101 25.296875 -84.703125
C 23 -75.59375 22.09375 -65.296875 22.09375 -56
C 22.09375 -29.703125 28.40625 -11.296875 40.40625 1.703125
C 41.296875 2.59375 41.296875 2.796875 41.296875 3
C 41.296875 4 40.5 4 40.09375 4
C 38.59375 4 33.203125 -2 31.90625 -3.5
C 21.703125 -15.59375 15.203125 -33.59375 15.203125 -55.90625
C 15.203125 -70.09375 17.703125 -90.203125 30.796875 -107.09375
C 31.796875 -108.296875 38.296875 -115.90625 40.09375 -115.90625
C 40.5 -115.90625 41.296875 -115.90625 41.296875 -114.90625
z
" id="CMEX10-0"/>
      <path d="M 30.5 -56
C 30.5 -41.796875 28 -21.703125 14.90625 -4.796875
C 13.90625 -3.59375 7.40625 4 5.59375 4
C 5.09375 4 4.40625 3.796875 4.40625 3
C 4.40625 2.59375 4.59375 2.296875 5 2
C 9.796875 -3.203125 16.296875 -11.296875 20.40625 -27.203125
C 22.703125 -36.296875 23.59375 -46.59375 23.59375 -55.90625
C 23.59375 -66 22.703125 -76.203125 20.09375 -86
C 16.296875 -100 10.40625 -108 5.296875 -113.59375
C 4.40625 -114.5 4.40625 -114.703125 4.40625 -114.90625
C 4.40625 -115.703125 5.09375 -115.90625 5.59375 -115.90625
C 7.09375 -115.90625 12.59375 -109.796875 13.796875 -108.40625
C 24 -96.296875 30.5 -78.296875 30.5 -56
z
" id="CMEX10-1"/>
     </defs>
     <g transform="translate(451.335702 69.336234)scale(0.18 -0.18)">
      <use transform="scale(0.996264)" xlink:href="#CMR17-115"/>
      <use transform="translate(35.801338 0)scale(0.996264)" xlink:href="#CMR17-105"/>
      <use transform="translate(60.672396 0)scale(0.996264)" xlink:href="#CMR17-110"/>
      <use transform="translate(128.172171 80.698084)scale(0.996264)" xlink:href="#CMEX10-0"/>
      <use transform="translate(173.834525 0)scale(0.996264)" xlink:href="#CMMI12-120"/>
      <use transform="translate(229.268584 80.698084)scale(0.996264)" xlink:href="#CMEX10-1"/>
     </g>
    </g>
    <g id="line2d_17">
     <path d="M 411.735702 96.344249
L 447.735702 96.344249
" style="fill:none;stroke:#ff0000;stroke-linecap:square;stroke-width:2;"/>
    </g>
    <g id="line2d_18"/>
    <g id="text_11">
     <!-- $\sin \big( x - \tfrac{\pi}{4} \big)$ -->
     <defs>
      <path d="M 33.59375 64.40625
C 33.59375 66.5 33.5 66.5 31.703125 66.5
L 2 19.59375
L 2 17
L 27.796875 17
L 27.796875 7.140625
C 27.796875 3.5 27.59375 2.5 20.59375 2.5
L 18.703125 2.5
L 18.703125 0
C 21.90625 0 27.296875 0 30.703125 0
C 34.09375 0 39.5 0 42.703125 0
L 42.703125 2.5
L 40.796875 2.5
C 33.796875 2.5 33.59375 3.5 33.59375 7.140625
L 33.59375 17
L 43.796875 17
L 43.796875 19.59375
L 33.59375 19.59375
z
M 28.09375 57.859375
L 28.09375 19.59375
L 4 19.59375
z
" id="CMR17-52"/>
     </defs>
     <g transform="translate(451.335702 102.644249)scale(0.18 -0.18)">
      <use transform="translate(0 34.355253)scale(0.996264)" xlink:href="#CMR17-115"/>
      <use transform="translate(35.801338 34.355253)scale(0.996264)" xlink:href="#CMR17-105"/>
      <use transform="translate(60.672396 34.355253)scale(0.996264)" xlink:href="#CMR17-110"/>
      <use transform="translate(128.172171 115.053337)scale(0.996264)" xlink:href="#CMEX10-0"/>
      <use transform="translate(173.834525 34.355253)scale(0.996264)" xlink:href="#CMMI12-120"/>
      <use transform="translate(251.407791 34.355253)scale(0.996264)" xlink:href="#CMSY10-0"/>
      <use transform="translate(352.22998 73.581354)scale(0.697382)" xlink:href="#CMMI12-25"/>
      <use transform="translate(356.857007 0)scale(0.697382)" xlink:href="#CMR17-52"/>
      <use transform="translate(394.662715 115.053337)scale(0.996264)" xlink:href="#CMEX10-1"/>
      <path d="M 352.22998 57.269386
L 393.467201 57.269386
L 393.467201 61.254336
L 352.22998 61.254336
L 352.22998 57.269386
z
"/>
     </g>
    </g>
   </g>
  </g>
 </g>
 <defs>
  <clipPath id="p00ea17165f">
   <rect height="334.447156" width="483.44168" x="65.313132" y="37.8933"/>
  </clipPath>
 </defs>
</svg>
