<?xml version="1.0" encoding="utf-8" standalone="no"?>
<!DOCTYPE svg PUBLIC "-//W3C//DTD SVG 1.1//EN"
  "http://www.w3.org/Graphics/SVG/1.1/DTD/svg11.dtd">
<!-- Created with matplotlib (http://matplotlib.org/) -->
<svg height="432pt" version="1.1" viewBox="0 0 576 432" width="576pt" xmlns="http://www.w3.org/2000/svg" xmlns:xlink="http://www.w3.org/1999/xlink">
 <defs>
  <style type="text/css">
*{stroke-linecap:butt;stroke-linejoin:round;}
  </style>
 </defs>
 <g id="figure_1">
  <g id="patch_1">
   <path d="M 0 432
L 576 432
L 576 0
L 0 0
z
" style="fill:none;"/>
  </g>
  <g id="axes_1">
   <g id="patch_2">
    <path d="M 72.626436 372.340456
L 459.773287 372.340456
L 459.773287 22.94
L 72.626436 22.94
z
" style="fill:none;"/>
   </g>
   <g id="matplotlib.axis_1">
    <g id="xtick_1">
     <g id="line2d_1">
      <defs>
       <path d="M 0 0
L 0 3.5
" id="m580a4bb85b" style="stroke:#000000;stroke-width:0.8;"/>
      </defs>
      <g>
       <use style="stroke:#000000;stroke-width:0.8;" x="90.22402" xlink:href="#m580a4bb85b" y="372.340456"/>
      </g>
     </g>
     <g id="line2d_2">
      <defs>
       <path d="M 0 0
L 0 -3.5
" id="m92f5decac8" style="stroke:#000000;stroke-width:0.8;"/>
      </defs>
      <g>
       <use style="stroke:#000000;stroke-width:0.8;" x="90.22402" xlink:href="#m92f5decac8" y="22.94"/>
      </g>
     </g>
     <g id="text_1">
      <!-- $0$ -->
      <defs>
       <path d="M 42 31.640625
C 42 37.75 41.90625 48.125 37.703125 56.109375
C 34 63.109375 28.09375 65.59375 22.90625 65.59375
C 18.09375 65.59375 12 63.40625 8.203125 56.203125
C 4.203125 48.71875 3.796875 39.4375 3.796875 31.640625
C 3.796875 25.953125 3.90625 17.28125 7 9.671875
C 11.296875 -0.609375 19 -2 22.90625 -2
C 27.5 -2 34.5 -0.109375 38.59375 9.375
C 41.59375 16.28125 42 24.359375 42 31.640625
z
M 22.90625 -0.40625
C 16.5 -0.40625 12.703125 5.078125 11.296875 12.6875
C 10.203125 18.5625 10.203125 27.15625 10.203125 32.75
C 10.203125 40.4375 10.203125 46.828125 11.5 52.921875
C 13.40625 61.390625 19 64 22.90625 64
C 27 64 32.296875 61.296875 34.203125 53.125
C 35.5 47.4375 35.59375 40.734375 35.59375 32.75
C 35.59375 26.25 35.59375 18.265625 34.40625 12.375
C 32.296875 1.484375 26.40625 -0.40625 22.90625 -0.40625
z
" id="CMR17-48"/>
      </defs>
      <g transform="translate(86.567368 389.714046)scale(0.14994 -0.14994)">
       <use transform="scale(0.996264)" xlink:href="#CMR17-48"/>
      </g>
     </g>
    </g>
    <g id="xtick_2">
     <g id="line2d_3">
      <g>
       <use style="stroke:#000000;stroke-width:0.8;" x="160.614357" xlink:href="#m580a4bb85b" y="372.340456"/>
      </g>
     </g>
     <g id="line2d_4">
      <g>
       <use style="stroke:#000000;stroke-width:0.8;" x="160.614357" xlink:href="#m92f5decac8" y="22.94"/>
      </g>
     </g>
     <g id="text_2">
      <!-- $1$ -->
      <defs>
       <path d="M 26.59375 63.40625
C 26.59375 65.5 26.5 65.5 25.09375 65.5
C 21.203125 61.1875 15.296875 59.796875 9.703125 59.796875
C 9.40625 59.796875 8.90625 59.796875 8.796875 59.5
C 8.703125 59.296875 8.703125 59.09375 8.703125 57
C 11.796875 57 17 57.59375 21 59.984375
L 21 7.203125
C 21 3.6875 20.796875 2.5 12.203125 2.5
L 9.203125 2.5
L 9.203125 0
C 14 0 19 0 23.796875 0
C 28.59375 0 33.59375 0 38.40625 0
L 38.40625 2.5
L 35.40625 2.5
C 26.796875 2.5 26.59375 3.59375 26.59375 7.15625
z
" id="CMR17-49"/>
      </defs>
      <g transform="translate(156.957705 389.714046)scale(0.14994 -0.14994)">
       <use transform="scale(0.996264)" xlink:href="#CMR17-49"/>
      </g>
     </g>
    </g>
    <g id="xtick_3">
     <g id="line2d_5">
      <g>
       <use style="stroke:#000000;stroke-width:0.8;" x="231.004693" xlink:href="#m580a4bb85b" y="372.340456"/>
      </g>
     </g>
     <g id="line2d_6">
      <g>
       <use style="stroke:#000000;stroke-width:0.8;" x="231.004693" xlink:href="#m92f5decac8" y="22.94"/>
      </g>
     </g>
     <g id="text_3">
      <!-- $2$ -->
      <defs>
       <path d="M 41.703125 15.453125
L 39.90625 15.453125
C 38.90625 8.375 38.09375 7.171875 37.703125 6.5625
C 37.203125 5.765625 30 5.765625 28.59375 5.765625
L 9.40625 5.765625
C 13 9.671875 20 16.75 28.5 24.953125
C 34.59375 30.734375 41.703125 37.53125 41.703125 47.421875
C 41.703125 59.21875 32.296875 66 21.796875 66
C 10.796875 66 4.09375 56.3125 4.09375 47.34375
C 4.09375 43.4375 7 42.9375 8.203125 42.9375
C 9.203125 42.9375 12.203125 43.546875 12.203125 47.03125
C 12.203125 50.109375 9.59375 51 8.203125 51
C 7.59375 51 7 50.90625 6.59375 50.703125
C 8.5 59.21875 14.296875 63.40625 20.40625 63.40625
C 29.09375 63.40625 34.796875 56.515625 34.796875 47.421875
C 34.796875 38.734375 29.703125 31.25 24 24.75
L 4.09375 2.28125
L 4.09375 0
L 39.296875 0
z
" id="CMR17-50"/>
      </defs>
      <g transform="translate(227.348041 389.714046)scale(0.14994 -0.14994)">
       <use transform="scale(0.996264)" xlink:href="#CMR17-50"/>
      </g>
     </g>
    </g>
    <g id="xtick_4">
     <g id="line2d_7">
      <g>
       <use style="stroke:#000000;stroke-width:0.8;" x="301.39503" xlink:href="#m580a4bb85b" y="372.340456"/>
      </g>
     </g>
     <g id="line2d_8">
      <g>
       <use style="stroke:#000000;stroke-width:0.8;" x="301.39503" xlink:href="#m92f5decac8" y="22.94"/>
      </g>
     </g>
     <g id="text_4">
      <!-- $3$ -->
      <defs>
       <path d="M 22.09375 33.703125
C 31 33.703125 34.90625 25.96875 34.90625 17.03125
C 34.90625 5 28.5 0.390625 22.703125 0.390625
C 17.40625 0.390625 8.796875 3.03125 6.09375 10.828125
C 6.59375 10.625 7.09375 10.625 7.59375 10.625
C 10 10.625 11.796875 12.21875 11.796875 14.8125
C 11.796875 17.703125 9.59375 19 7.59375 19
C 5.90625 19 3.296875 18.203125 3.296875 14.46875
C 3.296875 5.234375 12.296875 -2 22.90625 -2
C 34 -2 42.5 6.71875 42.5 16.953125
C 42.5 26.671875 34.5 33.703125 25 34.796875
C 32.59375 36.375 39.90625 43.0625 39.90625 52.015625
C 39.90625 59.6875 32 65.296875 23 65.296875
C 13.90625 65.296875 5.90625 59.828125 5.90625 52.015625
C 5.90625 48.59375 8.5 48 9.796875 48
C 11.90625 48 13.703125 49.296875 13.703125 51.890625
C 13.703125 54.46875 11.90625 55.765625 9.796875 55.765625
C 9.40625 55.765625 8.90625 55.765625 8.5 55.578125
C 11.40625 61.859375 19.296875 63 22.796875 63
C 26.296875 63 32.90625 61.328125 32.90625 51.875
C 32.90625 49.109375 32.5 44.1875 29.09375 39.84375
C 26.09375 36 22.703125 36 19.40625 35.6875
C 18.90625 35.6875 16.59375 35.453125 16.203125 35.453125
C 15.5 35.359375 15.09375 35.265625 15.09375 34.5
C 15.09375 33.796875 15.203125 33.703125 17.203125 33.703125
z
" id="CMR17-51"/>
      </defs>
      <g transform="translate(297.738378 389.714046)scale(0.14994 -0.14994)">
       <use transform="scale(0.996264)" xlink:href="#CMR17-51"/>
      </g>
     </g>
    </g>
    <g id="xtick_5">
     <g id="line2d_9">
      <g>
       <use style="stroke:#000000;stroke-width:0.8;" x="371.785366" xlink:href="#m580a4bb85b" y="372.340456"/>
      </g>
     </g>
     <g id="line2d_10">
      <g>
       <use style="stroke:#000000;stroke-width:0.8;" x="371.785366" xlink:href="#m92f5decac8" y="22.94"/>
      </g>
     </g>
     <g id="text_5">
      <!-- $4$ -->
      <defs>
       <path d="M 33.59375 64.40625
C 33.59375 66.5 33.5 66.5 31.703125 66.5
L 2 19.59375
L 2 17
L 27.796875 17
L 27.796875 7.140625
C 27.796875 3.5 27.59375 2.5 20.59375 2.5
L 18.703125 2.5
L 18.703125 0
C 21.90625 0 27.296875 0 30.703125 0
C 34.09375 0 39.5 0 42.703125 0
L 42.703125 2.5
L 40.796875 2.5
C 33.796875 2.5 33.59375 3.5 33.59375 7.140625
L 33.59375 17
L 43.796875 17
L 43.796875 19.59375
L 33.59375 19.59375
z
M 28.09375 57.859375
L 28.09375 19.59375
L 4 19.59375
z
" id="CMR17-52"/>
      </defs>
      <g transform="translate(368.128714 389.714046)scale(0.14994 -0.14994)">
       <use transform="scale(0.996264)" xlink:href="#CMR17-52"/>
      </g>
     </g>
    </g>
    <g id="xtick_6">
     <g id="line2d_11">
      <g>
       <use style="stroke:#000000;stroke-width:0.8;" x="442.175703" xlink:href="#m580a4bb85b" y="372.340456"/>
      </g>
     </g>
     <g id="line2d_12">
      <g>
       <use style="stroke:#000000;stroke-width:0.8;" x="442.175703" xlink:href="#m92f5decac8" y="22.94"/>
      </g>
     </g>
     <g id="text_6">
      <!-- $5$ -->
      <defs>
       <path d="M 11.40625 57.6875
C 12.40625 57.28125 16.5 56 20.703125 56
C 30 56 35.09375 61.109375 38 64.0625
C 38 64.953125 38 65.5 37.40625 65.5
C 37.296875 65.5 37.09375 65.5 36.296875 65.046875
C 32.796875 63.40625 28.703125 62.078125 23.703125 62.078125
C 20.703125 62.078125 16.203125 62.484375 11.296875 64.671875
C 10.203125 65.171875 10 65.171875 9.90625 65.171875
C 9.40625 65.171875 9.296875 65.0625 9.296875 63.078125
L 9.296875 34.421875
C 9.296875 32.640625 9.296875 32.140625 10.296875 32.140625
C 10.796875 32.140625 11 32.34375 11.5 33.03125
C 14.703125 37.515625 19.09375 39.40625 24.09375 39.40625
C 27.59375 39.40625 35.09375 37.21875 35.09375 20.140625
C 35.09375 16.953125 35.09375 11.171875 32.09375 6.578125
C 29.59375 2.484375 25.703125 0.390625 21.40625 0.390625
C 14.796875 0.390625 8.09375 5 6.296875 12.71875
C 6.703125 12.609375 7.5 12.421875 7.90625 12.421875
C 9.203125 12.421875 11.703125 13.125 11.703125 16.21875
C 11.703125 18.90625 9.796875 20 7.90625 20
C 5.59375 20 4.09375 18.59375 4.09375 15.796875
C 4.09375 7.09375 11 -2 21.59375 -2
C 31.90625 -2 41.703125 6.875 41.703125 19.75
C 41.703125 31.71875 33.90625 41 24.203125 41
C 19.09375 41 14.796875 39.109375 11.40625 35.53125
z
" id="CMR17-53"/>
      </defs>
      <g transform="translate(438.519051 389.714046)scale(0.14994 -0.14994)">
       <use transform="scale(0.996264)" xlink:href="#CMR17-53"/>
      </g>
     </g>
    </g>
    <g id="text_7">
     <!-- $x$ -->
     <defs>
      <path d="M 47.40625 40.71875
C 44.203125 40.109375 43 37.71875 43 35.828125
C 43 33.421875 44.90625 32.625 46.296875 32.625
C 49.296875 32.625 51.40625 35.21875 51.40625 37.921875
C 51.40625 42.109375 46.59375 44 42.40625 44
C 36.296875 44 32.90625 38.015625 32 36.125
C 29.703125 44 23.5 44 21.703125 44
C 11.5 44 6.09375 30.9375 6.09375 28.734375
C 6.09375 28.34375 6.5 27.84375 7.203125 27.84375
C 8 27.84375 8.203125 28.4375 8.40625 28.84375
C 11.796875 39.921875 18.5 42.015625 21.40625 42.015625
C 25.90625 42.015625 26.796875 37.8125 26.796875 35.421875
C 26.796875 33.234375 26.203125 30.9375 25 26.140625
L 21.59375 12.46875
C 20.09375 6.484375 17.203125 1 11.90625 1
C 11.40625 1 8.90625 1 6.796875 2.296875
C 10.40625 3 11.203125 5.984375 11.203125 7.1875
C 11.203125 9.1875 9.703125 10.375 7.796875 10.375
C 5.40625 10.375 2.796875 8.28125 2.796875 5.09375
C 2.796875 0.890625 7.5 -1 11.796875 -1
C 16.59375 -1 20 2.796875 22.09375 6.890625
C 23.703125 1 28.703125 -1 32.40625 -1
C 42.59375 -1 48 12.078125 48 14.265625
C 48 14.765625 47.59375 15.171875 47 15.171875
C 46.09375 15.171875 46 14.671875 45.703125 13.875
C 43 5.09375 37.203125 1 32.703125 1
C 29.203125 1 27.296875 3.59375 27.296875 7.6875
C 27.296875 9.875 27.703125 11.46875 29.296875 18.0625
L 32.796875 31.625
C 34.296875 37.625 37.703125 42.015625 42.296875 42.015625
C 42.5 42.015625 45.296875 42.015625 47.40625 40.71875
z
" id="CMMI12-120"/>
     </defs>
     <g transform="translate(261.210796 409.071936)scale(0.18 -0.18)">
      <use transform="scale(0.996264)" xlink:href="#CMMI12-120"/>
     </g>
    </g>
   </g>
   <g id="matplotlib.axis_2">
    <g id="ytick_1">
     <g id="line2d_13">
      <defs>
       <path d="M 0 0
L -3.5 0
" id="m11afcc15ce" style="stroke:#000000;stroke-width:0.8;"/>
      </defs>
      <g>
       <use style="stroke:#000000;stroke-width:0.8;" x="72.626436" xlink:href="#m11afcc15ce" y="368.142375"/>
      </g>
     </g>
     <g id="line2d_14">
      <defs>
       <path d="M 0 0
L 3.5 0
" id="m76e4aed56e" style="stroke:#000000;stroke-width:0.8;"/>
      </defs>
      <g>
       <use style="stroke:#000000;stroke-width:0.8;" x="459.773287" xlink:href="#m76e4aed56e" y="368.142375"/>
      </g>
     </g>
     <g id="text_8">
      <!-- $-25$ -->
      <defs>
       <path d="M 65.90625 23
C 67.59375 23 69.40625 23 69.40625 25
C 69.40625 27 67.59375 27 65.90625 27
L 11.796875 27
C 10.09375 27 8.296875 27 8.296875 25
C 8.296875 23 10.09375 23 11.796875 23
z
" id="CMSY10-0"/>
      </defs>
      <g transform="translate(39.381364 373.32917)scale(0.14994 -0.14994)">
       <use transform="scale(0.996264)" xlink:href="#CMSY10-0"/>
       <use transform="translate(77.487468 0)scale(0.996264)" xlink:href="#CMR17-50"/>
       <use transform="translate(123.177945 0)scale(0.996264)" xlink:href="#CMR17-53"/>
      </g>
     </g>
    </g>
    <g id="ytick_2">
     <g id="line2d_15">
      <g>
       <use style="stroke:#000000;stroke-width:0.8;" x="72.626436" xlink:href="#m11afcc15ce" y="311.253507"/>
      </g>
     </g>
     <g id="line2d_16">
      <g>
       <use style="stroke:#000000;stroke-width:0.8;" x="459.773287" xlink:href="#m76e4aed56e" y="311.253507"/>
      </g>
     </g>
     <g id="text_9">
      <!-- $-20$ -->
      <g transform="translate(39.381364 316.440302)scale(0.14994 -0.14994)">
       <use transform="scale(0.996264)" xlink:href="#CMSY10-0"/>
       <use transform="translate(77.487468 0)scale(0.996264)" xlink:href="#CMR17-50"/>
       <use transform="translate(123.177945 0)scale(0.996264)" xlink:href="#CMR17-48"/>
      </g>
     </g>
    </g>
    <g id="ytick_3">
     <g id="line2d_17">
      <g>
       <use style="stroke:#000000;stroke-width:0.8;" x="72.626436" xlink:href="#m11afcc15ce" y="254.364639"/>
      </g>
     </g>
     <g id="line2d_18">
      <g>
       <use style="stroke:#000000;stroke-width:0.8;" x="459.773287" xlink:href="#m76e4aed56e" y="254.364639"/>
      </g>
     </g>
     <g id="text_10">
      <!-- $-15$ -->
      <g transform="translate(39.381364 259.551434)scale(0.14994 -0.14994)">
       <use transform="scale(0.996264)" xlink:href="#CMSY10-0"/>
       <use transform="translate(77.487468 0)scale(0.996264)" xlink:href="#CMR17-49"/>
       <use transform="translate(123.177945 0)scale(0.996264)" xlink:href="#CMR17-53"/>
      </g>
     </g>
    </g>
    <g id="ytick_4">
     <g id="line2d_19">
      <g>
       <use style="stroke:#000000;stroke-width:0.8;" x="72.626436" xlink:href="#m11afcc15ce" y="197.475771"/>
      </g>
     </g>
     <g id="line2d_20">
      <g>
       <use style="stroke:#000000;stroke-width:0.8;" x="459.773287" xlink:href="#m76e4aed56e" y="197.475771"/>
      </g>
     </g>
     <g id="text_11">
      <!-- $-10$ -->
      <g transform="translate(39.381364 202.662566)scale(0.14994 -0.14994)">
       <use transform="scale(0.996264)" xlink:href="#CMSY10-0"/>
       <use transform="translate(77.487468 0)scale(0.996264)" xlink:href="#CMR17-49"/>
       <use transform="translate(123.177945 0)scale(0.996264)" xlink:href="#CMR17-48"/>
      </g>
     </g>
    </g>
    <g id="ytick_5">
     <g id="line2d_21">
      <g>
       <use style="stroke:#000000;stroke-width:0.8;" x="72.626436" xlink:href="#m11afcc15ce" y="140.586903"/>
      </g>
     </g>
     <g id="line2d_22">
      <g>
       <use style="stroke:#000000;stroke-width:0.8;" x="459.773287" xlink:href="#m76e4aed56e" y="140.586903"/>
      </g>
     </g>
     <g id="text_12">
      <!-- $-5$ -->
      <g transform="translate(46.694668 145.773698)scale(0.14994 -0.14994)">
       <use transform="scale(0.996264)" xlink:href="#CMSY10-0"/>
       <use transform="translate(77.487468 0)scale(0.996264)" xlink:href="#CMR17-53"/>
      </g>
     </g>
    </g>
    <g id="ytick_6">
     <g id="line2d_23">
      <g>
       <use style="stroke:#000000;stroke-width:0.8;" x="72.626436" xlink:href="#m11afcc15ce" y="83.698035"/>
      </g>
     </g>
     <g id="line2d_24">
      <g>
       <use style="stroke:#000000;stroke-width:0.8;" x="459.773287" xlink:href="#m76e4aed56e" y="83.698035"/>
      </g>
     </g>
     <g id="text_13">
      <!-- $0$ -->
      <g transform="translate(58.313132 88.88483)scale(0.14994 -0.14994)">
       <use transform="scale(0.996264)" xlink:href="#CMR17-48"/>
      </g>
     </g>
    </g>
    <g id="ytick_7">
     <g id="line2d_25">
      <g>
       <use style="stroke:#000000;stroke-width:0.8;" x="72.626436" xlink:href="#m11afcc15ce" y="26.809168"/>
      </g>
     </g>
     <g id="line2d_26">
      <g>
       <use style="stroke:#000000;stroke-width:0.8;" x="459.773287" xlink:href="#m76e4aed56e" y="26.809168"/>
      </g>
     </g>
     <g id="text_14">
      <!-- $5$ -->
      <g transform="translate(58.313132 31.995962)scale(0.14994 -0.14994)">
       <use transform="scale(0.996264)" xlink:href="#CMR17-53"/>
      </g>
     </g>
    </g>
    <g id="text_15">
     <!-- $y$ -->
     <defs>
      <path d="M 26.296875 -10.9375
C 23.59375 -14.671875 19.703125 -18 14.796875 -18
C 13.59375 -18 8.796875 -18 7.296875 -13.890625
C 7.59375 -13.984375 8.09375 -13.984375 8.296875 -13.984375
C 11.296875 -13.984375 13.296875 -11.390625 13.296875 -9.09375
C 13.296875 -6.796875 11.40625 -6 9.90625 -6
C 8.296875 -6 4.796875 -7.15625 4.796875 -11.859375
C 4.796875 -16.734375 9.09375 -20.09375 14.796875 -20.09375
C 24.796875 -20.09375 34.90625 -10.9375 37.703125 0.09375
L 47.5 38.828125
C 47.59375 39.328125 47.796875 39.9375 47.796875 40.53125
C 47.796875 42.015625 46.59375 43.015625 45.09375 43.015625
C 44.203125 43.015625 42.09375 42.609375 41.296875 39.609375
L 33.90625 10.28125
C 33.40625 8.484375 33.40625 8.28125 32.59375 7.1875
C 30.59375 4.390625 27.296875 1 22.5 1
C 16.90625 1 16.40625 6.484375 16.40625 9.1875
C 16.40625 14.875 19.09375 22.546875 21.796875 29.734375
C 22.90625 32.625 23.5 34.03125 23.5 36.015625
C 23.5 40.21875 20.5 44 15.59375 44
C 6.40625 44 2.703125 29.53125 2.703125 28.734375
C 2.703125 28.34375 3.09375 27.84375 3.796875 27.84375
C 4.703125 27.84375 4.796875 28.234375 5.203125 29.640625
C 7.59375 38.015625 11.40625 42.015625 15.296875 42.015625
C 16.203125 42.015625 17.90625 42.015625 17.90625 38.71875
C 17.90625 36.125 16.796875 33.234375 15.296875 29.4375
C 10.40625 16.359375 10.40625 13.078125 10.40625 10.671875
C 10.40625 1.203125 17.203125 -1 22.203125 -1
C 25.09375 -1 28.703125 -0.09375 32.203125 3.59375
L 32.296875 3.5
C 30.796875 -2.296875 29.796875 -6.125 26.296875 -10.9375
z
" id="CMMI12-121"/>
     </defs>
     <g transform="translate(31.8933 201.921005)rotate(-90)scale(0.18 -0.18)">
      <use transform="scale(0.996264)" xlink:href="#CMMI12-121"/>
     </g>
    </g>
   </g>
   <g id="line2d_27">
    <path clip-path="url(#p71e4492aa8)" d="M 90.22402 83.698035
L 93.779088 83.123645
L 97.334155 82.550719
L 100.889223 81.980719
L 104.44429 81.415098
L 107.999358 80.8553
L 111.554425 80.302751
L 115.109493 79.758861
L 118.66456 79.225016
L 122.219628 78.702579
L 125.774695 78.192881
L 129.329763 77.697223
L 132.88483 77.216868
L 136.439898 76.753041
L 139.994965 76.306925
L 143.550033 75.879659
L 147.1051 75.472331
L 150.660168 75.085981
L 154.215235 74.721593
L 157.770303 74.380097
L 161.32537 74.062363
L 164.880438 73.769203
L 168.435505 73.501363
L 171.990573 73.259528
L 175.54564 73.044312
L 179.100708 72.856266
L 182.655775 72.695869
L 186.210843 72.56353
L 189.76591 72.459586
L 193.320978 72.384303
L 196.876045 72.337872
L 200.431113 72.320412
L 203.98618 72.331968
L 207.541248 72.372509
L 211.096315 72.441933
L 214.651383 72.540063
L 218.20645 72.666647
L 221.761518 72.821365
L 225.316585 73.00382
L 228.871653 73.213547
L 232.42672 73.450013
L 235.981788 73.712613
L 239.536855 74.000678
L 243.091923 74.313474
L 246.64699 74.650202
L 250.202058 75.010004
L 253.757125 75.391962
L 257.312193 75.795103
L 260.86726 76.218398
L 264.422328 76.660768
L 267.977395 77.121084
L 271.532463 77.598173
L 275.08753 78.090818
L 278.642598 78.597762
L 282.197665 79.117714
L 285.752733 79.649346
L 289.3078 80.191303
L 292.862868 80.742203
L 296.417935 81.300641
L 299.973003 81.865193
L 303.52807 82.434419
L 307.083138 83.006868
L 310.638205 83.581079
L 314.193273 84.155589
L 317.74834 84.728932
L 321.303408 85.299645
L 324.858475 85.866275
L 328.413543 86.427374
L 331.96861 86.981514
L 335.523678 87.527279
L 339.078745 88.06328
L 342.633813 88.588148
L 346.18888 89.100545
L 349.743948 89.599165
L 353.299015 90.082735
L 356.854083 90.550023
L 360.40915 90.999837
L 363.964218 91.43103
L 367.519285 91.842502
L 371.074353 92.233204
L 374.62942 92.602139
L 378.184488 92.948367
L 381.739555 93.271004
L 385.294623 93.569229
L 388.84969 93.842279
L 392.404758 94.08946
L 395.959825 94.31014
L 399.514893 94.503757
L 403.06996 94.669817
L 406.625028 94.807897
L 410.180095 94.917644
L 413.735163 94.998779
L 417.29023 95.051094
L 420.845298 95.074457
L 424.400365 95.068807
L 427.955433 95.034159
L 431.510501 94.970602
L 435.065568 94.878297
L 438.620636 94.75748
L 442.175703 94.608459
" style="fill:none;stroke:#000080;stroke-linecap:square;stroke-width:2;"/>
   </g>
   <g id="line2d_28">
    <path clip-path="url(#p71e4492aa8)" d="M 90.22402 83.698035
L 93.779088 83.271907
L 97.334155 82.785773
L 100.889223 82.276047
L 104.44429 81.752525
L 107.999358 81.220802
L 111.554425 80.684857
L 115.109493 80.14787
L 118.66456 79.612554
L 122.219628 79.081322
L 125.774695 78.55638
L 129.329763 78.039776
L 132.88483 77.533436
L 136.439898 77.039178
L 139.994965 76.55873
L 143.550033 76.093736
L 147.1051 75.645761
L 150.660168 75.216291
L 154.215235 74.806741
L 157.770303 74.418447
L 161.32537 74.052674
L 164.880438 73.710609
L 168.435505 73.393363
L 171.990573 73.101969
L 175.54564 72.837381
L 179.100708 72.600472
L 182.655775 72.392034
L 186.210843 72.212777
L 189.76591 72.063322
L 193.320978 71.944211
L 196.876045 71.855896
L 200.431113 71.798741
L 203.98618 71.773026
L 207.541248 71.778941
L 211.096315 71.816586
L 214.651383 71.885977
L 218.20645 71.987038
L 221.761518 72.119606
L 225.316585 72.283433
L 228.871653 72.478182
L 232.42672 72.703432
L 235.981788 72.958678
L 239.536855 73.24333
L 243.091923 73.556719
L 246.64699 73.898097
L 250.202058 74.266636
L 253.757125 74.661436
L 257.312193 75.081523
L 260.86726 75.525851
L 264.422328 75.99331
L 267.977395 76.482723
L 271.532463 76.992854
L 275.08753 77.522406
L 278.642598 78.07003
L 282.197665 78.634325
L 285.752733 79.213843
L 289.3078 79.807092
L 292.862868 80.412541
L 296.417935 81.028623
L 299.973003 81.65374
L 303.52807 82.286266
L 307.083138 82.924554
L 310.638205 83.566938
L 314.193273 84.211735
L 317.74834 84.857257
L 321.303408 85.501807
L 324.858475 86.14369
L 328.413543 86.781212
L 331.96861 87.412691
L 335.523678 88.036454
L 339.078745 88.650847
L 342.633813 89.254239
L 346.18888 89.845022
L 349.743948 90.42162
L 353.299015 90.982491
L 356.854083 91.526132
L 360.40915 92.051081
L 363.964218 92.555925
L 367.519285 93.039298
L 371.074353 93.49989
L 374.62942 93.936449
L 378.184488 94.347782
L 381.739555 94.73276
L 385.294623 95.090323
L 388.84969 95.419479
L 392.404758 95.719308
L 395.959825 95.988968
L 399.514893 96.227693
L 403.06996 96.434794
L 406.625028 96.609667
L 410.180095 96.75179
L 413.735163 96.860725
L 417.29023 96.93612
L 420.845298 96.97771
L 424.400365 96.985319
L 427.955433 96.958856
L 431.510501 96.898323
L 435.065568 96.803807
L 438.620636 96.675486
L 442.175703 96.513625
" style="fill:none;stroke:#0000b9;stroke-linecap:square;stroke-width:2;"/>
   </g>
   <g id="line2d_29">
    <path clip-path="url(#p71e4492aa8)" d="M 90.22402 83.698035
L 93.779088 83.381899
L 97.334155 82.972671
L 100.889223 82.520588
L 104.44429 82.04008
L 107.999358 81.53931
L 111.554425 81.023962
L 115.109493 80.498464
L 118.66456 79.966516
L 122.219628 79.43135
L 125.774695 78.895877
L 129.329763 78.362776
L 132.88483 77.834541
L 136.439898 77.313526
L 139.994965 76.801956
L 143.550033 76.301952
L 147.1051 75.815534
L 150.660168 75.34463
L 154.215235 74.891081
L 157.770303 74.45664
L 161.32537 74.042975
L 164.880438 73.651669
L 168.435505 73.284218
L 171.990573 72.942032
L 175.54564 72.62643
L 179.100708 72.338643
L 182.655775 72.079809
L 186.210843 71.850974
L 189.76591 71.653087
L 193.320978 71.487001
L 196.876045 71.35347
L 200.431113 71.253151
L 203.98618 71.186598
L 207.541248 71.154264
L 211.096315 71.156498
L 214.651383 71.193549
L 218.20645 71.26556
L 221.761518 71.372571
L 225.316585 71.51452
L 228.871653 71.69124
L 232.42672 71.902463
L 235.981788 72.147817
L 239.536855 72.426834
L 243.091923 72.738941
L 246.64699 73.083473
L 250.202058 73.459665
L 253.757125 73.86666
L 257.312193 74.303511
L 260.86726 74.769181
L 264.422328 75.262547
L 267.977395 75.782403
L 271.532463 76.327466
L 275.08753 76.896374
L 278.642598 77.487693
L 282.197665 78.099922
L 285.752733 78.731495
L 289.3078 79.380785
L 292.862868 80.046112
L 296.417935 80.72574
L 299.973003 81.417891
L 303.52807 82.120743
L 307.083138 82.832438
L 310.638205 83.551086
L 314.193273 84.274771
L 317.74834 85.001556
L 321.303408 85.729487
L 324.858475 86.456599
L 328.413543 87.180922
L 331.96861 87.900489
L 335.523678 88.613333
L 339.078745 89.317502
L 342.633813 90.01106
L 346.18888 90.69209
L 349.743948 91.358704
L 353.299015 92.009045
L 356.854083 92.641294
L 360.40915 93.253674
L 363.964218 93.844455
L 367.519285 94.411958
L 371.074353 94.954564
L 374.62942 95.47071
L 378.184488 95.958904
L 381.739555 96.417721
L 385.294623 96.845809
L 388.84969 97.241897
L 392.404758 97.604791
L 395.959825 97.933386
L 399.514893 98.226663
L 403.06996 98.483694
L 406.625028 98.703644
L 410.180095 98.885776
L 413.735163 99.029451
L 417.29023 99.134129
L 420.845298 99.199374
L 424.400365 99.224853
L 427.955433 99.210337
L 431.510501 99.155704
L 435.065568 99.060937
L 438.620636 98.926127
L 442.175703 98.75147
" style="fill:none;stroke:#0000f3;stroke-linecap:square;stroke-width:2;"/>
   </g>
   <g id="line2d_30">
    <path clip-path="url(#p71e4492aa8)" d="M 90.22402 83.698035
L 93.779088 83.4635
L 97.334155 83.121279
L 100.889223 82.723074
L 104.44429 82.285132
L 107.999358 81.816866
L 111.554425 81.324903
L 115.109493 80.814435
L 118.66456 80.289811
L 122.219628 79.754839
L 125.774695 79.212958
L 129.329763 78.667336
L 132.88483 78.12094
L 136.439898 77.576571
L 139.994965 77.036896
L 143.550033 76.504467
L 147.1051 75.981728
L 150.660168 75.471028
L 154.215235 74.974622
L 157.770303 74.494676
L 161.32537 74.033267
L 164.880438 73.592382
L 168.435505 73.173918
L 171.990573 72.77968
L 175.54564 72.411381
L 179.100708 72.070636
L 182.655775 71.758961
L 186.210843 71.477774
L 189.76591 71.228386
L 193.320978 71.012005
L 196.876045 70.829729
L 200.431113 70.682546
L 203.98618 70.571332
L 207.541248 70.496847
L 211.096315 70.459737
L 214.651383 70.46053
L 218.20645 70.499633
L 221.761518 70.577337
L 225.316585 70.693811
L 228.871653 70.849103
L 232.42672 71.043141
L 235.981788 71.275735
L 239.536855 71.546571
L 243.091923 71.855219
L 246.64699 72.201133
L 250.202058 72.583646
L 253.757125 73.001982
L 257.312193 73.45525
L 260.86726 73.94245
L 264.422328 74.462473
L 267.977395 75.01411
L 271.532463 75.596048
L 275.08753 76.206879
L 278.642598 76.8451
L 282.197665 77.50912
L 285.752733 78.197262
L 289.3078 78.907771
L 292.862868 79.638815
L 296.417935 80.388491
L 299.973003 81.154832
L 303.52807 81.935812
L 307.083138 82.72935
L 310.638205 83.533318
L 314.193273 84.345543
L 317.74834 85.163817
L 321.303408 85.985905
L 324.858475 86.809543
L 328.413543 87.632452
L 331.96861 88.452343
L 335.523678 89.26692
L 339.078745 90.07389
L 342.633813 90.870969
L 346.18888 91.655885
L 349.743948 92.426391
L 353.299015 93.180264
L 356.854083 93.915318
L 360.40915 94.629404
L 363.964218 95.320423
L 367.519285 95.986326
L 371.074353 96.625122
L 374.62942 97.234886
L 378.184488 97.813762
L 381.739555 98.359969
L 385.294623 98.871806
L 388.84969 99.347659
L 392.404758 99.786004
L 395.959825 100.18541
L 399.514893 100.544548
L 403.06996 100.86219
L 406.625028 101.137217
L 410.180095 101.368619
L 413.735163 101.555503
L 417.29023 101.697089
L 420.845298 101.792719
L 424.400365 101.841855
L 427.955433 101.844085
L 431.510501 101.79912
L 435.065568 101.7068
L 438.620636 101.56709
L 442.175703 101.380085
" style="fill:none;stroke:#001aff;stroke-linecap:square;stroke-width:2;"/>
   </g>
   <g id="line2d_31">
    <path clip-path="url(#p71e4492aa8)" d="M 90.22402 83.698035
L 93.779088 83.524039
L 97.334155 83.239441
L 100.889223 82.890739
L 104.44429 82.493965
L 107.999358 82.058736
L 111.554425 81.591976
L 115.109493 81.099202
L 118.66456 80.585096
L 122.219628 80.053803
L 125.774695 79.509102
L 129.329763 78.954512
L 132.88483 78.393349
L 136.439898 77.828778
L 139.994965 77.263832
L 143.550033 76.701436
L 147.1051 76.144418
L 150.660168 75.595512
L 154.215235 75.05737
L 157.770303 74.532555
L 161.32537 74.023549
L 164.880438 73.532744
L 168.435505 73.062449
L 171.990573 72.614879
L 175.54564 72.192156
L 179.100708 71.796306
L 182.655775 71.429253
L 186.210843 71.092817
L 189.76591 70.788711
L 193.320978 70.518533
L 196.876045 70.283767
L 200.431113 70.085778
L 203.98618 69.925809
L 207.541248 69.804976
L 211.096315 69.724268
L 214.651383 69.684541
L 218.20645 69.686521
L 221.761518 69.730795
L 225.316585 69.817817
L 228.871653 69.947899
L 232.42672 70.121217
L 235.981788 70.337806
L 239.536855 70.59756
L 243.091923 70.900236
L 246.64699 71.245448
L 250.202058 71.632674
L 253.757125 72.061256
L 257.312193 72.530397
L 260.86726 73.03917
L 264.422328 73.586516
L 267.977395 74.171246
L 271.532463 74.792049
L 275.08753 75.44749
L 278.642598 76.136018
L 282.197665 76.855967
L 285.752733 77.605564
L 289.3078 78.382931
L 292.862868 79.186092
L 296.417935 80.012975
L 299.973003 80.861424
L 303.52807 81.7292
L 307.083138 82.613986
L 310.638205 83.513401
L 314.193273 84.424998
L 317.74834 85.346277
L 321.303408 86.274689
L 324.858475 87.207644
L 328.413543 88.142519
L 331.96861 89.076665
L 335.523678 90.007414
L 339.078745 90.932089
L 342.633813 91.848007
L 346.18888 92.752494
L 349.743948 93.642884
L 353.299015 94.516536
L 356.854083 95.370834
L 360.40915 96.203199
L 363.964218 97.011096
L 367.519285 97.79204
L 371.074353 98.543604
L 374.62942 99.263429
L 378.184488 99.949227
L 381.739555 100.598791
L 385.294623 101.209998
L 388.84969 101.78082
L 392.404758 102.30933
L 395.959825 102.793702
L 399.514893 103.232225
L 403.06996 103.623303
L 406.625028 103.96546
L 410.180095 104.25735
L 413.735163 104.497755
L 417.29023 104.685595
L 420.845298 104.819925
L 424.400365 104.899945
L 427.955433 104.925002
L 431.510501 104.894587
L 435.065568 104.808343
L 438.620636 104.666067
L 442.175703 104.467706
" style="fill:none;stroke:#004cff;stroke-linecap:square;stroke-width:2;"/>
   </g>
   <g id="line2d_32">
    <path clip-path="url(#p71e4492aa8)" d="M 90.22402 83.698035
L 93.779088 83.568951
L 97.334155 83.333394
L 100.889223 83.029571
L 104.44429 82.671931
L 107.999358 82.269507
L 111.554425 81.828993
L 115.109493 81.355848
L 118.66456 80.854798
L 122.219628 80.330099
L 125.774695 79.785693
L 129.329763 79.225294
L 132.88483 78.652453
L 136.439898 78.070594
L 139.994965 77.483036
L 143.550033 76.893012
L 147.1051 76.303677
L 150.660168 75.718113
L 154.215235 75.139333
L 157.770303 74.570279
L 161.32537 74.013821
L 164.880438 73.472755
L 168.435505 72.949799
L 171.990573 72.447589
L 175.54564 71.968672
L 179.100708 71.515503
L 182.655775 71.09044
L 186.210843 70.695734
L 189.76591 70.333533
L 193.320978 70.005865
L 196.876045 69.714641
L 200.431113 69.461648
L 203.98618 69.248542
L 207.541248 69.076844
L 211.096315 68.947938
L 214.651383 68.863064
L 218.20645 68.823315
L 221.761518 68.829635
L 225.316585 68.882814
L 228.871653 68.983487
L 232.42672 69.13213
L 235.981788 69.329061
L 239.536855 69.574434
L 243.091923 69.868244
L 246.64699 70.210321
L 250.202058 70.600335
L 253.757125 71.037792
L 257.312193 71.522037
L 260.86726 72.052256
L 264.422328 72.627477
L 267.977395 73.246574
L 271.532463 73.908264
L 275.08753 74.61112
L 278.642598 75.353565
L 282.197665 76.133883
L 285.752733 76.950219
L 289.3078 77.800588
L 292.862868 78.682877
L 296.417935 79.594853
L 299.973003 80.534167
L 303.52807 81.498362
L 307.083138 82.484883
L 310.638205 83.491076
L 314.193273 84.514204
L 317.74834 85.551449
L 321.303408 86.599925
L 324.858475 87.65668
L 328.413543 88.718712
L 331.96861 89.782971
L 335.523678 90.846372
L 339.078745 91.905802
L 342.633813 92.95813
L 346.18888 94.000217
L 349.743948 95.028924
L 353.299015 96.041121
L 356.854083 97.033698
L 360.40915 98.003574
L 363.964218 98.947706
L 367.519285 99.863096
L 371.074353 100.746805
L 374.62942 101.595957
L 378.184488 102.407752
L 381.739555 103.179472
L 385.294623 103.908491
L 388.84969 104.592283
L 392.404758 105.228428
L 395.959825 105.814625
L 399.514893 106.348693
L 403.06996 106.828582
L 406.625028 107.252382
L 410.180095 107.618321
L 413.735163 107.924783
L 417.29023 108.170302
L 420.845298 108.353576
L 424.400365 108.473468
L 427.955433 108.529011
L 431.510501 108.519409
L 435.065568 108.444048
L 438.620636 108.30249
L 442.175703 108.094484
" style="fill:none;stroke:#0080ff;stroke-linecap:square;stroke-width:2;"/>
   </g>
   <g id="line2d_33">
    <path clip-path="url(#p71e4492aa8)" d="M 90.22402 83.698035
L 93.779088 83.60227
L 97.334155 83.408099
L 100.889223 83.144527
L 104.44429 82.823594
L 107.999358 82.453179
L 111.554425 82.039335
L 115.109493 81.587148
L 118.66456 81.101133
L 122.219628 80.585448
L 125.774695 80.04402
L 129.329763 79.480618
L 132.88483 78.898901
L 136.439898 78.302447
L 139.994965 77.694772
L 143.550033 77.079343
L 147.1051 76.459579
L 150.660168 75.838859
L 154.215235 75.220519
L 157.770303 74.607847
L 161.32537 74.004083
L 164.880438 73.412411
L 168.435505 72.835957
L 171.990573 72.277775
L 175.54564 71.740848
L 179.100708 71.228076
L 182.655775 70.742269
L 186.210843 70.286143
L 189.76591 69.862305
L 193.320978 69.473254
L 196.876045 69.121369
L 200.431113 68.808901
L 203.98618 68.537969
L 207.541248 68.31055
L 211.096315 68.128478
L 214.651383 67.993431
L 218.20645 67.906929
L 221.761518 67.870332
L 225.316585 67.884827
L 228.871653 67.951432
L 232.42672 68.070987
L 235.981788 68.244152
L 239.536855 68.471403
L 243.091923 68.753034
L 246.64699 69.089149
L 250.202058 69.479666
L 253.757125 69.924313
L 257.312193 70.422628
L 260.86726 70.973962
L 264.422328 71.577478
L 267.977395 72.232152
L 271.532463 72.936778
L 275.08753 73.689966
L 278.642598 74.490151
L 282.197665 75.335593
L 285.752733 76.224382
L 289.3078 77.154442
L 292.862868 78.12354
L 296.417935 79.129288
L 299.973003 80.169153
L 303.52807 81.240461
L 307.083138 82.340404
L 310.638205 83.466051
L 314.193273 84.614355
L 317.74834 85.782161
L 321.303408 86.966213
L 324.858475 88.163169
L 328.413543 89.369605
L 331.96861 90.582028
L 335.523678 91.796886
L 339.078745 93.010578
L 342.633813 94.219464
L 346.18888 95.419879
L 349.743948 96.608139
L 353.299015 97.780556
L 356.854083 98.933448
L 360.40915 100.063151
L 363.964218 101.166029
L 367.519285 102.238486
L 371.074353 103.276978
L 374.62942 104.278021
L 378.184488 105.238208
L 381.739555 106.154213
L 385.294623 107.022807
L 388.84969 107.840863
L 392.404758 108.605374
L 395.959825 109.313455
L 399.514893 109.962359
L 403.06996 110.54948
L 406.625028 111.072368
L 410.180095 111.528733
L 413.735163 111.916458
L 417.29023 112.233599
L 420.845298 112.478401
L 424.400365 112.649299
L 427.955433 112.744924
L 431.510501 112.764112
L 435.065568 112.705908
L 438.620636 112.569568
L 442.175703 112.354566
" style="fill:none;stroke:#00b3ff;stroke-linecap:square;stroke-width:2;"/>
   </g>
   <g id="line2d_34">
    <path clip-path="url(#p71e4492aa8)" d="M 90.22402 83.698035
L 93.779088 83.626989
L 97.334155 83.467499
L 100.889223 83.239715
L 104.44429 82.95284
L 107.999358 82.613235
L 111.554425 82.226006
L 115.109493 81.795607
L 118.66456 81.326126
L 122.219628 80.821437
L 125.774695 80.28529
L 129.329763 79.721368
L 132.88483 79.133312
L 136.439898 78.524748
L 139.994965 77.899295
L 143.550033 77.260571
L 147.1051 76.612194
L 150.660168 75.957778
L 154.215235 75.300934
L 157.770303 74.64526
L 161.32537 73.994335
L 164.880438 73.351712
L 168.435505 72.720908
L 171.990573 72.105398
L 175.54564 71.508599
L 179.100708 70.933867
L 182.655775 70.384484
L 186.210843 69.863648
L 189.76591 69.374462
L 193.320978 68.919926
L 196.876045 68.502926
L 200.431113 68.126225
L 203.98618 67.792452
L 207.541248 67.504096
L 211.096315 67.263492
L 214.651383 67.072819
L 218.20645 66.934088
L 221.761518 66.849135
L 225.316585 66.819614
L 228.871653 66.846991
L 232.42672 66.932538
L 235.981788 67.077328
L 239.536855 67.282227
L 243.091923 67.547895
L 246.64699 67.87478
L 250.202058 68.263111
L 253.757125 68.712902
L 257.312193 69.22395
L 260.86726 69.795828
L 264.422328 70.42789
L 267.977395 71.11927
L 271.532463 71.868886
L 275.08753 72.675434
L 278.642598 73.537399
L 282.197665 74.453055
L 285.752733 75.420468
L 289.3078 76.437501
L 292.862868 77.501819
L 296.417935 78.610899
L 299.973003 79.762029
L 303.52807 80.952321
L 307.083138 82.178718
L 310.638205 83.438001
L 314.193273 84.726797
L 317.74834 86.041591
L 321.303408 87.378736
L 324.858475 88.73446
L 328.413543 90.10488
L 331.96861 91.486014
L 335.523678 92.87379
L 339.078745 94.264058
L 342.633813 95.652608
L 346.18888 97.035174
L 349.743948 98.407453
L 353.299015 99.765118
L 356.854083 101.103829
L 360.40915 102.419245
L 363.964218 103.707044
L 367.519285 104.962929
L 371.074353 106.182648
L 374.62942 107.362003
L 378.184488 108.496864
L 381.739555 109.583187
L 385.294623 110.617021
L 388.84969 111.594524
L 392.404758 112.511979
L 395.959825 113.365799
L 399.514893 114.152546
L 403.06996 114.86894
L 406.625028 115.51187
L 410.180095 116.078407
L 413.735163 116.565814
L 417.29023 116.971554
L 420.845298 117.293302
L 424.400365 117.528954
L 427.955433 117.676634
L 431.510501 117.734702
L 435.065568 117.701763
L 438.620636 117.576672
L 442.175703 117.358539
" style="fill:none;stroke:#00e6f7;stroke-linecap:square;stroke-width:2;"/>
   </g>
   <g id="line2d_35">
    <path clip-path="url(#p71e4492aa8)" d="M 90.22402 83.698035
L 93.779088 83.645328
L 97.334155 83.51473
L 100.889223 83.318532
L 104.44429 83.062983
L 107.999358 82.752712
L 111.554425 82.391669
L 115.109493 81.98348
L 118.66456 81.531626
L 122.219628 81.039533
L 125.774695 80.51063
L 129.329763 79.948374
L 132.88483 79.356272
L 136.439898 78.73789
L 139.994965 78.09685
L 143.550033 77.436838
L 147.1051 76.761591
L 150.660168 76.074898
L 154.215235 75.380587
L 157.770303 74.682519
L 161.32537 73.984578
L 164.880438 73.290654
L 168.435505 72.604641
L 171.990573 71.930418
L 175.54564 71.271838
L 179.100708 70.632717
L 182.655775 70.016819
L 186.210843 69.427844
L 189.76591 68.869418
L 193.320978 68.345074
L 196.876045 67.858245
L 200.431113 67.412248
L 203.98618 67.010274
L 207.541248 66.655375
L 211.096315 66.350451
L 214.651383 66.098241
L 218.20645 65.901314
L 221.761518 65.762051
L 225.316585 65.682646
L 228.871653 65.665086
L 232.42672 65.711152
L 235.981788 65.822405
L 239.536855 66.000178
L 243.091923 66.245577
L 246.64699 66.559465
L 250.202058 66.942464
L 253.757125 67.394948
L 257.312193 67.91704
L 260.86726 68.508609
L 264.422328 69.169268
L 267.977395 69.898372
L 271.532463 70.695021
L 275.08753 71.558056
L 278.642598 72.486064
L 282.197665 73.477378
L 285.752733 74.53008
L 289.3078 75.642009
L 292.862868 76.810759
L 296.417935 78.033691
L 299.973003 79.307934
L 303.52807 80.630399
L 307.083138 81.997777
L 310.638205 83.406559
L 314.193273 84.853036
L 317.74834 86.333316
L 321.303408 87.843329
L 324.858475 89.378844
L 328.413543 90.935478
L 331.96861 92.508709
L 335.523678 94.093889
L 339.078745 95.686259
L 342.633813 97.280962
L 346.18888 98.873059
L 349.743948 100.457543
L 353.299015 102.029353
L 356.854083 103.583394
L 360.40915 105.114548
L 363.964218 106.617693
L 367.519285 108.087719
L 371.074353 109.519543
L 374.62942 110.908129
L 378.184488 112.248498
L 381.739555 113.535751
L 385.294623 114.765082
L 388.84969 115.931795
L 392.404758 117.031317
L 395.959825 118.059221
L 399.514893 119.011232
L 403.06996 119.88325
L 406.625028 120.67136
L 410.180095 121.371847
L 413.735163 121.981212
L 417.29023 122.496183
L 420.845298 122.913726
L 424.400365 123.231061
L 427.955433 123.445671
L 431.510501 123.555312
L 435.065568 123.558025
L 438.620636 123.452143
L 442.175703 123.2363
" style="fill:none;stroke:#29ffce;stroke-linecap:square;stroke-width:2;"/>
   </g>
   <g id="line2d_36">
    <path clip-path="url(#p71e4492aa8)" d="M 90.22402 83.698035
L 93.779088 83.658933
L 97.334155 83.552284
L 100.889223 83.383796
L 104.44429 83.156846
L 107.999358 82.874256
L 111.554425 82.538688
L 115.109493 82.152799
L 118.66456 81.719321
L 122.219628 81.241094
L 125.774695 80.72109
L 129.329763 80.162422
L 132.88483 79.568343
L 136.439898 78.94225
L 139.994965 78.287675
L 143.550033 77.608277
L 147.1051 76.907838
L 150.660168 76.190245
L 154.215235 75.459484
L 157.770303 74.719626
L 161.32537 73.97481
L 164.880438 73.229236
L 168.435505 72.487143
L 171.990573 71.752798
L 175.54564 71.030479
L 179.100708 70.324461
L 182.655775 69.638999
L 186.210843 68.978312
L 189.76591 68.346566
L 193.320978 67.747861
L 196.876045 67.186212
L 200.431113 66.665535
L 203.98618 66.189632
L 207.541248 65.762173
L 211.096315 65.386684
L 214.651383 65.066533
L 218.20645 64.804913
L 221.761518 64.604829
L 225.316585 64.469088
L 228.871653 64.400284
L 232.42672 64.400787
L 235.981788 64.47273
L 239.536855 64.618004
L 243.091923 64.838242
L 246.64699 65.134814
L 250.202058 65.508819
L 253.757125 65.961078
L 257.312193 66.492125
L 260.86726 67.102205
L 264.422328 67.79127
L 267.977395 68.558973
L 271.532463 69.404669
L 275.08753 70.327409
L 278.642598 71.325946
L 282.197665 72.398731
L 285.752733 73.543917
L 289.3078 74.75936
L 292.862868 76.042625
L 296.417935 77.39099
L 299.973003 78.801452
L 303.52807 80.270732
L 307.083138 81.795287
L 310.638205 83.371315
L 314.193273 84.994766
L 317.74834 86.661353
L 321.303408 88.366565
L 324.858475 90.105675
L 328.413543 91.873757
L 331.96861 93.665702
L 335.523678 95.476225
L 339.078745 97.29989
L 342.633813 99.131118
L 346.18888 100.964209
L 349.743948 102.793359
L 353.299015 104.612673
L 356.854083 106.416189
L 360.40915 108.197895
L 363.964218 109.951745
L 367.519285 111.671683
L 371.074353 113.35166
L 374.62942 114.985654
L 378.184488 116.567689
L 381.739555 118.091857
L 385.294623 119.552337
L 388.84969 120.943412
L 392.404758 122.259493
L 395.959825 123.495139
L 399.514893 124.645068
L 403.06996 125.704187
L 406.625028 126.667603
L 410.180095 127.530642
L 413.735163 128.288869
L 417.29023 128.938104
L 420.845298 129.474436
L 424.400365 129.894242
L 427.955433 130.194201
L 431.510501 130.371305
L 435.065568 130.422877
L 438.620636 130.34658
L 442.175703 130.14043
" style="fill:none;stroke:#52ffa5;stroke-linecap:square;stroke-width:2;"/>
   </g>
   <g id="line2d_37">
    <path clip-path="url(#p71e4492aa8)" d="M 90.22402 83.698035
L 93.779088 83.669026
L 97.334155 83.582145
L 100.889223 83.437836
L 104.44429 83.236836
L 107.999358 82.980173
L 111.554425 82.669161
L 115.109493 82.305398
L 118.66456 81.890755
L 122.219628 81.427373
L 125.774695 80.917654
L 129.329763 80.364251
L 132.88483 79.770055
L 136.439898 79.138191
L 139.994965 78.471998
L 143.550033 77.775023
L 147.1051 77.051002
L 150.660168 76.303847
L 154.215235 75.537633
L 157.770303 74.756579
L 161.32537 73.965033
L 164.880438 73.167456
L 168.435505 72.3684
L 171.990573 71.572496
L 175.54564 70.784432
L 179.100708 70.008933
L 182.655775 69.250746
L 186.210843 68.514619
L 189.76591 67.805279
L 193.320978 67.127417
L 196.876045 66.485667
L 200.431113 65.884585
L 203.98618 65.328633
L 207.541248 64.822158
L 211.096315 64.369375
L 214.651383 63.974346
L 218.20645 63.640966
L 221.761518 63.372943
L 225.316585 63.173783
L 228.871653 63.046771
L 232.42672 62.994959
L 235.981788 63.02115
L 239.536855 63.127883
L 243.091923 63.317421
L 246.64699 63.591738
L 250.202058 63.952509
L 253.757125 64.401098
L 257.312193 64.93855
L 260.86726 65.565581
L 264.422328 66.282575
L 267.977395 67.089572
L 271.532463 67.986268
L 275.08753 68.972009
L 278.642598 70.045789
L 282.197665 71.206249
L 285.752733 72.451675
L 289.3078 73.780004
L 292.862868 75.188821
L 296.417935 76.675366
L 299.973003 78.236536
L 303.52807 79.868896
L 307.083138 81.568682
L 310.638205 83.33181
L 314.193273 85.153888
L 317.74834 87.030225
L 321.303408 88.955846
L 324.858475 90.925499
L 328.413543 92.933677
L 331.96861 94.974627
L 335.523678 97.04237
L 339.078745 99.130717
L 342.633813 101.233287
L 346.18888 103.343525
L 349.743948 105.454723
L 353.299015 107.560044
L 356.854083 109.652534
L 360.40915 111.725152
L 363.964218 113.770791
L 367.519285 115.782297
L 371.074353 117.752494
L 374.62942 119.674211
L 378.184488 121.5403
L 381.739555 123.343664
L 385.294623 125.077279
L 388.84969 126.734221
L 392.404758 128.307686
L 395.959825 129.791015
L 399.514893 131.177722
L 403.06996 132.46151
L 406.625028 133.636302
L 410.180095 134.696256
L 413.735163 135.635795
L 417.29023 136.449621
L 420.845298 137.13274
L 424.400365 137.680485
L 427.955433 138.088527
L 431.510501 138.352901
L 435.065568 138.470022
L 438.620636 138.436699
L 442.175703 138.250152
" style="fill:none;stroke:#7bff7b;stroke-linecap:square;stroke-width:2;"/>
   </g>
   <g id="line2d_38">
    <path clip-path="url(#p71e4492aa8)" d="M 90.22402 83.698035
L 93.779088 83.676514
L 97.334155 83.605888
L 100.889223 83.482583
L 104.44429 83.305003
L 107.999358 83.072471
L 111.554425 82.784951
L 115.109493 82.442927
L 118.66456 82.047336
L 122.219628 81.599529
L 125.774695 81.10124
L 129.329763 80.554558
L 132.88483 79.961914
L 136.439898 79.326058
L 139.994965 78.650042
L 143.550033 77.937203
L 147.1051 77.191147
L 150.660168 76.41573
L 154.215235 75.61504
L 157.770303 74.79338
L 161.32537 73.955246
L 164.880438 73.10531
L 168.435505 72.248399
L 171.990573 71.389473
L 175.54564 70.533605
L 179.100708 69.68596
L 182.655775 68.851772
L 186.210843 68.036319
L 189.76591 67.244906
L 193.320978 66.482838
L 196.876045 65.755399
L 200.431113 65.067827
L 203.98618 64.425293
L 207.541248 63.832878
L 211.096315 63.295547
L 214.651383 62.818134
L 218.20645 62.405312
L 221.761518 62.061577
L 225.316585 61.791223
L 228.871653 61.598325
L 232.42672 61.486716
L 235.981788 61.459971
L 239.536855 61.521387
L 243.091923 61.673965
L 246.64699 61.920394
L 250.202058 62.263037
L 253.757125 62.703916
L 257.312193 63.244697
L 260.86726 63.88668
L 264.422328 64.630786
L 267.977395 65.477551
L 271.532463 66.427113
L 275.08753 67.479211
L 278.642598 68.633173
L 282.197665 69.887917
L 285.752733 71.241946
L 289.3078 72.693347
L 292.862868 74.239793
L 296.417935 75.878544
L 299.973003 77.606447
L 303.52807 79.419947
L 307.083138 81.315089
L 310.638205 83.287527
L 314.193273 85.332535
L 317.74834 87.445014
L 321.303408 89.619508
L 324.858475 91.850216
L 328.413543 94.131007
L 331.96861 96.455437
L 335.523678 98.816766
L 339.078745 101.207977
L 342.633813 103.621796
L 346.18888 106.050714
L 349.743948 108.487009
L 353.299015 110.922769
L 356.854083 113.349916
L 360.40915 115.760232
L 363.964218 118.145383
L 367.519285 120.496948
L 371.074353 122.806447
L 374.62942 125.065364
L 378.184488 127.26518
L 381.739555 129.397401
L 385.294623 131.453584
L 388.84969 133.42537
L 392.404758 135.30451
L 395.959825 137.082896
L 399.514893 138.752589
L 403.06996 140.305851
L 406.625028 141.735167
L 410.180095 143.033283
L 413.735163 144.193223
L 417.29023 145.208326
L 420.845298 146.072265
L 424.400365 146.779076
L 427.955433 147.323186
L 431.510501 147.69943
L 435.065568 147.90308
L 438.620636 147.929863
L 442.175703 147.775985
" style="fill:none;stroke:#a5ff52;stroke-linecap:square;stroke-width:2;"/>
   </g>
   <g id="line2d_39">
    <path clip-path="url(#p71e4492aa8)" d="M 90.22402 83.698035
L 93.779088 83.682069
L 97.334155 83.624766
L 100.889223 83.519634
L 104.44429 83.363095
L 107.999358 83.152903
L 111.554425 82.88771
L 115.109493 82.566874
L 118.66456 82.190351
L 122.219628 81.758633
L 125.774695 81.272703
L 129.329763 80.734002
L 132.88483 80.144403
L 136.439898 79.506186
L 139.994965 78.82202
L 143.550033 78.094942
L 147.1051 77.328337
L 150.660168 76.52592
L 154.215235 75.691714
L 157.770303 74.83003
L 161.32537 73.94545
L 164.880438 73.042799
L 168.435505 72.127128
L 171.990573 71.203688
L 175.54564 70.277907
L 179.100708 69.355368
L 182.655775 68.441779
L 186.210843 67.542951
L 189.76591 66.664775
L 193.320978 65.813186
L 196.876045 64.994149
L 200.431113 64.213621
L 203.98618 63.477531
L 207.541248 62.791749
L 211.096315 62.162062
L 214.651383 61.594145
L 218.20645 61.093534
L 221.761518 60.665602
L 225.316585 60.315531
L 228.871653 60.048287
L 232.42672 59.868595
L 235.981788 59.780917
L 239.536855 59.789426
L 243.091923 59.897983
L 246.64699 60.110118
L 250.202058 60.429011
L 253.757125 60.857466
L 257.312193 61.397902
L 260.86726 62.052327
L 264.422328 62.822331
L 267.977395 63.709066
L 271.532463 64.713235
L 275.08753 65.835085
L 278.642598 67.074391
L 282.197665 68.430453
L 285.752733 69.90209
L 289.3078 71.487631
L 292.862868 73.184921
L 296.417935 74.991311
L 299.973003 76.903665
L 303.52807 78.91836
L 307.083138 81.031295
L 310.638205 83.237891
L 314.193273 85.533104
L 317.74834 87.911435
L 321.303408 90.366941
L 324.858475 92.893246
L 328.413543 95.483562
L 331.96861 98.130703
L 335.523678 100.827103
L 339.078745 103.564838
L 342.633813 106.335648
L 346.18888 109.13096
L 349.743948 111.941913
L 353.299015 114.759383
L 356.854083 117.574014
L 360.40915 120.376243
L 363.964218 123.156332
L 367.519285 125.904398
L 371.074353 128.610446
L 374.62942 131.264399
L 378.184488 133.856136
L 381.739555 136.375521
L 385.294623 138.812442
L 388.84969 141.156841
L 392.404758 143.398755
L 395.959825 145.528347
L 399.514893 147.535945
L 403.06996 149.412071
L 406.625028 151.147487
L 410.180095 152.73322
L 413.735163 154.160601
L 417.29023 155.421299
L 420.845298 156.507354
L 424.400365 157.41121
L 427.955433 158.125747
L 431.510501 158.644309
L 435.065568 158.960737
L 438.620636 159.069398
L 442.175703 158.965209
" style="fill:none;stroke:#ceff29;stroke-linecap:square;stroke-width:2;"/>
   </g>
   <g id="line2d_40">
    <path clip-path="url(#p71e4492aa8)" d="M 90.22402 83.698035
L 93.779088 83.68619
L 97.334155 83.639777
L 100.889223 83.550314
L 104.44429 83.4126
L 107.999358 83.222993
L 111.554425 82.978904
L 115.109493 82.678581
L 118.66456 82.320975
L 122.219628 81.905674
L 125.774695 81.432845
L 129.329763 80.903203
L 132.88483 80.317978
L 136.439898 79.678892
L 139.994965 78.988139
L 143.550033 78.248362
L 147.1051 77.462635
L 150.660168 76.634443
L 154.215235 75.767659
L 157.770303 74.866529
L 161.32537 73.935643
L 164.880438 72.979918
L 168.435505 72.004571
L 171.990573 71.015098
L 175.54564 70.017242
L 179.100708 69.016975
L 182.655775 68.020463
L 186.210843 67.034042
L 189.76591 66.064188
L 193.320978 65.117486
L 196.876045 64.200601
L 200.431113 63.320249
L 203.98618 62.483161
L 207.541248 61.696055
L 211.096315 60.965605
L 214.651383 60.298404
L 218.20645 59.700941
L 221.761518 59.179559
L 225.316585 58.740433
L 228.871653 58.389532
L 232.42672 58.132593
L 235.981788 57.975089
L 239.536855 57.922201
L 243.091923 57.978788
L 246.64699 58.149363
L 250.202058 58.438061
L 253.757125 58.848619
L 257.312193 59.384353
L 260.86726 60.04813
L 264.422328 60.842351
L 267.977395 61.768931
L 271.532463 62.829281
L 275.08753 64.024292
L 278.642598 65.35432
L 282.197665 66.819175
L 285.752733 68.41811
L 289.3078 70.149813
L 292.862868 72.012399
L 296.417935 74.003409
L 299.973003 76.119803
L 303.52807 78.357965
L 307.083138 80.713703
L 310.638205 83.182252
L 314.193273 85.758285
L 317.74834 88.435917
L 321.303408 91.208717
L 324.858475 94.069726
L 328.413543 97.011465
L 331.96861 100.02596
L 335.523678 103.104754
L 339.078745 106.238936
L 342.633813 109.419159
L 346.18888 112.635671
L 349.743948 115.878335
L 353.299015 119.136668
L 356.854083 122.399862
L 360.40915 125.656825
L 363.964218 128.896209
L 367.519285 132.106451
L 371.074353 135.275804
L 374.62942 138.392381
L 378.184488 141.444189
L 381.739555 144.419174
L 385.294623 147.305257
L 388.84969 150.09038
L 392.404758 152.762546
L 395.959825 155.309864
L 399.514893 157.720589
L 403.06996 159.983165
L 406.625028 162.086274
L 410.180095 164.018872
L 413.735163 165.770235
L 417.29023 167.330001
L 420.845298 168.688214
L 424.400365 169.835361
L 427.955433 170.762414
L 431.510501 171.460871
L 435.065568 171.92279
L 438.620636 172.14083
L 442.175703 172.108283
" style="fill:none;stroke:#f7f600;stroke-linecap:square;stroke-width:2;"/>
   </g>
   <g id="line2d_41">
    <path clip-path="url(#p71e4492aa8)" d="M 90.22402 83.698035
L 93.779088 83.689248
L 97.334155 83.651713
L 100.889223 83.575718
L 104.44429 83.454789
L 107.999358 83.284071
L 111.554425 83.059836
L 115.109493 82.779256
L 118.66456 82.440282
L 122.219628 82.041566
L 125.774695 81.582413
L 129.329763 81.062744
L 132.88483 80.483074
L 136.439898 79.844482
L 139.994965 79.148599
L 143.550033 78.397581
L 147.1051 77.594102
L 150.660168 76.741324
L 154.215235 75.842885
L 157.770303 74.902878
L 161.32537 73.925826
L 164.880438 72.916666
L 168.435505 71.880717
L 171.990573 70.823661
L 175.54564 69.751515
L 179.100708 68.670599
L 182.655775 67.587513
L 186.210843 66.509102
L 189.76591 65.442425
L 193.320978 64.394723
L 196.876045 63.373386
L 200.431113 62.385915
L 203.98618 61.439892
L 207.541248 60.542936
L 211.096315 59.702676
L 214.651383 58.926707
L 218.20645 58.222554
L 221.761518 57.597637
L 225.316585 57.059232
L 228.871653 56.614434
L 232.42672 56.27012
L 235.981788 56.032914
L 239.536855 55.909149
L 243.091923 55.904834
L 246.64699 56.025618
L 250.202058 56.27676
L 253.757125 56.663093
L 257.312193 57.188995
L 260.86726 57.858363
L 264.422328 58.674578
L 267.977395 59.640487
L 271.532463 60.758373
L 275.08753 62.029936
L 278.642598 63.45627
L 282.197665 65.037849
L 285.752733 66.774504
L 289.3078 68.665418
L 292.862868 70.709107
L 296.417935 72.903415
L 299.973003 75.245508
L 303.52807 77.731866
L 307.083138 80.358288
L 310.638205 83.119887
L 314.193273 86.011098
L 317.74834 89.025685
L 321.303408 92.156746
L 324.858475 95.396731
L 328.413543 98.73745
L 331.96861 102.170096
L 335.523678 105.685264
L 339.078745 109.272971
L 342.633813 112.922681
L 346.18888 116.623337
L 349.743948 120.363387
L 353.299015 124.130816
L 356.854083 127.913182
L 360.40915 131.697654
L 363.964218 135.471049
L 367.519285 139.21987
L 371.074353 142.930355
L 374.62942 146.588516
L 378.184488 150.180184
L 381.739555 153.691062
L 385.294623 157.106766
L 388.84969 160.412881
L 392.404758 163.595006
L 395.959825 166.638811
L 399.514893 169.530082
L 403.06996 172.254779
L 406.625028 174.799086
L 410.180095 177.149466
L 413.735163 179.292708
L 417.29023 181.215987
L 420.845298 182.906909
L 424.400365 184.353568
L 427.955433 185.544591
L 431.510501 186.469193
L 435.065568 187.117221
L 438.620636 187.479201
L 442.175703 187.546387
" style="fill:none;stroke:#ffc600;stroke-linecap:square;stroke-width:2;"/>
   </g>
   <g id="line2d_42">
    <path clip-path="url(#p71e4492aa8)" d="M 90.22402 83.698035
L 93.779088 83.691516
L 97.334155 83.661203
L 100.889223 83.596753
L 104.44429 83.490742
L 107.999358 83.337296
L 111.554425 83.131659
L 115.109493 82.869989
L 118.66456 82.549253
L 122.219628 82.167155
L 125.774695 81.722105
L 129.329763 81.213179
L 132.88483 80.640107
L 136.439898 80.003251
L 139.994965 79.303591
L 143.550033 78.542715
L 147.1051 77.722796
L 150.660168 76.846587
L 154.215235 75.917397
L 157.770303 74.939077
L 161.32537 73.916
L 164.880438 72.853041
L 168.435505 71.755551
L 171.990573 70.629336
L 175.54564 69.480626
L 179.100708 68.316051
L 182.655775 67.142606
L 186.210843 65.967625
L 189.76591 64.798738
L 193.320978 63.643846
L 196.876045 62.511074
L 200.431113 61.408742
L 203.98618 60.345318
L 207.541248 59.329383
L 211.096315 58.369585
L 214.651383 57.4746
L 218.20645 56.653089
L 221.761518 55.913651
L 225.316585 55.264782
L 228.871653 54.714834
L 232.42672 54.271965
L 235.981788 53.944098
L 239.536855 53.738881
L 243.091923 53.663639
L 246.64699 53.725337
L 250.202058 53.930534
L 253.757125 54.285348
L 257.312193 54.795412
L 260.86726 55.465842
L 264.422328 56.3012
L 267.977395 57.305455
L 271.532463 58.481958
L 275.08753 59.833409
L 278.642598 61.361827
L 282.197665 63.068529
L 285.752733 64.954102
L 289.3078 67.018387
L 292.862868 69.260459
L 296.417935 71.678612
L 299.973003 74.270345
L 303.52807 77.03236
L 307.083138 79.960544
L 310.638205 83.04998
L 314.193273 86.294934
L 317.74834 89.688867
L 321.303408 93.224439
L 324.858475 96.893519
L 328.413543 100.687194
L 331.96861 104.595795
L 335.523678 108.608905
L 339.078745 112.715391
L 342.633813 116.903424
L 346.18888 121.160513
L 349.743948 125.473532
L 353.299015 129.828758
L 356.854083 134.211909
L 360.40915 138.608185
L 363.964218 143.00231
L 367.519285 147.378577
L 371.074353 151.720902
L 374.62942 156.012869
L 378.184488 160.237784
L 381.739555 164.378732
L 385.294623 168.418632
L 388.84969 172.340296
L 392.404758 176.126489
L 395.959825 179.759989
L 399.514893 183.223651
L 403.06996 186.500467
L 406.625028 189.573632
L 410.180095 192.426608
L 413.735163 195.043187
L 417.29023 197.407557
L 420.845298 199.504364
L 424.400365 201.318778
L 427.955433 202.836552
L 431.510501 204.044089
L 435.065568 204.928499
L 438.620636 205.47766
L 442.175703 205.680276
" style="fill:none;stroke:#ff9700;stroke-linecap:square;stroke-width:2;"/>
   </g>
   <g id="line2d_43">
    <path clip-path="url(#p71e4492aa8)" d="M 90.22402 83.698035
L 93.779088 83.693199
L 97.334155 83.668749
L 100.889223 83.614171
L 104.44429 83.521381
L 107.999358 83.383678
L 111.554425 83.195399
L 115.109493 82.951762
L 118.66456 82.648782
L 122.219628 82.283223
L 125.774695 81.852573
L 129.329763 81.355026
L 132.88483 80.789469
L 136.439898 80.155477
L 139.994965 79.453304
L 143.550033 78.683874
L 147.1051 77.848778
L 150.660168 76.950258
L 154.215235 75.991202
L 157.770303 74.975127
L 161.32537 73.906164
L 164.880438 72.78904
L 168.435505 71.629059
L 171.990573 70.432076
L 175.54564 69.204475
L 179.100708 67.953137
L 182.655775 66.685413
L 186.210843 65.409091
L 189.76591 64.132356
L 193.320978 62.86376
L 196.876045 61.612177
L 200.431113 60.386764
L 203.98618 59.196917
L 207.541248 58.052227
L 211.096315 56.962432
L 214.651383 55.93737
L 218.20645 54.986934
L 221.761518 54.121014
L 225.316585 53.349454
L 228.871653 52.681999
L 232.42672 52.128241
L 235.981788 51.697569
L 239.536855 51.399118
L 243.091923 51.241719
L 246.64699 51.233844
L 250.202058 51.38356
L 253.757125 51.698478
L 257.312193 52.185704
L 260.86726 52.851796
L 264.422328 53.702716
L 267.977395 54.743784
L 271.532463 55.979644
L 275.08753 57.414217
L 278.642598 59.050669
L 282.197665 60.891375
L 285.752733 62.937886
L 289.3078 65.190902
L 292.862868 67.650245
L 296.417935 70.314837
L 299.973003 73.18268
L 303.52807 76.250839
L 307.083138 79.515433
L 310.638205 82.97162
L 314.193273 86.613599
L 317.74834 90.434602
L 321.303408 94.426901
L 324.858475 98.581813
L 328.413543 102.889709
L 331.96861 107.340029
L 335.523678 111.921302
L 339.078745 116.621165
L 342.633813 121.426392
L 346.18888 126.322921
L 349.743948 131.295891
L 353.299015 136.329676
L 356.854083 141.40793
L 360.40915 146.513629
L 363.964218 151.62912
L 367.519285 156.736173
L 371.074353 161.816037
L 374.62942 166.849494
L 378.184488 171.816924
L 381.739555 176.698368
L 385.294623 181.473591
L 388.84969 186.122153
L 392.404758 190.623479
L 395.959825 194.95693
L 399.514893 199.10188
L 403.06996 203.037788
L 406.625028 206.744276
L 410.180095 210.201208
L 413.735163 213.388764
L 417.29023 216.287524
L 420.845298 218.878542
L 424.400365 221.143427
L 427.955433 223.064419
L 431.510501 224.624468
L 435.065568 225.807309
L 438.620636 226.597539
L 442.175703 226.980686
" style="fill:none;stroke:#ff6800;stroke-linecap:square;stroke-width:2;"/>
   </g>
   <g id="line2d_44">
    <path clip-path="url(#p71e4492aa8)" d="M 90.22402 83.698035
L 93.779088 83.694447
L 97.334155 83.674749
L 100.889223 83.628593
L 104.44429 83.547491
L 107.999358 83.424096
L 111.554425 83.251966
L 115.109493 83.02546
L 118.66456 82.739688
L 122.219628 82.39049
L 125.774695 81.974427
L 129.329763 81.488775
L 132.88483 80.931536
L 136.439898 80.301432
L 139.994965 79.597916
L 143.550033 78.821169
L 147.1051 77.972103
L 150.660168 77.05236
L 154.215235 76.064307
L 157.770303 75.011029
L 161.32537 73.896318
L 164.880438 72.724662
L 168.435505 71.501228
L 171.990573 70.23184
L 175.54564 68.922961
L 179.100708 67.581661
L 182.655775 66.215594
L 186.210843 64.832962
L 189.76591 63.442477
L 193.320978 62.05333
L 196.876045 60.675143
L 200.431113 59.317928
L 203.98618 57.992043
L 207.541248 56.708136
L 211.096315 55.477102
L 214.651383 54.310027
L 218.20645 53.218132
L 221.761518 52.212717
L 225.316585 51.305105
L 228.871653 50.506585
L 232.42672 49.828344
L 235.981788 49.281418
L 239.536855 48.876624
L 243.091923 48.624499
L 246.64699 48.535244
L 250.202058 48.618661
L 253.757125 48.88409
L 257.312193 49.340358
L 260.86726 49.995713
L 264.422328 50.857776
L 267.977395 51.933477
L 271.532463 53.229013
L 275.08753 54.749788
L 278.642598 56.500373
L 282.197665 58.484453
L 285.752733 60.704792
L 289.3078 63.163189
L 292.862868 65.860444
L 296.417935 68.796322
L 299.973003 71.96953
L 303.52807 75.377689
L 307.083138 79.017311
L 310.638205 82.883786
L 314.193273 86.971367
L 317.74834 91.273165
L 321.303408 95.781143
L 324.858475 100.486116
L 328.413543 105.377762
L 331.96861 110.444628
L 335.523678 115.674148
L 339.078745 121.052662
L 342.633813 126.565441
L 346.18888 132.19672
L 349.743948 137.929727
L 353.299015 143.746729
L 356.854083 149.62907
L 360.40915 155.557224
L 363.964218 161.510846
L 367.519285 167.46883
L 371.074353 173.409369
L 374.62942 179.310024
L 378.184488 185.147789
L 381.739555 190.899167
L 385.294623 196.540246
L 388.84969 202.046776
L 392.404758 207.394257
L 395.959825 212.558018
L 399.514893 217.513309
L 403.06996 222.235387
L 406.625028 226.699614
L 410.180095 230.881543
L 413.735163 234.757017
L 417.29023 238.302261
L 420.845298 241.493983
L 424.400365 244.309466
L 427.955433 246.726663
L 431.510501 248.724297
L 435.065568 250.281955
L 438.620636 251.380176
L 442.175703 252.000551
" style="fill:none;stroke:#ff3900;stroke-linecap:square;stroke-width:2;"/>
   </g>
   <g id="line2d_45">
    <path clip-path="url(#p71e4492aa8)" d="M 90.22402 83.698035
L 93.779088 83.695373
L 97.334155 83.67952
L 100.889223 83.640535
L 104.44429 83.569742
L 107.999358 83.459317
L 111.554425 83.302167
L 115.109493 83.091879
L 118.66456 82.822718
L 122.219628 82.489625
L 125.774695 82.088235
L 129.329763 81.61489
L 132.88483 81.066664
L 136.439898 80.441374
L 139.994965 79.737601
L 143.550033 78.954704
L 147.1051 78.092828
L 150.660168 77.152917
L 154.215235 76.136719
L 157.770303 75.046783
L 161.32537 73.886462
L 164.880438 72.659904
L 168.435505 71.372042
L 171.990573 70.028581
L 175.54564 68.635978
L 179.100708 67.201421
L 182.655775 65.732801
L 186.210843 64.238684
L 189.76591 62.728273
L 193.320978 61.211375
L 196.876045 59.698353
L 200.431113 58.200086
L 203.98618 56.727917
L 207.541248 55.293601
L 211.096315 53.909254
L 214.651383 52.587289
L 218.20645 51.340359
L 221.761518 50.181297
L 225.316585 49.123045
L 228.871653 48.17859
L 232.42672 47.360897
L 235.981788 46.68284
L 239.536855 46.157127
L 243.091923 45.796231
L 246.64699 45.612323
L 250.202058 45.61719
L 253.757125 45.822175
L 257.312193 46.238096
L 260.86726 46.875183
L 264.422328 47.743004
L 267.977395 48.850401
L 271.532463 50.205423
L 275.08753 51.815262
L 278.642598 53.686193
L 282.197665 55.823514
L 285.752733 58.231493
L 289.3078 60.913313
L 292.862868 63.871027
L 296.417935 67.10551
L 299.973003 70.616421
L 303.52807 74.402166
L 307.083138 78.459866
L 310.638205 82.785331
L 314.193273 87.373037
L 317.74834 92.216112
L 321.303408 97.306322
L 324.858475 102.634065
L 328.413543 108.188373
L 331.96861 113.956915
L 335.523678 119.92601
L 339.078745 126.080644
L 342.633813 132.40449
L 346.18888 138.879941
L 349.743948 145.488139
L 353.299015 152.209021
L 356.854083 159.021363
L 360.40915 165.90283
L 363.964218 172.830036
L 367.519285 179.778606
L 371.074353 186.723244
L 374.62942 193.637807
L 378.184488 200.495382
L 381.739555 207.268374
L 385.294623 213.928585
L 388.84969 220.447316
L 392.404758 226.795457
L 395.959825 232.943587
L 399.514893 238.86208
L 403.06996 244.52121
L 406.625028 249.89126
L 410.180095 254.942634
L 413.735163 259.645969
L 417.29023 263.972255
L 420.845298 267.892944
L 424.400365 271.380076
L 427.955433 274.406388
L 431.510501 276.945439
L 435.065568 278.971724
L 438.620636 280.460792
L 442.175703 281.389358
" style="fill:none;stroke:#f30900;stroke-linecap:square;stroke-width:2;"/>
   </g>
   <g id="line2d_46">
    <path clip-path="url(#p71e4492aa8)" d="M 90.22402 83.698035
L 93.779088 83.696061
L 97.334155 83.683313
L 100.889223 83.650423
L 104.44429 83.588704
L 107.999358 83.49001
L 111.554425 83.346718
L 115.109493 83.15174
L 118.66456 82.898555
L 122.219628 82.581244
L 125.774695 82.194528
L 129.329763 81.733806
L 132.88483 81.195191
L 136.439898 80.57555
L 139.994965 79.872528
L 143.550033 79.084582
L 147.1051 78.211007
L 150.660168 77.251953
L 154.215235 76.208443
L 157.770303 75.08239
L 161.32537 73.876596
L 164.880438 72.594763
L 168.435505 71.241488
L 171.990573 69.822254
L 175.54564 68.343421
L 179.100708 66.812209
L 182.655775 65.236675
L 186.210843 63.625685
L 189.76591 61.988887
L 193.320978 60.336669
L 196.876045 58.680121
L 200.431113 57.03099
L 203.98618 55.401625
L 207.541248 53.804931
L 211.096315 52.254301
L 214.651383 50.763562
L 218.20645 49.346903
L 221.761518 48.018811
L 225.316585 46.793995
L 228.871653 45.687313
L 232.42672 44.713694
L 235.981788 43.88806
L 239.536855 43.225241
L 243.091923 42.739897
L 246.64699 42.446432
L 250.202058 42.358908
L 253.757125 42.490962
L 257.312193 42.855722
L 260.86726 43.46572
L 264.422328 44.332808
L 267.977395 45.468081
L 271.532463 46.881788
L 275.08753 48.583259
L 278.642598 50.580827
L 282.197665 52.881751
L 285.752733 55.49215
L 289.3078 58.416932
L 292.862868 61.659732
L 296.417935 65.222852
L 299.973003 69.107205
L 303.52807 73.312267
L 307.083138 77.836033
L 310.638205 82.674971
L 314.193273 87.823996
L 317.74834 93.276437
L 321.303408 99.024016
L 324.858475 105.056833
L 328.413543 111.363357
L 331.96861 117.930425
L 335.523678 124.743242
L 339.078745 131.785399
L 342.633813 139.038887
L 346.18888 146.484123
L 349.743948 154.099985
L 353.299015 161.863852
L 356.854083 169.751648
L 360.40915 177.737899
L 363.964218 185.795794
L 367.519285 193.897254
L 371.074353 202.013004
L 374.62942 210.112657
L 378.184488 218.164802
L 381.739555 226.137096
L 385.294623 233.996369
L 388.84969 241.708722
L 392.404758 249.239648
L 395.959825 256.55414
L 399.514893 263.616815
L 403.06996 270.392043
L 406.625028 276.84407
L 410.180095 282.937154
L 413.735163 288.635704
L 417.29023 293.904413
L 420.845298 298.708401
L 424.400365 303.013362
L 427.955433 306.785699
L 431.510501 309.992677
L 435.065568 312.602564
L 438.620636 314.584772
L 442.175703 315.910008
" style="fill:none;stroke:#b90000;stroke-linecap:square;stroke-width:2;"/>
   </g>
   <g id="line2d_47">
    <path clip-path="url(#p71e4492aa8)" d="M 90.22402 83.698035
L 93.779088 83.69657
L 97.334155 83.686329
L 100.889223 83.658611
L 104.44429 83.604864
L 107.999358 83.516757
L 111.554425 83.386255
L 115.109493 83.205689
L 118.66456 82.967821
L 122.219628 82.665916
L 125.774695 82.293803
L 129.329763 81.845933
L 132.88483 81.317441
L 136.439898 80.704198
L 139.994965 80.002858
L 143.550033 79.210905
L 147.1051 78.326695
L 150.660168 77.34949
L 154.215235 76.279488
L 157.770303 75.11785
L 161.32537 73.86672
L 164.880438 72.529239
L 168.435505 71.109552
L 171.990573 69.612813
L 175.54564 68.045182
L 179.100708 66.413815
L 182.655775 64.726848
L 186.210843 62.993377
L 189.76591 61.22343
L 193.320978 59.427938
L 196.876045 57.618689
L 200.431113 55.80829
L 203.98618 54.010112
L 207.541248 52.23824
L 211.096315 50.507406
L 214.651383 48.832928
L 218.20645 47.230637
L 221.761518 45.716803
L 225.316585 44.308056
L 228.871653 43.021303
L 232.42672 41.873639
L 235.981788 40.882263
L 239.536855 40.064379
L 243.091923 39.437105
L 246.64699 39.017375
L 250.202058 38.821839
L 253.757125 38.866766
L 257.312193 39.167943
L 260.86726 39.740571
L 264.422328 40.599169
L 267.977395 41.757472
L 271.532463 43.228332
L 275.08753 45.023624
L 278.642598 47.154144
L 282.197665 49.629526
L 285.752733 52.458146
L 289.3078 55.647038
L 292.862868 59.201813
L 296.417935 63.126579
L 299.973003 67.423871
L 303.52807 72.094583
L 307.083138 77.137905
L 310.638205 82.551267
L 314.193273 88.330292
L 317.74834 94.46875
L 321.303408 100.958524
L 324.858475 107.789581
L 328.413543 114.949954
L 331.96861 122.425725
L 335.523678 130.201021
L 339.078745 138.258022
L 342.633813 146.576967
L 346.18888 155.136178
L 349.743948 163.912087
L 353.299015 172.879278
L 356.854083 182.010529
L 360.40915 191.276868
L 363.964218 200.647641
L 367.519285 210.09058
L 371.074353 219.571886
L 374.62942 229.05632
L 378.184488 238.507299
L 381.739555 247.887001
L 385.294623 257.156483
L 388.84969 266.275794
L 392.404758 275.20411
L 395.959825 283.899867
L 399.514893 292.3209
L 403.06996 300.42459
L 406.625028 308.16802
L 410.180095 315.50813
L 413.735163 322.401879
L 417.29023 328.806411
L 420.845298 334.679225
L 424.400365 339.97835
L 427.955433 344.662514
L 431.510501 348.691324
L 435.065568 352.025445
L 438.620636 354.626774
L 442.175703 356.458618
" style="fill:none;stroke:#800000;stroke-linecap:square;stroke-width:2;"/>
   </g>
   <g id="patch_3">
    <path d="M 72.626436 372.340456
L 72.626436 22.94
" style="fill:none;stroke:#000000;stroke-linecap:square;stroke-linejoin:miter;stroke-width:0.8;"/>
   </g>
   <g id="patch_4">
    <path d="M 459.773287 372.340456
L 459.773287 22.94
" style="fill:none;stroke:#000000;stroke-linecap:square;stroke-linejoin:miter;stroke-width:0.8;"/>
   </g>
   <g id="patch_5">
    <path d="M 72.626436 372.340456
L 459.773287 372.340456
" style="fill:none;stroke:#000000;stroke-linecap:square;stroke-linejoin:miter;stroke-width:0.8;"/>
   </g>
   <g id="patch_6">
    <path d="M 72.626436 22.94
L 459.773287 22.94
" style="fill:none;stroke:#000000;stroke-linecap:square;stroke-linejoin:miter;stroke-width:0.8;"/>
   </g>
  </g>
  <g id="axes_2">
   <g id="patch_7">
    <path clip-path="url(#pb54e6a5070)" d="M 483.969965 372.340456
L 483.969965 355.702339
L 483.969965 39.578117
L 483.969965 22.94
L 501.439988 22.94
L 501.439988 39.578117
L 501.439988 355.702339
L 501.439988 372.340456
z
" style="fill:none;"/>
   </g>
   <g id="QuadMesh_1">
    <path clip-path="url(#pb54e6a5070)" d="M 483.969965 372.340456
L 501.439988 372.340456
L 501.439988 355.702339
L 483.969965 355.702339
L 483.969965 372.340456
" style="fill:#000080;"/>
    <path clip-path="url(#pb54e6a5070)" d="M 483.969965 355.702339
L 501.439988 355.702339
L 501.439988 339.064223
L 483.969965 339.064223
L 483.969965 355.702339
" style="fill:#0000b9;"/>
    <path clip-path="url(#pb54e6a5070)" d="M 483.969965 339.064223
L 501.439988 339.064223
L 501.439988 322.426106
L 483.969965 322.426106
L 483.969965 339.064223
" style="fill:#0000f3;"/>
    <path clip-path="url(#pb54e6a5070)" d="M 483.969965 322.426106
L 501.439988 322.426106
L 501.439988 305.787989
L 483.969965 305.787989
L 483.969965 322.426106
" style="fill:#001aff;"/>
    <path clip-path="url(#pb54e6a5070)" d="M 483.969965 305.787989
L 501.439988 305.787989
L 501.439988 289.149872
L 483.969965 289.149872
L 483.969965 305.787989
" style="fill:#004cff;"/>
    <path clip-path="url(#pb54e6a5070)" d="M 483.969965 289.149872
L 501.439988 289.149872
L 501.439988 272.511755
L 483.969965 272.511755
L 483.969965 289.149872
" style="fill:#0080ff;"/>
    <path clip-path="url(#pb54e6a5070)" d="M 483.969965 272.511755
L 501.439988 272.511755
L 501.439988 255.873638
L 483.969965 255.873638
L 483.969965 272.511755
" style="fill:#00b3ff;"/>
    <path clip-path="url(#pb54e6a5070)" d="M 483.969965 255.873638
L 501.439988 255.873638
L 501.439988 239.235521
L 483.969965 239.235521
L 483.969965 255.873638
" style="fill:#00e6f7;"/>
    <path clip-path="url(#pb54e6a5070)" d="M 483.969965 239.235521
L 501.439988 239.235521
L 501.439988 222.597404
L 483.969965 222.597404
L 483.969965 239.235521
" style="fill:#29ffce;"/>
    <path clip-path="url(#pb54e6a5070)" d="M 483.969965 222.597404
L 501.439988 222.597404
L 501.439988 205.959287
L 483.969965 205.959287
L 483.969965 222.597404
" style="fill:#52ffa5;"/>
    <path clip-path="url(#pb54e6a5070)" d="M 483.969965 205.959287
L 501.439988 205.959287
L 501.439988 189.32117
L 483.969965 189.32117
L 483.969965 205.959287
" style="fill:#7bff7b;"/>
    <path clip-path="url(#pb54e6a5070)" d="M 483.969965 189.32117
L 501.439988 189.32117
L 501.439988 172.683053
L 483.969965 172.683053
L 483.969965 189.32117
" style="fill:#a5ff52;"/>
    <path clip-path="url(#pb54e6a5070)" d="M 483.969965 172.683053
L 501.439988 172.683053
L 501.439988 156.044936
L 483.969965 156.044936
L 483.969965 172.683053
" style="fill:#ceff29;"/>
    <path clip-path="url(#pb54e6a5070)" d="M 483.969965 156.044936
L 501.439988 156.044936
L 501.439988 139.406819
L 483.969965 139.406819
L 483.969965 156.044936
" style="fill:#f7f600;"/>
    <path clip-path="url(#pb54e6a5070)" d="M 483.969965 139.406819
L 501.439988 139.406819
L 501.439988 122.768702
L 483.969965 122.768702
L 483.969965 139.406819
" style="fill:#ffc600;"/>
    <path clip-path="url(#pb54e6a5070)" d="M 483.969965 122.768702
L 501.439988 122.768702
L 501.439988 106.130585
L 483.969965 106.130585
L 483.969965 122.768702
" style="fill:#ff9700;"/>
    <path clip-path="url(#pb54e6a5070)" d="M 483.969965 106.130585
L 501.439988 106.130585
L 501.439988 89.492468
L 483.969965 89.492468
L 483.969965 106.130585
" style="fill:#ff6800;"/>
    <path clip-path="url(#pb54e6a5070)" d="M 483.969965 89.492468
L 501.439988 89.492468
L 501.439988 72.854351
L 483.969965 72.854351
L 483.969965 89.492468
" style="fill:#ff3900;"/>
    <path clip-path="url(#pb54e6a5070)" d="M 483.969965 72.854351
L 501.439988 72.854351
L 501.439988 56.216234
L 483.969965 56.216234
L 483.969965 72.854351
" style="fill:#f30900;"/>
    <path clip-path="url(#pb54e6a5070)" d="M 483.969965 56.216234
L 501.439988 56.216234
L 501.439988 39.578117
L 483.969965 39.578117
L 483.969965 56.216234
" style="fill:#b90000;"/>
    <path clip-path="url(#pb54e6a5070)" d="M 483.969965 39.578117
L 501.439988 39.578117
L 501.439988 22.94
L 483.969965 22.94
L 483.969965 39.578117
" style="fill:#800000;"/>
   </g>
   <g id="matplotlib.axis_3"/>
   <g id="matplotlib.axis_4">
    <g id="ytick_8">
     <g id="line2d_48">
      <g>
       <use style="stroke:#000000;stroke-width:0.8;" x="501.439988" xlink:href="#m76e4aed56e" y="364.021398"/>
      </g>
     </g>
     <g id="text_16">
      <!-- 0.0 -->
      <defs>
       <path d="M 16.59375 4.078125
C 16.59375 6.5625 14.59375 8.15625 12.5 8.15625
C 10.5 8.15625 8.40625 6.5625 8.40625 4.078125
C 8.40625 1.59375 10.40625 0 12.5 0
C 14.5 0 16.59375 1.59375 16.59375 4.078125
z
" id="CMR17-46"/>
      </defs>
      <g transform="translate(508.439988 369.208193)scale(0.14994 -0.14994)">
       <use transform="scale(0.996264)" xlink:href="#CMR17-48"/>
       <use transform="translate(45.690477 0)scale(0.996264)" xlink:href="#CMR17-46"/>
       <use transform="translate(70.561536 0)scale(0.996264)" xlink:href="#CMR17-48"/>
      </g>
     </g>
    </g>
    <g id="ytick_9">
     <g id="line2d_49">
      <g>
       <use style="stroke:#000000;stroke-width:0.8;" x="501.439988" xlink:href="#m76e4aed56e" y="330.745164"/>
      </g>
     </g>
     <g id="text_17">
      <!-- 0.2 -->
      <g transform="translate(508.439988 335.931959)scale(0.14994 -0.14994)">
       <use transform="scale(0.996264)" xlink:href="#CMR17-48"/>
       <use transform="translate(45.690477 0)scale(0.996264)" xlink:href="#CMR17-46"/>
       <use transform="translate(70.561536 0)scale(0.996264)" xlink:href="#CMR17-50"/>
      </g>
     </g>
    </g>
    <g id="ytick_10">
     <g id="line2d_50">
      <g>
       <use style="stroke:#000000;stroke-width:0.8;" x="501.439988" xlink:href="#m76e4aed56e" y="297.46893"/>
      </g>
     </g>
     <g id="text_18">
      <!-- 0.4 -->
      <g transform="translate(508.439988 302.655725)scale(0.14994 -0.14994)">
       <use transform="scale(0.996264)" xlink:href="#CMR17-48"/>
       <use transform="translate(45.690477 0)scale(0.996264)" xlink:href="#CMR17-46"/>
       <use transform="translate(70.561536 0)scale(0.996264)" xlink:href="#CMR17-52"/>
      </g>
     </g>
    </g>
    <g id="ytick_11">
     <g id="line2d_51">
      <g>
       <use style="stroke:#000000;stroke-width:0.8;" x="501.439988" xlink:href="#m76e4aed56e" y="264.192696"/>
      </g>
     </g>
     <g id="text_19">
      <!-- 0.6 -->
      <defs>
       <path d="M 10.59375 34
C 10.59375 57.65625 21.796875 63 28.296875 63
C 30.40625 63 35.5 62.640625 37.5 59
C 35.90625 59 32.90625 59 32.90625 55.515625
C 32.90625 52.828125 35.09375 51.921875 36.5 51.921875
C 37.40625 51.921875 40.09375 52.3125 40.09375 55.625
C 40.09375 61.78125 35.09375 65.296875 28.203125 65.296875
C 16.296875 65.296875 3.796875 52.96875 3.796875 31
C 3.796875 3.953125 15.09375 -2 23.09375 -2
C 32.796875 -2 42 6.671875 42 20.046875
C 42 32.515625 33.90625 41.59375 23.703125 41.59375
C 17.59375 41.59375 13.09375 37.609375 10.59375 30.625
z
M 23.09375 0.390625
C 10.796875 0.390625 10.796875 18.75 10.796875 22.4375
C 10.796875 29.625 14.203125 40 23.5 40
C 25.203125 40 30.09375 40 33.40625 33.125
C 35.203125 29.21875 35.203125 25.140625 35.203125 20.140625
C 35.203125 14.75 35.203125 10.78125 33.09375 6.78125
C 30.90625 2.671875 27.703125 0.390625 23.09375 0.390625
z
" id="CMR17-54"/>
      </defs>
      <g transform="translate(508.439988 269.379491)scale(0.14994 -0.14994)">
       <use transform="scale(0.996264)" xlink:href="#CMR17-48"/>
       <use transform="translate(45.690477 0)scale(0.996264)" xlink:href="#CMR17-46"/>
       <use transform="translate(70.561536 0)scale(0.996264)" xlink:href="#CMR17-54"/>
      </g>
     </g>
    </g>
    <g id="ytick_12">
     <g id="line2d_52">
      <g>
       <use style="stroke:#000000;stroke-width:0.8;" x="501.439988" xlink:href="#m76e4aed56e" y="230.916462"/>
      </g>
     </g>
     <g id="text_20">
      <!-- 0.8 -->
      <defs>
       <path d="M 27.203125 35.375
C 33.5 38.546875 39.90625 43.328125 39.90625 50.984375
C 39.90625 60.015625 31.09375 65.296875 23 65.296875
C 13.90625 65.296875 5.90625 58.734375 5.90625 49.6875
C 5.90625 47.203125 6.5 42.921875 10.40625 39.140625
C 11.40625 38.15625 15.59375 35.171875 18.296875 33.28125
C 13.796875 30.984375 3.296875 25.53125 3.296875 14.59375
C 3.296875 4.359375 13.09375 -2 22.796875 -2
C 33.5 -2 42.5 5.65625 42.5 15.78125
C 42.5 24.84375 36.40625 29.015625 32.40625 31.703125
z
M 14.09375 44.09375
C 13.296875 44.59375 9.296875 47.671875 9.296875 52.359375
C 9.296875 58.421875 15.59375 63 22.796875 63
C 30.703125 63 36.5 57.4375 36.5 50.96875
C 36.5 41.703125 26.09375 36.421875 25.59375 36.421875
C 25.5 36.421875 25.40625 36.421875 24.59375 37.03125
z
M 32.5 23.734375
C 34 22.640625 38.796875 19.375 38.796875 13.296875
C 38.796875 5.953125 31.40625 0.390625 23 0.390625
C 13.90625 0.390625 7 6.84375 7 14.6875
C 7 22.546875 13.09375 29.09375 20 32.1875
z
" id="CMR17-56"/>
      </defs>
      <g transform="translate(508.439988 236.103257)scale(0.14994 -0.14994)">
       <use transform="scale(0.996264)" xlink:href="#CMR17-48"/>
       <use transform="translate(45.690477 0)scale(0.996264)" xlink:href="#CMR17-46"/>
       <use transform="translate(70.561536 0)scale(0.996264)" xlink:href="#CMR17-56"/>
      </g>
     </g>
    </g>
    <g id="ytick_13">
     <g id="line2d_53">
      <g>
       <use style="stroke:#000000;stroke-width:0.8;" x="501.439988" xlink:href="#m76e4aed56e" y="197.640228"/>
      </g>
     </g>
     <g id="text_21">
      <!-- 1.0 -->
      <g transform="translate(508.439988 202.827023)scale(0.14994 -0.14994)">
       <use transform="scale(0.996264)" xlink:href="#CMR17-49"/>
       <use transform="translate(45.690477 0)scale(0.996264)" xlink:href="#CMR17-46"/>
       <use transform="translate(70.561536 0)scale(0.996264)" xlink:href="#CMR17-48"/>
      </g>
     </g>
    </g>
    <g id="ytick_14">
     <g id="line2d_54">
      <g>
       <use style="stroke:#000000;stroke-width:0.8;" x="501.439988" xlink:href="#m76e4aed56e" y="164.363994"/>
      </g>
     </g>
     <g id="text_22">
      <!-- 1.2 -->
      <g transform="translate(508.439988 169.550789)scale(0.14994 -0.14994)">
       <use transform="scale(0.996264)" xlink:href="#CMR17-49"/>
       <use transform="translate(45.690477 0)scale(0.996264)" xlink:href="#CMR17-46"/>
       <use transform="translate(70.561536 0)scale(0.996264)" xlink:href="#CMR17-50"/>
      </g>
     </g>
    </g>
    <g id="ytick_15">
     <g id="line2d_55">
      <g>
       <use style="stroke:#000000;stroke-width:0.8;" x="501.439988" xlink:href="#m76e4aed56e" y="131.08776"/>
      </g>
     </g>
     <g id="text_23">
      <!-- 1.4 -->
      <g transform="translate(508.439988 136.274555)scale(0.14994 -0.14994)">
       <use transform="scale(0.996264)" xlink:href="#CMR17-49"/>
       <use transform="translate(45.690477 0)scale(0.996264)" xlink:href="#CMR17-46"/>
       <use transform="translate(70.561536 0)scale(0.996264)" xlink:href="#CMR17-52"/>
      </g>
     </g>
    </g>
    <g id="ytick_16">
     <g id="line2d_56">
      <g>
       <use style="stroke:#000000;stroke-width:0.8;" x="501.439988" xlink:href="#m76e4aed56e" y="97.811526"/>
      </g>
     </g>
     <g id="text_24">
      <!-- 1.6 -->
      <g transform="translate(508.439988 102.998321)scale(0.14994 -0.14994)">
       <use transform="scale(0.996264)" xlink:href="#CMR17-49"/>
       <use transform="translate(45.690477 0)scale(0.996264)" xlink:href="#CMR17-46"/>
       <use transform="translate(70.561536 0)scale(0.996264)" xlink:href="#CMR17-54"/>
      </g>
     </g>
    </g>
    <g id="ytick_17">
     <g id="line2d_57">
      <g>
       <use style="stroke:#000000;stroke-width:0.8;" x="501.439988" xlink:href="#m76e4aed56e" y="64.535292"/>
      </g>
     </g>
     <g id="text_25">
      <!-- 1.8 -->
      <g transform="translate(508.439988 69.722087)scale(0.14994 -0.14994)">
       <use transform="scale(0.996264)" xlink:href="#CMR17-49"/>
       <use transform="translate(45.690477 0)scale(0.996264)" xlink:href="#CMR17-46"/>
       <use transform="translate(70.561536 0)scale(0.996264)" xlink:href="#CMR17-56"/>
      </g>
     </g>
    </g>
    <g id="ytick_18">
     <g id="line2d_58">
      <g>
       <use style="stroke:#000000;stroke-width:0.8;" x="501.439988" xlink:href="#m76e4aed56e" y="31.259058"/>
      </g>
     </g>
     <g id="text_26">
      <!-- 2.0 -->
      <g transform="translate(508.439988 36.445853)scale(0.14994 -0.14994)">
       <use transform="scale(0.996264)" xlink:href="#CMR17-50"/>
       <use transform="translate(45.690477 0)scale(0.996264)" xlink:href="#CMR17-46"/>
       <use transform="translate(70.561536 0)scale(0.996264)" xlink:href="#CMR17-48"/>
      </g>
     </g>
    </g>
   </g>
   <g id="patch_8">
    <path d="M 483.969965 372.340456
L 483.969965 355.702339
L 483.969965 39.578117
L 483.969965 22.94
L 501.439988 22.94
L 501.439988 39.578117
L 501.439988 355.702339
L 501.439988 372.340456
z
" style="fill:none;stroke:#000000;stroke-linejoin:miter;stroke-width:0.8;"/>
   </g>
  </g>
 </g>
 <defs>
  <clipPath id="p71e4492aa8">
   <rect height="349.400456" width="387.146851" x="72.626436" y="22.94"/>
  </clipPath>
  <clipPath id="pb54e6a5070">
   <rect height="349.400456" width="17.470023" x="483.969965" y="22.94"/>
  </clipPath>
 </defs>
</svg>
