<?xml version="1.0" encoding="utf-8" standalone="no"?>
<!DOCTYPE svg PUBLIC "-//W3C//DTD SVG 1.1//EN"
  "http://www.w3.org/Graphics/SVG/1.1/DTD/svg11.dtd">
<!-- Created with matplotlib (https://matplotlib.org/) -->
<svg height="432pt" version="1.1" viewBox="0 0 576 432" width="576pt" xmlns="http://www.w3.org/2000/svg" xmlns:xlink="http://www.w3.org/1999/xlink">
 <metadata>
  <rdf:RDF xmlns:cc="http://creativecommons.org/ns#" xmlns:dc="http://purl.org/dc/elements/1.1/" xmlns:rdf="http://www.w3.org/1999/02/22-rdf-syntax-ns#">
   <cc:Work>
    <dc:type rdf:resource="http://purl.org/dc/dcmitype/StillImage"/>
    <dc:date>2020-11-23T11:21:15.340322</dc:date>
    <dc:format>image/svg+xml</dc:format>
    <dc:creator>
     <cc:Agent>
      <dc:title>Matplotlib v3.3.3, https://matplotlib.org/</dc:title>
     </cc:Agent>
    </dc:creator>
   </cc:Work>
  </rdf:RDF>
 </metadata>
 <defs>
  <style type="text/css">*{stroke-linecap:butt;stroke-linejoin:round;}</style>
 </defs>
 <g id="figure_1">
  <g id="patch_1">
   <path d="M 0 432
L 576 432
L 576 0
L 0 0
z
" style="fill:none;"/>
  </g>
  <g id="axes_1">
   <g id="patch_2">
    <path d="M 72.626436 372.340456
L 553.06 372.340456
L 553.06 22.94
L 72.626436 22.94
z
" style="fill:none;"/>
   </g>
   <g id="matplotlib.axis_1">
    <g id="xtick_1">
     <g id="line2d_1">
      <defs>
       <path d="M 0 0
L 0 3.5
" id="ma6ed65aef3" style="stroke:#000000;stroke-width:0.8;"/>
      </defs>
      <g>
       <use style="stroke:#000000;stroke-width:0.8;" x="94.464325" xlink:href="#ma6ed65aef3" y="372.340456"/>
      </g>
     </g>
     <g id="line2d_2">
      <defs>
       <path d="M 0 0
L 0 -3.5
" id="mf291c20022" style="stroke:#000000;stroke-width:0.8;"/>
      </defs>
      <g>
       <use style="stroke:#000000;stroke-width:0.8;" x="94.464325" xlink:href="#mf291c20022" y="22.94"/>
      </g>
     </g>
     <g id="text_1">
      <!-- $\mathdefault{0}$ -->
      <g transform="translate(90.807673 389.714046)scale(0.14994 -0.14994)">
       <defs>
        <path d="M 42 31.84375
C 42 37.96875 41.90625 48.421875 37.703125 56.453125
C 34 63.484375 28.09375 66 22.90625 66
C 18.09375 66 12 63.78125 8.203125 56.5625
C 4.203125 49.015625 3.796875 39.671875 3.796875 31.84375
C 3.796875 26.109375 3.90625 17.375 7 9.734375
C 11.296875 -0.609375 19 -2 22.90625 -2
C 27.5 -2 34.5 -0.109375 38.59375 9.4375
C 41.59375 16.375 42 24.5 42 31.84375
z
M 22.90625 -0.40625
C 16.5 -0.40625 12.703125 5.125 11.296875 12.75
C 10.203125 18.6875 10.203125 27.328125 10.203125 32.953125
C 10.203125 40.6875 10.203125 47.109375 11.5 53.234375
C 13.40625 61.78125 19 64.390625 22.90625 64.390625
C 27 64.390625 32.296875 61.671875 34.203125 53.4375
C 35.5 47.71875 35.59375 40.984375 35.59375 32.953125
C 35.59375 26.421875 35.59375 18.375 34.40625 12.453125
C 32.296875 1.5 26.40625 -0.40625 22.90625 -0.40625
z
" id="CMR17-48"/>
       </defs>
       <use transform="scale(0.996264)" xlink:href="#CMR17-48"/>
      </g>
     </g>
    </g>
    <g id="xtick_2">
     <g id="line2d_3">
      <g>
       <use style="stroke:#000000;stroke-width:0.8;" x="181.815882" xlink:href="#ma6ed65aef3" y="372.340456"/>
      </g>
     </g>
     <g id="line2d_4">
      <g>
       <use style="stroke:#000000;stroke-width:0.8;" x="181.815882" xlink:href="#mf291c20022" y="22.94"/>
      </g>
     </g>
     <g id="text_2">
      <!-- $\mathdefault{1}$ -->
      <g transform="translate(178.15923 389.714046)scale(0.14994 -0.14994)">
       <defs>
        <path d="M 26.59375 63.796875
C 26.59375 65.890625 26.5 66 25.09375 66
C 21.203125 61.359375 15.296875 59.890625 9.703125 59.6875
C 9.40625 59.6875 8.90625 59.6875 8.796875 59.5
C 8.703125 59.296875 8.703125 59.09375 8.703125 57
C 11.796875 57 17 57.59375 21 59.984375
L 21 7.296875
C 21 3.796875 20.796875 2.59375 12.203125 2.59375
L 9.203125 2.59375
L 9.203125 0
C 14 0.09375 19 0.1875 23.796875 0.1875
C 28.59375 0.1875 33.59375 0.09375 38.40625 0
L 38.40625 2.59375
L 35.40625 2.59375
C 26.796875 2.59375 26.59375 3.6875 26.59375 7.296875
z
" id="CMR17-49"/>
       </defs>
       <use transform="scale(0.996264)" xlink:href="#CMR17-49"/>
      </g>
     </g>
    </g>
    <g id="xtick_3">
     <g id="line2d_5">
      <g>
       <use style="stroke:#000000;stroke-width:0.8;" x="269.167439" xlink:href="#ma6ed65aef3" y="372.340456"/>
      </g>
     </g>
     <g id="line2d_6">
      <g>
       <use style="stroke:#000000;stroke-width:0.8;" x="269.167439" xlink:href="#mf291c20022" y="22.94"/>
      </g>
     </g>
     <g id="text_3">
      <!-- $\mathdefault{2}$ -->
      <g transform="translate(265.510787 389.714046)scale(0.14994 -0.14994)">
       <defs>
        <path d="M 41.703125 15.46875
L 39.90625 15.46875
C 38.90625 8.390625 38.09375 7.1875 37.703125 6.59375
C 37.203125 5.796875 30 5.796875 28.59375 5.796875
L 9.40625 5.796875
C 13 9.6875 20 16.765625 28.5 24.9375
C 34.59375 30.71875 41.703125 37.5 41.703125 47.390625
C 41.703125 59.1875 32.296875 66 21.796875 66
C 10.796875 66 4.09375 56.296875 4.09375 47.296875
C 4.09375 43.390625 7 42.890625 8.203125 42.890625
C 9.203125 42.890625 12.203125 43.484375 12.203125 46.984375
C 12.203125 50.09375 9.59375 51 8.203125 51
C 7.59375 51 7 50.890625 6.59375 50.6875
C 8.5 59.1875 14.296875 63.390625 20.40625 63.390625
C 29.09375 63.390625 34.796875 56.5 34.796875 47.390625
C 34.796875 38.703125 29.703125 31.21875 24 24.734375
L 4.09375 2.296875
L 4.09375 0
L 39.296875 0
z
" id="CMR17-50"/>
       </defs>
       <use transform="scale(0.996264)" xlink:href="#CMR17-50"/>
      </g>
     </g>
    </g>
    <g id="xtick_4">
     <g id="line2d_7">
      <g>
       <use style="stroke:#000000;stroke-width:0.8;" x="356.518996" xlink:href="#ma6ed65aef3" y="372.340456"/>
      </g>
     </g>
     <g id="line2d_8">
      <g>
       <use style="stroke:#000000;stroke-width:0.8;" x="356.518996" xlink:href="#mf291c20022" y="22.94"/>
      </g>
     </g>
     <g id="text_4">
      <!-- $\mathdefault{3}$ -->
      <g transform="translate(352.862345 389.714046)scale(0.14994 -0.14994)">
       <defs>
        <path d="M 22.09375 34
C 31 34 34.90625 26.140625 34.90625 17.09375
C 34.90625 5.03125 28.5 0.390625 22.703125 0.390625
C 17.40625 0.390625 8.796875 3.015625 6.09375 10.796875
C 6.59375 10.59375 7.09375 10.59375 7.59375 10.59375
C 10 10.59375 11.796875 12.1875 11.796875 14.796875
C 11.796875 17.6875 9.59375 19 7.59375 19
C 5.90625 19 3.296875 18.1875 3.296875 14.484375
C 3.296875 5.234375 12.296875 -2 22.90625 -2
C 34 -2 42.5 6.75 42.5 16.984375
C 42.5 26.84375 34.5 34 25 35.09375
C 32.59375 36.671875 39.90625 43.375 39.90625 52.390625
C 39.90625 60.25 32 66 23 66
C 13.90625 66 5.90625 60.34375 5.90625 52.296875
C 5.90625 48.796875 8.5 48.1875 9.796875 48.1875
C 11.90625 48.1875 13.703125 49.484375 13.703125 52.09375
C 13.703125 54.6875 11.90625 56 9.796875 56
C 9.40625 56 8.90625 56 8.5 55.796875
C 11.40625 62.484375 19.296875 63.6875 22.796875 63.6875
C 26.296875 63.6875 32.90625 61.96875 32.90625 52.296875
C 32.90625 49.484375 32.5 44.546875 29.09375 40.21875
C 26.09375 36.390625 22.703125 36.1875 19.40625 35.890625
C 18.90625 35.890625 16.59375 35.6875 16.203125 35.6875
C 15.5 35.59375 15.09375 35.5 15.09375 34.796875
C 15.09375 34.09375 15.203125 34 17.203125 34
z
" id="CMR17-51"/>
       </defs>
       <use transform="scale(0.996264)" xlink:href="#CMR17-51"/>
      </g>
     </g>
    </g>
    <g id="xtick_5">
     <g id="line2d_9">
      <g>
       <use style="stroke:#000000;stroke-width:0.8;" x="443.870554" xlink:href="#ma6ed65aef3" y="372.340456"/>
      </g>
     </g>
     <g id="line2d_10">
      <g>
       <use style="stroke:#000000;stroke-width:0.8;" x="443.870554" xlink:href="#mf291c20022" y="22.94"/>
      </g>
     </g>
     <g id="text_5">
      <!-- $\mathdefault{4}$ -->
      <g transform="translate(440.213902 389.714046)scale(0.14994 -0.14994)">
       <defs>
        <path d="M 33.59375 64.796875
C 33.59375 66.890625 33.5 67 31.703125 67
L 2 19.59375
L 2 17
L 27.796875 17
L 27.796875 7.1875
C 27.796875 3.59375 27.59375 2.59375 20.59375 2.59375
L 18.703125 2.59375
L 18.703125 0
C 21.90625 0.1875 27.296875 0.1875 30.703125 0.1875
C 34.09375 0.1875 39.5 0.1875 42.703125 0
L 42.703125 2.59375
L 40.796875 2.59375
C 33.796875 2.59375 33.59375 3.59375 33.59375 7.1875
L 33.59375 17
L 43.796875 17
L 43.796875 19.59375
L 33.59375 19.59375
z
M 28.09375 58.171875
L 28.09375 19.59375
L 4 19.59375
z
" id="CMR17-52"/>
       </defs>
       <use transform="scale(0.996264)" xlink:href="#CMR17-52"/>
      </g>
     </g>
    </g>
    <g id="xtick_6">
     <g id="line2d_11">
      <g>
       <use style="stroke:#000000;stroke-width:0.8;" x="531.222111" xlink:href="#ma6ed65aef3" y="372.340456"/>
      </g>
     </g>
     <g id="line2d_12">
      <g>
       <use style="stroke:#000000;stroke-width:0.8;" x="531.222111" xlink:href="#mf291c20022" y="22.94"/>
      </g>
     </g>
     <g id="text_6">
      <!-- $\mathdefault{5}$ -->
      <g transform="translate(527.565459 389.714046)scale(0.14994 -0.14994)">
       <defs>
        <path d="M 11.40625 58.59375
C 12.40625 58.1875 16.5 56.890625 20.703125 56.890625
C 30 56.890625 35.09375 61.890625 38 64.6875
C 38 65.484375 38 66 37.40625 66
C 37.296875 66 37.09375 66 36.296875 65.59375
C 32.796875 64.09375 28.703125 63 23.703125 63
C 20.703125 63 16.203125 63.359375 11.296875 65.484375
C 10.203125 66 10 66 9.90625 66
C 9.40625 66 9.296875 65.890625 9.296875 63.90625
L 9.296875 34.859375
C 9.296875 33.015625 9.296875 32.5 10.296875 32.5
C 10.796875 32.5 11 32.703125 11.5 33.421875
C 14.703125 38.046875 19.09375 40 24.09375 40
C 27.59375 40 35.09375 37.734375 35.09375 20.203125
C 35.09375 16.984375 35.09375 11.1875 32.09375 6.59375
C 29.59375 2.484375 25.703125 0.390625 21.40625 0.390625
C 14.796875 0.390625 8.09375 4.984375 6.296875 12.6875
C 6.703125 12.59375 7.5 12.390625 7.90625 12.390625
C 9.203125 12.390625 11.703125 13.09375 11.703125 16.1875
C 11.703125 18.890625 9.796875 20 7.90625 20
C 5.59375 20 4.09375 18.59375 4.09375 15.796875
C 4.09375 7.09375 11 -2 21.59375 -2
C 31.90625 -2 41.703125 6.890625 41.703125 19.796875
C 41.703125 32.09375 33.90625 41.59375 24.203125 41.59375
C 19.09375 41.59375 14.796875 39.6875 11.40625 36
z
" id="CMR17-53"/>
       </defs>
       <use transform="scale(0.996264)" xlink:href="#CMR17-53"/>
      </g>
     </g>
    </g>
    <g id="text_7">
     <!-- $x$ -->
     <g transform="translate(307.854153 409.071936)scale(0.18 -0.18)">
      <defs>
       <path d="M 47.40625 41
C 44.203125 40.390625 43 37.984375 43 36.09375
C 43 33.6875 44.90625 32.890625 46.296875 32.890625
C 49.296875 32.890625 51.40625 35.484375 51.40625 38.1875
C 51.40625 42.09375 46.59375 44 42.40625 44
C 36.296875 44 32.90625 38.296875 32 36.390625
C 29.703125 43.59375 23.5 44 21.703125 44
C 11.5 44 6.09375 31.140625 6.09375 28.890625
C 6.09375 28.484375 6.5 27.96875 7.203125 27.96875
C 8 27.96875 8.203125 28.578125 8.40625 28.984375
C 11.796875 40.1875 18.5 41.984375 21.40625 41.984375
C 25.90625 41.984375 26.796875 38.09375 26.796875 35.6875
C 26.796875 33.484375 26.203125 31.140625 25 26.21875
L 21.59375 12.15625
C 20.09375 6.09375 17.203125 1 11.90625 1
C 11.40625 1 8.90625 1 6.796875 1.96875
C 10.40625 2.59375 11.203125 5.59375 11.203125 6.796875
C 11.203125 8.796875 9.703125 10 7.796875 10
C 5.40625 10 2.796875 7.890625 2.796875 4.6875
C 2.796875 0.890625 7.5 -1 11.796875 -1
C 16.59375 -1 20 2.390625 22.09375 6.484375
C 23.703125 1 28.703125 -1 32.40625 -1
C 42.59375 -1 48 11.734375 48 14
C 48 14.515625 47.59375 14.921875 47 14.921875
C 46.09375 14.921875 46 14.40625 45.703125 13.59375
C 43 4.6875 37.203125 1 32.703125 1
C 29.203125 1 27.296875 3.1875 27.296875 7.296875
C 27.296875 9.484375 27.703125 11.125 29.296875 17.90625
L 32.796875 31.859375
C 34.296875 37.890625 37.703125 41.984375 42.296875 41.984375
C 42.5 41.984375 45.296875 41.984375 47.40625 41
z
" id="CMMI12-120"/>
      </defs>
      <use transform="scale(0.996264)" xlink:href="#CMMI12-120"/>
     </g>
    </g>
   </g>
   <g id="matplotlib.axis_2">
    <g id="ytick_1">
     <g id="line2d_13">
      <defs>
       <path d="M 0 0
L -3.5 0
" id="m58cc7c9f5c" style="stroke:#000000;stroke-width:0.8;"/>
      </defs>
      <g>
       <use style="stroke:#000000;stroke-width:0.8;" x="72.626436" xlink:href="#m58cc7c9f5c" y="368.142375"/>
      </g>
     </g>
     <g id="line2d_14">
      <defs>
       <path d="M 0 0
L 3.5 0
" id="m6386996432" style="stroke:#000000;stroke-width:0.8;"/>
      </defs>
      <g>
       <use style="stroke:#000000;stroke-width:0.8;" x="553.06" xlink:href="#m6386996432" y="368.142375"/>
      </g>
     </g>
     <g id="text_8">
      <!-- $\mathdefault{−25}$ -->
      <g transform="translate(39.381364 373.32917)scale(0.14994 -0.14994)">
       <defs>
        <path d="M 65.90625 23
C 67.59375 23 69.40625 23 69.40625 25
C 69.40625 27 67.59375 27 65.90625 27
L 11.796875 27
C 10.09375 27 8.296875 27 8.296875 25
C 8.296875 23 10.09375 23 11.796875 23
z
" id="CMSY10-0"/>
       </defs>
       <use transform="scale(0.996264)" xlink:href="#CMSY10-0"/>
       <use transform="translate(77.487468 0)scale(0.996264)" xlink:href="#CMR17-50"/>
       <use transform="translate(123.177945 0)scale(0.996264)" xlink:href="#CMR17-53"/>
      </g>
     </g>
    </g>
    <g id="ytick_2">
     <g id="line2d_15">
      <g>
       <use style="stroke:#000000;stroke-width:0.8;" x="72.626436" xlink:href="#m58cc7c9f5c" y="311.253507"/>
      </g>
     </g>
     <g id="line2d_16">
      <g>
       <use style="stroke:#000000;stroke-width:0.8;" x="553.06" xlink:href="#m6386996432" y="311.253507"/>
      </g>
     </g>
     <g id="text_9">
      <!-- $\mathdefault{−20}$ -->
      <g transform="translate(39.381364 316.440302)scale(0.14994 -0.14994)">
       <use transform="scale(0.996264)" xlink:href="#CMSY10-0"/>
       <use transform="translate(77.487468 0)scale(0.996264)" xlink:href="#CMR17-50"/>
       <use transform="translate(123.177945 0)scale(0.996264)" xlink:href="#CMR17-48"/>
      </g>
     </g>
    </g>
    <g id="ytick_3">
     <g id="line2d_17">
      <g>
       <use style="stroke:#000000;stroke-width:0.8;" x="72.626436" xlink:href="#m58cc7c9f5c" y="254.364639"/>
      </g>
     </g>
     <g id="line2d_18">
      <g>
       <use style="stroke:#000000;stroke-width:0.8;" x="553.06" xlink:href="#m6386996432" y="254.364639"/>
      </g>
     </g>
     <g id="text_10">
      <!-- $\mathdefault{−15}$ -->
      <g transform="translate(39.381364 259.551434)scale(0.14994 -0.14994)">
       <use transform="scale(0.996264)" xlink:href="#CMSY10-0"/>
       <use transform="translate(77.487468 0)scale(0.996264)" xlink:href="#CMR17-49"/>
       <use transform="translate(123.177945 0)scale(0.996264)" xlink:href="#CMR17-53"/>
      </g>
     </g>
    </g>
    <g id="ytick_4">
     <g id="line2d_19">
      <g>
       <use style="stroke:#000000;stroke-width:0.8;" x="72.626436" xlink:href="#m58cc7c9f5c" y="197.475771"/>
      </g>
     </g>
     <g id="line2d_20">
      <g>
       <use style="stroke:#000000;stroke-width:0.8;" x="553.06" xlink:href="#m6386996432" y="197.475771"/>
      </g>
     </g>
     <g id="text_11">
      <!-- $\mathdefault{−10}$ -->
      <g transform="translate(39.381364 202.662566)scale(0.14994 -0.14994)">
       <use transform="scale(0.996264)" xlink:href="#CMSY10-0"/>
       <use transform="translate(77.487468 0)scale(0.996264)" xlink:href="#CMR17-49"/>
       <use transform="translate(123.177945 0)scale(0.996264)" xlink:href="#CMR17-48"/>
      </g>
     </g>
    </g>
    <g id="ytick_5">
     <g id="line2d_21">
      <g>
       <use style="stroke:#000000;stroke-width:0.8;" x="72.626436" xlink:href="#m58cc7c9f5c" y="140.586903"/>
      </g>
     </g>
     <g id="line2d_22">
      <g>
       <use style="stroke:#000000;stroke-width:0.8;" x="553.06" xlink:href="#m6386996432" y="140.586903"/>
      </g>
     </g>
     <g id="text_12">
      <!-- $\mathdefault{−5}$ -->
      <g transform="translate(46.694668 145.773698)scale(0.14994 -0.14994)">
       <use transform="scale(0.996264)" xlink:href="#CMSY10-0"/>
       <use transform="translate(77.487468 0)scale(0.996264)" xlink:href="#CMR17-53"/>
      </g>
     </g>
    </g>
    <g id="ytick_6">
     <g id="line2d_23">
      <g>
       <use style="stroke:#000000;stroke-width:0.8;" x="72.626436" xlink:href="#m58cc7c9f5c" y="83.698035"/>
      </g>
     </g>
     <g id="line2d_24">
      <g>
       <use style="stroke:#000000;stroke-width:0.8;" x="553.06" xlink:href="#m6386996432" y="83.698035"/>
      </g>
     </g>
     <g id="text_13">
      <!-- $\mathdefault{0}$ -->
      <g transform="translate(58.313132 88.88483)scale(0.14994 -0.14994)">
       <use transform="scale(0.996264)" xlink:href="#CMR17-48"/>
      </g>
     </g>
    </g>
    <g id="ytick_7">
     <g id="line2d_25">
      <g>
       <use style="stroke:#000000;stroke-width:0.8;" x="72.626436" xlink:href="#m58cc7c9f5c" y="26.809168"/>
      </g>
     </g>
     <g id="line2d_26">
      <g>
       <use style="stroke:#000000;stroke-width:0.8;" x="553.06" xlink:href="#m6386996432" y="26.809168"/>
      </g>
     </g>
     <g id="text_14">
      <!-- $\mathdefault{5}$ -->
      <g transform="translate(58.313132 31.995962)scale(0.14994 -0.14994)">
       <use transform="scale(0.996264)" xlink:href="#CMR17-53"/>
      </g>
     </g>
    </g>
    <g id="text_15">
     <!-- $y$ -->
     <g transform="translate(31.8933 201.921005)rotate(-90)scale(0.18 -0.18)">
      <defs>
       <path d="M 26.296875 -10.515625
C 23.59375 -14.390625 19.703125 -18 14.796875 -18
C 13.59375 -18 8.796875 -17.796875 7.296875 -12.90625
C 7.59375 -13.015625 8.09375 -13.015625 8.296875 -13.015625
C 11.296875 -13.015625 13.296875 -10.40625 13.296875 -8.109375
C 13.296875 -5.8125 11.40625 -5 9.90625 -5
C 8.296875 -5 4.796875 -6.203125 4.796875 -11.109375
C 4.796875 -16.40625 9.09375 -20 14.796875 -20
C 24.796875 -20 34.90625 -10.515625 37.703125 -0.109375
L 47.5 38.796875
C 47.59375 39.296875 47.796875 39.890625 47.796875 40.484375
C 47.796875 41.984375 46.59375 43 45.09375 43
C 44.203125 43 42.09375 42.59375 41.296875 39.59375
L 33.90625 10.265625
C 33.40625 8.46875 33.40625 8.28125 32.59375 7.171875
C 30.59375 4.390625 27.296875 1 22.5 1
C 16.90625 1 16.40625 6.484375 16.40625 9.171875
C 16.40625 14.859375 19.09375 22.546875 21.796875 29.71875
C 22.90625 32.609375 23.5 34.015625 23.5 36.015625
C 23.5 40.203125 20.5 44 15.59375 44
C 6.40625 44 2.703125 29.53125 2.703125 28.71875
C 2.703125 28.328125 3.09375 27.828125 3.796875 27.828125
C 4.703125 27.828125 4.796875 28.234375 5.203125 29.625
C 7.59375 38 11.40625 41.984375 15.296875 41.984375
C 16.203125 41.984375 17.90625 41.984375 17.90625 38.703125
C 17.90625 36.109375 16.796875 33.21875 15.296875 29.421875
C 10.40625 16.359375 10.40625 13.0625 10.40625 10.671875
C 10.40625 1.1875 17.203125 -1 22.203125 -1
C 25.09375 -1 28.703125 -0.109375 32.203125 3.59375
L 32.296875 3.484375
C 30.796875 -2.203125 29.796875 -5.609375 26.296875 -10.515625
z
" id="CMMI12-121"/>
      </defs>
      <use transform="scale(0.996264)" xlink:href="#CMMI12-121"/>
     </g>
    </g>
   </g>
   <g id="line2d_27">
    <path clip-path="url(#p6ada38c130)" d="M 94.464325 83.698035
L 98.87602 83.123645
L 103.287715 82.550719
L 107.69941 81.980719
L 112.111104 81.415098
L 116.522799 80.8553
L 120.934494 80.302751
L 125.346189 79.758861
L 129.757884 79.225016
L 134.169578 78.702579
L 138.581273 78.192881
L 142.992968 77.697223
L 147.404663 77.216868
L 151.816358 76.753041
L 156.228052 76.306925
L 160.639747 75.879659
L 165.051442 75.472331
L 169.463137 75.085981
L 173.874832 74.721593
L 178.286526 74.380097
L 182.698221 74.062363
L 187.109916 73.769203
L 191.521611 73.501363
L 195.933306 73.259528
L 200.345 73.044312
L 204.756695 72.856266
L 209.16839 72.695869
L 213.580085 72.56353
L 217.99178 72.459586
L 222.403474 72.384303
L 226.815169 72.337872
L 231.226864 72.320412
L 235.638559 72.331968
L 240.050254 72.372509
L 244.461948 72.441933
L 248.873643 72.540063
L 253.285338 72.666647
L 257.697033 72.821365
L 262.108728 73.00382
L 266.520422 73.213547
L 270.932117 73.450013
L 275.343812 73.712613
L 279.755507 74.000678
L 284.167202 74.313474
L 288.578897 74.650202
L 292.990591 75.010004
L 297.402286 75.391962
L 301.813981 75.795103
L 306.225676 76.218398
L 310.637371 76.660768
L 315.049065 77.121084
L 319.46076 77.598173
L 323.872455 78.090818
L 328.28415 78.597762
L 332.695845 79.117714
L 337.107539 79.649346
L 341.519234 80.191303
L 345.930929 80.742203
L 350.342624 81.300641
L 354.754319 81.865193
L 359.166013 82.434419
L 363.577708 83.006868
L 367.989403 83.581079
L 372.401098 84.155589
L 376.812793 84.728932
L 381.224487 85.299645
L 385.636182 85.866275
L 390.047877 86.427374
L 394.459572 86.981514
L 398.871267 87.527279
L 403.282961 88.06328
L 407.694656 88.588148
L 412.106351 89.100545
L 416.518046 89.599165
L 420.929741 90.082735
L 425.341435 90.550023
L 429.75313 90.999837
L 434.164825 91.43103
L 438.57652 91.842502
L 442.988215 92.233204
L 447.399909 92.602139
L 451.811604 92.948367
L 456.223299 93.271004
L 460.634994 93.569229
L 465.046689 93.842279
L 469.458383 94.08946
L 473.870078 94.31014
L 478.281773 94.503757
L 482.693468 94.669817
L 487.105163 94.807897
L 491.516857 94.917644
L 495.928552 94.998779
L 500.340247 95.051094
L 504.751942 95.074457
L 509.163637 95.068807
L 513.575332 95.034159
L 517.987026 94.970602
L 522.398721 94.878297
L 526.810416 94.75748
L 531.222111 94.608459
" style="fill:none;stroke:#000080;stroke-linecap:square;stroke-width:2;"/>
   </g>
   <g id="line2d_28">
    <path clip-path="url(#p6ada38c130)" d="M 94.464325 83.698035
L 98.87602 83.271907
L 103.287715 82.785773
L 107.69941 82.276047
L 112.111104 81.752525
L 116.522799 81.220802
L 120.934494 80.684857
L 125.346189 80.14787
L 129.757884 79.612554
L 134.169578 79.081322
L 138.581273 78.55638
L 142.992968 78.039776
L 147.404663 77.533436
L 151.816358 77.039178
L 156.228052 76.55873
L 160.639747 76.093736
L 165.051442 75.645761
L 169.463137 75.216291
L 173.874832 74.806741
L 178.286526 74.418447
L 182.698221 74.052674
L 187.109916 73.710609
L 191.521611 73.393363
L 195.933306 73.101969
L 200.345 72.837381
L 204.756695 72.600472
L 209.16839 72.392034
L 213.580085 72.212777
L 217.99178 72.063322
L 222.403474 71.944211
L 226.815169 71.855896
L 231.226864 71.798741
L 235.638559 71.773026
L 240.050254 71.778941
L 244.461948 71.816586
L 248.873643 71.885977
L 253.285338 71.987038
L 257.697033 72.119606
L 262.108728 72.283433
L 266.520422 72.478182
L 270.932117 72.703432
L 275.343812 72.958678
L 279.755507 73.24333
L 284.167202 73.556719
L 288.578897 73.898097
L 292.990591 74.266636
L 297.402286 74.661436
L 301.813981 75.081523
L 306.225676 75.525851
L 310.637371 75.99331
L 315.049065 76.482723
L 319.46076 76.992854
L 323.872455 77.522406
L 328.28415 78.07003
L 332.695845 78.634325
L 337.107539 79.213843
L 341.519234 79.807092
L 345.930929 80.412541
L 350.342624 81.028623
L 354.754319 81.65374
L 359.166013 82.286266
L 363.577708 82.924554
L 367.989403 83.566938
L 372.401098 84.211735
L 376.812793 84.857257
L 381.224487 85.501807
L 385.636182 86.14369
L 390.047877 86.781212
L 394.459572 87.412691
L 398.871267 88.036454
L 403.282961 88.650847
L 407.694656 89.254239
L 412.106351 89.845022
L 416.518046 90.42162
L 420.929741 90.982491
L 425.341435 91.526132
L 429.75313 92.051081
L 434.164825 92.555925
L 438.57652 93.039298
L 442.988215 93.49989
L 447.399909 93.936449
L 451.811604 94.347782
L 456.223299 94.73276
L 460.634994 95.090323
L 465.046689 95.419479
L 469.458383 95.719308
L 473.870078 95.988968
L 478.281773 96.227693
L 482.693468 96.434794
L 487.105163 96.609667
L 491.516857 96.75179
L 495.928552 96.860725
L 500.340247 96.93612
L 504.751942 96.97771
L 509.163637 96.985319
L 513.575332 96.958856
L 517.987026 96.898323
L 522.398721 96.803807
L 526.810416 96.675486
L 531.222111 96.513625
" style="fill:none;stroke:#0000b9;stroke-linecap:square;stroke-width:2;"/>
   </g>
   <g id="line2d_29">
    <path clip-path="url(#p6ada38c130)" d="M 94.464325 83.698035
L 98.87602 83.381899
L 103.287715 82.972671
L 107.69941 82.520588
L 112.111104 82.04008
L 116.522799 81.53931
L 120.934494 81.023962
L 125.346189 80.498464
L 129.757884 79.966516
L 134.169578 79.43135
L 138.581273 78.895877
L 142.992968 78.362776
L 147.404663 77.834541
L 151.816358 77.313526
L 156.228052 76.801956
L 160.639747 76.301952
L 165.051442 75.815534
L 169.463137 75.34463
L 173.874832 74.891081
L 178.286526 74.45664
L 182.698221 74.042975
L 187.109916 73.651669
L 191.521611 73.284218
L 195.933306 72.942032
L 200.345 72.62643
L 204.756695 72.338643
L 209.16839 72.079809
L 213.580085 71.850974
L 217.99178 71.653087
L 222.403474 71.487001
L 226.815169 71.35347
L 231.226864 71.253151
L 235.638559 71.186598
L 240.050254 71.154264
L 244.461948 71.156498
L 248.873643 71.193549
L 253.285338 71.26556
L 257.697033 71.372571
L 262.108728 71.51452
L 266.520422 71.69124
L 270.932117 71.902463
L 275.343812 72.147817
L 279.755507 72.426834
L 284.167202 72.738941
L 288.578897 73.083473
L 292.990591 73.459665
L 297.402286 73.86666
L 301.813981 74.303511
L 306.225676 74.769181
L 310.637371 75.262547
L 315.049065 75.782403
L 319.46076 76.327466
L 323.872455 76.896374
L 328.28415 77.487693
L 332.695845 78.099922
L 337.107539 78.731495
L 341.519234 79.380785
L 345.930929 80.046112
L 350.342624 80.72574
L 354.754319 81.417891
L 359.166013 82.120743
L 363.577708 82.832438
L 367.989403 83.551086
L 372.401098 84.274771
L 376.812793 85.001556
L 381.224487 85.729487
L 385.636182 86.456599
L 390.047877 87.180922
L 394.459572 87.900489
L 398.871267 88.613333
L 403.282961 89.317502
L 407.694656 90.01106
L 412.106351 90.69209
L 416.518046 91.358704
L 420.929741 92.009045
L 425.341435 92.641294
L 429.75313 93.253674
L 434.164825 93.844455
L 438.57652 94.411958
L 442.988215 94.954564
L 447.399909 95.47071
L 451.811604 95.958904
L 456.223299 96.417721
L 460.634994 96.845809
L 465.046689 97.241897
L 469.458383 97.604791
L 473.870078 97.933386
L 478.281773 98.226663
L 482.693468 98.483694
L 487.105163 98.703644
L 491.516857 98.885776
L 495.928552 99.029451
L 500.340247 99.134129
L 504.751942 99.199374
L 509.163637 99.224853
L 513.575332 99.210337
L 517.987026 99.155704
L 522.398721 99.060937
L 526.810416 98.926127
L 531.222111 98.75147
" style="fill:none;stroke:#0000f3;stroke-linecap:square;stroke-width:2;"/>
   </g>
   <g id="line2d_30">
    <path clip-path="url(#p6ada38c130)" d="M 94.464325 83.698035
L 98.87602 83.4635
L 103.287715 83.121279
L 107.69941 82.723074
L 112.111104 82.285132
L 116.522799 81.816866
L 120.934494 81.324903
L 125.346189 80.814435
L 129.757884 80.289811
L 134.169578 79.754839
L 138.581273 79.212958
L 142.992968 78.667336
L 147.404663 78.12094
L 151.816358 77.576571
L 156.228052 77.036896
L 160.639747 76.504467
L 165.051442 75.981728
L 169.463137 75.471028
L 173.874832 74.974622
L 178.286526 74.494676
L 182.698221 74.033267
L 187.109916 73.592382
L 191.521611 73.173918
L 195.933306 72.77968
L 200.345 72.411381
L 204.756695 72.070636
L 209.16839 71.758961
L 213.580085 71.477774
L 217.99178 71.228386
L 222.403474 71.012005
L 226.815169 70.829729
L 231.226864 70.682546
L 235.638559 70.571332
L 240.050254 70.496847
L 244.461948 70.459737
L 248.873643 70.46053
L 253.285338 70.499633
L 257.697033 70.577337
L 262.108728 70.693811
L 266.520422 70.849103
L 270.932117 71.043141
L 275.343812 71.275735
L 279.755507 71.546571
L 284.167202 71.855219
L 288.578897 72.201133
L 292.990591 72.583646
L 297.402286 73.001982
L 301.813981 73.45525
L 306.225676 73.94245
L 310.637371 74.462473
L 315.049065 75.01411
L 319.46076 75.596048
L 323.872455 76.206879
L 328.28415 76.8451
L 332.695845 77.50912
L 337.107539 78.197262
L 341.519234 78.907771
L 345.930929 79.638815
L 350.342624 80.388491
L 354.754319 81.154832
L 359.166013 81.935812
L 363.577708 82.72935
L 367.989403 83.533318
L 372.401098 84.345543
L 376.812793 85.163817
L 381.224487 85.985905
L 385.636182 86.809543
L 390.047877 87.632452
L 394.459572 88.452343
L 398.871267 89.26692
L 403.282961 90.07389
L 407.694656 90.870969
L 412.106351 91.655885
L 416.518046 92.426391
L 420.929741 93.180264
L 425.341435 93.915318
L 429.75313 94.629404
L 434.164825 95.320423
L 438.57652 95.986326
L 442.988215 96.625122
L 447.399909 97.234886
L 451.811604 97.813762
L 456.223299 98.359969
L 460.634994 98.871806
L 465.046689 99.347659
L 469.458383 99.786004
L 473.870078 100.18541
L 478.281773 100.544548
L 482.693468 100.86219
L 487.105163 101.137217
L 491.516857 101.368619
L 495.928552 101.555503
L 500.340247 101.697089
L 504.751942 101.792719
L 509.163637 101.841855
L 513.575332 101.844085
L 517.987026 101.79912
L 522.398721 101.7068
L 526.810416 101.56709
L 531.222111 101.380085
" style="fill:none;stroke:#001aff;stroke-linecap:square;stroke-width:2;"/>
   </g>
   <g id="line2d_31">
    <path clip-path="url(#p6ada38c130)" d="M 94.464325 83.698035
L 98.87602 83.524039
L 103.287715 83.239441
L 107.69941 82.890739
L 112.111104 82.493965
L 116.522799 82.058736
L 120.934494 81.591976
L 125.346189 81.099202
L 129.757884 80.585096
L 134.169578 80.053803
L 138.581273 79.509102
L 142.992968 78.954512
L 147.404663 78.393349
L 151.816358 77.828778
L 156.228052 77.263832
L 160.639747 76.701436
L 165.051442 76.144418
L 169.463137 75.595512
L 173.874832 75.05737
L 178.286526 74.532555
L 182.698221 74.023549
L 187.109916 73.532744
L 191.521611 73.062449
L 195.933306 72.614879
L 200.345 72.192156
L 204.756695 71.796306
L 209.16839 71.429253
L 213.580085 71.092817
L 217.99178 70.788711
L 222.403474 70.518533
L 226.815169 70.283767
L 231.226864 70.085778
L 235.638559 69.925809
L 240.050254 69.804976
L 244.461948 69.724268
L 248.873643 69.684541
L 253.285338 69.686521
L 257.697033 69.730795
L 262.108728 69.817817
L 266.520422 69.947899
L 270.932117 70.121217
L 275.343812 70.337806
L 279.755507 70.59756
L 284.167202 70.900236
L 288.578897 71.245448
L 292.990591 71.632674
L 297.402286 72.061256
L 301.813981 72.530397
L 306.225676 73.03917
L 310.637371 73.586516
L 315.049065 74.171246
L 319.46076 74.792049
L 323.872455 75.44749
L 328.28415 76.136018
L 332.695845 76.855967
L 337.107539 77.605564
L 341.519234 78.382931
L 345.930929 79.186092
L 350.342624 80.012975
L 354.754319 80.861424
L 359.166013 81.7292
L 363.577708 82.613986
L 367.989403 83.513401
L 372.401098 84.424998
L 376.812793 85.346277
L 381.224487 86.274689
L 385.636182 87.207644
L 390.047877 88.142519
L 394.459572 89.076665
L 398.871267 90.007414
L 403.282961 90.932089
L 407.694656 91.848007
L 412.106351 92.752494
L 416.518046 93.642884
L 420.929741 94.516536
L 425.341435 95.370834
L 429.75313 96.203199
L 434.164825 97.011096
L 438.57652 97.79204
L 442.988215 98.543604
L 447.399909 99.263429
L 451.811604 99.949227
L 456.223299 100.598791
L 460.634994 101.209998
L 465.046689 101.78082
L 469.458383 102.30933
L 473.870078 102.793702
L 478.281773 103.232225
L 482.693468 103.623303
L 487.105163 103.96546
L 491.516857 104.25735
L 495.928552 104.497755
L 500.340247 104.685595
L 504.751942 104.819925
L 509.163637 104.899945
L 513.575332 104.925002
L 517.987026 104.894587
L 522.398721 104.808343
L 526.810416 104.666067
L 531.222111 104.467706
" style="fill:none;stroke:#004cff;stroke-linecap:square;stroke-width:2;"/>
   </g>
   <g id="line2d_32">
    <path clip-path="url(#p6ada38c130)" d="M 94.464325 83.698035
L 98.87602 83.568951
L 103.287715 83.333394
L 107.69941 83.029571
L 112.111104 82.671931
L 116.522799 82.269507
L 120.934494 81.828993
L 125.346189 81.355848
L 129.757884 80.854798
L 134.169578 80.330099
L 138.581273 79.785693
L 142.992968 79.225294
L 147.404663 78.652453
L 151.816358 78.070594
L 156.228052 77.483036
L 160.639747 76.893012
L 165.051442 76.303677
L 169.463137 75.718113
L 173.874832 75.139333
L 178.286526 74.570279
L 182.698221 74.013821
L 187.109916 73.472755
L 191.521611 72.949799
L 195.933306 72.447589
L 200.345 71.968672
L 204.756695 71.515503
L 209.16839 71.09044
L 213.580085 70.695734
L 217.99178 70.333533
L 222.403474 70.005865
L 226.815169 69.714641
L 231.226864 69.461648
L 235.638559 69.248542
L 240.050254 69.076844
L 244.461948 68.947938
L 248.873643 68.863064
L 253.285338 68.823315
L 257.697033 68.829635
L 262.108728 68.882814
L 266.520422 68.983487
L 270.932117 69.13213
L 275.343812 69.329061
L 279.755507 69.574434
L 284.167202 69.868244
L 288.578897 70.210321
L 292.990591 70.600335
L 297.402286 71.037792
L 301.813981 71.522037
L 306.225676 72.052256
L 310.637371 72.627477
L 315.049065 73.246574
L 319.46076 73.908264
L 323.872455 74.61112
L 328.28415 75.353565
L 332.695845 76.133883
L 337.107539 76.950219
L 341.519234 77.800588
L 345.930929 78.682877
L 350.342624 79.594853
L 354.754319 80.534167
L 359.166013 81.498362
L 363.577708 82.484883
L 367.989403 83.491076
L 372.401098 84.514204
L 376.812793 85.551449
L 381.224487 86.599925
L 385.636182 87.65668
L 390.047877 88.718712
L 394.459572 89.782971
L 398.871267 90.846372
L 403.282961 91.905802
L 407.694656 92.95813
L 412.106351 94.000217
L 416.518046 95.028924
L 420.929741 96.041121
L 425.341435 97.033698
L 429.75313 98.003574
L 434.164825 98.947706
L 438.57652 99.863096
L 442.988215 100.746805
L 447.399909 101.595957
L 451.811604 102.407752
L 456.223299 103.179472
L 460.634994 103.908491
L 465.046689 104.592283
L 469.458383 105.228428
L 473.870078 105.814625
L 478.281773 106.348693
L 482.693468 106.828582
L 487.105163 107.252382
L 491.516857 107.618321
L 495.928552 107.924783
L 500.340247 108.170302
L 504.751942 108.353576
L 509.163637 108.473468
L 513.575332 108.529011
L 517.987026 108.519409
L 522.398721 108.444048
L 526.810416 108.30249
L 531.222111 108.094484
" style="fill:none;stroke:#0080ff;stroke-linecap:square;stroke-width:2;"/>
   </g>
   <g id="line2d_33">
    <path clip-path="url(#p6ada38c130)" d="M 94.464325 83.698035
L 98.87602 83.60227
L 103.287715 83.408099
L 107.69941 83.144527
L 112.111104 82.823594
L 116.522799 82.453179
L 120.934494 82.039335
L 125.346189 81.587148
L 129.757884 81.101133
L 134.169578 80.585448
L 138.581273 80.04402
L 142.992968 79.480618
L 147.404663 78.898901
L 151.816358 78.302447
L 156.228052 77.694772
L 160.639747 77.079343
L 165.051442 76.459579
L 169.463137 75.838859
L 173.874832 75.220519
L 178.286526 74.607847
L 182.698221 74.004083
L 187.109916 73.412411
L 191.521611 72.835957
L 195.933306 72.277775
L 200.345 71.740848
L 204.756695 71.228076
L 209.16839 70.742269
L 213.580085 70.286143
L 217.99178 69.862305
L 222.403474 69.473254
L 226.815169 69.121369
L 231.226864 68.808901
L 235.638559 68.537969
L 240.050254 68.31055
L 244.461948 68.128478
L 248.873643 67.993431
L 253.285338 67.906929
L 257.697033 67.870332
L 262.108728 67.884827
L 266.520422 67.951432
L 270.932117 68.070987
L 275.343812 68.244152
L 279.755507 68.471403
L 284.167202 68.753034
L 288.578897 69.089149
L 292.990591 69.479666
L 297.402286 69.924313
L 301.813981 70.422628
L 306.225676 70.973962
L 310.637371 71.577478
L 315.049065 72.232152
L 319.46076 72.936778
L 323.872455 73.689966
L 328.28415 74.490151
L 332.695845 75.335593
L 337.107539 76.224382
L 341.519234 77.154442
L 345.930929 78.12354
L 350.342624 79.129288
L 354.754319 80.169153
L 359.166013 81.240461
L 363.577708 82.340404
L 367.989403 83.466051
L 372.401098 84.614355
L 376.812793 85.782161
L 381.224487 86.966213
L 385.636182 88.163169
L 390.047877 89.369605
L 394.459572 90.582028
L 398.871267 91.796886
L 403.282961 93.010578
L 407.694656 94.219464
L 412.106351 95.419879
L 416.518046 96.608139
L 420.929741 97.780556
L 425.341435 98.933448
L 429.75313 100.063151
L 434.164825 101.166029
L 438.57652 102.238486
L 442.988215 103.276978
L 447.399909 104.278021
L 451.811604 105.238208
L 456.223299 106.154213
L 460.634994 107.022807
L 465.046689 107.840863
L 469.458383 108.605374
L 473.870078 109.313455
L 478.281773 109.962359
L 482.693468 110.54948
L 487.105163 111.072368
L 491.516857 111.528733
L 495.928552 111.916458
L 500.340247 112.233599
L 504.751942 112.478401
L 509.163637 112.649299
L 513.575332 112.744924
L 517.987026 112.764112
L 522.398721 112.705908
L 526.810416 112.569568
L 531.222111 112.354566
" style="fill:none;stroke:#00b3ff;stroke-linecap:square;stroke-width:2;"/>
   </g>
   <g id="line2d_34">
    <path clip-path="url(#p6ada38c130)" d="M 94.464325 83.698035
L 98.87602 83.626989
L 103.287715 83.467499
L 107.69941 83.239715
L 112.111104 82.95284
L 116.522799 82.613235
L 120.934494 82.226006
L 125.346189 81.795607
L 129.757884 81.326126
L 134.169578 80.821437
L 138.581273 80.28529
L 142.992968 79.721368
L 147.404663 79.133312
L 151.816358 78.524748
L 156.228052 77.899295
L 160.639747 77.260571
L 165.051442 76.612194
L 169.463137 75.957778
L 173.874832 75.300934
L 178.286526 74.64526
L 182.698221 73.994335
L 187.109916 73.351712
L 191.521611 72.720908
L 195.933306 72.105398
L 200.345 71.508599
L 204.756695 70.933867
L 209.16839 70.384484
L 213.580085 69.863648
L 217.99178 69.374462
L 222.403474 68.919926
L 226.815169 68.502926
L 231.226864 68.126225
L 235.638559 67.792452
L 240.050254 67.504096
L 244.461948 67.263492
L 248.873643 67.072819
L 253.285338 66.934088
L 257.697033 66.849135
L 262.108728 66.819614
L 266.520422 66.846991
L 270.932117 66.932538
L 275.343812 67.077328
L 279.755507 67.282227
L 284.167202 67.547895
L 288.578897 67.87478
L 292.990591 68.263111
L 297.402286 68.712902
L 301.813981 69.22395
L 306.225676 69.795828
L 310.637371 70.42789
L 315.049065 71.11927
L 319.46076 71.868886
L 323.872455 72.675434
L 328.28415 73.537399
L 332.695845 74.453055
L 337.107539 75.420468
L 341.519234 76.437501
L 345.930929 77.501819
L 350.342624 78.610899
L 354.754319 79.762029
L 359.166013 80.952321
L 363.577708 82.178718
L 367.989403 83.438001
L 372.401098 84.726797
L 376.812793 86.041591
L 381.224487 87.378736
L 385.636182 88.73446
L 390.047877 90.10488
L 394.459572 91.486014
L 398.871267 92.87379
L 403.282961 94.264058
L 407.694656 95.652608
L 412.106351 97.035174
L 416.518046 98.407453
L 420.929741 99.765118
L 425.341435 101.103829
L 429.75313 102.419245
L 434.164825 103.707044
L 438.57652 104.962929
L 442.988215 106.182648
L 447.399909 107.362003
L 451.811604 108.496864
L 456.223299 109.583187
L 460.634994 110.617021
L 465.046689 111.594524
L 469.458383 112.511979
L 473.870078 113.365799
L 478.281773 114.152546
L 482.693468 114.86894
L 487.105163 115.51187
L 491.516857 116.078407
L 495.928552 116.565814
L 500.340247 116.971554
L 504.751942 117.293302
L 509.163637 117.528954
L 513.575332 117.676634
L 517.987026 117.734702
L 522.398721 117.701763
L 526.810416 117.576672
L 531.222111 117.358539
" style="fill:none;stroke:#00e6f7;stroke-linecap:square;stroke-width:2;"/>
   </g>
   <g id="line2d_35">
    <path clip-path="url(#p6ada38c130)" d="M 94.464325 83.698035
L 98.87602 83.645328
L 103.287715 83.51473
L 107.69941 83.318532
L 112.111104 83.062983
L 116.522799 82.752712
L 120.934494 82.391669
L 125.346189 81.98348
L 129.757884 81.531626
L 134.169578 81.039533
L 138.581273 80.51063
L 142.992968 79.948374
L 147.404663 79.356272
L 151.816358 78.73789
L 156.228052 78.09685
L 160.639747 77.436838
L 165.051442 76.761591
L 169.463137 76.074898
L 173.874832 75.380587
L 178.286526 74.682519
L 182.698221 73.984578
L 187.109916 73.290654
L 191.521611 72.604641
L 195.933306 71.930418
L 200.345 71.271838
L 204.756695 70.632717
L 209.16839 70.016819
L 213.580085 69.427844
L 217.99178 68.869418
L 222.403474 68.345074
L 226.815169 67.858245
L 231.226864 67.412248
L 235.638559 67.010274
L 240.050254 66.655375
L 244.461948 66.350451
L 248.873643 66.098241
L 253.285338 65.901314
L 257.697033 65.762051
L 262.108728 65.682646
L 266.520422 65.665086
L 270.932117 65.711152
L 275.343812 65.822405
L 279.755507 66.000178
L 284.167202 66.245577
L 288.578897 66.559465
L 292.990591 66.942464
L 297.402286 67.394948
L 301.813981 67.91704
L 306.225676 68.508609
L 310.637371 69.169268
L 315.049065 69.898372
L 319.46076 70.695021
L 323.872455 71.558056
L 328.28415 72.486064
L 332.695845 73.477378
L 337.107539 74.53008
L 341.519234 75.642009
L 345.930929 76.810759
L 350.342624 78.033691
L 354.754319 79.307934
L 359.166013 80.630399
L 363.577708 81.997777
L 367.989403 83.406559
L 372.401098 84.853036
L 376.812793 86.333316
L 381.224487 87.843329
L 385.636182 89.378844
L 390.047877 90.935478
L 394.459572 92.508709
L 398.871267 94.093889
L 403.282961 95.686259
L 407.694656 97.280962
L 412.106351 98.873059
L 416.518046 100.457543
L 420.929741 102.029353
L 425.341435 103.583394
L 429.75313 105.114548
L 434.164825 106.617693
L 438.57652 108.087719
L 442.988215 109.519543
L 447.399909 110.908129
L 451.811604 112.248498
L 456.223299 113.535751
L 460.634994 114.765082
L 465.046689 115.931795
L 469.458383 117.031317
L 473.870078 118.059221
L 478.281773 119.011232
L 482.693468 119.88325
L 487.105163 120.67136
L 491.516857 121.371847
L 495.928552 121.981212
L 500.340247 122.496183
L 504.751942 122.913726
L 509.163637 123.231061
L 513.575332 123.445671
L 517.987026 123.555312
L 522.398721 123.558025
L 526.810416 123.452143
L 531.222111 123.2363
" style="fill:none;stroke:#29ffce;stroke-linecap:square;stroke-width:2;"/>
   </g>
   <g id="line2d_36">
    <path clip-path="url(#p6ada38c130)" d="M 94.464325 83.698035
L 98.87602 83.658933
L 103.287715 83.552284
L 107.69941 83.383796
L 112.111104 83.156846
L 116.522799 82.874256
L 120.934494 82.538688
L 125.346189 82.152799
L 129.757884 81.719321
L 134.169578 81.241094
L 138.581273 80.72109
L 142.992968 80.162422
L 147.404663 79.568343
L 151.816358 78.94225
L 156.228052 78.287675
L 160.639747 77.608277
L 165.051442 76.907838
L 169.463137 76.190245
L 173.874832 75.459484
L 178.286526 74.719626
L 182.698221 73.97481
L 187.109916 73.229236
L 191.521611 72.487143
L 195.933306 71.752798
L 200.345 71.030479
L 204.756695 70.324461
L 209.16839 69.638999
L 213.580085 68.978312
L 217.99178 68.346566
L 222.403474 67.747861
L 226.815169 67.186212
L 231.226864 66.665535
L 235.638559 66.189632
L 240.050254 65.762173
L 244.461948 65.386684
L 248.873643 65.066533
L 253.285338 64.804913
L 257.697033 64.604829
L 262.108728 64.469088
L 266.520422 64.400284
L 270.932117 64.400787
L 275.343812 64.47273
L 279.755507 64.618004
L 284.167202 64.838242
L 288.578897 65.134814
L 292.990591 65.508819
L 297.402286 65.961078
L 301.813981 66.492125
L 306.225676 67.102205
L 310.637371 67.79127
L 315.049065 68.558973
L 319.46076 69.404669
L 323.872455 70.327409
L 328.28415 71.325946
L 332.695845 72.398731
L 337.107539 73.543917
L 341.519234 74.75936
L 345.930929 76.042625
L 350.342624 77.39099
L 354.754319 78.801452
L 359.166013 80.270732
L 363.577708 81.795287
L 367.989403 83.371315
L 372.401098 84.994766
L 376.812793 86.661353
L 381.224487 88.366565
L 385.636182 90.105675
L 390.047877 91.873757
L 394.459572 93.665702
L 398.871267 95.476225
L 403.282961 97.29989
L 407.694656 99.131118
L 412.106351 100.964209
L 416.518046 102.793359
L 420.929741 104.612673
L 425.341435 106.416189
L 429.75313 108.197895
L 434.164825 109.951745
L 438.57652 111.671683
L 442.988215 113.35166
L 447.399909 114.985654
L 451.811604 116.567689
L 456.223299 118.091857
L 460.634994 119.552337
L 465.046689 120.943412
L 469.458383 122.259493
L 473.870078 123.495139
L 478.281773 124.645068
L 482.693468 125.704187
L 487.105163 126.667603
L 491.516857 127.530642
L 495.928552 128.288869
L 500.340247 128.938104
L 504.751942 129.474436
L 509.163637 129.894242
L 513.575332 130.194201
L 517.987026 130.371305
L 522.398721 130.422877
L 526.810416 130.34658
L 531.222111 130.14043
" style="fill:none;stroke:#52ffa5;stroke-linecap:square;stroke-width:2;"/>
   </g>
   <g id="line2d_37">
    <path clip-path="url(#p6ada38c130)" d="M 94.464325 83.698035
L 98.87602 83.669026
L 103.287715 83.582145
L 107.69941 83.437836
L 112.111104 83.236836
L 116.522799 82.980173
L 120.934494 82.669161
L 125.346189 82.305398
L 129.757884 81.890755
L 134.169578 81.427373
L 138.581273 80.917654
L 142.992968 80.364251
L 147.404663 79.770055
L 151.816358 79.138191
L 156.228052 78.471998
L 160.639747 77.775023
L 165.051442 77.051002
L 169.463137 76.303847
L 173.874832 75.537633
L 178.286526 74.756579
L 182.698221 73.965033
L 187.109916 73.167456
L 191.521611 72.3684
L 195.933306 71.572496
L 200.345 70.784432
L 204.756695 70.008933
L 209.16839 69.250746
L 213.580085 68.514619
L 217.99178 67.805279
L 222.403474 67.127417
L 226.815169 66.485667
L 231.226864 65.884585
L 235.638559 65.328633
L 240.050254 64.822158
L 244.461948 64.369375
L 248.873643 63.974346
L 253.285338 63.640966
L 257.697033 63.372943
L 262.108728 63.173783
L 266.520422 63.046771
L 270.932117 62.994959
L 275.343812 63.02115
L 279.755507 63.127883
L 284.167202 63.317421
L 288.578897 63.591738
L 292.990591 63.952509
L 297.402286 64.401098
L 301.813981 64.93855
L 306.225676 65.565581
L 310.637371 66.282575
L 315.049065 67.089572
L 319.46076 67.986268
L 323.872455 68.972009
L 328.28415 70.045789
L 332.695845 71.206249
L 337.107539 72.451675
L 341.519234 73.780004
L 345.930929 75.188821
L 350.342624 76.675366
L 354.754319 78.236536
L 359.166013 79.868896
L 363.577708 81.568682
L 367.989403 83.33181
L 372.401098 85.153888
L 376.812793 87.030225
L 381.224487 88.955846
L 385.636182 90.925499
L 390.047877 92.933677
L 394.459572 94.974627
L 398.871267 97.04237
L 403.282961 99.130717
L 407.694656 101.233287
L 412.106351 103.343525
L 416.518046 105.454723
L 420.929741 107.560044
L 425.341435 109.652534
L 429.75313 111.725152
L 434.164825 113.770791
L 438.57652 115.782297
L 442.988215 117.752494
L 447.399909 119.674211
L 451.811604 121.5403
L 456.223299 123.343664
L 460.634994 125.077279
L 465.046689 126.734221
L 469.458383 128.307686
L 473.870078 129.791015
L 478.281773 131.177722
L 482.693468 132.46151
L 487.105163 133.636302
L 491.516857 134.696256
L 495.928552 135.635795
L 500.340247 136.449621
L 504.751942 137.13274
L 509.163637 137.680485
L 513.575332 138.088527
L 517.987026 138.352901
L 522.398721 138.470022
L 526.810416 138.436699
L 531.222111 138.250152
" style="fill:none;stroke:#7bff7b;stroke-linecap:square;stroke-width:2;"/>
   </g>
   <g id="line2d_38">
    <path clip-path="url(#p6ada38c130)" d="M 94.464325 83.698035
L 98.87602 83.676514
L 103.287715 83.605888
L 107.69941 83.482583
L 112.111104 83.305003
L 116.522799 83.072471
L 120.934494 82.784951
L 125.346189 82.442927
L 129.757884 82.047336
L 134.169578 81.599529
L 138.581273 81.10124
L 142.992968 80.554558
L 147.404663 79.961914
L 151.816358 79.326058
L 156.228052 78.650042
L 160.639747 77.937203
L 165.051442 77.191147
L 169.463137 76.41573
L 173.874832 75.61504
L 178.286526 74.79338
L 182.698221 73.955246
L 187.109916 73.10531
L 191.521611 72.248399
L 195.933306 71.389473
L 200.345 70.533605
L 204.756695 69.68596
L 209.16839 68.851772
L 213.580085 68.036319
L 217.99178 67.244906
L 222.403474 66.482838
L 226.815169 65.755399
L 231.226864 65.067827
L 235.638559 64.425293
L 240.050254 63.832878
L 244.461948 63.295547
L 248.873643 62.818134
L 253.285338 62.405312
L 257.697033 62.061577
L 262.108728 61.791223
L 266.520422 61.598325
L 270.932117 61.486716
L 275.343812 61.459971
L 279.755507 61.521387
L 284.167202 61.673965
L 288.578897 61.920394
L 292.990591 62.263037
L 297.402286 62.703916
L 301.813981 63.244697
L 306.225676 63.88668
L 310.637371 64.630786
L 315.049065 65.477551
L 319.46076 66.427113
L 323.872455 67.479211
L 328.28415 68.633173
L 332.695845 69.887917
L 337.107539 71.241946
L 341.519234 72.693347
L 345.930929 74.239793
L 350.342624 75.878544
L 354.754319 77.606447
L 359.166013 79.419947
L 363.577708 81.315089
L 367.989403 83.287527
L 372.401098 85.332535
L 376.812793 87.445014
L 381.224487 89.619508
L 385.636182 91.850216
L 390.047877 94.131007
L 394.459572 96.455437
L 398.871267 98.816766
L 403.282961 101.207977
L 407.694656 103.621796
L 412.106351 106.050714
L 416.518046 108.487009
L 420.929741 110.922769
L 425.341435 113.349916
L 429.75313 115.760232
L 434.164825 118.145383
L 438.57652 120.496948
L 442.988215 122.806447
L 447.399909 125.065364
L 451.811604 127.26518
L 456.223299 129.397401
L 460.634994 131.453584
L 465.046689 133.42537
L 469.458383 135.30451
L 473.870078 137.082896
L 478.281773 138.752589
L 482.693468 140.305851
L 487.105163 141.735167
L 491.516857 143.033283
L 495.928552 144.193223
L 500.340247 145.208326
L 504.751942 146.072265
L 509.163637 146.779076
L 513.575332 147.323186
L 517.987026 147.69943
L 522.398721 147.90308
L 526.810416 147.929863
L 531.222111 147.775985
" style="fill:none;stroke:#a5ff52;stroke-linecap:square;stroke-width:2;"/>
   </g>
   <g id="line2d_39">
    <path clip-path="url(#p6ada38c130)" d="M 94.464325 83.698035
L 98.87602 83.682069
L 103.287715 83.624766
L 107.69941 83.519634
L 112.111104 83.363095
L 116.522799 83.152903
L 120.934494 82.88771
L 125.346189 82.566874
L 129.757884 82.190351
L 134.169578 81.758633
L 138.581273 81.272703
L 142.992968 80.734002
L 147.404663 80.144403
L 151.816358 79.506186
L 156.228052 78.82202
L 160.639747 78.094942
L 165.051442 77.328337
L 169.463137 76.52592
L 173.874832 75.691714
L 178.286526 74.83003
L 182.698221 73.94545
L 187.109916 73.042799
L 191.521611 72.127128
L 195.933306 71.203688
L 200.345 70.277907
L 204.756695 69.355368
L 209.16839 68.441779
L 213.580085 67.542951
L 217.99178 66.664775
L 222.403474 65.813186
L 226.815169 64.994149
L 231.226864 64.213621
L 235.638559 63.477531
L 240.050254 62.791749
L 244.461948 62.162062
L 248.873643 61.594145
L 253.285338 61.093534
L 257.697033 60.665602
L 262.108728 60.315531
L 266.520422 60.048287
L 270.932117 59.868595
L 275.343812 59.780917
L 279.755507 59.789426
L 284.167202 59.897983
L 288.578897 60.110118
L 292.990591 60.429011
L 297.402286 60.857466
L 301.813981 61.397902
L 306.225676 62.052327
L 310.637371 62.822331
L 315.049065 63.709066
L 319.46076 64.713235
L 323.872455 65.835085
L 328.28415 67.074391
L 332.695845 68.430453
L 337.107539 69.90209
L 341.519234 71.487631
L 345.930929 73.184921
L 350.342624 74.991311
L 354.754319 76.903665
L 359.166013 78.91836
L 363.577708 81.031295
L 367.989403 83.237891
L 372.401098 85.533104
L 376.812793 87.911435
L 381.224487 90.366941
L 385.636182 92.893246
L 390.047877 95.483562
L 394.459572 98.130703
L 398.871267 100.827103
L 403.282961 103.564838
L 407.694656 106.335648
L 412.106351 109.13096
L 416.518046 111.941913
L 420.929741 114.759383
L 425.341435 117.574014
L 429.75313 120.376243
L 434.164825 123.156332
L 438.57652 125.904398
L 442.988215 128.610446
L 447.399909 131.264399
L 451.811604 133.856136
L 456.223299 136.375521
L 460.634994 138.812442
L 465.046689 141.156841
L 469.458383 143.398755
L 473.870078 145.528347
L 478.281773 147.535945
L 482.693468 149.412071
L 487.105163 151.147487
L 491.516857 152.73322
L 495.928552 154.160601
L 500.340247 155.421299
L 504.751942 156.507354
L 509.163637 157.41121
L 513.575332 158.125747
L 517.987026 158.644309
L 522.398721 158.960737
L 526.810416 159.069398
L 531.222111 158.965209
" style="fill:none;stroke:#ceff29;stroke-linecap:square;stroke-width:2;"/>
   </g>
   <g id="line2d_40">
    <path clip-path="url(#p6ada38c130)" d="M 94.464325 83.698035
L 98.87602 83.68619
L 103.287715 83.639777
L 107.69941 83.550314
L 112.111104 83.4126
L 116.522799 83.222993
L 120.934494 82.978904
L 125.346189 82.678581
L 129.757884 82.320975
L 134.169578 81.905674
L 138.581273 81.432845
L 142.992968 80.903203
L 147.404663 80.317978
L 151.816358 79.678892
L 156.228052 78.988139
L 160.639747 78.248362
L 165.051442 77.462635
L 169.463137 76.634443
L 173.874832 75.767659
L 178.286526 74.866529
L 182.698221 73.935643
L 187.109916 72.979918
L 191.521611 72.004571
L 195.933306 71.015098
L 200.345 70.017242
L 204.756695 69.016975
L 209.16839 68.020463
L 213.580085 67.034042
L 217.99178 66.064188
L 222.403474 65.117486
L 226.815169 64.200601
L 231.226864 63.320249
L 235.638559 62.483161
L 240.050254 61.696055
L 244.461948 60.965605
L 248.873643 60.298404
L 253.285338 59.700941
L 257.697033 59.179559
L 262.108728 58.740433
L 266.520422 58.389532
L 270.932117 58.132593
L 275.343812 57.975089
L 279.755507 57.922201
L 284.167202 57.978788
L 288.578897 58.149363
L 292.990591 58.438061
L 297.402286 58.848619
L 301.813981 59.384353
L 306.225676 60.04813
L 310.637371 60.842351
L 315.049065 61.768931
L 319.46076 62.829281
L 323.872455 64.024292
L 328.28415 65.35432
L 332.695845 66.819175
L 337.107539 68.41811
L 341.519234 70.149813
L 345.930929 72.012399
L 350.342624 74.003409
L 354.754319 76.119803
L 359.166013 78.357965
L 363.577708 80.713703
L 367.989403 83.182252
L 372.401098 85.758285
L 376.812793 88.435917
L 381.224487 91.208717
L 385.636182 94.069726
L 390.047877 97.011465
L 394.459572 100.02596
L 398.871267 103.104754
L 403.282961 106.238936
L 407.694656 109.419159
L 412.106351 112.635671
L 416.518046 115.878335
L 420.929741 119.136668
L 425.341435 122.399862
L 429.75313 125.656825
L 434.164825 128.896209
L 438.57652 132.106451
L 442.988215 135.275804
L 447.399909 138.392381
L 451.811604 141.444189
L 456.223299 144.419174
L 460.634994 147.305257
L 465.046689 150.09038
L 469.458383 152.762546
L 473.870078 155.309864
L 478.281773 157.720589
L 482.693468 159.983165
L 487.105163 162.086274
L 491.516857 164.018872
L 495.928552 165.770235
L 500.340247 167.330001
L 504.751942 168.688214
L 509.163637 169.835361
L 513.575332 170.762414
L 517.987026 171.460871
L 522.398721 171.92279
L 526.810416 172.14083
L 531.222111 172.108283
" style="fill:none;stroke:#f7f600;stroke-linecap:square;stroke-width:2;"/>
   </g>
   <g id="line2d_41">
    <path clip-path="url(#p6ada38c130)" d="M 94.464325 83.698035
L 98.87602 83.689248
L 103.287715 83.651713
L 107.69941 83.575718
L 112.111104 83.454789
L 116.522799 83.284071
L 120.934494 83.059836
L 125.346189 82.779256
L 129.757884 82.440282
L 134.169578 82.041566
L 138.581273 81.582413
L 142.992968 81.062744
L 147.404663 80.483074
L 151.816358 79.844482
L 156.228052 79.148599
L 160.639747 78.397581
L 165.051442 77.594102
L 169.463137 76.741324
L 173.874832 75.842885
L 178.286526 74.902878
L 182.698221 73.925826
L 187.109916 72.916666
L 191.521611 71.880717
L 195.933306 70.823661
L 200.345 69.751515
L 204.756695 68.670599
L 209.16839 67.587513
L 213.580085 66.509102
L 217.99178 65.442425
L 222.403474 64.394723
L 226.815169 63.373386
L 231.226864 62.385915
L 235.638559 61.439892
L 240.050254 60.542936
L 244.461948 59.702676
L 248.873643 58.926707
L 253.285338 58.222554
L 257.697033 57.597637
L 262.108728 57.059232
L 266.520422 56.614434
L 270.932117 56.27012
L 275.343812 56.032914
L 279.755507 55.909149
L 284.167202 55.904834
L 288.578897 56.025618
L 292.990591 56.27676
L 297.402286 56.663093
L 301.813981 57.188995
L 306.225676 57.858363
L 310.637371 58.674578
L 315.049065 59.640487
L 319.46076 60.758373
L 323.872455 62.029936
L 328.28415 63.45627
L 332.695845 65.037849
L 337.107539 66.774504
L 341.519234 68.665418
L 345.930929 70.709107
L 350.342624 72.903415
L 354.754319 75.245508
L 359.166013 77.731866
L 363.577708 80.358288
L 367.989403 83.119887
L 372.401098 86.011098
L 376.812793 89.025685
L 381.224487 92.156746
L 385.636182 95.396731
L 390.047877 98.73745
L 394.459572 102.170096
L 398.871267 105.685264
L 403.282961 109.272971
L 407.694656 112.922681
L 412.106351 116.623337
L 416.518046 120.363387
L 420.929741 124.130816
L 425.341435 127.913182
L 429.75313 131.697654
L 434.164825 135.471049
L 438.57652 139.21987
L 442.988215 142.930355
L 447.399909 146.588516
L 451.811604 150.180184
L 456.223299 153.691062
L 460.634994 157.106766
L 465.046689 160.412881
L 469.458383 163.595006
L 473.870078 166.638811
L 478.281773 169.530082
L 482.693468 172.254779
L 487.105163 174.799086
L 491.516857 177.149466
L 495.928552 179.292708
L 500.340247 181.215987
L 504.751942 182.906909
L 509.163637 184.353568
L 513.575332 185.544591
L 517.987026 186.469193
L 522.398721 187.117221
L 526.810416 187.479201
L 531.222111 187.546387
" style="fill:none;stroke:#ffc600;stroke-linecap:square;stroke-width:2;"/>
   </g>
   <g id="line2d_42">
    <path clip-path="url(#p6ada38c130)" d="M 94.464325 83.698035
L 98.87602 83.691516
L 103.287715 83.661203
L 107.69941 83.596753
L 112.111104 83.490742
L 116.522799 83.337296
L 120.934494 83.131659
L 125.346189 82.869989
L 129.757884 82.549253
L 134.169578 82.167155
L 138.581273 81.722105
L 142.992968 81.213179
L 147.404663 80.640107
L 151.816358 80.003251
L 156.228052 79.303591
L 160.639747 78.542715
L 165.051442 77.722796
L 169.463137 76.846587
L 173.874832 75.917397
L 178.286526 74.939077
L 182.698221 73.916
L 187.109916 72.853041
L 191.521611 71.755551
L 195.933306 70.629336
L 200.345 69.480626
L 204.756695 68.316051
L 209.16839 67.142606
L 213.580085 65.967625
L 217.99178 64.798738
L 222.403474 63.643846
L 226.815169 62.511074
L 231.226864 61.408742
L 235.638559 60.345318
L 240.050254 59.329383
L 244.461948 58.369585
L 248.873643 57.4746
L 253.285338 56.653089
L 257.697033 55.913651
L 262.108728 55.264782
L 266.520422 54.714834
L 270.932117 54.271965
L 275.343812 53.944098
L 279.755507 53.738881
L 284.167202 53.663639
L 288.578897 53.725337
L 292.990591 53.930534
L 297.402286 54.285348
L 301.813981 54.795412
L 306.225676 55.465842
L 310.637371 56.3012
L 315.049065 57.305455
L 319.46076 58.481958
L 323.872455 59.833409
L 328.28415 61.361827
L 332.695845 63.068529
L 337.107539 64.954102
L 341.519234 67.018387
L 345.930929 69.260459
L 350.342624 71.678612
L 354.754319 74.270345
L 359.166013 77.03236
L 363.577708 79.960544
L 367.989403 83.04998
L 372.401098 86.294934
L 376.812793 89.688867
L 381.224487 93.224439
L 385.636182 96.893519
L 390.047877 100.687194
L 394.459572 104.595795
L 398.871267 108.608905
L 403.282961 112.715391
L 407.694656 116.903424
L 412.106351 121.160513
L 416.518046 125.473532
L 420.929741 129.828758
L 425.341435 134.211909
L 429.75313 138.608185
L 434.164825 143.00231
L 438.57652 147.378577
L 442.988215 151.720902
L 447.399909 156.012869
L 451.811604 160.237784
L 456.223299 164.378732
L 460.634994 168.418632
L 465.046689 172.340296
L 469.458383 176.126489
L 473.870078 179.759989
L 478.281773 183.223651
L 482.693468 186.500467
L 487.105163 189.573632
L 491.516857 192.426608
L 495.928552 195.043187
L 500.340247 197.407557
L 504.751942 199.504364
L 509.163637 201.318778
L 513.575332 202.836552
L 517.987026 204.044089
L 522.398721 204.928499
L 526.810416 205.47766
L 531.222111 205.680276
" style="fill:none;stroke:#ff9700;stroke-linecap:square;stroke-width:2;"/>
   </g>
   <g id="line2d_43">
    <path clip-path="url(#p6ada38c130)" d="M 94.464325 83.698035
L 98.87602 83.693199
L 103.287715 83.668749
L 107.69941 83.614171
L 112.111104 83.521381
L 116.522799 83.383678
L 120.934494 83.195399
L 125.346189 82.951762
L 129.757884 82.648782
L 134.169578 82.283223
L 138.581273 81.852573
L 142.992968 81.355026
L 147.404663 80.789469
L 151.816358 80.155477
L 156.228052 79.453304
L 160.639747 78.683874
L 165.051442 77.848778
L 169.463137 76.950258
L 173.874832 75.991202
L 178.286526 74.975127
L 182.698221 73.906164
L 187.109916 72.78904
L 191.521611 71.629059
L 195.933306 70.432076
L 200.345 69.204475
L 204.756695 67.953137
L 209.16839 66.685413
L 213.580085 65.409091
L 217.99178 64.132356
L 222.403474 62.86376
L 226.815169 61.612177
L 231.226864 60.386764
L 235.638559 59.196917
L 240.050254 58.052227
L 244.461948 56.962432
L 248.873643 55.93737
L 253.285338 54.986934
L 257.697033 54.121014
L 262.108728 53.349454
L 266.520422 52.681999
L 270.932117 52.128241
L 275.343812 51.697569
L 279.755507 51.399118
L 284.167202 51.241719
L 288.578897 51.233844
L 292.990591 51.38356
L 297.402286 51.698478
L 301.813981 52.185704
L 306.225676 52.851796
L 310.637371 53.702716
L 315.049065 54.743784
L 319.46076 55.979644
L 323.872455 57.414217
L 328.28415 59.050669
L 332.695845 60.891375
L 337.107539 62.937886
L 341.519234 65.190902
L 345.930929 67.650245
L 350.342624 70.314837
L 354.754319 73.18268
L 359.166013 76.250839
L 363.577708 79.515433
L 367.989403 82.97162
L 372.401098 86.613599
L 376.812793 90.434602
L 381.224487 94.426901
L 385.636182 98.581813
L 390.047877 102.889709
L 394.459572 107.340029
L 398.871267 111.921302
L 403.282961 116.621165
L 407.694656 121.426392
L 412.106351 126.322921
L 416.518046 131.295891
L 420.929741 136.329676
L 425.341435 141.40793
L 429.75313 146.513629
L 434.164825 151.62912
L 438.57652 156.736173
L 442.988215 161.816037
L 447.399909 166.849494
L 451.811604 171.816924
L 456.223299 176.698368
L 460.634994 181.473591
L 465.046689 186.122153
L 469.458383 190.623479
L 473.870078 194.95693
L 478.281773 199.10188
L 482.693468 203.037788
L 487.105163 206.744276
L 491.516857 210.201208
L 495.928552 213.388764
L 500.340247 216.287524
L 504.751942 218.878542
L 509.163637 221.143427
L 513.575332 223.064419
L 517.987026 224.624468
L 522.398721 225.807309
L 526.810416 226.597539
L 531.222111 226.980686
" style="fill:none;stroke:#ff6800;stroke-linecap:square;stroke-width:2;"/>
   </g>
   <g id="line2d_44">
    <path clip-path="url(#p6ada38c130)" d="M 94.464325 83.698035
L 98.87602 83.694447
L 103.287715 83.674749
L 107.69941 83.628593
L 112.111104 83.547491
L 116.522799 83.424096
L 120.934494 83.251966
L 125.346189 83.02546
L 129.757884 82.739688
L 134.169578 82.39049
L 138.581273 81.974427
L 142.992968 81.488775
L 147.404663 80.931536
L 151.816358 80.301432
L 156.228052 79.597916
L 160.639747 78.821169
L 165.051442 77.972103
L 169.463137 77.05236
L 173.874832 76.064307
L 178.286526 75.011029
L 182.698221 73.896318
L 187.109916 72.724662
L 191.521611 71.501228
L 195.933306 70.23184
L 200.345 68.922961
L 204.756695 67.581661
L 209.16839 66.215594
L 213.580085 64.832962
L 217.99178 63.442477
L 222.403474 62.05333
L 226.815169 60.675143
L 231.226864 59.317928
L 235.638559 57.992043
L 240.050254 56.708136
L 244.461948 55.477102
L 248.873643 54.310027
L 253.285338 53.218132
L 257.697033 52.212717
L 262.108728 51.305105
L 266.520422 50.506585
L 270.932117 49.828344
L 275.343812 49.281418
L 279.755507 48.876624
L 284.167202 48.624499
L 288.578897 48.535244
L 292.990591 48.618661
L 297.402286 48.88409
L 301.813981 49.340358
L 306.225676 49.995713
L 310.637371 50.857776
L 315.049065 51.933477
L 319.46076 53.229013
L 323.872455 54.749788
L 328.28415 56.500373
L 332.695845 58.484453
L 337.107539 60.704792
L 341.519234 63.163189
L 345.930929 65.860444
L 350.342624 68.796322
L 354.754319 71.96953
L 359.166013 75.377689
L 363.577708 79.017311
L 367.989403 82.883786
L 372.401098 86.971367
L 376.812793 91.273165
L 381.224487 95.781143
L 385.636182 100.486116
L 390.047877 105.377762
L 394.459572 110.444628
L 398.871267 115.674148
L 403.282961 121.052662
L 407.694656 126.565441
L 412.106351 132.19672
L 416.518046 137.929727
L 420.929741 143.746729
L 425.341435 149.62907
L 429.75313 155.557224
L 434.164825 161.510846
L 438.57652 167.46883
L 442.988215 173.409369
L 447.399909 179.310024
L 451.811604 185.147789
L 456.223299 190.899167
L 460.634994 196.540246
L 465.046689 202.046776
L 469.458383 207.394257
L 473.870078 212.558018
L 478.281773 217.513309
L 482.693468 222.235387
L 487.105163 226.699614
L 491.516857 230.881543
L 495.928552 234.757017
L 500.340247 238.302261
L 504.751942 241.493983
L 509.163637 244.309466
L 513.575332 246.726663
L 517.987026 248.724297
L 522.398721 250.281955
L 526.810416 251.380176
L 531.222111 252.000551
" style="fill:none;stroke:#ff3900;stroke-linecap:square;stroke-width:2;"/>
   </g>
   <g id="line2d_45">
    <path clip-path="url(#p6ada38c130)" d="M 94.464325 83.698035
L 98.87602 83.695373
L 103.287715 83.67952
L 107.69941 83.640535
L 112.111104 83.569742
L 116.522799 83.459317
L 120.934494 83.302167
L 125.346189 83.091879
L 129.757884 82.822718
L 134.169578 82.489625
L 138.581273 82.088235
L 142.992968 81.61489
L 147.404663 81.066664
L 151.816358 80.441374
L 156.228052 79.737601
L 160.639747 78.954704
L 165.051442 78.092828
L 169.463137 77.152917
L 173.874832 76.136719
L 178.286526 75.046783
L 182.698221 73.886462
L 187.109916 72.659904
L 191.521611 71.372042
L 195.933306 70.028581
L 200.345 68.635978
L 204.756695 67.201421
L 209.16839 65.732801
L 213.580085 64.238684
L 217.99178 62.728273
L 222.403474 61.211375
L 226.815169 59.698353
L 231.226864 58.200086
L 235.638559 56.727917
L 240.050254 55.293601
L 244.461948 53.909254
L 248.873643 52.587289
L 253.285338 51.340359
L 257.697033 50.181297
L 262.108728 49.123045
L 266.520422 48.17859
L 270.932117 47.360897
L 275.343812 46.68284
L 279.755507 46.157127
L 284.167202 45.796231
L 288.578897 45.612323
L 292.990591 45.61719
L 297.402286 45.822175
L 301.813981 46.238096
L 306.225676 46.875183
L 310.637371 47.743004
L 315.049065 48.850401
L 319.46076 50.205423
L 323.872455 51.815262
L 328.28415 53.686193
L 332.695845 55.823514
L 337.107539 58.231493
L 341.519234 60.913313
L 345.930929 63.871027
L 350.342624 67.10551
L 354.754319 70.616421
L 359.166013 74.402166
L 363.577708 78.459866
L 367.989403 82.785331
L 372.401098 87.373037
L 376.812793 92.216112
L 381.224487 97.306322
L 385.636182 102.634065
L 390.047877 108.188373
L 394.459572 113.956915
L 398.871267 119.92601
L 403.282961 126.080644
L 407.694656 132.40449
L 412.106351 138.879941
L 416.518046 145.488139
L 420.929741 152.209021
L 425.341435 159.021363
L 429.75313 165.90283
L 434.164825 172.830036
L 438.57652 179.778606
L 442.988215 186.723244
L 447.399909 193.637807
L 451.811604 200.495382
L 456.223299 207.268374
L 460.634994 213.928585
L 465.046689 220.447316
L 469.458383 226.795457
L 473.870078 232.943587
L 478.281773 238.86208
L 482.693468 244.52121
L 487.105163 249.89126
L 491.516857 254.942634
L 495.928552 259.645969
L 500.340247 263.972255
L 504.751942 267.892944
L 509.163637 271.380076
L 513.575332 274.406388
L 517.987026 276.945439
L 522.398721 278.971724
L 526.810416 280.460792
L 531.222111 281.389358
" style="fill:none;stroke:#f30900;stroke-linecap:square;stroke-width:2;"/>
   </g>
   <g id="line2d_46">
    <path clip-path="url(#p6ada38c130)" d="M 94.464325 83.698035
L 98.87602 83.696061
L 103.287715 83.683313
L 107.69941 83.650423
L 112.111104 83.588704
L 116.522799 83.49001
L 120.934494 83.346718
L 125.346189 83.15174
L 129.757884 82.898555
L 134.169578 82.581244
L 138.581273 82.194528
L 142.992968 81.733806
L 147.404663 81.195191
L 151.816358 80.57555
L 156.228052 79.872528
L 160.639747 79.084582
L 165.051442 78.211007
L 169.463137 77.251953
L 173.874832 76.208443
L 178.286526 75.08239
L 182.698221 73.876596
L 187.109916 72.594763
L 191.521611 71.241488
L 195.933306 69.822254
L 200.345 68.343421
L 204.756695 66.812209
L 209.16839 65.236675
L 213.580085 63.625685
L 217.99178 61.988887
L 222.403474 60.336669
L 226.815169 58.680121
L 231.226864 57.03099
L 235.638559 55.401625
L 240.050254 53.804931
L 244.461948 52.254301
L 248.873643 50.763562
L 253.285338 49.346903
L 257.697033 48.018811
L 262.108728 46.793995
L 266.520422 45.687313
L 270.932117 44.713694
L 275.343812 43.88806
L 279.755507 43.225241
L 284.167202 42.739897
L 288.578897 42.446432
L 292.990591 42.358908
L 297.402286 42.490962
L 301.813981 42.855722
L 306.225676 43.46572
L 310.637371 44.332808
L 315.049065 45.468081
L 319.46076 46.881788
L 323.872455 48.583259
L 328.28415 50.580827
L 332.695845 52.881751
L 337.107539 55.49215
L 341.519234 58.416932
L 345.930929 61.659732
L 350.342624 65.222852
L 354.754319 69.107205
L 359.166013 73.312267
L 363.577708 77.836033
L 367.989403 82.674971
L 372.401098 87.823996
L 376.812793 93.276437
L 381.224487 99.024016
L 385.636182 105.056833
L 390.047877 111.363357
L 394.459572 117.930425
L 398.871267 124.743242
L 403.282961 131.785399
L 407.694656 139.038887
L 412.106351 146.484123
L 416.518046 154.099985
L 420.929741 161.863852
L 425.341435 169.751648
L 429.75313 177.737899
L 434.164825 185.795794
L 438.57652 193.897254
L 442.988215 202.013004
L 447.399909 210.112657
L 451.811604 218.164802
L 456.223299 226.137096
L 460.634994 233.996369
L 465.046689 241.708722
L 469.458383 249.239648
L 473.870078 256.55414
L 478.281773 263.616815
L 482.693468 270.392043
L 487.105163 276.84407
L 491.516857 282.937154
L 495.928552 288.635704
L 500.340247 293.904413
L 504.751942 298.708401
L 509.163637 303.013362
L 513.575332 306.785699
L 517.987026 309.992677
L 522.398721 312.602564
L 526.810416 314.584772
L 531.222111 315.910008
" style="fill:none;stroke:#b90000;stroke-linecap:square;stroke-width:2;"/>
   </g>
   <g id="line2d_47">
    <path clip-path="url(#p6ada38c130)" d="M 94.464325 83.698035
L 98.87602 83.69657
L 103.287715 83.686329
L 107.69941 83.658611
L 112.111104 83.604864
L 116.522799 83.516757
L 120.934494 83.386255
L 125.346189 83.205689
L 129.757884 82.967821
L 134.169578 82.665916
L 138.581273 82.293803
L 142.992968 81.845933
L 147.404663 81.317441
L 151.816358 80.704198
L 156.228052 80.002858
L 160.639747 79.210905
L 165.051442 78.326695
L 169.463137 77.34949
L 173.874832 76.279488
L 178.286526 75.11785
L 182.698221 73.86672
L 187.109916 72.529239
L 191.521611 71.109552
L 195.933306 69.612813
L 200.345 68.045182
L 204.756695 66.413815
L 209.16839 64.726848
L 213.580085 62.993377
L 217.99178 61.22343
L 222.403474 59.427938
L 226.815169 57.618689
L 231.226864 55.80829
L 235.638559 54.010112
L 240.050254 52.23824
L 244.461948 50.507406
L 248.873643 48.832928
L 253.285338 47.230637
L 257.697033 45.716803
L 262.108728 44.308056
L 266.520422 43.021303
L 270.932117 41.873639
L 275.343812 40.882263
L 279.755507 40.064379
L 284.167202 39.437105
L 288.578897 39.017375
L 292.990591 38.821839
L 297.402286 38.866766
L 301.813981 39.167943
L 306.225676 39.740571
L 310.637371 40.599169
L 315.049065 41.757472
L 319.46076 43.228332
L 323.872455 45.023624
L 328.28415 47.154144
L 332.695845 49.629526
L 337.107539 52.458146
L 341.519234 55.647038
L 345.930929 59.201813
L 350.342624 63.126579
L 354.754319 67.423871
L 359.166013 72.094583
L 363.577708 77.137905
L 367.989403 82.551267
L 372.401098 88.330292
L 376.812793 94.46875
L 381.224487 100.958524
L 385.636182 107.789581
L 390.047877 114.949954
L 394.459572 122.425725
L 398.871267 130.201021
L 403.282961 138.258022
L 407.694656 146.576967
L 412.106351 155.136178
L 416.518046 163.912087
L 420.929741 172.879278
L 425.341435 182.010529
L 429.75313 191.276868
L 434.164825 200.647641
L 438.57652 210.09058
L 442.988215 219.571886
L 447.399909 229.05632
L 451.811604 238.507299
L 456.223299 247.887001
L 460.634994 257.156483
L 465.046689 266.275794
L 469.458383 275.20411
L 473.870078 283.899867
L 478.281773 292.3209
L 482.693468 300.42459
L 487.105163 308.16802
L 491.516857 315.50813
L 495.928552 322.401879
L 500.340247 328.806411
L 504.751942 334.679225
L 509.163637 339.97835
L 513.575332 344.662514
L 517.987026 348.691324
L 522.398721 352.025445
L 526.810416 354.626774
L 531.222111 356.458618
" style="fill:none;stroke:#800000;stroke-linecap:square;stroke-width:2;"/>
   </g>
   <g id="patch_3">
    <path d="M 72.626436 372.340456
L 72.626436 22.94
" style="fill:none;stroke:#000000;stroke-linecap:square;stroke-linejoin:miter;stroke-width:0.8;"/>
   </g>
   <g id="patch_4">
    <path d="M 553.06 372.340456
L 553.06 22.94
" style="fill:none;stroke:#000000;stroke-linecap:square;stroke-linejoin:miter;stroke-width:0.8;"/>
   </g>
   <g id="patch_5">
    <path d="M 72.626436 372.340456
L 553.06 372.340456
" style="fill:none;stroke:#000000;stroke-linecap:square;stroke-linejoin:miter;stroke-width:0.8;"/>
   </g>
   <g id="patch_6">
    <path d="M 72.626436 22.94
L 553.06 22.94
" style="fill:none;stroke:#000000;stroke-linecap:square;stroke-linejoin:miter;stroke-width:0.8;"/>
   </g>
  </g>
 </g>
 <defs>
  <clipPath id="p6ada38c130">
   <rect height="349.400456" width="480.433564" x="72.626436" y="22.94"/>
  </clipPath>
 </defs>
</svg>
