<?xml version="1.0" encoding="utf-8" standalone="no"?>
<!DOCTYPE svg PUBLIC "-//W3C//DTD SVG 1.1//EN"
  "http://www.w3.org/Graphics/SVG/1.1/DTD/svg11.dtd">
<!-- Created with matplotlib (http://matplotlib.org/) -->
<svg height="432pt" version="1.1" viewBox="0 0 1296 432" width="1296pt" xmlns="http://www.w3.org/2000/svg" xmlns:xlink="http://www.w3.org/1999/xlink">
 <defs>
  <style type="text/css">
*{stroke-linecap:butt;stroke-linejoin:round;}
  </style>
 </defs>
 <g id="figure_1">
  <g id="patch_1">
   <path d="M 0 432
L 1296 432
L 1296 0
L 0 0
z
" style="fill:none;"/>
  </g>
  <g id="axes_1">
   <g id="patch_2">
    <path d="M 65.313132 372.340456
L 630.474812 372.340456
L 630.474812 37.8933
L 65.313132 37.8933
z
" style="fill:none;"/>
   </g>
   <g id="matplotlib.axis_1">
    <g id="xtick_1">
     <g id="line2d_1">
      <defs>
       <path d="M 0 0
L 0 3.5
" id="m716e94def1" style="stroke:#000000;stroke-width:0.8;"/>
      </defs>
      <g>
       <use style="stroke:#000000;stroke-width:0.8;" x="65.313132" xlink:href="#m716e94def1" y="372.340456"/>
      </g>
     </g>
     <g id="line2d_2">
      <defs>
       <path d="M 0 0
L 0 -3.5
" id="mdea6ed86c2" style="stroke:#000000;stroke-width:0.8;"/>
      </defs>
      <g>
       <use style="stroke:#000000;stroke-width:0.8;" x="65.313132" xlink:href="#mdea6ed86c2" y="37.8933"/>
      </g>
     </g>
     <g id="text_1">
      <!-- 0 -->
      <defs>
       <path d="M 42 31.640625
C 42 37.75 41.90625 48.125 37.703125 56.109375
C 34 63.109375 28.09375 65.59375 22.90625 65.59375
C 18.09375 65.59375 12 63.40625 8.203125 56.203125
C 4.203125 48.71875 3.796875 39.4375 3.796875 31.640625
C 3.796875 25.953125 3.90625 17.28125 7 9.671875
C 11.296875 -0.609375 19 -2 22.90625 -2
C 27.5 -2 34.5 -0.109375 38.59375 9.375
C 41.59375 16.28125 42 24.359375 42 31.640625
z
M 22.90625 -0.40625
C 16.5 -0.40625 12.703125 5.078125 11.296875 12.6875
C 10.203125 18.5625 10.203125 27.15625 10.203125 32.75
C 10.203125 40.4375 10.203125 46.828125 11.5 52.921875
C 13.40625 61.390625 19 64 22.90625 64
C 27 64 32.296875 61.296875 34.203125 53.125
C 35.5 47.4375 35.59375 40.734375 35.59375 32.75
C 35.59375 26.25 35.59375 18.265625 34.40625 12.375
C 32.296875 1.484375 26.40625 -0.40625 22.90625 -0.40625
z
" id="CMR17-48"/>
      </defs>
      <g transform="translate(61.65648 389.714046)scale(0.14994 -0.14994)">
       <use transform="scale(0.996264)" xlink:href="#CMR17-48"/>
      </g>
     </g>
    </g>
    <g id="xtick_2">
     <g id="line2d_3">
      <g>
       <use style="stroke:#000000;stroke-width:0.8;" x="347.893972" xlink:href="#m716e94def1" y="372.340456"/>
      </g>
     </g>
     <g id="line2d_4">
      <g>
       <use style="stroke:#000000;stroke-width:0.8;" x="347.893972" xlink:href="#mdea6ed86c2" y="37.8933"/>
      </g>
     </g>
     <g id="text_2">
      <!-- $\pi$ -->
      <defs>
       <path d="M 25.90625 37.625
L 37.203125 37.625
C 34.5 26.4375 32.796875 19.15625 32.796875 11.1875
C 32.796875 9.78125 32.796875 -1 36.90625 -1
C 39 -1 40.796875 0.890625 40.796875 2.59375
C 40.796875 3.078125 40.796875 3.28125 40.09375 4.78125
C 37.40625 11.671875 37.40625 20.25 37.40625 20.953125
C 37.40625 21.546875 37.40625 28.625 39.5 37.625
L 50.703125 37.625
C 52 37.625 55.296875 37.625 55.296875 40.8125
C 55.296875 43 53.40625 43 51.59375 43
L 18.703125 43
C 16.40625 43 13 43 8.40625 38.125
C 5.796875 35.21875 2.59375 29.9375 2.59375 29.34375
C 2.59375 28.75 3.09375 28.546875 3.703125 28.546875
C 4.40625 28.546875 4.5 28.84375 5 29.4375
C 10.203125 37.625 15.40625 37.625 17.90625 37.625
L 23.59375 37.625
C 21.40625 30.140625 18.90625 21.453125 10.703125 4
C 9.90625 2.40625 9.90625 2.1875 9.90625 1.59375
C 9.90625 -0.5 11.703125 -1 12.59375 -1
C 15.5 -1 16.296875 1.59375 17.5 5.78125
C 19.09375 10.875 19.09375 11.078125 20.09375 15.0625
z
" id="CMMI12-25"/>
      </defs>
      <g transform="translate(343.745436 389.714046)scale(0.14994 -0.14994)">
       <use transform="scale(0.996264)" xlink:href="#CMMI12-25"/>
      </g>
     </g>
    </g>
    <g id="xtick_3">
     <g id="line2d_5">
      <g>
       <use style="stroke:#000000;stroke-width:0.8;" x="630.474812" xlink:href="#m716e94def1" y="372.340456"/>
      </g>
     </g>
     <g id="line2d_6">
      <g>
       <use style="stroke:#000000;stroke-width:0.8;" x="630.474812" xlink:href="#mdea6ed86c2" y="37.8933"/>
      </g>
     </g>
     <g id="text_3">
      <!-- $2\pi$ -->
      <defs>
       <path d="M 41.703125 15.453125
L 39.90625 15.453125
C 38.90625 8.375 38.09375 7.171875 37.703125 6.5625
C 37.203125 5.765625 30 5.765625 28.59375 5.765625
L 9.40625 5.765625
C 13 9.671875 20 16.75 28.5 24.953125
C 34.59375 30.734375 41.703125 37.53125 41.703125 47.421875
C 41.703125 59.21875 32.296875 66 21.796875 66
C 10.796875 66 4.09375 56.3125 4.09375 47.34375
C 4.09375 43.4375 7 42.9375 8.203125 42.9375
C 9.203125 42.9375 12.203125 43.546875 12.203125 47.03125
C 12.203125 50.109375 9.59375 51 8.203125 51
C 7.59375 51 7 50.90625 6.59375 50.703125
C 8.5 59.21875 14.296875 63.40625 20.40625 63.40625
C 29.09375 63.40625 34.796875 56.515625 34.796875 47.421875
C 34.796875 38.734375 29.703125 31.25 24 24.75
L 4.09375 2.28125
L 4.09375 0
L 39.296875 0
z
" id="CMR17-50"/>
      </defs>
      <g transform="translate(622.669624 389.714046)scale(0.14994 -0.14994)">
       <use transform="scale(0.996264)" xlink:href="#CMR17-50"/>
       <use transform="translate(45.690477 0)scale(0.996264)" xlink:href="#CMMI12-25"/>
      </g>
     </g>
    </g>
    <g id="text_4">
     <!-- $x$ -->
     <defs>
      <path d="M 47.40625 40.71875
C 44.203125 40.109375 43 37.71875 43 35.828125
C 43 33.421875 44.90625 32.625 46.296875 32.625
C 49.296875 32.625 51.40625 35.21875 51.40625 37.921875
C 51.40625 42.109375 46.59375 44 42.40625 44
C 36.296875 44 32.90625 38.015625 32 36.125
C 29.703125 44 23.5 44 21.703125 44
C 11.5 44 6.09375 30.9375 6.09375 28.734375
C 6.09375 28.34375 6.5 27.84375 7.203125 27.84375
C 8 27.84375 8.203125 28.4375 8.40625 28.84375
C 11.796875 39.921875 18.5 42.015625 21.40625 42.015625
C 25.90625 42.015625 26.796875 37.8125 26.796875 35.421875
C 26.796875 33.234375 26.203125 30.9375 25 26.140625
L 21.59375 12.46875
C 20.09375 6.484375 17.203125 1 11.90625 1
C 11.40625 1 8.90625 1 6.796875 2.296875
C 10.40625 3 11.203125 5.984375 11.203125 7.1875
C 11.203125 9.1875 9.703125 10.375 7.796875 10.375
C 5.40625 10.375 2.796875 8.28125 2.796875 5.09375
C 2.796875 0.890625 7.5 -1 11.796875 -1
C 16.59375 -1 20 2.796875 22.09375 6.890625
C 23.703125 1 28.703125 -1 32.40625 -1
C 42.59375 -1 48 12.078125 48 14.265625
C 48 14.765625 47.59375 15.171875 47 15.171875
C 46.09375 15.171875 46 14.671875 45.703125 13.875
C 43 5.09375 37.203125 1 32.703125 1
C 29.203125 1 27.296875 3.59375 27.296875 7.6875
C 27.296875 9.875 27.703125 11.46875 29.296875 18.0625
L 32.796875 31.625
C 34.296875 37.625 37.703125 42.015625 42.296875 42.015625
C 42.5 42.015625 45.296875 42.015625 47.40625 40.71875
z
" id="CMMI12-120"/>
     </defs>
     <g transform="translate(342.904907 409.071936)scale(0.18 -0.18)">
      <use transform="scale(0.996264)" xlink:href="#CMMI12-120"/>
     </g>
    </g>
   </g>
   <g id="matplotlib.axis_2">
    <g id="ytick_1">
     <g id="line2d_7">
      <defs>
       <path d="M 0 0
L -3.5 0
" id="m4fd83b38b6" style="stroke:#000000;stroke-width:0.8;"/>
      </defs>
      <g>
       <use style="stroke:#000000;stroke-width:0.8;" x="65.313132" xlink:href="#m4fd83b38b6" y="357.138608"/>
      </g>
     </g>
     <g id="line2d_8">
      <defs>
       <path d="M 0 0
L 3.5 0
" id="m2d25bddd1e" style="stroke:#000000;stroke-width:0.8;"/>
      </defs>
      <g>
       <use style="stroke:#000000;stroke-width:0.8;" x="630.474812" xlink:href="#m2d25bddd1e" y="357.138608"/>
      </g>
     </g>
     <g id="text_5">
      <!-- $-1$ -->
      <defs>
       <path d="M 65.90625 23
C 67.59375 23 69.40625 23 69.40625 25
C 69.40625 27 67.59375 27 65.90625 27
L 11.796875 27
C 10.09375 27 8.296875 27 8.296875 25
C 8.296875 23 10.09375 23 11.796875 23
z
" id="CMSY10-0"/>
       <path d="M 26.59375 63.40625
C 26.59375 65.5 26.5 65.5 25.09375 65.5
C 21.203125 61.1875 15.296875 59.796875 9.703125 59.796875
C 9.40625 59.796875 8.90625 59.796875 8.796875 59.5
C 8.703125 59.296875 8.703125 59.09375 8.703125 57
C 11.796875 57 17 57.59375 21 59.984375
L 21 7.203125
C 21 3.6875 20.796875 2.5 12.203125 2.5
L 9.203125 2.5
L 9.203125 0
C 14 0 19 0 23.796875 0
C 28.59375 0 33.59375 0 38.40625 0
L 38.40625 2.5
L 35.40625 2.5
C 26.796875 2.5 26.59375 3.59375 26.59375 7.15625
z
" id="CMR17-49"/>
      </defs>
      <g transform="translate(39.381364 362.325402)scale(0.14994 -0.14994)">
       <use transform="scale(0.996264)" xlink:href="#CMSY10-0"/>
       <use transform="translate(77.487468 0)scale(0.996264)" xlink:href="#CMR17-49"/>
      </g>
     </g>
    </g>
    <g id="ytick_2">
     <g id="line2d_9">
      <g>
       <use style="stroke:#000000;stroke-width:0.8;" x="65.313132" xlink:href="#m4fd83b38b6" y="205.116437"/>
      </g>
     </g>
     <g id="line2d_10">
      <g>
       <use style="stroke:#000000;stroke-width:0.8;" x="630.474812" xlink:href="#m2d25bddd1e" y="205.116437"/>
      </g>
     </g>
     <g id="text_6">
      <!-- $0$ -->
      <g transform="translate(50.999828 210.303231)scale(0.14994 -0.14994)">
       <use transform="scale(0.996264)" xlink:href="#CMR17-48"/>
      </g>
     </g>
    </g>
    <g id="ytick_3">
     <g id="line2d_11">
      <g>
       <use style="stroke:#000000;stroke-width:0.8;" x="65.313132" xlink:href="#m4fd83b38b6" y="53.094266"/>
      </g>
     </g>
     <g id="line2d_12">
      <g>
       <use style="stroke:#000000;stroke-width:0.8;" x="630.474812" xlink:href="#m2d25bddd1e" y="53.094266"/>
      </g>
     </g>
     <g id="text_7">
      <!-- $1$ -->
      <g transform="translate(50.999828 58.28106)scale(0.14994 -0.14994)">
       <use transform="scale(0.996264)" xlink:href="#CMR17-49"/>
      </g>
     </g>
    </g>
    <g id="text_8">
     <!-- $y$ -->
     <defs>
      <path d="M 26.296875 -10.9375
C 23.59375 -14.671875 19.703125 -18 14.796875 -18
C 13.59375 -18 8.796875 -18 7.296875 -13.890625
C 7.59375 -13.984375 8.09375 -13.984375 8.296875 -13.984375
C 11.296875 -13.984375 13.296875 -11.390625 13.296875 -9.09375
C 13.296875 -6.796875 11.40625 -6 9.90625 -6
C 8.296875 -6 4.796875 -7.15625 4.796875 -11.859375
C 4.796875 -16.734375 9.09375 -20.09375 14.796875 -20.09375
C 24.796875 -20.09375 34.90625 -10.9375 37.703125 0.09375
L 47.5 38.828125
C 47.59375 39.328125 47.796875 39.9375 47.796875 40.53125
C 47.796875 42.015625 46.59375 43.015625 45.09375 43.015625
C 44.203125 43.015625 42.09375 42.609375 41.296875 39.609375
L 33.90625 10.28125
C 33.40625 8.484375 33.40625 8.28125 32.59375 7.1875
C 30.59375 4.390625 27.296875 1 22.5 1
C 16.90625 1 16.40625 6.484375 16.40625 9.1875
C 16.40625 14.875 19.09375 22.546875 21.796875 29.734375
C 22.90625 32.625 23.5 34.03125 23.5 36.015625
C 23.5 40.21875 20.5 44 15.59375 44
C 6.40625 44 2.703125 29.53125 2.703125 28.734375
C 2.703125 28.34375 3.09375 27.84375 3.796875 27.84375
C 4.703125 27.84375 4.796875 28.234375 5.203125 29.640625
C 7.59375 38.015625 11.40625 42.015625 15.296875 42.015625
C 16.203125 42.015625 17.90625 42.015625 17.90625 38.71875
C 17.90625 36.125 16.796875 33.234375 15.296875 29.4375
C 10.40625 16.359375 10.40625 13.078125 10.40625 10.671875
C 10.40625 1.203125 17.203125 -1 22.203125 -1
C 25.09375 -1 28.703125 -0.09375 32.203125 3.59375
L 32.296875 3.5
C 30.796875 -2.296875 29.796875 -6.125 26.296875 -10.9375
z
" id="CMMI12-121"/>
     </defs>
     <g transform="translate(31.8933 209.397655)rotate(-90)scale(0.18 -0.18)">
      <use transform="scale(0.996264)" xlink:href="#CMMI12-121"/>
     </g>
    </g>
   </g>
   <g id="line2d_13">
    <path clip-path="url(#p06ed5c14e5)" d="M 65.313132 205.116437
L 83.726921 174.212089
L 93.642038 158.025178
L 102.14071 144.598375
L 109.222937 133.816818
L 116.305163 123.477051
L 121.970945 115.566483
L 127.636726 108.011101
L 133.302507 100.840872
L 138.968288 94.084236
L 143.217624 89.304365
L 147.46696 84.782916
L 151.716296 80.529978
L 155.965632 76.555042
L 160.214968 72.866976
L 164.464304 69.47401
L 168.71364 66.383716
L 172.962976 63.602988
L 177.212312 61.138033
L 181.461648 58.994349
L 185.710984 57.176721
L 189.96032 55.689205
L 194.209656 54.535119
L 198.458991 53.717039
L 201.291882 53.359254
L 204.124773 53.151987
L 206.957663 53.095444
L 209.790554 53.189679
L 212.623445 53.434601
L 215.456335 53.829965
L 219.705671 54.704193
L 223.955007 55.91405
L 228.204343 57.456835
L 232.453679 59.329107
L 236.703015 61.526688
L 240.952351 64.044673
L 245.201687 66.877445
L 249.451023 70.018682
L 253.700359 73.461375
L 257.949695 77.197841
L 262.199031 81.219744
L 266.448367 85.518109
L 270.697702 90.083345
L 274.947038 94.905265
L 280.61282 101.7151
L 286.278601 108.935061
L 291.944382 116.53651
L 297.610163 124.489298
L 304.69239 134.876175
L 311.774617 145.698279
L 320.273288 159.164722
L 330.188406 175.385013
L 342.936413 196.741876
L 367.015984 237.191792
L 376.931101 253.34432
L 385.429773 266.73065
L 392.511999 277.470992
L 399.594226 287.763008
L 405.260007 295.630865
L 410.925788 303.139712
L 416.59157 310.259765
L 422.257351 316.962783
L 426.506687 321.700309
L 430.756023 326.17769
L 435.005359 330.384937
L 439.254695 334.312661
L 443.504031 337.952097
L 447.753367 341.295126
L 452.002703 344.334286
L 456.252039 347.062797
L 460.501374 349.47457
L 464.75071 351.564223
L 469.000046 353.327094
L 473.249382 354.75925
L 477.498718 355.857493
L 481.748054 356.619375
L 484.580945 356.939557
L 487.413835 357.109157
L 490.246726 357.128005
L 493.079617 356.996083
L 495.912507 356.713523
L 498.745398 356.280603
L 502.994734 355.350281
L 507.24407 354.084729
L 511.493406 352.48677
L 515.742742 350.55997
L 519.992078 348.308628
L 524.241414 345.737769
L 528.490749 342.853129
L 532.740085 339.661144
L 536.989421 336.168938
L 541.238757 332.384302
L 545.488093 328.315682
L 549.737429 323.972156
L 553.986765 319.363416
L 559.652546 312.823733
L 565.318328 305.856845
L 570.984109 298.490387
L 576.64989 290.753575
L 582.315671 282.677097
L 589.397898 272.152763
L 596.480125 261.213055
L 604.978796 247.632709
L 614.893914 231.318322
L 629.058367 207.510281
L 630.474812 205.116437
L 630.474812 205.116437
" style="fill:none;stroke:#000000;stroke-linecap:square;stroke-width:2;"/>
   </g>
   <g id="line2d_14">
    <path clip-path="url(#p06ed5c14e5)" d="M 65.313132 312.612345
L 70.978913 305.632544
L 76.644695 298.254061
L 82.310476 290.506163
L 87.976257 282.41958
L 95.058484 271.884055
L 102.14071 260.934822
L 110.639382 247.345325
L 120.554499 231.023507
L 134.718952 207.211071
L 153.132741 176.265919
L 163.047859 160.021254
L 171.546531 146.525628
L 178.628757 135.673554
L 185.710984 125.251767
L 191.376765 117.267638
L 197.042546 109.631947
L 202.708327 102.374981
L 208.374109 95.525523
L 214.03989 89.11074
L 218.289226 84.600282
L 222.538562 80.358742
L 226.787898 76.395586
L 231.037234 72.719656
L 235.28657 69.339155
L 239.535906 66.261626
L 243.785241 63.493937
L 248.034577 61.042263
L 252.283913 58.912074
L 256.533249 57.108125
L 260.782585 55.63444
L 265.031921 54.494308
L 269.281257 53.690273
L 272.114148 53.341887
L 274.947038 53.144036
L 277.779929 53.096916
L 280.61282 53.200574
L 283.44571 53.454907
L 286.278601 53.859662
L 290.527937 54.747919
L 294.777273 55.971707
L 299.026609 57.528295
L 303.275945 59.41421
L 307.525281 61.625243
L 311.774617 64.156462
L 316.023952 67.002217
L 320.273288 70.15616
L 324.522624 73.611251
L 328.77196 77.359782
L 333.021296 81.393388
L 337.270632 85.703068
L 341.519968 90.279206
L 345.769304 95.111591
L 351.435085 101.934661
L 357.100867 109.166985
L 362.766648 116.779878
L 368.432429 124.743143
L 375.514656 135.141697
L 382.596882 145.973833
L 391.095554 159.450056
L 401.010671 175.678534
L 413.758679 197.04068
L 437.838249 237.484236
L 447.753367 253.628012
L 456.252039 267.004094
L 463.334265 277.734028
L 470.416492 288.014006
L 476.082273 295.87111
L 481.748054 303.36825
L 487.413835 310.475689
L 493.079617 317.165238
L 497.328953 321.892131
L 501.578289 326.358453
L 505.827624 330.554236
L 510.07696 334.470118
L 514.326296 338.097362
L 518.575632 341.427873
L 522.824968 344.454221
L 527.074304 347.169651
L 531.32364 349.568104
L 535.572976 351.64423
L 539.822312 353.393395
L 544.071648 354.811696
L 548.320984 355.895968
L 552.57032 356.643792
L 555.40321 356.954571
L 558.236101 357.114752
L 561.068992 357.124176
L 563.901882 356.982834
L 566.734773 356.690867
L 569.567664 356.248562
L 573.817 355.304226
L 578.066335 354.024761
L 582.315671 352.413024
L 586.565007 350.472611
L 590.814343 348.207851
L 595.063679 345.623798
L 599.313015 342.726219
L 603.562351 339.521578
L 607.811687 336.017027
L 612.061023 332.220385
L 616.310359 328.140125
L 620.559695 323.785351
L 624.809031 319.16578
L 630.474812 312.612345
L 630.474812 312.612345
" style="fill:none;stroke:#ff0000;stroke-linecap:square;stroke-width:2;"/>
   </g>
   <g id="patch_3">
    <path d="M 65.313132 372.340456
L 65.313132 37.8933
" style="fill:none;stroke:#000000;stroke-linecap:square;stroke-linejoin:miter;stroke-width:0.8;"/>
   </g>
   <g id="patch_4">
    <path d="M 630.474812 372.340456
L 630.474812 37.8933
" style="fill:none;stroke:#000000;stroke-linecap:square;stroke-linejoin:miter;stroke-width:0.8;"/>
   </g>
   <g id="patch_5">
    <path d="M 65.313132 372.340456
L 630.474812 372.340456
" style="fill:none;stroke:#000000;stroke-linecap:square;stroke-linejoin:miter;stroke-width:0.8;"/>
   </g>
   <g id="patch_6">
    <path d="M 65.313132 37.8933
L 630.474812 37.8933
" style="fill:none;stroke:#000000;stroke-linecap:square;stroke-linejoin:miter;stroke-width:0.8;"/>
   </g>
   <g id="text_9">
    <!-- First subplot -->
    <defs>
     <path d="M 54.40625 67.578125
L 5.09375 67.578125
L 5.09375 65
C 12 65 13.09375 65 13.09375 60.53125
L 13.09375 6.96875
C 13.09375 2.5 12 2.5 5.09375 2.5
L 5.09375 0
C 8 0 13.59375 0 16.703125 0
C 20.796875 0 25.59375 0 29.703125 0
L 29.703125 2.5
L 27.5 2.5
C 19.90625 2.5 19.703125 3.484375 19.703125 7.0625
L 19.703125 32.421875
L 28.703125 32.421875
C 38 32.421875 38.90625 29.140625 38.90625 20.8125
L 40.703125 20.8125
L 40.703125 46.671875
L 38.90625 46.671875
C 38.90625 38.28125 38 35 28.703125 35
L 19.703125 35
L 19.703125 61.109375
C 19.703125 64.5 19.90625 65 23.90625 65
L 36.796875 65
C 51.90625 65 53.59375 58.828125 55 45.5625
L 56.796875 45.5625
z
" id="CMR17-70"/>
     <path d="M 15.5 61.078125
C 15.5 63.265625 13.703125 65.15625 11.40625 65.15625
C 9.203125 65.15625 7.296875 63.375 7.296875 61.078125
C 7.296875 58.890625 9.09375 57 11.40625 57
C 13.59375 57 15.5 58.796875 15.5 61.078125
z
M 3.796875 42.28125
L 3.796875 39.703125
C 9.40625 39.703125 10.203125 39.09375 10.203125 34.328125
L 10.203125 6.671875
C 10.203125 2.875 9.796875 2.390625 3.40625 2.390625
L 3.40625 -0.203125
C 5.796875 0 10.09375 0 12.59375 0
C 15 0 19.09375 0 21.40625 -0.203125
L 21.40625 2.390625
C 15.5 2.390625 15.296875 2.984375 15.296875 6.5625
L 15.296875 43.375
z
" id="CMR17-105"/>
     <path d="M 15 23.390625
C 15 33 19.09375 42 26.59375 42
C 27.296875 42 28 41.90625 28.703125 41.59375
C 28.703125 41.59375 26.5 40.890625 26.5 38.3125
C 26.5 35.90625 28.40625 34.90625 29.90625 34.90625
C 31.09375 34.90625 33.296875 35.609375 33.296875 38.40625
C 33.296875 41.609375 30.09375 43.59375 26.703125 43.59375
C 19.09375 43.59375 15.796875 36.203125 14.796875 32.703125
L 14.703125 32.703125
L 14.703125 43.59375
L 3.09375 42.5
L 3.09375 39.90625
C 9 39.90625 9.90625 39.296875 9.90625 34.5
L 9.90625 6.6875
C 9.90625 2.875 9.5 2.390625 3.09375 2.390625
L 3.09375 -0.203125
C 5.5 0 10.09375 0 12.703125 0
C 15.59375 0 20.703125 0 23.40625 -0.203125
L 23.40625 2.390625
C 16.203125 2.390625 15 2.390625 15 6.875
z
" id="CMR17-114"/>
     <path d="M 30.90625 42.140625
C 30.90625 43.953125 30.796875 44.046875 30.203125 44.046875
C 29.796875 44.046875 29.703125 43.953125 28.5 42.453125
C 28.203125 42.046875 27.296875 41.03125 27 40.640625
C 23.796875 44.046875 19.296875 44.046875 17.59375 44.046875
C 6.5 44.046875 2.5 38.234375 2.5 32.4375
C 2.5 23.40625 12.703125 21.328125 15.59375 20.703125
C 21.90625 19.421875 24.09375 19.015625 26.203125 17.203125
C 27.5 16.015625 29.703125 13.8125 29.703125 10.21875
C 29.703125 6 27.296875 0.59375 18.09375 0.59375
C 9.40625 0.59375 6.296875 7.1875 4.5 15.953125
C 4.203125 17.34375 4.203125 17.453125 3.40625 17.453125
C 2.59375 17.453125 2.5 17.34375 2.5 15.359375
L 2.5 0.984375
C 2.5 -0.796875 2.59375 -0.90625 3.203125 -0.90625
C 3.703125 -0.90625 3.796875 -0.796875 4.296875 0
C 4.90625 0.890625 6.40625 3.296875 7 4.3125
C 9 1.609375 12.5 -1 18.09375 -1
C 28 -1 33.296875 4.421875 33.296875 12.25
C 33.296875 17.375 30.59375 20.078125 29.296875 21.28125
C 26.296875 24.390625 22.796875 25.09375 18.59375 25.890625
C 13.09375 27.109375 6.09375 28.515625 6.09375 34.640625
C 6.09375 37.234375 7.5 42.765625 17.59375 42.765625
C 28.296875 42.765625 28.90625 32.71875 29.09375 29.5
C 29.203125 29 29.703125 28.890625 30 28.890625
C 30.90625 28.890625 30.90625 29.203125 30.90625 30.90625
z
" id="CMR17-115"/>
     <path d="M 15.09375 40
L 29.09375 40
L 29.09375 42.578125
L 15.09375 42.578125
L 15.09375 61
L 13.296875 61
C 13.09375 50.703125 9.59375 41.6875 1.09375 41.6875
L 1.09375 40
L 9.796875 40
L 9.796875 12.046875
C 9.796875 10.15625 9.796875 -1 21.40625 -1
C 27.296875 -1 30.703125 4.78125 30.703125 12.140625
L 30.703125 17.8125
L 28.90625 17.8125
L 28.90625 12.234375
C 28.90625 5.375 26.203125 0.796875 22 0.796875
C 19.09375 0.796875 15.09375 2.78125 15.09375 11.84375
z
" id="CMR17-116"/>
     <path d="M 29.40625 42.078125
L 29.40625 39.5
C 35.296875 39.5 36.203125 38.890625 36.203125 34.15625
L 36.203125 16.125
C 36.203125 7.8125 31.703125 0.59375 24.296875 0.59375
C 16.09375 0.59375 15.40625 5.4375 15.40625 10.59375
L 15.40625 43.171875
L 3.296875 42.078125
L 3.296875 39.5
C 7.296875 39.5 10 39.5 10.09375 35.53125
L 10.09375 16.53125
C 10.09375 9.890625 10.09375 5.640625 12.703125 2.859375
C 14 1.578125 16.5 -1 23.703125 -1
C 32.203125 -1 35.5 5.890625 36.296875 7.90625
L 36.40625 7.90625
L 36.40625 -0.984375
L 48.296875 -0.984375
L 48.296875 2
C 42.40625 2 41.5 2.59375 41.5 7.390625
L 41.5 43.171875
z
" id="CMR17-117"/>
     <path d="M 15 68.6875
L 3.09375 67.59375
L 3.09375 65
C 9 65 9.90625 64.40625 9.90625 59.640625
L 9.90625 -0.203125
L 11.703125 -0.203125
L 14.59375 6.890625
C 17.5 2.203125 21.796875 -1 27.59375 -1
C 37.59375 -1 47.703125 7.8125 47.703125 21.40625
C 47.703125 34.1875 38.703125 43.59375 28.59375 43.59375
C 22.40625 43.59375 18 40.296875 15 36.40625
z
M 15.203125 31.3125
C 15.203125 33.09375 15.203125 33.40625 16.59375 35.5
C 20.5 41.515625 26.09375 42 28 42
C 31 42 41.296875 40.390625 41.296875 21.5
C 41.296875 1.6875 29.5 0.59375 27.09375 0.59375
C 24 0.59375 19.5 1.78125 16.296875 7.59375
C 15.203125 9.5 15.203125 9.703125 15.203125 11.484375
z
" id="CMR17-98"/>
     <path d="M 22 -16.609375
C 15.59375 -16.609375 15.203125 -16.203125 15.203125 -12.328125
L 15.203125 6.28125
C 18.09375 2.09375 22.296875 -0.59375 27.59375 -0.59375
C 37.59375 -0.59375 47.703125 8.171875 47.703125 21.6875
C 47.703125 34.234375 39 43.78125 28.703125 43.78125
C 22.703125 43.78125 17.796875 40.5 15 36.53125
L 15 43.78125
L 3.09375 42.6875
L 3.09375 40.109375
C 9 40.109375 9.90625 39.5 9.90625 34.734375
L 9.90625 -12.328125
C 9.90625 -16.109375 9.5 -16.609375 3.09375 -16.609375
L 3.09375 -19.1875
C 5.5 -19 9.90625 -19 12.5 -19
C 15.09375 -19 19.59375 -19 22 -19.1875
z
M 15.203125 31.4375
C 15.203125 32.84375 15.203125 34.921875 19.09375 38.609375
C 19.59375 39.015625 23 42 28 42
C 35.296875 42 41.296875 32.9375 41.296875 21.59375
C 41.296875 10.25 34.90625 1 27 1
C 23.40625 1 19.5 2.6875 16.5 7.375
C 15.203125 9.5625 15.203125 10.15625 15.203125 11.75
z
" id="CMR17-112"/>
     <path d="M 15.296875 68.6875
L 3.40625 67.59375
L 3.40625 65
C 9.296875 65 10.203125 64.40625 10.203125 59.640625
L 10.203125 6.65625
C 10.203125 2.875 9.796875 2.390625 3.40625 2.390625
L 3.40625 -0.203125
C 5.796875 0 10.203125 0 12.703125 0
C 15.296875 0 19.703125 0 22.09375 -0.203125
L 22.09375 2.390625
C 15.703125 2.390625 15.296875 2.78125 15.296875 6.65625
z
" id="CMR17-108"/>
     <path d="M 43.09375 21.1875
C 43.09375 34 33.796875 44 22.90625 44
C 12 44 2.703125 34 2.703125 21.1875
C 2.703125 8.609375 12 -1 22.90625 -1
C 33.796875 -1 43.09375 8.609375 43.09375 21.1875
z
M 22.90625 0.796875
C 18.203125 0.796875 14.203125 3.59375 11.90625 7.5
C 9.40625 11.984375 9.09375 17.59375 9.09375 22
C 9.09375 26.203125 9.296875 31.40625 11.90625 35.90625
C 13.90625 39.203125 17.796875 42.40625 22.90625 42.40625
C 27.40625 42.40625 31.203125 39.90625 33.59375 36.40625
C 36.703125 31.703125 36.703125 25.109375 36.703125 22
C 36.703125 18.09375 36.5 12.109375 33.796875 7.296875
C 31 2.703125 26.703125 0.796875 22.90625 0.796875
z
" id="CMR17-111"/>
    </defs>
    <g transform="translate(301.487901 31.8933)scale(0.18 -0.18)">
     <use transform="scale(0.996264)" xlink:href="#CMR17-70"/>
     <use transform="translate(59.983847 0)scale(0.996264)" xlink:href="#CMR17-105"/>
     <use transform="translate(84.854905 0)scale(0.996264)" xlink:href="#CMR17-114"/>
     <use transform="translate(120.135673 0)scale(0.996264)" xlink:href="#CMR17-115"/>
     <use transform="translate(155.937011 0)scale(0.996264)" xlink:href="#CMR17-116"/>
     <use transform="translate(221.293745 0)scale(0.996264)" xlink:href="#CMR17-115"/>
     <use transform="translate(257.095082 0)scale(0.996264)" xlink:href="#CMR17-117"/>
     <use transform="translate(307.990452 0)scale(0.996264)" xlink:href="#CMR17-98"/>
     <use transform="translate(358.885822 0)scale(0.996264)" xlink:href="#CMR17-112"/>
     <use transform="translate(409.781192 0)scale(0.996264)" xlink:href="#CMR17-108"/>
     <use transform="translate(434.65225 0)scale(0.996264)" xlink:href="#CMR17-111"/>
     <use transform="translate(480.342727 0)scale(0.996264)" xlink:href="#CMR17-116"/>
    </g>
   </g>
   <g id="legend_1">
    <g id="patch_7">
     <path d="M 489.855702 113.332313
L 617.874812 113.332313
Q 621.474812 113.332313 621.474812 109.732313
L 621.474812 50.4933
Q 621.474812 46.8933 617.874812 46.8933
L 489.855702 46.8933
Q 486.255702 46.8933 486.255702 50.4933
L 486.255702 109.732313
Q 486.255702 113.332313 489.855702 113.332313
z
" style="fill:none;opacity:0.8;stroke:#cccccc;stroke-linejoin:miter;"/>
    </g>
    <g id="line2d_15">
     <path d="M 493.455702 63.036234
L 529.455702 63.036234
" style="fill:none;stroke:#000000;stroke-linecap:square;stroke-width:2;"/>
    </g>
    <g id="line2d_16"/>
    <g id="text_10">
     <!-- $\sin \big( x \big)$ -->
     <defs>
      <path d="M 41.5 30.203125
C 41.5 35.296875 40.5 43.59375 28.703125 43.59375
C 20.796875 43.59375 16.703125 37.5 15.203125 33.5
L 15.09375 33.5
L 15.09375 43.59375
L 3.296875 42.5
L 3.296875 39.90625
C 9.203125 39.90625 10.09375 39.296875 10.09375 34.5
L 10.09375 6.6875
C 10.09375 2.875 9.703125 2.390625 3.296875 2.390625
L 3.296875 -0.203125
C 5.703125 0 10.09375 0 12.703125 0
C 15.296875 0 19.796875 0 22.203125 -0.203125
L 22.203125 2.390625
C 15.796875 2.390625 15.40625 2.78125 15.40625 6.6875
L 15.40625 25.90625
C 15.40625 35.109375 21 42 28 42
C 35.40625 42 36.203125 35.40625 36.203125 30.59375
L 36.203125 6.6875
C 36.203125 2.875 35.796875 2.390625 29.40625 2.390625
L 29.40625 -0.203125
C 31.796875 0 36.203125 0 38.796875 0
C 41.40625 0 45.90625 0 48.296875 -0.203125
L 48.296875 2.390625
C 41.90625 2.390625 41.5 2.78125 41.5 6.6875
z
" id="CMR17-110"/>
      <path d="M 41.296875 -114.90625
C 41.296875 -114.5 41.09375 -114.296875 40.90625 -114
C 36.296875 -109.09375 29.5 -101 25.296875 -84.703125
C 23 -75.59375 22.09375 -65.296875 22.09375 -56
C 22.09375 -29.703125 28.40625 -11.296875 40.40625 1.703125
C 41.296875 2.59375 41.296875 2.796875 41.296875 3
C 41.296875 4 40.5 4 40.09375 4
C 38.59375 4 33.203125 -2 31.90625 -3.5
C 21.703125 -15.59375 15.203125 -33.59375 15.203125 -55.90625
C 15.203125 -70.09375 17.703125 -90.203125 30.796875 -107.09375
C 31.796875 -108.296875 38.296875 -115.90625 40.09375 -115.90625
C 40.5 -115.90625 41.296875 -115.90625 41.296875 -114.90625
z
" id="CMEX10-0"/>
      <path d="M 30.5 -56
C 30.5 -41.796875 28 -21.703125 14.90625 -4.796875
C 13.90625 -3.59375 7.40625 4 5.59375 4
C 5.09375 4 4.40625 3.796875 4.40625 3
C 4.40625 2.59375 4.59375 2.296875 5 2
C 9.796875 -3.203125 16.296875 -11.296875 20.40625 -27.203125
C 22.703125 -36.296875 23.59375 -46.59375 23.59375 -55.90625
C 23.59375 -66 22.703125 -76.203125 20.09375 -86
C 16.296875 -100 10.40625 -108 5.296875 -113.59375
C 4.40625 -114.5 4.40625 -114.703125 4.40625 -114.90625
C 4.40625 -115.703125 5.09375 -115.90625 5.59375 -115.90625
C 7.09375 -115.90625 12.59375 -109.796875 13.796875 -108.40625
C 24 -96.296875 30.5 -78.296875 30.5 -56
z
" id="CMEX10-1"/>
     </defs>
     <g transform="translate(533.055702 69.336234)scale(0.18 -0.18)">
      <use transform="scale(0.996264)" xlink:href="#CMR17-115"/>
      <use transform="translate(35.801338 0)scale(0.996264)" xlink:href="#CMR17-105"/>
      <use transform="translate(60.672396 0)scale(0.996264)" xlink:href="#CMR17-110"/>
      <use transform="translate(128.172171 80.698084)scale(0.996264)" xlink:href="#CMEX10-0"/>
      <use transform="translate(173.834525 0)scale(0.996264)" xlink:href="#CMMI12-120"/>
      <use transform="translate(229.268584 80.698084)scale(0.996264)" xlink:href="#CMEX10-1"/>
     </g>
    </g>
    <g id="line2d_17">
     <path d="M 493.455702 96.344249
L 529.455702 96.344249
" style="fill:none;stroke:#ff0000;stroke-linecap:square;stroke-width:2;"/>
    </g>
    <g id="line2d_18"/>
    <g id="text_11">
     <!-- $\sin \big( x - \tfrac{\pi}{4} \big)$ -->
     <defs>
      <path d="M 33.59375 64.40625
C 33.59375 66.5 33.5 66.5 31.703125 66.5
L 2 19.59375
L 2 17
L 27.796875 17
L 27.796875 7.140625
C 27.796875 3.5 27.59375 2.5 20.59375 2.5
L 18.703125 2.5
L 18.703125 0
C 21.90625 0 27.296875 0 30.703125 0
C 34.09375 0 39.5 0 42.703125 0
L 42.703125 2.5
L 40.796875 2.5
C 33.796875 2.5 33.59375 3.5 33.59375 7.140625
L 33.59375 17
L 43.796875 17
L 43.796875 19.59375
L 33.59375 19.59375
z
M 28.09375 57.859375
L 28.09375 19.59375
L 4 19.59375
z
" id="CMR17-52"/>
     </defs>
     <g transform="translate(533.055702 102.644249)scale(0.18 -0.18)">
      <use transform="translate(0 34.355253)scale(0.996264)" xlink:href="#CMR17-115"/>
      <use transform="translate(35.801338 34.355253)scale(0.996264)" xlink:href="#CMR17-105"/>
      <use transform="translate(60.672396 34.355253)scale(0.996264)" xlink:href="#CMR17-110"/>
      <use transform="translate(128.172171 115.053337)scale(0.996264)" xlink:href="#CMEX10-0"/>
      <use transform="translate(173.834525 34.355253)scale(0.996264)" xlink:href="#CMMI12-120"/>
      <use transform="translate(251.407791 34.355253)scale(0.996264)" xlink:href="#CMSY10-0"/>
      <use transform="translate(352.22998 73.581354)scale(0.697382)" xlink:href="#CMMI12-25"/>
      <use transform="translate(356.857007 0)scale(0.697382)" xlink:href="#CMR17-52"/>
      <use transform="translate(394.662715 115.053337)scale(0.996264)" xlink:href="#CMEX10-1"/>
      <path d="M 352.22998 57.269386
L 393.467201 57.269386
L 393.467201 61.254336
L 352.22998 61.254336
L 352.22998 57.269386
z
"/>
     </g>
    </g>
   </g>
  </g>
  <g id="axes_2">
   <g id="patch_8">
    <path d="M 703.593132 372.340456
L 1268.754812 372.340456
L 1268.754812 37.8933
L 703.593132 37.8933
z
" style="fill:none;"/>
   </g>
   <g id="matplotlib.axis_3">
    <g id="xtick_4">
     <g id="line2d_19">
      <g>
       <use style="stroke:#000000;stroke-width:0.8;" x="703.593132" xlink:href="#m716e94def1" y="372.340456"/>
      </g>
     </g>
     <g id="line2d_20">
      <g>
       <use style="stroke:#000000;stroke-width:0.8;" x="703.593132" xlink:href="#mdea6ed86c2" y="37.8933"/>
      </g>
     </g>
     <g id="text_12">
      <!-- 0 -->
      <g transform="translate(699.93648 389.714046)scale(0.14994 -0.14994)">
       <use transform="scale(0.996264)" xlink:href="#CMR17-48"/>
      </g>
     </g>
    </g>
    <g id="xtick_5">
     <g id="line2d_21">
      <g>
       <use style="stroke:#000000;stroke-width:0.8;" x="986.173972" xlink:href="#m716e94def1" y="372.340456"/>
      </g>
     </g>
     <g id="line2d_22">
      <g>
       <use style="stroke:#000000;stroke-width:0.8;" x="986.173972" xlink:href="#mdea6ed86c2" y="37.8933"/>
      </g>
     </g>
     <g id="text_13">
      <!-- $\pi$ -->
      <g transform="translate(982.025436 389.714046)scale(0.14994 -0.14994)">
       <use transform="scale(0.996264)" xlink:href="#CMMI12-25"/>
      </g>
     </g>
    </g>
    <g id="xtick_6">
     <g id="line2d_23">
      <g>
       <use style="stroke:#000000;stroke-width:0.8;" x="1268.754812" xlink:href="#m716e94def1" y="372.340456"/>
      </g>
     </g>
     <g id="line2d_24">
      <g>
       <use style="stroke:#000000;stroke-width:0.8;" x="1268.754812" xlink:href="#mdea6ed86c2" y="37.8933"/>
      </g>
     </g>
     <g id="text_14">
      <!-- $2\pi$ -->
      <g transform="translate(1260.949624 389.714046)scale(0.14994 -0.14994)">
       <use transform="scale(0.996264)" xlink:href="#CMR17-50"/>
       <use transform="translate(45.690477 0)scale(0.996264)" xlink:href="#CMMI12-25"/>
      </g>
     </g>
    </g>
    <g id="text_15">
     <!-- $x$ -->
     <g transform="translate(981.184907 409.071936)scale(0.18 -0.18)">
      <use transform="scale(0.996264)" xlink:href="#CMMI12-120"/>
     </g>
    </g>
   </g>
   <g id="matplotlib.axis_4">
    <g id="ytick_4">
     <g id="line2d_25">
      <g>
       <use style="stroke:#000000;stroke-width:0.8;" x="703.593132" xlink:href="#m4fd83b38b6" y="357.140964"/>
      </g>
     </g>
     <g id="line2d_26">
      <g>
       <use style="stroke:#000000;stroke-width:0.8;" x="1268.754812" xlink:href="#m2d25bddd1e" y="357.140964"/>
      </g>
     </g>
     <g id="text_16">
      <!-- $-1$ -->
      <g transform="translate(677.661364 362.327759)scale(0.14994 -0.14994)">
       <use transform="scale(0.996264)" xlink:href="#CMSY10-0"/>
       <use transform="translate(77.487468 0)scale(0.996264)" xlink:href="#CMR17-49"/>
      </g>
     </g>
    </g>
    <g id="ytick_5">
     <g id="line2d_27">
      <g>
       <use style="stroke:#000000;stroke-width:0.8;" x="703.593132" xlink:href="#m4fd83b38b6" y="205.118204"/>
      </g>
     </g>
     <g id="line2d_28">
      <g>
       <use style="stroke:#000000;stroke-width:0.8;" x="1268.754812" xlink:href="#m2d25bddd1e" y="205.118204"/>
      </g>
     </g>
     <g id="text_17">
      <!-- $0$ -->
      <g transform="translate(689.279828 210.304999)scale(0.14994 -0.14994)">
       <use transform="scale(0.996264)" xlink:href="#CMR17-48"/>
      </g>
     </g>
    </g>
    <g id="ytick_6">
     <g id="line2d_29">
      <g>
       <use style="stroke:#000000;stroke-width:0.8;" x="703.593132" xlink:href="#m4fd83b38b6" y="53.095444"/>
      </g>
     </g>
     <g id="line2d_30">
      <g>
       <use style="stroke:#000000;stroke-width:0.8;" x="1268.754812" xlink:href="#m2d25bddd1e" y="53.095444"/>
      </g>
     </g>
     <g id="text_18">
      <!-- $1$ -->
      <g transform="translate(689.279828 58.282239)scale(0.14994 -0.14994)">
       <use transform="scale(0.996264)" xlink:href="#CMR17-49"/>
      </g>
     </g>
    </g>
    <g id="text_19">
     <!-- $y$ -->
     <g transform="translate(670.1733 209.397655)rotate(-90)scale(0.18 -0.18)">
      <use transform="scale(0.996264)" xlink:href="#CMMI12-121"/>
     </g>
    </g>
   </g>
   <g id="line2d_31">
    <path clip-path="url(#p465f4d8b26)" d="M 703.593132 53.095444
L 706.426023 53.170834
L 709.258913 53.396931
L 712.091804 53.77351
L 716.34114 54.619674
L 720.590476 55.801659
L 724.839812 57.316827
L 729.089148 59.161799
L 733.338484 61.332456
L 737.58782 63.823955
L 741.837155 66.630738
L 746.086491 69.746539
L 750.335827 73.164408
L 754.585163 76.876718
L 758.834499 80.875184
L 763.083835 85.150885
L 767.333171 89.69428
L 771.582507 94.495231
L 777.248288 101.278546
L 782.91407 108.473725
L 788.579851 116.052229
L 794.245632 123.983999
L 801.327859 134.347441
L 808.410085 145.149397
L 816.908757 158.596176
L 826.823874 174.799965
L 839.571882 196.146097
L 863.651452 236.608421
L 873.56657 252.778329
L 882.065241 266.185051
L 889.147468 276.946126
L 896.229695 287.262137
L 901.895476 295.151441
L 907.561257 302.683643
L 913.227038 309.828867
L 918.89282 316.558772
L 923.142156 321.317526
L 927.391492 325.816994
L 931.640827 330.047135
L 935.890163 333.998511
L 940.139499 337.662305
L 944.388835 341.030341
L 948.638171 344.095104
L 952.887507 346.849755
L 957.136843 349.288148
L 961.386179 351.404841
L 965.635515 353.195111
L 969.884851 354.654964
L 974.134187 355.781142
L 978.383523 356.571132
L 981.216413 356.91012
L 984.049304 357.098555
L 986.882195 357.136251
L 989.715085 357.023171
L 992.547976 356.759427
L 995.380867 356.345281
L 999.630203 355.442995
L 1003.879538 354.205276
L 1008.128874 352.634885
L 1012.37821 350.735327
L 1016.627546 348.510841
L 1020.876882 345.966389
L 1025.126218 343.10765
L 1029.375554 339.941002
L 1033.62489 336.473512
L 1037.874226 332.712917
L 1042.123562 328.667608
L 1046.372898 324.346613
L 1050.622234 319.759572
L 1056.288015 313.247443
L 1061.953796 306.306436
L 1067.619578 298.964082
L 1073.285359 291.249503
L 1078.95114 283.193298
L 1086.033367 272.691427
L 1093.115593 261.770855
L 1101.614265 248.208916
L 1111.529382 231.909518
L 1125.693835 208.110451
L 1145.52407 174.799965
L 1155.439187 158.596176
L 1163.937859 145.149397
L 1171.020085 134.347441
L 1178.102312 123.983999
L 1183.768093 116.052229
L 1189.433875 108.473725
L 1195.099656 101.278546
L 1200.765437 94.495231
L 1206.431218 88.150685
L 1210.680554 83.695424
L 1214.92989 79.511105
L 1219.179226 75.607064
L 1223.428562 71.992013
L 1227.677898 68.674018
L 1231.927234 65.660484
L 1236.17657 62.958135
L 1240.425906 60.573
L 1244.675242 58.510403
L 1248.924578 56.774944
L 1253.173914 55.370498
L 1257.42325 54.300197
L 1261.672585 53.56643
L 1264.505476 53.265055
L 1267.338367 53.114292
L 1268.754812 53.095444
L 1268.754812 53.095444
" style="fill:none;stroke:#000000;stroke-dasharray:7.4,3.2;stroke-dashoffset:0;stroke-width:2;"/>
   </g>
   <g id="line2d_32">
    <path clip-path="url(#p465f4d8b26)" d="M 703.593132 97.621879
L 709.258913 91.068418
L 713.508249 86.44883
L 717.757585 82.094039
L 722.006921 78.013762
L 726.256257 74.217106
L 730.505593 70.712541
L 734.754929 67.507888
L 739.004265 64.610297
L 743.253601 62.026235
L 747.502937 59.761466
L 751.752273 57.821045
L 756.001609 56.209302
L 760.250945 54.929833
L 764.50028 53.985492
L 768.749616 53.378388
L 771.582507 53.161705
L 774.415398 53.095738
L 777.248288 53.180552
L 780.081179 53.416061
L 782.91407 53.802034
L 787.163405 54.662234
L 791.412741 55.85816
L 795.662077 57.387143
L 799.911413 59.245772
L 804.160749 61.429899
L 808.410085 63.934651
L 812.659421 66.754439
L 816.908757 69.88297
L 821.158093 73.313265
L 825.407429 77.037667
L 829.656765 81.047867
L 833.906101 85.334917
L 838.155437 89.88925
L 842.404773 94.700704
L 848.070554 101.497306
L 853.736335 108.704903
L 859.402116 116.294909
L 865.067898 124.237219
L 872.150124 134.612419
L 879.232351 145.424491
L 887.731023 158.881154
L 897.64614 175.093257
L 910.394148 196.444837
L 934.473718 236.901114
L 944.388835 253.062394
L 952.887507 266.458972
L 959.969734 277.209723
L 967.05196 287.513775
L 972.717742 295.392387
L 978.383523 302.912941
L 984.049304 310.045606
L 989.715085 316.762094
L 993.964421 321.510252
L 998.213757 325.998694
L 1002.463093 330.217405
L 1006.712429 334.15697
L 1010.961765 337.808599
L 1015.211101 341.164144
L 1019.460437 344.216118
L 1023.709773 346.957709
L 1027.959109 349.382801
L 1032.208445 351.485983
L 1036.457781 353.26256
L 1040.707117 354.70857
L 1044.956453 355.820785
L 1049.205788 356.596724
L 1052.038679 356.92631
L 1054.87157 357.105328
L 1057.70446 357.133601
L 1060.537351 357.011099
L 1063.370242 356.737946
L 1066.203132 356.314411
L 1070.452468 355.398104
L 1074.701804 354.146463
L 1078.95114 352.562282
L 1083.200476 350.649096
L 1087.449812 348.411173
L 1091.699148 345.853508
L 1095.948484 342.981807
L 1100.19782 339.802478
L 1104.447156 336.322617
L 1108.696492 332.549987
L 1112.945828 328.493006
L 1117.195164 324.160729
L 1121.444499 319.562821
L 1127.110281 313.036889
L 1132.776062 306.082915
L 1138.441843 298.72848
L 1144.107624 291.002755
L 1149.773406 282.936382
L 1156.855632 272.423239
L 1163.937859 261.493057
L 1172.436531 247.921862
L 1182.351648 231.614906
L 1196.516101 207.81126
L 1216.346335 174.506792
L 1226.261453 158.311379
L 1234.760125 144.874536
L 1241.842351 134.082737
L 1248.924578 123.731093
L 1254.590359 115.809893
L 1260.25614 108.242921
L 1265.921921 101.060189
L 1268.754812 97.621879
L 1268.754812 97.621879
" style="fill:none;stroke:#ff0000;stroke-dasharray:7.4,3.2;stroke-dashoffset:0;stroke-width:2;"/>
   </g>
   <g id="patch_9">
    <path d="M 703.593132 372.340456
L 703.593132 37.8933
" style="fill:none;stroke:#000000;stroke-linecap:square;stroke-linejoin:miter;stroke-width:0.8;"/>
   </g>
   <g id="patch_10">
    <path d="M 1268.754812 372.340456
L 1268.754812 37.8933
" style="fill:none;stroke:#000000;stroke-linecap:square;stroke-linejoin:miter;stroke-width:0.8;"/>
   </g>
   <g id="patch_11">
    <path d="M 703.593132 372.340456
L 1268.754812 372.340456
" style="fill:none;stroke:#000000;stroke-linecap:square;stroke-linejoin:miter;stroke-width:0.8;"/>
   </g>
   <g id="patch_12">
    <path d="M 703.593132 37.8933
L 1268.754812 37.8933
" style="fill:none;stroke:#000000;stroke-linecap:square;stroke-linejoin:miter;stroke-width:0.8;"/>
   </g>
   <g id="text_20">
    <!-- Second subplot -->
    <defs>
     <path d="M 43.796875 67.03125
C 43.796875 68.8125 43.703125 68.921875 43.09375 68.921875
C 42.5 68.921875 42.296875 68.515625 41.90625 67.625
L 38.90625 61.046875
C 35.09375 66.515625 29.296875 69 23 69
C 12.796875 69 4.59375 60.953125 4.59375 50.828125
C 4.59375 47.75 5.296875 43.375 8.703125 39.21875
C 12.40625 34.65625 15.90625 33.859375 23.90625 31.765625
C 26.90625 30.96875 31.90625 29.671875 32.90625 29.28125
C 38.59375 26.90625 41.59375 20.953125 41.59375 15.390625
C 41.59375 8.234375 36.5 0.59375 27.796875 0.59375
C 17.09375 0.59375 7.09375 6.546875 6.40625 20.484375
C 6.296875 22.078125 6.203125 22.171875 5.5 22.171875
C 4.703125 22.171875 4.59375 22.078125 4.59375 20.078125
L 4.59375 -0.015625
C 4.59375 -1.796875 4.703125 -1.90625 5.296875 -1.90625
C 6 -1.90625 6.203125 -1.40625 7.59375 1.6875
C 7.703125 1.984375 7.703125 2.1875 9.59375 5.953125
C 14.59375 -0.609375 23 -2 27.796875 -2
C 38.703125 -2 46.40625 7.046875 46.40625 17.5625
C 46.40625 22.71875 44.5 26.6875 43.40625 28.484375
C 39.203125 34.84375 34.703125 36.03125 29.90625 37.21875
C 29.203125 37.53125 29 37.53125 23.40625 38.90625
C 18 40.296875 15.703125 41 13.203125 43.6875
C 10.40625 46.75 9.40625 49.9375 9.40625 53.109375
C 9.40625 59.5625 14.59375 66.609375 23.09375 66.609375
C 33.703125 66.609375 40.296875 59.15625 41.796875 46.765625
C 42.09375 44.96875 42.203125 44.875 42.90625 44.875
C 43.796875 44.875 43.796875 45.171875 43.796875 46.859375
z
" id="CMR17-83"/>
     <path d="M 38.09375 23
C 38.5 23.40625 38.5 23.609375 38.5 24.625
C 38.5 34.96875 33.09375 44 21.703125 44
C 11.09375 44 2.703125 33.890625 2.703125 21.609375
C 2.703125 8.609375 12.203125 -1 22.796875 -1
C 34 -1 38.40625 9.484375 38.40625 11.5625
C 38.40625 12.25 37.796875 12.25 37.59375 12.25
C 36.90625 12.25 36.796875 12.046875 36.40625 10.875
C 34.203125 4.140625 28.703125 0.796875 23.5 0.796875
C 19.203125 0.796875 14.90625 3.171875 12.203125 7.5
C 9.09375 12.546875 9.09375 18.375 9.09375 23
z
M 9.203125 24.5
C 9.90625 39.140625 17.59375 42.40625 21.59375 42.40625
C 28.40625 42.40625 33 35.890625 33.09375 24.5
z
" id="CMR17-101"/>
     <path d="M 34.90625 35
C 33 35 30.203125 35 30.203125 31.515625
C 30.203125 28.71875 32.5 27.921875 33.796875 27.921875
C 34.5 27.921875 37.40625 28.234375 37.40625 31.625
C 37.40625 38.546875 30.59375 43.796875 22.90625 43.796875
C 12.296875 43.796875 3.296875 34.03125 3.296875 21.296875
C 3.296875 8.0625 12.703125 -1 22.90625 -1
C 35.296875 -1 38.40625 10.578125 38.40625 11.6875
C 38.40625 12.09375 38.296875 12.390625 37.59375 12.390625
C 36.90625 12.390625 36.796875 12.296875 36.40625 10.984375
C 33.796875 2.8125 28.09375 0.796875 23.796875 0.796875
C 17.40625 0.796875 9.703125 6.671875 9.703125 21.390625
C 9.703125 36.53125 17.09375 42 23 42
C 26.90625 42 32.703125 40.203125 34.90625 35
z
" id="CMR17-99"/>
     <path d="M 29.203125 67.59375
L 29.203125 65
C 35.09375 65 36 64.40625 36 59.6875
L 36 36.640625
C 35.59375 37.140625 31.5 43.59375 23.40625 43.59375
C 13.203125 43.59375 3.296875 34.5 3.296875 21.3125
C 3.296875 8.203125 12.59375 -1 22.40625 -1
C 30.90625 -1 35.296875 5.265625 35.796875 5.9375
L 35.796875 -0.984375
L 47.90625 -0.984375
L 47.90625 2
C 42 2 41.09375 2.59375 41.09375 7.390625
L 41.09375 68.6875
z
M 35.796875 11.796875
C 35.796875 8.796875 34 6.09375 31.703125 4.09375
C 28.296875 1.09375 24.90625 0.59375 23 0.59375
C 20.09375 0.59375 9.703125 2.09375 9.703125 21.1875
C 9.703125 40.8125 21.296875 42 23.90625 42
C 28.5 42 32.203125 39.40625 34.5 35.796875
C 35.796875 33.703125 35.796875 33.40625 35.796875 31.609375
z
" id="CMR17-100"/>
    </defs>
    <g transform="translate(931.836189 31.8933)scale(0.18 -0.18)">
     <use transform="scale(0.996264)" xlink:href="#CMR17-83"/>
     <use transform="translate(50.89537 0)scale(0.996264)" xlink:href="#CMR17-101"/>
     <use transform="translate(91.38103 0)scale(0.996264)" xlink:href="#CMR17-99"/>
     <use transform="translate(131.866691 0)scale(0.996264)" xlink:href="#CMR17-111"/>
     <use transform="translate(177.557168 0)scale(0.996264)" xlink:href="#CMR17-110"/>
     <use transform="translate(228.452538 0)scale(0.996264)" xlink:href="#CMR17-100"/>
     <use transform="translate(309.423874 0)scale(0.996264)" xlink:href="#CMR17-115"/>
     <use transform="translate(345.225211 0)scale(0.996264)" xlink:href="#CMR17-117"/>
     <use transform="translate(396.120581 0)scale(0.996264)" xlink:href="#CMR17-98"/>
     <use transform="translate(447.015951 0)scale(0.996264)" xlink:href="#CMR17-112"/>
     <use transform="translate(497.911321 0)scale(0.996264)" xlink:href="#CMR17-108"/>
     <use transform="translate(522.782379 0)scale(0.996264)" xlink:href="#CMR17-111"/>
     <use transform="translate(568.472856 0)scale(0.996264)" xlink:href="#CMR17-116"/>
    </g>
   </g>
   <g id="legend_2">
    <g id="patch_13">
     <path d="M 921.227539 113.332313
L 1051.120405 113.332313
Q 1054.720405 113.332313 1054.720405 109.732313
L 1054.720405 50.4933
Q 1054.720405 46.8933 1051.120405 46.8933
L 921.227539 46.8933
Q 917.627539 46.8933 917.627539 50.4933
L 917.627539 109.732313
Q 917.627539 113.332313 921.227539 113.332313
z
" style="fill:none;opacity:0.8;stroke:#cccccc;stroke-linejoin:miter;"/>
    </g>
    <g id="line2d_33">
     <path d="M 924.827539 63.036234
L 960.827539 63.036234
" style="fill:none;stroke:#000000;stroke-dasharray:7.4,3.2;stroke-dashoffset:0;stroke-width:2;"/>
    </g>
    <g id="line2d_34"/>
    <g id="text_21">
     <!-- $\cos \big( x \big)$ -->
     <g transform="translate(964.427539 69.336234)scale(0.18 -0.18)">
      <use transform="scale(0.996264)" xlink:href="#CMR17-99"/>
      <use transform="translate(40.48566 0)scale(0.996264)" xlink:href="#CMR17-111"/>
      <use transform="translate(86.176138 0)scale(0.996264)" xlink:href="#CMR17-115"/>
      <use transform="translate(138.58188 80.698084)scale(0.996264)" xlink:href="#CMEX10-0"/>
      <use transform="translate(184.244234 0)scale(0.996264)" xlink:href="#CMMI12-120"/>
      <use transform="translate(239.678294 80.698084)scale(0.996264)" xlink:href="#CMEX10-1"/>
     </g>
    </g>
    <g id="line2d_35">
     <path d="M 924.827539 96.344249
L 960.827539 96.344249
" style="fill:none;stroke:#ff0000;stroke-dasharray:7.4,3.2;stroke-dashoffset:0;stroke-width:2;"/>
    </g>
    <g id="line2d_36"/>
    <g id="text_22">
     <!-- $\cos \big( x - \tfrac{\pi}{4} \big)$ -->
     <g transform="translate(964.427539 102.644249)scale(0.18 -0.18)">
      <use transform="translate(0 34.355253)scale(0.996264)" xlink:href="#CMR17-99"/>
      <use transform="translate(40.48566 34.355253)scale(0.996264)" xlink:href="#CMR17-111"/>
      <use transform="translate(86.176138 34.355253)scale(0.996264)" xlink:href="#CMR17-115"/>
      <use transform="translate(138.58188 115.053337)scale(0.996264)" xlink:href="#CMEX10-0"/>
      <use transform="translate(184.244234 34.355253)scale(0.996264)" xlink:href="#CMMI12-120"/>
      <use transform="translate(261.817501 34.355253)scale(0.996264)" xlink:href="#CMSY10-0"/>
      <use transform="translate(362.639689 73.581354)scale(0.697382)" xlink:href="#CMMI12-25"/>
      <use transform="translate(367.266716 0)scale(0.697382)" xlink:href="#CMR17-52"/>
      <use transform="translate(405.072424 115.053337)scale(0.996264)" xlink:href="#CMEX10-1"/>
      <path d="M 362.639689 57.269386
L 403.876911 57.269386
L 403.876911 61.254336
L 362.639689 61.254336
L 362.639689 57.269386
z
"/>
     </g>
    </g>
   </g>
  </g>
 </g>
 <defs>
  <clipPath id="p06ed5c14e5">
   <rect height="334.447156" width="565.16168" x="65.313132" y="37.8933"/>
  </clipPath>
  <clipPath id="p465f4d8b26">
   <rect height="334.447156" width="565.16168" x="703.593132" y="37.8933"/>
  </clipPath>
 </defs>
</svg>
