<?xml version="1.0" encoding="utf-8" standalone="no"?>
<!DOCTYPE svg PUBLIC "-//W3C//DTD SVG 1.1//EN"
  "http://www.w3.org/Graphics/SVG/1.1/DTD/svg11.dtd">
<!-- Created with matplotlib (https://matplotlib.org/) -->
<svg height="432pt" version="1.1" viewBox="0 0 576 432" width="576pt" xmlns="http://www.w3.org/2000/svg" xmlns:xlink="http://www.w3.org/1999/xlink">
 <defs>
  <style type="text/css">
*{stroke-linecap:butt;stroke-linejoin:round;}
  </style>
 </defs>
 <g id="figure_1">
  <g id="patch_1">
   <path d="M 0 432
L 576 432
L 576 0
L 0 0
z
" style="fill:none;"/>
  </g>
  <g id="axes_1">
   <g id="patch_2">
    <path d="M 46.294881 392.281821
L 543.558569 392.281821
L 543.558569 22.94
L 46.294881 22.94
z
" style="fill:none;"/>
   </g>
   <g id="matplotlib.axis_1">
    <g id="xtick_1">
     <g id="line2d_1">
      <defs>
       <path d="M 0 0
L 0 3.5
" id="m02a2bd4497" style="stroke:#000000;stroke-width:0.8;"/>
      </defs>
      <g>
       <use style="stroke:#000000;stroke-width:0.8;" x="46.294881" xlink:href="#m02a2bd4497" y="392.281821"/>
      </g>
     </g>
     <g id="line2d_2">
      <defs>
       <path d="M 0 0
L 0 -3.5
" id="mb2b5256401" style="stroke:#000000;stroke-width:0.8;"/>
      </defs>
      <g>
       <use style="stroke:#000000;stroke-width:0.8;" x="46.294881" xlink:href="#mb2b5256401" y="22.94"/>
      </g>
     </g>
     <g id="text_1">
      <!-- $0.02$ -->
      <defs>
       <path d="M 42 31.640625
C 42 37.75 41.90625 48.125 37.703125 56.109375
C 34 63.109375 28.09375 65.59375 22.90625 65.59375
C 18.09375 65.59375 12 63.40625 8.203125 56.203125
C 4.203125 48.71875 3.796875 39.4375 3.796875 31.640625
C 3.796875 25.953125 3.90625 17.28125 7 9.671875
C 11.296875 -0.609375 19 -2 22.90625 -2
C 27.5 -2 34.5 -0.109375 38.59375 9.375
C 41.59375 16.28125 42 24.359375 42 31.640625
z
M 22.90625 -0.40625
C 16.5 -0.40625 12.703125 5.078125 11.296875 12.6875
C 10.203125 18.5625 10.203125 27.15625 10.203125 32.75
C 10.203125 40.4375 10.203125 46.828125 11.5 52.921875
C 13.40625 61.390625 19 64 22.90625 64
C 27 64 32.296875 61.296875 34.203125 53.125
C 35.5 47.4375 35.59375 40.734375 35.59375 32.75
C 35.59375 26.25 35.59375 18.265625 34.40625 12.375
C 32.296875 1.484375 26.40625 -0.40625 22.90625 -0.40625
z
" id="CMR17-48"/>
       <path d="M 18.40625 4.796875
C 18.40625 7.6875 16 9.671875 13.59375 9.671875
C 10.703125 9.671875 8.703125 7.28125 8.703125 4.890625
C 8.703125 2 11.09375 0 13.5 0
C 16.40625 0 18.40625 2.390625 18.40625 4.796875
z
" id="CMMI12-58"/>
       <path d="M 41.703125 15.453125
L 39.90625 15.453125
C 38.90625 8.375 38.09375 7.171875 37.703125 6.5625
C 37.203125 5.765625 30 5.765625 28.59375 5.765625
L 9.40625 5.765625
C 13 9.671875 20 16.75 28.5 24.953125
C 34.59375 30.734375 41.703125 37.53125 41.703125 47.421875
C 41.703125 59.21875 32.296875 66 21.796875 66
C 10.796875 66 4.09375 56.3125 4.09375 47.34375
C 4.09375 43.4375 7 42.9375 8.203125 42.9375
C 9.203125 42.9375 12.203125 43.546875 12.203125 47.03125
C 12.203125 50.109375 9.59375 51 8.203125 51
C 7.59375 51 7 50.90625 6.59375 50.703125
C 8.5 59.21875 14.296875 63.40625 20.40625 63.40625
C 29.09375 63.40625 34.796875 56.515625 34.796875 47.421875
C 34.796875 38.734375 29.703125 31.25 24 24.75
L 4.09375 2.28125
L 4.09375 0
L 39.296875 0
z
" id="CMR17-50"/>
      </defs>
      <g transform="translate(33.29345 409.655411)scale(0.14994 -0.14994)">
       <use transform="scale(0.996264)" xlink:href="#CMR17-48"/>
       <use transform="translate(45.690477 0)scale(0.996264)" xlink:href="#CMMI12-58"/>
       <use transform="translate(72.787654 0)scale(0.996264)" xlink:href="#CMR17-48"/>
       <use transform="translate(118.478131 0)scale(0.996264)" xlink:href="#CMR17-50"/>
      </g>
     </g>
    </g>
    <g id="xtick_2">
     <g id="line2d_3">
      <g>
       <use style="stroke:#000000;stroke-width:0.8;" x="393.867283" xlink:href="#m02a2bd4497" y="392.281821"/>
      </g>
     </g>
     <g id="line2d_4">
      <g>
       <use style="stroke:#000000;stroke-width:0.8;" x="393.867283" xlink:href="#mb2b5256401" y="22.94"/>
      </g>
     </g>
     <g id="text_2">
      <!-- $0.10$ -->
      <defs>
       <path d="M 26.59375 63.40625
C 26.59375 65.5 26.5 65.5 25.09375 65.5
C 21.203125 61.1875 15.296875 59.796875 9.703125 59.796875
C 9.40625 59.796875 8.90625 59.796875 8.796875 59.5
C 8.703125 59.296875 8.703125 59.09375 8.703125 57
C 11.796875 57 17 57.59375 21 59.984375
L 21 7.203125
C 21 3.6875 20.796875 2.5 12.203125 2.5
L 9.203125 2.5
L 9.203125 0
C 14 0 19 0 23.796875 0
C 28.59375 0 33.59375 0 38.40625 0
L 38.40625 2.5
L 35.40625 2.5
C 26.796875 2.5 26.59375 3.59375 26.59375 7.15625
z
" id="CMR17-49"/>
      </defs>
      <g transform="translate(380.865852 409.655411)scale(0.14994 -0.14994)">
       <use transform="scale(0.996264)" xlink:href="#CMR17-48"/>
       <use transform="translate(45.690477 0)scale(0.996264)" xlink:href="#CMMI12-58"/>
       <use transform="translate(72.787654 0)scale(0.996264)" xlink:href="#CMR17-49"/>
       <use transform="translate(118.478131 0)scale(0.996264)" xlink:href="#CMR17-48"/>
      </g>
     </g>
    </g>
    <g id="xtick_3">
     <g id="line2d_5">
      <g>
       <use style="stroke:#000000;stroke-width:0.8;" x="543.558569" xlink:href="#m02a2bd4497" y="392.281821"/>
      </g>
     </g>
     <g id="line2d_6">
      <g>
       <use style="stroke:#000000;stroke-width:0.8;" x="543.558569" xlink:href="#mb2b5256401" y="22.94"/>
      </g>
     </g>
     <g id="text_3">
      <!-- $0.20$ -->
      <g transform="translate(530.557138 409.655411)scale(0.14994 -0.14994)">
       <use transform="scale(0.996264)" xlink:href="#CMR17-48"/>
       <use transform="translate(45.690477 0)scale(0.996264)" xlink:href="#CMMI12-58"/>
       <use transform="translate(72.787654 0)scale(0.996264)" xlink:href="#CMR17-50"/>
       <use transform="translate(118.478131 0)scale(0.996264)" xlink:href="#CMR17-48"/>
      </g>
     </g>
    </g>
   </g>
   <g id="matplotlib.axis_2">
    <g id="ytick_1">
     <g id="line2d_7">
      <defs>
       <path d="M 0 0
L -3.5 0
" id="m27a8f77dac" style="stroke:#000000;stroke-width:0.8;"/>
      </defs>
      <g>
       <use style="stroke:#000000;stroke-width:0.8;" x="46.294881" xlink:href="#m27a8f77dac" y="263.202394"/>
      </g>
     </g>
     <g id="line2d_8">
      <defs>
       <path d="M 0 0
L 3.5 0
" id="m3b24cb3aa2" style="stroke:#000000;stroke-width:0.8;"/>
      </defs>
      <g>
       <use style="stroke:#000000;stroke-width:0.8;" x="543.558569" xlink:href="#m3b24cb3aa2" y="263.202394"/>
      </g>
     </g>
     <g id="text_4">
      <!-- $10^{2}$ -->
      <g transform="translate(19.44 268.389189)scale(0.14994 -0.14994)">
       <use transform="scale(0.996264)" xlink:href="#CMR17-49"/>
       <use transform="translate(45.690477 0)scale(0.996264)" xlink:href="#CMR17-48"/>
       <use transform="translate(91.380954 36.153639)scale(0.697382)" xlink:href="#CMR17-50"/>
      </g>
     </g>
    </g>
    <g id="ytick_2">
     <g id="line2d_9">
      <g>
       <use style="stroke:#000000;stroke-width:0.8;" x="46.294881" xlink:href="#m27a8f77dac" y="78.531483"/>
      </g>
     </g>
     <g id="line2d_10">
      <g>
       <use style="stroke:#000000;stroke-width:0.8;" x="543.558569" xlink:href="#m3b24cb3aa2" y="78.531483"/>
      </g>
     </g>
     <g id="text_5">
      <!-- $10^{3}$ -->
      <defs>
       <path d="M 22.09375 33.703125
C 31 33.703125 34.90625 25.96875 34.90625 17.03125
C 34.90625 5 28.5 0.390625 22.703125 0.390625
C 17.40625 0.390625 8.796875 3.03125 6.09375 10.828125
C 6.59375 10.625 7.09375 10.625 7.59375 10.625
C 10 10.625 11.796875 12.21875 11.796875 14.8125
C 11.796875 17.703125 9.59375 19 7.59375 19
C 5.90625 19 3.296875 18.203125 3.296875 14.46875
C 3.296875 5.234375 12.296875 -2 22.90625 -2
C 34 -2 42.5 6.71875 42.5 16.953125
C 42.5 26.671875 34.5 33.703125 25 34.796875
C 32.59375 36.375 39.90625 43.0625 39.90625 52.015625
C 39.90625 59.6875 32 65.296875 23 65.296875
C 13.90625 65.296875 5.90625 59.828125 5.90625 52.015625
C 5.90625 48.59375 8.5 48 9.796875 48
C 11.90625 48 13.703125 49.296875 13.703125 51.890625
C 13.703125 54.46875 11.90625 55.765625 9.796875 55.765625
C 9.40625 55.765625 8.90625 55.765625 8.5 55.578125
C 11.40625 61.859375 19.296875 63 22.796875 63
C 26.296875 63 32.90625 61.328125 32.90625 51.875
C 32.90625 49.109375 32.5 44.1875 29.09375 39.84375
C 26.09375 36 22.703125 36 19.40625 35.6875
C 18.90625 35.6875 16.59375 35.453125 16.203125 35.453125
C 15.5 35.359375 15.09375 35.265625 15.09375 34.5
C 15.09375 33.796875 15.203125 33.703125 17.203125 33.703125
z
" id="CMR17-51"/>
      </defs>
      <g transform="translate(19.44 83.718278)scale(0.14994 -0.14994)">
       <use transform="scale(0.996264)" xlink:href="#CMR17-49"/>
       <use transform="translate(45.690477 0)scale(0.996264)" xlink:href="#CMR17-48"/>
       <use transform="translate(91.380954 36.153639)scale(0.697382)" xlink:href="#CMR17-51"/>
      </g>
     </g>
    </g>
    <g id="ytick_3">
     <g id="line2d_11">
      <defs>
       <path d="M 0 0
L -2 0
" id="mf1c59c8029" style="stroke:#000000;stroke-width:0.6;"/>
      </defs>
      <g>
       <use style="stroke:#000000;stroke-width:0.6;" x="46.294881" xlink:href="#mf1c59c8029" y="392.281821"/>
      </g>
     </g>
     <g id="line2d_12">
      <defs>
       <path d="M 0 0
L 2 0
" id="m472ae449ab" style="stroke:#000000;stroke-width:0.6;"/>
      </defs>
      <g>
       <use style="stroke:#000000;stroke-width:0.6;" x="543.558569" xlink:href="#m472ae449ab" y="392.281821"/>
      </g>
     </g>
    </g>
    <g id="ytick_4">
     <g id="line2d_13">
      <g>
       <use style="stroke:#000000;stroke-width:0.6;" x="46.294881" xlink:href="#mf1c59c8029" y="359.762888"/>
      </g>
     </g>
     <g id="line2d_14">
      <g>
       <use style="stroke:#000000;stroke-width:0.6;" x="543.558569" xlink:href="#m472ae449ab" y="359.762888"/>
      </g>
     </g>
    </g>
    <g id="ytick_5">
     <g id="line2d_15">
      <g>
       <use style="stroke:#000000;stroke-width:0.6;" x="46.294881" xlink:href="#mf1c59c8029" y="336.690337"/>
      </g>
     </g>
     <g id="line2d_16">
      <g>
       <use style="stroke:#000000;stroke-width:0.6;" x="543.558569" xlink:href="#m472ae449ab" y="336.690337"/>
      </g>
     </g>
    </g>
    <g id="ytick_6">
     <g id="line2d_17">
      <g>
       <use style="stroke:#000000;stroke-width:0.6;" x="46.294881" xlink:href="#mf1c59c8029" y="318.793877"/>
      </g>
     </g>
     <g id="line2d_18">
      <g>
       <use style="stroke:#000000;stroke-width:0.6;" x="543.558569" xlink:href="#m472ae449ab" y="318.793877"/>
      </g>
     </g>
    </g>
    <g id="ytick_7">
     <g id="line2d_19">
      <g>
       <use style="stroke:#000000;stroke-width:0.6;" x="46.294881" xlink:href="#mf1c59c8029" y="304.171404"/>
      </g>
     </g>
     <g id="line2d_20">
      <g>
       <use style="stroke:#000000;stroke-width:0.6;" x="543.558569" xlink:href="#m472ae449ab" y="304.171404"/>
      </g>
     </g>
    </g>
    <g id="ytick_8">
     <g id="line2d_21">
      <g>
       <use style="stroke:#000000;stroke-width:0.6;" x="46.294881" xlink:href="#mf1c59c8029" y="291.80828"/>
      </g>
     </g>
     <g id="line2d_22">
      <g>
       <use style="stroke:#000000;stroke-width:0.6;" x="543.558569" xlink:href="#m472ae449ab" y="291.80828"/>
      </g>
     </g>
    </g>
    <g id="ytick_9">
     <g id="line2d_23">
      <g>
       <use style="stroke:#000000;stroke-width:0.6;" x="46.294881" xlink:href="#mf1c59c8029" y="281.098854"/>
      </g>
     </g>
     <g id="line2d_24">
      <g>
       <use style="stroke:#000000;stroke-width:0.6;" x="543.558569" xlink:href="#m472ae449ab" y="281.098854"/>
      </g>
     </g>
    </g>
    <g id="ytick_10">
     <g id="line2d_25">
      <g>
       <use style="stroke:#000000;stroke-width:0.6;" x="46.294881" xlink:href="#mf1c59c8029" y="271.652471"/>
      </g>
     </g>
     <g id="line2d_26">
      <g>
       <use style="stroke:#000000;stroke-width:0.6;" x="543.558569" xlink:href="#m472ae449ab" y="271.652471"/>
      </g>
     </g>
    </g>
    <g id="ytick_11">
     <g id="line2d_27">
      <g>
       <use style="stroke:#000000;stroke-width:0.6;" x="46.294881" xlink:href="#mf1c59c8029" y="207.61091"/>
      </g>
     </g>
     <g id="line2d_28">
      <g>
       <use style="stroke:#000000;stroke-width:0.6;" x="543.558569" xlink:href="#m472ae449ab" y="207.61091"/>
      </g>
     </g>
    </g>
    <g id="ytick_12">
     <g id="line2d_29">
      <g>
       <use style="stroke:#000000;stroke-width:0.6;" x="46.294881" xlink:href="#mf1c59c8029" y="175.091977"/>
      </g>
     </g>
     <g id="line2d_30">
      <g>
       <use style="stroke:#000000;stroke-width:0.6;" x="543.558569" xlink:href="#m472ae449ab" y="175.091977"/>
      </g>
     </g>
    </g>
    <g id="ytick_13">
     <g id="line2d_31">
      <g>
       <use style="stroke:#000000;stroke-width:0.6;" x="46.294881" xlink:href="#mf1c59c8029" y="152.019427"/>
      </g>
     </g>
     <g id="line2d_32">
      <g>
       <use style="stroke:#000000;stroke-width:0.6;" x="543.558569" xlink:href="#m472ae449ab" y="152.019427"/>
      </g>
     </g>
    </g>
    <g id="ytick_14">
     <g id="line2d_33">
      <g>
       <use style="stroke:#000000;stroke-width:0.6;" x="46.294881" xlink:href="#mf1c59c8029" y="134.122967"/>
      </g>
     </g>
     <g id="line2d_34">
      <g>
       <use style="stroke:#000000;stroke-width:0.6;" x="543.558569" xlink:href="#m472ae449ab" y="134.122967"/>
      </g>
     </g>
    </g>
    <g id="ytick_15">
     <g id="line2d_35">
      <g>
       <use style="stroke:#000000;stroke-width:0.6;" x="46.294881" xlink:href="#mf1c59c8029" y="119.500494"/>
      </g>
     </g>
     <g id="line2d_36">
      <g>
       <use style="stroke:#000000;stroke-width:0.6;" x="543.558569" xlink:href="#m472ae449ab" y="119.500494"/>
      </g>
     </g>
    </g>
    <g id="ytick_16">
     <g id="line2d_37">
      <g>
       <use style="stroke:#000000;stroke-width:0.6;" x="46.294881" xlink:href="#mf1c59c8029" y="107.137369"/>
      </g>
     </g>
     <g id="line2d_38">
      <g>
       <use style="stroke:#000000;stroke-width:0.6;" x="543.558569" xlink:href="#m472ae449ab" y="107.137369"/>
      </g>
     </g>
    </g>
    <g id="ytick_17">
     <g id="line2d_39">
      <g>
       <use style="stroke:#000000;stroke-width:0.6;" x="46.294881" xlink:href="#mf1c59c8029" y="96.427944"/>
      </g>
     </g>
     <g id="line2d_40">
      <g>
       <use style="stroke:#000000;stroke-width:0.6;" x="543.558569" xlink:href="#m472ae449ab" y="96.427944"/>
      </g>
     </g>
    </g>
    <g id="ytick_18">
     <g id="line2d_41">
      <g>
       <use style="stroke:#000000;stroke-width:0.6;" x="46.294881" xlink:href="#mf1c59c8029" y="86.981561"/>
      </g>
     </g>
     <g id="line2d_42">
      <g>
       <use style="stroke:#000000;stroke-width:0.6;" x="543.558569" xlink:href="#m472ae449ab" y="86.981561"/>
      </g>
     </g>
    </g>
    <g id="ytick_19">
     <g id="line2d_43">
      <g>
       <use style="stroke:#000000;stroke-width:0.6;" x="46.294881" xlink:href="#mf1c59c8029" y="22.94"/>
      </g>
     </g>
     <g id="line2d_44">
      <g>
       <use style="stroke:#000000;stroke-width:0.6;" x="543.558569" xlink:href="#m472ae449ab" y="22.94"/>
      </g>
     </g>
    </g>
   </g>
   <g id="line2d_45">
    <path clip-path="url(#p79f576e1e0)" d="M 46.294881 392.281821
L 393.867283 78.531483
L 543.558569 22.94
" style="fill:none;stroke:#000000;stroke-linecap:square;stroke-width:2;"/>
   </g>
   <g id="patch_3">
    <path d="M 46.294881 392.281821
L 46.294881 22.94
" style="fill:none;stroke:#000000;stroke-linecap:square;stroke-linejoin:miter;stroke-width:0.8;"/>
   </g>
   <g id="patch_4">
    <path d="M 543.558569 392.281821
L 543.558569 22.94
" style="fill:none;stroke:#000000;stroke-linecap:square;stroke-linejoin:miter;stroke-width:0.8;"/>
   </g>
   <g id="patch_5">
    <path d="M 46.294881 392.281821
L 543.558569 392.281821
" style="fill:none;stroke:#000000;stroke-linecap:square;stroke-linejoin:miter;stroke-width:0.8;"/>
   </g>
   <g id="patch_6">
    <path d="M 46.294881 22.94
L 543.558569 22.94
" style="fill:none;stroke:#000000;stroke-linecap:square;stroke-linejoin:miter;stroke-width:0.8;"/>
   </g>
  </g>
 </g>
 <defs>
  <clipPath id="p79f576e1e0">
   <rect height="369.341821" width="497.263688" x="46.294881" y="22.94"/>
  </clipPath>
 </defs>
</svg>
