<?xml version="1.0" encoding="utf-8" standalone="no"?>
<!DOCTYPE svg PUBLIC "-//W3C//DTD SVG 1.1//EN"
  "http://www.w3.org/Graphics/SVG/1.1/DTD/svg11.dtd">
<!-- Created with matplotlib (http://matplotlib.org/) -->
<svg height="432pt" version="1.1" viewBox="0 0 576 432" width="576pt" xmlns="http://www.w3.org/2000/svg" xmlns:xlink="http://www.w3.org/1999/xlink">
 <defs>
  <style type="text/css">
*{stroke-linecap:butt;stroke-linejoin:round;}
  </style>
 </defs>
 <g id="figure_1">
  <g id="patch_1">
   <path d="M 0 432
L 576 432
L 576 0
L 0 0
z
" style="fill:none;"/>
  </g>
  <g id="axes_1">
   <g id="patch_2">
    <path d="M 84.550546 392.281821
L 553.06 392.281821
L 553.06 22.94
L 84.550546 22.94
z
" style="fill:none;"/>
   </g>
   <g id="matplotlib.axis_1">
    <g id="xtick_1">
     <g id="line2d_1">
      <defs>
       <path d="M 0 0
L 0 3.5
" id="m8bf9874f7e" style="stroke:#000000;stroke-width:0.8;"/>
      </defs>
      <g>
       <use style="stroke:#000000;stroke-width:0.8;" x="105.84643" xlink:href="#m8bf9874f7e" y="392.281821"/>
      </g>
     </g>
     <g id="line2d_2">
      <defs>
       <path d="M 0 0
L 0 -3.5
" id="m3205e3624a" style="stroke:#000000;stroke-width:0.8;"/>
      </defs>
      <g>
       <use style="stroke:#000000;stroke-width:0.8;" x="105.84643" xlink:href="#m3205e3624a" y="22.94"/>
      </g>
     </g>
     <g id="text_1">
      <!-- $0$ -->
      <defs>
       <path d="M 42 31.640625
C 42 37.75 41.90625 48.125 37.703125 56.109375
C 34 63.109375 28.09375 65.59375 22.90625 65.59375
C 18.09375 65.59375 12 63.40625 8.203125 56.203125
C 4.203125 48.71875 3.796875 39.4375 3.796875 31.640625
C 3.796875 25.953125 3.90625 17.28125 7 9.671875
C 11.296875 -0.609375 19 -2 22.90625 -2
C 27.5 -2 34.5 -0.109375 38.59375 9.375
C 41.59375 16.28125 42 24.359375 42 31.640625
z
M 22.90625 -0.40625
C 16.5 -0.40625 12.703125 5.078125 11.296875 12.6875
C 10.203125 18.5625 10.203125 27.15625 10.203125 32.75
C 10.203125 40.4375 10.203125 46.828125 11.5 52.921875
C 13.40625 61.390625 19 64 22.90625 64
C 27 64 32.296875 61.296875 34.203125 53.125
C 35.5 47.4375 35.59375 40.734375 35.59375 32.75
C 35.59375 26.25 35.59375 18.265625 34.40625 12.375
C 32.296875 1.484375 26.40625 -0.40625 22.90625 -0.40625
z
" id="CMR17-48"/>
      </defs>
      <g transform="translate(102.189778 409.655411)scale(0.14994 -0.14994)">
       <use transform="scale(0.996264)" xlink:href="#CMR17-48"/>
      </g>
     </g>
    </g>
    <g id="xtick_2">
     <g id="line2d_3">
      <g>
       <use style="stroke:#000000;stroke-width:0.8;" x="191.029967" xlink:href="#m8bf9874f7e" y="392.281821"/>
      </g>
     </g>
     <g id="line2d_4">
      <g>
       <use style="stroke:#000000;stroke-width:0.8;" x="191.029967" xlink:href="#m3205e3624a" y="22.94"/>
      </g>
     </g>
     <g id="text_2">
      <!-- $2$ -->
      <defs>
       <path d="M 41.703125 15.453125
L 39.90625 15.453125
C 38.90625 8.375 38.09375 7.171875 37.703125 6.5625
C 37.203125 5.765625 30 5.765625 28.59375 5.765625
L 9.40625 5.765625
C 13 9.671875 20 16.75 28.5 24.953125
C 34.59375 30.734375 41.703125 37.53125 41.703125 47.421875
C 41.703125 59.21875 32.296875 66 21.796875 66
C 10.796875 66 4.09375 56.3125 4.09375 47.34375
C 4.09375 43.4375 7 42.9375 8.203125 42.9375
C 9.203125 42.9375 12.203125 43.546875 12.203125 47.03125
C 12.203125 50.109375 9.59375 51 8.203125 51
C 7.59375 51 7 50.90625 6.59375 50.703125
C 8.5 59.21875 14.296875 63.40625 20.40625 63.40625
C 29.09375 63.40625 34.796875 56.515625 34.796875 47.421875
C 34.796875 38.734375 29.703125 31.25 24 24.75
L 4.09375 2.28125
L 4.09375 0
L 39.296875 0
z
" id="CMR17-50"/>
      </defs>
      <g transform="translate(187.373316 409.655411)scale(0.14994 -0.14994)">
       <use transform="scale(0.996264)" xlink:href="#CMR17-50"/>
      </g>
     </g>
    </g>
    <g id="xtick_3">
     <g id="line2d_5">
      <g>
       <use style="stroke:#000000;stroke-width:0.8;" x="276.213505" xlink:href="#m8bf9874f7e" y="392.281821"/>
      </g>
     </g>
     <g id="line2d_6">
      <g>
       <use style="stroke:#000000;stroke-width:0.8;" x="276.213505" xlink:href="#m3205e3624a" y="22.94"/>
      </g>
     </g>
     <g id="text_3">
      <!-- $4$ -->
      <defs>
       <path d="M 33.59375 64.40625
C 33.59375 66.5 33.5 66.5 31.703125 66.5
L 2 19.59375
L 2 17
L 27.796875 17
L 27.796875 7.140625
C 27.796875 3.5 27.59375 2.5 20.59375 2.5
L 18.703125 2.5
L 18.703125 0
C 21.90625 0 27.296875 0 30.703125 0
C 34.09375 0 39.5 0 42.703125 0
L 42.703125 2.5
L 40.796875 2.5
C 33.796875 2.5 33.59375 3.5 33.59375 7.140625
L 33.59375 17
L 43.796875 17
L 43.796875 19.59375
L 33.59375 19.59375
z
M 28.09375 57.859375
L 28.09375 19.59375
L 4 19.59375
z
" id="CMR17-52"/>
      </defs>
      <g transform="translate(272.556853 409.655411)scale(0.14994 -0.14994)">
       <use transform="scale(0.996264)" xlink:href="#CMR17-52"/>
      </g>
     </g>
    </g>
    <g id="xtick_4">
     <g id="line2d_7">
      <g>
       <use style="stroke:#000000;stroke-width:0.8;" x="361.397042" xlink:href="#m8bf9874f7e" y="392.281821"/>
      </g>
     </g>
     <g id="line2d_8">
      <g>
       <use style="stroke:#000000;stroke-width:0.8;" x="361.397042" xlink:href="#m3205e3624a" y="22.94"/>
      </g>
     </g>
     <g id="text_4">
      <!-- $6$ -->
      <defs>
       <path d="M 10.59375 34
C 10.59375 57.65625 21.796875 63 28.296875 63
C 30.40625 63 35.5 62.640625 37.5 59
C 35.90625 59 32.90625 59 32.90625 55.515625
C 32.90625 52.828125 35.09375 51.921875 36.5 51.921875
C 37.40625 51.921875 40.09375 52.3125 40.09375 55.625
C 40.09375 61.78125 35.09375 65.296875 28.203125 65.296875
C 16.296875 65.296875 3.796875 52.96875 3.796875 31
C 3.796875 3.953125 15.09375 -2 23.09375 -2
C 32.796875 -2 42 6.671875 42 20.046875
C 42 32.515625 33.90625 41.59375 23.703125 41.59375
C 17.59375 41.59375 13.09375 37.609375 10.59375 30.625
z
M 23.09375 0.390625
C 10.796875 0.390625 10.796875 18.75 10.796875 22.4375
C 10.796875 29.625 14.203125 40 23.5 40
C 25.203125 40 30.09375 40 33.40625 33.125
C 35.203125 29.21875 35.203125 25.140625 35.203125 20.140625
C 35.203125 14.75 35.203125 10.78125 33.09375 6.78125
C 30.90625 2.671875 27.703125 0.390625 23.09375 0.390625
z
" id="CMR17-54"/>
      </defs>
      <g transform="translate(357.74039 409.655411)scale(0.14994 -0.14994)">
       <use transform="scale(0.996264)" xlink:href="#CMR17-54"/>
      </g>
     </g>
    </g>
    <g id="xtick_5">
     <g id="line2d_9">
      <g>
       <use style="stroke:#000000;stroke-width:0.8;" x="446.580579" xlink:href="#m8bf9874f7e" y="392.281821"/>
      </g>
     </g>
     <g id="line2d_10">
      <g>
       <use style="stroke:#000000;stroke-width:0.8;" x="446.580579" xlink:href="#m3205e3624a" y="22.94"/>
      </g>
     </g>
     <g id="text_5">
      <!-- $8$ -->
      <defs>
       <path d="M 27.203125 35.375
C 33.5 38.546875 39.90625 43.328125 39.90625 50.984375
C 39.90625 60.015625 31.09375 65.296875 23 65.296875
C 13.90625 65.296875 5.90625 58.734375 5.90625 49.6875
C 5.90625 47.203125 6.5 42.921875 10.40625 39.140625
C 11.40625 38.15625 15.59375 35.171875 18.296875 33.28125
C 13.796875 30.984375 3.296875 25.53125 3.296875 14.59375
C 3.296875 4.359375 13.09375 -2 22.796875 -2
C 33.5 -2 42.5 5.65625 42.5 15.78125
C 42.5 24.84375 36.40625 29.015625 32.40625 31.703125
z
M 14.09375 44.09375
C 13.296875 44.59375 9.296875 47.671875 9.296875 52.359375
C 9.296875 58.421875 15.59375 63 22.796875 63
C 30.703125 63 36.5 57.4375 36.5 50.96875
C 36.5 41.703125 26.09375 36.421875 25.59375 36.421875
C 25.5 36.421875 25.40625 36.421875 24.59375 37.03125
z
M 32.5 23.734375
C 34 22.640625 38.796875 19.375 38.796875 13.296875
C 38.796875 5.953125 31.40625 0.390625 23 0.390625
C 13.90625 0.390625 7 6.84375 7 14.6875
C 7 22.546875 13.09375 29.09375 20 32.1875
z
" id="CMR17-56"/>
      </defs>
      <g transform="translate(442.923927 409.655411)scale(0.14994 -0.14994)">
       <use transform="scale(0.996264)" xlink:href="#CMR17-56"/>
      </g>
     </g>
    </g>
    <g id="xtick_6">
     <g id="line2d_11">
      <g>
       <use style="stroke:#000000;stroke-width:0.8;" x="531.764116" xlink:href="#m8bf9874f7e" y="392.281821"/>
      </g>
     </g>
     <g id="line2d_12">
      <g>
       <use style="stroke:#000000;stroke-width:0.8;" x="531.764116" xlink:href="#m3205e3624a" y="22.94"/>
      </g>
     </g>
     <g id="text_6">
      <!-- $10$ -->
      <defs>
       <path d="M 26.59375 63.40625
C 26.59375 65.5 26.5 65.5 25.09375 65.5
C 21.203125 61.1875 15.296875 59.796875 9.703125 59.796875
C 9.40625 59.796875 8.90625 59.796875 8.796875 59.5
C 8.703125 59.296875 8.703125 59.09375 8.703125 57
C 11.796875 57 17 57.59375 21 59.984375
L 21 7.203125
C 21 3.6875 20.796875 2.5 12.203125 2.5
L 9.203125 2.5
L 9.203125 0
C 14 0 19 0 23.796875 0
C 28.59375 0 33.59375 0 38.40625 0
L 38.40625 2.5
L 35.40625 2.5
C 26.796875 2.5 26.59375 3.59375 26.59375 7.15625
z
" id="CMR17-49"/>
      </defs>
      <g transform="translate(524.450812 409.655411)scale(0.14994 -0.14994)">
       <use transform="scale(0.996264)" xlink:href="#CMR17-49"/>
       <use transform="translate(45.690477 0)scale(0.996264)" xlink:href="#CMR17-48"/>
      </g>
     </g>
    </g>
   </g>
   <g id="matplotlib.axis_2">
    <g id="ytick_1">
     <g id="line2d_13">
      <defs>
       <path d="M 0 0
L -3.5 0
" id="mb44bc13fd0" style="stroke:#000000;stroke-width:0.8;"/>
      </defs>
      <g>
       <use style="stroke:#000000;stroke-width:0.8;" x="84.550546" xlink:href="#mb44bc13fd0" y="375.493556"/>
      </g>
     </g>
     <g id="line2d_14">
      <defs>
       <path d="M 0 0
L 3.5 0
" id="m02e1a1a5cc" style="stroke:#000000;stroke-width:0.8;"/>
      </defs>
      <g>
       <use style="stroke:#000000;stroke-width:0.8;" x="553.06" xlink:href="#m02e1a1a5cc" y="375.493556"/>
      </g>
     </g>
     <g id="text_7">
      <!-- $0.0e+00$ -->
      <defs>
       <path d="M 18.40625 4.796875
C 18.40625 7.6875 16 9.671875 13.59375 9.671875
C 10.703125 9.671875 8.703125 7.28125 8.703125 4.890625
C 8.703125 2 11.09375 0 13.5 0
C 16.40625 0 18.40625 2.390625 18.40625 4.796875
z
" id="CMMI12-58"/>
       <path d="M 17.90625 23.109375
C 20.59375 23.109375 27.40625 23.109375 32.203125 24.921875
C 39.796875 27.859375 40.5 33.71875 40.5 35.53125
C 40.5 39.96875 36.703125 44 30.09375 44
C 19.59375 44 4.5 34.53125 4.5 16.765625
C 4.5 6.28125 10.5 -1 19.59375 -1
C 33.203125 -1 41.796875 9.515625 41.796875 10.8125
C 41.796875 11.40625 41.203125 11.90625 40.796875 11.90625
C 40.5 11.90625 40.40625 11.8125 39.5 10.921875
C 33.09375 2.484375 23.59375 1 19.796875 1
C 14.09375 1 11.09375 5.46875 11.09375 12.84375
C 11.09375 14.234375 11.09375 16.734375 12.59375 23.109375
z
M 13.09375 25
C 17.40625 40.5 26.90625 42.015625 30.09375 42.015625
C 34.5 42.015625 37.5 39.40625 37.5 35.578125
C 37.5 25 21.5 25 17.296875 25
z
" id="CMMI12-101"/>
       <path d="M 37.703125 23
L 64.203125 23
C 65.59375 23 67.296875 23 67.296875 24.6875
C 67.296875 26.484375 65.703125 26.484375 64.203125 26.484375
L 37.703125 26.484375
L 37.703125 52.90625
C 37.703125 54.296875 37.703125 56 36 56
C 34.203125 56 34.203125 54.40625 34.203125 52.90625
L 34.203125 26.484375
L 7.703125 26.484375
C 6.296875 26.484375 4.59375 26.484375 4.59375 24.796875
C 4.59375 23 6.203125 23 7.703125 23
L 34.203125 23
L 34.203125 -3.40625
C 34.203125 -4.796875 34.203125 -6.5 35.90625 -6.5
C 37.703125 -6.5 37.703125 -4.90625 37.703125 -3.40625
z
" id="CMR17-43"/>
      </defs>
      <g transform="translate(19.44 380.680351)scale(0.14994 -0.14994)">
       <use transform="scale(0.996264)" xlink:href="#CMR17-48"/>
       <use transform="translate(45.690477 0)scale(0.996264)" xlink:href="#CMMI12-58"/>
       <use transform="translate(72.787654 0)scale(0.996264)" xlink:href="#CMR17-48"/>
       <use transform="translate(118.478131 0)scale(0.996264)" xlink:href="#CMMI12-101"/>
       <use transform="translate(185.829339 0)scale(0.996264)" xlink:href="#CMR17-43"/>
       <use transform="translate(279.683335 0)scale(0.996264)" xlink:href="#CMR17-48"/>
       <use transform="translate(325.373812 0)scale(0.996264)" xlink:href="#CMR17-48"/>
      </g>
     </g>
    </g>
    <g id="ytick_2">
     <g id="line2d_15">
      <g>
       <use style="stroke:#000000;stroke-width:0.8;" x="84.550546" xlink:href="#mb44bc13fd0" y="308.340498"/>
      </g>
     </g>
     <g id="line2d_16">
      <g>
       <use style="stroke:#000000;stroke-width:0.8;" x="553.06" xlink:href="#m02e1a1a5cc" y="308.340498"/>
      </g>
     </g>
     <g id="text_8">
      <!-- $2.0e+01$ -->
      <g transform="translate(19.44 313.527293)scale(0.14994 -0.14994)">
       <use transform="scale(0.996264)" xlink:href="#CMR17-50"/>
       <use transform="translate(45.690477 0)scale(0.996264)" xlink:href="#CMMI12-58"/>
       <use transform="translate(72.787654 0)scale(0.996264)" xlink:href="#CMR17-48"/>
       <use transform="translate(118.478131 0)scale(0.996264)" xlink:href="#CMMI12-101"/>
       <use transform="translate(185.829339 0)scale(0.996264)" xlink:href="#CMR17-43"/>
       <use transform="translate(279.683335 0)scale(0.996264)" xlink:href="#CMR17-48"/>
       <use transform="translate(325.373812 0)scale(0.996264)" xlink:href="#CMR17-49"/>
      </g>
     </g>
    </g>
    <g id="ytick_3">
     <g id="line2d_17">
      <g>
       <use style="stroke:#000000;stroke-width:0.8;" x="84.550546" xlink:href="#mb44bc13fd0" y="241.18744"/>
      </g>
     </g>
     <g id="line2d_18">
      <g>
       <use style="stroke:#000000;stroke-width:0.8;" x="553.06" xlink:href="#m02e1a1a5cc" y="241.18744"/>
      </g>
     </g>
     <g id="text_9">
      <!-- $4.0e+01$ -->
      <g transform="translate(19.44 246.374234)scale(0.14994 -0.14994)">
       <use transform="scale(0.996264)" xlink:href="#CMR17-52"/>
       <use transform="translate(45.690477 0)scale(0.996264)" xlink:href="#CMMI12-58"/>
       <use transform="translate(72.787654 0)scale(0.996264)" xlink:href="#CMR17-48"/>
       <use transform="translate(118.478131 0)scale(0.996264)" xlink:href="#CMMI12-101"/>
       <use transform="translate(185.829339 0)scale(0.996264)" xlink:href="#CMR17-43"/>
       <use transform="translate(279.683335 0)scale(0.996264)" xlink:href="#CMR17-48"/>
       <use transform="translate(325.373812 0)scale(0.996264)" xlink:href="#CMR17-49"/>
      </g>
     </g>
    </g>
    <g id="ytick_4">
     <g id="line2d_19">
      <g>
       <use style="stroke:#000000;stroke-width:0.8;" x="84.550546" xlink:href="#mb44bc13fd0" y="174.034381"/>
      </g>
     </g>
     <g id="line2d_20">
      <g>
       <use style="stroke:#000000;stroke-width:0.8;" x="553.06" xlink:href="#m02e1a1a5cc" y="174.034381"/>
      </g>
     </g>
     <g id="text_10">
      <!-- $6.0e+01$ -->
      <g transform="translate(19.44 179.221176)scale(0.14994 -0.14994)">
       <use transform="scale(0.996264)" xlink:href="#CMR17-54"/>
       <use transform="translate(45.690477 0)scale(0.996264)" xlink:href="#CMMI12-58"/>
       <use transform="translate(72.787654 0)scale(0.996264)" xlink:href="#CMR17-48"/>
       <use transform="translate(118.478131 0)scale(0.996264)" xlink:href="#CMMI12-101"/>
       <use transform="translate(185.829339 0)scale(0.996264)" xlink:href="#CMR17-43"/>
       <use transform="translate(279.683335 0)scale(0.996264)" xlink:href="#CMR17-48"/>
       <use transform="translate(325.373812 0)scale(0.996264)" xlink:href="#CMR17-49"/>
      </g>
     </g>
    </g>
    <g id="ytick_5">
     <g id="line2d_21">
      <g>
       <use style="stroke:#000000;stroke-width:0.8;" x="84.550546" xlink:href="#mb44bc13fd0" y="106.881323"/>
      </g>
     </g>
     <g id="line2d_22">
      <g>
       <use style="stroke:#000000;stroke-width:0.8;" x="553.06" xlink:href="#m02e1a1a5cc" y="106.881323"/>
      </g>
     </g>
     <g id="text_11">
      <!-- $8.0e+01$ -->
      <g transform="translate(19.44 112.068118)scale(0.14994 -0.14994)">
       <use transform="scale(0.996264)" xlink:href="#CMR17-56"/>
       <use transform="translate(45.690477 0)scale(0.996264)" xlink:href="#CMMI12-58"/>
       <use transform="translate(72.787654 0)scale(0.996264)" xlink:href="#CMR17-48"/>
       <use transform="translate(118.478131 0)scale(0.996264)" xlink:href="#CMMI12-101"/>
       <use transform="translate(185.829339 0)scale(0.996264)" xlink:href="#CMR17-43"/>
       <use transform="translate(279.683335 0)scale(0.996264)" xlink:href="#CMR17-48"/>
       <use transform="translate(325.373812 0)scale(0.996264)" xlink:href="#CMR17-49"/>
      </g>
     </g>
    </g>
    <g id="ytick_6">
     <g id="line2d_23">
      <g>
       <use style="stroke:#000000;stroke-width:0.8;" x="84.550546" xlink:href="#mb44bc13fd0" y="39.728265"/>
      </g>
     </g>
     <g id="line2d_24">
      <g>
       <use style="stroke:#000000;stroke-width:0.8;" x="553.06" xlink:href="#m02e1a1a5cc" y="39.728265"/>
      </g>
     </g>
     <g id="text_12">
      <!-- $1.0e+02$ -->
      <g transform="translate(19.44 44.91506)scale(0.14994 -0.14994)">
       <use transform="scale(0.996264)" xlink:href="#CMR17-49"/>
       <use transform="translate(45.690477 0)scale(0.996264)" xlink:href="#CMMI12-58"/>
       <use transform="translate(72.787654 0)scale(0.996264)" xlink:href="#CMR17-48"/>
       <use transform="translate(118.478131 0)scale(0.996264)" xlink:href="#CMMI12-101"/>
       <use transform="translate(185.829339 0)scale(0.996264)" xlink:href="#CMR17-43"/>
       <use transform="translate(279.683335 0)scale(0.996264)" xlink:href="#CMR17-48"/>
       <use transform="translate(325.373812 0)scale(0.996264)" xlink:href="#CMR17-50"/>
      </g>
     </g>
    </g>
   </g>
   <g id="line2d_25">
    <path clip-path="url(#p2079e83b52)" d="M 105.84643 375.493556
L 110.105607 375.45998
L 114.364784 375.35925
L 118.623961 375.191367
L 122.883138 374.956332
L 127.142315 374.654143
L 131.401492 374.284801
L 135.660668 373.848306
L 139.919845 373.344658
L 144.179022 372.773857
L 148.438199 372.135903
L 152.697376 371.430796
L 156.956553 370.658536
L 161.21573 369.819123
L 165.474906 368.912556
L 169.734083 367.938837
L 173.99326 366.897965
L 178.252437 365.789939
L 182.511614 364.614761
L 186.770791 363.372429
L 191.029967 362.062945
L 195.289144 360.686307
L 199.548321 359.242516
L 203.807498 357.731572
L 208.066675 356.153475
L 212.325852 354.508225
L 216.585029 352.795822
L 220.844205 351.016266
L 225.103382 349.169557
L 229.362559 347.255695
L 233.621736 345.27468
L 237.880913 343.226512
L 242.14009 341.11119
L 246.399267 338.928716
L 250.658443 336.679088
L 254.91762 334.362308
L 259.176797 331.978374
L 263.435974 329.527288
L 267.695151 327.009048
L 271.954328 324.423655
L 276.213505 321.77111
L 280.472681 319.051411
L 284.731858 316.264559
L 288.991035 313.410554
L 293.250212 310.489396
L 297.509389 307.501085
L 301.768566 304.44562
L 306.027743 301.323003
L 310.286919 298.133233
L 314.546096 294.87631
L 318.805273 291.552233
L 323.06445 288.161004
L 327.323627 284.702621
L 331.582804 281.177086
L 335.84198 277.584397
L 340.101157 273.924555
L 344.360334 270.197561
L 348.619511 266.403413
L 352.878688 262.542112
L 357.137865 258.613658
L 361.397042 254.618051
L 365.656218 250.555291
L 369.915395 246.425378
L 374.174572 242.228312
L 378.433749 237.964093
L 382.692926 233.63272
L 386.952103 229.234195
L 391.21128 224.768517
L 395.470456 220.235685
L 399.729633 215.635701
L 403.98881 210.968563
L 408.247987 206.234273
L 412.507164 201.432829
L 416.766341 196.564232
L 421.025518 191.628482
L 425.284694 186.62558
L 429.543871 181.555524
L 433.803048 176.418315
L 438.062225 171.213953
L 442.321402 165.942438
L 446.580579 160.60377
L 450.839756 155.197948
L 455.098932 149.724974
L 459.358109 144.184847
L 463.617286 138.577566
L 467.876463 132.903133
L 472.13564 127.161547
L 476.394817 121.352807
L 480.653993 115.476914
L 484.91317 109.533869
L 489.172347 103.52367
L 493.431524 97.446318
L 497.690701 91.301813
L 501.949878 85.090155
L 506.209055 78.811345
L 510.468231 72.465381
L 514.727408 66.052263
L 518.986585 59.571993
L 523.245762 53.02457
L 527.504939 46.409994
L 531.764116 39.728265
" style="fill:none;stroke:#000000;stroke-linecap:square;stroke-width:2;"/>
   </g>
   <g id="patch_3">
    <path d="M 84.550546 392.281821
L 84.550546 22.94
" style="fill:none;stroke:#000000;stroke-linecap:square;stroke-linejoin:miter;stroke-width:0.8;"/>
   </g>
   <g id="patch_4">
    <path d="M 553.06 392.281821
L 553.06 22.94
" style="fill:none;stroke:#000000;stroke-linecap:square;stroke-linejoin:miter;stroke-width:0.8;"/>
   </g>
   <g id="patch_5">
    <path d="M 84.550546 392.281821
L 553.06 392.281821
" style="fill:none;stroke:#000000;stroke-linecap:square;stroke-linejoin:miter;stroke-width:0.8;"/>
   </g>
   <g id="patch_6">
    <path d="M 84.550546 22.94
L 553.06 22.94
" style="fill:none;stroke:#000000;stroke-linecap:square;stroke-linejoin:miter;stroke-width:0.8;"/>
   </g>
  </g>
 </g>
 <defs>
  <clipPath id="p2079e83b52">
   <rect height="369.341821" width="468.509454" x="84.550546" y="22.94"/>
  </clipPath>
 </defs>
</svg>
