<?xml version="1.0" encoding="utf-8" standalone="no"?>
<!DOCTYPE svg PUBLIC "-//W3C//DTD SVG 1.1//EN"
  "http://www.w3.org/Graphics/SVG/1.1/DTD/svg11.dtd">
<!-- Created with matplotlib (http://matplotlib.org/) -->
<svg height="432pt" version="1.1" viewBox="0 0 576 432" width="576pt" xmlns="http://www.w3.org/2000/svg" xmlns:xlink="http://www.w3.org/1999/xlink">
 <defs>
  <style type="text/css">
*{stroke-linecap:butt;stroke-linejoin:round;}
  </style>
 </defs>
 <g id="figure_1">
  <g id="patch_1">
   <path d="M 0 432
L 576 432
L 576 0
L 0 0
z
" style="fill:none;"/>
  </g>
  <g id="axes_1">
   <g id="patch_2">
    <path d="M 64.061325 367.333821
L 525.354354 367.333821
L 525.354354 22.94
L 64.061325 22.94
z
" style="fill:none;"/>
   </g>
   <g id="matplotlib.axis_1">
    <g id="xtick_1">
     <g id="line2d_1">
      <defs>
       <path d="M 0 0
L 0 3.5
" id="m4bc32176cc" style="stroke:#000000;stroke-width:0.8;"/>
      </defs>
      <g>
       <use style="stroke:#000000;stroke-width:0.8;" x="85.02919" xlink:href="#m4bc32176cc" y="367.333821"/>
      </g>
     </g>
     <g id="line2d_2">
      <defs>
       <path d="M 0 0
L 0 -3.5
" id="md622055586" style="stroke:#000000;stroke-width:0.8;"/>
      </defs>
      <g>
       <use style="stroke:#000000;stroke-width:0.8;" x="85.02919" xlink:href="#md622055586" y="22.94"/>
      </g>
     </g>
     <g id="text_1">
      <!-- Long ticklabel 0 -->
      <defs>
       <path d="M 54.203125 25.234375
L 52.40625 25.234375
C 51.59375 15.359375 50.296875 2.59375 33.203125 2.59375
L 23.90625 2.59375
C 19.90625 2.59375 19.703125 3.078125 19.703125 6.46875
L 19.703125 60.90625
C 19.703125 64.515625 19.90625 65.5 27.5 65.5
L 29.703125 65.5
L 29.703125 68
C 25.59375 68 20.796875 68 16.703125 68
C 13.59375 68 8 68 5.09375 68
L 5.09375 65.5
C 12 65.5 13.09375 65.5 13.09375 61.015625
L 13.09375 7.0625
C 13.09375 2.59375 12 2.59375 5.09375 2.59375
L 5.09375 0
L 51.796875 0
z
" id="CMR17-76"/>
       <path d="M 43.09375 21.1875
C 43.09375 34 33.796875 44 22.90625 44
C 12 44 2.703125 34 2.703125 21.1875
C 2.703125 8.609375 12 -1 22.90625 -1
C 33.796875 -1 43.09375 8.609375 43.09375 21.1875
z
M 22.90625 0.796875
C 18.203125 0.796875 14.203125 3.59375 11.90625 7.5
C 9.40625 11.984375 9.09375 17.59375 9.09375 22
C 9.09375 26.203125 9.296875 31.40625 11.90625 35.90625
C 13.90625 39.203125 17.796875 42.40625 22.90625 42.40625
C 27.40625 42.40625 31.203125 39.90625 33.59375 36.40625
C 36.703125 31.703125 36.703125 25.109375 36.703125 22
C 36.703125 18.09375 36.5 12.109375 33.796875 7.296875
C 31 2.703125 26.703125 0.796875 22.90625 0.796875
z
" id="CMR17-111"/>
       <path d="M 41.5 30.203125
C 41.5 35.296875 40.5 43.59375 28.703125 43.59375
C 20.796875 43.59375 16.703125 37.5 15.203125 33.5
L 15.09375 33.5
L 15.09375 43.59375
L 3.296875 42.5
L 3.296875 39.90625
C 9.203125 39.90625 10.09375 39.296875 10.09375 34.5
L 10.09375 6.6875
C 10.09375 2.875 9.703125 2.390625 3.296875 2.390625
L 3.296875 -0.203125
C 5.703125 0 10.09375 0 12.703125 0
C 15.296875 0 19.796875 0 22.203125 -0.203125
L 22.203125 2.390625
C 15.796875 2.390625 15.40625 2.78125 15.40625 6.6875
L 15.40625 25.90625
C 15.40625 35.109375 21 42 28 42
C 35.40625 42 36.203125 35.40625 36.203125 30.59375
L 36.203125 6.6875
C 36.203125 2.875 35.796875 2.390625 29.40625 2.390625
L 29.40625 -0.203125
C 31.796875 0 36.203125 0 38.796875 0
C 41.40625 0 45.90625 0 48.296875 -0.203125
L 48.296875 2.390625
C 41.90625 2.390625 41.5 2.78125 41.5 6.6875
z
" id="CMR17-110"/>
       <path d="M 11.09375 18.1875
C 13 16.6875 16.296875 15 20.296875 15
C 28.203125 15 35 21.203125 35 29.5
C 35 32.09375 34.203125 36.09375 31.203125 39.203125
C 34 42.0625 38.09375 43 40.40625 43
C 40.796875 43 41.40625 43 41.90625 42.71875
C 41.5 42.625 40.59375 42.234375 40.59375 40.703125
C 40.59375 39.484375 41.5 38.609375 42.796875 38.609375
C 44.296875 38.609375 45.09375 39.578125 45.09375 40.84375
C 45.09375 42.671875 43.59375 44.59375 40.40625 44.59375
C 36.40625 44.59375 32.90625 42.78125 30.09375 40.3125
C 27.09375 43.015625 23.5 44 20.296875 44
C 12.40625 44 5.59375 37.796875 5.59375 29.5
C 5.59375 23.78125 8.90625 20.1875 9.90625 19.1875
C 6.90625 15.6875 6.90625 11.609375 6.90625 11.109375
C 6.90625 8.515625 7.90625 4.71875 11.296875 2.625
C 6.09375 1.328125 2 -2.640625 2 -7.59375
C 2 -14.734375 11.5 -20 22.90625 -20
C 33.90625 -20 43.796875 -14.9375 43.796875 -7.484375
C 43.796875 6 29 6 21.296875 6
C 19 6 14.90625 6 14.40625 6.109375
C 11.296875 6.609375 9.203125 9.40625 9.203125 12.90625
C 9.203125 13.796875 9.203125 16 11.09375 18.1875
z
M 20.296875 16.6875
C 11.5 16.6875 11.5 27.5 11.5 29.515625
C 11.5 31.5 11.5 42.3125 20.296875 42.3125
C 29.09375 42.3125 29.09375 31.5 29.09375 29.515625
C 29.09375 27.5 29.09375 16.6875 20.296875 16.6875
z
M 22.90625 -18.296875
C 12.90625 -18.296875 6 -13.046875 6 -7.59375
C 6 -4.515625 7.703125 -1.640625 9.90625 -0.0625
C 12.40625 1.625 13.40625 1.625 20.203125 1.625
C 28.40625 1.625 39.796875 1.625 39.796875 -7.59375
C 39.796875 -13.046875 32.90625 -18.296875 22.90625 -18.296875
z
" id="CMR17-103"/>
       <path d="M 15.09375 40
L 29.09375 40
L 29.09375 42.578125
L 15.09375 42.578125
L 15.09375 61
L 13.296875 61
C 13.09375 50.703125 9.59375 41.6875 1.09375 41.6875
L 1.09375 40
L 9.796875 40
L 9.796875 12.046875
C 9.796875 10.15625 9.796875 -1 21.40625 -1
C 27.296875 -1 30.703125 4.78125 30.703125 12.140625
L 30.703125 17.8125
L 28.90625 17.8125
L 28.90625 12.234375
C 28.90625 5.375 26.203125 0.796875 22 0.796875
C 19.09375 0.796875 15.09375 2.78125 15.09375 11.84375
z
" id="CMR17-116"/>
       <path d="M 15.5 61.078125
C 15.5 63.265625 13.703125 65.15625 11.40625 65.15625
C 9.203125 65.15625 7.296875 63.375 7.296875 61.078125
C 7.296875 58.890625 9.09375 57 11.40625 57
C 13.59375 57 15.5 58.796875 15.5 61.078125
z
M 3.796875 42.28125
L 3.796875 39.703125
C 9.40625 39.703125 10.203125 39.09375 10.203125 34.328125
L 10.203125 6.671875
C 10.203125 2.875 9.796875 2.390625 3.40625 2.390625
L 3.40625 -0.203125
C 5.796875 0 10.09375 0 12.59375 0
C 15 0 19.09375 0 21.40625 -0.203125
L 21.40625 2.390625
C 15.5 2.390625 15.296875 2.984375 15.296875 6.5625
L 15.296875 43.375
z
" id="CMR17-105"/>
       <path d="M 34.90625 35
C 33 35 30.203125 35 30.203125 31.515625
C 30.203125 28.71875 32.5 27.921875 33.796875 27.921875
C 34.5 27.921875 37.40625 28.234375 37.40625 31.625
C 37.40625 38.546875 30.59375 43.796875 22.90625 43.796875
C 12.296875 43.796875 3.296875 34.03125 3.296875 21.296875
C 3.296875 8.0625 12.703125 -1 22.90625 -1
C 35.296875 -1 38.40625 10.578125 38.40625 11.6875
C 38.40625 12.09375 38.296875 12.390625 37.59375 12.390625
C 36.90625 12.390625 36.796875 12.296875 36.40625 10.984375
C 33.796875 2.8125 28.09375 0.796875 23.796875 0.796875
C 17.40625 0.796875 9.703125 6.671875 9.703125 21.390625
C 9.703125 36.53125 17.09375 42 23 42
C 26.90625 42 32.703125 40.203125 34.90625 35
z
" id="CMR17-99"/>
       <path d="M 26.09375 26.140625
C 26 26.34375 25.5 26.9375 25.5 27.234375
C 25.5 27.4375 32.59375 33.921875 33.5 34.71875
C 39.203125 39.5 42.796875 40 45.40625 40
L 45.40625 42.703125
C 44.796875 42.703125 44.59375 42.703125 44.5 42.5
L 39.59375 42.5
C 36.796875 42.5 32.5 42.5 29.796875 42.703125
L 29.796875 40.09375
C 31.203125 39.984375 32.203125 39.1875 32.203125 37.796875
C 32.203125 35.796875 30.203125 33.90625 30.09375 33.90625
L 15 20.140625
L 15 68.6875
L 3.09375 67.59375
L 3.09375 65
C 9 65 9.90625 64.40625 9.90625 59.640625
L 9.90625 6.65625
C 9.90625 2.875 9.5 2.390625 3.09375 2.390625
L 3.09375 -0.203125
C 5.5 0 9.90625 0 12.40625 0
C 14.90625 0 19.296875 0 21.703125 -0.203125
L 21.703125 2.390625
C 15.296875 2.390625 14.90625 2.78125 14.90625 6.6875
L 14.90625 17.65625
L 21.796875 23.9375
L 31.90625 8.96875
C 33.09375 7.171875 34.09375 5.765625 34.09375 4.46875
C 34.09375 2.6875 32.296875 2.390625 31.09375 2.390625
L 31.09375 -0.203125
C 33.5 0 37.796875 0 40.296875 0
C 42.09375 0 45.796875 0 47.5 0
L 47.5 2.390625
C 42.796875 2.390625 41.703125 3.28125 38.703125 7.671875
z
" id="CMR17-107"/>
       <path d="M 15.296875 68.6875
L 3.40625 67.59375
L 3.40625 65
C 9.296875 65 10.203125 64.40625 10.203125 59.640625
L 10.203125 6.65625
C 10.203125 2.875 9.796875 2.390625 3.40625 2.390625
L 3.40625 -0.203125
C 5.796875 0 10.203125 0 12.703125 0
C 15.296875 0 19.703125 0 22.09375 -0.203125
L 22.09375 2.390625
C 15.703125 2.390625 15.296875 2.78125 15.296875 6.65625
z
" id="CMR17-108"/>
       <path d="M 36 25.828125
C 36 32.375 36 35.84375 31.796875 39.734375
C 28.09375 43 23.796875 44 20.40625 44
C 12.5 44 6.796875 37.609375 6.796875 30.796875
C 6.796875 27 9.796875 27 10.40625 27
C 11.703125 27 14 27.78125 14 30.53125
C 14 33 12.09375 34.078125 10.40625 34.078125
C 10 34.078125 9.5 33.96875 9.203125 33.875
C 11.296875 40.5 16.703125 42.40625 20.203125 42.40625
C 25.203125 42.40625 30.703125 37.953125 30.703125 29.453125
L 30.703125 25
C 24.796875 25 17.703125 24.203125 12.09375 21.203125
C 5.796875 17.703125 4 12.703125 4 8.90625
C 4 1.203125 13 -1 18.296875 -1
C 23.796875 -1 28.90625 2.171875 31.09375 7.984375
C 31.296875 3.640625 34.09375 -0.28125 38.5 -0.28125
C 40.59375 -0.28125 45.90625 1.09375 45.90625 8.859375
L 45.90625 14.375
L 44.09375 14.375
L 44.09375 8.78125
C 44.09375 2.78125 41.40625 2 40.09375 2
C 36 2 36 7.15625 36 11.53125
z
M 30.703125 13.59375
C 30.703125 4.953125 24.5 0.59375 19 0.59375
C 14 0.59375 10.09375 4.296875 10.09375 8.90625
C 10.09375 11.890625 11.40625 17.1875 17.203125 20.390625
C 22 23.09375 27.5 23.5 30.703125 23.5
z
" id="CMR17-97"/>
       <path d="M 15 68.6875
L 3.09375 67.59375
L 3.09375 65
C 9 65 9.90625 64.40625 9.90625 59.640625
L 9.90625 -0.203125
L 11.703125 -0.203125
L 14.59375 6.890625
C 17.5 2.203125 21.796875 -1 27.59375 -1
C 37.59375 -1 47.703125 7.8125 47.703125 21.40625
C 47.703125 34.1875 38.703125 43.59375 28.59375 43.59375
C 22.40625 43.59375 18 40.296875 15 36.40625
z
M 15.203125 31.3125
C 15.203125 33.09375 15.203125 33.40625 16.59375 35.5
C 20.5 41.515625 26.09375 42 28 42
C 31 42 41.296875 40.390625 41.296875 21.5
C 41.296875 1.6875 29.5 0.59375 27.09375 0.59375
C 24 0.59375 19.5 1.78125 16.296875 7.59375
C 15.203125 9.5 15.203125 9.703125 15.203125 11.484375
z
" id="CMR17-98"/>
       <path d="M 38.09375 23
C 38.5 23.40625 38.5 23.609375 38.5 24.625
C 38.5 34.96875 33.09375 44 21.703125 44
C 11.09375 44 2.703125 33.890625 2.703125 21.609375
C 2.703125 8.609375 12.203125 -1 22.796875 -1
C 34 -1 38.40625 9.484375 38.40625 11.5625
C 38.40625 12.25 37.796875 12.25 37.59375 12.25
C 36.90625 12.25 36.796875 12.046875 36.40625 10.875
C 34.203125 4.140625 28.703125 0.796875 23.5 0.796875
C 19.203125 0.796875 14.90625 3.171875 12.203125 7.5
C 9.09375 12.546875 9.09375 18.375 9.09375 23
z
M 9.203125 24.5
C 9.90625 39.140625 17.59375 42.40625 21.59375 42.40625
C 28.40625 42.40625 33 35.890625 33.09375 24.5
z
" id="CMR17-101"/>
       <path d="M 42 31.640625
C 42 37.75 41.90625 48.125 37.703125 56.109375
C 34 63.109375 28.09375 65.59375 22.90625 65.59375
C 18.09375 65.59375 12 63.40625 8.203125 56.203125
C 4.203125 48.71875 3.796875 39.4375 3.796875 31.640625
C 3.796875 25.953125 3.90625 17.28125 7 9.671875
C 11.296875 -0.609375 19 -2 22.90625 -2
C 27.5 -2 34.5 -0.109375 38.59375 9.375
C 41.59375 16.28125 42 24.359375 42 31.640625
z
M 22.90625 -0.40625
C 16.5 -0.40625 12.703125 5.078125 11.296875 12.6875
C 10.203125 18.5625 10.203125 27.15625 10.203125 32.75
C 10.203125 40.4375 10.203125 46.828125 11.5 52.921875
C 13.40625 61.390625 19 64 22.90625 64
C 27 64 32.296875 61.296875 34.203125 53.125
C 35.5 47.4375 35.59375 40.734375 35.59375 32.75
C 35.59375 26.25 35.59375 18.265625 34.40625 12.375
C 32.296875 1.484375 26.40625 -0.40625 22.90625 -0.40625
z
" id="CMR17-48"/>
      </defs>
      <g transform="translate(33.532636 384.707411)scale(0.14994 -0.14994)">
       <use transform="scale(0.996264)" xlink:href="#CMR17-76"/>
       <use transform="translate(57.381408 0)scale(0.996264)" xlink:href="#CMR17-111"/>
       <use transform="translate(103.071885 0)scale(0.996264)" xlink:href="#CMR17-110"/>
       <use transform="translate(153.967255 0)scale(0.996264)" xlink:href="#CMR17-103"/>
       <use transform="translate(229.733698 0)scale(0.996264)" xlink:href="#CMR17-116"/>
       <use transform="translate(265.014466 0)scale(0.996264)" xlink:href="#CMR17-105"/>
       <use transform="translate(289.885524 0)scale(0.996264)" xlink:href="#CMR17-99"/>
       <use transform="translate(327.768731 0)scale(0.996264)" xlink:href="#CMR17-107"/>
       <use transform="translate(376.061647 0)scale(0.996264)" xlink:href="#CMR17-108"/>
       <use transform="translate(400.932705 0)scale(0.996264)" xlink:href="#CMR17-97"/>
       <use transform="translate(446.623182 0)scale(0.996264)" xlink:href="#CMR17-98"/>
       <use transform="translate(500.120991 0)scale(0.996264)" xlink:href="#CMR17-101"/>
       <use transform="translate(540.606651 0)scale(0.996264)" xlink:href="#CMR17-108"/>
       <use transform="translate(595.553676 0)scale(0.996264)" xlink:href="#CMR17-48"/>
      </g>
     </g>
    </g>
    <g id="xtick_2">
     <g id="line2d_3">
      <g>
       <use style="stroke:#000000;stroke-width:0.8;" x="189.868515" xlink:href="#m4bc32176cc" y="367.333821"/>
      </g>
     </g>
     <g id="line2d_4">
      <g>
       <use style="stroke:#000000;stroke-width:0.8;" x="189.868515" xlink:href="#md622055586" y="22.94"/>
      </g>
     </g>
     <g id="text_2">
      <!-- Long ticklabel 1 -->
      <defs>
       <path d="M 26.59375 63.40625
C 26.59375 65.5 26.5 65.5 25.09375 65.5
C 21.203125 61.1875 15.296875 59.796875 9.703125 59.796875
C 9.40625 59.796875 8.90625 59.796875 8.796875 59.5
C 8.703125 59.296875 8.703125 59.09375 8.703125 57
C 11.796875 57 17 57.59375 21 59.984375
L 21 7.203125
C 21 3.6875 20.796875 2.5 12.203125 2.5
L 9.203125 2.5
L 9.203125 0
C 14 0 19 0 23.796875 0
C 28.59375 0 33.59375 0 38.40625 0
L 38.40625 2.5
L 35.40625 2.5
C 26.796875 2.5 26.59375 3.59375 26.59375 7.15625
z
" id="CMR17-49"/>
      </defs>
      <g transform="translate(138.37196 410.536947)scale(0.14994 -0.14994)">
       <use transform="scale(0.996264)" xlink:href="#CMR17-76"/>
       <use transform="translate(57.381408 0)scale(0.996264)" xlink:href="#CMR17-111"/>
       <use transform="translate(103.071885 0)scale(0.996264)" xlink:href="#CMR17-110"/>
       <use transform="translate(153.967255 0)scale(0.996264)" xlink:href="#CMR17-103"/>
       <use transform="translate(229.733698 0)scale(0.996264)" xlink:href="#CMR17-116"/>
       <use transform="translate(265.014466 0)scale(0.996264)" xlink:href="#CMR17-105"/>
       <use transform="translate(289.885524 0)scale(0.996264)" xlink:href="#CMR17-99"/>
       <use transform="translate(327.768731 0)scale(0.996264)" xlink:href="#CMR17-107"/>
       <use transform="translate(376.061647 0)scale(0.996264)" xlink:href="#CMR17-108"/>
       <use transform="translate(400.932705 0)scale(0.996264)" xlink:href="#CMR17-97"/>
       <use transform="translate(446.623182 0)scale(0.996264)" xlink:href="#CMR17-98"/>
       <use transform="translate(500.120991 0)scale(0.996264)" xlink:href="#CMR17-101"/>
       <use transform="translate(540.606651 0)scale(0.996264)" xlink:href="#CMR17-108"/>
       <use transform="translate(595.553676 0)scale(0.996264)" xlink:href="#CMR17-49"/>
      </g>
     </g>
    </g>
    <g id="xtick_3">
     <g id="line2d_5">
      <g>
       <use style="stroke:#000000;stroke-width:0.8;" x="294.70784" xlink:href="#m4bc32176cc" y="367.333821"/>
      </g>
     </g>
     <g id="line2d_6">
      <g>
       <use style="stroke:#000000;stroke-width:0.8;" x="294.70784" xlink:href="#md622055586" y="22.94"/>
      </g>
     </g>
     <g id="text_3">
      <!-- Long ticklabel 2 -->
      <defs>
       <path d="M 41.703125 15.453125
L 39.90625 15.453125
C 38.90625 8.375 38.09375 7.171875 37.703125 6.5625
C 37.203125 5.765625 30 5.765625 28.59375 5.765625
L 9.40625 5.765625
C 13 9.671875 20 16.75 28.5 24.953125
C 34.59375 30.734375 41.703125 37.53125 41.703125 47.421875
C 41.703125 59.21875 32.296875 66 21.796875 66
C 10.796875 66 4.09375 56.3125 4.09375 47.34375
C 4.09375 43.4375 7 42.9375 8.203125 42.9375
C 9.203125 42.9375 12.203125 43.546875 12.203125 47.03125
C 12.203125 50.109375 9.59375 51 8.203125 51
C 7.59375 51 7 50.90625 6.59375 50.703125
C 8.5 59.21875 14.296875 63.40625 20.40625 63.40625
C 29.09375 63.40625 34.796875 56.515625 34.796875 47.421875
C 34.796875 38.734375 29.703125 31.25 24 24.75
L 4.09375 2.28125
L 4.09375 0
L 39.296875 0
z
" id="CMR17-50"/>
      </defs>
      <g transform="translate(243.211285 384.707411)scale(0.14994 -0.14994)">
       <use transform="scale(0.996264)" xlink:href="#CMR17-76"/>
       <use transform="translate(57.381408 0)scale(0.996264)" xlink:href="#CMR17-111"/>
       <use transform="translate(103.071885 0)scale(0.996264)" xlink:href="#CMR17-110"/>
       <use transform="translate(153.967255 0)scale(0.996264)" xlink:href="#CMR17-103"/>
       <use transform="translate(229.733698 0)scale(0.996264)" xlink:href="#CMR17-116"/>
       <use transform="translate(265.014466 0)scale(0.996264)" xlink:href="#CMR17-105"/>
       <use transform="translate(289.885524 0)scale(0.996264)" xlink:href="#CMR17-99"/>
       <use transform="translate(327.768731 0)scale(0.996264)" xlink:href="#CMR17-107"/>
       <use transform="translate(376.061647 0)scale(0.996264)" xlink:href="#CMR17-108"/>
       <use transform="translate(400.932705 0)scale(0.996264)" xlink:href="#CMR17-97"/>
       <use transform="translate(446.623182 0)scale(0.996264)" xlink:href="#CMR17-98"/>
       <use transform="translate(500.120991 0)scale(0.996264)" xlink:href="#CMR17-101"/>
       <use transform="translate(540.606651 0)scale(0.996264)" xlink:href="#CMR17-108"/>
       <use transform="translate(595.553676 0)scale(0.996264)" xlink:href="#CMR17-50"/>
      </g>
     </g>
    </g>
    <g id="xtick_4">
     <g id="line2d_7">
      <g>
       <use style="stroke:#000000;stroke-width:0.8;" x="399.547165" xlink:href="#m4bc32176cc" y="367.333821"/>
      </g>
     </g>
     <g id="line2d_8">
      <g>
       <use style="stroke:#000000;stroke-width:0.8;" x="399.547165" xlink:href="#md622055586" y="22.94"/>
      </g>
     </g>
     <g id="text_4">
      <!-- Long ticklabel 3 -->
      <defs>
       <path d="M 22.09375 33.703125
C 31 33.703125 34.90625 25.96875 34.90625 17.03125
C 34.90625 5 28.5 0.390625 22.703125 0.390625
C 17.40625 0.390625 8.796875 3.03125 6.09375 10.828125
C 6.59375 10.625 7.09375 10.625 7.59375 10.625
C 10 10.625 11.796875 12.21875 11.796875 14.8125
C 11.796875 17.703125 9.59375 19 7.59375 19
C 5.90625 19 3.296875 18.203125 3.296875 14.46875
C 3.296875 5.234375 12.296875 -2 22.90625 -2
C 34 -2 42.5 6.71875 42.5 16.953125
C 42.5 26.671875 34.5 33.703125 25 34.796875
C 32.59375 36.375 39.90625 43.0625 39.90625 52.015625
C 39.90625 59.6875 32 65.296875 23 65.296875
C 13.90625 65.296875 5.90625 59.828125 5.90625 52.015625
C 5.90625 48.59375 8.5 48 9.796875 48
C 11.90625 48 13.703125 49.296875 13.703125 51.890625
C 13.703125 54.46875 11.90625 55.765625 9.796875 55.765625
C 9.40625 55.765625 8.90625 55.765625 8.5 55.578125
C 11.40625 61.859375 19.296875 63 22.796875 63
C 26.296875 63 32.90625 61.328125 32.90625 51.875
C 32.90625 49.109375 32.5 44.1875 29.09375 39.84375
C 26.09375 36 22.703125 36 19.40625 35.6875
C 18.90625 35.6875 16.59375 35.453125 16.203125 35.453125
C 15.5 35.359375 15.09375 35.265625 15.09375 34.5
C 15.09375 33.796875 15.203125 33.703125 17.203125 33.703125
z
" id="CMR17-51"/>
      </defs>
      <g transform="translate(348.05061 410.536947)scale(0.14994 -0.14994)">
       <use transform="scale(0.996264)" xlink:href="#CMR17-76"/>
       <use transform="translate(57.381408 0)scale(0.996264)" xlink:href="#CMR17-111"/>
       <use transform="translate(103.071885 0)scale(0.996264)" xlink:href="#CMR17-110"/>
       <use transform="translate(153.967255 0)scale(0.996264)" xlink:href="#CMR17-103"/>
       <use transform="translate(229.733698 0)scale(0.996264)" xlink:href="#CMR17-116"/>
       <use transform="translate(265.014466 0)scale(0.996264)" xlink:href="#CMR17-105"/>
       <use transform="translate(289.885524 0)scale(0.996264)" xlink:href="#CMR17-99"/>
       <use transform="translate(327.768731 0)scale(0.996264)" xlink:href="#CMR17-107"/>
       <use transform="translate(376.061647 0)scale(0.996264)" xlink:href="#CMR17-108"/>
       <use transform="translate(400.932705 0)scale(0.996264)" xlink:href="#CMR17-97"/>
       <use transform="translate(446.623182 0)scale(0.996264)" xlink:href="#CMR17-98"/>
       <use transform="translate(500.120991 0)scale(0.996264)" xlink:href="#CMR17-101"/>
       <use transform="translate(540.606651 0)scale(0.996264)" xlink:href="#CMR17-108"/>
       <use transform="translate(595.553676 0)scale(0.996264)" xlink:href="#CMR17-51"/>
      </g>
     </g>
    </g>
    <g id="xtick_5">
     <g id="line2d_9">
      <g>
       <use style="stroke:#000000;stroke-width:0.8;" x="504.386489" xlink:href="#m4bc32176cc" y="367.333821"/>
      </g>
     </g>
     <g id="line2d_10">
      <g>
       <use style="stroke:#000000;stroke-width:0.8;" x="504.386489" xlink:href="#md622055586" y="22.94"/>
      </g>
     </g>
     <g id="text_5">
      <!-- Long ticklabel 4 -->
      <defs>
       <path d="M 33.59375 64.40625
C 33.59375 66.5 33.5 66.5 31.703125 66.5
L 2 19.59375
L 2 17
L 27.796875 17
L 27.796875 7.140625
C 27.796875 3.5 27.59375 2.5 20.59375 2.5
L 18.703125 2.5
L 18.703125 0
C 21.90625 0 27.296875 0 30.703125 0
C 34.09375 0 39.5 0 42.703125 0
L 42.703125 2.5
L 40.796875 2.5
C 33.796875 2.5 33.59375 3.5 33.59375 7.140625
L 33.59375 17
L 43.796875 17
L 43.796875 19.59375
L 33.59375 19.59375
z
M 28.09375 57.859375
L 28.09375 19.59375
L 4 19.59375
z
" id="CMR17-52"/>
      </defs>
      <g transform="translate(452.889935 384.707411)scale(0.14994 -0.14994)">
       <use transform="scale(0.996264)" xlink:href="#CMR17-76"/>
       <use transform="translate(57.381408 0)scale(0.996264)" xlink:href="#CMR17-111"/>
       <use transform="translate(103.071885 0)scale(0.996264)" xlink:href="#CMR17-110"/>
       <use transform="translate(153.967255 0)scale(0.996264)" xlink:href="#CMR17-103"/>
       <use transform="translate(229.733698 0)scale(0.996264)" xlink:href="#CMR17-116"/>
       <use transform="translate(265.014466 0)scale(0.996264)" xlink:href="#CMR17-105"/>
       <use transform="translate(289.885524 0)scale(0.996264)" xlink:href="#CMR17-99"/>
       <use transform="translate(327.768731 0)scale(0.996264)" xlink:href="#CMR17-107"/>
       <use transform="translate(376.061647 0)scale(0.996264)" xlink:href="#CMR17-108"/>
       <use transform="translate(400.932705 0)scale(0.996264)" xlink:href="#CMR17-97"/>
       <use transform="translate(446.623182 0)scale(0.996264)" xlink:href="#CMR17-98"/>
       <use transform="translate(500.120991 0)scale(0.996264)" xlink:href="#CMR17-101"/>
       <use transform="translate(540.606651 0)scale(0.996264)" xlink:href="#CMR17-108"/>
       <use transform="translate(595.553676 0)scale(0.996264)" xlink:href="#CMR17-52"/>
      </g>
     </g>
    </g>
   </g>
   <g id="matplotlib.axis_2">
    <g id="ytick_1">
     <g id="line2d_11">
      <defs>
       <path d="M 0 0
L -3.5 0
" id="m61db1f7307" style="stroke:#000000;stroke-width:0.8;"/>
      </defs>
      <g>
       <use style="stroke:#000000;stroke-width:0.8;" x="64.061325" xlink:href="#m61db1f7307" y="352.072682"/>
      </g>
     </g>
     <g id="line2d_12">
      <defs>
       <path d="M 0 0
L 3.5 0
" id="m7a0bedc2f4" style="stroke:#000000;stroke-width:0.8;"/>
      </defs>
      <g>
       <use style="stroke:#000000;stroke-width:0.8;" x="525.354354" xlink:href="#m7a0bedc2f4" y="352.072682"/>
      </g>
     </g>
     <g id="text_6">
      <!-- $-1.00$ -->
      <defs>
       <path d="M 65.90625 23
C 67.59375 23 69.40625 23 69.40625 25
C 69.40625 27 67.59375 27 65.90625 27
L 11.796875 27
C 10.09375 27 8.296875 27 8.296875 25
C 8.296875 23 10.09375 23 11.796875 23
z
" id="CMSY10-0"/>
       <path d="M 18.40625 4.796875
C 18.40625 7.6875 16 9.671875 13.59375 9.671875
C 10.703125 9.671875 8.703125 7.28125 8.703125 4.890625
C 8.703125 2 11.09375 0 13.5 0
C 16.40625 0 18.40625 2.390625 18.40625 4.796875
z
" id="CMMI12-58"/>
      </defs>
      <g transform="translate(19.44 357.259477)scale(0.14994 -0.14994)">
       <use transform="scale(0.996264)" xlink:href="#CMSY10-0"/>
       <use transform="translate(77.487468 0)scale(0.996264)" xlink:href="#CMR17-49"/>
       <use transform="translate(123.177945 0)scale(0.996264)" xlink:href="#CMMI12-58"/>
       <use transform="translate(150.275122 0)scale(0.996264)" xlink:href="#CMR17-48"/>
       <use transform="translate(195.965599 0)scale(0.996264)" xlink:href="#CMR17-48"/>
      </g>
     </g>
    </g>
    <g id="ytick_2">
     <g id="line2d_13">
      <g>
       <use style="stroke:#000000;stroke-width:0.8;" x="64.061325" xlink:href="#m61db1f7307" y="312.838739"/>
      </g>
     </g>
     <g id="line2d_14">
      <g>
       <use style="stroke:#000000;stroke-width:0.8;" x="525.354354" xlink:href="#m7a0bedc2f4" y="312.838739"/>
      </g>
     </g>
     <g id="text_7">
      <!-- $-0.75$ -->
      <defs>
       <path d="M 45.09375 61.578125
L 45.09375 63.765625
L 21.59375 63.765625
C 9.90625 63.765625 9.703125 65.078125 9.296875 67
L 7.5 67
L 4.59375 48.34375
L 6.40625 48.34375
C 6.703125 50.234375 7.40625 55.3125 8.59375 57.203125
C 9.203125 58 16.59375 58 18.296875 58
L 40.296875 58
L 29.203125 41.578125
C 21.796875 30.53125 16.703125 15.609375 16.703125 2.578125
C 16.703125 1.390625 16.703125 -2 20.296875 -2
C 23.90625 -2 23.90625 1.390625 23.90625 2.671875
L 23.90625 7.265625
C 23.90625 23.5625 26.703125 34.3125 31.296875 41.1875
z
" id="CMR17-55"/>
       <path d="M 11.40625 57.6875
C 12.40625 57.28125 16.5 56 20.703125 56
C 30 56 35.09375 61.109375 38 64.0625
C 38 64.953125 38 65.5 37.40625 65.5
C 37.296875 65.5 37.09375 65.5 36.296875 65.046875
C 32.796875 63.40625 28.703125 62.078125 23.703125 62.078125
C 20.703125 62.078125 16.203125 62.484375 11.296875 64.671875
C 10.203125 65.171875 10 65.171875 9.90625 65.171875
C 9.40625 65.171875 9.296875 65.0625 9.296875 63.078125
L 9.296875 34.421875
C 9.296875 32.640625 9.296875 32.140625 10.296875 32.140625
C 10.796875 32.140625 11 32.34375 11.5 33.03125
C 14.703125 37.515625 19.09375 39.40625 24.09375 39.40625
C 27.59375 39.40625 35.09375 37.21875 35.09375 20.140625
C 35.09375 16.953125 35.09375 11.171875 32.09375 6.578125
C 29.59375 2.484375 25.703125 0.390625 21.40625 0.390625
C 14.796875 0.390625 8.09375 5 6.296875 12.71875
C 6.703125 12.609375 7.5 12.421875 7.90625 12.421875
C 9.203125 12.421875 11.703125 13.125 11.703125 16.21875
C 11.703125 18.90625 9.796875 20 7.90625 20
C 5.59375 20 4.09375 18.59375 4.09375 15.796875
C 4.09375 7.09375 11 -2 21.59375 -2
C 31.90625 -2 41.703125 6.875 41.703125 19.75
C 41.703125 31.71875 33.90625 41 24.203125 41
C 19.09375 41 14.796875 39.109375 11.40625 35.53125
z
" id="CMR17-53"/>
      </defs>
      <g transform="translate(19.44 318.025534)scale(0.14994 -0.14994)">
       <use transform="scale(0.996264)" xlink:href="#CMSY10-0"/>
       <use transform="translate(77.487468 0)scale(0.996264)" xlink:href="#CMR17-48"/>
       <use transform="translate(123.177945 0)scale(0.996264)" xlink:href="#CMMI12-58"/>
       <use transform="translate(150.275122 0)scale(0.996264)" xlink:href="#CMR17-55"/>
       <use transform="translate(195.965599 0)scale(0.996264)" xlink:href="#CMR17-53"/>
      </g>
     </g>
    </g>
    <g id="ytick_3">
     <g id="line2d_15">
      <g>
       <use style="stroke:#000000;stroke-width:0.8;" x="64.061325" xlink:href="#m61db1f7307" y="273.604796"/>
      </g>
     </g>
     <g id="line2d_16">
      <g>
       <use style="stroke:#000000;stroke-width:0.8;" x="525.354354" xlink:href="#m7a0bedc2f4" y="273.604796"/>
      </g>
     </g>
     <g id="text_8">
      <!-- $-0.50$ -->
      <g transform="translate(19.44 278.791591)scale(0.14994 -0.14994)">
       <use transform="scale(0.996264)" xlink:href="#CMSY10-0"/>
       <use transform="translate(77.487468 0)scale(0.996264)" xlink:href="#CMR17-48"/>
       <use transform="translate(123.177945 0)scale(0.996264)" xlink:href="#CMMI12-58"/>
       <use transform="translate(150.275122 0)scale(0.996264)" xlink:href="#CMR17-53"/>
       <use transform="translate(195.965599 0)scale(0.996264)" xlink:href="#CMR17-48"/>
      </g>
     </g>
    </g>
    <g id="ytick_4">
     <g id="line2d_17">
      <g>
       <use style="stroke:#000000;stroke-width:0.8;" x="64.061325" xlink:href="#m61db1f7307" y="234.370853"/>
      </g>
     </g>
     <g id="line2d_18">
      <g>
       <use style="stroke:#000000;stroke-width:0.8;" x="525.354354" xlink:href="#m7a0bedc2f4" y="234.370853"/>
      </g>
     </g>
     <g id="text_9">
      <!-- $-0.25$ -->
      <g transform="translate(19.44 239.557648)scale(0.14994 -0.14994)">
       <use transform="scale(0.996264)" xlink:href="#CMSY10-0"/>
       <use transform="translate(77.487468 0)scale(0.996264)" xlink:href="#CMR17-48"/>
       <use transform="translate(123.177945 0)scale(0.996264)" xlink:href="#CMMI12-58"/>
       <use transform="translate(150.275122 0)scale(0.996264)" xlink:href="#CMR17-50"/>
       <use transform="translate(195.965599 0)scale(0.996264)" xlink:href="#CMR17-53"/>
      </g>
     </g>
    </g>
    <g id="ytick_5">
     <g id="line2d_19">
      <g>
       <use style="stroke:#000000;stroke-width:0.8;" x="64.061325" xlink:href="#m61db1f7307" y="195.13691"/>
      </g>
     </g>
     <g id="line2d_20">
      <g>
       <use style="stroke:#000000;stroke-width:0.8;" x="525.354354" xlink:href="#m7a0bedc2f4" y="195.13691"/>
      </g>
     </g>
     <g id="text_10">
      <!-- $0.00$ -->
      <g transform="translate(31.058464 200.323705)scale(0.14994 -0.14994)">
       <use transform="scale(0.996264)" xlink:href="#CMR17-48"/>
       <use transform="translate(45.690477 0)scale(0.996264)" xlink:href="#CMMI12-58"/>
       <use transform="translate(72.787654 0)scale(0.996264)" xlink:href="#CMR17-48"/>
       <use transform="translate(118.478131 0)scale(0.996264)" xlink:href="#CMR17-48"/>
      </g>
     </g>
    </g>
    <g id="ytick_6">
     <g id="line2d_21">
      <g>
       <use style="stroke:#000000;stroke-width:0.8;" x="64.061325" xlink:href="#m61db1f7307" y="155.902967"/>
      </g>
     </g>
     <g id="line2d_22">
      <g>
       <use style="stroke:#000000;stroke-width:0.8;" x="525.354354" xlink:href="#m7a0bedc2f4" y="155.902967"/>
      </g>
     </g>
     <g id="text_11">
      <!-- $0.25$ -->
      <g transform="translate(31.058464 161.089762)scale(0.14994 -0.14994)">
       <use transform="scale(0.996264)" xlink:href="#CMR17-48"/>
       <use transform="translate(45.690477 0)scale(0.996264)" xlink:href="#CMMI12-58"/>
       <use transform="translate(72.787654 0)scale(0.996264)" xlink:href="#CMR17-50"/>
       <use transform="translate(118.478131 0)scale(0.996264)" xlink:href="#CMR17-53"/>
      </g>
     </g>
    </g>
    <g id="ytick_7">
     <g id="line2d_23">
      <g>
       <use style="stroke:#000000;stroke-width:0.8;" x="64.061325" xlink:href="#m61db1f7307" y="116.669024"/>
      </g>
     </g>
     <g id="line2d_24">
      <g>
       <use style="stroke:#000000;stroke-width:0.8;" x="525.354354" xlink:href="#m7a0bedc2f4" y="116.669024"/>
      </g>
     </g>
     <g id="text_12">
      <!-- $0.50$ -->
      <g transform="translate(31.058464 121.855819)scale(0.14994 -0.14994)">
       <use transform="scale(0.996264)" xlink:href="#CMR17-48"/>
       <use transform="translate(45.690477 0)scale(0.996264)" xlink:href="#CMMI12-58"/>
       <use transform="translate(72.787654 0)scale(0.996264)" xlink:href="#CMR17-53"/>
       <use transform="translate(118.478131 0)scale(0.996264)" xlink:href="#CMR17-48"/>
      </g>
     </g>
    </g>
    <g id="ytick_8">
     <g id="line2d_25">
      <g>
       <use style="stroke:#000000;stroke-width:0.8;" x="64.061325" xlink:href="#m61db1f7307" y="77.435081"/>
      </g>
     </g>
     <g id="line2d_26">
      <g>
       <use style="stroke:#000000;stroke-width:0.8;" x="525.354354" xlink:href="#m7a0bedc2f4" y="77.435081"/>
      </g>
     </g>
     <g id="text_13">
      <!-- $0.75$ -->
      <g transform="translate(31.058464 82.621876)scale(0.14994 -0.14994)">
       <use transform="scale(0.996264)" xlink:href="#CMR17-48"/>
       <use transform="translate(45.690477 0)scale(0.996264)" xlink:href="#CMMI12-58"/>
       <use transform="translate(72.787654 0)scale(0.996264)" xlink:href="#CMR17-55"/>
       <use transform="translate(118.478131 0)scale(0.996264)" xlink:href="#CMR17-53"/>
      </g>
     </g>
    </g>
    <g id="ytick_9">
     <g id="line2d_27">
      <g>
       <use style="stroke:#000000;stroke-width:0.8;" x="64.061325" xlink:href="#m61db1f7307" y="38.201138"/>
      </g>
     </g>
     <g id="line2d_28">
      <g>
       <use style="stroke:#000000;stroke-width:0.8;" x="525.354354" xlink:href="#m7a0bedc2f4" y="38.201138"/>
      </g>
     </g>
     <g id="text_14">
      <!-- $1.00$ -->
      <g transform="translate(31.058464 43.387933)scale(0.14994 -0.14994)">
       <use transform="scale(0.996264)" xlink:href="#CMR17-49"/>
       <use transform="translate(45.690477 0)scale(0.996264)" xlink:href="#CMMI12-58"/>
       <use transform="translate(72.787654 0)scale(0.996264)" xlink:href="#CMR17-48"/>
       <use transform="translate(118.478131 0)scale(0.996264)" xlink:href="#CMR17-48"/>
      </g>
     </g>
    </g>
   </g>
   <g id="line2d_29">
    <path clip-path="url(#pa7fbba7510)" d="M 85.02919 217.283688
L 189.868515 351.679556
L 294.70784 195.13691
L 399.547165 38.594265
L 504.386489 172.990133
" style="fill:none;stroke:#000000;stroke-linecap:square;stroke-width:2;"/>
    <defs>
     <path d="M 0 3
C 0.795609 3 1.55874 2.683901 2.12132 2.12132
C 2.683901 1.55874 3 0.795609 3 0
C 3 -0.795609 2.683901 -1.55874 2.12132 -2.12132
C 1.55874 -2.683901 0.795609 -3 0 -3
C -0.795609 -3 -1.55874 -2.683901 -2.12132 -2.12132
C -2.683901 -1.55874 -3 -0.795609 -3 0
C -3 0.795609 -2.683901 1.55874 -2.12132 2.12132
C -1.55874 2.683901 -0.795609 3 0 3
z
" id="me17f54d88f" style="stroke:#000000;"/>
    </defs>
    <g clip-path="url(#pa7fbba7510)">
     <use style="stroke:#000000;" x="85.02919" xlink:href="#me17f54d88f" y="217.283688"/>
     <use style="stroke:#000000;" x="189.868515" xlink:href="#me17f54d88f" y="351.679556"/>
     <use style="stroke:#000000;" x="294.70784" xlink:href="#me17f54d88f" y="195.13691"/>
     <use style="stroke:#000000;" x="399.547165" xlink:href="#me17f54d88f" y="38.594265"/>
     <use style="stroke:#000000;" x="504.386489" xlink:href="#me17f54d88f" y="172.990133"/>
    </g>
   </g>
   <g id="patch_3">
    <path d="M 64.061325 367.333821
L 64.061325 22.94
" style="fill:none;stroke:#000000;stroke-linecap:square;stroke-linejoin:miter;stroke-width:0.8;"/>
   </g>
   <g id="patch_4">
    <path d="M 525.354354 367.333821
L 525.354354 22.94
" style="fill:none;stroke:#000000;stroke-linecap:square;stroke-linejoin:miter;stroke-width:0.8;"/>
   </g>
   <g id="patch_5">
    <path d="M 64.061325 367.333821
L 525.354354 367.333821
" style="fill:none;stroke:#000000;stroke-linecap:square;stroke-linejoin:miter;stroke-width:0.8;"/>
   </g>
   <g id="patch_6">
    <path d="M 64.061325 22.94
L 525.354354 22.94
" style="fill:none;stroke:#000000;stroke-linecap:square;stroke-linejoin:miter;stroke-width:0.8;"/>
   </g>
  </g>
 </g>
 <defs>
  <clipPath id="pa7fbba7510">
   <rect height="344.393821" width="461.293029" x="64.061325" y="22.94"/>
  </clipPath>
 </defs>
</svg>
