<?xml version="1.0" encoding="utf-8" standalone="no"?>
<!DOCTYPE svg PUBLIC "-//W3C//DTD SVG 1.1//EN"
  "http://www.w3.org/Graphics/SVG/1.1/DTD/svg11.dtd">
<!-- Created with matplotlib (http://matplotlib.org/) -->
<svg height="432pt" version="1.1" viewBox="0 0 576 432" width="576pt" xmlns="http://www.w3.org/2000/svg" xmlns:xlink="http://www.w3.org/1999/xlink">
 <defs>
  <style type="text/css">
*{stroke-linecap:butt;stroke-linejoin:round;stroke-miterlimit:100000;}
  </style>
 </defs>
 <g id="figure_1">
  <g id="patch_1">
   <path d="M 0 432 
L 576 432 
L 576 0 
L 0 0 
z
" style="fill:none;"/>
  </g>
  <g id="axes_1">
   <g id="patch_2">
    <path d="M 72 388.8 
L 518.4 388.8 
L 518.4 43.2 
L 72 43.2 
z
" style="fill:none;"/>
   </g>
   <g id="line2d_1">
    <path clip-path="url(#p33c4155f41)" d="M 72 216 
L 86.544361 180.87176 
L 94.37594 162.472482 
L 101.088722 147.210554 
L 106.682707 134.955413 
L 112.276692 123.202445 
L 117.870677 112.024475 
L 122.345865 103.542772 
L 126.821053 95.507113 
L 131.296241 87.94937 
L 135.771429 80.89952 
L 139.12782 75.962337 
L 142.484211 71.337633 
L 145.840602 67.035727 
L 149.196992 63.066218 
L 152.553383 59.437965 
L 155.909774 56.159063 
L 159.266165 53.236828 
L 162.622556 50.677782 
L 165.978947 48.487634 
L 169.335338 46.671272 
L 171.572932 45.670058 
L 173.810526 44.837784 
L 176.04812 44.175273 
L 178.285714 43.683184 
L 180.523308 43.362004 
L 182.760902 43.212052 
L 184.998496 43.233476 
L 187.23609 43.426256 
L 189.473684 43.7902 
L 191.711278 44.324947 
L 193.948872 45.029966 
L 196.186466 45.90456 
L 198.42406 46.947859 
L 201.780451 48.826823 
L 205.136842 51.078816 
L 208.493233 53.698812 
L 211.849624 56.680966 
L 215.206015 60.018622 
L 218.562406 63.704335 
L 221.918797 67.729878 
L 225.275188 72.08627 
L 228.631579 76.76379 
L 231.98797 81.752 
L 236.463158 88.866908 
L 240.938346 96.48607 
L 245.413534 104.579265 
L 249.888722 113.114393 
L 255.482707 124.353042 
L 261.076692 136.159559 
L 266.670677 148.460788 
L 273.383459 163.767775 
L 281.215038 182.204995 
L 292.403008 209.19891 
L 310.303759 252.459296 
L 318.135338 270.819492 
L 324.84812 286.035416 
L 330.442105 298.24371 
L 336.03609 309.942399 
L 341.630075 321.058997 
L 346.105263 329.48675 
L 350.580451 337.464375 
L 355.055639 344.96023 
L 359.530827 351.944585 
L 362.887218 356.830435 
L 366.243609 361.402037 
L 369.6 365.64919 
L 372.956391 369.562417 
L 376.312782 373.132987 
L 379.669173 376.352931 
L 383.025564 379.215065 
L 386.381955 381.713003 
L 389.738346 383.84117 
L 393.094737 385.594818 
L 395.332331 386.553883 
L 397.569925 387.343788 
L 399.807519 387.963748 
L 402.045113 388.413149 
L 404.282707 388.691546 
L 406.520301 388.798661 
L 408.757895 388.734389 
L 410.995489 388.498794 
L 413.233083 388.092109 
L 415.470677 387.514737 
L 417.708271 386.767252 
L 419.945865 385.850394 
L 422.183459 384.765073 
L 425.53985 382.823624 
L 428.896241 380.509926 
L 432.252632 377.829142 
L 435.609023 374.787255 
L 438.965414 371.39105 
L 442.321805 367.648108 
L 445.678195 363.566779 
L 449.034586 359.156171 
L 452.390977 354.426125 
L 455.747368 349.387197 
L 460.222556 342.207672 
L 464.697744 334.527564 
L 469.172932 326.377334 
L 473.64812 317.78931 
L 479.242105 306.49068 
L 484.83609 294.631345 
L 490.430075 282.28479 
L 497.142857 266.933694 
L 504.974436 248.459676 
L 516.162406 221.441378 
L 518.4 216 
L 518.4 216 
" style="fill:none;stroke:#000000;stroke-linecap:square;stroke-width:2.0;"/>
   </g>
   <g id="line2d_2">
    <path clip-path="url(#p33c4155f41)" d="M 72 338.188052 
L 76.475188 330.254277 
L 80.950376 321.867331 
L 85.425564 313.060479 
L 91.019549 301.514783 
L 96.613534 289.439215 
L 103.326316 274.354658 
L 111.157895 256.1078 
L 121.227068 231.963895 
L 145.840602 172.591651 
L 153.67218 154.455251 
L 160.384962 139.496257 
L 165.978947 127.546264 
L 171.572932 116.144352 
L 176.04812 107.465043 
L 180.523308 99.216222 
L 184.998496 91.430605 
L 189.473684 84.139073 
L 193.948872 77.370547 
L 197.305263 72.653605 
L 200.661654 68.256526 
L 204.018045 64.18912 
L 207.374436 60.460463 
L 210.730827 57.078876 
L 214.087218 54.051904 
L 217.443609 51.386302 
L 220.8 49.088017 
L 224.156391 47.162178 
L 226.393985 46.087357 
L 228.631579 45.18106 
L 230.869173 44.444187 
L 233.106767 43.877468 
L 235.344361 43.481466 
L 237.581955 43.256573 
L 239.819549 43.203013 
L 242.057143 43.320838 
L 244.294737 43.609932 
L 246.532331 44.070008 
L 248.769925 44.70061 
L 251.007519 45.501111 
L 253.245113 46.470719 
L 255.482707 47.608472 
L 258.839098 49.627858 
L 262.195489 52.018485 
L 265.55188 54.775019 
L 268.908271 57.891309 
L 272.264662 61.360402 
L 275.621053 65.174555 
L 278.977444 69.32526 
L 282.333835 73.803253 
L 285.690226 78.598543 
L 289.046617 83.700428 
L 293.521805 90.960099 
L 297.996992 98.71572 
L 302.47218 106.936532 
L 306.947368 115.589926 
L 312.541353 126.962549 
L 318.135338 138.886871 
L 324.84812 153.820055 
L 331.560902 169.30792 
L 340.511278 190.581889 
L 357.293233 231.286398 
L 368.481203 258.090076 
L 376.312782 276.271505 
L 383.025564 291.281422 
L 388.619549 303.282204 
L 394.213534 314.742163 
L 398.688722 323.472895 
L 403.16391 331.777353 
L 407.639098 339.622598 
L 412.114286 346.977514 
L 416.589474 353.812927 
L 419.945865 358.582175 
L 423.302256 363.033265 
L 426.658647 367.156267 
L 430.015038 370.941981 
L 433.371429 374.381958 
L 436.72782 377.468523 
L 440.084211 380.194788 
L 443.440602 382.554671 
L 446.796992 384.542906 
L 449.034586 385.659698 
L 451.27218 386.608217 
L 453.509774 387.387521 
L 455.747368 387.996838 
L 457.984962 388.435563 
L 460.222556 388.70326 
L 462.46015 388.799665 
L 464.697744 388.724682 
L 466.935338 388.478385 
L 469.172932 388.061018 
L 471.410526 387.472996 
L 473.64812 386.714902 
L 475.885714 385.787487 
L 478.123308 384.691671 
L 481.479699 382.734619 
L 484.83609 380.405517 
L 488.192481 377.709562 
L 491.548872 374.65277 
L 494.905263 371.241962 
L 498.261654 367.484748 
L 501.618045 363.389512 
L 504.974436 358.965392 
L 508.330827 354.222261 
L 511.687218 349.170702 
L 516.162406 341.975092 
L 518.4 338.188052 
L 518.4 338.188052 
" style="fill:none;stroke:#ff0000;stroke-linecap:square;stroke-width:2.0;"/>
   </g>
   <g id="patch_3">
    <path d="M 72 388.8 
L 72 43.2 
" style="fill:none;stroke:#000000;stroke-linecap:square;stroke-linejoin:miter;"/>
   </g>
   <g id="patch_4">
    <path d="M 518.4 388.8 
L 518.4 43.2 
" style="fill:none;stroke:#000000;stroke-linecap:square;stroke-linejoin:miter;"/>
   </g>
   <g id="patch_5">
    <path d="M 72 388.8 
L 518.4 388.8 
" style="fill:none;stroke:#000000;stroke-linecap:square;stroke-linejoin:miter;"/>
   </g>
   <g id="patch_6">
    <path d="M 72 43.2 
L 518.4 43.2 
" style="fill:none;stroke:#000000;stroke-linecap:square;stroke-linejoin:miter;"/>
   </g>
   <g id="matplotlib.axis_1">
    <g id="xtick_1">
     <g id="line2d_3">
      <defs>
       <path d="M 0 0 
L 0 -4 
" id="mb2480df30d" style="stroke:#000000;stroke-width:0.5;"/>
      </defs>
      <g>
       <use style="stroke:#000000;stroke-width:0.5;" x="72.0" xlink:href="#mb2480df30d" y="388.8"/>
      </g>
     </g>
     <g id="line2d_4">
      <defs>
       <path d="M 0 0 
L 0 4 
" id="ma32b475633" style="stroke:#000000;stroke-width:0.5;"/>
      </defs>
      <g>
       <use style="stroke:#000000;stroke-width:0.5;" x="72.0" xlink:href="#ma32b475633" y="43.2"/>
      </g>
     </g>
     <g id="text_1">
      <!-- 0 -->
      <defs>
       <path d="M 42 31.640625 
C 42 37.75 41.90625 48.125 37.703125 56.109375 
C 34 63.109375 28.09375 65.59375 22.90625 65.59375 
C 18.09375 65.59375 12 63.40625 8.203125 56.203125 
C 4.203125 48.71875 3.796875 39.4375 3.796875 31.640625 
C 3.796875 25.953125 3.90625 17.28125 7 9.671875 
C 11.296875 -0.609375 19 -2 22.90625 -2 
C 27.5 -2 34.5 -0.109375 38.59375 9.375 
C 41.59375 16.28125 42 24.359375 42 31.640625 
M 22.90625 -0.40625 
C 16.5 -0.40625 12.703125 5.078125 11.296875 12.6875 
C 10.203125 18.5625 10.203125 27.15625 10.203125 32.75 
C 10.203125 40.4375 10.203125 46.828125 11.5 52.921875 
C 13.40625 61.390625 19 64 22.90625 64 
C 27 64 32.296875 61.296875 34.203125 53.125 
C 35.5 47.4375 35.59375 40.734375 35.59375 32.75 
C 35.59375 26.25 35.59375 18.265625 34.40625 12.375 
C 32.296875 1.484375 26.40625 -0.40625 22.90625 -0.40625 
" id="CMR17-48"/>
      </defs>
      <g transform="translate(67.8878570595 405.253300125)scale(0.18 -0.18)">
       <use transform="scale(0.9962640099626402)" xlink:href="#CMR17-48"/>
      </g>
     </g>
    </g>
    <g id="xtick_2">
     <g id="line2d_5">
      <g>
       <use style="stroke:#000000;stroke-width:0.5;" x="295.2" xlink:href="#mb2480df30d" y="388.8"/>
      </g>
     </g>
     <g id="line2d_6">
      <g>
       <use style="stroke:#000000;stroke-width:0.5;" x="295.2" xlink:href="#ma32b475633" y="43.2"/>
      </g>
     </g>
     <g id="text_2">
      <!-- $\pi$ -->
      <defs>
       <path d="M 25.90625 37.625 
L 37.203125 37.625 
C 34.5 26.4375 32.796875 19.15625 32.796875 11.1875 
C 32.796875 9.78125 32.796875 -1 36.90625 -1 
C 39 -1 40.796875 0.890625 40.796875 2.59375 
C 40.796875 3.078125 40.796875 3.28125 40.09375 4.78125 
C 37.40625 11.671875 37.40625 20.25 37.40625 20.953125 
C 37.40625 21.546875 37.40625 28.625 39.5 37.625 
L 50.703125 37.625 
C 52 37.625 55.296875 37.625 55.296875 40.8125 
C 55.296875 43 53.40625 43 51.59375 43 
L 18.703125 43 
C 16.40625 43 13 43 8.40625 38.125 
C 5.796875 35.21875 2.59375 29.9375 2.59375 29.34375 
C 2.59375 28.75 3.09375 28.546875 3.703125 28.546875 
C 4.40625 28.546875 4.5 28.84375 5 29.4375 
C 10.203125 37.625 15.40625 37.625 17.90625 37.625 
L 23.59375 37.625 
C 21.40625 30.140625 18.90625 21.453125 10.703125 4 
C 9.90625 2.40625 9.90625 2.1875 9.90625 1.59375 
C 9.90625 -0.5 11.703125 -1 12.59375 -1 
C 15.5 -1 16.296875 1.59375 17.5 5.78125 
C 19.09375 10.875 19.09375 11.078125 20.09375 15.0625 
z
" id="CMMI12-25"/>
      </defs>
      <g transform="translate(290.219759277 405.253300125)scale(0.18 -0.18)">
       <use transform="scale(0.9962640099626402)" xlink:href="#CMMI12-25"/>
      </g>
     </g>
    </g>
    <g id="xtick_3">
     <g id="line2d_7">
      <g>
       <use style="stroke:#000000;stroke-width:0.5;" x="518.4" xlink:href="#mb2480df30d" y="388.8"/>
      </g>
     </g>
     <g id="line2d_8">
      <g>
       <use style="stroke:#000000;stroke-width:0.5;" x="518.4" xlink:href="#ma32b475633" y="43.2"/>
      </g>
     </g>
     <g id="text_3">
      <!-- $2\pi$ -->
      <defs>
       <path d="M 41.703125 15.453125 
L 39.90625 15.453125 
C 38.90625 8.375 38.09375 7.171875 37.703125 6.5625 
C 37.203125 5.765625 30 5.765625 28.59375 5.765625 
L 9.40625 5.765625 
C 13 9.671875 20 16.75 28.5 24.953125 
C 34.59375 30.734375 41.703125 37.53125 41.703125 47.421875 
C 41.703125 59.21875 32.296875 66 21.796875 66 
C 10.796875 66 4.09375 56.3125 4.09375 47.34375 
C 4.09375 43.4375 7 42.9375 8.203125 42.9375 
C 9.203125 42.9375 12.203125 43.546875 12.203125 47.03125 
C 12.203125 50.109375 9.59375 51 8.203125 51 
C 7.59375 51 7 50.90625 6.59375 50.703125 
C 8.5 59.21875 14.296875 63.40625 20.40625 63.40625 
C 29.09375 63.40625 34.796875 56.515625 34.796875 47.421875 
C 34.796875 38.734375 29.703125 31.25 24 24.75 
L 4.09375 2.28125 
L 4.09375 0 
L 39.296875 0 
z
" id="CMR17-50"/>
      </defs>
      <g transform="translate(509.307616336 405.253300125)scale(0.18 -0.18)">
       <use transform="scale(0.9962640099626402)" xlink:href="#CMR17-50"/>
       <use transform="translate(45.69047711706103 0.0)scale(0.9962640099626402)" xlink:href="#CMMI12-25"/>
      </g>
     </g>
    </g>
    <g id="text_4">
     <!-- $x$ -->
     <defs>
      <path d="M 47.40625 40.71875 
C 44.203125 40.109375 43 37.71875 43 35.828125 
C 43 33.421875 44.90625 32.625 46.296875 32.625 
C 49.296875 32.625 51.40625 35.21875 51.40625 37.921875 
C 51.40625 42.109375 46.59375 44 42.40625 44 
C 36.296875 44 32.90625 38.015625 32 36.125 
C 29.703125 44 23.5 44 21.703125 44 
C 11.5 44 6.09375 30.9375 6.09375 28.734375 
C 6.09375 28.34375 6.5 27.84375 7.203125 27.84375 
C 8 27.84375 8.203125 28.4375 8.40625 28.84375 
C 11.796875 39.921875 18.5 42.015625 21.40625 42.015625 
C 25.90625 42.015625 26.796875 37.8125 26.796875 35.421875 
C 26.796875 33.234375 26.203125 30.9375 25 26.140625 
L 21.59375 12.46875 
C 20.09375 6.484375 17.203125 1 11.90625 1 
C 11.40625 1 8.90625 1 6.796875 2.296875 
C 10.40625 3 11.203125 5.984375 11.203125 7.1875 
C 11.203125 9.1875 9.703125 10.375 7.796875 10.375 
C 5.40625 10.375 2.796875 8.28125 2.796875 5.09375 
C 2.796875 0.890625 7.5 -1 11.796875 -1 
C 16.59375 -1 20 2.796875 22.09375 6.890625 
C 23.703125 1 28.703125 -1 32.40625 -1 
C 42.59375 -1 48 12.078125 48 14.265625 
C 48 14.765625 47.59375 15.171875 47 15.171875 
C 46.09375 15.171875 46 14.671875 45.703125 13.875 
C 43 5.09375 37.203125 1 32.703125 1 
C 29.203125 1 27.296875 3.59375 27.296875 7.6875 
C 27.296875 9.875 27.703125 11.46875 29.296875 18.0625 
L 32.796875 31.625 
C 34.296875 37.625 37.703125 42.015625 42.296875 42.015625 
C 42.5 42.015625 45.296875 42.015625 47.40625 40.71875 
" id="CMMI12-120"/>
     </defs>
     <g transform="translate(289.21312005 428.685324443)scale(0.21599999999999997 -0.21599999999999997)">
      <use transform="scale(0.9962640099626402)" xlink:href="#CMMI12-120"/>
     </g>
    </g>
   </g>
   <g id="matplotlib.axis_2">
    <g id="ytick_1">
     <g id="line2d_9">
      <defs>
       <path d="M 0 0 
L 4 0 
" id="mc524ca2d5f" style="stroke:#000000;stroke-width:0.5;"/>
      </defs>
      <g>
       <use style="stroke:#000000;stroke-width:0.5;" x="72.0" xlink:href="#mc524ca2d5f" y="388.8"/>
      </g>
     </g>
     <g id="line2d_10">
      <defs>
       <path d="M 0 0 
L -4 0 
" id="mbe6b5c9bd6" style="stroke:#000000;stroke-width:0.5;"/>
      </defs>
      <g>
       <use style="stroke:#000000;stroke-width:0.5;" x="518.4" xlink:href="#mbe6b5c9bd6" y="388.8"/>
      </g>
     </g>
     <g id="text_5">
      <!-- $-1$ -->
      <defs>
       <path d="M 65.90625 23 
C 67.59375 23 69.40625 23 69.40625 25 
C 69.40625 27 67.59375 27 65.90625 27 
L 11.796875 27 
C 10.09375 27 8.296875 27 8.296875 25 
C 8.296875 23 10.09375 23 11.796875 23 
z
" id="CMSY10-0"/>
       <path d="M 26.59375 63.40625 
C 26.59375 65.5 26.5 65.5 25.09375 65.5 
C 21.203125 61.1875 15.296875 59.796875 9.703125 59.796875 
C 9.40625 59.796875 8.90625 59.796875 8.796875 59.5 
C 8.703125 59.296875 8.703125 59.09375 8.703125 57 
C 11.796875 57 17 57.59375 21 59.984375 
L 21 7.203125 
C 21 3.6875 20.796875 2.5 12.203125 2.5 
L 9.203125 2.5 
L 9.203125 0 
C 14 0 19 0 23.796875 0 
C 28.59375 0 33.59375 0 38.40625 0 
L 38.40625 2.5 
L 35.40625 2.5 
C 26.796875 2.5 26.59375 3.59375 26.59375 7.15625 
z
" id="CMR17-49"/>
      </defs>
      <g transform="translate(45.8279723741 393.282617978)scale(0.18 -0.18)">
       <use transform="scale(0.9962640099626402)" xlink:href="#CMSY10-0"/>
       <use transform="translate(77.4874676506071 0.0)scale(0.9962640099626402)" xlink:href="#CMR17-49"/>
      </g>
     </g>
    </g>
    <g id="ytick_2">
     <g id="line2d_11">
      <g>
       <use style="stroke:#000000;stroke-width:0.5;" x="72.0" xlink:href="#mc524ca2d5f" y="216.0"/>
      </g>
     </g>
     <g id="line2d_12">
      <g>
       <use style="stroke:#000000;stroke-width:0.5;" x="518.4" xlink:href="#mbe6b5c9bd6" y="216.0"/>
      </g>
     </g>
     <g id="text_6">
      <!-- $0$ -->
      <g transform="translate(59.7757141189 220.482617978)scale(0.18 -0.18)">
       <use transform="scale(0.9962640099626402)" xlink:href="#CMR17-48"/>
      </g>
     </g>
    </g>
    <g id="ytick_3">
     <g id="line2d_13">
      <g>
       <use style="stroke:#000000;stroke-width:0.5;" x="72.0" xlink:href="#mc524ca2d5f" y="43.2"/>
      </g>
     </g>
     <g id="line2d_14">
      <g>
       <use style="stroke:#000000;stroke-width:0.5;" x="518.4" xlink:href="#mbe6b5c9bd6" y="43.2"/>
      </g>
     </g>
     <g id="text_7">
      <!-- $1$ -->
      <g transform="translate(59.7757141189 47.682617978)scale(0.18 -0.18)">
       <use transform="scale(0.9962640099626402)" xlink:href="#CMR17-49"/>
      </g>
     </g>
    </g>
    <g id="text_8">
     <!-- $y$ -->
     <defs>
      <path d="M 26.296875 -10.9375 
C 23.59375 -14.671875 19.703125 -18 14.796875 -18 
C 13.59375 -18 8.796875 -18 7.296875 -13.890625 
C 7.59375 -13.984375 8.09375 -13.984375 8.296875 -13.984375 
C 11.296875 -13.984375 13.296875 -11.390625 13.296875 -9.09375 
C 13.296875 -6.796875 11.40625 -6 9.90625 -6 
C 8.296875 -6 4.796875 -7.15625 4.796875 -11.859375 
C 4.796875 -16.734375 9.09375 -20.09375 14.796875 -20.09375 
C 24.796875 -20.09375 34.90625 -10.9375 37.703125 0.09375 
L 47.5 38.828125 
C 47.59375 39.328125 47.796875 39.9375 47.796875 40.53125 
C 47.796875 42.015625 46.59375 43.015625 45.09375 43.015625 
C 44.203125 43.015625 42.09375 42.609375 41.296875 39.609375 
L 33.90625 10.28125 
C 33.40625 8.484375 33.40625 8.28125 32.59375 7.1875 
C 30.59375 4.390625 27.296875 1 22.5 1 
C 16.90625 1 16.40625 6.484375 16.40625 9.1875 
C 16.40625 14.875 19.09375 22.546875 21.796875 29.734375 
C 22.90625 32.625 23.5 34.03125 23.5 36.015625 
C 23.5 40.21875 20.5 44 15.59375 44 
C 6.40625 44 2.703125 29.53125 2.703125 28.734375 
C 2.703125 28.34375 3.09375 27.84375 3.796875 27.84375 
C 4.703125 27.84375 4.796875 28.234375 5.203125 29.640625 
C 7.59375 38.015625 11.40625 42.015625 15.296875 42.015625 
C 16.203125 42.015625 17.90625 42.015625 17.90625 38.71875 
C 17.90625 36.125 16.796875 33.234375 15.296875 29.4375 
C 10.40625 16.359375 10.40625 13.078125 10.40625 10.671875 
C 10.40625 1.203125 17.203125 -1 22.203125 -1 
C 25.09375 -1 28.703125 -0.09375 32.203125 3.59375 
L 32.296875 3.5 
C 30.796875 -2.296875 29.796875 -6.125 26.296875 -10.9375 
" id="CMMI12-121"/>
     </defs>
     <g transform="translate(36.6422832104 221.136933095)rotate(-90.0)scale(0.21599999999999997 -0.21599999999999997)">
      <use transform="scale(0.9962640099626402)" xlink:href="#CMMI12-121"/>
     </g>
    </g>
   </g>
   <g id="text_9">
    <!-- Simple plot -->
    <defs>
     <path d="M 43.796875 67.03125 
C 43.796875 68.8125 43.703125 68.921875 43.09375 68.921875 
C 42.5 68.921875 42.296875 68.515625 41.90625 67.625 
L 38.90625 61.046875 
C 35.09375 66.515625 29.296875 69 23 69 
C 12.796875 69 4.59375 60.953125 4.59375 50.828125 
C 4.59375 47.75 5.296875 43.375 8.703125 39.21875 
C 12.40625 34.65625 15.90625 33.859375 23.90625 31.765625 
C 26.90625 30.96875 31.90625 29.671875 32.90625 29.28125 
C 38.59375 26.90625 41.59375 20.953125 41.59375 15.390625 
C 41.59375 8.234375 36.5 0.59375 27.796875 0.59375 
C 17.09375 0.59375 7.09375 6.546875 6.40625 20.484375 
C 6.296875 22.078125 6.203125 22.171875 5.5 22.171875 
C 4.703125 22.171875 4.59375 22.078125 4.59375 20.078125 
L 4.59375 -0.015625 
C 4.59375 -1.796875 4.703125 -1.90625 5.296875 -1.90625 
C 6 -1.90625 6.203125 -1.40625 7.59375 1.6875 
C 7.703125 1.984375 7.703125 2.1875 9.59375 5.953125 
C 14.59375 -0.609375 23 -2 27.796875 -2 
C 38.703125 -2 46.40625 7.046875 46.40625 17.5625 
C 46.40625 22.71875 44.5 26.6875 43.40625 28.484375 
C 39.203125 34.84375 34.703125 36.03125 29.90625 37.21875 
C 29.203125 37.53125 29 37.53125 23.40625 38.90625 
C 18 40.296875 15.703125 41 13.203125 43.6875 
C 10.40625 46.75 9.40625 49.9375 9.40625 53.109375 
C 9.40625 59.5625 14.59375 66.609375 23.09375 66.609375 
C 33.703125 66.609375 40.296875 59.15625 41.796875 46.765625 
C 42.09375 44.96875 42.203125 44.875 42.90625 44.875 
C 43.796875 44.875 43.796875 45.171875 43.796875 46.859375 
z
" id="CMR17-83"/>
     <path d="M 15.5 61.078125 
C 15.5 63.265625 13.703125 65.15625 11.40625 65.15625 
C 9.203125 65.15625 7.296875 63.375 7.296875 61.078125 
C 7.296875 58.890625 9.09375 57 11.40625 57 
C 13.59375 57 15.5 58.796875 15.5 61.078125 
M 3.796875 42.28125 
L 3.796875 39.703125 
C 9.40625 39.703125 10.203125 39.09375 10.203125 34.328125 
L 10.203125 6.671875 
C 10.203125 2.875 9.796875 2.390625 3.40625 2.390625 
L 3.40625 -0.203125 
C 5.796875 0 10.09375 0 12.59375 0 
C 15 0 19.09375 0 21.40625 -0.203125 
L 21.40625 2.390625 
C 15.5 2.390625 15.296875 2.984375 15.296875 6.5625 
L 15.296875 43.375 
z
" id="CMR17-105"/>
     <path d="M 67.59375 30.203125 
C 67.59375 35.1875 66.703125 43.59375 54.796875 43.59375 
C 48 43.59375 43.296875 39 41.5 33.609375 
L 41.40625 33.609375 
C 40.203125 41.8125 34.296875 43.59375 28.703125 43.59375 
C 20.796875 43.59375 16.703125 37.5 15.203125 33.5 
L 15.09375 33.5 
L 15.09375 43.59375 
L 3.296875 42.5 
L 3.296875 39.90625 
C 9.203125 39.90625 10.09375 39.296875 10.09375 34.5 
L 10.09375 6.6875 
C 10.09375 2.875 9.703125 2.390625 3.296875 2.390625 
L 3.296875 -0.203125 
C 5.703125 0 10.09375 0 12.703125 0 
C 15.296875 0 19.796875 0 22.203125 -0.203125 
L 22.203125 2.390625 
C 15.796875 2.390625 15.40625 2.78125 15.40625 6.6875 
L 15.40625 25.90625 
C 15.40625 35.109375 21 42 28 42 
C 35.40625 42 36.203125 35.40625 36.203125 30.59375 
L 36.203125 6.6875 
C 36.203125 2.875 35.796875 2.390625 29.40625 2.390625 
L 29.40625 -0.203125 
C 31.796875 0 36.203125 0 38.796875 0 
C 41.40625 0 45.90625 0 48.296875 -0.203125 
L 48.296875 2.390625 
C 41.90625 2.390625 41.5 2.78125 41.5 6.6875 
L 41.5 25.90625 
C 41.5 35.109375 47.09375 42 54.09375 42 
C 61.5 42 62.296875 35.40625 62.296875 30.59375 
L 62.296875 6.6875 
C 62.296875 2.875 61.90625 2.390625 55.5 2.390625 
L 55.5 -0.203125 
C 57.90625 0 62.296875 0 64.90625 0 
C 67.5 0 72 0 74.40625 -0.203125 
L 74.40625 2.390625 
C 68 2.390625 67.59375 2.78125 67.59375 6.6875 
z
" id="CMR17-109"/>
     <path d="M 22 -16.609375 
C 15.59375 -16.609375 15.203125 -16.203125 15.203125 -12.328125 
L 15.203125 6.28125 
C 18.09375 2.09375 22.296875 -0.59375 27.59375 -0.59375 
C 37.59375 -0.59375 47.703125 8.171875 47.703125 21.6875 
C 47.703125 34.234375 39 43.78125 28.703125 43.78125 
C 22.703125 43.78125 17.796875 40.5 15 36.53125 
L 15 43.78125 
L 3.09375 42.6875 
L 3.09375 40.109375 
C 9 40.109375 9.90625 39.5 9.90625 34.734375 
L 9.90625 -12.328125 
C 9.90625 -16.109375 9.5 -16.609375 3.09375 -16.609375 
L 3.09375 -19.1875 
C 5.5 -19 9.90625 -19 12.5 -19 
C 15.09375 -19 19.59375 -19 22 -19.1875 
z
M 15.203125 31.4375 
C 15.203125 32.84375 15.203125 34.921875 19.09375 38.609375 
C 19.59375 39.015625 23 42 28 42 
C 35.296875 42 41.296875 32.9375 41.296875 21.59375 
C 41.296875 10.25 34.90625 1 27 1 
C 23.40625 1 19.5 2.6875 16.5 7.375 
C 15.203125 9.5625 15.203125 10.15625 15.203125 11.75 
z
" id="CMR17-112"/>
     <path d="M 15.296875 68.6875 
L 3.40625 67.59375 
L 3.40625 65 
C 9.296875 65 10.203125 64.40625 10.203125 59.640625 
L 10.203125 6.65625 
C 10.203125 2.875 9.796875 2.390625 3.40625 2.390625 
L 3.40625 -0.203125 
C 5.796875 0 10.203125 0 12.703125 0 
C 15.296875 0 19.703125 0 22.09375 -0.203125 
L 22.09375 2.390625 
C 15.703125 2.390625 15.296875 2.78125 15.296875 6.65625 
z
" id="CMR17-108"/>
     <path d="M 38.09375 23 
C 38.5 23.40625 38.5 23.609375 38.5 24.625 
C 38.5 34.96875 33.09375 44 21.703125 44 
C 11.09375 44 2.703125 33.890625 2.703125 21.609375 
C 2.703125 8.609375 12.203125 -1 22.796875 -1 
C 34 -1 38.40625 9.484375 38.40625 11.5625 
C 38.40625 12.25 37.796875 12.25 37.59375 12.25 
C 36.90625 12.25 36.796875 12.046875 36.40625 10.875 
C 34.203125 4.140625 28.703125 0.796875 23.5 0.796875 
C 19.203125 0.796875 14.90625 3.171875 12.203125 7.5 
C 9.09375 12.546875 9.09375 18.375 9.09375 23 
z
M 9.203125 24.5 
C 9.90625 39.140625 17.59375 42.40625 21.59375 42.40625 
C 28.40625 42.40625 33 35.890625 33.09375 24.5 
z
" id="CMR17-101"/>
     <path d="M 43.09375 21.1875 
C 43.09375 34 33.796875 44 22.90625 44 
C 12 44 2.703125 34 2.703125 21.1875 
C 2.703125 8.609375 12 -1 22.90625 -1 
C 33.796875 -1 43.09375 8.609375 43.09375 21.1875 
M 22.90625 0.796875 
C 18.203125 0.796875 14.203125 3.59375 11.90625 7.5 
C 9.40625 11.984375 9.09375 17.59375 9.09375 22 
C 9.09375 26.203125 9.296875 31.40625 11.90625 35.90625 
C 13.90625 39.203125 17.796875 42.40625 22.90625 42.40625 
C 27.40625 42.40625 31.203125 39.90625 33.59375 36.40625 
C 36.703125 31.703125 36.703125 25.109375 36.703125 22 
C 36.703125 18.09375 36.5 12.109375 33.796875 7.296875 
C 31 2.703125 26.703125 0.796875 22.90625 0.796875 
" id="CMR17-111"/>
     <path d="M 15.09375 40 
L 29.09375 40 
L 29.09375 42.578125 
L 15.09375 42.578125 
L 15.09375 61 
L 13.296875 61 
C 13.09375 50.703125 9.59375 41.6875 1.09375 41.6875 
L 1.09375 40 
L 9.796875 40 
L 9.796875 12.046875 
C 9.796875 10.15625 9.796875 -1 21.40625 -1 
C 27.296875 -1 30.703125 4.78125 30.703125 12.140625 
L 30.703125 17.8125 
L 28.90625 17.8125 
L 28.90625 12.234375 
C 28.90625 5.375 26.203125 0.796875 22 0.796875 
C 19.09375 0.796875 15.09375 2.78125 15.09375 11.84375 
z
" id="CMR17-116"/>
    </defs>
    <g transform="translate(245.978832917 38.2)scale(0.21599999999999997 -0.21599999999999997)">
     <use transform="scale(0.9962640099626402)" xlink:href="#CMR17-83"/>
     <use transform="translate(50.89536978031601 0.0)scale(0.9962640099626402)" xlink:href="#CMR17-105"/>
     <use transform="translate(75.7664282621809 0.0)scale(0.9962640099626402)" xlink:href="#CMR17-109"/>
     <use transform="translate(152.68601813025376 0.0)scale(0.9962640099626402)" xlink:href="#CMR17-112"/>
     <use transform="translate(203.58138791056976 0.0)scale(0.9962640099626402)" xlink:href="#CMR17-108"/>
     <use transform="translate(228.45244639243464 0.0)scale(0.9962640099626402)" xlink:href="#CMR17-101"/>
     <use transform="translate(299.0140732020548 0.0)scale(0.9962640099626402)" xlink:href="#CMR17-112"/>
     <use transform="translate(349.9094429823708 0.0)scale(0.9962640099626402)" xlink:href="#CMR17-108"/>
     <use transform="translate(374.7805014642357 0.0)scale(0.9962640099626402)" xlink:href="#CMR17-111"/>
     <use transform="translate(420.4709785812967 0.0)scale(0.9962640099626402)" xlink:href="#CMR17-116"/>
    </g>
   </g>
   <g id="legend_1">
    <g id="patch_7">
     <path d="M 377.78089 118.639013 
L 505.8 118.639013 
Q 509.4 118.639013 509.4 115.039013 
L 509.4 55.8 
Q 509.4 52.2 505.8 52.2 
L 377.78089 52.2 
Q 374.18089 52.2 374.18089 55.8 
L 374.18089 115.039013 
Q 374.18089 118.639013 377.78089 118.639013 
z
" style="fill:none;stroke:#000000;stroke-linejoin:miter;"/>
    </g>
    <g id="line2d_15">
     <path d="M 386.78089 68.342934 
L 411.98089 68.342934 
" style="fill:none;stroke:#000000;stroke-linecap:square;stroke-width:2.0;"/>
    </g>
    <g id="line2d_16"/>
    <g id="text_10">
     <!-- $\sin \big( x \big)$ -->
     <defs>
      <path d="M 30.90625 42.140625 
C 30.90625 43.953125 30.796875 44.046875 30.203125 44.046875 
C 29.796875 44.046875 29.703125 43.953125 28.5 42.453125 
C 28.203125 42.046875 27.296875 41.03125 27 40.640625 
C 23.796875 44.046875 19.296875 44.046875 17.59375 44.046875 
C 6.5 44.046875 2.5 38.234375 2.5 32.4375 
C 2.5 23.40625 12.703125 21.328125 15.59375 20.703125 
C 21.90625 19.421875 24.09375 19.015625 26.203125 17.203125 
C 27.5 16.015625 29.703125 13.8125 29.703125 10.21875 
C 29.703125 6 27.296875 0.59375 18.09375 0.59375 
C 9.40625 0.59375 6.296875 7.1875 4.5 15.953125 
C 4.203125 17.34375 4.203125 17.453125 3.40625 17.453125 
C 2.59375 17.453125 2.5 17.34375 2.5 15.359375 
L 2.5 0.984375 
C 2.5 -0.796875 2.59375 -0.90625 3.203125 -0.90625 
C 3.703125 -0.90625 3.796875 -0.796875 4.296875 0 
C 4.90625 0.890625 6.40625 3.296875 7 4.3125 
C 9 1.609375 12.5 -1 18.09375 -1 
C 28 -1 33.296875 4.421875 33.296875 12.25 
C 33.296875 17.375 30.59375 20.078125 29.296875 21.28125 
C 26.296875 24.390625 22.796875 25.09375 18.59375 25.890625 
C 13.09375 27.109375 6.09375 28.515625 6.09375 34.640625 
C 6.09375 37.234375 7.5 42.765625 17.59375 42.765625 
C 28.296875 42.765625 28.90625 32.71875 29.09375 29.5 
C 29.203125 29 29.703125 28.890625 30 28.890625 
C 30.90625 28.890625 30.90625 29.203125 30.90625 30.90625 
z
" id="CMR17-115"/>
      <path d="M 41.5 30.203125 
C 41.5 35.296875 40.5 43.59375 28.703125 43.59375 
C 20.796875 43.59375 16.703125 37.5 15.203125 33.5 
L 15.09375 33.5 
L 15.09375 43.59375 
L 3.296875 42.5 
L 3.296875 39.90625 
C 9.203125 39.90625 10.09375 39.296875 10.09375 34.5 
L 10.09375 6.6875 
C 10.09375 2.875 9.703125 2.390625 3.296875 2.390625 
L 3.296875 -0.203125 
C 5.703125 0 10.09375 0 12.703125 0 
C 15.296875 0 19.796875 0 22.203125 -0.203125 
L 22.203125 2.390625 
C 15.796875 2.390625 15.40625 2.78125 15.40625 6.6875 
L 15.40625 25.90625 
C 15.40625 35.109375 21 42 28 42 
C 35.40625 42 36.203125 35.40625 36.203125 30.59375 
L 36.203125 6.6875 
C 36.203125 2.875 35.796875 2.390625 29.40625 2.390625 
L 29.40625 -0.203125 
C 31.796875 0 36.203125 0 38.796875 0 
C 41.40625 0 45.90625 0 48.296875 -0.203125 
L 48.296875 2.390625 
C 41.90625 2.390625 41.5 2.78125 41.5 6.6875 
z
" id="CMR17-110"/>
      <path d="M 41.296875 -114.90625 
C 41.296875 -114.5 41.09375 -114.296875 40.90625 -114 
C 36.296875 -109.09375 29.5 -101 25.296875 -84.703125 
C 23 -75.59375 22.09375 -65.296875 22.09375 -56 
C 22.09375 -29.703125 28.40625 -11.296875 40.40625 1.703125 
C 41.296875 2.59375 41.296875 2.796875 41.296875 3 
C 41.296875 4 40.5 4 40.09375 4 
C 38.59375 4 33.203125 -2 31.90625 -3.5 
C 21.703125 -15.59375 15.203125 -33.59375 15.203125 -55.90625 
C 15.203125 -70.09375 17.703125 -90.203125 30.796875 -107.09375 
C 31.796875 -108.296875 38.296875 -115.90625 40.09375 -115.90625 
C 40.5 -115.90625 41.296875 -115.90625 41.296875 -114.90625 
" id="CMEX10-0"/>
      <path d="M 30.5 -56 
C 30.5 -41.796875 28 -21.703125 14.90625 -4.796875 
C 13.90625 -3.59375 7.40625 4 5.59375 4 
C 5.09375 4 4.40625 3.796875 4.40625 3 
C 4.40625 2.59375 4.59375 2.296875 5 2 
C 9.796875 -3.203125 16.296875 -11.296875 20.40625 -27.203125 
C 22.703125 -36.296875 23.59375 -46.59375 23.59375 -55.90625 
C 23.59375 -66 22.703125 -76.203125 20.09375 -86 
C 16.296875 -100 10.40625 -108 5.296875 -113.59375 
C 4.40625 -114.5 4.40625 -114.703125 4.40625 -114.90625 
C 4.40625 -115.703125 5.09375 -115.90625 5.59375 -115.90625 
C 7.09375 -115.90625 12.59375 -109.796875 13.796875 -108.40625 
C 24 -96.296875 30.5 -78.296875 30.5 -56 
" id="CMEX10-1"/>
     </defs>
     <g transform="translate(420.980890022 74.6429336035)scale(0.18 -0.18)">
      <use transform="scale(0.9962640099626402)" xlink:href="#CMR17-115"/>
      <use transform="translate(35.80133763523506 0.0)scale(0.9962640099626402)" xlink:href="#CMR17-105"/>
      <use transform="translate(60.67239611709994 0.0)scale(0.9962640099626402)" xlink:href="#CMR17-110"/>
      <use transform="translate(128.17217113072076 80.69808408896327)scale(0.9962640099626402)" xlink:href="#CMEX10-0"/>
      <use transform="translate(173.8345249503814 0.0)scale(0.9962640099626402)" xlink:href="#CMMI12-120"/>
      <use transform="translate(229.26858448299348 80.69808408896327)scale(0.9962640099626402)" xlink:href="#CMEX10-1"/>
     </g>
    </g>
    <g id="line2d_17">
     <path d="M 386.78089 101.650948 
L 411.98089 101.650948 
" style="fill:none;stroke:#ff0000;stroke-linecap:square;stroke-width:2.0;"/>
    </g>
    <g id="line2d_18"/>
    <g id="text_11">
     <!-- $\sin \big( x - \tfrac{\pi}{4} \big)$ -->
     <defs>
      <path d="M 33.59375 64.40625 
C 33.59375 66.5 33.5 66.5 31.703125 66.5 
L 2 19.59375 
L 2 17 
L 27.796875 17 
L 27.796875 7.140625 
C 27.796875 3.5 27.59375 2.5 20.59375 2.5 
L 18.703125 2.5 
L 18.703125 0 
C 21.90625 0 27.296875 0 30.703125 0 
C 34.09375 0 39.5 0 42.703125 0 
L 42.703125 2.5 
L 40.796875 2.5 
C 33.796875 2.5 33.59375 3.5 33.59375 7.140625 
L 33.59375 17 
L 43.796875 17 
L 43.796875 19.59375 
L 33.59375 19.59375 
z
M 28.09375 57.859375 
L 28.09375 19.59375 
L 4 19.59375 
z
" id="CMR17-52"/>
     </defs>
     <g transform="translate(420.980890022 107.95094847)scale(0.18 -0.18)">
      <use transform="translate(0.0 34.35525288469022)scale(0.9962640099626402)" xlink:href="#CMR17-115"/>
      <use transform="translate(35.80133763523506 34.35525288469022)scale(0.9962640099626402)" xlink:href="#CMR17-105"/>
      <use transform="translate(60.67239611709994 34.35525288469022)scale(0.9962640099626402)" xlink:href="#CMR17-110"/>
      <use transform="translate(128.17217113072076 115.0533369736535)scale(0.9962640099626402)" xlink:href="#CMEX10-0"/>
      <use transform="translate(173.8345249503814 34.35525288469022)scale(0.9962640099626402)" xlink:href="#CMMI12-120"/>
      <use transform="translate(251.40779146073322 34.35525288469022)scale(0.9962640099626402)" xlink:href="#CMSY10-0"/>
      <use transform="translate(352.2299798606787 73.58135446664852)scale(0.6973817666173724)" xlink:href="#CMMI12-25"/>
      <use transform="translate(356.85700717037673 0.0)scale(0.6973817666173724)" xlink:href="#CMR17-52"/>
      <use transform="translate(394.66271501401 115.0533369736535)scale(0.9962640099626402)" xlink:href="#CMEX10-1"/>
      <path d="M 352.22998 57.269386 
L 393.467201 57.269386 
L 393.467201 61.254336 
L 352.22998 61.254336 
L 352.22998 57.269386 
z
"/>
     </g>
    </g>
   </g>
  </g>
 </g>
 <defs>
  <clipPath id="p33c4155f41">
   <rect height="345.6" width="446.4" x="72.0" y="43.2"/>
  </clipPath>
 </defs>
</svg>
