<?xml version="1.0" encoding="utf-8" standalone="no"?>
<!DOCTYPE svg PUBLIC "-//W3C//DTD SVG 1.1//EN"
  "http://www.w3.org/Graphics/SVG/1.1/DTD/svg11.dtd">
<!-- Created with matplotlib (http://matplotlib.org/) -->
<svg height="432pt" version="1.1" viewBox="0 0 576 432" width="576pt" xmlns="http://www.w3.org/2000/svg" xmlns:xlink="http://www.w3.org/1999/xlink">
 <defs>
  <style type="text/css">
*{stroke-linecap:butt;stroke-linejoin:round;stroke-miterlimit:100000;}
  </style>
 </defs>
 <g id="figure_1">
  <g id="patch_1">
   <path d="M 0 432 
L 576 432 
L 576 0 
L 0 0 
z
" style="fill:none;"/>
  </g>
  <g id="axes_1">
   <g id="patch_2">
    <path d="M 72 388.8 
L 518.4 388.8 
L 518.4 43.2 
L 72 43.2 
z
" style="fill:none;"/>
   </g>
   <g id="line2d_1">
    <path clip-path="url(#p734bd9804f)" d="M 72 216 
L 86.544361 180.87176 
L 94.37594 162.472482 
L 101.088722 147.210554 
L 106.682707 134.955413 
L 112.276692 123.202445 
L 117.870677 112.024475 
L 122.345865 103.542772 
L 126.821053 95.507113 
L 131.296241 87.94937 
L 135.771429 80.89952 
L 139.12782 75.962337 
L 142.484211 71.337633 
L 145.840602 67.035727 
L 149.196992 63.066218 
L 152.553383 59.437965 
L 155.909774 56.159063 
L 159.266165 53.236828 
L 162.622556 50.677782 
L 165.978947 48.487634 
L 169.335338 46.671272 
L 171.572932 45.670058 
L 173.810526 44.837784 
L 176.04812 44.175273 
L 178.285714 43.683184 
L 180.523308 43.362004 
L 182.760902 43.212052 
L 184.998496 43.233476 
L 187.23609 43.426256 
L 189.473684 43.7902 
L 191.711278 44.324947 
L 193.948872 45.029966 
L 196.186466 45.90456 
L 198.42406 46.947859 
L 201.780451 48.826823 
L 205.136842 51.078816 
L 208.493233 53.698812 
L 211.849624 56.680966 
L 215.206015 60.018622 
L 218.562406 63.704335 
L 221.918797 67.729878 
L 225.275188 72.08627 
L 228.631579 76.76379 
L 231.98797 81.752 
L 236.463158 88.866908 
L 240.938346 96.48607 
L 245.413534 104.579265 
L 249.888722 113.114393 
L 255.482707 124.353042 
L 261.076692 136.159559 
L 266.670677 148.460788 
L 273.383459 163.767775 
L 281.215038 182.204995 
L 292.403008 209.19891 
L 310.303759 252.459296 
L 318.135338 270.819492 
L 324.84812 286.035416 
L 330.442105 298.24371 
L 336.03609 309.942399 
L 341.630075 321.058997 
L 346.105263 329.48675 
L 350.580451 337.464375 
L 355.055639 344.96023 
L 359.530827 351.944585 
L 362.887218 356.830435 
L 366.243609 361.402037 
L 369.6 365.64919 
L 372.956391 369.562417 
L 376.312782 373.132987 
L 379.669173 376.352931 
L 383.025564 379.215065 
L 386.381955 381.713003 
L 389.738346 383.84117 
L 393.094737 385.594818 
L 395.332331 386.553883 
L 397.569925 387.343788 
L 399.807519 387.963748 
L 402.045113 388.413149 
L 404.282707 388.691546 
L 406.520301 388.798661 
L 408.757895 388.734389 
L 410.995489 388.498794 
L 413.233083 388.092109 
L 415.470677 387.514737 
L 417.708271 386.767252 
L 419.945865 385.850394 
L 422.183459 384.765073 
L 425.53985 382.823624 
L 428.896241 380.509926 
L 432.252632 377.829142 
L 435.609023 374.787255 
L 438.965414 371.39105 
L 442.321805 367.648108 
L 445.678195 363.566779 
L 449.034586 359.156171 
L 452.390977 354.426125 
L 455.747368 349.387197 
L 460.222556 342.207672 
L 464.697744 334.527564 
L 469.172932 326.377334 
L 473.64812 317.78931 
L 479.242105 306.49068 
L 484.83609 294.631345 
L 490.430075 282.28479 
L 497.142857 266.933694 
L 504.974436 248.459676 
L 516.162406 221.441378 
L 518.4 216 
L 518.4 216 
" style="fill:none;stroke:#000000;stroke-linecap:square;stroke-width:2.0;"/>
   </g>
   <g id="line2d_2">
    <path clip-path="url(#p734bd9804f)" d="M 72 338.188052 
L 76.475188 330.254277 
L 80.950376 321.867331 
L 85.425564 313.060479 
L 91.019549 301.514783 
L 96.613534 289.439215 
L 103.326316 274.354658 
L 111.157895 256.1078 
L 121.227068 231.963895 
L 145.840602 172.591651 
L 153.67218 154.455251 
L 160.384962 139.496257 
L 165.978947 127.546264 
L 171.572932 116.144352 
L 176.04812 107.465043 
L 180.523308 99.216222 
L 184.998496 91.430605 
L 189.473684 84.139073 
L 193.948872 77.370547 
L 197.305263 72.653605 
L 200.661654 68.256526 
L 204.018045 64.18912 
L 207.374436 60.460463 
L 210.730827 57.078876 
L 214.087218 54.051904 
L 217.443609 51.386302 
L 220.8 49.088017 
L 224.156391 47.162178 
L 226.393985 46.087357 
L 228.631579 45.18106 
L 230.869173 44.444187 
L 233.106767 43.877468 
L 235.344361 43.481466 
L 237.581955 43.256573 
L 239.819549 43.203013 
L 242.057143 43.320838 
L 244.294737 43.609932 
L 246.532331 44.070008 
L 248.769925 44.70061 
L 251.007519 45.501111 
L 253.245113 46.470719 
L 255.482707 47.608472 
L 258.839098 49.627858 
L 262.195489 52.018485 
L 265.55188 54.775019 
L 268.908271 57.891309 
L 272.264662 61.360402 
L 275.621053 65.174555 
L 278.977444 69.32526 
L 282.333835 73.803253 
L 285.690226 78.598543 
L 289.046617 83.700428 
L 293.521805 90.960099 
L 297.996992 98.71572 
L 302.47218 106.936532 
L 306.947368 115.589926 
L 312.541353 126.962549 
L 318.135338 138.886871 
L 324.84812 153.820055 
L 331.560902 169.30792 
L 340.511278 190.581889 
L 357.293233 231.286398 
L 368.481203 258.090076 
L 376.312782 276.271505 
L 383.025564 291.281422 
L 388.619549 303.282204 
L 394.213534 314.742163 
L 398.688722 323.472895 
L 403.16391 331.777353 
L 407.639098 339.622598 
L 412.114286 346.977514 
L 416.589474 353.812927 
L 419.945865 358.582175 
L 423.302256 363.033265 
L 426.658647 367.156267 
L 430.015038 370.941981 
L 433.371429 374.381958 
L 436.72782 377.468523 
L 440.084211 380.194788 
L 443.440602 382.554671 
L 446.796992 384.542906 
L 449.034586 385.659698 
L 451.27218 386.608217 
L 453.509774 387.387521 
L 455.747368 387.996838 
L 457.984962 388.435563 
L 460.222556 388.70326 
L 462.46015 388.799665 
L 464.697744 388.724682 
L 466.935338 388.478385 
L 469.172932 388.061018 
L 471.410526 387.472996 
L 473.64812 386.714902 
L 475.885714 385.787487 
L 478.123308 384.691671 
L 481.479699 382.734619 
L 484.83609 380.405517 
L 488.192481 377.709562 
L 491.548872 374.65277 
L 494.905263 371.241962 
L 498.261654 367.484748 
L 501.618045 363.389512 
L 504.974436 358.965392 
L 508.330827 354.222261 
L 511.687218 349.170702 
L 516.162406 341.975092 
L 518.4 338.188052 
L 518.4 338.188052 
" style="fill:none;stroke:#ff0000;stroke-linecap:square;stroke-width:2.0;"/>
   </g>
   <g id="patch_3">
    <path d="M 72 388.8 
L 72 43.2 
" style="fill:none;stroke:#000000;stroke-linecap:square;stroke-linejoin:miter;"/>
   </g>
   <g id="patch_4">
    <path d="M 518.4 388.8 
L 518.4 43.2 
" style="fill:none;stroke:#000000;stroke-linecap:square;stroke-linejoin:miter;"/>
   </g>
   <g id="patch_5">
    <path d="M 72 388.8 
L 518.4 388.8 
" style="fill:none;stroke:#000000;stroke-linecap:square;stroke-linejoin:miter;"/>
   </g>
   <g id="patch_6">
    <path d="M 72 43.2 
L 518.4 43.2 
" style="fill:none;stroke:#000000;stroke-linecap:square;stroke-linejoin:miter;"/>
   </g>
   <g id="matplotlib.axis_1">
    <g id="xtick_1">
     <g id="line2d_3">
      <defs>
       <path d="M 0 0 
L 0 -4 
" id="m87dc8053a9" style="stroke:#000000;stroke-width:0.5;"/>
      </defs>
      <g>
       <use style="stroke:#000000;stroke-width:0.5;" x="72.0" xlink:href="#m87dc8053a9" y="388.8"/>
      </g>
     </g>
     <g id="line2d_4">
      <defs>
       <path d="M 0 0 
L 0 4 
" id="md43da97d17" style="stroke:#000000;stroke-width:0.5;"/>
      </defs>
      <g>
       <use style="stroke:#000000;stroke-width:0.5;" x="72.0" xlink:href="#md43da97d17" y="43.2"/>
      </g>
     </g>
     <g id="text_1">
      <!-- 0 -->
      <defs>
       <path d="M 31.78125 66.40625 
Q 24.171875 66.40625 20.328125 58.90625 
Q 16.5 51.421875 16.5 36.375 
Q 16.5 21.390625 20.328125 13.890625 
Q 24.171875 6.390625 31.78125 6.390625 
Q 39.453125 6.390625 43.28125 13.890625 
Q 47.125 21.390625 47.125 36.375 
Q 47.125 51.421875 43.28125 58.90625 
Q 39.453125 66.40625 31.78125 66.40625 
M 31.78125 74.21875 
Q 44.046875 74.21875 50.515625 64.515625 
Q 56.984375 54.828125 56.984375 36.375 
Q 56.984375 17.96875 50.515625 8.265625 
Q 44.046875 -1.421875 31.78125 -1.421875 
Q 19.53125 -1.421875 13.0625 8.265625 
Q 6.59375 17.96875 6.59375 36.375 
Q 6.59375 54.828125 13.0625 64.515625 
Q 19.53125 74.21875 31.78125 74.21875 
" id="BitstreamVeraSans-Roman-30"/>
      </defs>
      <g transform="translate(66.91 404.9575)scale(0.16 -0.16)">
       <use xlink:href="#BitstreamVeraSans-Roman-30"/>
      </g>
     </g>
    </g>
    <g id="xtick_2">
     <g id="line2d_5">
      <g>
       <use style="stroke:#000000;stroke-width:0.5;" x="295.2" xlink:href="#m87dc8053a9" y="388.8"/>
      </g>
     </g>
     <g id="line2d_6">
      <g>
       <use style="stroke:#000000;stroke-width:0.5;" x="295.2" xlink:href="#md43da97d17" y="43.2"/>
      </g>
     </g>
     <g id="text_2">
      <!-- $\pi$ -->
      <defs>
       <path d="M 10.109375 1.703125 
Q 10.109375 2.25 10.5 3.328125 
Q 13.28125 9.125 15.6875 14.71875 
Q 18.109375 20.3125 20.03125 25.609375 
Q 21.96875 30.90625 23.578125 36.921875 
L 17.1875 36.921875 
Q 13.53125 36.921875 10.34375 34.625 
Q 7.171875 32.328125 5.078125 28.8125 
Q 4.890625 28.421875 4.5 28.421875 
L 3.328125 28.421875 
Q 2.390625 28.421875 2.390625 29.390625 
Q 2.390625 29.59375 2.59375 29.984375 
Q 5.859375 35.546875 9.59375 39.328125 
Q 13.328125 43.109375 18.015625 43.109375 
L 54.296875 43.109375 
Q 55.328125 43.109375 56.046875 42.421875 
Q 56.78125 41.75 56.78125 40.578125 
Q 56.78125 39.109375 55.734375 38.015625 
Q 54.6875 36.921875 53.21875 36.921875 
L 40.484375 36.921875 
Q 38.875 29.046875 38.71875 21.578125 
Q 38.71875 11.96875 42.09375 4.203125 
Q 42.390625 3.609375 42.390625 2.984375 
Q 42.390625 1.90625 41.75 0.96875 
Q 41.109375 0.046875 40.109375 -0.53125 
Q 39.109375 -1.125 37.984375 -1.125 
Q 35.359375 -1.125 34.375 3.171875 
Q 33.40625 7.46875 33.40625 11.53125 
Q 33.40625 17.234375 34.375 22.53125 
Q 35.359375 27.828125 37.5 36.921875 
L 26.609375 36.921875 
Q 18.703125 4.890625 17.09375 1.609375 
Q 15.671875 -1.125 13.1875 -1.125 
Q 11.96875 -1.125 11.03125 -0.3125 
Q 10.109375 0.484375 10.109375 1.703125 
" id="Cmmi10-bc"/>
      </defs>
      <g transform="translate(290.64 404.9575)scale(0.16 -0.16)">
       <use transform="translate(0.0 0.890625)" xlink:href="#Cmmi10-bc"/>
      </g>
     </g>
    </g>
    <g id="xtick_3">
     <g id="line2d_7">
      <g>
       <use style="stroke:#000000;stroke-width:0.5;" x="518.4" xlink:href="#m87dc8053a9" y="388.8"/>
      </g>
     </g>
     <g id="line2d_8">
      <g>
       <use style="stroke:#000000;stroke-width:0.5;" x="518.4" xlink:href="#md43da97d17" y="43.2"/>
      </g>
     </g>
     <g id="text_3">
      <!-- $2\pi$ -->
      <defs>
       <path d="M 4.984375 0 
L 4.984375 2.6875 
Q 4.984375 2.9375 5.171875 3.21875 
L 20.703125 20.40625 
Q 24.21875 24.21875 26.40625 26.796875 
Q 28.609375 29.390625 30.75 32.765625 
Q 32.90625 36.140625 34.15625 39.625 
Q 35.40625 43.109375 35.40625 47.015625 
Q 35.40625 51.125 33.890625 54.859375 
Q 32.375 58.59375 29.375 60.84375 
Q 26.375 63.09375 22.125 63.09375 
Q 17.78125 63.09375 14.3125 60.46875 
Q 10.84375 57.859375 9.421875 53.71875 
Q 9.8125 53.8125 10.5 53.8125 
Q 12.75 53.8125 14.328125 52.296875 
Q 15.921875 50.78125 15.921875 48.390625 
Q 15.921875 46.09375 14.328125 44.5 
Q 12.75 42.921875 10.5 42.921875 
Q 8.15625 42.921875 6.5625 44.546875 
Q 4.984375 46.1875 4.984375 48.390625 
Q 4.984375 52.15625 6.390625 55.4375 
Q 7.8125 58.734375 10.46875 61.296875 
Q 13.140625 63.875 16.484375 65.234375 
Q 19.828125 66.609375 23.578125 66.609375 
Q 29.296875 66.609375 34.21875 64.1875 
Q 39.15625 61.765625 42.03125 57.34375 
Q 44.921875 52.9375 44.921875 47.015625 
Q 44.921875 42.671875 43.015625 38.765625 
Q 41.109375 34.859375 38.125 31.65625 
Q 35.15625 28.46875 30.515625 24.40625 
Q 25.875 20.359375 24.421875 19 
L 13.09375 8.109375 
L 22.703125 8.109375 
Q 29.78125 8.109375 34.546875 8.21875 
Q 39.3125 8.34375 39.59375 8.59375 
Q 40.765625 9.859375 42 17.828125 
L 44.921875 17.828125 
L 42.09375 0 
z
" id="Cmr10-32"/>
      </defs>
      <g transform="translate(509.84 404.9575)scale(0.16 -0.16)">
       <use transform="translate(0.0 0.390625)" xlink:href="#Cmr10-32"/>
       <use transform="translate(50.0 0.390625)" xlink:href="#Cmmi10-bc"/>
      </g>
     </g>
    </g>
    <g id="text_4">
     <!-- x -->
     <defs>
      <path d="M 54.890625 54.6875 
L 35.109375 28.078125 
L 55.90625 0 
L 45.3125 0 
L 29.390625 21.484375 
L 13.484375 0 
L 2.875 0 
L 24.125 28.609375 
L 4.6875 54.6875 
L 15.28125 54.6875 
L 29.78125 35.203125 
L 44.28125 54.6875 
z
" id="BitstreamVeraSans-Roman-78"/>
     </defs>
     <g transform="translate(289.518 427.874)scale(0.192 -0.192)">
      <use xlink:href="#BitstreamVeraSans-Roman-78"/>
     </g>
    </g>
   </g>
   <g id="matplotlib.axis_2">
    <g id="ytick_1">
     <g id="line2d_9">
      <defs>
       <path d="M 0 0 
L 4 0 
" id="m08e983ef0c" style="stroke:#000000;stroke-width:0.5;"/>
      </defs>
      <g>
       <use style="stroke:#000000;stroke-width:0.5;" x="72.0" xlink:href="#m08e983ef0c" y="388.8"/>
      </g>
     </g>
     <g id="line2d_10">
      <defs>
       <path d="M 0 0 
L -4 0 
" id="m08f3ff0b2f" style="stroke:#000000;stroke-width:0.5;"/>
      </defs>
      <g>
       <use style="stroke:#000000;stroke-width:0.5;" x="518.4" xlink:href="#m08f3ff0b2f" y="388.8"/>
      </g>
     </g>
     <g id="text_5">
      <!-- −1 -->
      <defs>
       <path d="M 10.59375 35.5 
L 73.1875 35.5 
L 73.1875 27.203125 
L 10.59375 27.203125 
z
" id="BitstreamVeraSans-Roman-2212"/>
       <path d="M 12.40625 8.296875 
L 28.515625 8.296875 
L 28.515625 63.921875 
L 10.984375 60.40625 
L 10.984375 69.390625 
L 28.421875 72.90625 
L 38.28125 72.90625 
L 38.28125 8.296875 
L 54.390625 8.296875 
L 54.390625 0 
L 12.40625 0 
z
" id="BitstreamVeraSans-Roman-31"/>
      </defs>
      <g transform="translate(44.4125 393.215)scale(0.16 -0.16)">
       <use xlink:href="#BitstreamVeraSans-Roman-2212"/>
       <use x="83.7890625" xlink:href="#BitstreamVeraSans-Roman-31"/>
      </g>
     </g>
    </g>
    <g id="ytick_2">
     <g id="line2d_11">
      <g>
       <use style="stroke:#000000;stroke-width:0.5;" x="72.0" xlink:href="#m08e983ef0c" y="216.0"/>
      </g>
     </g>
     <g id="line2d_12">
      <g>
       <use style="stroke:#000000;stroke-width:0.5;" x="518.4" xlink:href="#m08f3ff0b2f" y="216.0"/>
      </g>
     </g>
     <g id="text_6">
      <!-- 0 -->
      <g transform="translate(57.82 220.415)scale(0.16 -0.16)">
       <use xlink:href="#BitstreamVeraSans-Roman-30"/>
      </g>
     </g>
    </g>
    <g id="ytick_3">
     <g id="line2d_13">
      <g>
       <use style="stroke:#000000;stroke-width:0.5;" x="72.0" xlink:href="#m08e983ef0c" y="43.2"/>
      </g>
     </g>
     <g id="line2d_14">
      <g>
       <use style="stroke:#000000;stroke-width:0.5;" x="518.4" xlink:href="#m08f3ff0b2f" y="43.2"/>
      </g>
     </g>
     <g id="text_7">
      <!-- 1 -->
      <g transform="translate(57.82 47.615)scale(0.16 -0.16)">
       <use xlink:href="#BitstreamVeraSans-Roman-31"/>
      </g>
     </g>
    </g>
    <g id="text_8">
     <!-- y -->
     <defs>
      <path d="M 32.171875 -5.078125 
Q 28.375 -14.84375 24.75 -17.8125 
Q 21.140625 -20.796875 15.09375 -20.796875 
L 7.90625 -20.796875 
L 7.90625 -13.28125 
L 13.1875 -13.28125 
Q 16.890625 -13.28125 18.9375 -11.515625 
Q 21 -9.765625 23.484375 -3.21875 
L 25.09375 0.875 
L 2.984375 54.6875 
L 12.5 54.6875 
L 29.59375 11.921875 
L 46.6875 54.6875 
L 56.203125 54.6875 
z
" id="BitstreamVeraSans-Roman-79"/>
     </defs>
     <g transform="translate(35.4195 221.682)rotate(-90.0)scale(0.192 -0.192)">
      <use xlink:href="#BitstreamVeraSans-Roman-79"/>
     </g>
    </g>
   </g>
   <g id="text_9">
    <!-- Simple plot -->
    <defs>
     <path d="M 53.515625 70.515625 
L 53.515625 60.890625 
Q 47.90625 63.578125 42.921875 64.890625 
Q 37.9375 66.21875 33.296875 66.21875 
Q 25.25 66.21875 20.875 63.09375 
Q 16.5 59.96875 16.5 54.203125 
Q 16.5 49.359375 19.40625 46.890625 
Q 22.3125 44.4375 30.421875 42.921875 
L 36.375 41.703125 
Q 47.40625 39.59375 52.65625 34.296875 
Q 57.90625 29 57.90625 20.125 
Q 57.90625 9.515625 50.796875 4.046875 
Q 43.703125 -1.421875 29.984375 -1.421875 
Q 24.8125 -1.421875 18.96875 -0.25 
Q 13.140625 0.921875 6.890625 3.21875 
L 6.890625 13.375 
Q 12.890625 10.015625 18.65625 8.296875 
Q 24.421875 6.59375 29.984375 6.59375 
Q 38.421875 6.59375 43.015625 9.90625 
Q 47.609375 13.234375 47.609375 19.390625 
Q 47.609375 24.75 44.3125 27.78125 
Q 41.015625 30.8125 33.5 32.328125 
L 27.484375 33.5 
Q 16.453125 35.6875 11.515625 40.375 
Q 6.59375 45.0625 6.59375 53.421875 
Q 6.59375 63.09375 13.40625 68.65625 
Q 20.21875 74.21875 32.171875 74.21875 
Q 37.3125 74.21875 42.625 73.28125 
Q 47.953125 72.359375 53.515625 70.515625 
" id="BitstreamVeraSans-Roman-53"/>
     <path d="M 9.421875 54.6875 
L 18.40625 54.6875 
L 18.40625 0 
L 9.421875 0 
z
M 9.421875 75.984375 
L 18.40625 75.984375 
L 18.40625 64.59375 
L 9.421875 64.59375 
z
" id="BitstreamVeraSans-Roman-69"/>
     <path d="M 52 44.1875 
Q 55.375 50.25 60.0625 53.125 
Q 64.75 56 71.09375 56 
Q 79.640625 56 84.28125 50.015625 
Q 88.921875 44.046875 88.921875 33.015625 
L 88.921875 0 
L 79.890625 0 
L 79.890625 32.71875 
Q 79.890625 40.578125 77.09375 44.375 
Q 74.3125 48.1875 68.609375 48.1875 
Q 61.625 48.1875 57.5625 43.546875 
Q 53.515625 38.921875 53.515625 30.90625 
L 53.515625 0 
L 44.484375 0 
L 44.484375 32.71875 
Q 44.484375 40.625 41.703125 44.40625 
Q 38.921875 48.1875 33.109375 48.1875 
Q 26.21875 48.1875 22.15625 43.53125 
Q 18.109375 38.875 18.109375 30.90625 
L 18.109375 0 
L 9.078125 0 
L 9.078125 54.6875 
L 18.109375 54.6875 
L 18.109375 46.1875 
Q 21.1875 51.21875 25.484375 53.609375 
Q 29.78125 56 35.6875 56 
Q 41.65625 56 45.828125 52.96875 
Q 50 49.953125 52 44.1875 
" id="BitstreamVeraSans-Roman-6d"/>
     <path d="M 18.109375 8.203125 
L 18.109375 -20.796875 
L 9.078125 -20.796875 
L 9.078125 54.6875 
L 18.109375 54.6875 
L 18.109375 46.390625 
Q 20.953125 51.265625 25.265625 53.625 
Q 29.59375 56 35.59375 56 
Q 45.5625 56 51.78125 48.09375 
Q 58.015625 40.1875 58.015625 27.296875 
Q 58.015625 14.40625 51.78125 6.484375 
Q 45.5625 -1.421875 35.59375 -1.421875 
Q 29.59375 -1.421875 25.265625 0.953125 
Q 20.953125 3.328125 18.109375 8.203125 
M 48.6875 27.296875 
Q 48.6875 37.203125 44.609375 42.84375 
Q 40.53125 48.484375 33.40625 48.484375 
Q 26.265625 48.484375 22.1875 42.84375 
Q 18.109375 37.203125 18.109375 27.296875 
Q 18.109375 17.390625 22.1875 11.75 
Q 26.265625 6.109375 33.40625 6.109375 
Q 40.53125 6.109375 44.609375 11.75 
Q 48.6875 17.390625 48.6875 27.296875 
" id="BitstreamVeraSans-Roman-70"/>
     <path d="M 9.421875 75.984375 
L 18.40625 75.984375 
L 18.40625 0 
L 9.421875 0 
z
" id="BitstreamVeraSans-Roman-6c"/>
     <path d="M 56.203125 29.59375 
L 56.203125 25.203125 
L 14.890625 25.203125 
Q 15.484375 15.921875 20.484375 11.0625 
Q 25.484375 6.203125 34.421875 6.203125 
Q 39.59375 6.203125 44.453125 7.46875 
Q 49.3125 8.734375 54.109375 11.28125 
L 54.109375 2.78125 
Q 49.265625 0.734375 44.1875 -0.34375 
Q 39.109375 -1.421875 33.890625 -1.421875 
Q 20.796875 -1.421875 13.15625 6.1875 
Q 5.515625 13.8125 5.515625 26.8125 
Q 5.515625 40.234375 12.765625 48.109375 
Q 20.015625 56 32.328125 56 
Q 43.359375 56 49.78125 48.890625 
Q 56.203125 41.796875 56.203125 29.59375 
M 47.21875 32.234375 
Q 47.125 39.59375 43.09375 43.984375 
Q 39.0625 48.390625 32.421875 48.390625 
Q 24.90625 48.390625 20.390625 44.140625 
Q 15.875 39.890625 15.1875 32.171875 
z
" id="BitstreamVeraSans-Roman-65"/>
     <path id="BitstreamVeraSans-Roman-20"/>
     <path d="M 30.609375 48.390625 
Q 23.390625 48.390625 19.1875 42.75 
Q 14.984375 37.109375 14.984375 27.296875 
Q 14.984375 17.484375 19.15625 11.84375 
Q 23.34375 6.203125 30.609375 6.203125 
Q 37.796875 6.203125 41.984375 11.859375 
Q 46.1875 17.53125 46.1875 27.296875 
Q 46.1875 37.015625 41.984375 42.703125 
Q 37.796875 48.390625 30.609375 48.390625 
M 30.609375 56 
Q 42.328125 56 49.015625 48.375 
Q 55.71875 40.765625 55.71875 27.296875 
Q 55.71875 13.875 49.015625 6.21875 
Q 42.328125 -1.421875 30.609375 -1.421875 
Q 18.84375 -1.421875 12.171875 6.21875 
Q 5.515625 13.875 5.515625 27.296875 
Q 5.515625 40.765625 12.171875 48.375 
Q 18.84375 56 30.609375 56 
" id="BitstreamVeraSans-Roman-6f"/>
     <path d="M 18.3125 70.21875 
L 18.3125 54.6875 
L 36.8125 54.6875 
L 36.8125 47.703125 
L 18.3125 47.703125 
L 18.3125 18.015625 
Q 18.3125 11.328125 20.140625 9.421875 
Q 21.96875 7.515625 27.59375 7.515625 
L 36.8125 7.515625 
L 36.8125 0 
L 27.59375 0 
Q 17.1875 0 13.234375 3.875 
Q 9.28125 7.765625 9.28125 18.015625 
L 9.28125 47.703125 
L 2.6875 47.703125 
L 2.6875 54.6875 
L 9.28125 54.6875 
L 9.28125 70.21875 
z
" id="BitstreamVeraSans-Roman-74"/>
    </defs>
    <g transform="translate(240.969 38.2)scale(0.192 -0.192)">
     <use xlink:href="#BitstreamVeraSans-Roman-53"/>
     <use x="63.4765625" xlink:href="#BitstreamVeraSans-Roman-69"/>
     <use x="91.259765625" xlink:href="#BitstreamVeraSans-Roman-6d"/>
     <use x="188.671875" xlink:href="#BitstreamVeraSans-Roman-70"/>
     <use x="252.1484375" xlink:href="#BitstreamVeraSans-Roman-6c"/>
     <use x="279.931640625" xlink:href="#BitstreamVeraSans-Roman-65"/>
     <use x="341.455078125" xlink:href="#BitstreamVeraSans-Roman-20"/>
     <use x="373.2421875" xlink:href="#BitstreamVeraSans-Roman-70"/>
     <use x="436.71875" xlink:href="#BitstreamVeraSans-Roman-6c"/>
     <use x="464.501953125" xlink:href="#BitstreamVeraSans-Roman-6f"/>
     <use x="525.68359375" xlink:href="#BitstreamVeraSans-Roman-74"/>
    </g>
   </g>
   <g id="legend_1">
    <g id="patch_7">
     <path d="M 387.36 102.97 
L 507.2 102.97 
Q 510.4 102.97 510.4 99.77 
L 510.4 54.4 
Q 510.4 51.2 507.2 51.2 
L 387.36 51.2 
Q 384.16 51.2 384.16 54.4 
L 384.16 99.77 
Q 384.16 102.97 387.36 102.97 
z
" style="fill:none;stroke:#000000;stroke-linejoin:miter;"/>
    </g>
    <g id="line2d_15">
     <path d="M 395.36 64.1575 
L 417.76 64.1575 
" style="fill:none;stroke:#000000;stroke-linecap:square;stroke-width:2.0;"/>
    </g>
    <g id="line2d_16"/>
    <g id="text_10">
     <!-- sin x -->
     <defs>
      <path d="M 44.28125 53.078125 
L 44.28125 44.578125 
Q 40.484375 46.53125 36.375 47.5 
Q 32.28125 48.484375 27.875 48.484375 
Q 21.1875 48.484375 17.84375 46.4375 
Q 14.5 44.390625 14.5 40.28125 
Q 14.5 37.15625 16.890625 35.375 
Q 19.28125 33.59375 26.515625 31.984375 
L 29.59375 31.296875 
Q 39.15625 29.25 43.1875 25.515625 
Q 47.21875 21.78125 47.21875 15.09375 
Q 47.21875 7.46875 41.1875 3.015625 
Q 35.15625 -1.421875 24.609375 -1.421875 
Q 20.21875 -1.421875 15.453125 -0.5625 
Q 10.6875 0.296875 5.421875 2 
L 5.421875 11.28125 
Q 10.40625 8.6875 15.234375 7.390625 
Q 20.0625 6.109375 24.8125 6.109375 
Q 31.15625 6.109375 34.5625 8.28125 
Q 37.984375 10.453125 37.984375 14.40625 
Q 37.984375 18.0625 35.515625 20.015625 
Q 33.0625 21.96875 24.703125 23.78125 
L 21.578125 24.515625 
Q 13.234375 26.265625 9.515625 29.90625 
Q 5.8125 33.546875 5.8125 39.890625 
Q 5.8125 47.609375 11.28125 51.796875 
Q 16.75 56 26.8125 56 
Q 31.78125 56 36.171875 55.265625 
Q 40.578125 54.546875 44.28125 53.078125 
" id="BitstreamVeraSans-Roman-73"/>
      <path d="M 54.890625 33.015625 
L 54.890625 0 
L 45.90625 0 
L 45.90625 32.71875 
Q 45.90625 40.484375 42.875 44.328125 
Q 39.84375 48.1875 33.796875 48.1875 
Q 26.515625 48.1875 22.3125 43.546875 
Q 18.109375 38.921875 18.109375 30.90625 
L 18.109375 0 
L 9.078125 0 
L 9.078125 54.6875 
L 18.109375 54.6875 
L 18.109375 46.1875 
Q 21.34375 51.125 25.703125 53.5625 
Q 30.078125 56 35.796875 56 
Q 45.21875 56 50.046875 50.171875 
Q 54.890625 44.34375 54.890625 33.015625 
" id="BitstreamVeraSans-Roman-6e"/>
     </defs>
     <g transform="translate(425.76 69.7575)scale(0.16 -0.16)">
      <use xlink:href="#BitstreamVeraSans-Roman-73"/>
      <use x="52.099609375" xlink:href="#BitstreamVeraSans-Roman-69"/>
      <use x="79.8828125" xlink:href="#BitstreamVeraSans-Roman-6e"/>
      <use x="143.26171875" xlink:href="#BitstreamVeraSans-Roman-20"/>
      <use x="175.048828125" xlink:href="#BitstreamVeraSans-Roman-78"/>
     </g>
    </g>
    <g id="line2d_17">
     <path d="M 395.36 87.6425 
L 417.76 87.6425 
" style="fill:none;stroke:#ff0000;stroke-linecap:square;stroke-width:2.0;"/>
    </g>
    <g id="line2d_18"/>
    <g id="text_11">
     <!-- sin x - $\pi$/4 -->
     <defs>
      <path d="M 4.890625 31.390625 
L 31.203125 31.390625 
L 31.203125 23.390625 
L 4.890625 23.390625 
z
" id="BitstreamVeraSans-Roman-2d"/>
      <path d="M 25.390625 72.90625 
L 33.6875 72.90625 
L 8.296875 -9.28125 
L 0 -9.28125 
z
" id="BitstreamVeraSans-Roman-2f"/>
      <path d="M 37.796875 64.3125 
L 12.890625 25.390625 
L 37.796875 25.390625 
z
M 35.203125 72.90625 
L 47.609375 72.90625 
L 47.609375 25.390625 
L 58.015625 25.390625 
L 58.015625 17.1875 
L 47.609375 17.1875 
L 47.609375 0 
L 37.796875 0 
L 37.796875 17.1875 
L 4.890625 17.1875 
L 4.890625 26.703125 
z
" id="BitstreamVeraSans-Roman-34"/>
     </defs>
     <g transform="translate(425.76 93.2425)scale(0.16 -0.16)">
      <use transform="translate(0.0 0.015625)" xlink:href="#BitstreamVeraSans-Roman-73"/>
      <use transform="translate(52.099609375 0.015625)" xlink:href="#BitstreamVeraSans-Roman-69"/>
      <use transform="translate(79.8828125 0.015625)" xlink:href="#BitstreamVeraSans-Roman-6e"/>
      <use transform="translate(143.26171875 0.015625)" xlink:href="#BitstreamVeraSans-Roman-20"/>
      <use transform="translate(175.048828125 0.015625)" xlink:href="#BitstreamVeraSans-Roman-78"/>
      <use transform="translate(234.228515625 0.015625)" xlink:href="#BitstreamVeraSans-Roman-20"/>
      <use transform="translate(266.015625 0.015625)" xlink:href="#BitstreamVeraSans-Roman-2d"/>
      <use transform="translate(302.099609375 0.015625)" xlink:href="#BitstreamVeraSans-Roman-20"/>
      <use transform="translate(333.88671875 0.015625)" xlink:href="#Cmmi10-bc"/>
      <use transform="translate(390.869140625 0.015625)" xlink:href="#BitstreamVeraSans-Roman-2f"/>
      <use transform="translate(424.560546875 0.015625)" xlink:href="#BitstreamVeraSans-Roman-34"/>
     </g>
    </g>
   </g>
  </g>
 </g>
 <defs>
  <clipPath id="p734bd9804f">
   <rect height="345.6" width="446.4" x="72.0" y="43.2"/>
  </clipPath>
 </defs>
</svg>
