<?xml version="1.0" encoding="utf-8" standalone="no"?>
<!DOCTYPE svg PUBLIC "-//W3C//DTD SVG 1.1//EN"
  "http://www.w3.org/Graphics/SVG/1.1/DTD/svg11.dtd">
<!-- Created with matplotlib (http://matplotlib.org/) -->
<svg height="432pt" version="1.1" viewBox="0 0 1296 432" width="1296pt" xmlns="http://www.w3.org/2000/svg" xmlns:xlink="http://www.w3.org/1999/xlink">
 <defs>
  <style type="text/css">
*{stroke-linecap:butt;stroke-linejoin:round;stroke-miterlimit:100000;}
  </style>
 </defs>
 <g id="figure_1">
  <g id="patch_1">
   <path d="M 0 432 
L 1296 432 
L 1296 0 
L 0 0 
z
" style="fill:none;"/>
  </g>
  <g id="axes_1">
   <g id="patch_2">
    <path d="M 69.741677 368.488986 
L 629.187616 368.488986 
L 629.187616 39.38396 
L 69.741677 39.38396 
z
" style="fill:none;"/>
   </g>
   <g id="line2d_1">
    <path clip-path="url(#pb2169110b9)" d="M 69.741677 203.936473 
L 87.969239 170.484852 
L 97.78408 152.963744 
L 106.196801 138.430245 
L 113.207402 126.760023 
L 120.218002 115.568007 
L 125.826483 107.005415 
L 131.434963 98.827285 
L 137.043444 91.066054 
L 142.651925 83.752506 
L 146.858285 78.578657 
L 151.064646 73.68453 
L 155.271006 69.081046 
L 159.477366 64.778478 
L 163.683727 60.786425 
L 167.890087 57.113796 
L 172.096448 53.768786 
L 176.302808 50.758859 
L 180.509169 48.09073 
L 184.715529 45.770355 
L 188.92189 43.80291 
L 193.12825 42.192786 
L 195.93249 41.319688 
L 198.736731 40.607879 
L 201.540971 40.058065 
L 204.345211 39.67079 
L 207.149452 39.44644 
L 209.953692 39.385235 
L 212.757932 39.487238 
L 215.562172 39.752347 
L 218.366413 40.180299 
L 221.170653 40.770669 
L 223.974893 41.522873 
L 226.779134 42.436164 
L 229.583374 43.509635 
L 233.789734 45.41781 
L 237.996095 47.679702 
L 242.202455 50.290264 
L 246.408816 53.243671 
L 250.615176 56.533332 
L 254.821537 60.151908 
L 259.027897 64.091323 
L 263.234257 68.342787 
L 267.440618 72.896813 
L 271.646978 77.743241 
L 275.853339 82.871255 
L 281.461819 90.126765 
L 287.0703 97.833684 
L 292.678781 105.961443 
L 298.287261 114.477805 
L 303.895742 123.34899 
L 310.906343 134.883217 
L 317.916943 146.845315 
L 326.329664 161.660102 
L 336.144505 179.411194 
L 352.969947 210.412957 
L 368.393269 238.655622 
L 378.20811 256.139513 
L 386.620831 270.629204 
L 393.631431 282.254813 
L 400.642032 293.395142 
L 406.250513 301.911503 
L 411.858993 310.039262 
L 417.467474 317.746181 
L 423.075954 325.001692 
L 427.282315 330.129706 
L 431.488675 334.976133 
L 435.695036 339.53016 
L 439.901396 343.781624 
L 444.107757 347.721039 
L 448.314117 351.339614 
L 452.520478 354.629276 
L 456.726838 357.582682 
L 460.933198 360.193244 
L 465.139559 362.455136 
L 469.345919 364.363311 
L 472.15016 365.436783 
L 474.9544 366.350074 
L 477.75864 367.102277 
L 480.562881 367.692648 
L 483.367121 368.120599 
L 486.171361 368.385708 
L 488.975601 368.487711 
L 491.779842 368.426507 
L 494.584082 368.202156 
L 497.388322 367.814882 
L 500.192563 367.265067 
L 502.996803 366.553258 
L 505.801043 365.680161 
L 508.605284 364.646641 
L 512.811644 362.797854 
L 517.018004 360.594586 
L 521.224365 358.041752 
L 525.430725 355.145048 
L 529.637086 351.91094 
L 533.843446 348.346642 
L 538.049807 344.460109 
L 542.256167 340.260013 
L 546.462528 335.755726 
L 550.668888 330.957298 
L 554.875248 325.875437 
L 560.483729 318.678414 
L 566.09221 311.026285 
L 571.70069 302.949401 
L 577.309171 294.479798 
L 582.917651 285.651069 
L 589.928252 274.163608 
L 596.938853 262.241002 
L 605.351574 247.463662 
L 615.166415 229.74214 
L 629.187616 203.936473 
L 629.187616 203.936473 
" style="fill:none;stroke:#000000;stroke-linecap:square;stroke-width:2.0;"/>
   </g>
   <g id="line2d_2">
    <path clip-path="url(#pb2169110b9)" d="M 69.741677 320.292671 
L 75.350158 312.737564 
L 80.958638 304.750914 
L 86.567119 296.3644 
L 92.175599 287.611285 
L 99.1862 276.207376 
L 106.196801 264.355658 
L 114.609522 249.646055 
L 124.424363 231.97892 
L 138.445564 206.203757 
L 156.673126 172.707968 
L 166.487967 155.124345 
L 174.900688 140.51635 
L 181.911289 128.7698 
L 188.92189 117.489003 
L 194.53037 108.846787 
L 200.138851 100.581729 
L 205.747331 92.726611 
L 211.355812 85.31259 
L 215.562172 80.059303 
L 219.768533 75.082434 
L 223.974893 70.393089 
L 228.181254 66.001732 
L 232.387614 61.91816 
L 236.593975 58.151488 
L 240.800335 54.710118 
L 245.006696 51.601731 
L 249.213056 48.833262 
L 253.419416 46.410889 
L 257.625777 44.340018 
L 261.832137 42.625268 
L 264.636378 41.68187 
L 267.440618 40.899401 
L 270.244858 40.278637 
L 273.049099 39.820195 
L 275.853339 39.524528 
L 278.657579 39.39193 
L 281.461819 39.422533 
L 284.26606 39.616305 
L 287.0703 39.973056 
L 289.87454 40.492431 
L 292.678781 41.173915 
L 295.483021 42.016832 
L 298.287261 43.020346 
L 302.493622 44.824516 
L 306.699982 46.983727 
L 310.906343 49.493161 
L 315.112703 52.347218 
L 319.319063 55.539531 
L 323.525424 59.062975 
L 327.731784 62.909688 
L 331.938145 67.071087 
L 336.144505 71.537887 
L 340.350866 76.300119 
L 344.557226 81.347158 
L 348.763587 86.667742 
L 354.372067 94.166763 
L 359.980548 102.101168 
L 365.589028 110.439487 
L 371.197509 119.148648 
L 378.20811 130.503839 
L 385.21871 142.314039 
L 393.631431 156.98368 
L 403.446272 174.61823 
L 417.467474 200.373765 
L 437.097156 236.436084 
L 446.911997 253.984392 
L 455.324718 268.550156 
L 462.335319 280.253362 
L 469.345919 291.483689 
L 474.9544 300.080605 
L 480.562881 308.296181 
L 486.171361 316.097831 
L 491.779842 323.45461 
L 495.986202 328.662625 
L 500.192563 333.592328 
L 504.398923 338.232717 
L 508.605284 342.573439 
L 512.811644 346.604808 
L 517.018004 350.317828 
L 521.224365 353.704213 
L 525.430725 356.756409 
L 529.637086 359.467603 
L 533.843446 361.831747 
L 538.049807 363.843564 
L 542.256167 365.498567 
L 545.060407 366.401814 
L 547.864648 367.143923 
L 550.668888 367.724158 
L 553.473128 368.141943 
L 556.277369 368.396864 
L 559.081609 368.488668 
L 561.885849 368.417263 
L 564.690089 368.182722 
L 567.49433 367.785275 
L 570.29857 367.225318 
L 573.10281 366.503407 
L 575.907051 365.620256 
L 578.711291 364.576742 
L 582.917651 362.713097 
L 587.124012 360.49516 
L 591.330372 357.927879 
L 595.536733 355.016983 
L 599.743093 351.768967 
L 603.949454 348.191079 
L 608.155814 344.291303 
L 612.362175 340.07834 
L 616.568535 335.561592 
L 620.774895 330.751136 
L 624.981256 325.657708 
L 629.187616 320.292671 
L 629.187616 320.292671 
" style="fill:none;stroke:#ff0000;stroke-linecap:square;stroke-width:2.0;"/>
   </g>
   <g id="patch_3">
    <path d="M 69.741677 368.488986 
L 69.741677 39.38396 
" style="fill:none;stroke:#000000;stroke-linecap:square;stroke-linejoin:miter;"/>
   </g>
   <g id="patch_4">
    <path d="M 629.187616 368.488986 
L 629.187616 39.38396 
" style="fill:none;stroke:#000000;stroke-linecap:square;stroke-linejoin:miter;"/>
   </g>
   <g id="patch_5">
    <path d="M 69.741677 368.488986 
L 629.187616 368.488986 
" style="fill:none;stroke:#000000;stroke-linecap:square;stroke-linejoin:miter;"/>
   </g>
   <g id="patch_6">
    <path d="M 69.741677 39.38396 
L 629.187616 39.38396 
" style="fill:none;stroke:#000000;stroke-linecap:square;stroke-linejoin:miter;"/>
   </g>
   <g id="matplotlib.axis_1">
    <g id="xtick_1">
     <g id="line2d_3">
      <defs>
       <path d="M 0 0 
L 0 -4 
" id="m24af64bbeb" style="stroke:#000000;stroke-width:0.5;"/>
      </defs>
      <g>
       <use style="stroke:#000000;stroke-width:0.5;" x="69.741676939" xlink:href="#m24af64bbeb" y="368.488986394"/>
      </g>
     </g>
     <g id="line2d_4">
      <defs>
       <path d="M 0 0 
L 0 4 
" id="mb50134e064" style="stroke:#000000;stroke-width:0.5;"/>
      </defs>
      <g>
       <use style="stroke:#000000;stroke-width:0.5;" x="69.741676939" xlink:href="#mb50134e064" y="39.3839601494"/>
      </g>
     </g>
     <g id="text_1">
      <!-- 0 -->
      <defs>
       <path d="M 42 31.640625 
C 42 37.75 41.90625 48.125 37.703125 56.109375 
C 34 63.109375 28.09375 65.59375 22.90625 65.59375 
C 18.09375 65.59375 12 63.40625 8.203125 56.203125 
C 4.203125 48.71875 3.796875 39.4375 3.796875 31.640625 
C 3.796875 25.953125 3.90625 17.28125 7 9.671875 
C 11.296875 -0.609375 19 -2 22.90625 -2 
C 27.5 -2 34.5 -0.109375 38.59375 9.375 
C 41.59375 16.28125 42 24.359375 42 31.640625 
M 22.90625 -0.40625 
C 16.5 -0.40625 12.703125 5.078125 11.296875 12.6875 
C 10.203125 18.5625 10.203125 27.15625 10.203125 32.75 
C 10.203125 40.4375 10.203125 46.828125 11.5 52.921875 
C 13.40625 61.390625 19 64 22.90625 64 
C 27 64 32.296875 61.296875 34.203125 53.125 
C 35.5 47.4375 35.59375 40.734375 35.59375 32.75 
C 35.59375 26.25 35.59375 18.265625 34.40625 12.375 
C 32.296875 1.484375 26.40625 -0.40625 22.90625 -0.40625 
" id="CMR17-48"/>
      </defs>
      <g transform="translate(65.6295339985 384.942286518)scale(0.18 -0.18)">
       <use transform="scale(0.9962640099626402)" xlink:href="#CMR17-48"/>
      </g>
     </g>
    </g>
    <g id="xtick_2">
     <g id="line2d_5">
      <g>
       <use style="stroke:#000000;stroke-width:0.5;" x="349.464646638" xlink:href="#m24af64bbeb" y="368.488986394"/>
      </g>
     </g>
     <g id="line2d_6">
      <g>
       <use style="stroke:#000000;stroke-width:0.5;" x="349.464646638" xlink:href="#mb50134e064" y="39.3839601494"/>
      </g>
     </g>
     <g id="text_2">
      <!-- $\pi$ -->
      <defs>
       <path d="M 25.90625 37.625 
L 37.203125 37.625 
C 34.5 26.4375 32.796875 19.15625 32.796875 11.1875 
C 32.796875 9.78125 32.796875 -1 36.90625 -1 
C 39 -1 40.796875 0.890625 40.796875 2.59375 
C 40.796875 3.078125 40.796875 3.28125 40.09375 4.78125 
C 37.40625 11.671875 37.40625 20.25 37.40625 20.953125 
C 37.40625 21.546875 37.40625 28.625 39.5 37.625 
L 50.703125 37.625 
C 52 37.625 55.296875 37.625 55.296875 40.8125 
C 55.296875 43 53.40625 43 51.59375 43 
L 18.703125 43 
C 16.40625 43 13 43 8.40625 38.125 
C 5.796875 35.21875 2.59375 29.9375 2.59375 29.34375 
C 2.59375 28.75 3.09375 28.546875 3.703125 28.546875 
C 4.40625 28.546875 4.5 28.84375 5 29.4375 
C 10.203125 37.625 15.40625 37.625 17.90625 37.625 
L 23.59375 37.625 
C 21.40625 30.140625 18.90625 21.453125 10.703125 4 
C 9.90625 2.40625 9.90625 2.1875 9.90625 1.59375 
C 9.90625 -0.5 11.703125 -1 12.59375 -1 
C 15.5 -1 16.296875 1.59375 17.5 5.78125 
C 19.09375 10.875 19.09375 11.078125 20.09375 15.0625 
z
" id="CMMI12-25"/>
      </defs>
      <g transform="translate(344.484405914 384.942286518)scale(0.18 -0.18)">
       <use transform="scale(0.9962640099626402)" xlink:href="#CMMI12-25"/>
      </g>
     </g>
    </g>
    <g id="xtick_3">
     <g id="line2d_7">
      <g>
       <use style="stroke:#000000;stroke-width:0.5;" x="629.187616336" xlink:href="#m24af64bbeb" y="368.488986394"/>
      </g>
     </g>
     <g id="line2d_8">
      <g>
       <use style="stroke:#000000;stroke-width:0.5;" x="629.187616336" xlink:href="#mb50134e064" y="39.3839601494"/>
      </g>
     </g>
     <g id="text_3">
      <!-- $2\pi$ -->
      <defs>
       <path d="M 41.703125 15.453125 
L 39.90625 15.453125 
C 38.90625 8.375 38.09375 7.171875 37.703125 6.5625 
C 37.203125 5.765625 30 5.765625 28.59375 5.765625 
L 9.40625 5.765625 
C 13 9.671875 20 16.75 28.5 24.953125 
C 34.59375 30.734375 41.703125 37.53125 41.703125 47.421875 
C 41.703125 59.21875 32.296875 66 21.796875 66 
C 10.796875 66 4.09375 56.3125 4.09375 47.34375 
C 4.09375 43.4375 7 42.9375 8.203125 42.9375 
C 9.203125 42.9375 12.203125 43.546875 12.203125 47.03125 
C 12.203125 50.109375 9.59375 51 8.203125 51 
C 7.59375 51 7 50.90625 6.59375 50.703125 
C 8.5 59.21875 14.296875 63.40625 20.40625 63.40625 
C 29.09375 63.40625 34.796875 56.515625 34.796875 47.421875 
C 34.796875 38.734375 29.703125 31.25 24 24.75 
L 4.09375 2.28125 
L 4.09375 0 
L 39.296875 0 
z
" id="CMR17-50"/>
      </defs>
      <g transform="translate(620.095232672 384.942286518)scale(0.18 -0.18)">
       <use transform="scale(0.9962640099626402)" xlink:href="#CMR17-50"/>
       <use transform="translate(45.69047711706103 0.0)scale(0.9962640099626402)" xlink:href="#CMMI12-25"/>
      </g>
     </g>
    </g>
    <g id="text_4">
     <!-- $x$ -->
     <defs>
      <path d="M 47.40625 40.71875 
C 44.203125 40.109375 43 37.71875 43 35.828125 
C 43 33.421875 44.90625 32.625 46.296875 32.625 
C 49.296875 32.625 51.40625 35.21875 51.40625 37.921875 
C 51.40625 42.109375 46.59375 44 42.40625 44 
C 36.296875 44 32.90625 38.015625 32 36.125 
C 29.703125 44 23.5 44 21.703125 44 
C 11.5 44 6.09375 30.9375 6.09375 28.734375 
C 6.09375 28.34375 6.5 27.84375 7.203125 27.84375 
C 8 27.84375 8.203125 28.4375 8.40625 28.84375 
C 11.796875 39.921875 18.5 42.015625 21.40625 42.015625 
C 25.90625 42.015625 26.796875 37.8125 26.796875 35.421875 
C 26.796875 33.234375 26.203125 30.9375 25 26.140625 
L 21.59375 12.46875 
C 20.09375 6.484375 17.203125 1 11.90625 1 
C 11.40625 1 8.90625 1 6.796875 2.296875 
C 10.40625 3 11.203125 5.984375 11.203125 7.1875 
C 11.203125 9.1875 9.703125 10.375 7.796875 10.375 
C 5.40625 10.375 2.796875 8.28125 2.796875 5.09375 
C 2.796875 0.890625 7.5 -1 11.796875 -1 
C 16.59375 -1 20 2.796875 22.09375 6.890625 
C 23.703125 1 28.703125 -1 32.40625 -1 
C 42.59375 -1 48 12.078125 48 14.265625 
C 48 14.765625 47.59375 15.171875 47 15.171875 
C 46.09375 15.171875 46 14.671875 45.703125 13.875 
C 43 5.09375 37.203125 1 32.703125 1 
C 29.203125 1 27.296875 3.59375 27.296875 7.6875 
C 27.296875 9.875 27.703125 11.46875 29.296875 18.0625 
L 32.796875 31.625 
C 34.296875 37.625 37.703125 42.015625 42.296875 42.015625 
C 42.5 42.015625 45.296875 42.015625 47.40625 40.71875 
" id="CMMI12-120"/>
     </defs>
     <g transform="translate(343.477766688 408.374310836)scale(0.21599999999999997 -0.21599999999999997)">
      <use transform="scale(0.9962640099626402)" xlink:href="#CMMI12-120"/>
     </g>
    </g>
   </g>
   <g id="matplotlib.axis_2">
    <g id="ytick_1">
     <g id="line2d_9">
      <defs>
       <path d="M 0 0 
L 4 0 
" id="m8dd60e5afa" style="stroke:#000000;stroke-width:0.5;"/>
      </defs>
      <g>
       <use style="stroke:#000000;stroke-width:0.5;" x="69.741676939" xlink:href="#m8dd60e5afa" y="368.488986394"/>
      </g>
     </g>
     <g id="line2d_10">
      <defs>
       <path d="M 0 0 
L -4 0 
" id="m756bcdfda0" style="stroke:#000000;stroke-width:0.5;"/>
      </defs>
      <g>
       <use style="stroke:#000000;stroke-width:0.5;" x="629.187616336" xlink:href="#m756bcdfda0" y="368.488986394"/>
      </g>
     </g>
     <g id="text_5">
      <!-- $-1$ -->
      <defs>
       <path d="M 65.90625 23 
C 67.59375 23 69.40625 23 69.40625 25 
C 69.40625 27 67.59375 27 65.90625 27 
L 11.796875 27 
C 10.09375 27 8.296875 27 8.296875 25 
C 8.296875 23 10.09375 23 11.796875 23 
z
" id="CMSY10-0"/>
       <path d="M 26.59375 63.40625 
C 26.59375 65.5 26.5 65.5 25.09375 65.5 
C 21.203125 61.1875 15.296875 59.796875 9.703125 59.796875 
C 9.40625 59.796875 8.90625 59.796875 8.796875 59.5 
C 8.703125 59.296875 8.703125 59.09375 8.703125 57 
C 11.796875 57 17 57.59375 21 59.984375 
L 21 7.203125 
C 21 3.6875 20.796875 2.5 12.203125 2.5 
L 9.203125 2.5 
L 9.203125 0 
C 14 0 19 0 23.796875 0 
C 28.59375 0 33.59375 0 38.40625 0 
L 38.40625 2.5 
L 35.40625 2.5 
C 26.796875 2.5 26.59375 3.59375 26.59375 7.15625 
z
" id="CMR17-49"/>
      </defs>
      <g transform="translate(43.5696493131 372.971604372)scale(0.18 -0.18)">
       <use transform="scale(0.9962640099626402)" xlink:href="#CMSY10-0"/>
       <use transform="translate(77.4874676506071 0.0)scale(0.9962640099626402)" xlink:href="#CMR17-49"/>
      </g>
     </g>
    </g>
    <g id="ytick_2">
     <g id="line2d_11">
      <g>
       <use style="stroke:#000000;stroke-width:0.5;" x="69.741676939" xlink:href="#m8dd60e5afa" y="203.936473272"/>
      </g>
     </g>
     <g id="line2d_12">
      <g>
       <use style="stroke:#000000;stroke-width:0.5;" x="629.187616336" xlink:href="#m756bcdfda0" y="203.936473272"/>
      </g>
     </g>
     <g id="text_6">
      <!-- $0$ -->
      <g transform="translate(57.5173910579 208.41909125)scale(0.18 -0.18)">
       <use transform="scale(0.9962640099626402)" xlink:href="#CMR17-48"/>
      </g>
     </g>
    </g>
    <g id="ytick_3">
     <g id="line2d_13">
      <g>
       <use style="stroke:#000000;stroke-width:0.5;" x="69.741676939" xlink:href="#m8dd60e5afa" y="39.3839601494"/>
      </g>
     </g>
     <g id="line2d_14">
      <g>
       <use style="stroke:#000000;stroke-width:0.5;" x="629.187616336" xlink:href="#m756bcdfda0" y="39.3839601494"/>
      </g>
     </g>
     <g id="text_7">
      <!-- $1$ -->
      <g transform="translate(57.5173910579 43.8665781274)scale(0.18 -0.18)">
       <use transform="scale(0.9962640099626402)" xlink:href="#CMR17-49"/>
      </g>
     </g>
    </g>
    <g id="text_8">
     <!-- $y$ -->
     <defs>
      <path d="M 26.296875 -10.9375 
C 23.59375 -14.671875 19.703125 -18 14.796875 -18 
C 13.59375 -18 8.796875 -18 7.296875 -13.890625 
C 7.59375 -13.984375 8.09375 -13.984375 8.296875 -13.984375 
C 11.296875 -13.984375 13.296875 -11.390625 13.296875 -9.09375 
C 13.296875 -6.796875 11.40625 -6 9.90625 -6 
C 8.296875 -6 4.796875 -7.15625 4.796875 -11.859375 
C 4.796875 -16.734375 9.09375 -20.09375 14.796875 -20.09375 
C 24.796875 -20.09375 34.90625 -10.9375 37.703125 0.09375 
L 47.5 38.828125 
C 47.59375 39.328125 47.796875 39.9375 47.796875 40.53125 
C 47.796875 42.015625 46.59375 43.015625 45.09375 43.015625 
C 44.203125 43.015625 42.09375 42.609375 41.296875 39.609375 
L 33.90625 10.28125 
C 33.40625 8.484375 33.40625 8.28125 32.59375 7.1875 
C 30.59375 4.390625 27.296875 1 22.5 1 
C 16.90625 1 16.40625 6.484375 16.40625 9.1875 
C 16.40625 14.875 19.09375 22.546875 21.796875 29.734375 
C 22.90625 32.625 23.5 34.03125 23.5 36.015625 
C 23.5 40.21875 20.5 44 15.59375 44 
C 6.40625 44 2.703125 29.53125 2.703125 28.734375 
C 2.703125 28.34375 3.09375 27.84375 3.796875 27.84375 
C 4.703125 27.84375 4.796875 28.234375 5.203125 29.640625 
C 7.59375 38.015625 11.40625 42.015625 15.296875 42.015625 
C 16.203125 42.015625 17.90625 42.015625 17.90625 38.71875 
C 17.90625 36.125 16.796875 33.234375 15.296875 29.4375 
C 10.40625 16.359375 10.40625 13.078125 10.40625 10.671875 
C 10.40625 1.203125 17.203125 -1 22.203125 -1 
C 25.09375 -1 28.703125 -0.09375 32.203125 3.59375 
L 32.296875 3.5 
C 30.796875 -2.296875 29.796875 -6.125 26.296875 -10.9375 
" id="CMMI12-121"/>
     </defs>
     <g transform="translate(34.3839601494 209.073406367)rotate(-90.0)scale(0.21599999999999997 -0.21599999999999997)">
      <use transform="scale(0.9962640099626402)" xlink:href="#CMMI12-121"/>
     </g>
    </g>
   </g>
   <g id="text_9">
    <!-- First subplot -->
    <defs>
     <path d="M 54.40625 67.578125 
L 5.09375 67.578125 
L 5.09375 65 
C 12 65 13.09375 65 13.09375 60.53125 
L 13.09375 6.96875 
C 13.09375 2.5 12 2.5 5.09375 2.5 
L 5.09375 0 
C 8 0 13.59375 0 16.703125 0 
C 20.796875 0 25.59375 0 29.703125 0 
L 29.703125 2.5 
L 27.5 2.5 
C 19.90625 2.5 19.703125 3.484375 19.703125 7.0625 
L 19.703125 32.421875 
L 28.703125 32.421875 
C 38 32.421875 38.90625 29.140625 38.90625 20.8125 
L 40.703125 20.8125 
L 40.703125 46.671875 
L 38.90625 46.671875 
C 38.90625 38.28125 38 35 28.703125 35 
L 19.703125 35 
L 19.703125 61.109375 
C 19.703125 64.5 19.90625 65 23.90625 65 
L 36.796875 65 
C 51.90625 65 53.59375 58.828125 55 45.5625 
L 56.796875 45.5625 
z
" id="CMR17-70"/>
     <path d="M 15.5 61.078125 
C 15.5 63.265625 13.703125 65.15625 11.40625 65.15625 
C 9.203125 65.15625 7.296875 63.375 7.296875 61.078125 
C 7.296875 58.890625 9.09375 57 11.40625 57 
C 13.59375 57 15.5 58.796875 15.5 61.078125 
M 3.796875 42.28125 
L 3.796875 39.703125 
C 9.40625 39.703125 10.203125 39.09375 10.203125 34.328125 
L 10.203125 6.671875 
C 10.203125 2.875 9.796875 2.390625 3.40625 2.390625 
L 3.40625 -0.203125 
C 5.796875 0 10.09375 0 12.59375 0 
C 15 0 19.09375 0 21.40625 -0.203125 
L 21.40625 2.390625 
C 15.5 2.390625 15.296875 2.984375 15.296875 6.5625 
L 15.296875 43.375 
z
" id="CMR17-105"/>
     <path d="M 15 23.390625 
C 15 33 19.09375 42 26.59375 42 
C 27.296875 42 28 41.90625 28.703125 41.59375 
C 28.703125 41.59375 26.5 40.890625 26.5 38.3125 
C 26.5 35.90625 28.40625 34.90625 29.90625 34.90625 
C 31.09375 34.90625 33.296875 35.609375 33.296875 38.40625 
C 33.296875 41.609375 30.09375 43.59375 26.703125 43.59375 
C 19.09375 43.59375 15.796875 36.203125 14.796875 32.703125 
L 14.703125 32.703125 
L 14.703125 43.59375 
L 3.09375 42.5 
L 3.09375 39.90625 
C 9 39.90625 9.90625 39.296875 9.90625 34.5 
L 9.90625 6.6875 
C 9.90625 2.875 9.5 2.390625 3.09375 2.390625 
L 3.09375 -0.203125 
C 5.5 0 10.09375 0 12.703125 0 
C 15.59375 0 20.703125 0 23.40625 -0.203125 
L 23.40625 2.390625 
C 16.203125 2.390625 15 2.390625 15 6.875 
z
" id="CMR17-114"/>
     <path d="M 30.90625 42.140625 
C 30.90625 43.953125 30.796875 44.046875 30.203125 44.046875 
C 29.796875 44.046875 29.703125 43.953125 28.5 42.453125 
C 28.203125 42.046875 27.296875 41.03125 27 40.640625 
C 23.796875 44.046875 19.296875 44.046875 17.59375 44.046875 
C 6.5 44.046875 2.5 38.234375 2.5 32.4375 
C 2.5 23.40625 12.703125 21.328125 15.59375 20.703125 
C 21.90625 19.421875 24.09375 19.015625 26.203125 17.203125 
C 27.5 16.015625 29.703125 13.8125 29.703125 10.21875 
C 29.703125 6 27.296875 0.59375 18.09375 0.59375 
C 9.40625 0.59375 6.296875 7.1875 4.5 15.953125 
C 4.203125 17.34375 4.203125 17.453125 3.40625 17.453125 
C 2.59375 17.453125 2.5 17.34375 2.5 15.359375 
L 2.5 0.984375 
C 2.5 -0.796875 2.59375 -0.90625 3.203125 -0.90625 
C 3.703125 -0.90625 3.796875 -0.796875 4.296875 0 
C 4.90625 0.890625 6.40625 3.296875 7 4.3125 
C 9 1.609375 12.5 -1 18.09375 -1 
C 28 -1 33.296875 4.421875 33.296875 12.25 
C 33.296875 17.375 30.59375 20.078125 29.296875 21.28125 
C 26.296875 24.390625 22.796875 25.09375 18.59375 25.890625 
C 13.09375 27.109375 6.09375 28.515625 6.09375 34.640625 
C 6.09375 37.234375 7.5 42.765625 17.59375 42.765625 
C 28.296875 42.765625 28.90625 32.71875 29.09375 29.5 
C 29.203125 29 29.703125 28.890625 30 28.890625 
C 30.90625 28.890625 30.90625 29.203125 30.90625 30.90625 
z
" id="CMR17-115"/>
     <path d="M 15.09375 40 
L 29.09375 40 
L 29.09375 42.578125 
L 15.09375 42.578125 
L 15.09375 61 
L 13.296875 61 
C 13.09375 50.703125 9.59375 41.6875 1.09375 41.6875 
L 1.09375 40 
L 9.796875 40 
L 9.796875 12.046875 
C 9.796875 10.15625 9.796875 -1 21.40625 -1 
C 27.296875 -1 30.703125 4.78125 30.703125 12.140625 
L 30.703125 17.8125 
L 28.90625 17.8125 
L 28.90625 12.234375 
C 28.90625 5.375 26.203125 0.796875 22 0.796875 
C 19.09375 0.796875 15.09375 2.78125 15.09375 11.84375 
z
" id="CMR17-116"/>
     <path d="M 29.40625 42.078125 
L 29.40625 39.5 
C 35.296875 39.5 36.203125 38.890625 36.203125 34.15625 
L 36.203125 16.125 
C 36.203125 7.8125 31.703125 0.59375 24.296875 0.59375 
C 16.09375 0.59375 15.40625 5.4375 15.40625 10.59375 
L 15.40625 43.171875 
L 3.296875 42.078125 
L 3.296875 39.5 
C 7.296875 39.5 10 39.5 10.09375 35.53125 
L 10.09375 16.53125 
C 10.09375 9.890625 10.09375 5.640625 12.703125 2.859375 
C 14 1.578125 16.5 -1 23.703125 -1 
C 32.203125 -1 35.5 5.890625 36.296875 7.90625 
L 36.40625 7.90625 
L 36.40625 -0.984375 
L 48.296875 -0.984375 
L 48.296875 2 
C 42.40625 2 41.5 2.59375 41.5 7.390625 
L 41.5 43.171875 
z
" id="CMR17-117"/>
     <path d="M 15 68.6875 
L 3.09375 67.59375 
L 3.09375 65 
C 9 65 9.90625 64.40625 9.90625 59.640625 
L 9.90625 -0.203125 
L 11.703125 -0.203125 
L 14.59375 6.890625 
C 17.5 2.203125 21.796875 -1 27.59375 -1 
C 37.59375 -1 47.703125 7.8125 47.703125 21.40625 
C 47.703125 34.1875 38.703125 43.59375 28.59375 43.59375 
C 22.40625 43.59375 18 40.296875 15 36.40625 
z
M 15.203125 31.3125 
C 15.203125 33.09375 15.203125 33.40625 16.59375 35.5 
C 20.5 41.515625 26.09375 42 28 42 
C 31 42 41.296875 40.390625 41.296875 21.5 
C 41.296875 1.6875 29.5 0.59375 27.09375 0.59375 
C 24 0.59375 19.5 1.78125 16.296875 7.59375 
C 15.203125 9.5 15.203125 9.703125 15.203125 11.484375 
z
" id="CMR17-98"/>
     <path d="M 22 -16.609375 
C 15.59375 -16.609375 15.203125 -16.203125 15.203125 -12.328125 
L 15.203125 6.28125 
C 18.09375 2.09375 22.296875 -0.59375 27.59375 -0.59375 
C 37.59375 -0.59375 47.703125 8.171875 47.703125 21.6875 
C 47.703125 34.234375 39 43.78125 28.703125 43.78125 
C 22.703125 43.78125 17.796875 40.5 15 36.53125 
L 15 43.78125 
L 3.09375 42.6875 
L 3.09375 40.109375 
C 9 40.109375 9.90625 39.5 9.90625 34.734375 
L 9.90625 -12.328125 
C 9.90625 -16.109375 9.5 -16.609375 3.09375 -16.609375 
L 3.09375 -19.1875 
C 5.5 -19 9.90625 -19 12.5 -19 
C 15.09375 -19 19.59375 -19 22 -19.1875 
z
M 15.203125 31.4375 
C 15.203125 32.84375 15.203125 34.921875 19.09375 38.609375 
C 19.59375 39.015625 23 42 28 42 
C 35.296875 42 41.296875 32.9375 41.296875 21.59375 
C 41.296875 10.25 34.90625 1 27 1 
C 23.40625 1 19.5 2.6875 16.5 7.375 
C 15.203125 9.5625 15.203125 10.15625 15.203125 11.75 
z
" id="CMR17-112"/>
     <path d="M 15.296875 68.6875 
L 3.40625 67.59375 
L 3.40625 65 
C 9.296875 65 10.203125 64.40625 10.203125 59.640625 
L 10.203125 6.65625 
C 10.203125 2.875 9.796875 2.390625 3.40625 2.390625 
L 3.40625 -0.203125 
C 5.796875 0 10.203125 0 12.703125 0 
C 15.296875 0 19.703125 0 22.09375 -0.203125 
L 22.09375 2.390625 
C 15.703125 2.390625 15.296875 2.78125 15.296875 6.65625 
z
" id="CMR17-108"/>
     <path d="M 43.09375 21.1875 
C 43.09375 34 33.796875 44 22.90625 44 
C 12 44 2.703125 34 2.703125 21.1875 
C 2.703125 8.609375 12 -1 22.90625 -1 
C 33.796875 -1 43.09375 8.609375 43.09375 21.1875 
M 22.90625 0.796875 
C 18.203125 0.796875 14.203125 3.59375 11.90625 7.5 
C 9.40625 11.984375 9.09375 17.59375 9.09375 22 
C 9.09375 26.203125 9.296875 31.40625 11.90625 35.90625 
C 13.90625 39.203125 17.796875 42.40625 22.90625 42.40625 
C 27.40625 42.40625 31.203125 39.90625 33.59375 36.40625 
C 36.703125 31.703125 36.703125 25.109375 36.703125 22 
C 36.703125 18.09375 36.5 12.109375 33.796875 7.296875 
C 31 2.703125 26.703125 0.796875 22.90625 0.796875 
" id="CMR17-111"/>
    </defs>
    <g transform="translate(293.777340612 34.3839601494)scale(0.21599999999999997 -0.21599999999999997)">
     <use transform="scale(0.9962640099626402)" xlink:href="#CMR17-70"/>
     <use transform="translate(59.98384658604453 0.0)scale(0.9962640099626402)" xlink:href="#CMR17-105"/>
     <use transform="translate(84.85490506790941 0.0)scale(0.9962640099626402)" xlink:href="#CMR17-114"/>
     <use transform="translate(120.13567286737236 0.0)scale(0.9962640099626402)" xlink:href="#CMR17-115"/>
     <use transform="translate(155.93701050260742 0.0)scale(0.9962640099626402)" xlink:href="#CMR17-116"/>
     <use transform="translate(221.29374464897262 0.0)scale(0.9962640099626402)" xlink:href="#CMR17-115"/>
     <use transform="translate(257.0950822842077 0.0)scale(0.9962640099626402)" xlink:href="#CMR17-117"/>
     <use transform="translate(307.9904520645237 0.0)scale(0.9962640099626402)" xlink:href="#CMR17-98"/>
     <use transform="translate(358.8858218448397 0.0)scale(0.9962640099626402)" xlink:href="#CMR17-112"/>
     <use transform="translate(409.7811916251557 0.0)scale(0.9962640099626402)" xlink:href="#CMR17-108"/>
     <use transform="translate(434.65225010702056 0.0)scale(0.9962640099626402)" xlink:href="#CMR17-111"/>
     <use transform="translate(480.3427272240816 0.0)scale(0.9962640099626402)" xlink:href="#CMR17-116"/>
    </g>
   </g>
   <g id="legend_1">
    <g id="patch_7">
     <path d="M 488.568506 114.822973 
L 616.587616 114.822973 
Q 620.187616 114.822973 620.187616 111.222973 
L 620.187616 51.98396 
Q 620.187616 48.38396 616.587616 48.38396 
L 488.568506 48.38396 
Q 484.968506 48.38396 484.968506 51.98396 
L 484.968506 111.222973 
Q 484.968506 114.822973 488.568506 114.822973 
z
" style="fill:none;stroke:#000000;stroke-linejoin:miter;"/>
    </g>
    <g id="line2d_15">
     <path d="M 497.568506 64.526894 
L 522.768506 64.526894 
" style="fill:none;stroke:#000000;stroke-linecap:square;stroke-width:2.0;"/>
    </g>
    <g id="line2d_16"/>
    <g id="text_10">
     <!-- $\sin \big( x \big)$ -->
     <defs>
      <path d="M 41.5 30.203125 
C 41.5 35.296875 40.5 43.59375 28.703125 43.59375 
C 20.796875 43.59375 16.703125 37.5 15.203125 33.5 
L 15.09375 33.5 
L 15.09375 43.59375 
L 3.296875 42.5 
L 3.296875 39.90625 
C 9.203125 39.90625 10.09375 39.296875 10.09375 34.5 
L 10.09375 6.6875 
C 10.09375 2.875 9.703125 2.390625 3.296875 2.390625 
L 3.296875 -0.203125 
C 5.703125 0 10.09375 0 12.703125 0 
C 15.296875 0 19.796875 0 22.203125 -0.203125 
L 22.203125 2.390625 
C 15.796875 2.390625 15.40625 2.78125 15.40625 6.6875 
L 15.40625 25.90625 
C 15.40625 35.109375 21 42 28 42 
C 35.40625 42 36.203125 35.40625 36.203125 30.59375 
L 36.203125 6.6875 
C 36.203125 2.875 35.796875 2.390625 29.40625 2.390625 
L 29.40625 -0.203125 
C 31.796875 0 36.203125 0 38.796875 0 
C 41.40625 0 45.90625 0 48.296875 -0.203125 
L 48.296875 2.390625 
C 41.90625 2.390625 41.5 2.78125 41.5 6.6875 
z
" id="CMR17-110"/>
      <path d="M 41.296875 -114.90625 
C 41.296875 -114.5 41.09375 -114.296875 40.90625 -114 
C 36.296875 -109.09375 29.5 -101 25.296875 -84.703125 
C 23 -75.59375 22.09375 -65.296875 22.09375 -56 
C 22.09375 -29.703125 28.40625 -11.296875 40.40625 1.703125 
C 41.296875 2.59375 41.296875 2.796875 41.296875 3 
C 41.296875 4 40.5 4 40.09375 4 
C 38.59375 4 33.203125 -2 31.90625 -3.5 
C 21.703125 -15.59375 15.203125 -33.59375 15.203125 -55.90625 
C 15.203125 -70.09375 17.703125 -90.203125 30.796875 -107.09375 
C 31.796875 -108.296875 38.296875 -115.90625 40.09375 -115.90625 
C 40.5 -115.90625 41.296875 -115.90625 41.296875 -114.90625 
" id="CMEX10-0"/>
      <path d="M 30.5 -56 
C 30.5 -41.796875 28 -21.703125 14.90625 -4.796875 
C 13.90625 -3.59375 7.40625 4 5.59375 4 
C 5.09375 4 4.40625 3.796875 4.40625 3 
C 4.40625 2.59375 4.59375 2.296875 5 2 
C 9.796875 -3.203125 16.296875 -11.296875 20.40625 -27.203125 
C 22.703125 -36.296875 23.59375 -46.59375 23.59375 -55.90625 
C 23.59375 -66 22.703125 -76.203125 20.09375 -86 
C 16.296875 -100 10.40625 -108 5.296875 -113.59375 
C 4.40625 -114.5 4.40625 -114.703125 4.40625 -114.90625 
C 4.40625 -115.703125 5.09375 -115.90625 5.59375 -115.90625 
C 7.09375 -115.90625 12.59375 -109.796875 13.796875 -108.40625 
C 24 -96.296875 30.5 -78.296875 30.5 -56 
" id="CMEX10-1"/>
     </defs>
     <g transform="translate(531.768506358 70.8268937529)scale(0.18 -0.18)">
      <use transform="scale(0.9962640099626402)" xlink:href="#CMR17-115"/>
      <use transform="translate(35.80133763523506 0.0)scale(0.9962640099626402)" xlink:href="#CMR17-105"/>
      <use transform="translate(60.67239611709994 0.0)scale(0.9962640099626402)" xlink:href="#CMR17-110"/>
      <use transform="translate(128.17217113072076 80.69808408896327)scale(0.9962640099626402)" xlink:href="#CMEX10-0"/>
      <use transform="translate(173.8345249503814 0.0)scale(0.9962640099626402)" xlink:href="#CMMI12-120"/>
      <use transform="translate(229.26858448299348 80.69808408896327)scale(0.9962640099626402)" xlink:href="#CMEX10-1"/>
     </g>
    </g>
    <g id="line2d_17">
     <path d="M 497.568506 97.834909 
L 522.768506 97.834909 
" style="fill:none;stroke:#ff0000;stroke-linecap:square;stroke-width:2.0;"/>
    </g>
    <g id="line2d_18"/>
    <g id="text_11">
     <!-- $\sin \big( x - \tfrac{\pi}{4} \big)$ -->
     <defs>
      <path d="M 33.59375 64.40625 
C 33.59375 66.5 33.5 66.5 31.703125 66.5 
L 2 19.59375 
L 2 17 
L 27.796875 17 
L 27.796875 7.140625 
C 27.796875 3.5 27.59375 2.5 20.59375 2.5 
L 18.703125 2.5 
L 18.703125 0 
C 21.90625 0 27.296875 0 30.703125 0 
C 34.09375 0 39.5 0 42.703125 0 
L 42.703125 2.5 
L 40.796875 2.5 
C 33.796875 2.5 33.59375 3.5 33.59375 7.140625 
L 33.59375 17 
L 43.796875 17 
L 43.796875 19.59375 
L 33.59375 19.59375 
z
M 28.09375 57.859375 
L 28.09375 19.59375 
L 4 19.59375 
z
" id="CMR17-52"/>
     </defs>
     <g transform="translate(531.768506358 104.134908619)scale(0.18 -0.18)">
      <use transform="translate(0.0 34.35525288469022)scale(0.9962640099626402)" xlink:href="#CMR17-115"/>
      <use transform="translate(35.80133763523506 34.35525288469022)scale(0.9962640099626402)" xlink:href="#CMR17-105"/>
      <use transform="translate(60.67239611709994 34.35525288469022)scale(0.9962640099626402)" xlink:href="#CMR17-110"/>
      <use transform="translate(128.17217113072076 115.0533369736535)scale(0.9962640099626402)" xlink:href="#CMEX10-0"/>
      <use transform="translate(173.8345249503814 34.35525288469022)scale(0.9962640099626402)" xlink:href="#CMMI12-120"/>
      <use transform="translate(251.40779146073322 34.35525288469022)scale(0.9962640099626402)" xlink:href="#CMSY10-0"/>
      <use transform="translate(352.2299798606787 73.58135446664852)scale(0.6973817666173724)" xlink:href="#CMMI12-25"/>
      <use transform="translate(356.85700717037673 0.0)scale(0.6973817666173724)" xlink:href="#CMR17-52"/>
      <use transform="translate(394.66271501401 115.0533369736535)scale(0.9962640099626402)" xlink:href="#CMEX10-1"/>
      <path d="M 352.22998 57.269386 
L 393.467201 57.269386 
L 393.467201 61.254336 
L 352.22998 61.254336 
L 352.22998 57.269386 
z
"/>
     </g>
    </g>
   </g>
  </g>
  <g id="axes_2">
   <g id="patch_8">
    <path d="M 708.021677 368.488986 
L 1267.467616 368.488986 
L 1267.467616 39.38396 
L 708.021677 39.38396 
z
" style="fill:none;"/>
   </g>
   <g id="line2d_19">
    <path clip-path="url(#pdfe00bfc1a)" d="M 708.021677 39.38396 
L 710.825917 39.465564 
L 713.630158 39.710296 
L 716.434398 40.117912 
L 719.238638 40.688009 
L 722.042878 41.420021 
L 724.847119 42.313222 
L 727.651359 43.366726 
L 731.857719 45.245222 
L 736.06408 47.477819 
L 740.27044 50.059537 
L 744.476801 52.984615 
L 748.683161 56.246525 
L 752.889522 59.837989 
L 757.095882 63.750994 
L 761.302243 67.976807 
L 765.508603 72.505999 
L 769.714963 77.328464 
L 773.921324 82.43344 
L 779.529805 89.659763 
L 785.138285 97.339347 
L 790.746766 105.441731 
L 796.355246 113.934779 
L 801.963727 122.784805 
L 808.974328 134.295738 
L 815.984928 146.238182 
L 824.397649 161.034361 
L 834.21249 178.770805 
L 851.037932 209.765595 
L 866.461254 238.022122 
L 876.276095 255.524757 
L 884.688816 270.036465 
L 891.699416 281.684471 
L 898.710017 292.850729 
L 904.318498 301.390272 
L 909.926978 309.54328 
L 915.535459 317.277415 
L 921.14394 324.562001 
L 925.3503 329.712972 
L 929.55666 334.583287 
L 933.763021 339.162078 
L 937.969381 343.439128 
L 942.175742 347.404892 
L 946.382102 351.050522 
L 950.588463 354.367884 
L 954.794823 357.349574 
L 959.001184 359.98894 
L 963.207544 362.280091 
L 967.413904 364.217916 
L 971.620265 365.79809 
L 974.424505 366.651071 
L 977.228746 367.342666 
L 980.032986 367.872189 
L 982.837226 368.239116 
L 985.641466 368.443082 
L 988.445707 368.483886 
L 991.249947 368.361486 
L 994.054187 368.076004 
L 996.858428 367.627723 
L 999.662668 367.017088 
L 1002.466908 366.244705 
L 1005.271148 365.311339 
L 1008.075389 364.217916 
L 1012.281749 362.280091 
L 1016.48811 359.98894 
L 1020.69447 357.349574 
L 1024.900831 354.367884 
L 1029.107191 351.050522 
L 1033.313551 347.404892 
L 1037.519912 343.439128 
L 1041.726272 339.162078 
L 1045.932633 334.583287 
L 1050.138993 329.712972 
L 1054.345354 324.562001 
L 1059.953834 317.277415 
L 1065.562315 309.54328 
L 1071.170795 301.390272 
L 1076.779276 292.850729 
L 1082.387757 283.958522 
L 1089.398357 272.401181 
L 1096.408958 260.419615 
L 1104.821679 245.586448 
L 1114.63652 227.820984 
L 1132.864082 194.224884 
L 1146.885284 168.584364 
L 1156.700125 151.119487 
L 1165.112845 136.652038 
L 1172.123446 125.049005 
L 1179.134047 113.934779 
L 1184.742528 105.441731 
L 1190.351008 97.339347 
L 1195.959489 89.659763 
L 1201.567969 82.43344 
L 1205.77433 77.328464 
L 1209.98069 72.505999 
L 1214.187051 67.976807 
L 1218.393411 63.750994 
L 1222.599772 59.837989 
L 1226.806132 56.246525 
L 1231.012492 52.984615 
L 1235.218853 50.059537 
L 1239.425213 47.477819 
L 1243.631574 45.245222 
L 1247.837934 43.366726 
L 1250.642175 42.313222 
L 1253.446415 41.420021 
L 1256.250655 40.688009 
L 1259.054895 40.117912 
L 1261.859136 39.710296 
L 1264.663376 39.465564 
L 1267.467616 39.38396 
L 1267.467616 39.38396 
" style="fill:none;stroke:#000000;stroke-dasharray:6.000000,6.000000;stroke-dashoffset:0.0;stroke-width:2.0;"/>
   </g>
   <g id="line2d_20">
    <path clip-path="url(#pdfe00bfc1a)" d="M 708.021677 87.580275 
L 713.630158 80.486677 
L 717.836518 75.48634 
L 722.042878 70.772626 
L 726.249239 66.356053 
L 730.455599 62.246475 
L 734.66196 58.453063 
L 738.86832 54.984282 
L 743.074681 51.847871 
L 747.281041 49.050829 
L 751.487402 46.599398 
L 755.693762 44.499047 
L 759.900122 42.754463 
L 762.704363 41.791011 
L 765.508603 40.988381 
L 768.312843 40.347367 
L 771.117084 39.868606 
L 773.921324 39.552573 
L 776.725564 39.399581 
L 779.529805 39.409782 
L 782.334045 39.583165 
L 785.138285 39.91956 
L 787.942525 40.418632 
L 790.746766 41.079886 
L 793.551006 41.902666 
L 796.355246 42.886157 
L 800.561607 44.660547 
L 804.767967 46.790345 
L 808.974328 49.270797 
L 813.180688 52.096368 
L 817.387049 55.260754 
L 821.593409 58.756894 
L 825.799769 62.576986 
L 830.00613 66.712507 
L 834.21249 71.154227 
L 838.418851 75.892237 
L 842.625211 80.915964 
L 846.831572 86.214198 
L 852.440052 93.685001 
L 858.048533 101.593099 
L 863.657013 109.907127 
L 869.265494 118.594107 
L 876.276095 129.924676 
L 883.286696 141.713842 
L 891.699416 156.363162 
L 901.514257 173.981009 
L 915.535459 199.72613 
L 935.165141 235.800778 
L 944.979982 253.36688 
L 953.392703 267.953873 
L 960.403304 279.678841 
L 967.413904 290.93449 
L 973.022385 299.554124 
L 978.630866 307.794504 
L 984.239346 315.622949 
L 989.847827 323.008406 
L 994.054187 328.239098 
L 998.260548 333.192422 
L 1002.466908 337.857325 
L 1006.673269 342.223399 
L 1010.879629 346.2809 
L 1015.08599 350.020775 
L 1019.29235 353.434679 
L 1023.49871 356.514995 
L 1027.705071 359.254847 
L 1031.911431 361.648124 
L 1036.117792 363.689485 
L 1040.324152 365.374374 
L 1043.128393 366.297704 
L 1045.932633 367.059999 
L 1048.736873 367.660502 
L 1051.541113 368.09862 
L 1054.345354 368.373916 
L 1057.149594 368.486117 
L 1059.953834 368.435113 
L 1062.758075 368.220954 
L 1065.562315 367.843853 
L 1068.366555 367.304183 
L 1071.170795 366.60248 
L 1073.975036 365.739439 
L 1076.779276 364.715917 
L 1080.985637 362.881995 
L 1085.191997 360.693404 
L 1089.398357 358.155027 
L 1093.604718 355.272528 
L 1097.811078 352.052339 
L 1102.017439 348.501646 
L 1106.223799 344.628371 
L 1110.43016 340.441158 
L 1114.63652 335.949349 
L 1118.842881 331.162968 
L 1123.049241 326.092695 
L 1128.657722 318.910363 
L 1134.266202 311.272006 
L 1139.874683 303.207919 
L 1145.483163 294.750088 
L 1151.091644 285.932058 
L 1158.102245 274.4564 
L 1165.112845 262.543783 
L 1173.525566 247.775948 
L 1183.340407 230.061989 
L 1198.763729 201.66919 
L 1215.589171 170.802061 
L 1225.404012 153.271818 
L 1233.816733 138.727508 
L 1240.827334 127.046246 
L 1247.837934 115.841417 
L 1253.446415 107.26735 
L 1259.054895 99.076706 
L 1264.663376 91.301972 
L 1267.467616 87.580275 
L 1267.467616 87.580275 
" style="fill:none;stroke:#ff0000;stroke-dasharray:6.000000,6.000000;stroke-dashoffset:0.0;stroke-width:2.0;"/>
   </g>
   <g id="patch_9">
    <path d="M 708.021677 368.488986 
L 708.021677 39.38396 
" style="fill:none;stroke:#000000;stroke-linecap:square;stroke-linejoin:miter;"/>
   </g>
   <g id="patch_10">
    <path d="M 1267.467616 368.488986 
L 1267.467616 39.38396 
" style="fill:none;stroke:#000000;stroke-linecap:square;stroke-linejoin:miter;"/>
   </g>
   <g id="patch_11">
    <path d="M 708.021677 368.488986 
L 1267.467616 368.488986 
" style="fill:none;stroke:#000000;stroke-linecap:square;stroke-linejoin:miter;"/>
   </g>
   <g id="patch_12">
    <path d="M 708.021677 39.38396 
L 1267.467616 39.38396 
" style="fill:none;stroke:#000000;stroke-linecap:square;stroke-linejoin:miter;"/>
   </g>
   <g id="matplotlib.axis_3">
    <g id="xtick_4">
     <g id="line2d_21">
      <g>
       <use style="stroke:#000000;stroke-width:0.5;" x="708.021676939" xlink:href="#m24af64bbeb" y="368.488986394"/>
      </g>
     </g>
     <g id="line2d_22">
      <g>
       <use style="stroke:#000000;stroke-width:0.5;" x="708.021676939" xlink:href="#mb50134e064" y="39.3839601494"/>
      </g>
     </g>
     <g id="text_12">
      <!-- 0 -->
      <g transform="translate(703.909533998 384.942286518)scale(0.18 -0.18)">
       <use transform="scale(0.9962640099626402)" xlink:href="#CMR17-48"/>
      </g>
     </g>
    </g>
    <g id="xtick_5">
     <g id="line2d_23">
      <g>
       <use style="stroke:#000000;stroke-width:0.5;" x="987.744646638" xlink:href="#m24af64bbeb" y="368.488986394"/>
      </g>
     </g>
     <g id="line2d_24">
      <g>
       <use style="stroke:#000000;stroke-width:0.5;" x="987.744646638" xlink:href="#mb50134e064" y="39.3839601494"/>
      </g>
     </g>
     <g id="text_13">
      <!-- $\pi$ -->
      <g transform="translate(982.764405914 384.942286518)scale(0.18 -0.18)">
       <use transform="scale(0.9962640099626402)" xlink:href="#CMMI12-25"/>
      </g>
     </g>
    </g>
    <g id="xtick_6">
     <g id="line2d_25">
      <g>
       <use style="stroke:#000000;stroke-width:0.5;" x="1267.46761634" xlink:href="#m24af64bbeb" y="368.488986394"/>
      </g>
     </g>
     <g id="line2d_26">
      <g>
       <use style="stroke:#000000;stroke-width:0.5;" x="1267.46761634" xlink:href="#mb50134e064" y="39.3839601494"/>
      </g>
     </g>
     <g id="text_14">
      <!-- $2\pi$ -->
      <g transform="translate(1258.37523267 384.942286518)scale(0.18 -0.18)">
       <use transform="scale(0.9962640099626402)" xlink:href="#CMR17-50"/>
       <use transform="translate(45.69047711706103 0.0)scale(0.9962640099626402)" xlink:href="#CMMI12-25"/>
      </g>
     </g>
    </g>
    <g id="text_15">
     <!-- $x$ -->
     <g transform="translate(981.757766688 408.374310836)scale(0.21599999999999997 -0.21599999999999997)">
      <use transform="scale(0.9962640099626402)" xlink:href="#CMMI12-120"/>
     </g>
    </g>
   </g>
   <g id="matplotlib.axis_4">
    <g id="ytick_4">
     <g id="line2d_27">
      <g>
       <use style="stroke:#000000;stroke-width:0.5;" x="708.021676939" xlink:href="#m8dd60e5afa" y="368.488986394"/>
      </g>
     </g>
     <g id="line2d_28">
      <g>
       <use style="stroke:#000000;stroke-width:0.5;" x="1267.46761634" xlink:href="#m756bcdfda0" y="368.488986394"/>
      </g>
     </g>
     <g id="text_16">
      <!-- $-1$ -->
      <g transform="translate(681.849649313 372.971604372)scale(0.18 -0.18)">
       <use transform="scale(0.9962640099626402)" xlink:href="#CMSY10-0"/>
       <use transform="translate(77.4874676506071 0.0)scale(0.9962640099626402)" xlink:href="#CMR17-49"/>
      </g>
     </g>
    </g>
    <g id="ytick_5">
     <g id="line2d_29">
      <g>
       <use style="stroke:#000000;stroke-width:0.5;" x="708.021676939" xlink:href="#m8dd60e5afa" y="203.936473272"/>
      </g>
     </g>
     <g id="line2d_30">
      <g>
       <use style="stroke:#000000;stroke-width:0.5;" x="1267.46761634" xlink:href="#m756bcdfda0" y="203.936473272"/>
      </g>
     </g>
     <g id="text_17">
      <!-- $0$ -->
      <g transform="translate(695.797391058 208.41909125)scale(0.18 -0.18)">
       <use transform="scale(0.9962640099626402)" xlink:href="#CMR17-48"/>
      </g>
     </g>
    </g>
    <g id="ytick_6">
     <g id="line2d_31">
      <g>
       <use style="stroke:#000000;stroke-width:0.5;" x="708.021676939" xlink:href="#m8dd60e5afa" y="39.3839601494"/>
      </g>
     </g>
     <g id="line2d_32">
      <g>
       <use style="stroke:#000000;stroke-width:0.5;" x="1267.46761634" xlink:href="#m756bcdfda0" y="39.3839601494"/>
      </g>
     </g>
     <g id="text_18">
      <!-- $1$ -->
      <g transform="translate(695.797391058 43.8665781274)scale(0.18 -0.18)">
       <use transform="scale(0.9962640099626402)" xlink:href="#CMR17-49"/>
      </g>
     </g>
    </g>
    <g id="text_19">
     <!-- $y$ -->
     <g transform="translate(672.663960149 209.073406367)rotate(-90.0)scale(0.21599999999999997 -0.21599999999999997)">
      <use transform="scale(0.9962640099626402)" xlink:href="#CMMI12-121"/>
     </g>
    </g>
   </g>
   <g id="text_20">
    <!-- Second subplot -->
    <defs>
     <path d="M 43.796875 67.03125 
C 43.796875 68.8125 43.703125 68.921875 43.09375 68.921875 
C 42.5 68.921875 42.296875 68.515625 41.90625 67.625 
L 38.90625 61.046875 
C 35.09375 66.515625 29.296875 69 23 69 
C 12.796875 69 4.59375 60.953125 4.59375 50.828125 
C 4.59375 47.75 5.296875 43.375 8.703125 39.21875 
C 12.40625 34.65625 15.90625 33.859375 23.90625 31.765625 
C 26.90625 30.96875 31.90625 29.671875 32.90625 29.28125 
C 38.59375 26.90625 41.59375 20.953125 41.59375 15.390625 
C 41.59375 8.234375 36.5 0.59375 27.796875 0.59375 
C 17.09375 0.59375 7.09375 6.546875 6.40625 20.484375 
C 6.296875 22.078125 6.203125 22.171875 5.5 22.171875 
C 4.703125 22.171875 4.59375 22.078125 4.59375 20.078125 
L 4.59375 -0.015625 
C 4.59375 -1.796875 4.703125 -1.90625 5.296875 -1.90625 
C 6 -1.90625 6.203125 -1.40625 7.59375 1.6875 
C 7.703125 1.984375 7.703125 2.1875 9.59375 5.953125 
C 14.59375 -0.609375 23 -2 27.796875 -2 
C 38.703125 -2 46.40625 7.046875 46.40625 17.5625 
C 46.40625 22.71875 44.5 26.6875 43.40625 28.484375 
C 39.203125 34.84375 34.703125 36.03125 29.90625 37.21875 
C 29.203125 37.53125 29 37.53125 23.40625 38.90625 
C 18 40.296875 15.703125 41 13.203125 43.6875 
C 10.40625 46.75 9.40625 49.9375 9.40625 53.109375 
C 9.40625 59.5625 14.59375 66.609375 23.09375 66.609375 
C 33.703125 66.609375 40.296875 59.15625 41.796875 46.765625 
C 42.09375 44.96875 42.203125 44.875 42.90625 44.875 
C 43.796875 44.875 43.796875 45.171875 43.796875 46.859375 
z
" id="CMR17-83"/>
     <path d="M 38.09375 23 
C 38.5 23.40625 38.5 23.609375 38.5 24.625 
C 38.5 34.96875 33.09375 44 21.703125 44 
C 11.09375 44 2.703125 33.890625 2.703125 21.609375 
C 2.703125 8.609375 12.203125 -1 22.796875 -1 
C 34 -1 38.40625 9.484375 38.40625 11.5625 
C 38.40625 12.25 37.796875 12.25 37.59375 12.25 
C 36.90625 12.25 36.796875 12.046875 36.40625 10.875 
C 34.203125 4.140625 28.703125 0.796875 23.5 0.796875 
C 19.203125 0.796875 14.90625 3.171875 12.203125 7.5 
C 9.09375 12.546875 9.09375 18.375 9.09375 23 
z
M 9.203125 24.5 
C 9.90625 39.140625 17.59375 42.40625 21.59375 42.40625 
C 28.40625 42.40625 33 35.890625 33.09375 24.5 
z
" id="CMR17-101"/>
     <path d="M 34.90625 35 
C 33 35 30.203125 35 30.203125 31.515625 
C 30.203125 28.71875 32.5 27.921875 33.796875 27.921875 
C 34.5 27.921875 37.40625 28.234375 37.40625 31.625 
C 37.40625 38.546875 30.59375 43.796875 22.90625 43.796875 
C 12.296875 43.796875 3.296875 34.03125 3.296875 21.296875 
C 3.296875 8.0625 12.703125 -1 22.90625 -1 
C 35.296875 -1 38.40625 10.578125 38.40625 11.6875 
C 38.40625 12.09375 38.296875 12.390625 37.59375 12.390625 
C 36.90625 12.390625 36.796875 12.296875 36.40625 10.984375 
C 33.796875 2.8125 28.09375 0.796875 23.796875 0.796875 
C 17.40625 0.796875 9.703125 6.671875 9.703125 21.390625 
C 9.703125 36.53125 17.09375 42 23 42 
C 26.90625 42 32.703125 40.203125 34.90625 35 
" id="CMR17-99"/>
     <path d="M 29.203125 67.59375 
L 29.203125 65 
C 35.09375 65 36 64.40625 36 59.6875 
L 36 36.640625 
C 35.59375 37.140625 31.5 43.59375 23.40625 43.59375 
C 13.203125 43.59375 3.296875 34.5 3.296875 21.3125 
C 3.296875 8.203125 12.59375 -1 22.40625 -1 
C 30.90625 -1 35.296875 5.265625 35.796875 5.9375 
L 35.796875 -0.984375 
L 47.90625 -0.984375 
L 47.90625 2 
C 42 2 41.09375 2.59375 41.09375 7.390625 
L 41.09375 68.6875 
z
M 35.796875 11.796875 
C 35.796875 8.796875 34 6.09375 31.703125 4.09375 
C 28.296875 1.09375 24.90625 0.59375 23 0.59375 
C 20.09375 0.59375 9.703125 2.09375 9.703125 21.1875 
C 9.703125 40.8125 21.296875 42 23.90625 42 
C 28.5 42 32.203125 39.40625 34.5 35.796875 
C 35.796875 33.703125 35.796875 33.40625 35.796875 31.609375 
z
" id="CMR17-100"/>
    </defs>
    <g transform="translate(922.539284239 34.3839601494)scale(0.21599999999999997 -0.21599999999999997)">
     <use transform="scale(0.9962640099626402)" xlink:href="#CMR17-83"/>
     <use transform="translate(50.89536978031601 0.0)scale(0.9962640099626402)" xlink:href="#CMR17-101"/>
     <use transform="translate(91.38103024303395 0.0)scale(0.9962640099626402)" xlink:href="#CMR17-99"/>
     <use transform="translate(131.8666907057519 0.0)scale(0.9962640099626402)" xlink:href="#CMR17-111"/>
     <use transform="translate(177.55716782281291 0.0)scale(0.9962640099626402)" xlink:href="#CMR17-110"/>
     <use transform="translate(228.45253760312892 0.0)scale(0.9962640099626402)" xlink:href="#CMR17-100"/>
     <use transform="translate(309.42387373034717 0.0)scale(0.9962640099626402)" xlink:href="#CMR17-115"/>
     <use transform="translate(345.2252113655822 0.0)scale(0.9962640099626402)" xlink:href="#CMR17-117"/>
     <use transform="translate(396.12058114589826 0.0)scale(0.9962640099626402)" xlink:href="#CMR17-98"/>
     <use transform="translate(447.01595092621426 0.0)scale(0.9962640099626402)" xlink:href="#CMR17-112"/>
     <use transform="translate(497.91132070653026 0.0)scale(0.9962640099626402)" xlink:href="#CMR17-108"/>
     <use transform="translate(522.7823791883951 0.0)scale(0.9962640099626402)" xlink:href="#CMR17-111"/>
     <use transform="translate(568.4728563054562 0.0)scale(0.9962640099626402)" xlink:href="#CMR17-116"/>
    </g>
   </g>
   <g id="legend_2">
    <g id="patch_13">
     <path d="M 922.798213 114.822973 
L 1052.69108 114.822973 
Q 1056.29108 114.822973 1056.29108 111.222973 
L 1056.29108 51.98396 
Q 1056.29108 48.38396 1052.69108 48.38396 
L 922.798213 48.38396 
Q 919.198213 48.38396 919.198213 51.98396 
L 919.198213 111.222973 
Q 919.198213 114.822973 922.798213 114.822973 
z
" style="fill:none;stroke:#000000;stroke-linejoin:miter;"/>
    </g>
    <g id="line2d_33">
     <path d="M 931.798213 64.526894 
L 956.998213 64.526894 
" style="fill:none;stroke:#000000;stroke-dasharray:6.000000,6.000000;stroke-dashoffset:0.0;stroke-width:2.0;"/>
    </g>
    <g id="line2d_34"/>
    <g id="text_21">
     <!-- $\cos \big( x \big)$ -->
     <g transform="translate(965.998213401 70.8268937529)scale(0.18 -0.18)">
      <use transform="scale(0.9962640099626402)" xlink:href="#CMR17-99"/>
      <use transform="translate(40.48566046271794 0.0)scale(0.9962640099626402)" xlink:href="#CMR17-111"/>
      <use transform="translate(86.17613757977897 0.0)scale(0.9962640099626402)" xlink:href="#CMR17-115"/>
      <use transform="translate(138.58188044831883 80.69808408896327)scale(0.9962640099626402)" xlink:href="#CMEX10-0"/>
      <use transform="translate(184.24423426797946 0.0)scale(0.9962640099626402)" xlink:href="#CMMI12-120"/>
      <use transform="translate(239.67829380059155 80.69808408896327)scale(0.9962640099626402)" xlink:href="#CMEX10-1"/>
     </g>
    </g>
    <g id="line2d_35">
     <path d="M 931.798213 97.834909 
L 956.998213 97.834909 
" style="fill:none;stroke:#ff0000;stroke-dasharray:6.000000,6.000000;stroke-dashoffset:0.0;stroke-width:2.0;"/>
    </g>
    <g id="line2d_36"/>
    <g id="text_22">
     <!-- $\cos \big( x - \tfrac{\pi}{4} \big)$ -->
     <g transform="translate(965.998213401 104.134908619)scale(0.18 -0.18)">
      <use transform="translate(0.0 34.35525288469022)scale(0.9962640099626402)" xlink:href="#CMR17-99"/>
      <use transform="translate(40.48566046271794 34.35525288469022)scale(0.9962640099626402)" xlink:href="#CMR17-111"/>
      <use transform="translate(86.17613757977897 34.35525288469022)scale(0.9962640099626402)" xlink:href="#CMR17-115"/>
      <use transform="translate(138.58188044831883 115.0533369736535)scale(0.9962640099626402)" xlink:href="#CMEX10-0"/>
      <use transform="translate(184.24423426797946 34.35525288469022)scale(0.9962640099626402)" xlink:href="#CMMI12-120"/>
      <use transform="translate(261.8175007783313 34.35525288469022)scale(0.9962640099626402)" xlink:href="#CMSY10-0"/>
      <use transform="translate(362.6396891782768 73.58135446664852)scale(0.6973817666173724)" xlink:href="#CMMI12-25"/>
      <use transform="translate(367.2667164879748 0.0)scale(0.6973817666173724)" xlink:href="#CMR17-52"/>
      <use transform="translate(405.0724243316081 115.0533369736535)scale(0.9962640099626402)" xlink:href="#CMEX10-1"/>
      <path d="M 362.639689 57.269386 
L 403.876911 57.269386 
L 403.876911 61.254336 
L 362.639689 61.254336 
L 362.639689 57.269386 
z
"/>
     </g>
    </g>
   </g>
  </g>
 </g>
 <defs>
  <clipPath id="pb2169110b9">
   <rect height="329.105026244" width="559.445939397" x="69.741676939" y="39.3839601494"/>
  </clipPath>
  <clipPath id="pdfe00bfc1a">
   <rect height="329.105026244" width="559.445939397" x="708.021676939" y="39.3839601494"/>
  </clipPath>
 </defs>
</svg>
